<svg viewBox="373.45000000000005 51.952554744525514 306.7625 546.1678832116788" fill="none" xmlns="http://www.w3.org/2000/svg" xmlns:xlink="http://www.w3.org/1999/xlink" overflow="visible" width="306.7625px" height="546.1678832116788px"><g id="Master/Stickers/Orange Bulbs"><g id="Group 35"><path id="Fill 1" fill-rule="evenodd" clip-rule="evenodd" d="M384.408 461H571.296V363H384.408V461Z" fill="#BF62A2"/><g id="Group 34"><path id="Fill 2" fill-rule="evenodd" clip-rule="evenodd" d="M471.079 363.434H462.375V306.239C462.375 283.918 480.519 265.758 502.82 265.758H513.682C531.185 265.758 545.424 251.507 545.424 233.988V231.43C545.424 209.109 563.568 190.949 585.869 190.949V199.66C568.366 199.66 554.127 213.912 554.127 231.43V233.988C554.127 256.309 535.984 274.469 513.682 274.469H502.82C485.317 274.469 471.079 288.724 471.079 306.239V363.434Z" fill="#CBD3D8"/><path id="Fill 4" fill-rule="evenodd" clip-rule="evenodd" d="M655.093 195.303C655.093 214.404 639.621 229.89 620.537 229.89C601.45 229.89 585.979 214.404 585.979 195.303C585.979 176.203 601.45 160.717 620.537 160.717C639.621 160.717 655.093 176.203 655.093 195.303" fill="#F06647"/><path id="Fill 6" fill-rule="evenodd" clip-rule="evenodd" d="M629.192 189.774L635.453 181.577L632.952 191.586L643.26 191.374L633.88 195.66L640.474 203.596L631.278 198.926L629.192 209.031L627.106 198.926L617.909 203.596L624.501 195.66L615.121 191.374L625.432 191.586L622.931 181.577L629.192 189.774Z" fill="#3A3E5B"/><path id="Fill 8" fill-rule="evenodd" clip-rule="evenodd" d="M449.194 363.434H440.49V255.194C440.49 237.42 454.938 222.957 472.699 222.957C485.659 222.957 496.204 212.402 496.204 199.431V117.29H504.908V199.431C504.908 217.207 490.46 231.668 472.699 231.668C459.74 231.668 449.194 242.223 449.194 255.194V363.434Z" fill="#CBD3D8"/><g id="Group 12"><path id="Fill 10" fill-rule="evenodd" clip-rule="evenodd" d="M535.68 65.9367L546.199 55.4077L543.899 64.6736L552.26 61.4736L549.321 70.1036L558.529 67.8125L547.859 78.4954C547.859 78.4954 547.572 73.5009 543.907 69.8364C540.243 66.1661 535.68 65.9367 535.68 65.9367" fill="#3A3E5B"/></g><path id="Fill 13" fill-rule="evenodd" clip-rule="evenodd" d="M552.839 92.8585C552.839 111.962 537.367 127.448 518.283 127.448C499.197 127.448 483.725 111.962 483.725 92.8585C483.725 73.7576 499.197 58.272 518.283 58.272C537.367 58.272 552.839 73.7576 552.839 92.8585" fill="#F06647"/><g id="Group 17"><path id="Fill 15" fill-rule="evenodd" clip-rule="evenodd" d="M550.571 582.111V597.001L545.648 588.821L541.998 597.001L537.983 588.821L533.086 596.955V581.85C533.086 581.85 536.817 585.177 541.998 585.177C547.183 585.177 550.571 582.111 550.571 582.111" fill="#3A3E5B"/></g><path id="Fill 18" fill-rule="evenodd" clip-rule="evenodd" d="M546.181 520.738H537.478V349.359C537.478 343.334 532.58 338.435 526.561 338.435H522.435C516.415 338.435 511.518 343.334 511.518 349.359V363.434H502.814V349.359C502.814 338.534 511.617 329.724 522.435 329.724H526.561C537.379 329.724 546.181 338.534 546.181 349.359V520.738Z" fill="#CBD3D8"/><path id="Fill 20" fill-rule="evenodd" clip-rule="evenodd" d="M576.386 550.658C576.386 569.759 560.914 585.244 541.83 585.244C522.743 585.244 507.271 569.759 507.271 550.658C507.271 531.554 522.743 516.068 541.83 516.068C560.914 516.068 576.386 531.554 576.386 550.658" fill="#F06647"/><path id="Fill 22" fill-rule="evenodd" clip-rule="evenodd" d="M490.895 363.434H482.191V335.01C482.191 316.725 497.054 301.849 515.323 301.849H578.481C596.994 301.849 613.841 312.041 622.446 328.447L633.047 348.663L625.338 352.714L614.737 332.498C607.641 318.966 593.75 310.56 578.481 310.56H515.323C501.853 310.56 490.895 321.527 490.895 335.01V363.434Z" fill="#CBD3D8"/><path id="Fill 24" fill-rule="evenodd" clip-rule="evenodd" d="M668.76 402.657L676.99 415.059L668.368 410.971L669.851 419.807L661.983 415.216L662.403 424.706L654.051 412.124C654.051 412.124 658.997 412.829 663.314 409.96C667.631 407.086 668.76 402.657 668.76 402.657" fill="#3A3E5B"/><path id="Fill 26" fill-rule="evenodd" clip-rule="evenodd" d="M638.999 414.17C620.289 410.395 608.182 392.154 611.954 373.428C615.728 354.704 633.954 342.584 652.663 346.359C671.37 350.137 683.479 368.378 679.705 387.104C675.933 405.831 657.708 417.948 638.999 414.17" fill="#F06647"/><path id="Fill 28" fill-rule="evenodd" clip-rule="evenodd" d="M421.69 443.814C419.287 443.814 417.338 441.863 417.338 439.459V345.671C417.338 343.267 419.287 341.315 421.69 341.315C424.092 341.315 426.041 343.267 426.041 345.671V439.459C426.041 441.863 424.092 443.814 421.69 443.814" fill="#CBD3D8"/><path id="Fill 30" fill-rule="evenodd" clip-rule="evenodd" d="M421.691 508.037C402.607 508.037 387.135 492.552 387.135 473.451C387.135 454.347 402.607 438.861 421.691 438.861C440.777 438.861 456.249 454.347 456.249 473.451C456.249 492.552 440.777 508.037 421.691 508.037" fill="#F06647"/><path id="Fill 32" fill-rule="evenodd" clip-rule="evenodd" d="M427.215 482.113L435.408 488.38L425.405 485.877L425.617 496.197L421.335 486.806L413.409 493.406L418.071 484.204L407.975 482.113L418.071 480.023L413.409 470.818L421.335 477.421L425.617 468.03L425.405 478.347L435.408 475.847L427.215 482.113Z" fill="#3A3E5B"/></g></g></g></svg>