<svg viewBox="0 -1.3321167883211729 1065.9999999999998 732.6642335766425" fill="none" xmlns="http://www.w3.org/2000/svg" xmlns:xlink="http://www.w3.org/1999/xlink" overflow="visible" width="1065.9999999999998px" height="732.6642335766425px"><g id="Master/Stickers/Party"><rect width="1066" height="730" fill="white"/><g id="Group 104"><g id="Group 16"><g id="Group 3"><path id="Fill 1" fill-rule="evenodd" clip-rule="evenodd" d="M300.668 381.376C300.668 310.437 328.276 243.744 378.407 193.584C428.538 143.423 495.189 115.799 566.086 115.799C636.981 115.799 703.633 143.423 753.764 193.584C803.894 243.744 831.503 310.437 831.503 381.376V605.329H841.739V381.376C841.739 307.702 813.066 238.437 761.002 186.342C708.939 134.247 639.716 105.557 566.086 105.557C492.456 105.557 423.233 134.247 371.168 186.342C319.104 238.437 290.432 307.702 290.432 381.376V605.329H300.668V381.376Z" fill="#775CA6"/></g><g id="Group 6"><path id="Fill 4" fill-rule="evenodd" clip-rule="evenodd" d="M566.087 166.322C685.639 166.322 782.9 263.644 782.9 383.268V605.328H793.137V383.268C793.137 257.996 691.284 156.079 566.087 156.079C440.889 156.079 339.033 257.996 339.033 383.268V605.328H349.27V383.268C349.27 263.644 446.534 166.322 566.087 166.322" fill="#41AFE4"/></g><g id="Group 9"><path id="Fill 7" fill-rule="evenodd" clip-rule="evenodd" d="M566.084 206.85C468.865 206.85 389.771 285.99 389.771 383.268V605.329H400.008V383.268C400.008 291.639 474.51 217.092 566.084 217.092C657.659 217.092 732.16 291.639 732.16 383.268V605.329H742.396V383.268C742.396 285.99 663.303 206.85 566.084 206.85" fill="#00AFA9"/></g><g id="Group 12"><path id="Fill 10" fill-rule="evenodd" clip-rule="evenodd" d="M566.086 256.517C496.236 256.517 439.41 313.378 439.41 383.268V605.329H449.647V383.268C449.647 319.025 501.881 266.759 566.086 266.759C630.291 266.759 682.525 319.025 682.525 383.268V605.329H692.761V383.268C692.761 313.378 635.934 256.517 566.086 256.517" fill="#F1758E"/></g><g id="Group 15"><path id="Fill 13" fill-rule="evenodd" clip-rule="evenodd" d="M566.084 306.521C523.791 306.521 489.383 340.95 489.383 383.268V605.329H499.619V383.268C499.619 346.598 529.436 316.764 566.084 316.764C602.733 316.764 632.549 346.598 632.549 383.268V605.329H642.785V383.268C642.785 340.95 608.377 306.521 566.084 306.521" fill="#FFCC37"/></g></g><path id="Fill 1_2" fill-rule="evenodd" clip-rule="evenodd" d="M282.432 266.849C281.548 268.044 280.315 268.765 279.031 269.446C277.477 270.267 275.795 270.98 274.049 271.533C274.836 270.16 275.862 268.917 277.169 267.876C278.138 267.104 279.287 266.472 280.467 266.1C281.03 265.924 281.631 265.735 282.222 265.708C282.315 265.703 282.631 265.683 282.806 265.68C282.895 265.667 282.973 265.676 283.046 265.692C283.019 265.754 282.998 265.804 282.996 265.806C282.88 266.16 282.664 266.537 282.432 266.849M283.068 265.332C283.152 265.341 283.124 265.478 283.08 265.602C283.074 265.598 283.071 265.595 283.067 265.589C283.052 265.595 283.063 265.332 283.068 265.332M262.404 245.747C264.305 244.984 266.992 244.838 268.206 246.844C269.31 248.667 267.087 250.043 265.549 250.817C262.799 252.204 259.391 252.802 256.345 253.038C255.617 253.094 254.893 253.111 254.169 253.119C254.477 252.638 254.8 252.169 255.146 251.726C256.996 249.352 259.573 246.884 262.404 245.747M287.743 260.925C285.713 259.048 282.966 258.807 280.36 259.272C273.243 260.545 268.507 266.154 266.475 272.693C264.383 272.643 262.317 272.252 260.377 271.408C255.802 269.422 251.896 264.934 251.969 259.751C253.434 259.825 254.899 259.816 256.346 259.703C260.789 259.355 265.58 258.479 269.506 256.252C273.16 254.179 275.988 250.294 274.937 245.906C273.905 241.595 269.594 238.684 265.306 238.54C260.652 238.383 256.43 241.122 253.135 244.158C250.671 246.427 248.524 249.177 247.103 252.245C246.777 252.158 246.448 252.097 246.123 251.994C240.296 250.164 235.076 245.541 233.54 239.481C232.077 233.712 234.595 227.517 239.795 224.667C243.547 222.609 240.199 216.852 236.442 218.912C229.047 222.965 225.518 231.453 226.815 239.664C228.133 248.006 234.774 254.611 242.336 257.69C243.332 258.097 244.36 258.432 245.403 258.716C244.954 265.829 249.105 272.565 255.282 276.244C258.425 278.116 261.868 279.039 265.375 279.242C265.341 280.267 265.354 281.288 265.45 282.294C266.268 290.91 271.548 302.51 281.885 301.785C283.676 301.659 285.206 300.343 285.206 298.453C285.206 296.747 283.684 294.994 281.885 295.121C276.525 295.497 273.548 289.441 272.533 284.899C272.094 282.937 271.905 280.864 272.018 278.819C275.357 278.222 278.627 277.088 281.623 275.594C285.379 273.72 289.244 270.606 289.665 266.102C289.843 264.193 289.163 262.237 287.743 260.925" fill="#ED6389"/><path id="Fill 5" fill-rule="evenodd" clip-rule="evenodd" d="M869.864 282.377C872.166 277.521 876.303 273.111 882.017 273.204C883.83 273.232 887.211 273.997 887.554 276.224C887.867 278.248 885.903 281.048 884.645 282.483C881.712 285.827 877.358 288.043 873.028 288.381C871.291 288.517 869.6 288.387 867.985 288.003C868.406 286.047 869.026 284.143 869.864 282.377M890.527 312.667C886.152 314.852 880.841 314.12 876.687 311.758C871.999 309.094 869.113 304.488 867.946 299.254C867.621 297.796 867.439 296.289 867.382 294.768C868.651 295.022 869.962 295.162 871.308 295.173C877.737 295.226 884.294 292.542 888.781 287.874C891.1 285.462 893.08 282.346 893.881 279.05C894.96 274.609 892.968 270.52 889.052 268.307C882.001 264.323 873.031 267.217 867.968 273.083C865.052 276.458 863.048 280.6 861.893 284.968C861.393 284.557 860.909 284.118 860.446 283.636C857.265 280.304 855.381 275.657 855.242 271.057C854.896 259.555 866.386 250.453 877.471 252.156C879.25 252.428 881.057 251.702 881.573 249.805C882.007 248.213 881.036 245.94 879.244 245.664C865.212 243.51 850.455 252.969 848.733 267.708C847.585 277.536 852.612 287.464 860.774 292.244C860.741 292.973 860.709 293.703 860.722 294.429C860.87 302.957 864.393 311.261 871.357 316.305C877.881 321.031 886.654 322.096 893.894 318.479C897.741 316.558 894.366 310.75 890.527 312.667" fill="#ED6389"/><path id="Fill 9" fill-rule="evenodd" clip-rule="evenodd" d="M120.677 364.739C117.892 367.391 114.618 369.797 111.364 371.846C106.064 375.183 97.6796 378.088 92.3364 373.114C87.4166 368.534 88.6881 359.814 90.4899 354.083C91.1839 351.875 92.8234 348.66 95.3502 350.781C98.8159 353.689 96.2985 359.311 95.0283 362.658C94.6563 363.636 94.9606 364.7 95.5897 365.52C95.2664 365.807 94.939 366.087 94.6225 366.384C91.4477 369.358 96.2363 374.107 99.4043 371.14C105.002 365.896 112.737 361.518 120.505 360.664C121.475 360.559 122.406 360.359 122.547 361.447C122.712 362.714 121.539 363.919 120.677 364.739M127.811 356.914C123.859 351.497 115.211 354.586 110.144 356.592C107.647 357.58 105.26 358.765 102.98 360.119C104.085 356.001 104.349 351.654 101.771 347.97C98.5649 343.39 92.5102 341.706 87.9881 345.517C84.4399 348.507 83.3848 353.674 82.749 358.024C81.9969 363.174 81.9834 368.412 84.1978 373.23C86.3013 377.807 90.7706 381.026 95.6918 381.988C100.909 383.007 106.021 382.038 110.798 379.837C115.744 377.554 120.139 373.994 124.291 370.526C128.2 367.262 131.267 361.653 127.811 356.914" fill="#E0BFDB"/><path id="Fill 11" fill-rule="evenodd" clip-rule="evenodd" d="M356.197 109.846C356.378 110.44 356.508 111.035 356.626 111.643C356.461 110.793 356.612 111.572 356.629 111.782C356.656 112.126 356.67 112.473 356.671 112.819C356.671 113.079 356.664 113.338 356.649 113.596C356.645 113.69 356.568 114.713 356.612 114.18C356.657 113.654 356.526 114.654 356.505 114.756C356.454 115.01 356.395 115.265 356.33 115.516C356.176 116.11 355.974 116.68 355.77 117.258C355.477 118.08 356.084 116.632 355.705 117.42C355.572 117.698 355.438 117.974 355.294 118.248C355.026 118.756 354.733 119.251 354.416 119.73C354.244 119.989 354.061 120.239 353.881 120.492C353.38 121.198 354.125 120.256 353.674 120.75C352.888 121.612 352.089 122.412 351.193 123.165C350.895 123.4 350.914 123.385 351.253 123.124C351.111 123.227 350.966 123.33 350.819 123.43C350.601 123.58 350.378 123.724 350.151 123.864C349.626 124.187 349.082 124.484 348.523 124.745C348.344 124.829 347.589 125.108 348.373 124.822C348.125 124.913 347.879 125.007 347.629 125.091C347.045 125.282 346.449 125.44 345.845 125.559C345.672 125.591 345.499 125.621 345.324 125.649C345.759 125.598 345.844 125.586 345.583 125.616C345.275 125.617 344.963 125.672 344.655 125.683C344.027 125.708 343.402 125.682 342.776 125.624C340.981 125.458 339.262 127.294 339.34 128.997C339.43 130.966 340.854 132.194 342.776 132.371C355.436 133.54 366.437 119.876 362.823 108.053C362.307 106.363 360.39 105.126 358.597 105.697C356.858 106.249 355.643 108.035 356.197 109.846" fill="#E0BFDB"/><path id="Fill 13_2" fill-rule="evenodd" clip-rule="evenodd" d="M116.811 263.091C117.121 263.626 117.403 264.171 117.653 264.737C117.379 264.114 117.717 264.931 117.764 265.069C117.861 265.359 117.951 265.651 118.032 265.945C118.193 266.536 118.311 267.132 118.414 267.737C118.286 266.985 118.432 267.959 118.44 268.051C118.464 268.358 118.481 268.663 118.491 268.97C118.507 269.586 118.493 270.203 118.449 270.815C118.444 270.89 118.336 271.901 118.435 271.143C118.394 271.451 118.342 271.757 118.285 272.06C118.057 273.281 117.715 274.482 117.262 275.633C117.477 275.087 117.173 275.815 117.104 275.962C116.975 276.243 116.838 276.519 116.696 276.793C116.411 277.341 116.101 277.872 115.767 278.387C115.601 278.645 115.429 278.898 115.249 279.145C115.586 278.681 115.111 279.305 115.013 279.423C114.627 279.889 114.218 280.335 113.787 280.757C113.572 280.967 113.344 281.162 113.126 281.368C112.625 281.841 113.465 281.157 112.857 281.59C112.411 281.91 111.967 282.222 111.497 282.5C111.24 282.652 110.975 282.785 110.716 282.93C110.583 282.997 110.45 283.063 110.316 283.125C110.596 283.007 110.627 282.993 110.411 283.082C109.805 283.324 109.19 283.518 108.56 283.679C106.85 284.117 105.828 286.119 106.285 287.849C106.763 289.659 108.578 290.654 110.291 290.216C122.444 287.109 128.89 270.794 122.436 259.671C120.272 255.941 114.637 259.343 116.811 263.091" fill="#E0BFDB"/><path id="Fill 15" fill-rule="evenodd" clip-rule="evenodd" d="M199.751 317.528C190.352 326.466 190.726 343.674 200.815 351.967C202.186 353.095 204.107 353.32 205.448 351.967C206.601 350.803 206.827 348.425 205.448 347.292C197.96 341.136 197.406 328.842 204.385 322.205C207.46 319.279 202.82 314.61 199.751 317.528" fill="#FFCC37"/><path id="Fill 19" fill-rule="evenodd" clip-rule="evenodd" d="M767.889 73.0975C760.283 77.9443 758.789 89.1914 765.934 95.1906C769.613 98.2817 773.901 99.0922 778.564 98.2952C780.124 98.0286 782.335 97.1697 783.912 97.7244C785.442 98.2615 785.388 100.422 785.362 101.769C785.266 106.622 784.046 111.228 786.159 115.862C787.974 119.836 791.88 122.147 796.249 121.654C797.989 121.459 799.634 120.997 801.296 120.46C802.849 119.957 804.646 119.306 805.866 119.348C806.665 119.373 805.62 119.123 806.333 119.443C805.792 119.198 806.662 119.804 806.363 119.463C806.729 119.882 806.821 120.088 806.886 120.678C807.121 122.79 806.396 124.944 806.469 127.066C806.64 132.023 809.971 136.479 814.757 137.952C819.757 139.488 825.105 137.105 827.908 132.889C830.314 129.266 824.466 125.891 822.073 129.492C820.611 131.691 817.43 132.384 815.276 130.798C812.493 128.75 813.328 125.557 813.579 122.6C813.919 118.607 812.514 114.537 808.452 113.068C805.417 111.972 802.204 113.101 799.292 114.035C797.138 114.727 794.46 115.968 792.876 114.046C790.459 111.112 791.834 106.411 792.059 103.032C792.337 98.8176 791.47 94.1055 787.406 91.9137C783.523 89.8161 779.593 91.7279 775.575 91.9433C772.422 92.1129 769.281 90.1109 768.277 87.0885C767.289 84.1158 768.664 80.5871 771.299 78.9096C774.95 76.5831 771.566 70.7536 767.889 73.0975" fill="#FFCC37"/><path id="Fill 21" fill-rule="evenodd" clip-rule="evenodd" d="M984.308 279.138C983.191 278.611 982.103 278.031 981.047 277.39C980.507 277.061 979.974 276.717 979.453 276.359C979.204 276.189 978.96 276.016 978.718 275.839C978.582 275.742 978.449 275.641 978.314 275.543C977.826 275.189 978.793 275.923 978.46 275.658C976.495 274.103 974.695 272.375 973.093 270.448C972.558 269.804 971.447 269.437 970.641 269.437C969.791 269.437 968.776 269.812 968.191 270.448C967.584 271.106 967.133 271.971 967.175 272.891C967.219 273.856 967.574 274.594 968.191 275.335C971.598 279.436 975.979 282.825 980.807 285.103C981.666 285.508 982.534 285.711 983.48 285.452C984.284 285.232 985.155 284.613 985.551 283.865C986.365 282.329 986.058 279.964 984.308 279.138" fill="#FFCC37"/><path id="Fill 23" fill-rule="evenodd" clip-rule="evenodd" d="M437.205 88.9611C437.081 87.1841 435.672 85.6655 433.675 85.6655C431.861 85.6655 430.019 87.1762 430.145 88.9611C430.683 96.6398 430.445 104.343 429.432 111.981C429.219 113.584 430.937 115.045 432.493 115.218C434.065 115.393 436.094 114.496 436.365 112.858C436.461 112.283 436.557 111.708 436.652 111.134C436.707 110.8 436.711 110.468 436.689 110.14C437.506 103.106 437.7 96.0242 437.205 88.9611" fill="#FFCC37"/><path id="Fill 29" fill-rule="evenodd" clip-rule="evenodd" d="M874.08 178.562C873.955 180.854 873.684 183.132 873.274 185.391C872.48 189.769 871.253 194.103 869.546 198.214C868.571 200.563 866.809 204.572 863.945 205.039C861.232 205.479 859.322 201.987 858.227 200.003C856.15 196.241 854.381 192.303 852.911 188.267C852.139 186.147 851.446 184.001 850.833 181.832C850.426 180.389 849.891 178.979 849.878 177.632C850.191 177.809 850.513 177.977 850.814 178.159C852.494 179.177 854.041 180.355 855.472 181.7C857.749 183.844 859.611 186.304 861.1 189.009C860.895 190.634 860.796 192.273 860.824 193.911C860.897 198.217 867.595 198.23 867.522 193.911C867.515 193.573 867.523 193.238 867.528 192.901C868.869 191.848 868.99 190.133 868.339 188.603C868.244 188.381 868.134 188.164 868.035 187.943C868.382 186.141 868.904 184.372 869.621 182.66C870.367 180.878 871.353 179.172 872.45 177.588C872.757 177.146 873.581 176.435 873.964 175.885C874.027 176.105 874.074 176.282 874.067 176.247C874.193 176.996 874.123 177.812 874.08 178.562M849.141 177.196C848.91 177.244 848.83 177.05 849.141 177.196ZM850.037 176.585C850.034 176.591 850.028 176.594 850.024 176.601C850.025 176.595 850.026 176.585 850.025 176.583C850.093 176.352 850.097 176.352 850.037 176.585M879.48 171.779C877.783 168.954 874.32 167.928 871.364 169.417C868.676 170.773 866.792 173.779 865.335 176.313C864.583 177.618 863.927 178.973 863.359 180.365C862.22 178.961 860.977 177.643 859.637 176.44C856.334 173.473 849.844 167.918 845.44 171.814C841.553 175.254 843.63 181.231 844.895 185.383C846.619 191.044 848.883 196.565 851.611 201.817C853.933 206.29 857.103 211.102 862.567 211.698C867.738 212.261 871.788 208.314 874.123 204.117C876.882 199.157 878.558 193.331 879.62 187.783C880.202 184.744 880.604 181.653 880.779 178.562C880.909 176.273 880.687 173.789 879.48 171.779" fill="#00AFA9"/><path id="Fill 31" fill-rule="evenodd" clip-rule="evenodd" d="M203.386 395.847C203.068 396.166 202.741 396.474 202.39 396.761C202.388 396.764 201.725 397.255 202.085 397.006C202.446 396.752 201.822 397.168 201.751 397.212C201.369 397.451 200.973 397.671 200.566 397.873C200.322 397.994 200.069 398.096 199.823 398.214C200.082 398.09 200.196 398.081 199.861 398.197C198.99 398.497 198.108 398.741 197.195 398.9C197.055 398.924 196.168 398.996 196.986 398.942C196.8 398.954 196.615 398.977 196.43 398.991C195.92 399.028 195.409 399.041 194.898 399.034C194.434 399.025 193.97 398.961 193.507 398.953C193.01 398.946 194.286 399.093 193.432 398.943C193.203 398.903 192.975 398.866 192.749 398.82C192.295 398.73 191.847 398.619 191.404 398.492C191.184 398.428 190.966 398.358 190.748 398.285C190.664 398.256 189.954 397.98 190.377 398.157C190.802 398.334 190.025 397.991 190.025 397.991C189.819 397.896 189.616 397.795 189.415 397.689C189.012 397.477 188.628 397.244 188.249 396.999C187.987 396.832 187.809 396.662 188.159 396.944C187.983 396.803 187.806 396.664 187.637 396.518C187.259 396.193 186.91 395.846 186.573 395.483C185.383 394.198 183.049 394.338 181.83 395.483C180.474 396.757 180.636 398.653 181.83 399.94C188.38 407.005 201.347 407.11 208.13 400.304C209.367 399.063 209.44 397.08 208.13 395.847C206.879 394.671 204.629 394.602 203.386 395.847" fill="#00AFA9"/><path id="Fill 33" fill-rule="evenodd" clip-rule="evenodd" d="M194.132 156.454C190.894 148.616 180.242 147.721 175.181 154.338C172.612 157.699 171.929 162.079 172.817 166.148C173.179 167.806 173.834 169.417 174.077 171.1C174.245 172.266 174.432 172.751 173.362 172.981C171.792 173.318 169.924 172.749 168.293 172.933C166.098 173.18 164.111 174.122 162.613 175.76C159.744 178.898 159.203 183.23 159.956 187.248C160.348 189.334 161.11 191.324 161.757 193.34C161.944 193.922 162.096 195.604 162.523 196.057C162.636 196.179 162.03 197.231 162.815 195.738C162.903 195.664 163.004 195.624 163.119 195.622C162.879 195.708 162.633 195.775 162.384 195.825C161.37 196.02 159.499 195.834 158.169 195.927C156.035 196.077 154.005 196.741 152.267 197.993C148.454 200.741 146.311 205.586 147.728 210.191C149.164 214.849 153.139 217.839 157.911 218.454C159.72 218.688 161.284 216.753 161.284 215.115C161.284 213.116 159.726 212.01 157.911 211.775C155.797 211.503 153.951 209.121 154.033 207.074C154.119 204.895 156.004 202.919 158.169 202.607C161.234 202.165 164.33 203.046 166.99 200.957C170.451 198.241 169.062 193.965 167.898 190.462C166.983 187.71 165.611 184.446 166.754 181.604C167.944 178.648 170.598 179.773 173.311 179.644C177.148 179.465 180.297 177.094 180.792 173.224C181.212 169.942 179.69 167.075 179.227 163.914C178.855 161.376 179.756 158.075 182.266 156.876C183.896 156.097 186.952 156.593 187.628 158.229C188.316 159.897 189.87 161.08 191.777 160.561C193.373 160.127 194.826 158.133 194.132 156.454" fill="#FFCC37"/><path id="Fill 35" fill-rule="evenodd" clip-rule="evenodd" d="M942.354 337.763C937.828 343.546 933.303 349.328 928.776 355.11C927.686 356.504 927.364 358.626 928.776 359.971C929.987 361.121 932.299 361.46 933.466 359.971C937.991 354.187 942.517 348.404 947.043 342.622C948.134 341.228 948.456 339.108 947.043 337.763C945.833 336.611 943.521 336.272 942.354 337.763" fill="#F06647"/><g id="Group 39"><path id="Fill 37" fill-rule="evenodd" clip-rule="evenodd" d="M162.461 461.979C154.127 456.008 145.792 450.037 137.458 444.066C136.009 443.028 133.798 443.807 132.957 445.257C131.991 446.92 132.684 448.756 134.137 449.797C142.472 455.768 150.805 461.739 159.139 467.71C160.59 468.749 162.801 467.97 163.641 466.519C164.606 464.855 163.914 463.019 162.461 461.979" fill="#F06647"/></g><path id="Fill 40" fill-rule="evenodd" clip-rule="evenodd" d="M321.432 393.334C318.939 392.965 316.681 393.538 314.896 395.365C313.399 396.896 312.511 399.103 312.532 401.228C312.556 403.705 313.865 405.865 316.018 407.107C316.984 407.667 318.104 408.001 319.184 408.277C319.686 408.407 320.193 408.517 320.691 408.664C321.257 408.833 321.291 408.791 321.575 409.036C321.631 409.084 321.333 408.825 321.394 408.821C321.456 408.925 321.52 409.027 321.583 409.132C321.555 409.073 321.527 409.014 321.498 408.954C321.769 408.907 321 408.256 321.479 408.989C321.384 408.843 321.719 408.358 321.41 409.011C321.625 408.555 321.114 409.444 321.029 409.57C320.922 409.722 320.511 410.203 320.193 410.547C318.669 412.199 316.89 413.74 315.754 415.699C313.165 420.165 314.541 426.12 318.734 429.119C323.52 432.542 330.57 430.672 333.522 425.814C335.767 422.12 329.919 418.759 327.679 422.445C326.934 423.672 325.541 424.296 324.04 424.186C322.889 424.103 321.784 423.191 321.38 421.885C320.919 420.39 321.246 419.313 322.378 418.009C323.898 416.256 325.699 414.745 326.976 412.788C328.345 410.687 328.726 407.997 327.426 405.763C326.105 403.487 323.817 402.551 321.363 401.933C320.859 401.807 320.342 401.699 319.852 401.526C319.733 401.483 319.127 401.142 319.392 401.372C319.117 401.089 319.1 401.085 319.339 401.361C319.154 401.021 319.149 401.021 319.326 401.361C319.239 400.977 319.231 400.982 319.302 401.377C319.292 401.177 319.295 400.978 319.312 400.777C319.006 401.737 319.721 399.859 319.346 400.687C319.408 400.548 320.078 399.577 319.68 400.086C319.97 399.826 319.969 399.802 319.675 400.013C319.837 399.899 320.007 399.798 320.184 399.71C319.829 399.859 319.837 399.877 320.211 399.766C320.019 399.847 319.825 399.85 319.633 399.771C321.437 400.038 323.27 399.324 323.795 397.44C324.233 395.864 323.25 393.602 321.432 393.334" fill="#41AFE4"/><g id="Group 44"><path id="Fill 42" fill-rule="evenodd" clip-rule="evenodd" d="M294.884 180.781C299.298 181.943 304.159 180.029 306.531 175.979C308.905 171.929 308.016 166.316 304.722 163.073C301.347 159.75 296.724 159.827 292.377 160.182C290.457 160.339 288.433 160.585 286.675 159.997C285.384 159.566 284.485 158.541 284.092 157.283C283.022 153.858 285.835 150.554 289.439 150.409C293.659 150.239 293.68 143.484 289.439 143.656C284.998 143.834 280.538 146.254 278.492 150.436C276.435 154.64 277.063 159.665 279.987 163.262C282.944 166.901 287.649 167.306 291.939 166.971C293.813 166.824 295.961 166.497 297.745 166.809C299.189 167.064 300.331 167.733 300.955 169.127C302.237 171.988 299.617 175.054 296.633 174.269C292.53 173.19 290.778 179.702 294.884 180.781" fill="#41AFE4"/></g><path id="Fill 45" fill-rule="evenodd" clip-rule="evenodd" d="M657.875 96.5552C657.494 96.4297 657.95 96.5862 658.03 96.651C657.663 96.3595 658.088 96.7589 658.126 96.8048C657.887 96.5093 658.569 97.5172 658.63 97.6252C659.139 98.5184 659.554 99.4657 660.117 100.329C661.706 102.769 664.115 104.473 667.146 104.28C670.237 104.083 672.874 102.021 674.51 99.5116C676.274 96.8115 676.347 93.5569 676.925 90.4953C677.213 88.9638 678.008 85.7253 680.151 85.8198C679.83 85.805 680.401 86.1288 680.426 86.1625C681.05 86.991 681.445 88.0017 681.888 88.9314C682.877 90.9999 684.225 92.9632 686.517 93.7107C689.902 94.8132 692.832 92.6569 694.794 90.1201C699.141 84.5001 700.648 77.3986 699.489 70.4616C699.19 68.6629 696.952 67.659 695.319 68.1057C693.401 68.6306 692.65 70.4508 692.951 72.2549C693.74 76.9897 692.428 82.1186 689.527 85.9439C689.296 86.2462 688.36 86.9694 688.294 87.269C688.233 87.5389 688.202 87.1219 688.235 87.2987C688.221 87.2204 688.592 87.2919 688.613 87.296C689.326 87.4282 688.603 87.273 688.602 87.273C688.804 87.2798 688.956 87.7534 688.61 87.1975C688.905 87.6724 688.287 86.6105 688.225 86.4958C687.302 84.7808 686.658 82.9821 685.321 81.5154C681.35 77.1638 675.129 79.4725 672.225 83.7594C670.667 86.06 670.352 88.8693 669.951 91.5397C669.642 93.5974 669.374 96.2435 667.314 97.3513C666.722 97.6684 666.62 97.6157 666.362 97.4052C665.945 97.0612 665.439 96.0168 665.03 95.2382C663.785 92.8742 662.319 90.9244 659.677 90.05C655.527 88.6764 653.748 95.1896 657.875 96.5552" fill="#41AFE4"/><path id="Fill 47" fill-rule="evenodd" clip-rule="evenodd" d="M931.458 425.942C933.356 427.606 935.121 429.432 936.724 431.412C937.103 431.88 937.471 432.358 937.835 432.841C938.257 433.401 937.507 432.379 937.746 432.718C937.843 432.856 937.942 432.991 938.038 433.129C938.213 433.375 938.385 433.625 938.555 433.876C939.289 434.963 939.975 436.086 940.618 437.238C941.478 438.777 943.574 439.463 945.046 438.462C946.516 437.463 947.129 435.436 946.208 433.79C943.536 429.005 940.086 424.662 936.036 421.114C935.359 420.519 934.657 420.112 933.747 420.112C932.953 420.112 932.004 420.485 931.458 421.114C930.361 422.373 930.067 424.723 931.458 425.942" fill="#41AFE4"/><path id="Fill 49" fill-rule="evenodd" clip-rule="evenodd" d="M934.493 199.581C932.569 198.473 931.104 196.625 930.727 194.574C934.499 195.103 938.023 197.109 940.221 200.217C938.325 200.733 936.32 200.63 934.493 199.581M953.557 173.906C952.908 172.201 951.267 171.031 949.383 171.547C947.74 171.996 946.36 173.987 947.013 175.701C949.506 182.255 950.737 190.998 945.861 196.562C941.845 190.748 934.714 187.139 927.568 187.726C926.034 187.851 924.75 188.691 924.295 190.205C922.628 195.759 925.384 201.354 929.908 204.651C933.623 207.355 938.22 207.829 942.465 206.574C942.732 210.9 940.794 215.279 937.452 218.113C936.055 219.297 936.227 221.67 937.452 222.889C938.835 224.264 940.852 224.075 942.251 222.889C947.853 218.139 950.336 210.238 948.757 203.147C951.864 200.514 954.135 196.849 955.195 192.977C956.923 186.672 955.846 179.921 953.557 173.906" fill="#41AFE4"/><g id="Group 3_2"><path id="Fill 1_3" fill-rule="evenodd" clip-rule="evenodd" d="M736.591 350.88C756.688 375.976 776.766 401.084 796.826 426.206L850.644 313.845L874.969 423.992L956.827 363.85L923.069 466.224L1020.73 445.027L932.313 533.336L1055.35 550.207C969.321 574.194 844.35 606.164 758.317 630.151L736.591 350.88Z" fill="#FFEBC0"/></g><path id="Fill 4_2" fill-rule="evenodd" clip-rule="evenodd" d="M336.416 266.226C324.179 295.962 311.963 325.705 299.768 355.456L216.557 262.759L224.153 375.307L128.701 340.611L189.854 429.365L90.1752 436.488L199.834 496.371L86.4941 547.165C175.796 545.99 304.71 541.524 394.011 540.349L336.416 266.226Z" fill="#F0D3E6"/><g id="Master/Worms/Fin" transform="matrix(0.992028 -0.126014 0.125865 0.992047 572.502 279.431) scale(1.133609505586846 1.13804931640625)"><g id="Master/Worms/Fin"><g id="Body/Fin" transform="translate(83.918 150.8) scale(1 1)"><g id="Body/Fin/Purple"><g id="Group 8"><g id="Group 3"><path id="Fill 1" fill-rule="evenodd" clip-rule="evenodd" d="M135.896 164.221H0.999756V68.4481C0.999756 31.1971 31.1978 1.00009 68.4478 1.00009C105.699 1.00009 135.896 31.1971 135.896 68.4481V164.221Z" fill="#775CA6"/></g><path id="Fill 4" fill-rule="evenodd" clip-rule="evenodd" d="M1 164.221H135.896V100.148H1V164.221Z" fill="#4D439B"/><path id="Fill 6" fill-rule="evenodd" clip-rule="evenodd" d="M66.3048 55.4006C66.3048 68.8856 55.3728 79.8176 41.8878 79.8176C28.4018 79.8176 17.4708 68.8856 17.4708 55.4006C17.4708 41.9156 28.4018 30.9836 41.8878 30.9836C55.3728 30.9836 66.3048 41.9156 66.3048 55.4006" fill="#F1758E"/><path id="Fill 7" fill-rule="evenodd" clip-rule="evenodd" d="M119.425 55.4006C119.425 68.8856 108.493 79.8176 95.0083 79.8176C81.5233 79.8176 70.5913 68.8856 70.5913 55.4006C70.5913 41.9156 81.5233 30.9836 95.0083 30.9836C108.493 30.9836 119.425 41.9156 119.425 55.4006" fill="#F1758E"/></g></g></g><g id="Eyes/Fin" transform="translate(126.918 194.8) scale(1 1)"><g id="Eyes/Fin/Naughty"><g id="Group 6"><g id="Group 3"><path id="Fill 1" fill-rule="evenodd" clip-rule="evenodd" d="M12.002 17.891C11.345 17.891 10.701 17.568 10.319 16.974C9.721 16.045 9.988 14.808 10.917 14.209L15.889 11.006L11.321 7.604C10.436 6.944 10.252 5.691 10.912 4.805C11.572 3.92 12.825 3.736 13.711 4.396L19.604 8.786C20.355 9.346 20.783 10.237 20.751 11.172C20.719 12.107 20.231 12.967 19.444 13.474L13.083 17.572C12.748 17.788 12.373 17.891 12.002 17.891" fill="#101335"/></g><path id="Fill 4" fill-rule="evenodd" clip-rule="evenodd" d="M36.6802 14.5189V14.5189C34.8742 14.5189 33.4102 13.0549 33.4102 11.2499V7.9749C33.4102 6.1689 34.8742 4.7049 36.6802 4.7049C38.4852 4.7049 39.9492 6.1689 39.9492 7.9749V11.2499C39.9492 13.0549 38.4852 14.5189 36.6802 14.5189" fill="#101335"/></g></g></g><g id="Mouth/Fin" transform="translate(130.918 211.8) scale(0.9761904761904762 1)"><g id="Mouth/Fin/Sad"><path id="Fill 1" fill-rule="evenodd" clip-rule="evenodd" d="M21.1583 4C26.9153 4 32.0263 6.089 35.0293 8.05C38.4973 10.314 39.4713 14.962 37.2073 18.43C34.9553 21.877 30.3503 22.861 26.8883 20.648C26.2623 20.263 21.1343 17.296 16.7983 20.417C13.4353 22.834 8.74832 22.072 6.33032 18.709C3.91132 15.347 4.67632 10.66 8.03832 8.241C12.3733 5.123 16.9383 4 21.1583 4" fill="#101335"/></g></g><g id="Hair/Fin" transform="translate(65.918 60.8) scale(1 1)"><g id="Hair/Fin/Double Bun"><g id="Hair"><path id="Fill 15" fill-rule="evenodd" clip-rule="evenodd" d="M71.1586 105.746L72.7956 114.069C76.1536 114.309 79.4416 114.432 82.6396 114.458L85.3336 105.915L87.9276 114.415C91.6086 114.326 95.1416 114.119 98.4906 113.83L100.08 105.746L103.359 113.342C119.762 111.466 130.64 107.899 130.64 107.899C118.7 97.189 102.922 90.67 85.6196 90.67H85.6186C68.3156 90.67 52.5396 97.189 40.5986 107.899C49.7786 110.912 58.9586 112.695 67.7576 113.626L71.1586 105.746Z" fill="#73BAB8"/><g id="Group 19"><path id="Fill 17" fill-rule="evenodd" clip-rule="evenodd" d="M53.2362 80.6995V80.6995C51.5222 83.4895 52.5972 87.1495 55.5472 88.5695C60.2312 90.8255 59.4902 97.7135 54.4332 98.9225C51.2492 99.6835 49.4212 103.031 50.5022 106.122C52.2192 111.029 46.8252 115.376 42.3952 112.655C39.6052 110.941 35.9452 112.015 34.5242 114.966C32.2682 119.65 25.3802 118.909 24.1722 113.852C23.4112 110.668 20.0632 108.839 16.9732 109.921C12.0652 111.638 7.71821 106.244 10.4402 101.813C12.1542 99.0225 11.0792 95.3635 8.12921 93.9425V93.9425C3.44521 91.6865 4.18521 84.7985 9.24321 83.5905C12.4272 82.8295 14.2552 79.4815 13.1742 76.3915C11.4562 71.4835 16.8512 67.1365 21.2812 69.8585V69.8585C24.0712 71.5715 27.7312 70.4975 29.1522 67.5475V67.5475C31.4072 62.8635 38.2962 63.6035 39.5042 68.6605C40.2652 71.8455 43.6122 73.6735 46.7032 72.5925C51.6112 70.8745 55.9572 76.2695 53.2362 80.6995" fill="#3A3E5B"/></g><path id="Fill 20" fill-rule="evenodd" clip-rule="evenodd" d="M131.741 68.6579V68.6579C130.979 71.8419 127.631 73.6689 124.541 72.5859C119.634 70.8669 115.285 76.2599 118.004 80.6909C119.717 83.4819 118.641 87.1409 115.691 88.5609C111.005 90.8149 111.744 97.7039 116.8 98.9139C119.984 99.6759 121.811 103.024 120.729 106.114C119.01 111.021 124.402 115.37 128.834 112.65V112.65C131.624 110.938 135.283 112.013 136.703 114.964C138.957 119.649 145.846 118.911 147.056 113.855C147.818 110.67 151.166 108.844 154.256 109.926C159.163 111.645 163.512 106.252 160.793 101.821C159.08 99.0309 160.156 95.3709 163.106 93.9519C167.792 91.6979 167.053 84.8089 161.997 83.5989C158.813 82.8369 156.986 79.4879 158.068 76.3979C159.787 71.4909 154.395 67.1429 149.963 69.8619C147.173 71.5749 143.513 70.4989 142.094 67.5489C139.84 62.8629 132.951 63.6009 131.741 68.6579" fill="#3A3E5B"/><path id="Fill 22" fill-rule="evenodd" clip-rule="evenodd" d="M44.025 85.2437V85.2437C43.049 86.8327 43.661 88.9167 45.341 89.7267C48.009 91.0107 47.587 94.9337 44.707 95.6227C42.893 96.0557 41.852 97.9627 42.468 99.7227C43.446 102.518 40.374 104.994 37.85 103.444C36.261 102.468 34.177 103.079 33.368 104.76C32.083 107.428 28.16 107.006 27.472 104.126V104.125C27.038 102.312 25.132 101.271 23.372 101.886C20.577 102.864 18.101 99.7917 19.651 97.2687C20.627 95.6797 20.015 93.5957 18.335 92.7857C15.667 91.5017 16.089 87.5787 18.969 86.8897C20.783 86.4567 21.824 84.5497 21.208 82.7897C20.23 79.9947 23.302 77.5197 25.825 79.0687C27.414 80.0457 29.499 79.4337 30.308 77.7527C31.593 75.0847 35.516 75.5067 36.204 78.3867V78.3877C36.637 80.2007 38.544 81.2417 40.304 80.6267C43.099 79.6487 45.575 82.7207 44.025 85.2437" fill="#F0748D"/><path id="Fill 24" fill-rule="evenodd" clip-rule="evenodd" d="M135.034 78.3733V78.3733C134.599 80.1883 132.691 81.2303 130.929 80.6133C128.132 79.6333 125.652 82.7073 127.203 85.2333V85.2333C128.179 86.8243 127.566 88.9103 125.884 89.7193C123.213 91.0043 123.634 94.9313 126.516 95.6213C128.332 96.0563 129.373 97.9653 128.756 99.7263C127.776 102.523 130.85 105.003 133.377 103.452C134.967 102.476 137.054 103.089 137.863 104.771C139.148 107.442 143.075 107.021 143.764 104.139C144.199 102.323 146.108 101.282 147.869 101.899V101.899C150.667 102.879 153.146 99.8053 151.596 97.2793V97.2793C150.619 95.6883 151.232 93.6023 152.915 92.7923C155.586 91.5083 155.165 87.5813 152.282 86.8913C150.467 86.4563 149.425 84.5473 150.043 82.7863V82.7863C151.023 79.9883 147.948 77.5093 145.422 79.0603C143.831 80.0363 141.745 79.4233 140.936 77.7413C139.651 75.0703 135.724 75.4903 135.034 78.3733" fill="#F0748D"/></g></g></g><g id="Clothes/Fin" transform="translate(83.918 245.4) scale(1 1)"><g id="Clothes/Fin/Water Waves"><g id="Group 15"><path id="Fill 1" fill-rule="evenodd" clip-rule="evenodd" d="M1 70.0094H135.914V11.3514H1V70.0094Z" fill="#41AFE4"/><g id="Group 7"><g id="Group 4"><path id="Fill 2" fill-rule="evenodd" clip-rule="evenodd" d="M135.914 52.2218C134.204 52.0348 132.445 51.9318 130.807 51.5758C129.518 51.2948 128.167 50.7578 127.504 49.6178C126.628 48.1148 127.32 46.1168 128.539 44.8728C129.757 43.6308 131.395 42.9118 132.88 42.0028C133.979 41.3298 134.992 40.5308 135.914 39.6368V17.5078C133.855 17.0958 131.718 16.9008 130.634 15.2168C129.913 14.0968 129.962 12.7088 129.915 11.3508H113.64C113.444 11.8018 113.287 12.2698 113.222 12.7698C112.726 16.6148 116.304 19.5648 118.897 22.4468C121.362 25.1868 123.234 28.8438 122.558 32.4678C121.882 36.0908 117.763 39.0788 114.415 37.5358C113.254 37.0008 112.339 36.0278 111.18 35.4888C107.867 33.9498 103.507 37.4808 104.323 41.0408C104.92 43.6448 107.475 45.3268 108.596 47.7518C110.797 52.5148 105.639 55.5418 100.445 56.2908C95.251 57.0398 89.128 54.0328 88.636 48.8078C87.937 41.3778 96.811 40.6798 93.505 34.9388C90.548 29.8038 88.655 26.8358 92.461 25.1948C95.144 24.0388 97.411 24.3788 98.87 21.8488C99.677 20.4508 99.851 18.7748 99.806 17.1608C99.749 15.1798 99.364 13.2178 98.701 11.3508H78.748C78.541 13.0998 78.274 14.8298 77.597 16.4468C76.377 19.3608 73.121 21.8298 70.171 20.7008C67.43 19.6518 66.184 16.0298 63.327 15.3608C60.841 14.7778 58.394 16.8858 57.556 19.2968C56.718 21.7088 57.019 24.3428 57.089 26.8948C57.115 27.8478 57.093 28.8578 56.597 29.6728C55.702 31.1408 53.683 31.3908 51.968 31.2628C49.303 31.0638 46.567 30.2658 44.658 28.3958C40.407 24.2298 42.097 17.4218 41.462 11.3508H18.473C18.39 13.5068 18.862 15.6668 20.004 17.5178C20.994 19.1188 22.363 20.4598 23.34 22.0678C24.47 23.9258 25.041 26.2118 24.477 28.3118C23.914 30.4128 22.051 32.2168 19.879 32.3208C14.13 32.5978 12.707 22.8368 7.04 21.8258C4.815 21.4298 2.714 22.5698 1 24.1498V55.7248C3.251 54.2328 4.794 51.8418 6.63 49.8248C8.629 47.6278 11.56 45.7258 14.412 46.5498C16.768 47.2298 18.217 49.5028 19.79 51.3848C21.303 53.1948 23.175 54.8048 25.435 55.4808C27.695 56.1578 30.387 55.7318 31.978 53.9898C33.333 52.5058 33.685 50.3988 34.348 48.5018C35.011 46.6038 36.352 44.6188 38.355 44.4638C40.308 44.3118 41.98 46.0658 42.493 47.9558C43.006 49.8458 42.67 51.8458 42.459 53.7928C42.314 55.1278 42.477 56.8598 43.76 57.2568C45.291 57.7308 46.369 55.8248 47.637 54.8438C50.417 52.6918 54.803 55.7218 55.034 59.2298C55.264 62.7378 52.806 65.8468 50.135 68.1328C49.355 68.8008 48.524 69.4288 47.655 70.0098H66.313C67.177 67.3798 67.729 62.9178 66.381 55.6398C65.346 50.0528 59.215 46.5798 58.08 44.7848C53.392 37.3668 68.457 31.2488 70.481 46.7238C71.289 52.9088 73.606 59.0478 78.287 63.1708C81.052 65.6058 84.412 67.4108 86.974 70.0098H108.232C108.39 69.7948 108.551 69.5818 108.704 69.3648C110.146 67.3158 111.439 65.0968 113.385 63.5188C115.331 61.9398 118.177 61.1378 120.369 62.3508C123.076 63.8498 123.565 67.4828 125.358 70.0098H135.914V52.2218Z" fill="#CBD3D8"/></g><path id="Fill 5" fill-rule="evenodd" clip-rule="evenodd" d="M20.064 65.3082C17.491 63.0012 14.133 61.0782 10.733 61.6972C6.96799 62.3832 4.58699 66.1322 4.29199 70.0092H24.94C23.262 68.5162 21.741 66.8122 20.064 65.3082" fill="#CBD3D8"/></g><g id="Group 14"><g id="Group 10"><path id="Fill 8" fill-rule="evenodd" clip-rule="evenodd" d="M69.6667 11.3511C69.6667 11.3511 60.8417 1.84809 48.5547 0.810089C48.5547 0.810089 45.6137 11.0201 48.5547 21.9221C48.5547 21.9221 60.6677 19.8151 69.6667 11.3511" fill="#FFCC37"/></g><g id="Group 13"><path id="Fill 11" fill-rule="evenodd" clip-rule="evenodd" d="M67.2476 11.3511C67.2476 11.3511 76.0726 1.84809 88.3596 0.810089C88.3596 0.810089 91.3006 11.0201 88.3596 21.9221C88.3596 21.9221 76.2466 19.8151 67.2476 11.3511" fill="#FFCC37"/></g></g></g></g></g></g></g><g id="Master/Worms/Jae" transform="matrix(0.990073 0.140551 -0.140385 0.990097 459.047 242.123) scale(1.133612141656717 1.1380466037326389)"><g id="Master/Worms/Jae"><g id="Body/Jae" transform="translate(47.918 130.42) scale(1 1)"><g id="Body/Jae/Blue"><g id="Group 9"><path id="Fill 1" fill-rule="evenodd" clip-rule="evenodd" d="M0.000488281 104.107V183.221H208.213V104.107C208.213 46.61 161.603 0 104.107 0C46.6105 0 0.000488281 46.61 0.000488281 104.107Z" fill="#5473B8"/><path id="Fill 3" fill-rule="evenodd" clip-rule="evenodd" d="M100.978 63.6695C100.978 83.3655 85.0106 99.3325 65.3146 99.3325C45.6186 99.3325 29.6516 83.3655 29.6516 63.6695C29.6516 43.9735 45.6186 28.0065 65.3146 28.0065C85.0106 28.0065 100.978 43.9735 100.978 63.6695" fill="#FFCC37"/><path id="Fill 5" fill-rule="evenodd" clip-rule="evenodd" d="M178.563 63.6695C178.563 83.3655 162.596 99.3325 142.901 99.3325C123.205 99.3325 107.238 83.3655 107.238 63.6695C107.238 43.9735 123.205 28.0065 142.901 28.0065C162.596 28.0065 178.563 43.9735 178.563 63.6695" fill="#FFCC37"/><path id="Fill 7" fill-rule="evenodd" clip-rule="evenodd" d="M0 183.221H208.214V112.697H0V183.221Z" fill="#385E9F"/></g></g></g><g id="Eyes/Jae" transform="translate(124.918 186.42) scale(1 1)"><g id="Eyes/Jae/Naughty"><g id="Group 7"><g id="Group 3"><path id="Fill 1" fill-rule="evenodd" clip-rule="evenodd" d="M38.6802 16.7879V16.7879C36.8742 16.7879 35.4102 15.3239 35.4102 13.5189V10.2439C35.4102 8.43791 36.8742 6.97391 38.6802 6.97391C40.4862 6.97391 41.9502 8.43791 41.9502 10.2439V13.5189C41.9502 15.3239 40.4862 16.7879 38.6802 16.7879" fill="#101335"/></g><g id="Group 6"><path id="Fill 4" fill-rule="evenodd" clip-rule="evenodd" d="M10.0023 19.891C9.34526 19.891 8.70126 19.567 8.31826 18.974C7.72126 18.045 7.98826 16.808 8.91726 16.209L13.8893 13.006L9.32126 9.604C8.43626 8.944 8.25226 7.691 8.91226 6.805C9.57226 5.92 10.8253 5.736 11.7113 6.396L17.6043 10.786C18.3543 11.345 18.7833 12.237 18.7513 13.172C18.7203 14.106 18.2313 14.967 17.4443 15.474L11.0833 19.572C10.7483 19.788 10.3733 19.891 10.0023 19.891" fill="#101335"/></g></g></g></g><g id="Mouth/Jae" transform="translate(132.77 206.476) scale(0.975 1)"><g id="Mouth/Jae/Sad"><g id="Group 3"><path id="Fill 1" fill-rule="evenodd" clip-rule="evenodd" d="M20.1583 1C25.9153 1 31.0263 3.089 34.0293 5.05C37.4973 7.314 38.4713 11.962 36.2073 15.43C33.9553 18.877 29.3503 19.861 25.8883 17.648C25.2623 17.263 20.1343 14.296 15.7983 17.417C12.4353 19.834 7.74832 19.072 5.33032 15.709C2.91132 12.347 3.67632 7.66 7.03832 5.241C11.3733 2.123 15.9383 1 20.1583 1" fill="#101335"/></g></g></g><g id="Hair/Jae" transform="translate(5.91797 0.420013) scale(1 1)"><g id="Hair/Jae/Easter Bunny"><g id="Group 22"><path id="Fill 1" fill-rule="evenodd" clip-rule="evenodd" d="M115.784 127.244C115.418 126.759 79.3032 78.1905 94.7632 32.0355L95.1892 30.7605L96.2882 31.5365C96.6362 31.7815 104.895 37.7195 112.869 52.1395C120.189 65.3765 128.588 88.5795 127.032 123.94L127.001 124.657L116.199 127.794L115.784 127.244Z" fill="white"/><path id="Fill 3" fill-rule="evenodd" clip-rule="evenodd" d="M94.6675 29.1676L93.8135 31.7176C85.6285 56.1546 91.8375 81.0136 98.4875 97.5636C105.656 115.405 114.607 127.348 114.985 127.848L115.815 128.947L117.139 128.563L126.59 125.817L127.967 125.417L128.029 123.984C129.596 88.3906 121.125 65.0056 113.743 51.6556C105.66 37.0376 97.2195 30.9706 96.8645 30.7196L94.6675 29.1676ZM95.7105 32.3536C95.7105 32.3536 129.024 55.8926 126.031 123.897L116.581 126.642C116.581 126.642 80.2385 78.5426 95.7105 32.3536V32.3536Z" fill="#E0BFDB"/><path id="Fill 5" fill-rule="evenodd" clip-rule="evenodd" d="M119 125.939C119 125.939 92.5165 73.2715 104.954 69.6585C117.391 66.0455 123.551 124.617 123.551 124.617L119 125.939Z" fill="#ED6389"/><path id="Fill 7" fill-rule="evenodd" clip-rule="evenodd" d="M165.863 124.648L165.861 123.899C165.755 88.565 174.068 65.382 181.061 52.156C188.681 37.744 196.254 31.807 196.573 31.561L197.717 30.679L198.139 32.061C212.523 79.146 177.468 126.765 177.113 127.241L176.698 127.795L165.863 124.648Z" fill="white"/><path id="Fill 9" fill-rule="evenodd" clip-rule="evenodd" d="M198.251 29.0042L195.961 30.7692C195.636 31.0212 187.897 37.0871 180.176 51.6891C173.13 65.0152 164.753 88.3612 164.86 123.902L164.865 125.399L166.303 125.817L175.753 128.562L177.083 128.949L177.912 127.84C178.278 127.35 186.971 115.637 194.006 97.9142C200.527 81.4872 206.703 56.6762 199.095 31.7692L198.251 29.0042ZM197.183 32.3532C211.583 79.4972 176.311 126.642 176.311 126.642L166.86 123.896C166.654 55.8932 197.183 32.3532 197.183 32.3532V32.3532Z" fill="#E0BFDB"/><path id="Fill 11" fill-rule="evenodd" clip-rule="evenodd" d="M173.894 125.939C173.894 125.939 200.378 73.2715 187.941 69.6585C175.503 66.0455 169.344 124.617 169.344 124.617L173.894 125.939Z" fill="#ED6389"/><path id="Fill 13" fill-rule="evenodd" clip-rule="evenodd" d="M228.669 153.118C207.867 131.612 178.729 118.222 146.445 118.222C114.162 118.222 85.0227 131.612 64.2217 153.118L89.0167 146.521L98.9197 153.118L115.434 141.081L134.084 153.118L150.08 141.858L166.334 153.118L183.042 137.584L197.419 153.118L209.726 146.715L228.669 153.118Z" fill="white"/><path id="Stroke 15 (Stroke)" fill-rule="evenodd" clip-rule="evenodd" d="M66.7239 153.423C87.705 131.73 117.1 118.222 149.666 118.222C182.232 118.222 211.626 131.73 232.608 153.423L231.569 155.065L213.03 148.799L200.424 155.357L186.21 139.999L169.646 155.398L153.305 144.077L137.329 155.324L118.689 143.293L102.166 155.337L92.0588 148.603L64.2217 156.01L66.7239 153.423ZM70.7757 152.196L92.4166 146.438L102.115 152.899L118.62 140.868L137.28 152.912L153.296 141.638L169.463 152.838L186.316 137.169L200.855 152.878L212.863 146.631L228.14 151.795C207.765 132.248 180.129 120.222 149.666 120.222C118.996 120.222 91.1891 132.413 70.7757 152.196Z" fill="#FFCC37"/><path id="Fill 17" fill-rule="evenodd" clip-rule="evenodd" d="M207.766 55.1944C199.646 55.1944 191.44 53.5464 183.375 50.2944L182.364 49.8864L182.858 48.9134C183.091 48.4564 188.668 37.6204 198.009 30.5444L198.501 30.1704L199.056 30.4444C199.666 30.7464 214.107 37.9974 223.074 51.5614L223.765 52.6074L222.592 53.0484C222.361 53.1364 216.801 55.1944 207.766 55.1944" fill="white"/><g id="Group 21"><path id="Fill 19" fill-rule="evenodd" clip-rule="evenodd" d="M198.392 28.9998L197.406 29.7468C187.884 36.9598 182.205 47.9938 181.967 48.4598L180.977 50.4058L183.001 51.2218C191.186 54.5208 199.518 56.1938 207.767 56.1938C216.982 56.1938 222.707 54.0748 222.947 53.9838L225.29 53.1008L223.909 51.0098C214.795 37.2228 200.121 29.8548 199.5 29.5488L198.392 28.9998ZM198.614 31.3408C198.614 31.3408 213.32 38.6178 222.241 52.1128C222.241 52.1128 216.723 54.1938 207.767 54.1938C201.295 54.1938 193.03 53.1078 183.749 49.3668C183.749 49.3668 189.349 38.3598 198.614 31.3408V31.3408Z" fill="#E0BFDB"/></g></g></g></g><g id="Clothes/Jae" transform="translate(47.918 251.42) scale(1 1)"><g id="Clothes/Jae/Orange Curls"><g id="Group 12"><path id="Fill 1" fill-rule="evenodd" clip-rule="evenodd" d="M0 63.5815H208.214V0.000488281H0V63.5815Z" fill="#FFCC37"/><g id="Group 11"><g id="Group 4"><path id="Fill 2" fill-rule="evenodd" clip-rule="evenodd" d="M1.40549 12.0248C2.20449 11.5468 2.90949 11.3598 3.59349 11.3578C4.27849 11.3598 4.98449 11.5468 5.78249 12.0248C6.57549 12.5018 7.44149 13.2848 8.29949 14.4288L8.30149 14.4308L8.66449 14.9128L8.66249 14.9108C9.80049 16.4238 11.0655 17.6328 12.4725 18.4838C13.8755 19.3338 15.4395 19.8118 17.0245 19.8088C18.6085 19.8118 20.1725 19.3338 21.5745 18.4838C22.9815 17.6328 24.2475 16.4238 25.3845 14.9108L25.3875 14.9068L25.6665 14.5348L25.6635 14.5388C26.5215 13.3948 27.3875 12.6108 28.1805 12.1338C28.9785 11.6568 29.6845 11.4698 30.3705 11.4668C31.0625 11.4698 31.7785 11.6608 32.5885 12.1528C33.3935 12.6438 34.2725 13.4508 35.1415 14.6268C36.2855 16.1738 37.5625 17.4108 38.9835 18.2818C40.4005 19.1528 41.9825 19.6428 43.5885 19.6398C45.1935 19.6428 46.7755 19.1528 48.1925 18.2818C49.6145 17.4108 50.8905 16.1738 52.0355 14.6258C52.9025 13.4498 53.7825 12.6438 54.5865 12.1528C55.3965 11.6608 56.1115 11.4698 56.8055 11.4668C57.4905 11.4698 58.1955 11.6558 58.9935 12.1338C59.7875 12.6108 60.6545 13.3948 61.5135 14.5398L61.7735 14.8858C62.9105 16.3988 64.1765 17.6078 65.5835 18.4588C66.9855 19.3088 68.5505 19.7858 70.1345 19.7838C71.7185 19.7858 73.2825 19.3088 74.6845 18.4578C76.0925 17.6068 77.3575 16.3988 78.4945 14.8848L78.4915 14.8898L78.8065 14.4708L78.8095 14.4668C79.6685 13.3238 80.5345 12.5408 81.3275 12.0638C82.1255 11.5858 82.8305 11.3988 83.5155 11.3958C84.2005 11.3988 84.9055 11.5858 85.7045 12.0638C86.4975 12.5408 87.3635 13.3238 88.2205 14.4668L88.4275 14.7428C89.5645 16.2548 90.8305 17.4638 92.2375 18.3148C93.6395 19.1648 95.2045 19.6428 96.7895 19.6398C98.3735 19.6428 99.9365 19.1648 101.339 18.3148C102.746 17.4638 104.01 16.2548 105.148 14.7428L105.571 14.1808C106.429 13.0358 107.295 12.2528 108.089 11.7748C108.886 11.2978 109.592 11.1108 110.277 11.1078C110.962 11.1108 111.667 11.2978 112.465 11.7748C113.258 12.2528 114.124 13.0358 114.982 14.1798L115.189 14.4558C116.326 15.9688 117.592 17.1768 119 18.0278C120.402 18.8778 121.966 19.3548 123.55 19.3528C125.134 19.3548 126.697 18.8778 128.099 18.0278C129.507 17.1768 130.771 15.9688 131.909 14.4558L132.009 14.3248C132.868 13.1798 133.733 12.3958 134.527 11.9188C135.325 11.4418 136.03 11.2548 136.716 11.2518C137.4 11.2548 138.105 11.4418 138.904 11.9188C139.697 12.3958 140.563 13.1798 141.421 14.3228L141.659 14.6398C142.796 16.1528 144.061 17.3608 145.467 18.2118C146.871 19.0618 148.433 19.5398 150.018 19.5368C151.602 19.5398 153.166 19.0618 154.568 18.2118C155.975 17.3618 157.241 16.1528 158.38 14.6408L158.546 14.4188C159.403 13.2768 160.269 12.4928 161.062 12.0158C161.86 11.5378 162.566 11.3508 163.251 11.3488C163.935 11.3508 164.64 11.5378 165.439 12.0158C166.232 12.4928 167.098 13.2768 167.956 14.4198L168.141 14.6658C169.277 16.1778 170.543 17.3868 171.951 18.2378C173.353 19.0878 174.917 19.5648 176.502 19.5618C178.086 19.5648 179.649 19.0878 181.051 18.2378C182.46 17.3868 183.724 16.1778 184.862 14.6658L185.308 14.0698C186.165 12.9288 187.031 12.1448 187.824 11.6678C188.622 11.1898 189.328 11.0028 190.012 10.9998C190.696 11.0028 191.402 11.1898 192.2 11.6678C192.993 12.1448 193.86 12.9288 194.718 14.0718L195.085 14.5578L195.082 14.5548C196.218 16.0678 197.484 17.2768 198.892 18.1278C200.295 18.9778 201.858 19.4548 203.443 19.4518C205.027 19.4548 206.591 18.9778 207.993 18.1278C208.069 18.0818 208.139 18.0238 208.214 17.9768V11.7398C208.193 11.7648 208.169 11.7838 208.149 11.8098C207.291 12.9528 206.425 13.7368 205.632 14.2138C204.833 14.6918 204.128 14.8788 203.443 14.8808C202.758 14.8788 202.052 14.6918 201.255 14.2138C200.461 13.7368 199.595 12.9528 198.737 11.8098L198.735 11.8068L198.371 11.3228C197.234 9.81276 195.969 8.60476 194.562 7.75376C193.16 6.90376 191.596 6.42676 190.012 6.42976C188.427 6.42676 186.865 6.90376 185.463 7.75376C184.054 8.60476 182.789 9.81276 181.651 11.3258L181.205 11.9218C180.349 13.0628 179.483 13.8468 178.689 14.3238C177.891 14.8018 177.186 14.9888 176.502 14.9908C175.816 14.9888 175.111 14.8018 174.312 14.3238C173.519 13.8468 172.654 13.0638 171.796 11.9198L171.61 11.6738C170.474 10.1618 169.209 8.95276 167.801 8.10176C166.399 7.25176 164.835 6.77476 163.251 6.77776C161.666 6.77476 160.102 7.25176 158.7 8.10176C157.293 8.95276 156.027 10.1618 154.889 11.6748L154.724 11.8958C153.867 13.0378 153 13.8208 152.206 14.2988C151.407 14.7768 150.702 14.9628 150.018 14.9658C149.334 14.9628 148.629 14.7768 147.831 14.2988C147.038 13.8218 146.172 13.0378 145.314 11.8948L145.076 11.5778C143.939 10.0648 142.674 8.85676 141.266 8.00576C139.864 7.15476 138.3 6.67776 136.716 6.68076C135.131 6.67776 133.567 7.15476 132.165 8.00476C130.757 8.85576 129.491 10.0648 128.354 11.5778L128.257 11.7078C127.397 12.8528 126.53 13.6368 125.737 14.1138C124.939 14.5918 124.233 14.7788 123.55 14.7818C122.865 14.7788 122.16 14.5918 121.362 14.1138C120.569 13.6368 119.702 12.8528 118.844 11.7098L118.637 11.4348C117.501 9.92176 116.235 8.71276 114.827 7.86176C113.425 7.01176 111.861 6.53376 110.277 6.53676C108.692 6.53376 107.129 7.01176 105.726 7.86176C104.318 8.71276 103.052 9.92176 101.916 11.4358L101.493 11.9968C100.636 13.1408 99.7695 13.9238 98.9765 14.4008C98.1785 14.8788 97.4725 15.0658 96.7895 15.0688C96.1035 15.0658 95.3975 14.8788 94.5995 14.4008C93.8065 13.9238 92.9405 13.1408 92.0835 11.9978L91.8765 11.7218C90.7395 10.2098 89.4735 9.00076 88.0665 8.14976C86.6635 7.29976 85.0995 6.82276 83.5155 6.82476C81.9305 6.82276 80.3675 7.29976 78.9655 8.14976C77.5565 9.00076 76.2925 10.2088 75.1545 11.7228L75.1575 11.7178L74.8425 12.1368L74.8395 12.1408C73.9815 13.2838 73.1155 14.0678 72.3225 14.5448C71.5235 15.0228 70.8185 15.2098 70.1345 15.2128C69.4495 15.2098 68.7435 15.0228 67.9455 14.5448C67.1525 14.0678 66.2865 13.2838 65.4285 12.1408L65.1685 11.7938C64.0295 10.2798 62.7625 9.07076 61.3555 8.21976C59.9535 7.36976 58.3885 6.89276 56.8055 6.89576C55.2005 6.89276 53.6165 7.38276 52.2005 8.25376C50.7785 9.12476 49.5035 10.3618 48.3595 11.9088C47.4905 13.0848 46.6125 13.8918 45.8065 14.3828C44.9975 14.8738 44.2815 15.0658 43.5885 15.0688C42.8945 15.0658 42.1795 14.8748 41.3695 14.3828C40.5645 13.8918 39.6855 13.0858 38.8175 11.9098C37.6725 10.3608 36.3955 9.12476 34.9735 8.25276C33.5565 7.38276 31.9745 6.89276 30.3705 6.89576C28.7855 6.89276 27.2215 7.36976 25.8185 8.22076C24.4115 9.07176 23.1455 10.2798 22.0085 11.7938L22.0065 11.7968L21.7275 12.1688L21.7295 12.1658C20.8725 13.3088 20.0055 14.0928 19.2125 14.5708C18.4145 15.0488 17.7095 15.2348 17.0245 15.2378C16.3395 15.2348 15.6345 15.0488 14.8355 14.5708C14.0425 14.0928 13.1755 13.3098 12.3175 12.1658L12.3155 12.1628L11.9525 11.6808L11.9545 11.6838C10.8175 10.1708 9.55149 8.96176 8.14449 8.11076C6.74249 7.26076 5.17749 6.78376 3.59349 6.78676C2.36049 6.78476 1.14149 7.08076 0.000488281 7.60976V13.1538C0.481488 12.6768 0.955488 12.2958 1.40549 12.0248" fill="#F9A471"/></g><g id="Group 7"><path id="Fill 5" fill-rule="evenodd" clip-rule="evenodd" d="M1.40549 30.1659C2.20449 29.6879 2.90949 29.5009 3.59349 29.4989C4.27849 29.5009 4.98449 29.6879 5.78249 30.1659C6.57549 30.6429 7.44149 31.4259 8.29949 32.5699L8.66249 33.0529C9.79949 34.5649 11.0635 35.7729 12.4685 36.6239C13.8715 37.4749 15.4335 37.9529 17.0185 37.9499C18.6025 37.9529 20.1665 37.4759 21.5695 36.6259C22.9775 35.7749 24.2445 34.5669 25.3845 33.0529L25.6635 32.6819C26.5215 31.5369 27.3875 30.7529 28.1805 30.2759C28.9795 29.7979 29.6845 29.6109 30.3705 29.6079C31.0625 29.6109 31.7775 29.8029 32.5885 30.2949C33.3925 30.7859 34.2725 31.5929 35.1405 32.7689C36.2865 34.3159 37.5625 35.5529 38.9835 36.4239C40.4005 37.2939 41.9835 37.7839 43.5885 37.7809C45.1935 37.7839 46.7755 37.2939 48.1925 36.4239C49.6145 35.5529 50.8895 34.3159 52.0355 32.7679L52.0505 32.7489C52.9125 31.5839 53.7865 30.7819 54.5865 30.2939C55.3965 29.8019 56.1115 29.6109 56.8055 29.6079C57.4905 29.6109 58.1955 29.7969 58.9935 30.2749C59.7875 30.7519 60.6545 31.5359 61.5135 32.6809L61.5095 32.6759L61.7705 33.0239L61.7735 33.0279C62.9105 34.5409 64.1765 35.7489 65.5835 36.5999C66.9855 37.4509 68.5505 37.9279 70.1345 37.9249C71.7185 37.9279 73.2825 37.4509 74.6845 36.5999C76.0925 35.7489 77.3565 34.5409 78.4945 33.0279L78.8095 32.6089C79.6685 31.4649 80.5345 30.6819 81.3275 30.2049C82.1255 29.7269 82.8305 29.5399 83.5155 29.5369C84.2005 29.5399 84.9055 29.7269 85.7045 30.2049C86.4975 30.6819 87.3635 31.4649 88.2205 32.6079L88.4275 32.8839C89.5645 34.3959 90.8305 35.6049 92.2375 36.4559C93.6395 37.3059 95.2045 37.7839 96.7895 37.7809C98.3735 37.7839 99.9365 37.3059 101.339 36.4559C102.746 35.6049 104.01 34.3959 105.148 32.8839L105.571 32.3219C106.429 31.1779 107.295 30.3949 108.089 29.9169C108.886 29.4399 109.592 29.2529 110.277 29.2499C110.962 29.2529 111.667 29.4399 112.465 29.9169C113.258 30.3949 114.124 31.1779 114.982 32.3209L115.189 32.5969C116.326 34.1099 117.592 35.3179 119 36.1689C120.402 37.0189 121.966 37.4959 123.55 37.4939C125.134 37.4959 126.697 37.0189 128.099 36.1689C129.507 35.3179 130.771 34.1099 131.909 32.5969L132.009 32.4659C132.868 31.3209 133.733 30.5369 134.527 30.0599C135.325 29.5829 136.03 29.3959 136.716 29.3929C137.4 29.3959 138.105 29.5829 138.904 30.0599C139.697 30.5369 140.563 31.3209 141.421 32.4639L141.659 32.7809C142.796 34.2939 144.061 35.5019 145.467 36.3529C146.871 37.2029 148.433 37.6809 150.018 37.6779C151.602 37.6809 153.166 37.2029 154.568 36.3529C155.975 35.5029 157.241 34.2939 158.38 32.7819L158.546 32.5599C159.403 31.4179 160.269 30.6339 161.062 30.1569C161.86 29.6789 162.566 29.4919 163.251 29.4899C163.935 29.4919 164.64 29.6789 165.439 30.1569C166.232 30.6339 167.098 31.4179 167.956 32.5609L168.141 32.8069C169.277 34.3189 170.543 35.5279 171.951 36.3789C173.353 37.2289 174.917 37.7059 176.502 37.7029C178.086 37.7059 179.649 37.2289 181.051 36.3789C182.46 35.5279 183.724 34.3189 184.862 32.8059L185.308 32.2109C186.165 31.0699 187.031 30.2859 187.824 29.8089C188.622 29.3309 189.328 29.1439 190.012 29.1409C190.696 29.1439 191.402 29.3309 192.2 29.8089C192.993 30.2859 193.86 31.0699 194.718 32.2129L195.085 32.6989L195.082 32.6959C196.218 34.2089 197.484 35.4179 198.892 36.2689C200.295 37.1199 201.858 37.5969 203.443 37.5939C205.027 37.5969 206.591 37.1199 207.993 36.2689C208.069 36.2229 208.139 36.1659 208.214 36.1179V29.8809C208.193 29.9059 208.169 29.9259 208.149 29.9519C207.29 31.0949 206.425 31.8789 205.632 32.3559C204.833 32.8339 204.128 33.0209 203.443 33.0239C202.758 33.0209 202.052 32.8339 201.255 32.3559C200.461 31.8789 199.595 31.0949 198.737 29.9519L198.735 29.9479L198.371 29.4639C197.234 27.9539 195.969 26.7459 194.562 25.8949C193.16 25.0449 191.596 24.5679 190.012 24.5709C188.427 24.5679 186.865 25.0449 185.463 25.8949C184.054 26.7459 182.789 27.9539 181.651 29.4669L181.205 30.0629C180.349 31.2039 179.483 31.9879 178.689 32.4649C177.891 32.9429 177.186 33.1299 176.502 33.1319C175.816 33.1299 175.111 32.9429 174.312 32.4649C173.519 31.9879 172.654 31.2049 171.796 30.0609L171.61 29.8149C170.474 28.3029 169.209 27.0939 167.801 26.2429C166.399 25.3929 164.835 24.9159 163.251 24.9189C161.666 24.9159 160.102 25.3929 158.7 26.2429C157.293 27.0939 156.027 28.3029 154.889 29.8159L154.724 30.0369C153.867 31.1789 153 31.9619 152.206 32.4399C151.407 32.9179 150.702 33.1039 150.018 33.1069C149.334 33.1039 148.629 32.9179 147.831 32.4399C147.038 31.9629 146.172 31.1789 145.314 30.0359L145.076 29.7189C143.939 28.2059 142.674 26.9979 141.266 26.1469C139.864 25.2959 138.3 24.8189 136.716 24.8219C135.131 24.8189 133.567 25.2959 132.165 26.1459C130.757 26.9979 129.491 28.2059 128.354 29.7189L128.257 29.8489C127.397 30.9939 126.53 31.7779 125.737 32.2549C124.939 32.7329 124.233 32.9199 123.55 32.9229C122.865 32.9199 122.16 32.7329 121.362 32.2549C120.569 31.7779 119.702 30.9939 118.844 29.8509L118.637 29.5759C117.501 28.0629 116.235 26.8549 114.827 26.0039C113.425 25.1539 111.861 24.6759 110.277 24.6789C108.692 24.6759 107.129 25.1539 105.726 26.0039C104.318 26.8549 103.052 28.0629 101.916 29.5759L101.493 30.1379C100.636 31.2819 99.7695 32.0649 98.9765 32.5429C98.1785 33.0199 97.4725 33.2069 96.7895 33.2099C96.1035 33.2069 95.3975 33.0199 94.5995 32.5429C93.8065 32.0649 92.9405 31.2819 92.0835 30.1389L91.8765 29.8629C90.7395 28.3509 89.4735 27.1419 88.0665 26.2909C86.6635 25.4409 85.0995 24.9639 83.5155 24.9659C81.9305 24.9639 80.3675 25.4409 78.9655 26.2909C77.5565 27.1419 76.2925 28.3499 75.1545 29.8639L74.8405 30.2819C73.9825 31.4259 73.1155 32.2099 72.3225 32.6869C71.5235 33.1649 70.8185 33.3509 70.1345 33.3539C69.4495 33.3509 68.7435 33.1649 67.9455 32.6869C67.1525 32.2099 66.2865 31.4259 65.4285 30.2829L65.4315 30.2869L65.1715 29.9379L65.1675 29.9339C64.0295 28.4209 62.7625 27.2119 61.3555 26.3609C59.9535 25.5109 58.3885 25.0339 56.8055 25.0369C55.2005 25.0339 53.6165 25.5239 52.2005 26.3949C50.7785 27.2659 49.5035 28.5029 48.3595 30.0499L48.3445 30.0699C47.4815 31.2349 46.6075 32.0359 45.8065 32.5239C44.9975 33.0159 44.2815 33.2079 43.5885 33.2099C42.8945 33.2079 42.1795 33.0159 41.3695 32.5239C40.5645 32.0339 39.6845 31.2269 38.8175 30.0519C37.6725 28.5029 36.3955 27.2669 34.9735 26.3949C33.5565 25.5249 31.9745 25.0349 30.3705 25.0369C28.7855 25.0349 27.2215 25.5119 25.8185 26.3619C24.4115 27.2139 23.1455 28.4229 22.0085 29.9369L21.7295 30.3069C20.8715 31.4499 20.0035 32.2339 19.2095 32.7119C18.4105 33.1899 17.7035 33.3759 17.0185 33.3789C16.3355 33.3759 15.6315 33.1899 14.8335 32.7119C14.0415 32.2339 13.1755 31.4509 12.3175 30.3079L11.9545 29.8249C10.8175 28.3119 9.55149 27.1029 8.14449 26.2519C6.74249 25.4019 5.17749 24.9249 3.59349 24.9279C2.36049 24.9259 1.14149 25.2219 0.000488281 25.7509V31.2949C0.481488 30.8179 0.955488 30.4369 1.40549 30.1659" fill="#F9A471"/></g><g id="Group 10"><path id="Fill 8" fill-rule="evenodd" clip-rule="evenodd" d="M1.40549 48.3073C2.20449 47.8293 2.90949 47.6423 3.59349 47.6403C4.27849 47.6423 4.98449 47.8293 5.78249 48.3073C6.57549 48.7843 7.44149 49.5673 8.29949 50.7113L8.66249 51.1943C9.79949 52.7063 11.0635 53.9143 12.4685 54.7653C13.8715 55.6163 15.4335 56.0943 17.0185 56.0913C18.6025 56.0943 20.1665 55.6173 21.5695 54.7673C22.9775 53.9163 24.2445 52.7083 25.3845 51.1943L25.6635 50.8233C26.5215 49.6783 27.3875 48.8953 28.1805 48.4173C28.9785 47.9393 29.6845 47.7533 30.3695 47.7503C31.0615 47.7533 31.7775 47.9443 32.5885 48.4363C33.3925 48.9273 34.2725 49.7343 35.1415 50.9103C36.2855 52.4583 37.5625 53.6943 38.9835 54.5663C40.4005 55.4363 41.9825 55.9263 43.5885 55.9233C45.1935 55.9263 46.7755 55.4363 48.1925 54.5663C49.6145 53.6943 50.8905 52.4583 52.0355 50.9093C52.9025 49.7333 53.7825 48.9273 54.5875 48.4363C55.3975 47.9443 56.1125 47.7523 56.8055 47.7493C57.4905 47.7523 58.1955 47.9393 58.9935 48.4163C59.7875 48.8943 60.6545 49.6773 61.5135 50.8223L61.5095 50.8173L61.7705 51.1653L61.7735 51.1693C62.9105 52.6823 64.1765 53.8903 65.5835 54.7413C66.9855 55.5923 68.5505 56.0693 70.1345 56.0663C71.7185 56.0693 73.2825 55.5923 74.6845 54.7413C76.0925 53.8903 77.3565 52.6823 78.4945 51.1693L78.8095 50.7503C79.6685 49.6063 80.5345 48.8233 81.3275 48.3463C82.1255 47.8683 82.8305 47.6813 83.5155 47.6783C84.2005 47.6813 84.9055 47.8683 85.7045 48.3463C86.4975 48.8233 87.3635 49.6063 88.2205 50.7493L88.4275 51.0253C89.5645 52.5383 90.8305 53.7473 92.2375 54.5983C93.6395 55.4483 95.2045 55.9263 96.7895 55.9233C98.3735 55.9263 99.9365 55.4483 101.339 54.5983C102.746 53.7463 104.011 52.5383 105.148 51.0243L105.571 50.4633C106.429 49.3193 107.295 48.5363 108.089 48.0583C108.886 47.5813 109.592 47.3943 110.277 47.3913C110.962 47.3943 111.667 47.5813 112.465 48.0583C113.258 48.5363 114.124 49.3193 114.982 50.4623L115.189 50.7383C116.326 52.2513 117.592 53.4593 119 54.3103C120.402 55.1603 121.966 55.6373 123.55 55.6353C125.134 55.6373 126.697 55.1603 128.099 54.3103C129.507 53.4593 130.771 52.2513 131.909 50.7383L132.001 50.6193L132.009 50.6063C132.868 49.4633 133.733 48.6803 134.527 48.2033C135.325 47.7253 136.03 47.5383 136.716 47.5363C137.4 47.5383 138.105 47.7253 138.904 48.2033C139.697 48.6803 140.563 49.4633 141.421 50.6063L141.424 50.6113L141.662 50.9263L141.659 50.9223C142.796 52.4353 144.061 53.6433 145.467 54.4943C146.871 55.3443 148.433 55.8223 150.018 55.8193C151.602 55.8223 153.166 55.3443 154.568 54.4943C155.975 53.6443 157.241 52.4353 158.38 50.9233L158.546 50.7013C159.403 49.5593 160.269 48.7753 161.062 48.2983C161.86 47.8203 162.566 47.6333 163.251 47.6313C163.935 47.6333 164.64 47.8203 165.439 48.2983C166.232 48.7753 167.098 49.5593 167.956 50.7023L168.141 50.9483C169.277 52.4603 170.543 53.6693 171.951 54.5203C173.353 55.3713 174.917 55.8483 176.502 55.8453C178.086 55.8483 179.649 55.3713 181.051 54.5203C182.46 53.6693 183.725 52.4603 184.862 50.9473L185.306 50.3553C186.165 49.2123 187.031 48.4283 187.824 47.9503C188.623 47.4723 189.328 47.2863 190.012 47.2833C190.696 47.2863 191.402 47.4723 192.2 47.9503C192.992 48.4283 193.86 49.2123 194.717 50.3563L194.719 50.3583L195.085 50.8423L195.082 50.8393C196.218 52.3523 197.484 53.5603 198.892 54.4113C200.295 55.2613 201.858 55.7393 203.443 55.7363C205.027 55.7393 206.591 55.2613 207.993 54.4113C208.069 54.3653 208.139 54.3083 208.214 54.2603V48.0233C208.193 48.0483 208.169 48.0683 208.149 48.0943C207.291 49.2373 206.425 50.0203 205.632 50.4983C204.833 50.9753 204.128 51.1623 203.443 51.1653C202.758 51.1623 202.052 50.9753 201.255 50.4983C200.461 50.0203 199.595 49.2373 198.737 48.0943L198.735 48.0903L198.371 47.6073L198.373 47.6103C197.234 46.0973 195.969 44.8883 194.562 44.0373C193.16 43.1873 191.596 42.7093 190.012 42.7123C188.427 42.7093 186.865 43.1873 185.463 44.0373C184.054 44.8883 182.789 46.0973 181.651 47.6103L181.207 48.2023C180.348 49.3463 179.483 50.1303 178.689 50.6073C177.891 51.0853 177.186 51.2723 176.502 51.2753C175.816 51.2723 175.111 51.0853 174.312 50.6073C173.519 50.1303 172.654 49.3463 171.796 48.2033L171.61 47.9563C170.474 46.4443 169.209 45.2353 167.801 44.3843C166.399 43.5343 164.835 43.0573 163.251 43.0603C161.666 43.0573 160.102 43.5343 158.7 44.3843C157.293 45.2353 156.027 46.4443 154.889 47.9573L154.724 48.1783C153.867 49.3203 153 50.1033 152.206 50.5813C151.407 51.0593 150.702 51.2453 150.018 51.2483C149.334 51.2453 148.629 51.0593 147.831 50.5813C147.038 50.1043 146.172 49.3203 145.314 48.1773L145.311 48.1733L145.073 47.8573L145.076 47.8623C143.939 46.3493 142.674 45.1403 141.266 44.2893C139.864 43.4393 138.3 42.9623 136.716 42.9653C135.131 42.9623 133.567 43.4393 132.165 44.2893C130.757 45.1403 129.491 46.3493 128.354 47.8623L128.263 47.9843V47.9813L128.256 47.9923C127.397 49.1353 126.53 49.9193 125.737 50.3963C124.939 50.8743 124.233 51.0613 123.55 51.0643C122.865 51.0613 122.16 50.8743 121.362 50.3963C120.569 49.9193 119.702 49.1353 118.844 47.9923L118.637 47.7173C117.501 46.2043 116.235 44.9963 114.827 44.1453C113.425 43.2953 111.861 42.8173 110.277 42.8203C108.692 42.8173 107.129 43.2953 105.726 44.1453C104.318 44.9963 103.052 46.2043 101.916 47.7173L101.493 48.2793C100.635 49.4233 99.7695 50.2073 98.9765 50.6843C98.1785 51.1623 97.4725 51.3493 96.7895 51.3523C96.1035 51.3493 95.3975 51.1623 94.5995 50.6843C93.8065 50.2073 92.9405 49.4243 92.0835 48.2803L91.8765 48.0043C90.7395 46.4923 89.4735 45.2833 88.0665 44.4323C86.6635 43.5823 85.0995 43.1053 83.5155 43.1073C81.9305 43.1053 80.3675 43.5823 78.9655 44.4323C77.5565 45.2833 76.2925 46.4913 75.1545 48.0053L74.8405 48.4233C73.9825 49.5673 73.1155 50.3513 72.3225 50.8283C71.5235 51.3063 70.8185 51.4923 70.1345 51.4953C69.4495 51.4923 68.7435 51.3063 67.9455 50.8283C67.1525 50.3513 66.2865 49.5673 65.4285 48.4243L65.4315 48.4283L65.1715 48.0793L65.1675 48.0753C64.0295 46.5623 62.7625 45.3533 61.3555 44.5033C59.9535 43.6533 58.3885 43.1763 56.8055 43.1783C55.2005 43.1763 53.6165 43.6663 52.2015 44.5373C50.7795 45.4083 49.5035 46.6453 48.3585 48.1933C47.4905 49.3693 46.6125 50.1763 45.8065 50.6663C44.9975 51.1583 44.2815 51.3503 43.5885 51.3523C42.8945 51.3503 42.1795 51.1583 41.3695 50.6663C40.5645 50.1763 39.6855 49.3693 38.8175 48.1933C37.6715 46.6443 36.3945 45.4083 34.9725 44.5373C33.5565 43.6663 31.9735 43.1763 30.3695 43.1793C28.7845 43.1763 27.2215 43.6543 25.8185 44.5043C24.4115 45.3553 23.1455 46.5643 22.0085 48.0783L21.7295 48.4483C20.8715 49.5913 20.0035 50.3753 19.2095 50.8533C18.4105 51.3313 17.7035 51.5173 17.0185 51.5203C16.3355 51.5173 15.6315 51.3313 14.8335 50.8533C14.0415 50.3753 13.1755 49.5923 12.3175 48.4493L11.9545 47.9663C10.8175 46.4533 9.55149 45.2443 8.14449 44.3933C6.74249 43.5433 5.17749 43.0663 3.59349 43.0693C2.36049 43.0673 1.14149 43.3633 0.000488281 43.8923V49.4363C0.481488 48.9593 0.955488 48.5783 1.40549 48.3073" fill="#F9A471"/></g></g></g></g></g></g></g><g id="Master/Worms/Mol" transform="matrix(0.999892 -0.0147154 0.0146977 0.999892 250.053 264.156) scale(1.1335988599200582 1.1380599733382937)"><g id="Master/Worms/Mol"><g id="Body/Mol" transform="translate(99.918 45.84) scale(1 1)"><g id="Body/Mol/Charcoal"><g id="Group 11"><g id="Group 3"><path id="Fill 1" fill-rule="evenodd" clip-rule="evenodd" d="M7.22485 70.6674V268.041H96.5609V70.6674C96.5609 45.9984 76.5629 25.9994 51.8929 25.9994C27.2239 25.9994 7.22485 45.9984 7.22485 70.6674Z" fill="#3A3E5B"/></g><g id="Group 6"><path id="Fill 4" fill-rule="evenodd" clip-rule="evenodd" d="M49.7115 71.0883C49.7115 84.8163 38.5835 95.9443 24.8555 95.9443C11.1285 95.9443 -0.000488281 84.8163 -0.000488281 71.0883C-0.000488281 57.3603 11.1285 46.2333 24.8555 46.2333C38.5835 46.2333 49.7115 57.3603 49.7115 71.0883" fill="#F06647"/></g><path id="Fill 7" fill-rule="evenodd" clip-rule="evenodd" d="M103.786 71.0883C103.786 84.8163 92.658 95.9443 78.93 95.9443C65.203 95.9443 54.075 84.8163 54.075 71.0883C54.075 57.3603 65.203 46.2333 78.93 46.2333C92.658 46.2333 103.786 57.3603 103.786 71.0883" fill="#F06647"/><path id="Fill 9" fill-rule="evenodd" clip-rule="evenodd" d="M7.22485 268.042H96.4899V123.015H7.22485V268.042Z" fill="#252A42"/></g></g></g><g id="Eyes/Mol" transform="translate(127.918 109.84) scale(1 1)"><g id="Eyes/Mol/Naughty"><g id="Group 5"><path id="Fill 1" fill-rule="evenodd" clip-rule="evenodd" d="M8.002 14.891C7.345 14.891 6.701 14.567 6.319 13.974C5.721 13.045 5.988 11.808 6.917 11.209L11.889 8.00601L7.321 4.60401C6.436 3.94401 6.252 2.69101 6.912 1.80501C7.572 0.919012 8.825 0.737012 9.711 1.39601L15.604 5.78601C16.355 6.34601 16.783 7.23701 16.751 8.17201C16.719 9.10701 16.231 9.96701 15.444 10.474L9.083 14.572C8.748 14.787 8.373 14.891 8.002 14.891" fill="#101335"/><path id="Fill 3" fill-rule="evenodd" clip-rule="evenodd" d="M35.6802 11.5189V11.5189C33.8742 11.5189 32.4102 10.0549 32.4102 8.2489V4.9749C32.4102 3.1689 33.8742 1.7049 35.6802 1.7049C37.4852 1.7049 38.9492 3.1689 38.9492 4.9749V8.2489C38.9492 10.0549 37.4852 11.5189 35.6802 11.5189" fill="#101335"/></g></g></g><g id="Mouth/Mol" transform="translate(133.656 123.909) scale(0.9736842105263158 1)"><g id="Mouth/Mol/Laughing"><path id="Mouth" fill-rule="evenodd" clip-rule="evenodd" d="M19.6689 17.833C14.2649 17.833 9.45993 15.867 6.63793 14.024C3.86293 12.212 3.08293 8.49504 4.89593 5.72004C6.69693 2.95904 10.3879 2.17204 13.1599 3.95204C13.4949 4.16004 19.6749 7.90704 24.9259 4.13004C27.6169 2.19604 31.3649 2.80704 33.3009 5.49704C35.2349 8.18704 34.6229 11.937 31.9339 13.872C27.8859 16.784 23.6169 17.833 19.6689 17.833" fill="white"/></g></g><g id="Hair/Mol" transform="translate(88.918 7.84003) scale(1 1)"><g id="Hair/Mol/Double Bun"><g id="Hair"><path id="Fill 17" fill-rule="evenodd" clip-rule="evenodd" d="M51.0626 76.224L52.4016 83.0719C55.1486 83.269 57.8386 83.3696 60.4546 83.3917L62.6586 76.3638L64.7806 83.3565C67.7916 83.2831 70.6826 83.1131 73.4216 82.8748L74.7216 76.224L77.4046 82.4735C90.8236 80.9307 96.3386 78.9686 96.3386 78.9686C89.2866 70.5809 77.0476 63.8205 62.8926 63.8205V63.8205C48.7376 63.8205 36.8406 70.2862 29.3926 79.0289C36.9026 81.507 41.0826 81.9415 48.2806 82.7078L51.0626 76.224Z" fill="#73BAB8"/><path id="Fill 19" fill-rule="evenodd" clip-rule="evenodd" d="M44.1474 49.0383V49.0383C42.9964 50.923 43.7184 53.3941 45.6994 54.3535C48.8454 55.8772 48.3474 60.5286 44.9514 61.3452V61.3452C42.8134 61.8592 41.5854 64.12 42.3114 66.2069C43.4644 69.5217 39.8424 72.4574 36.8674 70.6189C34.9934 69.4624 32.5364 70.1875 31.5824 72.1798C30.0674 75.3438 25.4414 74.8429 24.6304 71.4275C24.1194 69.2773 21.8714 68.0423 19.7954 68.7734C16.5004 69.932 13.5814 66.2893 15.4084 63.2973C16.5594 61.4136 15.8384 58.9416 13.8574 57.9821C10.7114 56.4585 11.2094 51.806 14.6044 50.9904C16.7434 50.4765 17.9704 48.2156 17.2444 46.1288C16.0914 42.8139 19.7144 39.8783 22.6894 41.7167C24.5624 42.8743 27.0204 42.1482 27.9744 40.1558C29.4894 36.9919 34.1144 37.4927 34.9264 40.9081C35.4374 43.0583 37.6854 44.2934 39.7604 43.5632C43.0554 42.4026 45.9754 46.0463 44.1474 49.0383" fill="#3A3E5B"/><g id="Group 23"><path id="Fill 21" fill-rule="evenodd" clip-rule="evenodd" d="M90.8651 40.9056V40.9056C90.3531 43.0558 88.1051 44.2898 86.0301 43.5587C82.7351 42.3981 79.8141 46.0398 81.6411 49.0328C82.7911 50.9175 82.0681 53.3885 80.0871 54.347C76.9411 55.8696 77.4361 60.5221 80.8321 61.3387C82.9701 61.8536 84.1971 64.1155 83.4701 66.2023C82.3151 69.5162 85.9371 72.4528 88.9131 70.6164C90.7871 69.4598 93.2441 70.186 94.1971 72.1793C95.7111 75.3433 100.337 74.8444 101.149 71.43C101.661 69.2788 103.909 68.0458 105.985 68.776C109.28 69.9376 112.2 66.2959 110.374 63.3029C109.224 61.4182 109.946 58.9461 111.927 57.9877C115.074 56.466 114.578 51.8136 111.182 50.9959C109.044 50.481 107.817 48.2202 108.544 46.1333C109.699 42.8195 106.077 39.8818 103.102 41.7192C101.228 42.8758 98.7711 42.1487 97.8171 40.1563V40.1563C96.3031 36.9924 91.6781 37.4902 90.8651 40.9056" fill="#3A3E5B"/></g><path id="Fill 24" fill-rule="evenodd" clip-rule="evenodd" d="M37.9622 52.107V52.107C37.3062 53.1801 37.7172 54.5881 38.8462 55.1342C40.6372 56.0021 40.3542 58.6512 38.4202 59.1168C37.2022 59.4095 36.5032 60.6968 36.9162 61.8855C37.5732 63.7733 35.5102 65.4447 33.8162 64.3988C32.7492 63.7391 31.3492 64.1524 30.8062 65.2869C29.9432 67.0891 27.3082 66.8045 26.8462 64.8594C26.5552 63.6335 25.2752 62.9305 24.0932 63.3468C22.2162 64.0076 20.5532 61.9328 21.5942 60.2281C22.2502 59.155 21.8392 57.747 20.7102 57.2009C18.9192 56.333 19.2022 53.6839 21.1362 53.2193C22.3542 52.9266 23.0532 51.6383 22.6402 50.4506C21.9832 48.5628 24.0462 46.8903 25.7412 47.9373C26.8072 48.596 28.2072 48.1827 28.7512 47.0482C29.6132 45.247 32.2482 45.5316 32.7102 47.4767C33.0012 48.7016 34.2812 49.4046 35.4632 48.9882C37.3402 48.3285 39.0032 50.4033 37.9622 52.107" fill="#F1758E"/><path id="Fill 26" fill-rule="evenodd" clip-rule="evenodd" d="M93.0757 47.4674V47.4674C92.7837 48.6934 91.5027 49.3964 90.3187 48.98C88.4407 48.3182 86.7757 50.394 87.8167 52.0997C88.4727 53.1748 88.0607 54.5838 86.9317 55.1299C85.1377 55.9979 85.4197 58.6499 87.3557 59.1166C88.5747 59.4092 89.2747 60.6986 88.8597 61.8883C88.2017 63.7771 90.2667 65.4516 91.9627 64.4046C93.0307 63.7459 94.4317 64.1592 94.9757 65.2957C95.8377 67.0989 98.4757 66.8153 98.9387 64.8683C99.2307 63.6423 100.513 62.9393 101.695 63.3557C103.574 64.0184 105.239 61.9416 104.198 60.2349C103.542 59.1608 103.954 57.7518 105.083 57.2057C106.877 56.3378 106.594 53.6857 104.659 53.2201C103.44 52.9264 102.74 51.6371 103.155 50.4473C103.813 48.5576 101.748 46.8841 100.052 47.931C98.9837 48.5908 97.5827 48.1764 97.0387 47.04C96.1757 45.2367 93.5387 45.5203 93.0757 47.4674" fill="#F1758E"/></g></g></g><g id="Clothes/Mol" transform="translate(107.117 168.84) scale(1 1)"><g id="Clothes/Mol/Pink Polkas"><g id="Group 31"><path id="Fill 1" fill-rule="evenodd" clip-rule="evenodd" d="M0 145.967H89.336V11.8H0V145.967Z" fill="#E0BFDB"/><g id="Group 30"><path id="Fill 2" fill-rule="evenodd" clip-rule="evenodd" d="M69.6711 68.921C64.3621 68.921 60.0591 73.221 60.0591 78.525C60.0591 83.83 64.3621 88.13 69.6711 88.13C74.9801 88.13 79.2831 83.83 79.2831 78.525C79.2831 73.221 74.9801 68.921 69.6711 68.921" fill="#F285B6"/><g id="Group 6"><path id="Fill 4" fill-rule="evenodd" clip-rule="evenodd" d="M77.9033 36.8405C77.9033 42.1445 82.2063 46.4445 87.5153 46.4445C88.1383 46.4445 88.7463 46.3815 89.3363 46.2675V27.4135C88.7463 27.2995 88.1383 27.2355 87.5153 27.2355C82.2063 27.2355 77.9033 31.5365 77.9033 36.8405" fill="#F285B6"/></g><path id="Fill 7" fill-rule="evenodd" clip-rule="evenodd" d="M56.3183 43.6623C56.3183 38.3573 52.0143 34.0573 46.7053 34.0573C41.3973 34.0573 37.0933 38.3573 37.0933 43.6623C37.0933 48.9663 41.3973 53.2663 46.7053 53.2663C52.0143 53.2663 56.3183 48.9663 56.3183 43.6623" fill="#F285B6"/><path id="Fill 9" fill-rule="evenodd" clip-rule="evenodd" d="M26.2424 77.0187C20.9334 77.0187 16.6304 81.3187 16.6304 86.6237C16.6304 91.9277 20.9334 96.2277 26.2424 96.2277C31.5514 96.2277 35.8544 91.9277 35.8544 86.6237C35.8544 81.3187 31.5514 77.0187 26.2424 77.0187" fill="#F285B6"/><path id="Fill 11" fill-rule="evenodd" clip-rule="evenodd" d="M50.6828 106.382C45.3738 106.382 41.0708 110.682 41.0708 115.987C41.0708 121.291 45.3738 125.591 50.6828 125.591C55.9918 125.591 60.2948 121.291 60.2948 115.987C60.2948 110.682 55.9918 106.382 50.6828 106.382" fill="#F285B6"/><path id="Fill 13" fill-rule="evenodd" clip-rule="evenodd" d="M82.6211 112.759C82.6211 117.054 85.4441 120.689 89.3361 121.917V103.6C85.4441 104.828 82.6211 108.463 82.6211 112.759" fill="#F285B6"/><path id="Fill 15" fill-rule="evenodd" clip-rule="evenodd" d="M73.0085 139.63C68.8495 139.63 65.3185 142.274 63.9795 145.966H82.0375C80.6985 142.274 77.1665 139.63 73.0085 139.63" fill="#F285B6"/><path id="Fill 17" fill-rule="evenodd" clip-rule="evenodd" d="M18.6872 139.521C14.4872 139.521 10.9262 142.216 9.61719 145.967H27.7562C26.4482 142.216 22.8872 139.521 18.6872 139.521" fill="#F285B6"/><g id="Group 21"><path id="Fill 19" fill-rule="evenodd" clip-rule="evenodd" d="M61.3513 16.9059C65.0323 16.9059 68.2273 14.8369 69.8413 11.7999H52.8613C54.4763 14.8369 57.6703 16.9059 61.3513 16.9059" fill="#F285B6"/></g><g id="Group 24"><path id="Fill 22" fill-rule="evenodd" clip-rule="evenodd" d="M15.5886 16.9059C19.2696 16.9059 22.4636 14.8369 24.0786 11.7999H7.09863C8.71263 14.8369 11.9076 16.9059 15.5886 16.9059" fill="#F285B6"/></g><g id="Group 27"><path id="Fill 25" fill-rule="evenodd" clip-rule="evenodd" d="M6.385 119.7C6.385 115.529 3.719 111.989 0 110.662V128.738C3.719 127.411 6.385 123.871 6.385 119.7" fill="#F285B6"/></g><path id="Fill 28" fill-rule="evenodd" clip-rule="evenodd" d="M12.3825 47.1686C12.3825 41.8646 8.07949 37.5646 2.77049 37.5646C1.80649 37.5646 0.878488 37.7096 0.000488281 37.9736V56.3646C0.878488 56.6276 1.80649 56.7736 2.77049 56.7736C8.07949 56.7736 12.3825 52.4736 12.3825 47.1686" fill="#F285B6"/></g></g></g></g></g></g><g id="Master/Worms/Poh" transform="matrix(0.975245 -0.221128 0.220875 0.975302 84.5664 311.887) scale(1.1336320135680544 1.138026839967758)"><g id="Master/Worms/Poh"><g id="Body/Poh" transform="translate(92.457 113.4) scale(1 1)"><g id="Body/Poh/Blue"><g id="Group 11"><g id="Group 3"><path id="Fill 1" fill-rule="evenodd" clip-rule="evenodd" d="M118.501 81.3973C118.501 74.8333 115.578 68.9623 110.977 64.9783C115.578 60.9943 118.501 55.1233 118.501 48.5593C118.501 36.5593 108.773 26.8313 96.772 26.8313C96.559 26.8313 96.351 26.8563 96.137 26.8633C96.537 25.2143 96.772 23.5013 96.772 21.7293C96.772 9.7283 87.045 0.000299931 75.044 0.000299931C69.078 0.000299931 63.678 2.4083 59.751 6.3003C55.824 2.4083 50.423 0.000299931 44.457 0.000299931C32.457 0.000299931 22.729 9.7283 22.729 21.7293C22.729 23.5013 22.964 25.2143 23.364 26.8633C23.151 26.8563 22.943 26.8313 22.729 26.8313C10.728 26.8313 1 36.5593 1 48.5593C1 55.1233 3.923 60.9943 8.524 64.9783C3.923 68.9623 1 74.8333 1 81.3973C1 87.9613 3.923 93.8323 8.524 97.8163C3.923 101.8 1 107.671 1 114.235C1 120.799 3.923 126.669 8.524 130.653C3.923 134.638 1 140.508 1 147.072C1 153.637 3.923 159.507 8.524 163.492C3.923 167.476 1 173.346 1 179.91C1 191.305 9.776 200.634 20.936 201.548L20.934 201.639H96.772C108.773 201.639 118.501 191.91 118.501 179.91C118.501 173.346 115.578 167.476 110.977 163.492C115.578 159.507 118.501 153.637 118.501 147.072C118.501 140.508 115.578 134.638 110.977 130.653C115.578 126.669 118.501 120.799 118.501 114.235C118.501 107.671 115.578 101.8 110.977 97.8163C115.578 93.8323 118.501 87.9613 118.501 81.3973" fill="#5473B8"/></g><g id="Group 6"><path id="Fill 4" fill-rule="evenodd" clip-rule="evenodd" d="M2.119 88.2821L2.337 88.4791C4.639 90.6791 7.574 90.6791 9.876 88.4791L10.037 88.3251C12.354 86.1101 15.312 86.1261 17.62 88.3671C19.942 90.6231 22.924 90.6231 25.247 88.3671C27.554 86.1261 30.512 86.1101 32.83 88.3241L32.98 88.4691C35.282 90.6681 38.218 90.6681 40.519 88.4691L40.701 88.2951C43.003 86.0951 45.938 86.0951 48.24 88.2951L48.359 88.4091C50.661 90.6091 53.597 90.6091 55.898 88.4091L56.142 88.1761C58.444 85.9761 61.379 85.9761 63.681 88.1761L63.801 88.2901C66.102 90.4901 69.037 90.4901 71.34 88.2901L71.396 88.2361C73.698 86.0361 76.634 86.0361 78.935 88.2361L79.072 88.3661C81.374 90.5661 84.309 90.5661 86.611 88.3661L86.706 88.2761C89.009 86.0761 91.943 86.0761 94.245 88.2761L94.351 88.3771C96.653 90.5771 99.589 90.5771 101.89 88.3771L102.147 88.1321C104.45 85.9321 107.385 85.9321 109.686 88.1321L109.896 88.3321C112.198 90.5321 115.031 90.6261 117.334 88.4271C116.073 92.0991 113.852 95.3261 110.976 97.8161C115.578 101.8 118.501 107.671 118.501 114.235C118.501 120.8 115.578 126.67 110.976 130.654C115.578 134.638 118.501 140.509 118.501 147.073C118.501 153.637 115.578 159.507 110.976 163.492C115.578 167.476 118.501 173.346 118.501 179.91C118.501 191.91 108.773 201.639 96.772 201.639H20.933L20.935 201.549C9.776 200.635 1 191.305 1 179.91C1 173.346 3.923 167.476 8.524 163.492C3.923 159.507 1 153.637 1 147.073C1 140.509 3.923 134.638 8.524 130.654C3.923 126.67 1 120.8 1 114.235C1 107.671 3.923 101.8 8.524 97.8161C5.611 95.2931 3.37 92.0141 2.119 88.2821" fill="#385E9F"/></g><path id="Fill 7" fill-rule="evenodd" clip-rule="evenodd" d="M58.201 46.8197C58.201 56.5687 50.298 64.4717 40.549 64.4717C30.8 64.4717 22.896 56.5687 22.896 46.8197C22.896 37.0697 30.8 29.1677 40.549 29.1677C50.298 29.1677 58.201 37.0697 58.201 46.8197" fill="#FFCC37"/><path id="Fill 9" fill-rule="evenodd" clip-rule="evenodd" d="M96.6056 46.8197C96.6056 56.5687 88.7026 64.4717 78.9526 64.4717C69.2036 64.4717 61.2996 56.5687 61.2996 46.8197C61.2996 37.0697 69.2036 29.1677 78.9526 29.1677C88.7026 29.1677 96.6056 37.0697 96.6056 46.8197" fill="#FFCC37"/></g></g></g><g id="Eyes/Poh" transform="translate(131.918 153.017) scale(1 1)"><g id="Eyes/Poh/Open"><g id="Eyes"><path id="Fill 12" fill-rule="evenodd" clip-rule="evenodd" d="M10.7715 11.6831V11.6831C9.11548 11.6831 7.77148 10.3401 7.77148 8.6831V5.6781C7.77148 4.0211 9.11548 2.6781 10.7715 2.6781C12.4285 2.6781 13.7715 4.0211 13.7715 5.6781V8.6831C13.7715 10.3401 12.4285 11.6831 10.7715 11.6831" fill="#101335"/><path id="Fill 14" fill-rule="evenodd" clip-rule="evenodd" d="M29.7646 11.6831V11.6831C28.1086 11.6831 26.7656 10.3401 26.7656 8.6831V5.6781C26.7656 4.0211 28.1086 2.6781 29.7646 2.6781C31.4216 2.6781 32.7646 4.0211 32.7646 5.6781V8.6831C32.7646 10.3401 31.4216 11.6831 29.7646 11.6831" fill="#101335"/></g></g></g><g id="Mouth/Poh" transform="translate(131.904 166.433) scale(0.975609756097561 1)"><g id="Mouth/Poh/Teeth Out"><g id="Group 10"><g id="Group 3"><path id="Fill 1" fill-rule="evenodd" clip-rule="evenodd" d="M17.7237 12.2548H17.3377C15.8007 12.2548 14.5547 11.0078 14.5547 9.4708V5.9578H20.5067V9.4708C20.5067 11.0078 19.2607 12.2548 17.7237 12.2548" fill="#FFEFCD"/></g><g id="Group 6"><path id="Fill 4" fill-rule="evenodd" clip-rule="evenodd" d="M26.1319 12.2548H25.7469C24.2089 12.2548 22.9629 11.0078 22.9629 9.4708V5.9578H28.9159V9.4708C28.9159 11.0078 27.6699 12.2548 26.1319 12.2548" fill="#FFEFCD"/></g><g id="Group 9"><path id="Fill 7" fill-rule="evenodd" clip-rule="evenodd" d="M20.7707 7.7162C11.5567 7.7162 9.41867 4.6362 9.08367 4.0192C8.72367 3.3552 8.96967 2.5252 9.63367 2.1652C10.2777 1.8162 11.0847 2.0382 11.4587 2.6642C11.5537 2.7912 13.3027 4.9812 20.7707 4.9812C28.9177 4.9812 32.2847 2.3392 32.3177 2.3122C32.9037 1.8392 33.7607 1.9242 34.2377 2.5022C34.7137 3.0802 34.6407 3.9312 34.0667 4.4142C33.9067 4.5492 30.0297 7.7162 20.7707 7.7162" fill="#171617"/></g></g></g></g><g id="Hair/Poh" transform="translate(80.918 60.5) scale(1 1)"><g id="Hair/Poh/Blue Puff"><g id="Group 3"><path id="Fill 1" fill-rule="evenodd" clip-rule="evenodd" d="M49 48.0217C49 42.3037 52.794 39.0007 52.794 39.0007C64.94 51.0377 80.228 41.8237 92.586 41.8237C102.95 41.8237 112.475 50.8667 112.475 62.3137C112.475 68.1407 110.192 72.2767 108.478 74.5887C108.478 74.5887 106.599 70.1677 102.486 66.6387C97.378 62.2547 90.944 62.9987 89.445 71.2167C87.893 79.7277 80.718 86.3357 71.796 86.3357C61.932 86.3357 53.935 78.3387 53.935 68.4737C53.935 65.2317 54.799 62.1907 56.309 59.5697C51.547 57.1577 48.999 52.8317 49 48.0217" fill="#41AFE4"/></g></g></g><g id="Clothes/Poh" transform="translate(92.918 199) scale(1 1)"><g id="Clothes/Poh/Water Waves"><g id="Clothes"><g id="Group 33"><path id="Fill 31" fill-rule="evenodd" clip-rule="evenodd" d="M8.04207 12.2172L8.27307 12.4332C10.3191 14.3882 12.9271 14.3882 14.9721 12.4332L15.1151 12.2972C17.1741 10.3282 19.8031 10.3432 21.8531 12.3342C23.9161 14.3382 26.5641 14.3382 28.6281 12.3342C30.6781 10.3432 33.3061 10.3282 35.3651 12.2962L35.4991 12.4242C37.5441 14.3792 40.1511 14.3792 42.1971 12.4242L42.3581 12.2702C44.4031 10.3162 47.0111 10.3162 49.0561 12.2702L49.1621 12.3712C51.2071 14.3252 53.8141 14.3252 55.8601 12.3712L56.0771 12.1642C58.1221 10.2102 60.7301 10.2102 62.7741 12.1642L62.8811 12.2652C64.9261 14.2202 67.5331 14.2202 69.5781 12.2652L69.6291 12.2172C71.6751 10.2632 74.2821 10.2632 76.3271 12.2172L76.4491 12.3332C78.4941 14.2882 81.1021 14.2882 83.1461 12.3332L83.2311 12.2532C85.2761 10.2982 87.8841 10.2982 89.9291 12.2532L90.0231 12.3432C92.0681 14.2972 94.6771 14.2972 96.7221 12.3432L96.9501 12.1252C98.9951 10.1702 101.603 10.1702 103.647 12.1252L103.834 12.3022C105.879 14.2572 108.449 14.1722 110.494 12.2172C115.096 16.2012 118.019 22.0722 118.019 28.6362C118.019 35.2002 115.096 41.0712 110.494 45.0542C115.096 49.0392 118.019 54.9092 118.019 61.4732C118.019 68.0382 115.096 73.9082 110.494 77.8932C115.096 81.8772 118.019 87.7472 118.019 94.3112C118.019 106.311 108.291 116.04 96.2911 116.04H20.4511L20.4531 115.949C9.29407 115.035 0.518066 105.706 0.518066 94.3112C0.518066 87.7472 3.44107 81.8772 8.04207 77.8932C3.44107 73.9082 0.518066 68.0382 0.518066 61.4732C0.518066 54.9092 3.44107 49.0392 8.04207 45.0542C3.44107 41.0712 0.518066 35.2002 0.518066 28.6362C0.518066 22.0722 3.44107 16.2012 8.04207 12.2172" fill="#41AFE4"/></g><path id="Fill 34" fill-rule="evenodd" clip-rule="evenodd" d="M109.564 62.372C100.044 62.76 99.7556 51.401 92.2136 55.227C85.4676 58.649 81.5567 60.861 79.7227 55.898C78.4307 52.401 79.0187 49.535 75.8917 47.503C74.1647 46.38 72.0407 46.044 69.9797 45.993C62.1547 45.8 54.3337 49.585 49.6287 55.842C47.8387 58.224 46.4437 61.196 47.0347 64.118C47.8347 68.069 51.9257 70.468 55.8387 71.44C59.7517 72.413 63.9347 72.501 67.5667 74.253C71.1987 76.006 74.1247 80.323 72.4857 84.007C70.9627 87.429 66.2627 88.772 65.2157 92.369C64.3047 95.498 66.8257 98.76 69.8427 99.992C72.8607 101.224 76.2377 101.017 79.4957 101.101C80.7127 101.132 81.9977 101.229 83.0027 101.916C84.8147 103.156 84.9977 105.747 84.7167 107.924C84.3417 110.846 83.3896 113.802 81.5206 116.04H96.2906C108.292 116.04 118.019 106.311 118.019 94.311C118.019 93.213 117.931 92.136 117.773 91.082C117.439 91.121 117.109 91.157 116.765 91.202C109.573 92.143 104.732 99.724 102.367 101.049C92.5926 106.522 85.8146 86.905 105.678 85.373C108.892 85.125 112.111 84.555 115.175 83.595C113.945 81.438 112.361 79.508 110.495 77.893C115.096 73.908 118.019 68.038 118.019 61.474C118.019 60.034 117.871 58.631 117.603 57.271C115.782 60.155 112.999 62.232 109.564 62.372" fill="#CBD3D8"/><path id="Fill 36" fill-rule="evenodd" clip-rule="evenodd" d="M59.2568 10.7163C59.2148 10.7183 59.1728 10.7263 59.1308 10.7293C59.1388 10.8003 59.1418 10.8693 59.1568 10.9423L59.2568 10.7163Z" fill="#CBD3D8"/><path id="Fill 38" fill-rule="evenodd" clip-rule="evenodd" d="M103.834 12.3027L103.647 12.1247C101.603 10.1707 98.9953 10.1707 96.9503 12.1247L96.7223 12.3427C94.6773 14.2977 92.0693 14.2977 90.0233 12.3427L89.9293 12.2527C87.8843 10.2987 85.2763 10.2987 83.2313 12.2527L83.1473 12.3337C81.1023 14.2877 78.4943 14.2877 76.4483 12.3337L76.3273 12.2177C74.2823 10.2627 71.6753 10.2627 69.6293 12.2177L69.5793 12.2657C67.5333 14.2197 64.9263 14.2197 62.8813 12.2657L62.7743 12.1647C61.7173 11.1537 60.5093 10.6767 59.3053 10.7117C58.6133 14.1357 57.9443 17.6647 58.6303 21.0877C59.3273 24.5717 61.7953 27.9537 65.2903 28.5947C70.1573 29.4877 74.1603 25.1257 78.0093 22.0157C81.6693 19.0587 86.4563 16.9207 91.0293 18.0277C95.6033 19.1347 99.1333 24.5877 96.9393 28.7497C96.1793 30.1937 94.8763 31.2947 94.1103 32.7357C91.9253 36.8537 96.1303 42.6507 100.724 41.8507C104.083 41.2657 106.399 38.1237 109.567 36.8597C112.167 35.8217 114.286 36.4147 115.924 37.9287C117.265 35.1127 118.019 31.9647 118.019 28.6357C118.019 22.6337 115.569 17.2147 111.632 13.2837C110.966 13.3047 110.292 13.1547 109.646 12.8957C107.77 14.1527 105.605 13.9947 103.834 12.3027" fill="#CBD3D8"/><path id="Fill 40" fill-rule="evenodd" clip-rule="evenodd" d="M50.4836 87.3056C45.6906 80.7196 35.0186 79.5336 28.8956 84.9066C27.0896 86.4906 25.6926 88.4986 23.8766 90.0706C21.7766 91.8866 19.0206 93.0906 16.2576 92.8266C13.4946 92.5626 10.8296 90.6016 10.2366 87.8896C8.66758 80.7126 20.6516 76.8496 20.7216 69.5026C20.7576 65.6626 17.4136 62.6756 14.0746 60.7776C10.7366 58.8796 6.94158 57.3496 4.77158 54.1816C4.13358 53.2516 3.65358 52.2166 3.08358 51.2456C1.44858 54.2926 0.517578 57.7726 0.517578 61.4736C0.517578 68.0376 3.44058 73.9086 8.04258 77.8926C3.44058 81.8766 0.517578 87.7466 0.517578 94.3106C0.517578 105.707 9.29458 115.036 20.4546 115.95L20.4516 116.04H22.4826C28.4926 111.107 38.9946 112.846 46.1306 108.587C53.1266 104.412 55.2776 93.8916 50.4836 87.3056" fill="#CBD3D8"/><path id="Fill 42" fill-rule="evenodd" clip-rule="evenodd" d="M10.2619 15.4428C13.4809 22.0468 2.74689 28.6298 4.41389 35.7858C5.28489 39.5258 9.24089 41.6388 12.9329 42.6948C16.6239 43.7518 20.6729 44.3418 23.5309 46.9078C24.8019 48.0508 25.7639 49.5328 27.1629 50.5148C31.2739 53.3978 38.0179 49.4188 37.4829 44.4278C37.3849 43.5228 37.1009 42.6238 37.2119 41.7208C37.5069 39.3398 40.2739 38.1588 42.6579 37.8928C45.0409 37.6268 47.6949 37.7138 49.5049 36.1408C52.3659 33.6548 50.9709 28.6468 47.9759 26.3248C44.9809 24.0018 41.0439 23.4128 37.4619 22.1738C33.8809 20.9348 30.1749 18.4548 29.7049 14.6938C29.5599 13.5288 29.7409 12.4008 30.0989 11.2988C29.5889 11.5468 29.0929 11.8828 28.6279 12.3338C26.5649 14.3388 23.9159 14.3388 21.8529 12.3338C19.8029 10.3428 17.1749 10.3288 15.1159 12.2968L14.9719 12.4338C12.9269 14.3878 10.3199 14.3878 8.27489 12.4338L8.04189 12.2168C7.84489 12.3888 7.65489 12.5678 7.46289 12.7458C8.65989 13.3318 9.67689 14.2418 10.2619 15.4428" fill="#CBD3D8"/><path id="Fill 44" fill-rule="evenodd" clip-rule="evenodd" d="M60.4776 10.9272C60.4776 10.9272 51.6526 1.4242 39.3666 0.3862C39.3666 0.3862 36.4246 10.5952 39.3666 21.4972C39.3666 21.4972 51.4796 19.3912 60.4776 10.9272" fill="#FFCC37"/><path id="Fill 46" fill-rule="evenodd" clip-rule="evenodd" d="M58.0586 10.9272C58.0586 10.9272 66.8836 1.4242 79.1706 0.3862C79.1706 0.3862 82.1126 10.5952 79.1706 21.4972C79.1706 21.4972 67.0576 19.3912 58.0586 10.9272" fill="#FFCC37"/></g></g></g></g></g><path id="Fill 7_2" fill-rule="evenodd" clip-rule="evenodd" d="M965.158 477.422C962.169 472.855 956.99 471.234 951.794 472.352C940.604 474.761 934.541 487.408 935.574 498.105C936.081 503.36 937.693 508.498 938.085 513.747C935.95 513.08 933.923 512.011 931.962 510.949C928.683 509.174 925.398 507.281 921.803 506.227C918.074 505.136 913.644 504.914 910.341 507.304C907.198 509.579 905.992 513.331 906.363 517.123C906.713 520.686 907.911 524.012 908.814 527.449C909.622 530.525 909.647 533.697 908.88 536.786C907.387 542.8 903.16 548.256 897.229 550.275C890.356 552.612 882.45 550.898 877.315 545.678C874.289 542.604 869.579 547.362 872.607 550.436C877.879 555.795 885.591 558.62 893.049 557.946C900.64 557.259 907.211 553.397 911.536 547.051C915.686 540.963 917.135 533.043 915.293 525.885C914.446 522.595 912.952 519.223 912.949 515.778C912.948 514.766 913.078 513.875 913.719 513.183C914.748 512.074 916.456 512.035 917.849 512.21C921.89 512.719 925.532 515.113 929.048 517.001C932.972 519.11 936.967 520.858 941.457 521.134C943.348 521.249 944.66 519.493 944.786 517.769C945.239 511.578 943.325 505.649 942.42 499.596C941.619 494.245 942.345 489.036 945.47 484.548C947.884 481.083 952.535 477.61 956.959 478.971C958.254 479.37 959.452 480.555 959.981 481.803C960.6 483.263 960.586 484.6 959.884 485.428C958.715 486.807 958.543 488.833 959.884 490.185C961.08 491.396 963.417 491.573 964.592 490.185C967.678 486.546 967.763 481.402 965.158 477.422" fill="#E0BFDB"/><path id="Fill 25" fill-rule="evenodd" clip-rule="evenodd" d="M179.947 497.395C176.189 492.874 168.808 492.084 164.106 495.596C161.884 497.255 160.584 500.121 158.21 501.511C156.572 502.469 154.248 502.265 152.701 501.049C151.083 499.778 150.545 497.227 149.7 495.471C148.509 492.99 146.471 490.839 143.644 490.261C140.307 489.581 137.12 491.189 134.831 493.492C132.744 495.592 131.63 498.253 129.87 500.571C128.622 502.213 127.013 503.463 125.119 501.954C122.38 499.768 123.026 495.377 123.306 492.372C123.47 490.601 121.649 489.082 119.957 489.082C118.008 489.082 116.773 490.595 116.609 492.372C116.265 496.067 116.211 499.843 117.872 503.271C119.202 506.019 121.881 508.388 124.946 509.047C128.185 509.743 131.339 508.563 133.653 506.307C135.825 504.189 136.906 501.409 138.736 499.066C139.808 497.691 141.879 495.669 143.185 497.41C144.405 499.037 144.925 501.683 146.175 503.566C149.496 508.582 157.036 510.361 162.141 506.84C163.675 505.782 164.816 504.44 165.996 503.032C166.831 502.036 167.708 500.863 168.947 500.333C171.188 499.376 173.683 500.208 175.211 502.046C176.356 503.424 178.759 503.215 179.947 502.046C181.334 500.686 181.095 498.775 179.947 497.395" fill="#00AFA9"/><g id="Group 102"><g id="Ellipse 1"><path d="M986.951 581.488C986.951 618.695 956.807 648.857 919.623 648.857C882.439 648.857 852.295 618.695 852.295 581.488C852.295 544.282 882.439 514.12 919.623 514.12C956.807 514.12 986.951 544.282 986.951 581.488Z" fill="#32D3CE"/><path d="M986.951 581.488C986.951 618.695 956.807 648.857 919.623 648.857C882.439 648.857 852.295 618.695 852.295 581.488C852.295 544.282 882.439 514.12 919.623 514.12C956.807 514.12 986.951 544.282 986.951 581.488Z" fill="#32D3CE"/><path d="M986.951 581.488C986.951 618.695 956.807 648.857 919.623 648.857C882.439 648.857 852.295 618.695 852.295 581.488C852.295 544.282 882.439 514.12 919.623 514.12C956.807 514.12 986.951 544.282 986.951 581.488Z" fill="#32D3CE"/><path d="M986.951 581.488C986.951 618.695 956.807 648.857 919.623 648.857C882.439 648.857 852.295 618.695 852.295 581.488C852.295 544.282 882.439 514.12 919.623 514.12C956.807 514.12 986.951 544.282 986.951 581.488Z" fill="#32D3CE"/><path d="M986.951 581.488C986.951 618.695 956.807 648.857 919.623 648.857C882.439 648.857 852.295 618.695 852.295 581.488C852.295 544.282 882.439 514.12 919.623 514.12C956.807 514.12 986.951 544.282 986.951 581.488Z" fill="#32D3CE"/><path d="M986.951 581.488C986.951 618.695 956.807 648.857 919.623 648.857C882.439 648.857 852.295 618.695 852.295 581.488C852.295 544.282 882.439 514.12 919.623 514.12C956.807 514.12 986.951 544.282 986.951 581.488Z" fill="#32D3CE"/><path d="M986.951 581.488C986.951 618.695 956.807 648.857 919.623 648.857C882.439 648.857 852.295 618.695 852.295 581.488C852.295 544.282 882.439 514.12 919.623 514.12C956.807 514.12 986.951 544.282 986.951 581.488Z" fill="#32D3CE"/><path d="M986.951 581.488C986.951 618.695 956.807 648.857 919.623 648.857C882.439 648.857 852.295 618.695 852.295 581.488C852.295 544.282 882.439 514.12 919.623 514.12C956.807 514.12 986.951 544.282 986.951 581.488Z" fill="#32D3CE"/><path d="M986.951 581.488C986.951 618.695 956.807 648.857 919.623 648.857C882.439 648.857 852.295 618.695 852.295 581.488C852.295 544.282 882.439 514.12 919.623 514.12C956.807 514.12 986.951 544.282 986.951 581.488Z" fill="#32D3CE"/></g><g id="Ellipse 3"><path d="M752.707 615.172C752.707 633.775 737.635 648.856 719.043 648.856C700.451 648.856 685.379 633.775 685.379 615.172C685.379 596.569 700.451 581.488 719.043 581.488C737.635 581.488 752.707 596.569 752.707 615.172Z" fill="#32D3CE"/><path d="M752.707 615.172C752.707 633.775 737.635 648.856 719.043 648.856C700.451 648.856 685.379 633.775 685.379 615.172C685.379 596.569 700.451 581.488 719.043 581.488C737.635 581.488 752.707 596.569 752.707 615.172Z" fill="#32D3CE"/><path d="M752.707 615.172C752.707 633.775 737.635 648.856 719.043 648.856C700.451 648.856 685.379 633.775 685.379 615.172C685.379 596.569 700.451 581.488 719.043 581.488C737.635 581.488 752.707 596.569 752.707 615.172Z" fill="#32D3CE"/><path d="M752.707 615.172C752.707 633.775 737.635 648.856 719.043 648.856C700.451 648.856 685.379 633.775 685.379 615.172C685.379 596.569 700.451 581.488 719.043 581.488C737.635 581.488 752.707 596.569 752.707 615.172Z" fill="#32D3CE"/><path d="M752.707 615.172C752.707 633.775 737.635 648.856 719.043 648.856C700.451 648.856 685.379 633.775 685.379 615.172C685.379 596.569 700.451 581.488 719.043 581.488C737.635 581.488 752.707 596.569 752.707 615.172Z" fill="#32D3CE"/><path d="M752.707 615.172C752.707 633.775 737.635 648.856 719.043 648.856C700.451 648.856 685.379 633.775 685.379 615.172C685.379 596.569 700.451 581.488 719.043 581.488C737.635 581.488 752.707 596.569 752.707 615.172Z" fill="#32D3CE"/><path d="M752.707 615.172C752.707 633.775 737.635 648.856 719.043 648.856C700.451 648.856 685.379 633.775 685.379 615.172C685.379 596.569 700.451 581.488 719.043 581.488C737.635 581.488 752.707 596.569 752.707 615.172Z" fill="#32D3CE"/><path d="M752.707 615.172C752.707 633.775 737.635 648.856 719.043 648.856C700.451 648.856 685.379 633.775 685.379 615.172C685.379 596.569 700.451 581.488 719.043 581.488C737.635 581.488 752.707 596.569 752.707 615.172Z" fill="#32D3CE"/><path d="M752.707 615.172C752.707 633.775 737.635 648.856 719.043 648.856C700.451 648.856 685.379 633.775 685.379 615.172C685.379 596.569 700.451 581.488 719.043 581.488C737.635 581.488 752.707 596.569 752.707 615.172Z" fill="#32D3CE"/></g><path id="Rectangle 1" d="M713.535 620.648C713.535 603.926 727.091 590.37 743.813 590.37H967.17V610.563C967.17 631.466 950.225 648.411 929.323 648.411H718.077C715.569 648.411 713.535 646.377 713.535 643.869V620.648Z" fill="#32D3CE"/><path id="Fill 52" fill-rule="evenodd" clip-rule="evenodd" d="M702.967 627.549H668.51C654.429 627.549 643.016 616.098 643.016 601.976V592.842H677.471C691.553 592.842 702.967 604.294 702.967 618.417V627.549Z" fill="#00AFA9"/><path id="Fill 20" fill-rule="evenodd" clip-rule="evenodd" d="M903.059 619.979H926.994C936.776 619.979 944.704 612.025 944.704 602.215V595.87H920.769C910.988 595.87 903.059 603.825 903.059 613.636V619.979Z" fill="#00AFA9"/></g><g id="Group 103"><g id="Ellipse 1_2"><path d="M140.299 581.488C140.299 618.695 170.443 648.857 207.627 648.857C244.811 648.857 274.955 618.695 274.955 581.488C274.955 544.282 244.811 514.12 207.627 514.12C170.443 514.12 140.299 544.282 140.299 581.488Z" fill="#32D3CE"/><path d="M140.299 581.488C140.299 618.695 170.443 648.857 207.627 648.857C244.811 648.857 274.955 618.695 274.955 581.488C274.955 544.282 244.811 514.12 207.627 514.12C170.443 514.12 140.299 544.282 140.299 581.488Z" fill="#32D3CE"/><path d="M140.299 581.488C140.299 618.695 170.443 648.857 207.627 648.857C244.811 648.857 274.955 618.695 274.955 581.488C274.955 544.282 244.811 514.12 207.627 514.12C170.443 514.12 140.299 544.282 140.299 581.488Z" fill="#32D3CE"/><path d="M140.299 581.488C140.299 618.695 170.443 648.857 207.627 648.857C244.811 648.857 274.955 618.695 274.955 581.488C274.955 544.282 244.811 514.12 207.627 514.12C170.443 514.12 140.299 544.282 140.299 581.488Z" fill="#32D3CE"/><path d="M140.299 581.488C140.299 618.695 170.443 648.857 207.627 648.857C244.811 648.857 274.955 618.695 274.955 581.488C274.955 544.282 244.811 514.12 207.627 514.12C170.443 514.12 140.299 544.282 140.299 581.488Z" fill="#32D3CE"/><path d="M140.299 581.488C140.299 618.695 170.443 648.857 207.627 648.857C244.811 648.857 274.955 618.695 274.955 581.488C274.955 544.282 244.811 514.12 207.627 514.12C170.443 514.12 140.299 544.282 140.299 581.488Z" fill="#32D3CE"/><path d="M140.299 581.488C140.299 618.695 170.443 648.857 207.627 648.857C244.811 648.857 274.955 618.695 274.955 581.488C274.955 544.282 244.811 514.12 207.627 514.12C170.443 514.12 140.299 544.282 140.299 581.488Z" fill="#32D3CE"/><path d="M140.299 581.488C140.299 618.695 170.443 648.857 207.627 648.857C244.811 648.857 274.955 618.695 274.955 581.488C274.955 544.282 244.811 514.12 207.627 514.12C170.443 514.12 140.299 544.282 140.299 581.488Z" fill="#32D3CE"/><path d="M140.299 581.488C140.299 618.695 170.443 648.857 207.627 648.857C244.811 648.857 274.955 618.695 274.955 581.488C274.955 544.282 244.811 514.12 207.627 514.12C170.443 514.12 140.299 544.282 140.299 581.488Z" fill="#32D3CE"/></g><g id="Ellipse 3_2"><path d="M374.543 615.172C374.543 633.775 389.615 648.856 408.207 648.856C426.799 648.856 441.871 633.775 441.871 615.172C441.871 596.569 426.799 581.488 408.207 581.488C389.615 581.488 374.543 596.569 374.543 615.172Z" fill="#32D3CE"/><path d="M374.543 615.172C374.543 633.775 389.615 648.856 408.207 648.856C426.799 648.856 441.871 633.775 441.871 615.172C441.871 596.569 426.799 581.488 408.207 581.488C389.615 581.488 374.543 596.569 374.543 615.172Z" fill="#32D3CE"/><path d="M374.543 615.172C374.543 633.775 389.615 648.856 408.207 648.856C426.799 648.856 441.871 633.775 441.871 615.172C441.871 596.569 426.799 581.488 408.207 581.488C389.615 581.488 374.543 596.569 374.543 615.172Z" fill="#32D3CE"/><path d="M374.543 615.172C374.543 633.775 389.615 648.856 408.207 648.856C426.799 648.856 441.871 633.775 441.871 615.172C441.871 596.569 426.799 581.488 408.207 581.488C389.615 581.488 374.543 596.569 374.543 615.172Z" fill="#32D3CE"/><path d="M374.543 615.172C374.543 633.775 389.615 648.856 408.207 648.856C426.799 648.856 441.871 633.775 441.871 615.172C441.871 596.569 426.799 581.488 408.207 581.488C389.615 581.488 374.543 596.569 374.543 615.172Z" fill="#32D3CE"/><path d="M374.543 615.172C374.543 633.775 389.615 648.856 408.207 648.856C426.799 648.856 441.871 633.775 441.871 615.172C441.871 596.569 426.799 581.488 408.207 581.488C389.615 581.488 374.543 596.569 374.543 615.172Z" fill="#32D3CE"/><path d="M374.543 615.172C374.543 633.775 389.615 648.856 408.207 648.856C426.799 648.856 441.871 633.775 441.871 615.172C441.871 596.569 426.799 581.488 408.207 581.488C389.615 581.488 374.543 596.569 374.543 615.172Z" fill="#32D3CE"/><path d="M374.543 615.172C374.543 633.775 389.615 648.856 408.207 648.856C426.799 648.856 441.871 633.775 441.871 615.172C441.871 596.569 426.799 581.488 408.207 581.488C389.615 581.488 374.543 596.569 374.543 615.172Z" fill="#32D3CE"/><path d="M374.543 615.172C374.543 633.775 389.615 648.856 408.207 648.856C426.799 648.856 441.871 633.775 441.871 615.172C441.871 596.569 426.799 581.488 408.207 581.488C389.615 581.488 374.543 596.569 374.543 615.172Z" fill="#32D3CE"/></g><path id="Rectangle 1_2" d="M413.715 620.648C413.715 603.926 400.159 590.37 383.437 590.37H160.08V610.563C160.08 631.466 177.025 648.411 197.927 648.411H409.173C411.681 648.411 413.715 646.377 413.715 643.869V620.648Z" fill="#32D3CE"/><path id="Fill 52_2" fill-rule="evenodd" clip-rule="evenodd" d="M424.283 627.549H458.74C472.821 627.549 484.234 616.098 484.234 601.976V592.842H449.779C435.697 592.842 424.283 604.294 424.283 618.417V627.549Z" fill="#00AFA9"/><path id="Fill 20_2" fill-rule="evenodd" clip-rule="evenodd" d="M224.191 619.979H200.256C190.474 619.979 182.546 612.025 182.546 602.215V595.87H206.481C216.262 595.87 224.191 603.825 224.191 613.636V619.979Z" fill="#00AFA9"/></g></g></g></svg>