<svg viewBox="280.0875000000001 105.23722627737232 506.8249999999999 439.59854014598545" fill="none" xmlns="http://www.w3.org/2000/svg" xmlns:xlink="http://www.w3.org/1999/xlink" overflow="visible" width="506.8249999999999px" height="439.59854014598545px"><g id="Master/Stickers/Rainbow"><g id="Group 16"><g id="Group 3"><path id="Fill 1" fill-rule="evenodd" clip-rule="evenodd" d="M300.459 348.359C300.459 286.026 324.718 227.424 368.767 183.349C412.817 139.273 471.383 115 533.68 115C595.974 115 654.54 139.273 698.59 183.349C742.638 227.424 766.898 286.026 766.898 348.359V545.145H775.892V348.359C775.892 283.623 750.697 222.76 704.95 176.985C659.202 131.21 598.377 106 533.68 106C468.981 106 408.156 131.21 362.407 176.985C316.659 222.76 291.465 283.623 291.465 348.359V545.145H300.459V348.359Z" fill="#775CA6"/></g><g id="Group 6"><path id="Fill 4" fill-rule="evenodd" clip-rule="evenodd" d="M533.679 159.395C638.728 159.395 724.191 244.911 724.191 350.023V545.145H733.185V350.023C733.185 239.948 643.688 150.395 533.679 150.395C423.669 150.395 334.17 239.948 334.17 350.023V545.145H343.165V350.023C343.165 244.911 428.629 159.395 533.679 159.395" fill="#41AFE4"/></g><g id="Group 9"><path id="Fill 7" fill-rule="evenodd" clip-rule="evenodd" d="M533.678 195.006C448.252 195.006 378.754 264.546 378.754 350.023V545.145H387.749V350.023C387.749 269.509 453.212 204.006 533.678 204.006C614.144 204.006 679.606 269.509 679.606 350.023V545.145H688.601V350.023C688.601 264.546 619.103 195.006 533.678 195.006" fill="#00AFA9"/></g><g id="Group 12"><path id="Fill 10" fill-rule="evenodd" clip-rule="evenodd" d="M533.679 238.647C472.303 238.647 422.371 288.61 422.371 350.022V545.144H431.366V350.022C431.366 293.572 477.263 247.647 533.679 247.647C590.095 247.647 635.993 293.572 635.993 350.022V545.144H644.988V350.022C644.988 288.61 595.054 238.647 533.679 238.647" fill="#F1758E"/></g><g id="Group 15"><path id="Fill 13" fill-rule="evenodd" clip-rule="evenodd" d="M533.678 282.586C496.515 282.586 466.281 312.838 466.281 350.023V545.145H475.276V350.023C475.276 317.801 501.475 291.586 533.678 291.586C565.88 291.586 592.08 317.801 592.08 350.023V545.145H601.074V350.023C601.074 312.838 570.841 282.586 533.678 282.586" fill="#FFCC37"/></g></g></g></svg>