<svg viewBox="66.625 105.23722627737232 919.425 612.7737226277372" fill="none" xmlns="http://www.w3.org/2000/svg" xmlns:xlink="http://www.w3.org/1999/xlink" overflow="visible" width="919.425px" height="612.7737226277372px"><g id="Master/Spot Illustration/Video Call"><g id="Background" transform="translate(72 69) scale(1.3319444444444444 1.3216216216216217)"><g id="Background/Party"><g id="Group 9"><g id="Group 3"><path id="Fill 1" fill-rule="evenodd" clip-rule="evenodd" d="M172.115 108.862C172.226 98.9372 172.266 88.6522 168.217 79.5912C164.168 70.5282 154.809 63.0332 144.986 64.4532C133.874 66.0602 127.128 77.8132 124.968 88.8322C122.265 102.614 124.157 117.257 130.275 129.899C117.498 125.36 105.382 118.961 92.3079 115.364C79.2349 111.767 64.5029 111.278 52.8239 118.169C41.1459 125.058 34.2789 140.972 40.6879 152.922C44.6769 160.362 52.5739 164.747 60.2219 168.324C78.0879 176.68 96.9609 182.883 116.301 186.756C87.1069 187.737 58.9349 204.612 44.2929 229.887C39.0069 239.013 35.4609 250.54 40.2659 259.929C44.4829 268.169 53.9339 272.309 62.9959 274.192C88.9489 279.584 115.604 271.59 140.902 263.679C122.953 277.494 119.972 306.431 133.646 324.488C147.319 342.544 174.666 347.876 194.832 337.564C214.998 327.254 226.631 303.176 223.705 280.716C239.64 297.851 262.038 310.356 285.414 309.3C308.789 308.245 331.918 290.87 334.709 267.637C335.435 261.6 334.774 255.243 331.819 249.927C326.277 239.956 314.321 235.814 303.409 232.485C292.713 229.222 282.018 225.96 271.322 222.697C300.479 220.947 328.631 206.325 346.83 183.476C355.57 172.505 362.196 159.258 362.545 145.236C362.893 131.213 355.944 116.514 343.359 110.318C331.719 104.588 317.84 106.819 305.294 110.123C285.018 115.462 265.396 123.277 247.003 133.341C262.8 117.239 277.055 99.6252 289.511 80.8182C294.624 73.0972 299.613 64.5152 299.086 55.2702C298.376 42.8002 287.213 32.7162 275.025 29.9882C262.836 27.2592 250.054 30.5362 238.598 35.5122C208.433 48.6192 183.847 74.0562 171.777 104.65" fill="#D7EFF6"/></g><g id="Group 8"><path id="Fill 6" fill-rule="evenodd" clip-rule="evenodd" d="M651.303 122.67C655.572 120.602 661.743 121.857 664.3 126.041C665.397 127.837 665.894 130.033 665.331 131.981C664.713 134.115 662.706 135.012 660.602 135.469C658.018 136.031 655.311 136.049 652.795 136.917C650.108 137.843 647.852 139.558 646.695 142.207C644.046 148.273 647.778 154.781 653.872 156.661C656.856 157.581 659.811 157.043 662.799 156.471C664.839 156.079 668.031 155.407 669.015 157.821C669.76 159.649 668.876 161.776 667.242 162.949C664.962 164.587 662.416 164.36 659.779 164.673C656.271 165.088 653.859 167.21 652.389 170.367C651.299 172.71 650.694 175.274 650.743 177.866C650.838 182.918 653.568 188.004 658.843 189.101C662.369 189.834 665.711 188.633 669.202 188.368C672.044 188.151 674.412 189.034 675.823 191.614C676.918 193.614 676.857 196.012 675.382 197.806C673.798 199.733 671.188 200.612 668.852 199.952C665.75 199.075 664.426 203.898 667.523 204.774C673.384 206.43 680.286 202.567 681.393 196.427C682.52 190.175 677.894 184.083 671.627 183.396C668.318 183.032 665.153 184.254 661.876 184.36C660.53 184.404 659.355 184.22 658.32 183.577C657.574 183.114 657.103 182.546 656.626 181.66C655.753 180.041 655.552 177.677 655.87 175.788C656.209 173.776 657.109 170.594 659.282 169.824C660.665 169.335 662.296 169.565 663.737 169.388C665.525 169.167 667.239 168.684 668.834 167.83C671.562 166.372 673.665 163.798 674.125 160.701C674.589 157.573 673.527 154.283 670.827 152.464C667.885 150.482 664.326 151.1 661.068 151.728C658.319 152.257 655.633 152.571 653.211 150.856C651.267 149.479 650.334 147.086 651.041 144.783C651.793 142.333 654.134 141.584 656.426 141.158C659.249 140.634 662.114 140.528 664.78 139.361C671.361 136.478 672.005 128.043 668.056 122.693C663.668 116.749 655.282 115.201 648.779 118.353C647.564 118.941 647.239 120.673 647.882 121.774C648.608 123.014 650.084 123.261 651.303 122.67" fill="#F0D3E6"/></g></g></g></g><g id="Environment"><g id="Group 27"><g id="Group 12"><g id="Group 3"><path id="Fill 1" fill-rule="evenodd" clip-rule="evenodd" d="M388.885 111.887H649.325C671.403 111.887 689.3 129.62 689.3 151.495V666.393C689.3 688.266 671.403 706 649.325 706H388.885C366.807 706 348.91 688.266 348.91 666.393V151.495C348.91 129.62 366.807 111.887 388.885 111.887" fill="#E0BFDB"/></g><path id="Fill 4" fill-rule="evenodd" clip-rule="evenodd" d="M692.821 267.393H689.299V203.88H692.821C695.764 203.88 698.151 206.245 698.151 209.161V262.112C698.151 265.029 695.764 267.393 692.821 267.393" fill="#E0BFDB"/><path id="Fill 6" fill-rule="evenodd" clip-rule="evenodd" d="M348.91 241.385H345.389C342.445 241.385 340.059 239.021 340.059 236.104V193.064C340.059 190.148 342.445 187.783 345.389 187.783H348.91V241.385Z" fill="#E0BFDB"/><path id="Fill 8" fill-rule="evenodd" clip-rule="evenodd" d="M348.91 305.131H345.389C342.445 305.131 340.059 302.766 340.059 299.85V256.81C340.059 253.893 342.445 251.529 345.389 251.529H348.91V305.131Z" fill="#E0BFDB"/><path id="Fill 10" fill-rule="evenodd" clip-rule="evenodd" d="M647.051 125.91H595.706C591.555 125.91 588.191 129.244 588.191 133.356V137.753C588.191 141.865 584.826 145.199 580.675 145.199H470.627C466.476 145.199 463.111 141.865 463.111 137.753V133.356C463.111 129.244 459.747 125.91 455.596 125.91H391.158C376.439 125.91 364.508 137.732 364.508 152.315V665.403C364.508 679.985 376.439 691.808 391.158 691.808H647.051C661.769 691.808 673.701 679.985 673.701 665.403V152.315C673.701 137.732 661.769 125.91 647.051 125.91" fill="#5473B8"/></g><g id="Group 15"><path id="Fill 13" fill-rule="evenodd" clip-rule="evenodd" d="M624.94 125.91C628.146 138.172 628.385 148.571 621.022 152.539V152.539C612.114 157.34 599.978 151.623 587.085 141.645V141.645C585.763 143.777 583.387 145.2 580.677 145.2V145.2H470.627C466.477 145.2 463.113 141.865 463.113 137.753V137.753V133.356C463.113 129.244 459.748 125.91 455.598 125.91V125.91H452.949C452.838 126.398 452.746 126.909 452.671 127.447V127.447C450.948 139.905 461.795 154.029 468.591 164.649V164.649C477.946 179.264 487.224 193.398 494.589 209.923V209.923C498.755 219.269 499.288 231.155 493.173 239.38V239.38C487.47 247.051 476.416 249.319 467.094 246.982V246.982C457.773 244.643 449.897 238.544 442.887 232.024V232.024C422.172 212.759 406.403 188.585 384.663 170.462V170.462C378.582 165.392 371.753 160.85 364.508 157.204V157.204V293.466C365.019 294.069 365.533 294.672 366.044 295.274V295.274C365.883 295.408 365.714 295.534 365.552 295.672V295.672C374.188 305.394 382.824 315.116 391.46 324.837V324.837C398.985 333.498 406.54 342.133 414.151 350.718V350.718C416.728 354.053 418.976 357.591 420.345 361.548V361.548C422.687 368.317 421.88 376.674 416.482 381.428V381.428C413.589 383.975 409.71 385.219 405.854 385.552V385.552C390.404 386.888 377.51 375.178 364.508 366.702V366.702V436.999C378.464 451.344 392.422 465.689 406.379 480.034V480.034C417.495 491.459 428.609 502.882 439.725 514.308V514.308C446.359 521.128 453.244 528.378 455.641 537.548V537.548C458.037 546.719 454.068 558.257 444.89 560.902V560.902C436.396 563.35 427.972 557.622 420.619 552.755V552.755C403.797 541.616 384.944 533.498 365.25 528.907V528.907C365.005 528.85 364.757 528.793 364.508 528.739V528.739V572.239C370.843 582.13 379.131 591.239 387.212 599.731V599.731C406.672 620.175 426.957 640.855 452.597 652.869V652.869C469.193 660.646 487.514 664.48 505.854 665.311V665.311C523.227 666.102 541.127 664.12 556.657 656.364V656.364C587.863 640.781 603.58 604.112 602.784 569.303V569.303C620.769 587.038 641.768 601.902 665.955 608.97V608.97C668.45 609.698 671.051 610.302 673.702 610.752V610.752V483.509C646.092 445.84 612.465 410.673 591.792 368.935V368.935C587.002 359.265 583.675 345.865 592.176 339.153V339.153C597.338 335.078 605.048 335.628 610.856 338.73V338.73C616.665 341.834 621.005 347.015 625.191 352.069V352.069C640.027 369.981 654.865 387.894 669.702 405.804V405.804C670.942 407.301 672.281 408.822 673.702 410.305V410.305V319.881C671.825 317.751 669.918 315.659 667.99 313.603V313.603C646.529 290.717 621.832 270.674 603.024 245.601V245.601C595.518 235.6 589.822 219.629 599.982 212.283V212.283C605.367 208.39 613.296 209.018 618.867 212.646V212.646C634.379 222.745 658.693 253.013 673.702 264.796V264.796V152.316C673.702 137.731 661.77 125.91 647.051 125.91V125.91H624.94Z" fill="url(#paint0_linear_201_1538742c626df-73fc-4ada-8886-e532d2a66c65)"/></g><g id="Group 18"><path id="Fill 16" fill-rule="evenodd" clip-rule="evenodd" d="M363.684 297.449C364.277 296.818 364.905 296.232 365.552 295.672C365.189 295.265 364.827 294.857 364.466 294.449L363.684 297.449Z" fill="#41AFE4"/></g><g id="Group 26"><path id="Fill 19" fill-rule="evenodd" clip-rule="evenodd" d="M364.508 515.718H673.701V665.403C673.701 679.985 661.769 691.808 647.051 691.808H391.158C376.439 691.808 364.508 679.985 364.508 665.403V515.718Z" fill="#F06647"/><g id="Group 23"><path id="Fill 21" fill-rule="evenodd" clip-rule="evenodd" d="M839.652 295.882C790.697 262.34 723.569 274.47 689.715 322.975C671.495 349.082 666.635 380.406 673.659 408.997L654.051 425.654L679.58 426.431C687.319 444.042 699.942 459.804 717.059 471.532C766.014 505.075 833.143 492.945 866.996 444.441C900.848 395.936 888.607 329.425 839.652 295.882" fill="#E9BE50"/></g><path id="Fill 24" fill-rule="evenodd" clip-rule="evenodd" d="M687.75 383.708C687.75 433.287 728.315 473.479 778.356 473.479C828.395 473.479 868.961 433.287 868.961 383.708C868.961 334.128 828.395 293.935 778.356 293.935C728.315 293.935 687.75 334.128 687.75 383.708" fill="#FFCC37"/></g></g></g><g id="Dialogue Box 1" transform="translate(41 140) scale(1.3349282296650717 1.3282442748091603)"><g id="Dialogue Box 1/Yellow Rectangle"><g id="Group 3"><path id="Fill 1" fill-rule="evenodd" clip-rule="evenodd" d="M21 19.9997V90.3397C21 93.1007 23.239 95.3397 26 95.3397H130.037L153.656 115.466V95.3397H181.312C184.073 95.3397 186.312 93.1007 186.312 90.3397V19.9997C186.312 17.2387 184.073 14.9997 181.312 14.9997H26C23.239 14.9997 21 17.2387 21 19.9997" fill="#FFCC37"/></g></g></g><g id="Master/Worms/Mol" transform="translate(320 99) scale(1.3289036544850499 1.3238095238095238)"><g id="Master/Worms/Mol"><g id="Body/Mol" transform="translate(99.918 45.84) scale(1 1)"><g id="Body/Mol/Lavender"><g id="Group 11"><g id="Group 3"><path id="Fill 1" fill-rule="evenodd" clip-rule="evenodd" d="M7.22485 70.6674V268.041H96.5609V70.6674C96.5609 45.9984 76.5629 25.9994 51.8929 25.9994C27.2239 25.9994 7.22485 45.9984 7.22485 70.6674Z" fill="#E0BFDB"/></g><g id="Group 6"><path id="Fill 4" fill-rule="evenodd" clip-rule="evenodd" d="M49.7118 71.0883C49.7118 84.8163 38.5838 95.9443 24.8558 95.9443C11.1288 95.9443 -0.000244141 84.8163 -0.000244141 71.0883C-0.000244141 57.3603 11.1288 46.2333 24.8558 46.2333C38.5838 46.2333 49.7118 57.3603 49.7118 71.0883" fill="#00AFA9"/></g><path id="Fill 7" fill-rule="evenodd" clip-rule="evenodd" d="M103.786 71.0883C103.786 84.8163 92.658 95.9443 78.931 95.9443C65.203 95.9443 54.075 84.8163 54.075 71.0883C54.075 57.3603 65.203 46.2333 78.931 46.2333C92.658 46.2333 103.786 57.3603 103.786 71.0883" fill="#00AFA9"/><path id="Fill 9" fill-rule="evenodd" clip-rule="evenodd" d="M7.2251 268.042H96.4911V123.015H7.2251V268.042Z" fill="#C591C1"/></g></g></g><g id="Eyes/Mol" transform="translate(127.918 109.84) scale(1 1)"><g id="Eyes/Mol/Open"><g id="Eyes"><path id="Fill 10" fill-rule="evenodd" clip-rule="evenodd" d="M14.6333 12.3554V12.3554C12.8273 12.3554 11.3643 10.8914 11.3643 9.08642V5.81142C11.3643 4.00542 12.8273 2.54242 14.6333 2.54242C16.4383 2.54242 17.9023 4.00542 17.9023 5.81142V9.08642C17.9023 10.8914 16.4383 12.3554 14.6333 12.3554" fill="#101335"/><path id="Fill 12" fill-rule="evenodd" clip-rule="evenodd" d="M33.1528 12.3554V12.3554C31.3478 12.3554 29.8838 10.8914 29.8838 9.08642V5.81142C29.8838 4.00542 31.3478 2.54242 33.1528 2.54242C34.9588 2.54242 36.4218 4.00542 36.4218 5.81142V9.08642C36.4218 10.8914 34.9588 12.3554 33.1528 12.3554" fill="#101335"/></g></g></g><g id="Mouth/Mol" transform="translate(133.656 123.909) scale(0.9736842105263158 1)"><g id="Mouth/Mol/Smiling Black"><g id="Group 3"><path id="Fill 1" fill-rule="evenodd" clip-rule="evenodd" d="M10.918 6.00006H28.769C28.769 6.00006 27.698 15.3771 19.392 15.3771C11.085 15.3771 10.918 6.00006 10.918 6.00006" fill="#101335"/></g></g></g><g id="Hair/Mol" transform="translate(88.918 7.84003) scale(1 1)"><g id="Hair/Mol/Head Wrap"><g id="Group 6"><g id="Group 3"><path id="Fill 1" fill-rule="evenodd" clip-rule="evenodd" d="M68.2288 71.3839L107.646 108.928C107.646 84.2108 87.5498 64.2122 62.9728 64.2122C38.3948 64.2122 18.3008 84.2108 18.3008 108.928L57.8078 71.2964L50.1288 86.4475C49.9508 86.7985 50.0898 87.2279 50.4388 87.408C50.7878 87.586 51.2158 87.4472 51.3928 87.0962L60.5098 69.108L57.0318 86.6325C56.9548 87.0187 57.2038 87.3939 57.5888 87.4713C57.9728 87.5488 58.3468 87.2983 58.4238 86.9111L62.2668 67.5441V86.7713C62.2668 87.1656 62.5838 87.4854 62.9768 87.4854C63.3678 87.4854 63.6858 87.1656 63.6858 86.7713V67.3731L67.5688 86.9111C67.6458 87.2983 68.0188 87.5488 68.4038 87.4713C68.7878 87.3939 69.0368 87.0177 68.9598 86.6315L65.4748 69.0929L74.5978 87.0962C74.7768 87.4472 75.2038 87.586 75.5528 87.408C75.9018 87.2279 76.0408 86.7985 75.8628 86.4475L68.2288 71.3839Z" fill="#E9AE21"/></g><path id="Fill 4" fill-rule="evenodd" clip-rule="evenodd" d="M87.1847 51.4287C87.1847 64.1128 76.9607 74.3962 64.3477 74.3962C51.7357 74.3962 41.5117 64.1128 41.5117 51.4287C41.5117 38.7446 51.7357 28.4622 64.3477 28.4622C76.9607 28.4622 87.1847 38.7446 87.1847 51.4287" fill="#BF62A2"/></g></g></g><g id="Clothes/Mol" transform="translate(107.117 168.84) scale(1 1)"><g id="Clothes/Mol/Snow Crystals"><g id="Group 20"><path id="Fill 1" fill-rule="evenodd" clip-rule="evenodd" d="M0 146.167H89.336V12H0V146.167Z" fill="#9FD5DD"/><path id="Fill 2" fill-rule="evenodd" clip-rule="evenodd" d="M31.21 146.167H58.125V12H31.21V146.167Z" fill="#5473B8"/><g id="Group 19"><path id="Fill 3" fill-rule="evenodd" clip-rule="evenodd" d="M13.7729 121.406V126.715L11.4549 124.396C10.9189 123.86 10.0489 123.86 9.51293 124.396C8.97593 124.932 8.97593 125.802 9.51293 126.338L11.8309 128.656H6.52293C5.76493 128.656 5.14893 129.271 5.14893 130.03C5.14893 130.788 5.76493 131.403 6.52293 131.403H11.8319L9.51293 133.722C8.97593 134.259 8.97593 135.128 9.51293 135.664C10.0489 136.2 10.9189 136.2 11.4549 135.664L13.7729 133.345V138.654C13.7729 139.412 14.3889 140.027 15.1469 140.027C15.9059 140.027 16.5199 139.412 16.5199 138.654V133.345L18.8389 135.664C19.3759 136.2 20.2449 136.2 20.7809 135.664C21.0489 135.396 21.1829 135.045 21.1829 134.693C21.1829 134.342 21.0489 133.99 20.7809 133.722L18.4619 131.403H23.7709C24.5289 131.403 25.1439 130.788 25.1439 130.03C25.1439 129.271 24.5289 128.656 23.7709 128.656H18.4619L20.7809 126.338C21.0489 126.07 21.1829 125.718 21.1829 125.367C21.1829 125.016 21.0489 124.664 20.7809 124.396C20.2449 123.86 19.3759 123.86 18.8389 124.396L16.5199 126.715V121.406C16.5199 120.647 15.9059 120.032 15.1469 120.032C14.3889 120.032 13.7729 120.647 13.7729 121.406" fill="white"/><path id="Fill 5" fill-rule="evenodd" clip-rule="evenodd" d="M13.7729 70.7831V76.0911L11.4549 73.7731C10.9189 73.2361 10.0489 73.2361 9.51293 73.7731C8.97593 74.3091 8.97593 75.1781 9.51293 75.7151L11.8319 78.0331H6.52293C5.76493 78.0331 5.14893 78.6491 5.14893 79.4071C5.14893 80.1651 5.76493 80.7811 6.52293 80.7811H11.8309L9.51293 83.0981C8.97593 83.6351 8.97593 84.5041 9.51293 85.0411C10.0489 85.5771 10.9189 85.5771 11.4549 85.0411L13.7729 82.7221V88.0301C13.7729 88.7891 14.3889 89.4041 15.1469 89.4041C15.9059 89.4041 16.5199 88.7891 16.5199 88.0301V82.7221L18.8389 85.0411C19.3759 85.5771 20.2449 85.5771 20.7809 85.0411C21.0489 84.7721 21.1829 84.4211 21.1829 84.0701C21.1829 83.7181 21.0489 83.3671 20.7809 83.0981L18.4619 80.7811H23.7709C24.5289 80.7811 25.1439 80.1651 25.1439 79.4071C25.1439 78.6491 24.5289 78.0331 23.7709 78.0331H18.4619L20.7809 75.7151C21.0489 75.4471 21.1829 75.0951 21.1829 74.7431C21.1829 74.3921 21.0489 74.0411 20.7809 73.7731C20.2449 73.2361 19.3759 73.2361 18.8389 73.7731L16.5199 76.0911V70.7831C16.5199 70.0251 15.9059 69.4091 15.1469 69.4091C14.3889 69.4091 13.7729 70.0251 13.7729 70.7831" fill="white"/><path id="Fill 7" fill-rule="evenodd" clip-rule="evenodd" d="M16.5199 37.4081V32.1001L18.8389 34.4181C19.3749 34.9551 20.2449 34.9551 20.7809 34.4181C21.0489 34.1501 21.1829 33.7991 21.1829 33.4481C21.1829 33.0961 21.0489 32.7441 20.7809 32.4761L18.4619 30.1581H23.7699C24.5289 30.1581 25.1439 29.5421 25.1439 28.7841C25.1439 28.0261 24.5289 27.4101 23.7699 27.4101H18.4619L20.7809 25.0931C21.0489 24.8241 21.1829 24.4731 21.1829 24.1211C21.1829 23.7701 21.0489 23.4191 20.7809 23.1501C20.2449 22.6141 19.3749 22.6141 18.8389 23.1501L16.5199 25.4691V20.1601C16.5199 19.4021 15.9059 18.7871 15.1459 18.7871C14.3889 18.7871 13.7729 19.4021 13.7729 20.1601V25.4691L11.4549 23.1501C10.9189 22.6141 10.0489 22.6141 9.51293 23.1501C8.97593 23.6871 8.97593 24.5561 9.51293 25.0931L11.8309 27.4101H6.52193C5.76493 27.4101 5.14893 28.0261 5.14893 28.7841C5.14893 29.5421 5.76493 30.1581 6.52193 30.1581H11.8319L9.51293 32.4761C8.97593 33.0131 8.97593 33.8821 9.51293 34.4181C10.0489 34.9551 10.9189 34.9551 11.4549 34.4181L13.7729 32.1001V37.4081C13.7729 38.1661 14.3889 38.7821 15.1459 38.7821C15.9059 38.7821 16.5199 38.1661 16.5199 37.4081" fill="white"/><path id="Fill 9" fill-rule="evenodd" clip-rule="evenodd" d="M72.1596 121.406V126.715L69.8416 124.396C69.3046 123.86 68.4346 123.86 67.8986 124.396C67.3626 124.932 67.3626 125.802 67.8986 126.338L70.2166 128.656H64.9096C64.1506 128.656 63.5356 129.271 63.5356 130.03C63.5356 130.788 64.1506 131.403 64.9096 131.403H70.2186L67.8986 133.722C67.3626 134.259 67.3626 135.128 67.8986 135.664C68.4346 136.2 69.3046 136.2 69.8416 135.664L72.1596 133.345V138.654C72.1596 139.412 72.7746 140.027 73.5326 140.027C74.2916 140.027 74.9066 139.412 74.9066 138.654V133.345L77.2246 135.664C77.7616 136.2 78.6306 136.2 79.1666 135.664C79.4346 135.396 79.5686 135.045 79.5686 134.693C79.5686 134.342 79.4346 133.99 79.1666 133.722L76.8476 131.403H82.1566C82.9146 131.403 83.5306 130.788 83.5306 130.03C83.5306 129.271 82.9146 128.656 82.1566 128.656H76.8486L79.1666 126.338C79.4346 126.07 79.5686 125.718 79.5686 125.367C79.5686 125.016 79.4346 124.664 79.1666 124.396C78.6306 123.86 77.7616 123.86 77.2246 124.396L74.9066 126.715V121.406C74.9066 120.647 74.2916 120.032 73.5326 120.032C72.7746 120.032 72.1596 120.647 72.1596 121.406" fill="white"/><path id="Fill 11" fill-rule="evenodd" clip-rule="evenodd" d="M72.1596 70.7831V76.0911L69.8416 73.7731C69.3046 73.2361 68.4346 73.2361 67.8986 73.7731C67.3626 74.3091 67.3626 75.1781 67.8986 75.7151L70.2186 78.0331H64.9096C64.1506 78.0331 63.5356 78.6491 63.5356 79.4071C63.5356 80.1651 64.1506 80.7811 64.9096 80.7811H70.2166L67.8986 83.0981C67.3626 83.6351 67.3626 84.5041 67.8986 85.0411C68.4346 85.5771 69.3046 85.5771 69.8416 85.0411L72.1596 82.7221V88.0301C72.1596 88.7891 72.7746 89.4041 73.5326 89.4041C74.2916 89.4041 74.9066 88.7891 74.9066 88.0301V82.7221L77.2246 85.0411C77.7616 85.5771 78.6306 85.5771 79.1666 85.0411C79.4346 84.7721 79.5686 84.4211 79.5686 84.0701C79.5686 83.7181 79.4346 83.3671 79.1666 83.0981L76.8486 80.7811H82.1566C82.9146 80.7811 83.5306 80.1651 83.5306 79.4071C83.5306 78.6491 82.9146 78.0331 82.1566 78.0331H76.8476L79.1666 75.7151C79.4346 75.4471 79.5686 75.0951 79.5686 74.7431C79.5686 74.3921 79.4346 74.0411 79.1666 73.7731C78.6306 73.2361 77.7616 73.2361 77.2246 73.7731L74.9066 76.0911V70.7831C74.9066 70.0251 74.2916 69.4091 73.5326 69.4091C72.7746 69.4091 72.1596 70.0251 72.1596 70.7831" fill="white"/><path id="Fill 13" fill-rule="evenodd" clip-rule="evenodd" d="M72.1596 20.1601V25.4691L69.8416 23.1501C69.3046 22.6141 68.4346 22.6141 67.8986 23.1501C67.3626 23.6871 67.3626 24.5561 67.8986 25.0931L70.2166 27.4101H64.9096C64.1506 27.4101 63.5356 28.0261 63.5356 28.7841C63.5356 29.5421 64.1506 30.1581 64.9096 30.1581H70.2186L67.8986 32.4761C67.3626 33.0131 67.3626 33.8821 67.8986 34.4181C68.4346 34.9551 69.3046 34.9551 69.8416 34.4181L72.1596 32.1001V37.4081C72.1596 38.1661 72.7746 38.7821 73.5326 38.7821C74.2916 38.7821 74.9066 38.1661 74.9066 37.4081V32.1001L77.2246 34.4181C77.7616 34.9551 78.6306 34.9551 79.1666 34.4181C79.4346 34.1501 79.5686 33.7991 79.5686 33.4481C79.5686 33.0961 79.4346 32.7441 79.1666 32.4761L76.8476 30.1581H82.1566C82.9146 30.1581 83.5306 29.5421 83.5306 28.7841C83.5306 28.0261 82.9146 27.4101 82.1566 27.4101H76.8486L79.1666 25.0931C79.4346 24.8241 79.5686 24.4731 79.5686 24.1211C79.5686 23.7701 79.4346 23.4191 79.1666 23.1501C78.6306 22.6141 77.7616 22.6141 77.2246 23.1501L74.9066 25.4691V20.1601C74.9066 19.4021 74.2916 18.7871 73.5326 18.7871C72.7746 18.7871 72.1596 19.4021 72.1596 20.1601" fill="white"/><path id="Fill 15" fill-rule="evenodd" clip-rule="evenodd" d="M43.4795 96.06V101.369L41.1615 99.05C40.6255 98.514 39.7545 98.514 39.2195 99.05C38.6825 99.587 38.6825 100.456 39.2195 100.993L41.5375 103.31H36.2295C35.4715 103.31 34.8555 103.926 34.8555 104.684C34.8555 105.442 35.4715 106.058 36.2295 106.058H41.5385L39.2195 108.376C38.6825 108.913 38.6825 109.782 39.2195 110.318C39.7545 110.855 40.6255 110.855 41.1615 110.318L43.4795 108V113.308C43.4795 114.066 44.0945 114.682 44.8525 114.682C45.6115 114.682 46.2265 114.066 46.2265 113.308V108L48.5445 110.318C49.0815 110.855 49.9505 110.855 50.4875 110.318C50.7555 110.05 50.8895 109.699 50.8895 109.348C50.8895 108.996 50.7555 108.644 50.4875 108.376L48.1675 106.058H53.4765C54.2355 106.058 54.8505 105.442 54.8505 104.684C54.8505 103.926 54.2355 103.31 53.4765 103.31H48.1685L50.4875 100.993C50.7555 100.724 50.8895 100.373 50.8895 100.021C50.8895 99.67 50.7555 99.319 50.4875 99.05C49.9505 98.514 49.0815 98.514 48.5445 99.05L46.2265 101.369V96.06C46.2265 95.302 45.6115 94.687 44.8525 94.687C44.0945 94.687 43.4795 95.302 43.4795 96.06" fill="white"/><path id="Fill 17" fill-rule="evenodd" clip-rule="evenodd" d="M43.4795 44.0375V49.3465L41.1615 47.0275C40.6255 46.4915 39.7545 46.4915 39.2195 47.0275C38.6825 47.5645 38.6825 48.4335 39.2195 48.9705L41.5375 51.2875H36.2295C35.4715 51.2875 34.8555 51.9035 34.8555 52.6615C34.8555 53.4195 35.4715 54.0355 36.2295 54.0355H41.5385L39.2195 56.3535C38.6825 56.8905 38.6825 57.7595 39.2195 58.2955C39.7545 58.8325 40.6255 58.8325 41.1615 58.2955L43.4795 55.9775V61.2855C43.4795 62.0435 44.0945 62.6595 44.8525 62.6595C45.6115 62.6595 46.2265 62.0435 46.2265 61.2855V55.9775L48.5445 58.2955C49.0815 58.8325 49.9505 58.8325 50.4875 58.2955C50.7555 58.0275 50.8895 57.6765 50.8895 57.3255C50.8895 56.9735 50.7555 56.6215 50.4875 56.3535L48.1675 54.0355H53.4765C54.2355 54.0355 54.8505 53.4195 54.8505 52.6615C54.8505 51.9035 54.2355 51.2875 53.4765 51.2875H48.1685L50.4875 48.9705C50.7555 48.7015 50.8895 48.3505 50.8895 47.9985C50.8895 47.6475 50.7555 47.2965 50.4875 47.0275C49.9505 46.4915 49.0815 46.4915 48.5445 47.0275L46.2265 49.3465V44.0375C46.2265 43.2795 45.6115 42.6645 44.8525 42.6645C44.0945 42.6645 43.4795 43.2795 43.4795 44.0375" fill="white"/></g></g></g></g></g></g></g><defs><linearGradient id="paint0_linear_201_1538742c626df-73fc-4ada-8886-e532d2a66c65" x1="287.82" y1="746.998" x2="724.652" y2="746.998" gradientUnits="userSpaceOnUse"><stop stop-color="#B8EBFF"/><stop offset="1" stop-color="#B8EBFF"/></linearGradient></defs></svg>