<svg viewBox="73.67408376963351 122.0625 157.59162303664922 196.875" fill="none" xmlns="http://www.w3.org/2000/svg" xmlns:xlink="http://www.w3.org/1999/xlink" overflow="visible" width="157.59162303664922px" height="196.875px"><g id="Master/Worms/Fin"><g id="Body/Fin" transform="translate(83.918 150.8) scale(1 1)"><g id="Body/Fin/Periwinkle"><g id="Group 9"><g id="Group 3"><path id="Fill 1" fill-rule="evenodd" clip-rule="evenodd" d="M135.896 164.221H0.999756V67.4481C0.999756 30.1971 31.1978 0.000100017 68.4478 0.000100017V0.000100017C105.698 0.000100017 135.896 30.1971 135.896 67.4481V164.221Z" fill="#96A5D3"/></g><path id="Fill 4" fill-rule="evenodd" clip-rule="evenodd" d="M1 164.221H135.896V99.148H1V164.221Z" fill="#6F83B1"/><path id="Fill 6" fill-rule="evenodd" clip-rule="evenodd" d="M66.3049 54.4006C66.3049 67.8856 55.3729 78.8176 41.8879 78.8176C28.4019 78.8176 17.4709 67.8856 17.4709 54.4006C17.4709 40.9156 28.4019 29.9836 41.8879 29.9836C55.3729 29.9836 66.3049 40.9156 66.3049 54.4006" fill="#DFBEDA"/><path id="Fill 7" fill-rule="evenodd" clip-rule="evenodd" d="M119.425 54.4006C119.425 67.8856 108.493 78.8176 95.0083 78.8176C81.5233 78.8176 70.5913 67.8856 70.5913 54.4006C70.5913 40.9156 81.5233 29.9836 95.0083 29.9836C108.493 29.9836 119.425 40.9156 119.425 54.4006" fill="#DFBEDA"/></g></g></g><g id="Eyes/Fin" transform="translate(126.918 194.8) scale(1 1)"><g id="Eyes/Fin/Open"><g id="Eyes"><path id="Fill 8" fill-rule="evenodd" clip-rule="evenodd" d="M15.3588 15.2683V15.2683C13.5528 15.2683 12.0898 13.8043 12.0898 11.9993V8.72428C12.0898 6.91828 13.5528 5.45428 15.3588 5.45428C17.1638 5.45428 18.6278 6.91828 18.6278 8.72428V11.9993C18.6278 13.8043 17.1638 15.2683 15.3588 15.2683" fill="#0F1335"/><path id="Fill 10" fill-rule="evenodd" clip-rule="evenodd" d="M33.8784 15.2683V15.2683C32.0734 15.2683 30.6094 13.8043 30.6094 11.9993V8.72428C30.6094 6.91828 32.0734 5.45428 33.8784 5.45428C35.6844 5.45428 37.1474 6.91828 37.1474 8.72428V11.9993C37.1474 13.8043 35.6844 15.2683 33.8784 15.2683" fill="#0F1335"/></g></g></g><g id="Mouth/Fin" transform="translate(130.918 211.8) scale(0.9761904761904762 1)"><g id="Mouth/Fin/Surprised"><g id="Group 3"><path id="Fill 1" fill-rule="evenodd" clip-rule="evenodd" d="M30.996 10.0389C30.996 15.0309 26.949 19.0779 21.957 19.0779C16.965 19.0779 12.918 15.0309 12.918 10.0389C12.918 5.04689 16.965 0.999893 21.957 0.999893C26.949 0.999893 30.996 5.04689 30.996 10.0389" fill="white"/></g></g></g><g id="Hair/Fin" transform="translate(65.918 60.8) scale(1 1)"><g id="Hair/Fin/Colour Buns"><g id="Group 25"><path id="Fill 1" fill-rule="evenodd" clip-rule="evenodd" d="M89.1458 126.566C89.1458 128.261 87.7718 129.635 86.0758 129.635C84.3808 129.635 83.0068 128.261 83.0068 126.566C83.0068 124.871 84.3808 123.497 86.0758 123.497C87.7718 123.497 89.1458 124.871 89.1458 126.566" fill="white"/><g id="Group 24"><path id="Fill 3" fill-rule="evenodd" clip-rule="evenodd" d="M163.64 109.404C163.64 115.485 158.71 120.415 152.629 120.415C146.548 120.415 141.618 115.485 141.618 109.404C141.618 103.323 146.548 98.3932 152.629 98.3932C158.71 98.3932 163.64 103.323 163.64 109.404" fill="#FFCC37"/><path id="Fill 5" fill-rule="evenodd" clip-rule="evenodd" d="M144.244 121.874C143.475 121.874 142.718 121.521 142.228 120.855L137.986 115.086C137.168 113.974 137.406 112.409 138.518 111.591C139.632 110.774 141.197 111.012 142.014 112.124L146.256 117.893C147.074 119.005 146.836 120.57 145.723 121.388C145.277 121.716 144.759 121.874 144.244 121.874" fill="#3A3E5B"/><g id="Group 9"><path id="Fill 7" fill-rule="evenodd" clip-rule="evenodd" d="M92.6072 66.1467C97.5032 69.7537 98.5482 76.6467 94.9412 81.5427C91.3342 86.4387 84.4412 87.4837 79.5452 83.8767C74.6492 80.2697 73.6042 73.3767 77.2112 68.4807C80.8182 63.5847 87.7112 62.5397 92.6072 66.1467" fill="#5473B8"/></g><path id="Fill 10" fill-rule="evenodd" clip-rule="evenodd" d="M89.1288 90.1766H89.1268L81.9658 90.1706C80.5848 90.1696 79.4668 89.0496 79.4678 87.6686C79.4688 86.2886 80.5878 85.1706 81.9678 85.1706H81.9698L89.1308 85.1766C90.5118 85.1776 91.6298 86.2976 91.6288 87.6786C91.6278 89.0586 90.5088 90.1766 89.1288 90.1766" fill="#3A3E5B"/><path id="Fill 12" fill-rule="evenodd" clip-rule="evenodd" d="M133.496 79.4366C136.242 84.8626 134.069 91.4876 128.642 94.2326C123.216 96.9786 116.592 94.8046 113.846 89.3786C111.101 83.9526 113.274 77.3286 118.7 74.5826C124.126 71.8376 130.751 74.0106 133.496 79.4366" fill="#F1758E"/><path id="Fill 14" fill-rule="evenodd" clip-rule="evenodd" d="M120.687 99.5901C120.307 99.5901 119.922 99.5041 119.561 99.3201L113.171 96.0891C111.939 95.4651 111.445 93.9611 112.069 92.7291C112.692 91.4971 114.199 91.0051 115.427 91.6271L121.817 94.8591C123.049 95.4821 123.543 96.9861 122.919 98.2181C122.48 99.0881 121.6 99.5901 120.687 99.5901" fill="#3A3E5B"/><path id="Fill 16" fill-rule="evenodd" clip-rule="evenodd" d="M38.8463 79.4366C36.1013 84.8626 38.2743 91.4876 43.7003 94.2326C49.1263 96.9786 55.7513 94.8046 58.4963 89.3786C61.2423 83.9526 59.0683 77.3286 53.6423 74.5826C48.2163 71.8376 41.5923 74.0106 38.8463 79.4366" fill="#F9A471"/><path id="Fill 18" fill-rule="evenodd" clip-rule="evenodd" d="M51.6545 99.5902C50.7415 99.5902 49.8615 99.0882 49.4225 98.2182C48.7985 96.9862 49.2925 95.4822 50.5245 94.8592L56.9155 91.6272C58.1465 91.0022 59.6515 91.4982 60.2735 92.7292C60.8975 93.9622 60.4035 95.4652 59.1715 96.0892L52.7805 99.3202C52.4195 99.5042 52.0335 99.5902 51.6545 99.5902" fill="#3A3E5B"/><path id="Fill 20" fill-rule="evenodd" clip-rule="evenodd" d="M9 109.404C9 115.485 13.93 120.415 20.011 120.415C26.092 120.415 31.022 115.485 31.022 109.404C31.022 103.323 26.092 98.3932 20.011 98.3932C13.93 98.3932 9 103.323 9 109.404" fill="#41AFE4"/><path id="Fill 22" fill-rule="evenodd" clip-rule="evenodd" d="M28.3958 121.874C27.8808 121.874 27.3628 121.716 26.9168 121.388C25.8038 120.57 25.5658 119.005 26.3838 117.893L30.6258 112.124C31.4438 111.012 33.0088 110.773 34.1218 111.591C35.2338 112.409 35.4718 113.974 34.6538 115.086L30.4118 120.855C29.9218 121.521 29.1648 121.874 28.3958 121.874" fill="#3A3E5B"/></g></g></g></g><g id="Clothes/Fin" transform="translate(83.918 245.4) scale(1 1)"><g id="Clothes/Fin/Lavender Polkas"><g id="Group 63"><path id="Fill 1" fill-rule="evenodd" clip-rule="evenodd" d="M1 69.996H135.896V11.12H1V69.996Z" fill="#4FA480"/><g id="Group 62"><path id="Fill 2" fill-rule="evenodd" clip-rule="evenodd" d="M11.367 11.1201H1V20.3711C1.304 20.4011 1.611 20.4181 1.923 20.4181C7.091 20.4181 11.284 16.2681 11.367 11.1201" fill="#E0BFDB"/><path id="Fill 4" fill-rule="evenodd" clip-rule="evenodd" d="M24.1061 20.418C29.2741 20.418 33.4671 16.269 33.5501 11.12H14.6621C14.7451 16.269 18.9381 20.418 24.1061 20.418" fill="#E0BFDB"/><path id="Fill 6" fill-rule="evenodd" clip-rule="evenodd" d="M46.2887 20.418C51.4567 20.418 55.6497 16.269 55.7327 11.12H36.8447C36.9277 16.269 41.1207 20.418 46.2887 20.418" fill="#E0BFDB"/><path id="Fill 8" fill-rule="evenodd" clip-rule="evenodd" d="M68.4718 20.418C73.6398 20.418 77.8328 16.269 77.9158 11.12H59.0278C59.1108 16.269 63.3038 20.418 68.4718 20.418" fill="#E0BFDB"/><path id="Fill 10" fill-rule="evenodd" clip-rule="evenodd" d="M90.6549 20.418C95.8229 20.418 100.016 16.269 100.099 11.12H81.2109C81.2939 16.269 85.4869 20.418 90.6549 20.418" fill="#E0BFDB"/><path id="Fill 12" fill-rule="evenodd" clip-rule="evenodd" d="M112.838 20.418C118.006 20.418 122.199 16.269 122.282 11.12H103.394C103.477 16.269 107.67 20.418 112.838 20.418" fill="#E0BFDB"/><path id="Fill 14" fill-rule="evenodd" clip-rule="evenodd" d="M135.021 20.418C135.316 20.418 135.608 20.4 135.896 20.374V11.12H125.577C125.66 16.269 129.853 20.418 135.021 20.418" fill="#E0BFDB"/><g id="Group 18"><path id="Fill 16" fill-rule="evenodd" clip-rule="evenodd" d="M11.3835 50.4224C11.3835 45.2024 7.15151 40.9704 1.93151 40.9704C1.61651 40.9704 1.30651 40.9874 0.999512 41.0174V59.8274C1.30651 59.8574 1.61651 59.8744 1.93151 59.8744C7.15151 59.8744 11.3835 55.6424 11.3835 50.4224" fill="#E0BFDB"/></g><path id="Fill 19" fill-rule="evenodd" clip-rule="evenodd" d="M24.1141 40.9702C18.8941 40.9702 14.6621 45.2022 14.6621 50.4222C14.6621 55.6422 18.8941 59.8742 24.1141 59.8742C29.3341 59.8742 33.5661 55.6422 33.5661 50.4222C33.5661 45.2022 29.3341 40.9702 24.1141 40.9702" fill="#E0BFDB"/><path id="Fill 21" fill-rule="evenodd" clip-rule="evenodd" d="M46.2972 40.9702C41.0772 40.9702 36.8452 45.2022 36.8452 50.4222C36.8452 55.6422 41.0772 59.8742 46.2972 59.8742C51.5172 59.8742 55.7492 55.6422 55.7492 50.4222C55.7492 45.2022 51.5172 40.9702 46.2972 40.9702" fill="#E0BFDB"/><path id="Fill 23" fill-rule="evenodd" clip-rule="evenodd" d="M68.4803 40.9702C63.2603 40.9702 59.0283 45.2022 59.0283 50.4222C59.0283 55.6422 63.2603 59.8742 68.4803 59.8742C73.7003 59.8742 77.9323 55.6422 77.9323 50.4222C77.9323 45.2022 73.7003 40.9702 68.4803 40.9702" fill="#E0BFDB"/><path id="Fill 25" fill-rule="evenodd" clip-rule="evenodd" d="M90.6634 40.9702C85.4434 40.9702 81.2114 45.2022 81.2114 50.4222C81.2114 55.6422 85.4434 59.8742 90.6634 59.8742C95.8834 59.8742 100.115 55.6422 100.115 50.4222C100.115 45.2022 95.8834 40.9702 90.6634 40.9702" fill="#E0BFDB"/><path id="Fill 27" fill-rule="evenodd" clip-rule="evenodd" d="M112.846 40.9702C107.626 40.9702 103.394 45.2022 103.394 50.4222C103.394 55.6422 107.626 59.8742 112.846 59.8742C118.066 59.8742 122.298 55.6422 122.298 50.4222C122.298 45.2022 118.066 40.9702 112.846 40.9702" fill="#E0BFDB"/><g id="Group 31"><path id="Fill 29" fill-rule="evenodd" clip-rule="evenodd" d="M125.577 50.4224C125.577 55.6424 129.809 59.8744 135.029 59.8744C135.322 59.8744 135.61 59.8564 135.896 59.8304V41.0134C135.61 40.9874 135.322 40.9704 135.029 40.9704C129.809 40.9704 125.577 45.2024 125.577 50.4224" fill="#E0BFDB"/></g><path id="Fill 32" fill-rule="evenodd" clip-rule="evenodd" d="M22.4665 30.6938C22.4665 25.4738 18.2345 21.2418 13.0145 21.2418C7.7945 21.2418 3.5625 25.4738 3.5625 30.6938C3.5625 35.9138 7.7945 40.1458 13.0145 40.1458C18.2345 40.1458 22.4665 35.9138 22.4665 30.6938" fill="#E0BFDB"/><path id="Fill 34" fill-rule="evenodd" clip-rule="evenodd" d="M44.6491 30.6938C44.6491 25.4738 40.4171 21.2418 35.1971 21.2418C29.9771 21.2418 25.7451 25.4738 25.7451 30.6938C25.7451 35.9138 29.9771 40.1458 35.1971 40.1458C40.4171 40.1458 44.6491 35.9138 44.6491 30.6938" fill="#E0BFDB"/><path id="Fill 36" fill-rule="evenodd" clip-rule="evenodd" d="M66.8327 30.6938C66.8327 25.4738 62.6007 21.2418 57.3807 21.2418C52.1607 21.2418 47.9287 25.4738 47.9287 30.6938C47.9287 35.9138 52.1607 40.1458 57.3807 40.1458C62.6007 40.1458 66.8327 35.9138 66.8327 30.6938" fill="#E0BFDB"/><path id="Fill 38" fill-rule="evenodd" clip-rule="evenodd" d="M89.0153 30.6938C89.0153 25.4738 84.7833 21.2418 79.5633 21.2418C74.3433 21.2418 70.1113 25.4738 70.1113 30.6938C70.1113 35.9138 74.3433 40.1458 79.5633 40.1458C84.7833 40.1458 89.0153 35.9138 89.0153 30.6938" fill="#E0BFDB"/><path id="Fill 40" fill-rule="evenodd" clip-rule="evenodd" d="M111.198 30.6938C111.198 25.4738 106.966 21.2418 101.746 21.2418C96.5264 21.2418 92.2944 25.4738 92.2944 30.6938C92.2944 35.9138 96.5264 40.1458 101.746 40.1458C106.966 40.1458 111.198 35.9138 111.198 30.6938" fill="#E0BFDB"/><path id="Fill 42" fill-rule="evenodd" clip-rule="evenodd" d="M133.382 30.6938C133.382 25.4738 129.15 21.2418 123.93 21.2418C118.71 21.2418 114.478 25.4738 114.478 30.6938C114.478 35.9138 118.71 40.1458 123.93 40.1458C129.15 40.1458 133.382 35.9138 133.382 30.6938" fill="#E0BFDB"/><g id="Group 46"><path id="Fill 44" fill-rule="evenodd" clip-rule="evenodd" d="M13.0226 60.6982C7.85461 60.6982 3.66161 64.8472 3.57861 69.9962H22.4666C22.3836 64.8472 18.1906 60.6982 13.0226 60.6982" fill="#E0BFDB"/></g><g id="Group 49"><path id="Fill 47" fill-rule="evenodd" clip-rule="evenodd" d="M35.2057 60.6982C30.0377 60.6982 25.8447 64.8472 25.7617 69.9962H44.6497C44.5667 64.8472 40.3737 60.6982 35.2057 60.6982" fill="#E0BFDB"/></g><g id="Group 52"><path id="Fill 50" fill-rule="evenodd" clip-rule="evenodd" d="M57.3888 60.6982C52.2208 60.6982 48.0278 64.8472 47.9448 69.9962H66.8328C66.7498 64.8472 62.5568 60.6982 57.3888 60.6982" fill="#E0BFDB"/></g><g id="Group 55"><path id="Fill 53" fill-rule="evenodd" clip-rule="evenodd" d="M79.5719 60.6982C74.4039 60.6982 70.2109 64.8472 70.1279 69.9962H89.0159C88.9329 64.8472 84.7399 60.6982 79.5719 60.6982" fill="#E0BFDB"/></g><g id="Group 58"><path id="Fill 56" fill-rule="evenodd" clip-rule="evenodd" d="M101.755 60.6982C96.5865 60.6982 92.3935 64.8472 92.3105 69.9962H111.199C111.116 64.8472 106.923 60.6982 101.755 60.6982" fill="#E0BFDB"/></g><g id="Group 61"><path id="Fill 59" fill-rule="evenodd" clip-rule="evenodd" d="M123.938 60.6982C118.77 60.6982 114.577 64.8472 114.494 69.9962H133.382C133.299 64.8472 129.106 60.6982 123.938 60.6982" fill="#E0BFDB"/></g></g></g></g></g></g></svg>