<svg viewBox="0 -1.3321167883211729 1065.9999999999998 732.6642335766425" fill="none" xmlns="http://www.w3.org/2000/svg" xmlns:xlink="http://www.w3.org/1999/xlink" overflow="visible" width="1065.9999999999998px" height="732.6642335766425px"><g id="Master/Stickers/Social Media"><rect width="1066" height="730" fill="white"/><g id="Group 97"><g id="Window 1" transform="translate(153.121 151.736) scale(1.5690552665398467 1.5758555367488989)"><g id="Window 1/Red Insta"><g id="Group 10"><path id="Fill 1" fill-rule="evenodd" clip-rule="evenodd" d="M0.917969 297.883H268.8V0H0.917969V297.883ZM10.918 287.883H258.8V10H10.918V287.883Z" fill="#F1758E"/><path id="Fill 2" fill-rule="evenodd" clip-rule="evenodd" d="M0.917969 40.709H268.8V0H0.917969V40.709Z" fill="#604299"/><g id="Group 9"><path id="Fill 3" fill-rule="evenodd" clip-rule="evenodd" d="M28.2534 12.1105C23.3764 12.1105 22.2474 18.7565 22.2474 18.7565C22.2474 18.7565 21.1194 12.1105 16.2404 12.1105C15.6644 12.1105 15.0344 12.2035 14.3484 12.4125C8.85145 14.0785 10.6054 25.6955 22.2474 28.5985C33.8894 25.6955 35.6444 14.0785 30.1464 12.4125C29.4594 12.2035 28.8304 12.1105 28.2534 12.1105" fill="#F1758E"/><path id="Fill 5" fill-rule="evenodd" clip-rule="evenodd" d="M52.3818 12.1105C47.1808 12.1105 42.9648 15.8005 42.9648 20.3545C42.9648 24.9075 47.1808 28.5985 52.3818 28.5985C54.2248 28.5985 55.9388 28.1285 57.3908 27.3265L59.5828 28.8125L58.9988 26.2165C60.7268 24.7225 61.7988 22.6485 61.7988 20.3545C61.7988 15.8005 57.5828 12.1105 52.3818 12.1105" fill="#F1758E"/><path id="Fill 7" fill-rule="evenodd" clip-rule="evenodd" d="M258.74 12.1105H244.764V28.5985L251.752 24.5985L258.74 28.5985V12.1105Z" fill="#F1758E"/></g></g><path id="Fill 1_2" fill-rule="evenodd" clip-rule="evenodd" d="M10.918 288.168H258.8V41H10.918V288.168Z" fill="white"/></g></g><g id="Poh"><g id="Body/Poh" transform="translate(272.09 289.465) scale(1.5749100116120667 1.5758555195119122)"><g id="Body/Poh/Purple"><g id="Group 11"><g id="Group 3"><path id="Fill 1" fill-rule="evenodd" clip-rule="evenodd" d="M118.501 81.3973C118.501 74.8333 115.578 68.9623 110.977 64.9783C115.578 60.9943 118.501 55.1233 118.501 48.5593C118.501 36.5593 108.773 26.8313 96.7728 26.8313C96.5588 26.8313 96.3508 26.8563 96.1378 26.8633C96.5368 25.2143 96.7728 23.5013 96.7728 21.7293C96.7728 9.7283 87.0448 0.000305176 75.0448 0.000305176C69.0788 0.000305176 63.6778 2.40831 59.7508 6.30031C55.8238 2.40831 50.4228 0.000305176 44.4568 0.000305176C32.4568 0.000305176 22.7288 9.7283 22.7288 21.7293C22.7288 23.5013 22.9638 25.2143 23.3638 26.8633C23.1508 26.8563 22.9428 26.8313 22.7288 26.8313C10.7288 26.8313 0.999756 36.5593 0.999756 48.5593C0.999756 55.1233 3.92376 60.9943 8.52376 64.9783C3.92376 68.9623 0.999756 74.8333 0.999756 81.3973C0.999756 87.9613 3.92376 93.8323 8.52376 97.8163C3.92376 101.8 0.999756 107.671 0.999756 114.235C0.999756 120.799 3.92376 126.669 8.52376 130.653C3.92376 134.638 0.999756 140.508 0.999756 147.072C0.999756 153.637 3.92376 159.507 8.52376 163.492C3.92376 167.476 0.999756 173.346 0.999756 179.91C0.999756 191.305 9.77576 200.634 20.9358 201.548L20.9338 201.639H96.7728C108.773 201.639 118.501 191.91 118.501 179.91C118.501 173.346 115.578 167.476 110.977 163.492C115.578 159.507 118.501 153.637 118.501 147.072C118.501 140.508 115.578 134.638 110.977 130.653C115.578 126.669 118.501 120.799 118.501 114.235C118.501 107.671 115.578 101.8 110.977 97.8163C115.578 93.8323 118.501 87.9613 118.501 81.3973" fill="#775CA6"/></g><g id="Group 6"><path id="Fill 4" fill-rule="evenodd" clip-rule="evenodd" d="M2.119 88.2821L2.337 88.4791C4.639 90.6791 7.574 90.6791 9.876 88.4791L10.037 88.3251C12.354 86.1101 15.313 86.1261 17.62 88.3671C19.943 90.6231 22.924 90.6231 25.247 88.3671C27.554 86.1261 30.512 86.1101 32.83 88.3241L32.98 88.4691C35.282 90.6681 38.218 90.6681 40.519 88.4691L40.701 88.2951C43.003 86.0951 45.938 86.0951 48.24 88.2951L48.359 88.4091C50.661 90.6091 53.597 90.6091 55.898 88.4091L56.142 88.1761C58.444 85.9761 61.379 85.9761 63.682 88.1761L63.801 88.2901C66.102 90.4901 69.037 90.4901 71.34 88.2901L71.396 88.2361C73.698 86.0361 76.634 86.0361 78.935 88.2361L79.072 88.3661C81.374 90.5661 84.309 90.5661 86.611 88.3661L86.707 88.2761C89.009 86.0761 91.943 86.0761 94.245 88.2761L94.351 88.3771C96.654 90.5771 99.589 90.5771 101.89 88.3771L102.148 88.1321C104.45 85.9321 107.385 85.9321 109.686 88.1321L109.896 88.3321C112.198 90.5321 115.032 90.6261 117.334 88.4271C116.073 92.0991 113.852 95.3261 110.976 97.8161C115.578 101.8 118.501 107.671 118.501 114.235C118.501 120.8 115.578 126.67 110.976 130.654C115.578 134.638 118.501 140.509 118.501 147.073C118.501 153.637 115.578 159.507 110.976 163.492C115.578 167.476 118.501 173.346 118.501 179.91C118.501 191.91 108.773 201.639 96.773 201.639H20.933L20.935 201.549C9.776 200.635 1 191.305 1 179.91C1 173.346 3.924 167.476 8.524 163.492C3.924 159.507 1 153.637 1 147.073C1 140.509 3.924 134.638 8.524 130.654C3.924 126.67 1 120.8 1 114.235C1 107.671 3.924 101.8 8.524 97.8161C5.611 95.2931 3.37 92.0141 2.119 88.2821" fill="#4D439B"/></g><path id="Fill 7" fill-rule="evenodd" clip-rule="evenodd" d="M58.201 46.8197C58.201 56.5687 50.298 64.4717 40.549 64.4717C30.8 64.4717 22.896 56.5687 22.896 46.8197C22.896 37.0697 30.8 29.1677 40.549 29.1677C50.298 29.1677 58.201 37.0697 58.201 46.8197" fill="#F1758E"/><path id="Fill 9" fill-rule="evenodd" clip-rule="evenodd" d="M96.6053 46.8197C96.6053 56.5687 88.7023 64.4717 78.9533 64.4717C69.2033 64.4717 61.2993 56.5687 61.2993 46.8197C61.2993 37.0697 69.2033 29.1677 78.9533 29.1677C88.7023 29.1677 96.6053 37.0697 96.6053 46.8197" fill="#F1758E"/></g></g></g><g id="Eyes/Poh" transform="translate(334.238 351.896) scale(1.5749098777770996 1.5758555276053292)"><g id="Eyes/Poh/Angry"><g id="Group 7"><g id="Group 3"><path id="Fill 1" fill-rule="evenodd" clip-rule="evenodd" d="M12.959 5.24431L9.056 2.33631C8.693 2.06631 8.249 1.95231 7.795 2.01831C7.346 2.08331 6.948 2.32031 6.678 2.68431C6.406 3.04831 6.293 3.49631 6.358 3.94531C6.424 4.39431 6.661 4.79131 7.025 5.06231L9.616 6.99331L6.778 8.82131C5.991 9.32931 5.763 10.3833 6.27 11.1713C6.585 11.6593 7.12 11.9503 7.7 11.9503C8.026 11.9503 8.344 11.8563 8.619 11.6803L12.833 8.96531C13.456 8.56331 13.844 7.88031 13.87 7.13731C13.895 6.39531 13.554 5.68831 12.959 5.24431" fill="#101335"/></g><g id="Group 6"><path id="Fill 4" fill-rule="evenodd" clip-rule="evenodd" d="M32.793 8.87031L30.227 7.02631L33.087 5.11231C33.866 4.59231 34.076 3.53431 33.556 2.75531C33.033 1.97531 31.976 1.76531 31.198 2.28731L26.978 5.10931C26.359 5.52131 25.983 6.21131 25.971 6.95331C25.959 7.69631 26.312 8.39831 26.914 8.83131L30.81 11.6303C31.1 11.8403 31.442 11.9503 31.8 11.9503C32.347 11.9503 32.863 11.6853 33.182 11.2423C33.729 10.4823 33.554 9.41831 32.793 8.87031" fill="#101335"/></g></g></g></g><g id="Mouth/Poh" transform="translate(334.217 373.039) scale(1.5364974417337558 1.5758554559004934)"><g id="Mouth/Poh/Laughing Teeth"><g id="Group 8"><g id="Group 3"><path id="Fill 1" fill-rule="evenodd" clip-rule="evenodd" d="M3.91797 3C3.91797 3 3.91797 19.013 20.94 19.013C38.778 19.013 38.778 3 38.778 3H3.91797Z" fill="#101335"/></g><path id="Fill 4" fill-rule="evenodd" clip-rule="evenodd" d="M16.2262 9.58491H15.4432C13.9282 9.58491 12.7012 8.35691 12.7012 6.84291V2.99991H18.9682V6.84291C18.9682 8.35691 17.7412 9.58491 16.2262 9.58491" fill="white"/><path id="Fill 6" fill-rule="evenodd" clip-rule="evenodd" d="M26.5729 9.58491H25.7889C24.2739 9.58491 23.0469 8.35691 23.0469 6.84291V2.99991H29.3139V6.84291C29.3139 8.35691 28.0869 9.58491 26.5729 9.58491" fill="white"/></g></g></g><g id="Hair/Poh" transform="translate(253.916 206.103) scale(1.5749100553775262 1.5758555398058536)"><g id="Hair/Poh/Double Bun"><g id="Hair"><path id="Fill 19" fill-rule="evenodd" clip-rule="evenodd" d="M53.4073 71.3672L56.8083 63.4872L58.4453 71.8102C61.8033 72.0502 65.0923 72.1732 68.2903 72.1992L70.9843 63.6562L73.5783 72.1562C77.2593 72.0672 80.7923 71.8602 84.1403 71.5712L85.7303 63.4872L89.0093 71.0832C96.4493 70.2322 102.746 69.0342 107.414 67.9782C104.773 58.9542 96.4403 52.3612 86.5623 52.3612C80.5973 52.3612 75.1963 54.7682 71.2693 58.6612C67.3433 54.7682 61.9413 52.3612 55.9753 52.3612C46.0323 52.3612 37.6543 59.0432 35.0723 68.1602C41.2803 69.6972 47.4323 70.7352 53.4073 71.3672" fill="#73BAB8"/><path id="Fill 21" fill-rule="evenodd" clip-rule="evenodd" d="M48.2357 26.7651V26.7651C46.5217 29.5551 47.5967 33.2151 50.5467 34.6351H50.5477C55.2307 36.8911 54.4907 43.7801 49.4327 44.9881C46.2487 45.7481 44.4207 49.0961 45.5027 52.1871C47.2187 57.0941 41.8247 61.4411 37.3947 58.7201C34.6047 57.0061 30.9447 58.0801 29.5247 61.0311C27.2687 65.7151 20.3807 64.9741 19.1727 59.9171V59.9171C18.4117 56.7321 15.0637 54.9051 11.9727 55.9861C7.06571 57.7031 2.71771 52.3081 5.43971 47.8781C7.15371 45.0881 6.07971 41.4291 3.12971 40.0081C-1.55529 37.7521 -0.814291 30.8641 4.24271 29.6561C7.42671 28.8951 9.25571 25.5471 8.17371 22.4561C6.45671 17.5491 11.8507 13.2021 16.2817 15.9241C19.0717 17.6381 22.7307 16.5631 24.1517 13.6131C26.4077 8.92913 33.2957 9.66913 34.5047 14.7261C35.2647 17.9111 38.6127 19.7391 41.7037 18.6581C46.6107 16.9401 50.9577 22.3351 48.2357 26.7651" fill="#3A3E5B"/><path id="Fill 23" fill-rule="evenodd" clip-rule="evenodd" d="M39.0244 31.3096V31.3096C38.0484 32.8986 38.6604 34.9826 40.3404 35.7916C43.0084 37.0766 42.5874 40.9996 39.7074 41.6876C37.8924 42.1216 36.8514 44.0276 37.4674 45.7886C38.4454 48.5826 35.3734 51.0596 32.8504 49.5086C31.2604 48.5326 29.1764 49.1446 28.3674 50.8246C27.0834 53.4926 23.1604 53.0706 22.4714 50.1906C22.0384 48.3766 20.1314 47.3356 18.3714 47.9516C15.5764 48.9296 13.1004 45.8576 14.6504 43.3346C15.6274 41.7456 15.0144 39.6616 13.3354 38.8516C10.6674 37.5666 11.0884 33.6436 13.9684 32.9556C15.7824 32.5226 16.8234 30.6156 16.2084 28.8556C15.2294 26.0606 18.3014 23.5846 20.8254 25.1346C22.4144 26.1106 24.4994 25.4986 25.3074 23.8186C26.5924 21.1506 30.5154 21.5726 31.2044 24.4526C31.6364 26.2666 33.5444 27.3076 35.3034 26.6916C38.0984 25.7136 40.5744 28.7866 39.0244 31.3096" fill="#F1758E"/><g id="Group 27"><path id="Fill 25" fill-rule="evenodd" clip-rule="evenodd" d="M108.016 14.7236V14.7236C107.253 17.9076 103.906 19.7346 100.815 18.6516C95.909 16.9326 91.559 22.3256 94.279 26.7566C95.992 29.5476 94.915 33.2066 91.965 34.6266C87.28 36.8806 88.018 43.7686 93.075 44.9786C96.259 45.7416 98.085 49.0896 97.003 52.1796C95.285 57.0866 100.677 61.4356 105.108 58.7156C107.899 57.0026 111.558 58.0786 112.978 61.0296V61.0296C115.232 65.7146 122.12 64.9766 123.33 59.9206V59.9196C124.092 56.7356 127.441 54.9096 130.531 55.9916C135.438 57.7106 139.786 52.3176 137.067 47.8866C135.354 45.0966 136.43 41.4366 139.381 40.0166C144.066 37.7636 143.328 30.8746 138.272 29.6646C135.087 28.9026 133.26 25.5536 134.343 22.4636C136.062 17.5566 130.669 13.2076 126.238 15.9276C123.448 17.6406 119.788 16.5646 118.369 13.6146C116.115 8.92862 109.226 9.66662 108.016 14.7236" fill="#3A3E5B"/></g><path id="Fill 28" fill-rule="evenodd" clip-rule="evenodd" d="M111.308 24.439V24.439C110.873 26.254 108.964 27.296 107.203 26.679C104.406 25.698 101.926 28.773 103.477 31.299C104.454 32.89 103.84 34.976 102.158 35.785C99.4871 37.07 99.9081 40.997 102.79 41.687C104.606 42.122 105.647 44.03 105.03 45.792C104.05 48.589 107.124 51.068 109.65 49.518C111.241 48.542 113.328 49.155 114.136 50.837C115.421 53.508 119.348 53.087 120.038 50.205C120.473 48.389 122.381 47.348 124.143 47.965C126.941 48.945 129.42 45.871 127.87 43.345C126.893 41.754 127.506 39.668 129.188 38.858H129.189C131.86 37.573 131.439 33.647 128.556 32.957C126.741 32.522 125.7 30.613 126.317 28.852C127.296 26.054 124.222 23.575 121.696 25.126C120.105 26.102 118.019 25.489 117.209 23.807C115.924 21.136 111.997 21.556 111.308 24.439" fill="#F1758E"/></g></g></g><g id="Clothes/Poh" transform="translate(272.816 424.359) scale(1.5749100116120667 1.575855518209523)"><g id="Clothes/Poh/Water Waves"><g id="Clothes"><g id="Group 33"><path id="Fill 31" fill-rule="evenodd" clip-rule="evenodd" d="M8.04207 12.2172L8.27307 12.4332C10.3191 14.3882 12.9271 14.3882 14.9721 12.4332L15.1151 12.2972C17.1741 10.3282 19.8031 10.3432 21.8531 12.3342C23.9161 14.3382 26.5641 14.3382 28.6281 12.3342C30.6781 10.3432 33.3061 10.3282 35.3651 12.2962L35.4991 12.4242C37.5441 14.3792 40.1511 14.3792 42.1971 12.4242L42.3581 12.2702C44.4031 10.3162 47.0111 10.3162 49.0561 12.2702L49.1621 12.3712C51.2071 14.3252 53.8141 14.3252 55.8601 12.3712L56.0771 12.1642C58.1221 10.2102 60.7301 10.2102 62.7741 12.1642L62.8811 12.2652C64.9261 14.2202 67.5331 14.2202 69.5781 12.2652L69.6291 12.2172C71.6751 10.2632 74.2821 10.2632 76.3271 12.2172L76.4491 12.3332C78.4941 14.2882 81.1021 14.2882 83.1461 12.3332L83.2311 12.2532C85.2761 10.2982 87.8841 10.2982 89.9291 12.2532L90.0231 12.3432C92.0681 14.2972 94.6771 14.2972 96.7221 12.3432L96.9501 12.1252C98.9951 10.1702 101.603 10.1702 103.647 12.1252L103.834 12.3022C105.879 14.2572 108.449 14.1722 110.494 12.2172C115.096 16.2012 118.019 22.0722 118.019 28.6362C118.019 35.2002 115.096 41.0712 110.494 45.0542C115.096 49.0392 118.019 54.9092 118.019 61.4732C118.019 68.0382 115.096 73.9082 110.494 77.8932C115.096 81.8772 118.019 87.7472 118.019 94.3112C118.019 106.311 108.291 116.04 96.2911 116.04H20.4511L20.4531 115.949C9.29407 115.035 0.518066 105.706 0.518066 94.3112C0.518066 87.7472 3.44107 81.8772 8.04207 77.8932C3.44107 73.9082 0.518066 68.0382 0.518066 61.4732C0.518066 54.9092 3.44107 49.0392 8.04207 45.0542C3.44107 41.0712 0.518066 35.2002 0.518066 28.6362C0.518066 22.0722 3.44107 16.2012 8.04207 12.2172" fill="#41AFE4"/></g><path id="Fill 34" fill-rule="evenodd" clip-rule="evenodd" d="M109.564 62.372C100.044 62.76 99.7556 51.401 92.2136 55.227C85.4676 58.649 81.5567 60.861 79.7227 55.898C78.4307 52.401 79.0187 49.535 75.8917 47.503C74.1647 46.38 72.0407 46.044 69.9797 45.993C62.1547 45.8 54.3337 49.585 49.6287 55.842C47.8387 58.224 46.4437 61.196 47.0347 64.118C47.8347 68.069 51.9257 70.468 55.8387 71.44C59.7517 72.413 63.9347 72.501 67.5667 74.253C71.1987 76.006 74.1247 80.323 72.4857 84.007C70.9627 87.429 66.2627 88.772 65.2157 92.369C64.3047 95.498 66.8257 98.76 69.8427 99.992C72.8607 101.224 76.2377 101.017 79.4957 101.101C80.7127 101.132 81.9977 101.229 83.0027 101.916C84.8147 103.156 84.9977 105.747 84.7167 107.924C84.3417 110.846 83.3896 113.802 81.5206 116.04H96.2906C108.292 116.04 118.019 106.311 118.019 94.311C118.019 93.213 117.931 92.136 117.773 91.082C117.439 91.121 117.109 91.157 116.765 91.202C109.573 92.143 104.732 99.724 102.367 101.049C92.5926 106.522 85.8146 86.905 105.678 85.373C108.892 85.125 112.111 84.555 115.175 83.595C113.945 81.438 112.361 79.508 110.495 77.893C115.096 73.908 118.019 68.038 118.019 61.474C118.019 60.034 117.871 58.631 117.603 57.271C115.782 60.155 112.999 62.232 109.564 62.372" fill="#CBD3D8"/><path id="Fill 36" fill-rule="evenodd" clip-rule="evenodd" d="M59.2568 10.7163C59.2148 10.7183 59.1728 10.7263 59.1308 10.7293C59.1388 10.8003 59.1418 10.8693 59.1568 10.9423L59.2568 10.7163Z" fill="#CBD3D8"/><path id="Fill 38" fill-rule="evenodd" clip-rule="evenodd" d="M103.834 12.3027L103.647 12.1247C101.603 10.1707 98.9953 10.1707 96.9503 12.1247L96.7223 12.3427C94.6773 14.2977 92.0693 14.2977 90.0233 12.3427L89.9293 12.2527C87.8843 10.2987 85.2763 10.2987 83.2313 12.2527L83.1473 12.3337C81.1023 14.2877 78.4943 14.2877 76.4483 12.3337L76.3273 12.2177C74.2823 10.2627 71.6753 10.2627 69.6293 12.2177L69.5793 12.2657C67.5333 14.2197 64.9263 14.2197 62.8813 12.2657L62.7743 12.1647C61.7173 11.1537 60.5093 10.6767 59.3053 10.7117C58.6133 14.1357 57.9443 17.6647 58.6303 21.0877C59.3273 24.5717 61.7953 27.9537 65.2903 28.5947C70.1573 29.4877 74.1603 25.1257 78.0093 22.0157C81.6693 19.0587 86.4563 16.9207 91.0293 18.0277C95.6033 19.1347 99.1333 24.5877 96.9393 28.7497C96.1793 30.1937 94.8763 31.2947 94.1103 32.7357C91.9253 36.8537 96.1303 42.6507 100.724 41.8507C104.083 41.2657 106.399 38.1237 109.567 36.8597C112.167 35.8217 114.286 36.4147 115.924 37.9287C117.265 35.1127 118.019 31.9647 118.019 28.6357C118.019 22.6337 115.569 17.2147 111.632 13.2837C110.966 13.3047 110.292 13.1547 109.646 12.8957C107.77 14.1527 105.605 13.9947 103.834 12.3027" fill="#CBD3D8"/><path id="Fill 40" fill-rule="evenodd" clip-rule="evenodd" d="M50.4836 87.3056C45.6906 80.7196 35.0186 79.5336 28.8956 84.9066C27.0896 86.4906 25.6926 88.4986 23.8766 90.0706C21.7766 91.8866 19.0206 93.0906 16.2576 92.8266C13.4946 92.5626 10.8296 90.6016 10.2366 87.8896C8.66758 80.7126 20.6516 76.8496 20.7216 69.5026C20.7576 65.6626 17.4136 62.6756 14.0746 60.7776C10.7366 58.8796 6.94158 57.3496 4.77158 54.1816C4.13358 53.2516 3.65358 52.2166 3.08358 51.2456C1.44858 54.2926 0.517578 57.7726 0.517578 61.4736C0.517578 68.0376 3.44058 73.9086 8.04258 77.8926C3.44058 81.8766 0.517578 87.7466 0.517578 94.3106C0.517578 105.707 9.29458 115.036 20.4546 115.95L20.4516 116.04H22.4826C28.4926 111.107 38.9946 112.846 46.1306 108.587C53.1266 104.412 55.2776 93.8916 50.4836 87.3056" fill="#CBD3D8"/><path id="Fill 42" fill-rule="evenodd" clip-rule="evenodd" d="M10.2619 15.4428C13.4809 22.0468 2.74689 28.6298 4.41389 35.7858C5.28489 39.5258 9.24089 41.6388 12.9329 42.6948C16.6239 43.7518 20.6729 44.3418 23.5309 46.9078C24.8019 48.0508 25.7639 49.5328 27.1629 50.5148C31.2739 53.3978 38.0179 49.4188 37.4829 44.4278C37.3849 43.5228 37.1009 42.6238 37.2119 41.7208C37.5069 39.3398 40.2739 38.1588 42.6579 37.8928C45.0409 37.6268 47.6949 37.7138 49.5049 36.1408C52.3659 33.6548 50.9709 28.6468 47.9759 26.3248C44.9809 24.0018 41.0439 23.4128 37.4619 22.1738C33.8809 20.9348 30.1749 18.4548 29.7049 14.6938C29.5599 13.5288 29.7409 12.4008 30.0989 11.2988C29.5889 11.5468 29.0929 11.8828 28.6279 12.3338C26.5649 14.3388 23.9159 14.3388 21.8529 12.3338C19.8029 10.3428 17.1749 10.3288 15.1159 12.2968L14.9719 12.4338C12.9269 14.3878 10.3199 14.3878 8.27489 12.4338L8.04189 12.2168C7.84489 12.3888 7.65489 12.5678 7.46289 12.7458C8.65989 13.3318 9.67689 14.2418 10.2619 15.4428" fill="#CBD3D8"/><path id="Fill 44" fill-rule="evenodd" clip-rule="evenodd" d="M60.4776 10.9272C60.4776 10.9272 51.6526 1.4242 39.3666 0.3862C39.3666 0.3862 36.4246 10.5952 39.3666 21.4972C39.3666 21.4972 51.4796 19.3912 60.4776 10.9272" fill="#FFCC37"/><path id="Fill 46" fill-rule="evenodd" clip-rule="evenodd" d="M58.0586 10.9272C58.0586 10.9272 66.8836 1.4242 79.1706 0.3862C79.1706 0.3862 82.1126 10.5952 79.1706 21.4972C79.1706 21.4972 67.0576 19.3912 58.0586 10.9272" fill="#FFCC37"/></g></g></g></g><g id="Group 96"><g id="Window 2" transform="translate(487.494 307.205) scale(1.569124810314533 1.3550176428468435)"><g id="Window 2/Periwinkle Picture"><path id="Fill 1" fill-rule="evenodd" clip-rule="evenodd" d="M0.917969 297.881H268.801V0H0.917969V297.881ZM10.918 287.881H258.8V10H10.918V287.881Z" fill="#96A5D4"/><path id="Fill 1_2" fill-rule="evenodd" clip-rule="evenodd" d="M10.918 287.882H258.8V10H10.918V287.882Z" fill="white"/></g></g><g id="Master/Worms/Jae" transform="translate(573.316 312.309) scale(1.209659715823557 1.214420669797867)"><g id="Master/Worms/Jae"><g id="Body/Jae" transform="translate(47.918 130.42) scale(1 1)"><g id="Body/Jae/Yellow"><g id="Group 9"><path id="Fill 1" fill-rule="evenodd" clip-rule="evenodd" d="M0.000732422 104.107V183.221H208.214V104.107C208.214 46.61 161.604 0 104.108 0C46.6107 0 0.000732422 46.61 0.000732422 104.107Z" fill="#FFCC37"/><path id="Fill 3" fill-rule="evenodd" clip-rule="evenodd" d="M100.977 63.6694C100.977 83.3654 85.0099 99.3324 65.3139 99.3324C45.6189 99.3324 29.6519 83.3654 29.6519 63.6694C29.6519 43.9734 45.6189 28.0064 65.3139 28.0064C85.0099 28.0064 100.977 43.9734 100.977 63.6694" fill="#F9A471"/><path id="Fill 5" fill-rule="evenodd" clip-rule="evenodd" d="M178.563 63.6694C178.563 83.3654 162.596 99.3324 142.9 99.3324C123.205 99.3324 107.238 83.3654 107.238 63.6694C107.238 43.9734 123.205 28.0064 142.9 28.0064C162.596 28.0064 178.563 43.9734 178.563 63.6694" fill="#F9A471"/><path id="Fill 7" fill-rule="evenodd" clip-rule="evenodd" d="M0 183.22H208.214V112.696H0V183.22Z" fill="#E4AC23"/></g></g></g><g id="Eyes/Jae" transform="translate(124.918 186.42) scale(1 1)"><g id="Eyes/Jae/Happy"><g id="Group 5"><path id="Stroke 1 (Stroke)" fill-rule="evenodd" clip-rule="evenodd" d="M46.3226 16.2379C45.7237 15.5727 44.8161 14.951 43.3532 15.0029L43.3531 15.0029C41.7504 15.0597 40.828 15.7321 40.2774 16.3489C39.9874 16.6737 39.7911 16.997 39.6702 17.2335C39.6105 17.3502 39.5717 17.4409 39.5507 17.4932C39.5415 17.5164 39.5359 17.5316 39.5337 17.5376C39.1914 18.5763 38.0761 19.1489 37.0306 18.8179C35.9776 18.4845 35.3942 17.3605 35.7276 16.3075L37.6343 16.9112C35.7276 16.3075 35.7279 16.3064 35.7283 16.3054L35.7289 16.3033L35.7304 16.2988L35.7337 16.2886L35.7418 16.2641C35.7479 16.2459 35.7554 16.224 35.7645 16.1986C35.7825 16.1479 35.8066 16.0832 35.8373 16.0063C35.8987 15.853 35.9875 15.6496 36.1088 15.4124C36.3499 14.9409 36.7291 14.3171 37.2935 13.685C38.4516 12.3877 40.3532 11.1067 43.2115 11.0054M46.3226 16.2379C46.6351 16.5849 46.8575 16.9421 47.0003 17.2126ZM47.0003 17.2126C47.0705 17.3457 47.1183 17.4517 47.1457 17.5164ZM47.1457 17.5164C47.1593 17.5485 47.1676 17.5698 47.1709 17.5785ZM47.1709 17.5785C47.1712 17.5793 47.1715 17.58 47.1717 17.5805ZM47.1717 17.5805C47.5384 18.6138 48.6704 19.1602 49.7089 18.8017C50.753 18.4413 51.3073 17.3028 50.9469 16.2586L49.0563 16.9112C50.9469 16.2586 50.9466 16.2577 50.9462 16.2568L50.9456 16.2548L50.9441 16.2507L50.9408 16.2411L50.9323 16.2175C50.9259 16.1998 50.9178 16.1781 50.9081 16.1527C50.8888 16.1019 50.8627 16.0361 50.8294 15.9575C50.763 15.8006 50.6671 15.5905 50.5376 15.3452C50.2809 14.8589 49.8796 14.2103 49.2951 13.5612C48.1 12.2341 46.1206 10.9023 43.2115 11.0054" fill="#101335"/><path id="Stroke 3 (Stroke)" fill-rule="evenodd" clip-rule="evenodd" d="M16.6895 16.2381C16.0903 15.5728 15.1824 14.951 13.7194 15.0029L13.7193 15.0029C12.1166 15.0597 11.1942 15.7321 10.6436 16.3489C10.3536 16.6737 10.1573 16.997 10.0364 17.2335C9.97673 17.3502 9.93789 17.4409 9.91695 17.4932C9.90766 17.5164 9.90207 17.5316 9.89989 17.5376C9.55759 18.5763 8.44227 19.1489 7.39684 18.8179C6.34379 18.4845 5.76041 17.3605 6.09383 16.3075L8.00054 16.9112C6.09383 16.3075 6.09415 16.3064 6.09447 16.3054L6.09515 16.3033L6.0966 16.2988L6.09988 16.2886L6.10799 16.2641C6.1141 16.2459 6.12163 16.224 6.13066 16.1986C6.1487 16.1479 6.1728 16.0832 6.20356 16.0063C6.26496 15.853 6.3537 15.6496 6.47501 15.4124C6.71608 14.9409 7.09533 14.3171 7.65972 13.685C8.81783 12.3877 10.7194 11.1067 13.5777 11.0054M16.6895 16.2381C17.0021 16.5851 17.2246 16.9424 17.3675 17.2129ZM17.3675 17.2129C17.4378 17.346 17.4856 17.4521 17.513 17.5168ZM17.513 17.5168C17.5266 17.5489 17.5349 17.5702 17.5382 17.5789ZM17.5382 17.5789C17.5385 17.5797 17.5388 17.5804 17.539 17.581ZM17.539 17.581C17.906 18.6141 19.0381 19.1602 20.0765 18.8016C21.1205 18.441 21.6746 17.3023 21.314 16.2582L19.4235 16.9112C21.314 16.2582 21.3136 16.2573 21.3133 16.2564L21.3126 16.2544L21.3112 16.2502L21.3078 16.2407L21.2994 16.2171C21.2929 16.1994 21.2849 16.1777 21.2752 16.1523C21.2558 16.1015 21.2297 16.0357 21.1964 15.9571C21.13 15.8002 21.034 15.5901 20.9045 15.3449C20.6477 14.8586 20.2462 14.2101 19.6616 13.561C18.4663 12.234 16.4867 10.9023 13.5777 11.0054" fill="#101335"/></g></g></g><g id="Mouth/Jae" transform="translate(132.77 206.476) scale(0.975 1)"><g id="Mouth/Jae/Smiling White"><g id="Group 3"><path id="Fill 1" fill-rule="evenodd" clip-rule="evenodd" d="M8.91797 2H32.827C32.827 2 31.393 14.56 20.268 14.56C9.14297 14.56 8.91797 2 8.91797 2" fill="white"/></g></g></g><g id="Hair/Jae" transform="translate(5.91797 0.420013) scale(1 1)"><g id="Hair/Jae/Flower Bun"><g id="Group 6"><g id="Group 3"><path id="Fill 1" fill-rule="evenodd" clip-rule="evenodd" d="M114.331 130.836C114.704 130.491 114.887 130.003 114.835 129.497C114.782 128.99 114.501 128.55 114.066 128.288C111.936 127.009 110.774 124.676 111.035 122.2C111.296 119.724 112.916 117.692 115.265 116.896C115.745 116.734 116.11 116.363 116.268 115.879C116.424 115.395 116.347 114.879 116.054 114.462C114.625 112.425 114.508 109.821 115.749 107.668C116.99 105.514 119.294 104.32 121.765 104.553C122.268 104.6 122.754 104.411 123.093 104.034C123.433 103.656 123.57 103.153 123.473 102.654C122.991 100.211 123.938 97.7856 125.945 96.3266C127.953 94.8676 130.543 94.7196 132.708 95.9406C133.148 96.1896 133.668 96.2156 134.132 96.0096C134.595 95.8036 134.925 95.4006 135.037 94.9046C135.587 92.4776 137.435 90.6516 139.861 90.1396C142.288 89.6276 144.716 90.5506 146.199 92.5476C146.504 92.9566 146.968 93.1916 147.475 93.1926C147.983 93.1926 148.447 92.9616 148.75 92.5546C150.236 90.5626 152.666 89.6506 155.091 90.1746C157.517 90.6986 159.363 92.5336 159.91 94.9626C160.022 95.4596 160.352 95.8636 160.815 96.0716C161.278 96.2796 161.797 96.2576 162.24 96.0096C164.405 94.7996 166.995 94.9586 169.001 96.4276C171.007 97.8956 171.951 100.325 171.468 102.767C171.369 103.266 171.507 103.769 171.846 104.148C172.185 104.528 172.669 104.719 173.174 104.674C175.643 104.453 177.947 105.657 179.186 107.817C180.425 109.976 180.305 112.579 178.874 114.61C178.581 115.025 178.503 115.541 178.659 116.026C178.816 116.51 179.181 116.883 179.66 117.048C182.008 117.855 183.627 119.895 183.885 122.372C184.143 124.849 182.978 127.176 180.848 128.445C180.412 128.705 180.132 129.143 180.078 129.65C180.025 130.156 180.208 130.645 180.579 130.992C182.398 132.687 183.053 135.21 182.285 137.577C181.518 139.943 179.515 141.587 177.048 141.88C176.544 141.939 176.11 142.225 175.856 142.665C175.603 143.106 175.571 143.627 175.771 144.095C176.748 146.386 176.323 148.956 174.663 150.803C173.003 152.649 170.5 153.336 168.132 152.592C167.647 152.441 167.135 152.525 166.725 152.822C166.314 153.121 166.075 153.584 166.067 154.093C166.033 156.582 164.603 158.755 162.337 159.763C160.071 160.773 157.505 160.373 155.642 158.728C155.26 158.392 154.757 158.259 154.262 158.363C153.766 158.468 153.358 158.793 153.146 159.255C152.106 161.513 149.92 162.913 147.438 162.907C144.959 162.901 142.773 161.491 141.735 159.228C141.523 158.765 141.117 158.439 140.621 158.332C140.125 158.225 139.623 158.355 139.24 158.69C137.374 160.327 134.809 160.711 132.544 159.692C130.278 158.674 128.852 156.495 128.819 154.005C128.812 153.496 128.573 153.032 128.164 152.731C127.754 152.431 127.242 152.345 126.757 152.495C124.382 153.222 121.886 152.529 120.227 150.675C118.569 148.82 118.147 146.248 119.126 143.962C119.326 143.494 119.296 142.974 119.042 142.532C118.789 142.091 118.355 141.803 117.852 141.741C115.39 141.442 113.385 139.783 112.62 137.413C111.854 135.043 112.511 132.523 114.331 130.836" fill="#41AFE4"/></g><path id="Fill 4" fill-rule="evenodd" clip-rule="evenodd" d="M170.546 126.453C170.546 139.112 160.284 149.374 147.625 149.374C134.967 149.374 124.704 139.112 124.704 126.453C124.704 113.794 134.967 103.532 147.625 103.532C160.284 103.532 170.546 113.794 170.546 126.453" fill="#775CA6"/></g></g></g><g id="Clothes/Jae" transform="translate(47.918 251.42) scale(1 1)"><g id="Clothes/Jae/Pink Polkas"><g id="Group 27"><path id="Fill 1" fill-rule="evenodd" clip-rule="evenodd" d="M0 64.5817H208.214V1.00067H0V64.5817Z" fill="#E0BFDB"/><g id="Group 26"><g id="Group 4"><path id="Fill 2" fill-rule="evenodd" clip-rule="evenodd" d="M166.273 35.7016C160.569 35.7016 155.945 31.0766 155.945 25.3726C155.945 19.6676 160.569 15.0436 166.273 15.0436C171.978 15.0436 176.603 19.6676 176.603 25.3726C176.603 31.0766 171.978 35.7016 166.273 35.7016M134.695 61.9646C128.991 61.9646 124.366 57.3406 124.366 51.6356C124.366 45.9306 128.991 41.3066 134.695 41.3066C140.4 41.3066 145.024 45.9306 145.024 51.6356C145.024 57.3406 140.4 61.9646 134.695 61.9646M88.493 39.9746C82.789 39.9746 78.164 35.3506 78.164 29.6456C78.164 23.9416 82.789 19.3166 88.493 19.3166C94.197 19.3166 98.822 23.9416 98.822 29.6456C98.822 35.3506 94.197 39.9746 88.493 39.9746M42.937 24.2376C37.232 24.2376 32.608 19.6136 32.608 13.9086C32.608 8.20357 37.232 3.57857 42.937 3.57857C48.642 3.57857 53.266 8.20357 53.266 13.9086C53.266 19.6136 48.642 24.2376 42.937 24.2376M201.912 49.4256C204.287 49.4256 206.469 50.2366 208.214 51.5846V9.64057C206.49 10.9346 204.353 11.7116 202.029 11.7116C196.325 11.7116 191.701 7.08657 191.701 1.38257C191.701 1.25357 191.714 1.12757 191.719 0.999573H135.523C136.032 2.22257 136.316 3.56157 136.316 4.96857C136.316 10.6726 131.691 15.2976 125.986 15.2976C120.282 15.2976 115.658 10.6726 115.658 4.96857C115.658 3.56157 115.941 2.22257 116.45 0.999573H0.000976562V31.9886C1.53698 31.0826 3.31998 30.5546 5.23198 30.5546C10.937 30.5546 15.561 35.1786 15.561 40.8836C15.561 46.5886 10.937 51.2126 5.23198 51.2126C3.31998 51.2126 1.53698 50.6836 0.000976562 49.7786V64.5816H32.728C32.658 64.0916 32.608 63.5946 32.608 63.0846C32.608 57.3796 37.232 52.7556 42.937 52.7556C48.642 52.7556 53.266 57.3796 53.266 63.0846C53.266 63.5946 53.216 64.0916 53.146 64.5816H192.783C192.019 63.1406 191.582 61.4996 191.582 59.7546C191.582 54.0496 196.207 49.4256 201.912 49.4256" fill="#E0BFDB"/></g><path id="Fill 5" fill-rule="evenodd" clip-rule="evenodd" d="M125.986 15.2972C131.691 15.2972 136.316 10.6722 136.316 4.96824C136.316 3.56224 136.032 2.22224 135.523 1.00024H116.45C115.941 2.22224 115.658 3.56224 115.658 4.96824C115.658 10.6722 120.282 15.2972 125.986 15.2972" fill="#F285B6"/><path id="Fill 7" fill-rule="evenodd" clip-rule="evenodd" d="M88.4926 19.3169C82.7886 19.3169 78.1636 23.9419 78.1636 29.6459C78.1636 35.3509 82.7886 39.9749 88.4926 39.9749C94.1966 39.9749 98.8216 35.3509 98.8216 29.6459C98.8216 23.9419 94.1966 19.3169 88.4926 19.3169" fill="#F285B6"/><path id="Fill 9" fill-rule="evenodd" clip-rule="evenodd" d="M134.695 41.3066C128.991 41.3066 124.366 45.9316 124.366 51.6356C124.366 57.3406 128.991 61.9646 134.695 61.9646C140.4 61.9646 145.024 57.3406 145.024 51.6356C145.024 45.9316 140.4 41.3066 134.695 41.3066" fill="#F285B6"/><path id="Fill 11" fill-rule="evenodd" clip-rule="evenodd" d="M166.273 15.0434C160.569 15.0434 155.945 19.6684 155.945 25.3724C155.945 31.0774 160.569 35.7014 166.273 35.7014C171.978 35.7014 176.603 31.0774 176.603 25.3724C176.603 19.6684 171.978 15.0434 166.273 15.0434" fill="#F285B6"/><g id="Group 15"><path id="Fill 13" fill-rule="evenodd" clip-rule="evenodd" d="M202.029 11.7114C204.353 11.7114 206.49 10.9354 208.215 9.64037V1.00037H191.719C191.715 1.12837 191.701 1.25337 191.701 1.38237C191.701 7.08637 196.325 11.7114 202.029 11.7114" fill="#F285B6"/></g><g id="Group 18"><path id="Fill 16" fill-rule="evenodd" clip-rule="evenodd" d="M208.214 51.5849C206.469 50.2359 204.286 49.4259 201.911 49.4259C196.206 49.4259 191.581 54.0499 191.581 59.7549C191.581 61.4999 192.019 63.1409 192.782 64.5819H208.214V51.5849Z" fill="#F285B6"/></g><path id="Fill 19" fill-rule="evenodd" clip-rule="evenodd" d="M42.9369 3.5791C37.2319 3.5791 32.6079 8.2041 32.6079 13.9081C32.6079 19.6131 37.2319 24.2371 42.9369 24.2371C48.6419 24.2371 53.2659 19.6131 53.2659 13.9081C53.2659 8.2041 48.6419 3.5791 42.9369 3.5791" fill="#F285B6"/><path id="Fill 21" fill-rule="evenodd" clip-rule="evenodd" d="M42.9369 52.7552C37.2319 52.7552 32.6079 57.3802 32.6079 63.0842C32.6079 63.5942 32.6579 64.0912 32.7279 64.5812H53.1459C53.2159 64.0912 53.2659 63.5942 53.2659 63.0842C53.2659 57.3802 48.6419 52.7552 42.9369 52.7552" fill="#F285B6"/><g id="Group 25"><path id="Fill 23" fill-rule="evenodd" clip-rule="evenodd" d="M15.561 40.8837C15.561 35.1787 10.937 30.5547 5.232 30.5547C3.32 30.5547 1.537 31.0827 0 31.9877V49.7787C1.537 50.6837 3.32 51.2127 5.232 51.2127C10.937 51.2127 15.561 46.5887 15.561 40.8837" fill="#F285B6"/></g></g></g></g></g></g></g><g id="Master/Worms/Mol" transform="translate(408.258 312.309) scale(1.209659715823557 1.214420669797867)"><g id="Master/Worms/Mol"><g id="Body/Mol" transform="translate(99.918 45.84) scale(1 1)"><g id="Body/Mol/Charcoal"><g id="Group 11"><g id="Group 3"><path id="Fill 1" fill-rule="evenodd" clip-rule="evenodd" d="M7.22485 70.6674V268.041H96.5609V70.6674C96.5609 45.9984 76.5629 25.9994 51.8929 25.9994C27.2239 25.9994 7.22485 45.9984 7.22485 70.6674Z" fill="#3A3E5B"/></g><g id="Group 6"><path id="Fill 4" fill-rule="evenodd" clip-rule="evenodd" d="M49.7115 71.0883C49.7115 84.8163 38.5835 95.9443 24.8555 95.9443C11.1285 95.9443 -0.000488281 84.8163 -0.000488281 71.0883C-0.000488281 57.3603 11.1285 46.2333 24.8555 46.2333C38.5835 46.2333 49.7115 57.3603 49.7115 71.0883" fill="#F06647"/></g><path id="Fill 7" fill-rule="evenodd" clip-rule="evenodd" d="M103.786 71.0883C103.786 84.8163 92.658 95.9443 78.93 95.9443C65.203 95.9443 54.075 84.8163 54.075 71.0883C54.075 57.3603 65.203 46.2333 78.93 46.2333C92.658 46.2333 103.786 57.3603 103.786 71.0883" fill="#F06647"/><path id="Fill 9" fill-rule="evenodd" clip-rule="evenodd" d="M7.22485 268.042H96.4899V123.015H7.22485V268.042Z" fill="#252A42"/></g></g></g><g id="Eyes/Mol" transform="translate(127.918 109.84) scale(1 1)"><g id="Eyes/Mol/Angry"><g id="Group 6"><g id="Group 3"><path id="Fill 1" fill-rule="evenodd" clip-rule="evenodd" d="M8.002 14.8913C7.345 14.8913 6.701 14.5673 6.319 13.9743C5.721 13.0453 5.988 11.8083 6.917 11.2093L11.889 8.0063L7.321 4.6043C6.436 3.9443 6.252 2.6913 6.912 1.8053C7.572 0.919305 8.825 0.736305 9.711 1.3963L15.604 5.7863C16.354 6.3453 16.783 7.2363 16.752 8.1713C16.72 9.1063 16.231 9.96731 15.445 10.4743L9.083 14.5723C8.748 14.7873 8.373 14.8913 8.002 14.8913" fill="#101335"/></g><path id="Fill 4" fill-rule="evenodd" clip-rule="evenodd" d="M38.3497 14.8908C37.9457 14.8908 37.5367 14.7688 37.1837 14.5148L31.3037 10.2878C30.5427 9.7418 30.0987 8.8578 30.1157 7.9218C30.1307 6.9868 30.6047 6.1188 31.3827 5.5988L37.7547 1.3378C38.6737 0.723803 39.9157 0.970803 40.5297 1.8888C41.1427 2.8068 40.8967 4.0488 39.9787 4.6628L34.9797 8.0048L39.5177 11.2668C40.4147 11.9118 40.6197 13.1618 39.9747 14.0578C39.5847 14.6018 38.9717 14.8908 38.3497 14.8908" fill="#101335"/></g></g></g><g id="Mouth/Mol" transform="translate(133.656 123.909) scale(0.9736842105263158 1)"><g id="Mouth/Mol/Suprised"><g id="Group 3"><path id="Fill 1" fill-rule="evenodd" clip-rule="evenodd" d="M27.996 10.0387C27.996 15.0307 23.949 19.0777 18.957 19.0777C13.965 19.0777 9.91797 15.0307 9.91797 10.0387C9.91797 5.0467 13.965 0.9997 18.957 0.9997C23.949 0.9997 27.996 5.0467 27.996 10.0387" fill="white"/></g></g></g><g id="Hair/Mol" transform="translate(88.918 7.84003) scale(1 1)"><g id="Hair/Mol/Easter Bunny"><g id="Group 19"><path id="Fill 1" fill-rule="evenodd" clip-rule="evenodd" d="M44.6092 66.9312C44.3962 66.6482 23.3582 38.3552 32.3772 11.4302L32.8042 10.1552L33.9022 10.9302C34.7082 11.5002 53.6132 25.3261 51.8772 64.7831L51.8452 65.4992L45.0252 67.4802L44.6092 66.9312Z" fill="white"/><path id="Fill 3" fill-rule="evenodd" clip-rule="evenodd" d="M32.2826 8.56201L31.4286 11.112C27.6136 22.501 28.5546 35.882 34.1516 49.81C38.3426 60.24 43.5896 67.241 43.8106 67.534L44.6416 68.633L45.9646 68.249L51.4356 66.659L52.8126 66.259L52.8756 64.827C54.6356 24.831 35.3036 10.696 34.4786 10.114L32.2826 8.56201ZM33.3246 11.747C33.3246 11.747 52.6096 25.374 50.8776 64.739L45.4066 66.328C45.4066 66.328 24.3686 38.484 33.3246 11.747V11.747Z" fill="#E0BFDB"/><path id="Fill 5" fill-rule="evenodd" clip-rule="evenodd" d="M46.8065 65.9214C46.8065 65.9214 31.4755 35.4334 38.6755 33.3414C45.8745 31.2504 49.4405 65.1564 49.4405 65.1564L46.8065 65.9214Z" fill="#ED6389"/><path id="Fill 7" fill-rule="evenodd" clip-rule="evenodd" d="M73.5143 65.4902L73.5123 64.7412C73.3923 25.3362 90.7163 11.5242 91.4533 10.9552L92.5983 10.0732L93.0203 11.4552C101.408 38.9132 80.9903 66.6502 80.7833 66.9272L80.3683 67.4812L73.5143 65.4902Z" fill="white"/><path id="Fill 9" fill-rule="evenodd" clip-rule="evenodd" d="M93.1314 8.39795L90.8414 10.1639C90.0884 10.7439 72.3904 24.8509 72.5104 64.7449L72.5154 66.242L73.9534 66.659L79.4234 68.249L80.7534 68.6349L81.5834 67.5259C82.4414 66.3779 102.51 39.1019 93.9764 11.1629L93.1314 8.39795ZM92.0634 11.7469C100.399 39.0379 79.9814 66.328 79.9814 66.328L74.5104 64.7389C74.3914 25.3739 92.0634 11.7469 92.0634 11.7469V11.7469Z" fill="#E0BFDB"/><path id="Fill 11" fill-rule="evenodd" clip-rule="evenodd" d="M78.5813 65.9214C78.5813 65.9214 93.9123 35.4334 86.7123 33.3414C79.5133 31.2504 75.9473 65.1564 75.9473 65.1564L78.5813 65.9214Z" fill="#ED6389"/><path id="Fill 13" fill-rule="evenodd" clip-rule="evenodd" d="M98.386 76.602C89.356 67.267 76.707 61.454 62.693 61.454C48.679 61.454 36.03 67.267 27 76.602L37.763 73.738L42.063 76.602L49.231 71.377L57.327 76.602L64.271 71.714L71.327 76.602L78.58 69.859L84.821 76.602L90.163 73.823L98.386 76.602Z" fill="#FFCC37"/><path id="Fill 15" fill-rule="evenodd" clip-rule="evenodd" d="M98.1895 25.3901C93.4345 25.3901 88.6315 24.4261 83.9135 22.5231L82.8945 22.1131L83.3985 21.1371C83.5525 20.8381 87.2405 13.7741 92.7205 9.62211L93.2655 9.20911L93.8475 9.56611C94.1855 9.77311 102.176 14.7281 107.402 22.6341L108.093 23.6791L106.921 24.1211C106.784 24.1731 103.496 25.3901 98.1895 25.3901" fill="white"/><path id="Fill 17" fill-rule="evenodd" clip-rule="evenodd" d="M93.206 8L92.117 8.825C86.458 13.112 82.669 20.371 82.511 20.679L81.502 22.63L83.539 23.451C88.377 25.401 93.307 26.391 98.19 26.391C103.676 26.391 107.13 25.111 107.274 25.057L109.618 24.173L108.237 22.083C102.89 13.994 94.716 8.926 94.371 8.714L93.206 8ZM93.325 10.419C93.325 10.419 101.404 15.374 106.568 23.186C106.568 23.186 103.375 24.391 98.19 24.391C94.444 24.391 89.659 23.762 84.287 21.596C84.287 21.596 87.962 14.481 93.325 10.419V10.419Z" fill="#E0BFDB"/></g></g></g><g id="Clothes/Mol" transform="translate(107.117 168.84) scale(1 1)"><g id="Clothes/Mol/Lavender Polkas"><g id="Group 39"><path id="Fill 1" fill-rule="evenodd" clip-rule="evenodd" d="M0 146.02H89.337V11.853H0V146.02Z" fill="#4FA480"/><g id="Group 38"><path id="Fill 2" fill-rule="evenodd" clip-rule="evenodd" d="M75.228 13.0004C75.228 20.8394 81.524 27.1994 89.336 27.3254V11.8004H75.289C75.255 12.1964 75.228 12.5954 75.228 13.0004" fill="#E0BFDB"/><path id="Fill 4" fill-rule="evenodd" clip-rule="evenodd" d="M75.228 46.6469C75.228 54.4859 81.524 60.8449 89.336 60.9719V32.3219C81.524 32.4479 75.228 38.8079 75.228 46.6469" fill="#E0BFDB"/><path id="Fill 6" fill-rule="evenodd" clip-rule="evenodd" d="M75.228 80.2929C75.228 88.1319 81.524 94.4919 89.336 94.6179V65.9679C81.524 66.0949 75.228 72.4549 75.228 80.2929" fill="#E0BFDB"/><path id="Fill 8" fill-rule="evenodd" clip-rule="evenodd" d="M75.228 113.939C75.228 121.778 81.524 128.138 89.336 128.264V99.6144C81.524 99.7414 75.228 106.1 75.228 113.939" fill="#E0BFDB"/><path id="Fill 10" fill-rule="evenodd" clip-rule="evenodd" d="M75.3184 146.02H89.3364V133.261C82.0524 133.379 76.0914 138.917 75.3184 146.02" fill="#E0BFDB"/><path id="Fill 12" fill-rule="evenodd" clip-rule="evenodd" d="M29.7009 27.35C37.6219 27.35 44.0429 20.932 44.0429 13.014C44.0429 12.604 44.0159 12.201 43.9819 11.8H15.4199C15.3859 12.201 15.3589 12.604 15.3589 13.014C15.3589 20.932 21.7799 27.35 29.7009 27.35" fill="#E0BFDB"/><path id="Fill 14" fill-rule="evenodd" clip-rule="evenodd" d="M29.7009 32.3227C21.7799 32.3227 15.3589 38.7417 15.3589 46.6597C15.3589 54.5777 21.7799 60.9967 29.7009 60.9967C37.6219 60.9967 44.0429 54.5777 44.0429 46.6597C44.0429 38.7417 37.6219 32.3227 29.7009 32.3227" fill="#E0BFDB"/><path id="Fill 16" fill-rule="evenodd" clip-rule="evenodd" d="M29.7009 65.9691C21.7799 65.9691 15.3589 72.3881 15.3589 80.3051C15.3589 88.2241 21.7799 94.6421 29.7009 94.6421C37.6219 94.6421 44.0429 88.2241 44.0429 80.3051C44.0429 72.3881 37.6219 65.9691 29.7009 65.9691" fill="#E0BFDB"/><path id="Fill 18" fill-rule="evenodd" clip-rule="evenodd" d="M29.7009 99.6156C21.7799 99.6156 15.3589 106.035 15.3589 113.952C15.3589 121.87 21.7799 128.289 29.7009 128.289C37.6219 128.289 44.0429 121.87 44.0429 113.952C44.0429 106.035 37.6219 99.6156 29.7009 99.6156" fill="#E0BFDB"/><path id="Fill 20" fill-rule="evenodd" clip-rule="evenodd" d="M29.7007 133.262C22.3137 133.262 16.2367 138.846 15.4497 146.02H43.9517C43.1647 138.846 37.0877 133.262 29.7007 133.262" fill="#E0BFDB"/><path id="Fill 22" fill-rule="evenodd" clip-rule="evenodd" d="M59.6359 15.4872C51.7149 15.4872 45.2939 21.9052 45.2939 29.8232C45.2939 37.7412 51.7149 44.1602 59.6359 44.1602C67.5569 44.1602 73.9789 37.7412 73.9789 29.8232C73.9789 21.9052 67.5569 15.4872 59.6359 15.4872" fill="#E0BFDB"/><path id="Fill 24" fill-rule="evenodd" clip-rule="evenodd" d="M59.6359 49.1332C51.7149 49.1332 45.2939 55.5522 45.2939 63.4702C45.2939 71.3882 51.7149 77.8062 59.6359 77.8062C67.5569 77.8062 73.9789 71.3882 73.9789 63.4702C73.9789 55.5522 67.5569 49.1332 59.6359 49.1332" fill="#E0BFDB"/><path id="Fill 26" fill-rule="evenodd" clip-rule="evenodd" d="M59.6359 82.7797C51.7149 82.7797 45.2939 89.1977 45.2939 97.1157C45.2939 105.034 51.7149 111.453 59.6359 111.453C67.5569 111.453 73.9789 105.034 73.9789 97.1157C73.9789 89.1977 67.5569 82.7797 59.6359 82.7797" fill="#E0BFDB"/><path id="Fill 28" fill-rule="evenodd" clip-rule="evenodd" d="M59.6359 116.426C51.7149 116.426 45.2939 122.845 45.2939 130.763C45.2939 138.681 51.7149 145.099 59.6359 145.099C67.5569 145.099 73.9789 138.681 73.9789 130.763C73.9789 122.845 67.5569 116.426 59.6359 116.426" fill="#E0BFDB"/><path id="Fill 30" fill-rule="evenodd" clip-rule="evenodd" d="M14.1085 29.8363C14.1085 21.9973 7.81249 15.6383 0.000488281 15.5113V44.1613C7.81249 44.0353 14.1085 37.6753 14.1085 29.8363" fill="#E0BFDB"/><path id="Fill 32" fill-rule="evenodd" clip-rule="evenodd" d="M14.1085 63.4828C14.1085 55.6438 7.81249 49.2848 0.000488281 49.1578V77.8078C7.81249 77.6818 14.1085 71.3218 14.1085 63.4828" fill="#E0BFDB"/><path id="Fill 34" fill-rule="evenodd" clip-rule="evenodd" d="M14.1085 97.1288C14.1085 89.2908 7.81249 82.9308 0.000488281 82.8038V111.454C7.81249 111.328 14.1085 104.968 14.1085 97.1288" fill="#E0BFDB"/><path id="Fill 36" fill-rule="evenodd" clip-rule="evenodd" d="M14.1085 130.775C14.1085 122.936 7.81249 116.577 0.000488281 116.45V145.1C7.81249 144.973 14.1085 138.614 14.1085 130.775" fill="#E0BFDB"/></g></g></g></g></g></g></g><path id="Fill 2" fill-rule="evenodd" clip-rule="evenodd" d="M851.299 222.32V333.166C851.299 337.517 847.773 341.045 843.424 341.045H679.575L642.378 372.761V341.045H598.822C594.474 341.045 590.947 337.517 590.947 333.166V222.32C590.947 217.969 594.474 214.441 598.822 214.441H843.424C847.773 214.441 851.299 217.969 851.299 222.32" fill="#41AFE4"/></g><g id="Rectangle 3"><rect x="614.631" y="249" width="210.873" height="8" fill="white"/><rect x="614.631" y="249" width="210.873" height="8" fill="white"/></g><g id="Rectangle 4"><rect x="682.59" y="272" width="142.914" height="8" fill="white"/><rect x="682.59" y="272" width="142.914" height="8" fill="white"/></g><path id="Fill 1" fill-rule="evenodd" clip-rule="evenodd" d="M250.85 40.6756V162.723C250.85 167.514 254.732 171.399 259.52 171.399H439.928L480.885 206.32V171.399H528.842C533.63 171.399 537.513 167.514 537.513 162.723V40.6756C537.513 35.8849 533.63 32 528.842 32H259.52C254.732 32 250.85 35.8849 250.85 40.6756" fill="#80D5FF"/><g id="Rectangle 3_2"><rect x="290.826" y="79" width="210.873" height="8" fill="white"/><rect x="290.826" y="79" width="210.873" height="8" fill="white"/></g><g id="Rectangle 4_2"><rect x="290.826" y="102" width="210.873" height="8" fill="white"/><rect x="290.826" y="102" width="210.873" height="8" fill="white"/></g><g id="Rectangle 5"><rect x="290.826" y="122" width="75.9544" height="8" fill="white"/><rect x="290.826" y="122" width="75.9544" height="8" fill="white"/></g></g></svg>