<svg viewBox="66.625 131.87956204379554 932.7500000000002 479.56204379562047" fill="none" xmlns="http://www.w3.org/2000/svg" xmlns:xlink="http://www.w3.org/1999/xlink" overflow="visible" width="932.7500000000002px" height="479.56204379562047px"><g id="Master/Scene/Favourite Meal"><g id="Background" transform="translate(53.3008 97.3334) scale(1.33250003390842 1.216666639173353)"><g id="Background/Blobs"><g id="Group 7"><g id="Group 3"><path id="Fill 1" fill-rule="evenodd" clip-rule="evenodd" d="M293.2 148.153C298.708 140.606 304.359 132.745 306.214 123.588C308.068 114.429 305.01 103.571 296.716 99.2672C281.758 91.5072 262.524 109.027 247.546 101.307C238.749 96.7732 236.014 85.7562 233.916 76.0842C231.817 66.4122 228.244 55.3932 218.972 51.9292C209.616 48.4342 199.57 54.5852 191.949 61.0422C184.328 67.4992 176.094 75.0272 166.11 74.7102C155.939 74.3862 148.094 66.0402 138.974 61.5232C128.09 56.1332 114.339 56.5112 104.212 63.2172C94.0853 69.9232 88.3263 82.9832 91.0033 94.8312C93.1143 104.174 99.9723 113.005 97.7753 122.327C96.1163 129.366 89.5993 134.259 82.8713 136.91C76.1423 139.561 68.8543 140.59 62.1643 143.335C52.3673 147.355 43.9723 155.442 41.0433 165.619C38.1143 175.796 41.4273 187.869 50.0393 194.03C57.6123 199.447 68.4273 200.236 74.1563 207.576C81.3393 216.778 76.3053 230.068 71.1543 240.543C66.0013 251.017 61.2233 264.497 68.7193 273.446C74.8073 280.715 85.7613 280.778 95.2273 280.237C100.367 279.944 105.507 279.65 110.647 279.356C113.1 279.216 115.688 279.102 117.876 280.22C120.581 281.602 122.067 284.54 123.267 287.331C127.527 297.232 130.505 307.802 136.459 316.789C142.412 325.774 152.37 333.164 163.107 332.21C178.167 330.872 189.846 314.005 204.762 316.48C213.464 317.925 219.539 325.547 226.632 330.792C238.469 339.545 255.172 341.757 268.394 335.283C281.616 328.808 290.244 313.442 287.76 298.931C285.503 285.755 275.097 274.216 276.222 260.895C277.396 247.007 290.302 237.639 301.179 228.925C312.057 220.213 322.914 206.868 318.192 193.756C314.974 184.818 305.71 179.879 298.735 173.431C291.759 166.983 287.096 154.994 294.096 148.573" fill="#FFEBC0"/></g><g id="Group 6"><path id="Fill 4" fill-rule="evenodd" clip-rule="evenodd" d="M640.126 244.98C654.08 251.029 672.295 243.685 678.151 229.649C684.007 215.613 676.413 197.501 662.297 191.838C657.659 189.978 652.428 189.266 648.496 186.18C641.274 180.514 641.513 169.26 645.138 160.827C648.763 152.393 654.967 145.194 658.043 136.545C661.119 127.897 659.755 116.377 651.582 112.199C643.876 108.259 633.661 112.546 626.274 108.036C618.873 103.515 618.509 92.8703 620.55 84.4403C622.59 76.0103 626.151 67.2413 623.535 58.9713C618.614 43.4183 596.877 41.9523 581.319 46.8603C574.591 48.9823 567.435 51.7403 560.704 49.6283C554.621 47.7203 550.443 42.2903 545.347 38.4593C536.058 31.4793 522.923 30.0103 512.322 34.7673C501.721 39.5233 494.085 50.3113 493.124 61.8903C492.469 69.7723 494.609 78.1513 491.363 85.3623C486.043 97.1773 470.445 98.7873 458.096 102.711C438.117 109.061 420.944 130.619 428.147 150.306C433.345 164.514 449.675 174.524 449.208 189.645C448.607 209.157 419.873 221.671 424.581 240.616C429.456 260.232 461.896 256.158 473.353 272.811C479.032 281.066 477.92 292.338 482.447 301.277C487.829 311.906 500.382 317.263 512.287 317.692C524.193 318.12 535.82 314.535 547.357 311.563C551.65 310.458 556.193 309.434 560.462 310.627C566.604 312.345 570.552 318.096 575.284 322.372C584.935 331.092 599.515 333.934 611.734 329.476C623.953 325.018 633.278 313.456 635.046 300.569C636.41 290.632 633.588 280.544 634.325 270.542C635.062 260.538 641.538 249.425 651.567 249.296" fill="#E7ECF7"/></g></g></g></g><g id="Table" transform="translate(75.9531 420.147) scale(1.3305603649244906 1.216666673359118)"><g id="Table/Teal"><g id="Group 13"><g id="Group 3"><path id="Fill 1" fill-rule="evenodd" clip-rule="evenodd" d="M1.15625 126.356C1.15625 144.295 21.5132 155.251 36.0602 144.752C36.4492 144.471 36.8333 144.18 37.2113 143.877C47.7502 135.445 62.7273 135.445 73.2663 143.877L73.2673 143.878C83.8062 152.31 98.7823 152.31 109.322 143.878L109.325 143.876C119.864 135.444 134.839 135.443 145.378 143.875L145.386 143.88C155.925 152.311 170.9 152.311 181.438 143.879L181.444 143.876C191.982 135.444 206.958 135.444 217.497 143.875L217.503 143.88C228.042 152.311 243.017 152.311 253.556 143.879L253.561 143.876C264.1 135.444 279.075 135.444 289.614 143.876L289.62 143.88C300.159 152.311 315.134 152.311 325.673 143.88L325.68 143.875C336.219 135.443 351.194 135.443 361.732 143.874L361.742 143.881C372.281 152.312 387.255 152.312 397.793 143.881L397.803 143.874C408.342 135.443 423.317 135.444 433.856 143.876L433.86 143.878C444.399 152.31 459.374 152.311 469.913 143.878L469.919 143.875C480.457 135.444 495.432 135.443 505.97 143.874L505.981 143.882C516.519 152.312 531.493 152.312 542.031 143.882L542.044 143.873C552.582 135.442 567.555 135.442 578.094 143.872L578.108 143.883C588.646 152.313 603.619 152.313 614.158 143.882L614.172 143.872C624.71 135.442 639.682 135.441 650.221 143.87L650.24 143.885C650.617 144.187 650.999 144.477 651.386 144.756C665.931 155.254 686.288 144.296 686.288 126.359V96.1826H1.15625V126.356Z" fill="#F9A471"/></g><g id="Group 6"><path id="Fill 4" fill-rule="evenodd" clip-rule="evenodd" d="M1.15625 121.478C1.15625 139.417 21.5132 150.373 36.0602 139.874C36.4492 139.593 36.8333 139.301 37.2113 138.999C47.7502 130.567 62.7273 130.567 73.2663 138.999L73.2673 139C83.8062 147.432 98.7823 147.432 109.322 139L109.325 138.998C119.864 130.566 134.839 130.565 145.378 138.997L145.386 139.002C155.925 147.433 170.9 147.433 181.438 139.001L181.444 138.998C191.982 130.566 206.958 130.566 217.497 138.997L217.503 139.002C228.042 147.433 243.017 147.433 253.556 139.001L253.561 138.998C264.1 130.566 279.075 130.566 289.614 138.997L289.62 139.001C300.159 147.433 315.134 147.433 325.673 139.002L325.68 138.996C336.219 130.565 351.194 130.565 361.732 138.996L361.742 139.003C372.281 147.434 387.255 147.434 397.793 139.003L397.803 138.996C408.342 130.565 423.317 130.566 433.856 138.998L433.86 139C444.399 147.432 459.374 147.432 469.913 139L469.919 138.997C480.457 130.566 495.432 130.565 505.97 138.996L505.981 139.004C516.519 147.434 531.493 147.434 542.031 139.004L542.044 138.995C552.582 130.564 567.555 130.564 578.094 138.994L578.108 139.005C588.646 147.435 603.619 147.434 614.158 139.004L614.172 138.994C624.71 130.564 639.682 130.563 650.221 138.992L650.24 139.007C650.617 139.309 650.999 139.599 651.386 139.878C665.931 150.376 686.288 139.418 686.288 121.481V91.3048H1.15625V121.478Z" fill="#FFEBC0"/></g><g id="Group 9"><path id="Fill 7" fill-rule="evenodd" clip-rule="evenodd" d="M1.15625 117.61C1.15625 135.549 21.5132 146.505 36.0602 136.006C36.4492 135.725 36.8333 135.433 37.2113 135.131C47.7502 126.699 62.7273 126.699 73.2663 135.131L73.2673 135.132C83.8062 143.564 98.7823 143.564 109.322 135.132L109.325 135.13C119.864 126.698 134.839 126.697 145.378 135.129L145.386 135.134C155.925 143.565 170.9 143.565 181.438 135.133L181.444 135.13C191.982 126.698 206.958 126.698 217.497 135.129L217.503 135.134C228.042 143.565 243.017 143.565 253.556 135.133L253.561 135.13C264.1 126.698 279.075 126.698 289.614 135.129L289.62 135.134C300.159 143.565 315.134 143.565 325.673 135.134L325.68 135.128C336.219 126.697 351.194 126.697 361.732 135.128L361.742 135.135C372.281 143.566 387.255 143.566 397.793 135.135L397.803 135.128C408.342 126.697 423.317 126.698 433.856 135.13L433.86 135.132C444.399 143.564 459.374 143.565 469.913 135.132L469.919 135.129C480.457 126.698 495.432 126.697 505.97 135.128L505.981 135.136C516.519 143.566 531.493 143.566 542.031 135.136L542.044 135.127C552.582 126.696 567.555 126.696 578.094 135.126L578.108 135.137C588.646 143.567 603.619 143.567 614.158 135.136L614.172 135.126C624.71 126.696 639.682 126.695 650.221 135.124L650.24 135.139C650.617 135.441 650.999 135.731 651.386 136.01C665.931 146.508 686.288 135.55 686.288 117.613V87.4365H1.15625V117.61Z" fill="#74BAB9"/></g><g id="Group 12"><path id="Fill 10" fill-rule="evenodd" clip-rule="evenodd" d="M20.918 2.99927H666.289C677.334 2.99927 686.289 11.9543 686.289 22.9993V98.3153C686.289 109.361 677.334 118.315 666.289 118.315H20.918C9.87297 118.315 0.917969 109.361 0.917969 98.3153V22.9993C0.917969 11.9543 9.87297 2.99927 20.918 2.99927" fill="#00AFA9"/></g></g></g></g><g id="Food" transform="translate(373.1 231.775) scale(1.3324999491373697 1.2166666924198972)"><g id="Food/Breakfast"><g id="Group 46"><g id="Group 3"><path id="Fill 1" fill-rule="evenodd" clip-rule="evenodd" d="M119.782 6.9991C58.047 6.9991 8 57.0461 8 118.781C8 180.517 58.047 230.563 119.782 230.563C181.518 230.563 231.564 180.517 231.564 118.781C231.564 57.0461 181.518 6.9991 119.782 6.9991" fill="#3A3E5B"/></g><path id="Fill 4" fill-rule="evenodd" clip-rule="evenodd" d="M119.782 39.1934C75.8273 39.1934 40.1943 74.8264 40.1943 118.781C40.1943 162.736 75.8273 198.369 119.782 198.369C163.737 198.369 199.37 162.736 199.37 118.781C199.37 74.8264 163.737 39.1934 119.782 39.1934" fill="#101335"/><path id="Fill 6" fill-rule="evenodd" clip-rule="evenodd" d="M201.237 85.1827L93.3421 44.3747C87.9361 42.3297 81.8971 45.0547 79.8521 50.4607C77.8081 55.8667 80.5321 61.9057 85.9381 63.9507C87.8251 64.6637 88.7761 66.7727 88.0621 68.6597L59.2371 144.872C56.2761 152.702 60.2221 161.449 68.0511 164.41L140.762 191.91C148.591 194.871 157.338 190.925 160.299 183.096L189.124 106.883C189.838 104.995 191.946 104.044 193.833 104.758C199.239 106.803 205.278 104.079 207.323 98.6717C209.367 93.2667 206.643 87.2277 201.237 85.1827" fill="#F06647"/><path id="Fill 8" fill-rule="evenodd" clip-rule="evenodd" d="M209.49 119.396L127.922 37.8276C123.835 33.7416 117.21 33.7416 113.123 37.8276C109.037 41.9146 109.037 48.5406 113.123 52.6256C114.55 54.0526 114.55 56.3666 113.123 57.7916L55.5066 115.41C49.5876 121.328 49.5876 130.924 55.5066 136.842L110.475 191.811C116.394 197.73 125.99 197.73 131.909 191.811L189.525 134.195C190.952 132.768 193.265 132.768 194.691 134.195C198.778 138.282 205.403 138.282 209.49 134.195C213.577 130.108 213.577 123.483 209.49 119.396" fill="#F9A471"/><path id="Fill 10" fill-rule="evenodd" clip-rule="evenodd" d="M151.736 61.4883C146.651 56.3253 138.059 55.0533 131.696 58.5213C126.358 61.4303 122.788 67.1053 117.155 69.3913C111.639 71.6313 105.419 70.1473 99.467 70.0273C93.411 69.9053 87.33 71.2653 81.903 73.9573C74.437 77.6593 67.815 85.1403 68.866 93.4063C69.513 98.4883 72.952 103.049 72.829 108.17C72.661 115.189 65.859 121.943 68.79 128.323C70.455 131.945 74.719 133.695 76.792 137.1C79.828 142.091 77.221 148.417 76.635 154.227C75.508 165.418 83.459 176.832 94.347 179.652C99.67 181.032 105.508 180.586 110.416 183.066C114.267 185.012 117.114 188.567 120.955 190.532C128.701 194.494 139.51 189.86 141.981 181.518C142.94 178.28 142.783 174.766 143.956 171.599C146.693 164.207 152.71 163.859 160.303 161.742C167.896 159.624 176.538 156.492 179.079 149.03C181.13 143.005 178.295 136.509 175.426 130.827C172.556 125.145 172.134 116.199 173.763 110.047C174.634 106.753 176.81 103.807 177.024 100.407C177.187 97.7913 176.142 95.2243 174.689 93.0433C170.153 86.2363 164.367 87.5133 159.031 81.3153C155.333 77.0183 157.301 68.3163 151.736 61.4883" fill="white"/><path id="Fill 12" fill-rule="evenodd" clip-rule="evenodd" d="M141.033 123.778C132.349 132.462 118.27 132.462 109.585 123.778C100.902 115.093 100.902 101.014 109.585 92.3314C118.27 83.6464 132.349 83.6464 141.033 92.3314C149.717 101.014 149.717 115.093 141.033 123.778" fill="#FFCC37"/><path id="Fill 14" fill-rule="evenodd" clip-rule="evenodd" d="M154.355 118.178C154.39 118.143 154.425 118.108 154.46 118.072C155.486 117.047 153.895 115.455 152.869 116.481L152.764 116.586C151.739 117.612 153.329 119.203 154.355 118.178C154.39 118.143 154.425 118.108 154.46 118.072C155.486 117.047 153.895 115.455 152.869 116.481L152.764 116.586C151.739 117.612 153.329 119.203 154.355 118.178" fill="#3A3E5B"/><path id="Fill 16" fill-rule="evenodd" clip-rule="evenodd" d="M140.825 112.72C140.882 112.777 140.939 112.833 140.995 112.891C141.097 113 141.218 113.077 141.357 113.123C141.492 113.194 141.636 113.226 141.791 113.22C141.946 113.226 142.09 113.194 142.224 113.123C142.364 113.077 142.485 113 142.586 112.891C142.645 112.815 142.704 112.739 142.762 112.663C142.864 112.488 142.915 112.298 142.916 112.095L142.876 111.796C142.822 111.606 142.726 111.44 142.586 111.299C142.53 111.242 142.473 111.186 142.416 111.129C142.314 111.02 142.193 110.942 142.054 110.897C141.92 110.826 141.775 110.793 141.62 110.799C141.466 110.793 141.321 110.826 141.187 110.897C141.048 110.942 140.927 111.02 140.825 111.129C140.766 111.205 140.708 111.281 140.649 111.357C140.547 111.533 140.496 111.721 140.495 111.924C140.509 112.025 140.522 112.124 140.536 112.224C140.589 112.414 140.686 112.579 140.825 112.72" fill="#3A3E5B"/><path id="Fill 18" fill-rule="evenodd" clip-rule="evenodd" d="M142.757 129.548C142.643 129.435 142.529 129.32 142.416 129.207C142.314 129.098 142.193 129.02 142.054 128.975C141.92 128.904 141.775 128.872 141.62 128.878C141.465 128.872 141.321 128.904 141.187 128.975C141.048 129.02 140.927 129.098 140.825 129.207C140.766 129.283 140.708 129.359 140.649 129.435C140.547 129.61 140.496 129.8 140.495 130.003L140.536 130.302C140.589 130.492 140.685 130.657 140.825 130.798C140.939 130.912 141.052 131.026 141.166 131.139C141.268 131.249 141.389 131.326 141.528 131.372C141.662 131.443 141.807 131.475 141.961 131.469C142.116 131.475 142.261 131.443 142.395 131.372C142.534 131.326 142.655 131.249 142.757 131.139C142.816 131.064 142.874 130.987 142.933 130.911C143.035 130.736 143.086 130.547 143.086 130.344C143.073 130.244 143.06 130.145 143.046 130.045C142.993 129.854 142.896 129.689 142.757 129.548" fill="#3A3E5B"/><path id="Fill 20" fill-rule="evenodd" clip-rule="evenodd" d="M122.519 127.375C123.967 127.375 123.969 125.125 122.519 125.125C121.071 125.125 121.069 127.375 122.519 127.375" fill="#3A3E5B"/><path id="Fill 22" fill-rule="evenodd" clip-rule="evenodd" d="M116.721 138.632C118.169 138.632 118.171 136.382 116.721 136.382C115.273 136.382 115.271 138.632 116.721 138.632" fill="#3A3E5B"/><path id="Fill 24" fill-rule="evenodd" clip-rule="evenodd" d="M100.286 84.9356C100.343 85.1056 100.4 85.2766 100.457 85.4476C100.491 85.5936 100.558 85.7206 100.658 85.8306C100.737 85.9526 100.842 86.0486 100.973 86.1196C101.103 86.2016 101.242 86.2466 101.392 86.2526C101.541 86.2866 101.691 86.2796 101.84 86.2326C101.93 86.1956 102.02 86.1576 102.109 86.1196C102.278 86.0196 102.413 85.8846 102.513 85.7156C102.551 85.6256 102.588 85.5366 102.626 85.4476C102.68 85.2476 102.68 85.0476 102.626 84.8486C102.569 84.6786 102.513 84.5076 102.456 84.3366C102.421 84.1906 102.354 84.0636 102.254 83.9556C102.175 83.8316 102.07 83.7356 101.939 83.6646C101.809 83.5826 101.67 83.5386 101.52 83.5316C101.371 83.4986 101.221 83.5046 101.072 83.5516C100.982 83.5886 100.893 83.6266 100.803 83.6646C100.634 83.7646 100.499 83.8996 100.4 84.0686C100.362 84.1586 100.324 84.2486 100.286 84.3366C100.233 84.5366 100.233 84.7366 100.286 84.9356" fill="#3A3E5B"/><path id="Fill 26" fill-rule="evenodd" clip-rule="evenodd" d="M93.5829 106.068C93.6399 106.125 93.6969 106.181 93.7529 106.239C93.8549 106.348 93.9759 106.425 94.1149 106.471C94.2499 106.542 94.3939 106.574 94.5489 106.568C94.7039 106.574 94.8479 106.542 94.9819 106.471C95.1219 106.425 95.2419 106.348 95.3439 106.239L95.5199 106.01C95.6219 105.836 95.6729 105.646 95.6739 105.443L95.6339 105.144C95.5799 104.954 95.4839 104.788 95.3439 104.647L95.1739 104.477C95.0719 104.367 94.9509 104.29 94.8119 104.245C94.6779 104.173 94.5329 104.141 94.3779 104.147C94.2239 104.141 94.0789 104.173 93.9449 104.245C93.8049 104.29 93.6849 104.367 93.5829 104.477C93.5239 104.552 93.4659 104.629 93.4069 104.705C93.3049 104.881 93.2539 105.069 93.2529 105.272C93.2669 105.372 93.2799 105.472 93.2939 105.572C93.3469 105.762 93.4439 105.927 93.5829 106.068" fill="#3A3E5B"/><path id="Fill 28" fill-rule="evenodd" clip-rule="evenodd" d="M130.876 84.2266C132.324 84.2266 132.326 81.9766 130.876 81.9766C129.428 81.9766 129.426 84.2266 130.876 84.2266" fill="#3A3E5B"/><path id="Fill 30" fill-rule="evenodd" clip-rule="evenodd" d="M125.419 91.7305C126.867 91.7305 126.869 89.4805 125.419 89.4805C123.971 89.4805 123.969 91.7305 125.419 91.7305" fill="#3A3E5B"/><path id="Fill 32" fill-rule="evenodd" clip-rule="evenodd" d="M120.302 86.6143C121.75 86.6143 121.752 84.3643 120.302 84.3643C118.854 84.3643 118.852 86.6143 120.302 86.6143" fill="#3A3E5B"/><path id="Fill 34" fill-rule="evenodd" clip-rule="evenodd" d="M105.123 147.842C106.571 147.842 106.573 145.592 105.123 145.592C103.675 145.592 103.673 147.842 105.123 147.842" fill="#3A3E5B"/><path id="Fill 36" fill-rule="evenodd" clip-rule="evenodd" d="M92.3896 127.729C92.5036 127.842 92.6166 127.956 92.7306 128.07C92.8326 128.179 92.9526 128.257 93.0926 128.302C93.2266 128.373 93.3716 128.405 93.5256 128.399C93.6816 128.405 93.8256 128.373 93.9596 128.302C94.0986 128.257 94.2196 128.179 94.3216 128.07C94.3806 127.994 94.4386 127.917 94.4976 127.842C94.5996 127.667 94.6506 127.477 94.6506 127.274L94.6106 126.975C94.5576 126.785 94.4616 126.619 94.3216 126.479C94.2076 126.365 94.0946 126.251 93.9806 126.137C93.8786 126.028 93.7576 125.951 93.6186 125.905C93.4846 125.834 93.3396 125.802 93.1846 125.808C93.0306 125.802 92.8856 125.834 92.7516 125.905C92.6116 125.951 92.4916 126.028 92.3896 126.137C92.3306 126.213 92.2726 126.29 92.2136 126.366C92.1116 126.541 92.0606 126.73 92.0596 126.933L92.1006 127.232C92.1536 127.422 92.2506 127.588 92.3896 127.729" fill="#3A3E5B"/><path id="Fill 38" fill-rule="evenodd" clip-rule="evenodd" d="M132.752 144.772C134.2 144.772 134.202 142.522 132.752 142.522C131.304 142.522 131.302 144.772 132.752 144.772" fill="#3A3E5B"/><path id="Fill 40" fill-rule="evenodd" clip-rule="evenodd" d="M151.114 95.6085L150.943 95.4385C150.842 95.3285 150.721 95.2515 150.581 95.2065C150.447 95.1345 150.303 95.1025 150.148 95.1085C149.993 95.1025 149.849 95.1345 149.714 95.2065C149.575 95.2515 149.454 95.3285 149.352 95.4385C149.294 95.5135 149.235 95.5895 149.177 95.6665C149.075 95.8415 149.023 96.0305 149.023 96.2335C149.036 96.3335 149.05 96.4325 149.063 96.5335C149.116 96.7235 149.213 96.8885 149.352 97.0295C149.409 97.0865 149.466 97.1425 149.523 97.2005C149.625 97.3095 149.746 97.3865 149.885 97.4325C150.019 97.5035 150.164 97.5355 150.318 97.5295C150.473 97.5355 150.618 97.5035 150.752 97.4325C150.891 97.3865 151.012 97.3095 151.114 97.2005L151.29 96.9715C151.392 96.7965 151.443 96.6075 151.443 96.4045C151.43 96.3045 151.417 96.2055 151.403 96.1055C151.35 95.9155 151.253 95.7495 151.114 95.6085" fill="#3A3E5B"/><path id="Fill 42" fill-rule="evenodd" clip-rule="evenodd" d="M139.915 99.7462C141.363 99.7462 141.365 97.4962 139.915 97.4962C138.467 97.4962 138.465 99.7462 139.915 99.7462" fill="#3A3E5B"/><path id="Fill 44" fill-rule="evenodd" clip-rule="evenodd" d="M116.777 107.774C116.891 107.888 117.005 108.002 117.118 108.116C117.22 108.225 117.341 108.302 117.48 108.348C117.614 108.419 117.759 108.451 117.914 108.445C118.069 108.451 118.213 108.419 118.347 108.348C118.486 108.302 118.607 108.225 118.709 108.116C118.768 108.04 118.827 107.963 118.885 107.888C118.987 107.712 119.038 107.523 119.039 107.32L118.998 107.021C118.945 106.831 118.849 106.665 118.709 106.524C118.595 106.411 118.482 106.297 118.368 106.183C118.266 106.074 118.145 105.996 118.006 105.951C117.872 105.88 117.727 105.848 117.573 105.854C117.418 105.848 117.273 105.88 117.139 105.951C117 105.996 116.879 106.074 116.777 106.183C116.718 106.259 116.66 106.336 116.601 106.411C116.499 106.587 116.448 106.776 116.448 106.979C116.461 107.079 116.474 107.178 116.488 107.278C116.541 107.468 116.638 107.634 116.777 107.774" fill="#3A3E5B"/></g></g></g><g id="Master/Worms/Fin" transform="translate(53.3008 125.925) scale(1.3280730897009967 1.2166666666666666)"><g id="Master/Worms/Fin"><g id="Body/Fin" transform="translate(83.918 150.8) scale(1 1)"><g id="Body/Fin/Periwinkle"><g id="Group 9"><g id="Group 3"><path id="Fill 1" fill-rule="evenodd" clip-rule="evenodd" d="M135.896 164.221H0.999756V67.4481C0.999756 30.1971 31.1978 0.000100017 68.4478 0.000100017V0.000100017C105.698 0.000100017 135.896 30.1971 135.896 67.4481V164.221Z" fill="#96A5D3"/></g><path id="Fill 4" fill-rule="evenodd" clip-rule="evenodd" d="M1 164.221H135.896V99.148H1V164.221Z" fill="#6F83B1"/><path id="Fill 6" fill-rule="evenodd" clip-rule="evenodd" d="M66.3049 54.4006C66.3049 67.8856 55.3729 78.8176 41.8879 78.8176C28.4019 78.8176 17.4709 67.8856 17.4709 54.4006C17.4709 40.9156 28.4019 29.9836 41.8879 29.9836C55.3729 29.9836 66.3049 40.9156 66.3049 54.4006" fill="#DFBEDA"/><path id="Fill 7" fill-rule="evenodd" clip-rule="evenodd" d="M119.425 54.4006C119.425 67.8856 108.493 78.8176 95.0083 78.8176C81.5233 78.8176 70.5913 67.8856 70.5913 54.4006C70.5913 40.9156 81.5233 29.9836 95.0083 29.9836C108.493 29.9836 119.425 40.9156 119.425 54.4006" fill="#DFBEDA"/></g></g></g><g id="Eyes/Fin" transform="translate(126.918 194.8) scale(1 1)"><g id="Eyes/Fin/Open"><g id="Eyes"><path id="Fill 8" fill-rule="evenodd" clip-rule="evenodd" d="M15.3588 15.2683V15.2683C13.5528 15.2683 12.0898 13.8043 12.0898 11.9993V8.72428C12.0898 6.91828 13.5528 5.45428 15.3588 5.45428C17.1638 5.45428 18.6278 6.91828 18.6278 8.72428V11.9993C18.6278 13.8043 17.1638 15.2683 15.3588 15.2683" fill="#0F1335"/><path id="Fill 10" fill-rule="evenodd" clip-rule="evenodd" d="M33.8784 15.2683V15.2683C32.0734 15.2683 30.6094 13.8043 30.6094 11.9993V8.72428C30.6094 6.91828 32.0734 5.45428 33.8784 5.45428C35.6844 5.45428 37.1474 6.91828 37.1474 8.72428V11.9993C37.1474 13.8043 35.6844 15.2683 33.8784 15.2683" fill="#0F1335"/></g></g></g><g id="Mouth/Fin" transform="translate(130.918 211.8) scale(0.9761904761904762 1)"><g id="Mouth/Fin/Sad"><path id="Fill 1" fill-rule="evenodd" clip-rule="evenodd" d="M21.1583 4C26.9153 4 32.0263 6.089 35.0293 8.05C38.4973 10.314 39.4713 14.962 37.2073 18.43C34.9553 21.877 30.3503 22.861 26.8883 20.648C26.2623 20.263 21.1343 17.296 16.7983 20.417C13.4353 22.834 8.74832 22.072 6.33032 18.709C3.91132 15.347 4.67632 10.66 8.03832 8.241C12.3733 5.123 16.9383 4 21.1583 4" fill="#101335"/></g></g><g id="Hair/Fin" transform="translate(65.918 60.8) scale(1 1)"><g id="Hair/Fin/Blue Puff"><g id="Group 3"><path id="Fill 1" fill-rule="evenodd" clip-rule="evenodd" d="M55 69.5217C55 63.8037 58.794 60.4997 58.794 60.4997C70.941 72.5377 86.228 63.3237 98.587 63.3237C108.951 63.3237 118.475 72.3667 118.475 83.8147C118.475 89.6407 116.221 93.7877 114.506 96.0997C114.506 96.0997 105.288 93.3177 95.445 92.7177C94.113 101.265 86.718 107.836 77.797 107.836C67.932 107.836 59.935 99.8387 59.935 89.9737C59.935 86.7317 60.799 83.6907 62.309 81.0697C57.548 78.6577 55 74.3317 55 69.5217" fill="#41AFE4"/></g></g></g><g id="Clothes/Fin" transform="translate(83.918 245.4) scale(1 1)"><g id="Clothes/Fin/Lavender Polkas"><g id="Group 63"><path id="Fill 1" fill-rule="evenodd" clip-rule="evenodd" d="M1 69.996H135.896V11.12H1V69.996Z" fill="#4FA480"/><g id="Group 62"><path id="Fill 2" fill-rule="evenodd" clip-rule="evenodd" d="M11.367 11.1201H1V20.3711C1.304 20.4011 1.611 20.4181 1.923 20.4181C7.091 20.4181 11.284 16.2681 11.367 11.1201" fill="#E0BFDB"/><path id="Fill 4" fill-rule="evenodd" clip-rule="evenodd" d="M24.1061 20.418C29.2741 20.418 33.4671 16.269 33.5501 11.12H14.6621C14.7451 16.269 18.9381 20.418 24.1061 20.418" fill="#E0BFDB"/><path id="Fill 6" fill-rule="evenodd" clip-rule="evenodd" d="M46.2887 20.418C51.4567 20.418 55.6497 16.269 55.7327 11.12H36.8447C36.9277 16.269 41.1207 20.418 46.2887 20.418" fill="#E0BFDB"/><path id="Fill 8" fill-rule="evenodd" clip-rule="evenodd" d="M68.4718 20.418C73.6398 20.418 77.8328 16.269 77.9158 11.12H59.0278C59.1108 16.269 63.3038 20.418 68.4718 20.418" fill="#E0BFDB"/><path id="Fill 10" fill-rule="evenodd" clip-rule="evenodd" d="M90.6549 20.418C95.8229 20.418 100.016 16.269 100.099 11.12H81.2109C81.2939 16.269 85.4869 20.418 90.6549 20.418" fill="#E0BFDB"/><path id="Fill 12" fill-rule="evenodd" clip-rule="evenodd" d="M112.838 20.418C118.006 20.418 122.199 16.269 122.282 11.12H103.394C103.477 16.269 107.67 20.418 112.838 20.418" fill="#E0BFDB"/><path id="Fill 14" fill-rule="evenodd" clip-rule="evenodd" d="M135.021 20.418C135.316 20.418 135.608 20.4 135.896 20.374V11.12H125.577C125.66 16.269 129.853 20.418 135.021 20.418" fill="#E0BFDB"/><g id="Group 18"><path id="Fill 16" fill-rule="evenodd" clip-rule="evenodd" d="M11.3835 50.4224C11.3835 45.2024 7.15151 40.9704 1.93151 40.9704C1.61651 40.9704 1.30651 40.9874 0.999512 41.0174V59.8274C1.30651 59.8574 1.61651 59.8744 1.93151 59.8744C7.15151 59.8744 11.3835 55.6424 11.3835 50.4224" fill="#E0BFDB"/></g><path id="Fill 19" fill-rule="evenodd" clip-rule="evenodd" d="M24.1141 40.9702C18.8941 40.9702 14.6621 45.2022 14.6621 50.4222C14.6621 55.6422 18.8941 59.8742 24.1141 59.8742C29.3341 59.8742 33.5661 55.6422 33.5661 50.4222C33.5661 45.2022 29.3341 40.9702 24.1141 40.9702" fill="#E0BFDB"/><path id="Fill 21" fill-rule="evenodd" clip-rule="evenodd" d="M46.2972 40.9702C41.0772 40.9702 36.8452 45.2022 36.8452 50.4222C36.8452 55.6422 41.0772 59.8742 46.2972 59.8742C51.5172 59.8742 55.7492 55.6422 55.7492 50.4222C55.7492 45.2022 51.5172 40.9702 46.2972 40.9702" fill="#E0BFDB"/><path id="Fill 23" fill-rule="evenodd" clip-rule="evenodd" d="M68.4803 40.9702C63.2603 40.9702 59.0283 45.2022 59.0283 50.4222C59.0283 55.6422 63.2603 59.8742 68.4803 59.8742C73.7003 59.8742 77.9323 55.6422 77.9323 50.4222C77.9323 45.2022 73.7003 40.9702 68.4803 40.9702" fill="#E0BFDB"/><path id="Fill 25" fill-rule="evenodd" clip-rule="evenodd" d="M90.6634 40.9702C85.4434 40.9702 81.2114 45.2022 81.2114 50.4222C81.2114 55.6422 85.4434 59.8742 90.6634 59.8742C95.8834 59.8742 100.115 55.6422 100.115 50.4222C100.115 45.2022 95.8834 40.9702 90.6634 40.9702" fill="#E0BFDB"/><path id="Fill 27" fill-rule="evenodd" clip-rule="evenodd" d="M112.846 40.9702C107.626 40.9702 103.394 45.2022 103.394 50.4222C103.394 55.6422 107.626 59.8742 112.846 59.8742C118.066 59.8742 122.298 55.6422 122.298 50.4222C122.298 45.2022 118.066 40.9702 112.846 40.9702" fill="#E0BFDB"/><g id="Group 31"><path id="Fill 29" fill-rule="evenodd" clip-rule="evenodd" d="M125.577 50.4224C125.577 55.6424 129.809 59.8744 135.029 59.8744C135.322 59.8744 135.61 59.8564 135.896 59.8304V41.0134C135.61 40.9874 135.322 40.9704 135.029 40.9704C129.809 40.9704 125.577 45.2024 125.577 50.4224" fill="#E0BFDB"/></g><path id="Fill 32" fill-rule="evenodd" clip-rule="evenodd" d="M22.4665 30.6938C22.4665 25.4738 18.2345 21.2418 13.0145 21.2418C7.7945 21.2418 3.5625 25.4738 3.5625 30.6938C3.5625 35.9138 7.7945 40.1458 13.0145 40.1458C18.2345 40.1458 22.4665 35.9138 22.4665 30.6938" fill="#E0BFDB"/><path id="Fill 34" fill-rule="evenodd" clip-rule="evenodd" d="M44.6491 30.6938C44.6491 25.4738 40.4171 21.2418 35.1971 21.2418C29.9771 21.2418 25.7451 25.4738 25.7451 30.6938C25.7451 35.9138 29.9771 40.1458 35.1971 40.1458C40.4171 40.1458 44.6491 35.9138 44.6491 30.6938" fill="#E0BFDB"/><path id="Fill 36" fill-rule="evenodd" clip-rule="evenodd" d="M66.8327 30.6938C66.8327 25.4738 62.6007 21.2418 57.3807 21.2418C52.1607 21.2418 47.9287 25.4738 47.9287 30.6938C47.9287 35.9138 52.1607 40.1458 57.3807 40.1458C62.6007 40.1458 66.8327 35.9138 66.8327 30.6938" fill="#E0BFDB"/><path id="Fill 38" fill-rule="evenodd" clip-rule="evenodd" d="M89.0153 30.6938C89.0153 25.4738 84.7833 21.2418 79.5633 21.2418C74.3433 21.2418 70.1113 25.4738 70.1113 30.6938C70.1113 35.9138 74.3433 40.1458 79.5633 40.1458C84.7833 40.1458 89.0153 35.9138 89.0153 30.6938" fill="#E0BFDB"/><path id="Fill 40" fill-rule="evenodd" clip-rule="evenodd" d="M111.198 30.6938C111.198 25.4738 106.966 21.2418 101.746 21.2418C96.5264 21.2418 92.2944 25.4738 92.2944 30.6938C92.2944 35.9138 96.5264 40.1458 101.746 40.1458C106.966 40.1458 111.198 35.9138 111.198 30.6938" fill="#E0BFDB"/><path id="Fill 42" fill-rule="evenodd" clip-rule="evenodd" d="M133.382 30.6938C133.382 25.4738 129.15 21.2418 123.93 21.2418C118.71 21.2418 114.478 25.4738 114.478 30.6938C114.478 35.9138 118.71 40.1458 123.93 40.1458C129.15 40.1458 133.382 35.9138 133.382 30.6938" fill="#E0BFDB"/><g id="Group 46"><path id="Fill 44" fill-rule="evenodd" clip-rule="evenodd" d="M13.0226 60.6982C7.85461 60.6982 3.66161 64.8472 3.57861 69.9962H22.4666C22.3836 64.8472 18.1906 60.6982 13.0226 60.6982" fill="#E0BFDB"/></g><g id="Group 49"><path id="Fill 47" fill-rule="evenodd" clip-rule="evenodd" d="M35.2057 60.6982C30.0377 60.6982 25.8447 64.8472 25.7617 69.9962H44.6497C44.5667 64.8472 40.3737 60.6982 35.2057 60.6982" fill="#E0BFDB"/></g><g id="Group 52"><path id="Fill 50" fill-rule="evenodd" clip-rule="evenodd" d="M57.3888 60.6982C52.2208 60.6982 48.0278 64.8472 47.9448 69.9962H66.8328C66.7498 64.8472 62.5568 60.6982 57.3888 60.6982" fill="#E0BFDB"/></g><g id="Group 55"><path id="Fill 53" fill-rule="evenodd" clip-rule="evenodd" d="M79.5719 60.6982C74.4039 60.6982 70.2109 64.8472 70.1279 69.9962H89.0159C88.9329 64.8472 84.7399 60.6982 79.5719 60.6982" fill="#E0BFDB"/></g><g id="Group 58"><path id="Fill 56" fill-rule="evenodd" clip-rule="evenodd" d="M101.755 60.6982C96.5865 60.6982 92.3935 64.8472 92.3105 69.9962H111.199C111.116 64.8472 106.923 60.6982 101.755 60.6982" fill="#E0BFDB"/></g><g id="Group 61"><path id="Fill 59" fill-rule="evenodd" clip-rule="evenodd" d="M123.938 60.6982C118.77 60.6982 114.577 64.8472 114.494 69.9962H133.382C133.299 64.8472 129.106 60.6982 123.938 60.6982" fill="#E0BFDB"/></g></g></g></g></g></g></g><g id="Master/Worms/Mol" transform="translate(612.949 136.875) scale(1.3280730897009967 1.2166666666666666)"><g id="Master/Worms/Mol"><g id="Body/Mol" transform="translate(99.918 45.84) scale(1 1)"><g id="Body/Mol/Blue"><g id="Group 11"><g id="Group 3"><path id="Fill 1" fill-rule="evenodd" clip-rule="evenodd" d="M7.22485 70.6674V268.041H96.5609V70.6674C96.5609 45.9984 76.5629 25.9994 51.8929 25.9994C27.2239 25.9994 7.22485 45.9984 7.22485 70.6674Z" fill="#5473B8"/><path id="Fill 1 Copy" fill-rule="evenodd" clip-rule="evenodd" d="M7.22485 70.6674V268.041H96.5609V70.6674C96.5609 45.9984 76.5629 25.9994 51.8929 25.9994C27.2239 25.9994 7.22485 45.9984 7.22485 70.6674Z" fill="#5473B8"/></g><g id="Group 6"><path id="Fill 4" fill-rule="evenodd" clip-rule="evenodd" d="M49.7118 71.0883C49.7118 84.8163 38.5838 95.9443 24.8558 95.9443C11.1288 95.9443 -0.000244141 84.8163 -0.000244141 71.0883C-0.000244141 57.3603 11.1288 46.2333 24.8558 46.2333C38.5838 46.2333 49.7118 57.3603 49.7118 71.0883" fill="#FFCC37"/></g><path id="Fill 7" fill-rule="evenodd" clip-rule="evenodd" d="M103.786 71.0883C103.786 84.8163 92.658 95.9443 78.931 95.9443C65.203 95.9443 54.075 84.8163 54.075 71.0883C54.075 57.3603 65.203 46.2333 78.931 46.2333C92.658 46.2333 103.786 57.3603 103.786 71.0883" fill="#FFCC37"/><path id="Fill 9" fill-rule="evenodd" clip-rule="evenodd" d="M7.2251 268.042H96.4911V123.015H7.2251V268.042Z" fill="#385E9F"/></g></g></g><g id="Eyes/Mol" transform="translate(127.918 109.84) scale(1 1)"><g id="Eyes/Mol/Naughty"><g id="Group 5"><path id="Fill 1" fill-rule="evenodd" clip-rule="evenodd" d="M8.002 14.891C7.345 14.891 6.701 14.567 6.319 13.974C5.721 13.045 5.988 11.808 6.917 11.209L11.889 8.00601L7.321 4.60401C6.436 3.94401 6.252 2.69101 6.912 1.80501C7.572 0.919012 8.825 0.737012 9.711 1.39601L15.604 5.78601C16.355 6.34601 16.783 7.23701 16.751 8.17201C16.719 9.10701 16.231 9.96701 15.444 10.474L9.083 14.572C8.748 14.787 8.373 14.891 8.002 14.891" fill="#101335"/><path id="Fill 3" fill-rule="evenodd" clip-rule="evenodd" d="M35.6802 11.5189V11.5189C33.8742 11.5189 32.4102 10.0549 32.4102 8.2489V4.9749C32.4102 3.1689 33.8742 1.7049 35.6802 1.7049C37.4852 1.7049 38.9492 3.1689 38.9492 4.9749V8.2489C38.9492 10.0549 37.4852 11.5189 35.6802 11.5189" fill="#101335"/></g></g></g><g id="Mouth/Mol" transform="translate(133.656 123.909) scale(0.9736842105263158 1)"><g id="Mouth/Mol/Smiling Black"><g id="Group 3"><path id="Fill 1" fill-rule="evenodd" clip-rule="evenodd" d="M10.918 6.00006H28.769C28.769 6.00006 27.698 15.3771 19.392 15.3771C11.085 15.3771 10.918 6.00006 10.918 6.00006" fill="#101335"/></g></g></g><g id="Hair/Mol" transform="translate(88.918 7.84003) scale(1 1)"><g id="Hair/Mol/Easter Bunny"><g id="Group 19"><path id="Fill 1" fill-rule="evenodd" clip-rule="evenodd" d="M44.6092 66.9312C44.3962 66.6482 23.3582 38.3552 32.3772 11.4302L32.8042 10.1552L33.9022 10.9302C34.7082 11.5002 53.6132 25.3261 51.8772 64.7831L51.8452 65.4992L45.0252 67.4802L44.6092 66.9312Z" fill="white"/><path id="Fill 3" fill-rule="evenodd" clip-rule="evenodd" d="M32.2826 8.56201L31.4286 11.112C27.6136 22.501 28.5546 35.882 34.1516 49.81C38.3426 60.24 43.5896 67.241 43.8106 67.534L44.6416 68.633L45.9646 68.249L51.4356 66.659L52.8126 66.259L52.8756 64.827C54.6356 24.831 35.3036 10.696 34.4786 10.114L32.2826 8.56201ZM33.3246 11.747C33.3246 11.747 52.6096 25.374 50.8776 64.739L45.4066 66.328C45.4066 66.328 24.3686 38.484 33.3246 11.747V11.747Z" fill="#E0BFDB"/><path id="Fill 5" fill-rule="evenodd" clip-rule="evenodd" d="M46.8065 65.9214C46.8065 65.9214 31.4755 35.4334 38.6755 33.3414C45.8745 31.2504 49.4405 65.1564 49.4405 65.1564L46.8065 65.9214Z" fill="#ED6389"/><path id="Fill 7" fill-rule="evenodd" clip-rule="evenodd" d="M73.5143 65.4902L73.5123 64.7412C73.3923 25.3362 90.7163 11.5242 91.4533 10.9552L92.5983 10.0732L93.0203 11.4552C101.408 38.9132 80.9903 66.6502 80.7833 66.9272L80.3683 67.4812L73.5143 65.4902Z" fill="white"/><path id="Fill 9" fill-rule="evenodd" clip-rule="evenodd" d="M93.1314 8.39795L90.8414 10.1639C90.0884 10.7439 72.3904 24.8509 72.5104 64.7449L72.5154 66.242L73.9534 66.659L79.4234 68.249L80.7534 68.6349L81.5834 67.5259C82.4414 66.3779 102.51 39.1019 93.9764 11.1629L93.1314 8.39795ZM92.0634 11.7469C100.399 39.0379 79.9814 66.328 79.9814 66.328L74.5104 64.7389C74.3914 25.3739 92.0634 11.7469 92.0634 11.7469V11.7469Z" fill="#E0BFDB"/><path id="Fill 11" fill-rule="evenodd" clip-rule="evenodd" d="M78.5813 65.9214C78.5813 65.9214 93.9123 35.4334 86.7123 33.3414C79.5133 31.2504 75.9473 65.1564 75.9473 65.1564L78.5813 65.9214Z" fill="#ED6389"/><path id="Fill 13" fill-rule="evenodd" clip-rule="evenodd" d="M98.386 76.602C89.356 67.267 76.707 61.454 62.693 61.454C48.679 61.454 36.03 67.267 27 76.602L37.763 73.738L42.063 76.602L49.231 71.377L57.327 76.602L64.271 71.714L71.327 76.602L78.58 69.859L84.821 76.602L90.163 73.823L98.386 76.602Z" fill="#FFCC37"/><path id="Fill 15" fill-rule="evenodd" clip-rule="evenodd" d="M98.1895 25.3901C93.4345 25.3901 88.6315 24.4261 83.9135 22.5231L82.8945 22.1131L83.3985 21.1371C83.5525 20.8381 87.2405 13.7741 92.7205 9.62211L93.2655 9.20911L93.8475 9.56611C94.1855 9.77311 102.176 14.7281 107.402 22.6341L108.093 23.6791L106.921 24.1211C106.784 24.1731 103.496 25.3901 98.1895 25.3901" fill="white"/><path id="Fill 17" fill-rule="evenodd" clip-rule="evenodd" d="M93.206 8L92.117 8.825C86.458 13.112 82.669 20.371 82.511 20.679L81.502 22.63L83.539 23.451C88.377 25.401 93.307 26.391 98.19 26.391C103.676 26.391 107.13 25.111 107.274 25.057L109.618 24.173L108.237 22.083C102.89 13.994 94.716 8.926 94.371 8.714L93.206 8ZM93.325 10.419C93.325 10.419 101.404 15.374 106.568 23.186C106.568 23.186 103.375 24.391 98.19 24.391C94.444 24.391 89.659 23.762 84.287 21.596C84.287 21.596 87.962 14.481 93.325 10.419V10.419Z" fill="#E0BFDB"/></g></g></g><g id="Clothes/Mol" transform="translate(107.117 168.84) scale(1 1)"><g id="Clothes/Mol/Orange Curls"><g id="Group 15"><path id="Fill 1" fill-rule="evenodd" clip-rule="evenodd" d="M0 145.967H89.336V11.8H0V145.967Z" fill="#FFCC37"/><g id="Group 14"><g id="Group 4"><path id="Fill 2" fill-rule="evenodd" clip-rule="evenodd" d="M14.773 145.061C14.465 144.547 14.345 144.092 14.343 143.651C14.345 143.209 14.465 142.755 14.773 142.241C15.081 141.73 15.586 141.172 16.323 140.619L16.325 140.617L16.636 140.384L16.634 140.385C17.61 139.652 18.389 138.836 18.938 137.93C19.487 137.026 19.795 136.018 19.793 134.997C19.795 133.976 19.487 132.969 18.938 132.065C18.389 131.158 17.61 130.342 16.634 129.609L16.632 129.608L16.392 129.429L16.394 129.43C15.657 128.877 15.151 128.319 14.844 127.808C14.535 127.294 14.415 126.839 14.413 126.397C14.415 125.951 14.538 125.49 14.856 124.968C15.172 124.449 15.692 123.882 16.451 123.322C17.449 122.585 18.246 121.763 18.808 120.847C19.37 119.934 19.686 118.914 19.684 117.88C19.686 116.846 19.37 115.826 18.808 114.913C18.246 113.997 17.449 113.174 16.45 112.437C15.692 111.878 15.172 111.311 14.856 110.793C14.539 110.271 14.415 109.81 14.413 109.363C14.415 108.922 14.535 108.467 14.844 107.953C15.151 107.442 15.657 106.883 16.395 106.329L16.618 106.162C17.594 105.429 18.373 104.614 18.922 103.707C19.471 102.803 19.778 101.795 19.776 100.774C19.778 99.7541 19.471 98.7461 18.922 97.8421C18.373 96.9361 17.594 96.1201 16.617 95.3871L16.62 95.3891L16.351 95.1861L16.348 95.1841C15.611 94.6311 15.106 94.0731 14.798 93.5621C14.49 93.0481 14.369 92.5931 14.368 92.1521C14.369 91.7101 14.49 91.2561 14.798 90.7421C15.106 90.2311 15.611 89.6731 16.348 89.1201L16.526 88.9871C17.501 88.2541 18.281 87.4391 18.829 86.5321C19.378 85.6281 19.686 84.6201 19.684 83.5991C19.686 82.5791 19.378 81.5711 18.829 80.6671C18.281 79.7601 17.501 78.9451 16.526 78.2121L16.163 77.9401C15.425 77.3871 14.92 76.8291 14.612 76.3181C14.304 75.8041 14.184 75.3491 14.182 74.9081C14.184 74.4661 14.304 74.0121 14.612 73.4981C14.92 72.9871 15.425 72.4281 16.163 71.8751L16.341 71.7421C17.316 71.0091 18.096 70.1941 18.644 69.2871C19.192 68.3831 19.5 67.3761 19.499 66.3551C19.5 65.3341 19.192 64.3271 18.644 63.4231C18.096 62.5171 17.316 61.7011 16.341 60.9681L16.256 60.9041C15.518 60.3511 15.013 59.7931 14.705 59.2821C14.397 58.7671 14.276 58.3121 14.274 57.8711C14.276 57.4301 14.397 56.9761 14.705 56.4611C15.013 55.9501 15.518 55.3921 16.255 54.8391L16.46 54.6861C17.435 53.9541 18.214 53.1381 18.763 52.2311C19.311 51.3281 19.619 50.3211 19.617 49.2991C19.619 48.2791 19.311 47.2711 18.763 46.3681C18.215 45.4611 17.435 44.6451 16.46 43.9121L16.317 43.8041C15.58 43.2521 15.075 42.6941 14.767 42.1831C14.459 41.6691 14.339 41.2141 14.337 40.7731C14.339 40.3321 14.459 39.8771 14.767 39.3631C15.075 38.8521 15.58 38.2931 16.317 37.7411L16.476 37.6221C17.451 36.8901 18.231 36.0741 18.78 35.1671C19.328 34.2631 19.636 33.2551 19.634 32.2341C19.636 31.2141 19.328 30.2061 18.78 29.3021C18.231 28.3951 17.451 27.5811 16.476 26.8471L16.092 26.5601C15.356 26.0081 14.85 25.4491 14.543 24.9381C14.235 24.4241 14.114 23.9691 14.112 23.5281C14.114 23.0881 14.234 22.6331 14.543 22.1191C14.85 21.6081 15.356 21.0491 16.093 20.4961L16.407 20.2601L16.405 20.2621C17.38 19.5291 18.16 18.7141 18.709 17.8071C19.257 16.9031 19.565 15.8951 19.563 14.8741C19.565 13.8531 19.257 12.8461 18.709 11.9421C18.679 11.8941 18.642 11.8481 18.611 11.8001H14.589C14.606 11.8131 14.618 11.8291 14.635 11.8421C15.372 12.3941 15.877 12.9531 16.185 13.4641C16.493 13.9781 16.613 14.4331 16.615 14.8741C16.613 15.3151 16.493 15.7701 16.185 16.2851C15.877 16.7961 15.372 17.3531 14.635 17.9061L14.632 17.9081L14.321 18.1431C13.347 18.8751 12.568 19.6901 12.019 20.5971C11.471 21.5001 11.163 22.5081 11.165 23.5281C11.163 24.5501 11.471 25.5571 12.019 26.4601C12.568 27.3681 13.347 28.1831 14.323 28.9161L14.707 29.2041C15.443 29.7551 15.948 30.3131 16.256 30.8241C16.564 31.3391 16.684 31.7931 16.686 32.2341C16.684 32.6761 16.564 33.1301 16.256 33.6451C15.948 34.1561 15.443 34.7141 14.706 35.2671L14.547 35.3861C13.572 36.1181 12.792 36.9341 12.243 37.8401C11.695 38.7441 11.388 39.7521 11.389 40.7731C11.388 41.7941 11.695 42.8021 12.243 43.7051C12.792 44.6121 13.572 45.4281 14.547 46.1601L14.69 46.2671C15.426 46.8191 15.931 47.3781 16.239 47.8901C16.548 48.4041 16.668 48.8591 16.67 49.2991C16.668 49.7411 16.548 50.1951 16.24 50.7091C15.932 51.2201 15.427 51.7781 14.689 52.3311L14.485 52.4841C13.509 53.2171 12.73 54.0321 12.181 54.9391C11.633 55.8431 11.325 56.8511 11.327 57.8711C11.325 58.8931 11.633 59.9001 12.181 60.8041C12.73 61.7111 13.509 62.5261 14.485 63.2591L14.569 63.3221C15.307 63.8761 15.813 64.4351 16.12 64.9451C16.429 65.4601 16.549 65.9141 16.551 66.3551C16.549 66.7961 16.429 67.2501 16.12 67.7651C15.813 68.2761 15.307 68.8341 14.57 69.3871L14.392 69.5201C13.417 70.2531 12.638 71.0681 12.088 71.9761C11.54 72.8791 11.232 73.8871 11.234 74.9081C11.232 75.9291 11.54 76.9361 12.088 77.8401C12.638 78.7471 13.417 79.5621 14.393 80.2951L14.755 80.5671C15.493 81.1201 15.998 81.6781 16.306 82.1891C16.614 82.7041 16.734 83.1581 16.736 83.5991C16.734 84.0401 16.614 84.4951 16.306 85.0101C15.998 85.5201 15.493 86.0791 14.756 86.6311L14.578 86.7651C13.602 87.4971 12.823 88.3121 12.274 89.2201C11.726 90.1231 11.418 91.1311 11.42 92.1521C11.418 93.1731 11.726 94.1811 12.274 95.0841C12.823 95.9911 13.602 96.8071 14.578 97.5401L14.575 97.5381L14.845 97.7411L14.848 97.7431C15.585 98.2951 16.091 98.8531 16.398 99.3651C16.707 99.8791 16.827 100.333 16.829 100.774C16.827 101.216 16.707 101.67 16.398 102.185C16.091 102.696 15.585 103.254 14.848 103.807L14.624 103.975C13.648 104.708 12.868 105.524 12.32 106.431C11.771 107.335 11.464 108.343 11.466 109.363C11.464 110.397 11.78 111.418 12.341 112.331C12.903 113.247 13.7 114.068 14.699 114.806C15.457 115.365 15.977 115.932 16.294 116.45C16.611 116.972 16.734 117.433 16.736 117.88C16.734 118.327 16.611 118.788 16.294 119.31C15.977 119.829 15.457 120.394 14.699 120.954C13.7 121.692 12.903 122.515 12.341 123.431C11.78 124.344 11.464 125.363 11.466 126.397C11.464 127.418 11.771 128.426 12.32 129.33C12.868 130.237 13.648 131.052 14.624 131.785L14.626 131.787L14.866 131.966L14.864 131.965C15.601 132.518 16.107 133.076 16.415 133.587C16.723 134.102 16.843 134.556 16.845 134.997C16.843 135.438 16.723 135.893 16.415 136.407C16.107 136.918 15.601 137.477 14.864 138.03L14.862 138.031L14.551 138.265L14.553 138.264C13.577 138.996 12.798 139.811 12.249 140.719C11.701 141.623 11.393 142.63 11.395 143.651C11.394 144.446 11.585 145.231 11.926 145.967H15.501C15.194 145.656 14.948 145.351 14.773 145.061" fill="#F9A471"/></g><g id="Group 7"><path id="Fill 5" fill-rule="evenodd" clip-rule="evenodd" d="M34.2564 145.061C33.9484 144.547 33.8284 144.092 33.8264 143.651C33.8284 143.209 33.9484 142.755 34.2564 142.241C34.5644 141.73 35.0694 141.172 35.8064 140.619L36.1184 140.385C37.0934 139.652 37.8724 138.838 38.4214 137.932C38.9694 137.029 39.2774 136.022 39.2764 135.001C39.2774 133.98 38.9704 132.972 38.4224 132.068C37.8734 131.161 37.0944 130.344 36.1184 129.61L35.8784 129.43C35.1404 128.877 34.6354 128.319 34.3274 127.808C34.0194 127.293 33.8984 126.839 33.8964 126.397C33.8984 125.951 34.0224 125.49 34.3394 124.968C34.6564 124.449 35.1764 123.882 35.9354 123.323C36.9334 122.585 37.7304 121.763 38.2924 120.847C38.8534 119.934 39.1694 118.914 39.1674 117.88C39.1694 116.846 38.8534 115.826 38.2924 114.913C37.7304 113.997 36.9334 113.175 35.9344 112.437L35.9224 112.428C35.1704 111.872 34.6534 111.309 34.3394 110.793C34.0224 110.271 33.8984 109.81 33.8964 109.363C33.8984 108.922 34.0184 108.467 34.3274 107.953C34.6344 107.442 35.1404 106.883 35.8784 106.329L35.8754 106.332L36.1004 106.164L36.1024 106.162C37.0774 105.429 37.8574 104.614 38.4054 103.707C38.9544 102.803 39.2624 101.795 39.2604 100.774C39.2624 99.7541 38.9544 98.7461 38.4054 97.8421C37.8574 96.9361 37.0774 96.1211 36.1024 95.3871L35.8324 95.1851C35.0944 94.6311 34.5894 94.0731 34.2814 93.5621C33.9734 93.0481 33.8524 92.5931 33.8514 92.1521C33.8524 91.7101 33.9734 91.2561 34.2814 90.7421C34.5894 90.2311 35.0944 89.6731 35.8314 89.1201L36.0094 88.9871C36.9844 88.2541 37.7644 87.4391 38.3124 86.5321C38.8614 85.6281 39.1694 84.6201 39.1674 83.5991C39.1694 82.5791 38.8614 81.5711 38.3124 80.6671C37.7644 79.7601 36.9844 78.9451 36.0094 78.2121L35.6464 77.9401C34.9094 77.3871 34.4034 76.8291 34.0964 76.3181C33.7884 75.8041 33.6674 75.3491 33.6654 74.9081C33.6674 74.4661 33.7884 74.0121 34.0964 73.4981C34.4034 72.9871 34.9094 72.4281 35.6464 71.8751L35.8244 71.7421C36.7994 71.0091 37.5794 70.1941 38.1274 69.2871C38.6754 68.3831 38.9834 67.3761 38.9814 66.3551C38.9834 65.3341 38.6754 64.3271 38.1274 63.4231C37.5794 62.5171 36.7994 61.7011 35.8244 60.9681L35.7394 60.9041C35.0014 60.3511 34.4964 59.7931 34.1884 59.2821C33.8804 58.7671 33.7594 58.3121 33.7574 57.8711C33.7594 57.4301 33.8804 56.9761 34.1884 56.4611C34.4964 55.9501 35.0014 55.3921 35.7384 54.8391L35.9434 54.6861C36.9184 53.9541 37.6974 53.1381 38.2464 52.2311C38.7944 51.3281 39.1024 50.3211 39.1004 49.2991C39.1024 48.2791 38.7944 47.2711 38.2464 46.3681C37.6984 45.4611 36.9184 44.6451 35.9434 43.9121L35.8004 43.8041C35.0634 43.2521 34.5584 42.6941 34.2504 42.1831C33.9424 41.6691 33.8224 41.2141 33.8204 40.7731C33.8224 40.3321 33.9424 39.8771 34.2504 39.3631C34.5584 38.8521 35.0634 38.2931 35.8004 37.7411L35.9594 37.6221C36.9344 36.8901 37.7144 36.0741 38.2634 35.1671C38.8114 34.2631 39.1194 33.2551 39.1174 32.2341C39.1194 31.2141 38.8114 30.2061 38.2634 29.3021C37.7144 28.3951 36.9344 27.5811 35.9594 26.8471L35.5754 26.5601C34.8394 26.0081 34.3334 25.4491 34.0264 24.9381C33.7184 24.4241 33.5974 23.9691 33.5954 23.5281C33.5974 23.0881 33.7174 22.6331 34.0264 22.1191C34.3334 21.6081 34.8394 21.0491 35.5764 20.4961L35.8904 20.2601L35.8884 20.2621C36.8634 19.5291 37.6434 18.7141 38.1924 17.8071C38.7404 16.9031 39.0484 15.8951 39.0474 14.8741C39.0484 13.8531 38.7404 12.8461 38.1924 11.9421C38.1624 11.8941 38.1254 11.8481 38.0954 11.8001H34.0724C34.0894 11.8131 34.1014 11.8291 34.1184 11.8421C34.8554 12.3951 35.3604 12.9531 35.6684 13.4641C35.9764 13.9781 36.0974 14.4331 36.0994 14.8741C36.0974 15.3151 35.9764 15.7701 35.6684 16.2851C35.3604 16.7961 34.8554 17.3531 34.1184 17.9061L34.1154 17.9081L33.8044 18.1431C32.8304 18.8751 32.0514 19.6901 31.5024 20.5971C30.9544 21.5001 30.6464 22.5081 30.6484 23.5281C30.6464 24.5501 30.9544 25.5571 31.5024 26.4601C32.0504 27.3681 32.8304 28.1831 33.8064 28.9161L34.1904 29.2041C34.9264 29.7551 35.4314 30.3131 35.7394 30.8241C36.0474 31.3391 36.1674 31.7931 36.1694 32.2341C36.1674 32.6761 36.0474 33.1301 35.7394 33.6451C35.4314 34.1561 34.9264 34.7141 34.1894 35.2671L34.0304 35.3861C33.0554 36.1181 32.2754 36.9341 31.7264 37.8401C31.1784 38.7441 30.8714 39.7521 30.8724 40.7731C30.8714 41.7941 31.1784 42.8021 31.7264 43.7051C32.2754 44.6121 33.0554 45.4281 34.0304 46.1601L34.1734 46.2671C34.9094 46.8191 35.4144 47.3781 35.7224 47.8901C36.0304 48.4041 36.1514 48.8591 36.1534 49.2991C36.1514 49.7411 36.0304 50.1951 35.7234 50.7091C35.4154 51.2201 34.9104 51.7781 34.1724 52.3311L33.9684 52.4841C32.9924 53.2171 32.2134 54.0321 31.6644 54.9391C31.1164 55.8431 30.8084 56.8511 30.8104 57.8711C30.8084 58.8931 31.1164 59.9001 31.6644 60.8041C32.2134 61.7111 32.9924 62.5261 33.9684 63.2591L34.0524 63.3221C34.7904 63.8761 35.2964 64.4351 35.6034 64.9451C35.9124 65.4601 36.0324 65.9141 36.0344 66.3551C36.0324 66.7961 35.9124 67.2501 35.6034 67.7651C35.2964 68.2761 34.7904 68.8341 34.0534 69.3871L33.8754 69.5201C32.9004 70.2531 32.1214 71.0681 31.5724 71.9761C31.0244 72.8791 30.7164 73.8871 30.7184 74.9081C30.7164 75.9291 31.0244 76.9361 31.5724 77.8401C32.1214 78.7471 32.9004 79.5621 33.8764 80.2951L34.2384 80.5671C34.9764 81.1201 35.4814 81.6781 35.7894 82.1891C36.0974 82.7041 36.2174 83.1581 36.2194 83.5991C36.2174 84.0401 36.0974 84.4951 35.7894 85.0101C35.4814 85.5201 34.9764 86.0791 34.2384 86.6311L34.0614 86.7651C33.0854 87.4971 32.3064 88.3121 31.7574 89.2201C31.2094 90.1231 30.9014 91.1311 30.9034 92.1521C30.9014 93.1731 31.2094 94.1811 31.7574 95.0841C32.3064 95.9911 33.0854 96.8071 34.0614 97.5401L34.3314 97.7421C35.0694 98.2951 35.5744 98.8531 35.8824 99.3651C36.1904 99.8791 36.3104 100.333 36.3124 100.774C36.3104 101.216 36.1904 101.67 35.8824 102.185C35.5744 102.696 35.0694 103.254 34.3324 103.807L34.3344 103.805L34.1094 103.973L34.1074 103.975C33.1314 104.708 32.3514 105.524 31.8034 106.431C31.2544 107.335 30.9474 108.343 30.9494 109.363C30.9474 110.397 31.2634 111.418 31.8244 112.331C32.3864 113.247 33.1834 114.068 34.1824 114.806L34.1944 114.815C34.9454 115.371 35.4624 115.935 35.7774 116.45C36.0944 116.972 36.2174 117.433 36.2194 117.88C36.2174 118.327 36.0944 118.788 35.7774 119.31C35.4614 119.829 34.9414 120.395 34.1834 120.954C33.1844 121.692 32.3864 122.515 31.8244 123.431C31.2634 124.344 30.9474 125.363 30.9494 126.397C30.9474 127.418 31.2554 128.426 31.8034 129.33C32.3524 130.237 33.1324 131.052 34.1084 131.785L34.3474 131.965C35.0844 132.518 35.5904 133.077 35.8984 133.589C36.2064 134.104 36.3264 134.559 36.3284 135.001C36.3264 135.441 36.2064 135.895 35.8984 136.409C35.5904 136.919 35.0854 137.478 34.3484 138.03L34.0364 138.264C33.0604 138.996 32.2814 139.811 31.7324 140.719C31.1844 141.623 30.8764 142.63 30.8784 143.651C30.8774 144.446 31.0684 145.231 31.4094 145.967H34.9844C34.6774 145.656 34.4314 145.351 34.2564 145.061" fill="#F9A471"/></g><g id="Group 10"><path id="Fill 8" fill-rule="evenodd" clip-rule="evenodd" d="M53.7394 145.061C53.4314 144.547 53.3114 144.092 53.3094 143.651C53.3114 143.209 53.4314 142.755 53.7394 142.241C54.0474 141.73 54.5524 141.172 55.2894 140.619L55.6014 140.385C56.5764 139.652 57.3554 138.838 57.9044 137.932C58.4524 137.029 58.7604 136.022 58.7594 135.001C58.7604 133.98 58.4534 132.972 57.9054 132.068C57.3564 131.161 56.5774 130.344 55.6014 129.61L55.3614 129.43C54.6234 128.877 54.1184 128.319 53.8104 127.808C53.5024 127.294 53.3824 126.839 53.3804 126.398C53.3824 125.952 53.5054 125.49 53.8224 124.968C54.1394 124.449 54.6594 123.882 55.4184 123.322C56.4164 122.585 57.2134 121.763 57.7754 120.847C58.3374 119.934 58.6524 118.914 58.6514 117.88C58.6524 116.846 58.3374 115.826 57.7754 114.913C57.2134 113.997 56.4164 113.174 55.4174 112.437C54.6594 111.878 54.1394 111.311 53.8224 110.792C53.5054 110.27 53.3814 109.81 53.3794 109.363C53.3814 108.922 53.5014 108.467 53.8104 107.953C54.1174 107.442 54.6234 106.883 55.3614 106.329L55.3584 106.332L55.5824 106.164L55.5854 106.162C56.5604 105.429 57.3404 104.614 57.8884 103.707C58.4374 102.803 58.7454 101.795 58.7434 100.774C58.7454 99.7541 58.4374 98.7461 57.8884 97.8421C57.3404 96.9361 56.5604 96.1211 55.5854 95.3871L55.3154 95.1851C54.5774 94.6311 54.0724 94.0731 53.7644 93.5621C53.4564 93.0481 53.3354 92.5931 53.3334 92.1521C53.3354 91.7101 53.4564 91.2561 53.7644 90.7421C54.0724 90.2311 54.5774 89.6731 55.3144 89.1201L55.4924 88.9871C56.4674 88.2541 57.2474 87.4391 57.7964 86.5321C58.3444 85.6281 58.6524 84.6201 58.6504 83.5991C58.6524 82.5791 58.3444 81.5711 57.7964 80.6671C57.2474 79.7601 56.4674 78.9451 55.4914 78.2121L55.1294 77.9401C54.3924 77.3871 53.8864 76.8291 53.5794 76.3181C53.2704 75.8041 53.1504 75.3491 53.1484 74.9081C53.1504 74.4661 53.2704 74.0121 53.5794 73.4981C53.8864 72.9871 54.3924 72.4281 55.1294 71.8751L55.3074 71.7421C56.2824 71.0091 57.0624 70.1941 57.6104 69.2871C58.1584 68.3831 58.4664 67.3761 58.4644 66.3551C58.4664 65.3341 58.1584 64.3271 57.6104 63.4231C57.0624 62.5171 56.2824 61.7011 55.3074 60.9681L55.2304 60.9091L55.2224 60.9031C54.4854 60.3511 53.9794 59.7931 53.6724 59.2821C53.3644 58.7671 53.2434 58.3121 53.2414 57.8711C53.2434 57.4301 53.3644 56.9761 53.6724 56.4611C53.9794 55.9501 54.4854 55.3921 55.2224 54.8391L55.2254 54.8371L55.4284 54.6841L55.4254 54.6861C56.4014 53.9541 57.1804 53.1381 57.7294 52.2311C58.2774 51.3281 58.5854 50.3211 58.5834 49.2991C58.5854 48.2791 58.2774 47.2711 57.7294 46.3681C57.1804 45.4611 56.4014 44.6451 55.4264 43.9121L55.2834 43.8041C54.5464 43.2521 54.0414 42.6941 53.7334 42.1831C53.4254 41.6691 53.3054 41.2141 53.3034 40.7731C53.3054 40.3321 53.4254 39.8771 53.7334 39.3631C54.0414 38.8521 54.5464 38.2931 55.2834 37.7411L55.4424 37.6221C56.4174 36.8901 57.1974 36.0741 57.7464 35.1671C58.2944 34.2631 58.6024 33.2551 58.6004 32.2341C58.6024 31.2141 58.2944 30.2061 57.7464 29.3021C57.1974 28.3951 56.4174 27.5801 55.4424 26.8471L55.0604 26.5611C54.3224 26.0081 53.8174 25.4491 53.5094 24.9381C53.2014 24.4241 53.0804 23.9691 53.0794 23.5281C53.0804 23.0881 53.2014 22.6331 53.5094 22.1191C53.8174 21.6081 54.3224 21.0491 55.0604 20.4971L55.0624 20.4951L55.3744 20.2601L55.3724 20.2621C56.3474 19.5291 57.1274 18.7141 57.6764 17.8071C58.2244 16.9031 58.5314 15.8951 58.5304 14.8741C58.5314 13.8531 58.2244 12.8461 57.6764 11.9421C57.6464 11.8941 57.6094 11.8481 57.5784 11.8001H53.5564C53.5724 11.8131 53.5854 11.8291 53.6024 11.8421C54.3394 12.3941 54.8444 12.9531 55.1524 13.4641C55.4604 13.9781 55.5804 14.4331 55.5824 14.8741C55.5804 15.3151 55.4604 15.7701 55.1524 16.2851C54.8444 16.7961 54.3394 17.3531 53.6024 17.9061L53.5994 17.9081L53.2884 18.1431L53.2894 18.1411C52.3144 18.8751 51.5344 19.6901 50.9854 20.5971C50.4374 21.5001 50.1294 22.5081 50.1314 23.5281C50.1294 24.5501 50.4374 25.5571 50.9854 26.4601C51.5344 27.3681 52.3144 28.1831 53.2904 28.9161L53.6714 29.2031C54.4094 29.7551 54.9154 30.3131 55.2224 30.8241C55.5314 31.3391 55.6514 31.7931 55.6534 32.2341C55.6514 32.6761 55.5314 33.1301 55.2224 33.6451C54.9154 34.1561 54.4094 34.7141 53.6724 35.2671L53.5134 35.3861C52.5384 36.1181 51.7584 36.9341 51.2094 37.8401C50.6614 38.7441 50.3534 39.7521 50.3554 40.7731C50.3534 41.7941 50.6614 42.8021 51.2094 43.7051C51.7584 44.6121 52.5384 45.4281 53.5134 46.1601L53.6564 46.2671C54.3924 46.8191 54.8974 47.3781 55.2054 47.8901C55.5134 48.4041 55.6344 48.8591 55.6364 49.2991C55.6344 49.7411 55.5134 50.1951 55.2064 50.7091C54.8984 51.2201 54.3934 51.7781 53.6554 52.3311L53.6524 52.3321L53.4494 52.4861L53.4524 52.4841C52.4764 53.2171 51.6974 54.0321 51.1484 54.9391C50.6004 55.8431 50.2924 56.8511 50.2944 57.8711C50.2924 58.8931 50.6004 59.9001 51.1484 60.8041C51.6974 61.7111 52.4764 62.5261 53.4524 63.2591L53.5314 63.3181L53.5294 63.3171L53.5364 63.3231C54.2734 63.8761 54.7794 64.4351 55.0864 64.9451C55.3954 65.4601 55.5154 65.9141 55.5174 66.3551C55.5154 66.7961 55.3954 67.2501 55.0864 67.7651C54.7794 68.2761 54.2734 68.8341 53.5364 69.3871L53.3584 69.5201C52.3834 70.2531 51.6044 71.0681 51.0554 71.9761C50.5074 72.8791 50.1994 73.8871 50.2014 74.9081C50.1994 75.9291 50.5074 76.9361 51.0554 77.8401C51.6044 78.7471 52.3834 79.5621 53.3594 80.2951L53.7214 80.5671C54.4594 81.1201 54.9644 81.6781 55.2724 82.1891C55.5804 82.7041 55.7014 83.1581 55.7034 83.5991C55.7014 84.0401 55.5804 84.4951 55.2724 85.0101C54.9644 85.5201 54.4594 86.0791 53.7224 86.6311L53.5444 86.7651C52.5684 87.4971 51.7894 88.3121 51.2404 89.2201C50.6924 90.1231 50.3844 91.1311 50.3864 92.1521C50.3844 93.1731 50.6924 94.1811 51.2404 95.0841C51.7894 95.9911 52.5684 96.8071 53.5444 97.5401L53.8144 97.7421C54.5524 98.2951 55.0574 98.8531 55.3654 99.3651C55.6734 99.8791 55.7934 100.333 55.7954 100.774C55.7934 101.216 55.6734 101.67 55.3654 102.185C55.0574 102.696 54.5524 103.254 53.8154 103.807L53.8174 103.805L53.5924 103.973L53.5894 103.975C52.6144 104.708 51.8344 105.524 51.2864 106.431C50.7384 107.335 50.4304 108.343 50.4324 109.363C50.4304 110.397 50.7464 111.418 51.3084 112.33C51.8704 113.246 52.6674 114.068 53.6664 114.806C54.4244 115.365 54.9444 115.932 55.2604 116.45C55.5784 116.972 55.7014 117.433 55.7034 117.88C55.7014 118.327 55.5784 118.788 55.2604 119.31C54.9444 119.829 54.4244 120.394 53.6664 120.954C52.6674 121.693 51.8704 122.515 51.3084 123.431C50.7464 124.344 50.4304 125.364 50.4324 126.398C50.4304 127.419 50.7384 128.426 51.2864 129.33C51.8354 130.237 52.6154 131.052 53.5914 131.785L53.8304 131.965C54.5674 132.518 55.0734 133.077 55.3814 133.589C55.6894 134.104 55.8094 134.559 55.8114 135.001C55.8094 135.441 55.6894 135.895 55.3814 136.409C55.0734 136.919 54.5684 137.478 53.8314 138.03L53.5194 138.264C52.5434 138.996 51.7644 139.811 51.2154 140.719C50.6674 141.623 50.3594 142.63 50.3614 143.651C50.3604 144.446 50.5514 145.231 50.8924 145.967H54.4674C54.1604 145.656 53.9144 145.351 53.7394 145.061" fill="#F9A471"/></g><g id="Group 13"><path id="Fill 11" fill-rule="evenodd" clip-rule="evenodd" d="M73.2228 145.061C72.9148 144.547 72.7938 144.092 72.7928 143.651C72.7938 143.209 72.9148 142.755 73.2228 142.241C73.5308 141.73 74.0358 141.172 74.7728 140.619L75.0848 140.385C76.0598 139.652 76.8388 138.838 77.3878 137.932C77.9358 137.029 78.2438 136.022 78.2428 135.001C78.2438 133.98 77.9368 132.972 77.3888 132.068C76.8398 131.161 76.0608 130.344 75.0848 129.61L74.8448 129.43C74.1068 128.877 73.6018 128.319 73.2938 127.808C72.9858 127.294 72.8658 126.839 72.8638 126.398C72.8658 125.952 72.9888 125.49 73.3058 124.968C73.6228 124.449 74.1428 123.882 74.9018 123.322C75.8998 122.585 76.6968 121.763 77.2588 120.847C77.8198 119.934 78.1358 118.914 78.1348 117.88C78.1358 116.846 77.8198 115.826 77.2588 114.913C76.6968 113.997 75.8998 113.174 74.9008 112.437C74.1428 111.878 73.6218 111.311 73.3058 110.792C72.9888 110.27 72.8648 109.81 72.8628 109.363C72.8648 108.922 72.9848 108.467 73.2938 107.953C73.6008 107.442 74.1068 106.883 74.8448 106.329L74.8418 106.332L75.0658 106.164L75.0678 106.162C76.0438 105.429 76.8238 104.614 77.3718 103.707C77.9208 102.803 78.2278 101.795 78.2268 100.774C78.2278 99.7541 77.9208 98.7461 77.3718 97.8421C76.8238 96.9361 76.0438 96.1211 75.0688 95.3871L74.7978 95.1851C74.0608 94.6311 73.5558 94.0731 73.2478 93.5621C72.9398 93.0481 72.8188 92.5931 72.8168 92.1521C72.8188 91.7101 72.9398 91.2561 73.2478 90.7421C73.5558 90.2311 74.0608 89.6731 74.7978 89.1201L74.9758 88.9871C75.9508 88.2541 76.7308 87.4391 77.2798 86.5321C77.8278 85.6281 78.1358 84.6201 78.1338 83.5991C78.1358 82.5791 77.8278 81.5711 77.2798 80.6671C76.7308 79.7601 75.9508 78.9451 74.9748 78.2121L74.6128 77.9401C73.8758 77.3871 73.3698 76.8291 73.0628 76.3181C72.7538 75.8041 72.6338 75.3491 72.6318 74.9081C72.6338 74.4661 72.7538 74.0121 73.0628 73.4981C73.3698 72.9871 73.8758 72.4281 74.6128 71.8751L74.7908 71.7421C75.7658 71.0091 76.5458 70.1941 77.0938 69.2871C77.6418 68.3831 77.9498 67.3761 77.9478 66.3551C77.9498 65.3341 77.6418 64.3271 77.0938 63.4231C76.5448 62.5171 75.7658 61.7011 74.7908 60.9681L74.7128 60.9091L74.7058 60.9031C73.9688 60.3511 73.4628 59.7931 73.1558 59.2821C72.8478 58.7671 72.7268 58.3121 72.7248 57.8711C72.7268 57.4301 72.8478 56.9761 73.1558 56.4611C73.4628 55.9501 73.9688 55.3921 74.7058 54.8391L74.7088 54.8371L74.9118 54.6841L74.9088 54.6861C75.8848 53.9541 76.6638 53.1381 77.2128 52.2311C77.7608 51.3281 78.0688 50.3211 78.0668 49.2991C78.0688 48.2791 77.7608 47.2711 77.2128 46.3681C76.6638 45.4611 75.8848 44.6451 74.9098 43.9121L74.7658 43.8041C74.0298 43.2521 73.5248 42.6941 73.2168 42.1831C72.9088 41.6691 72.7888 41.2141 72.7868 40.7731C72.7888 40.3321 72.9088 39.8771 73.2168 39.3631C73.5248 38.8521 74.0298 38.2931 74.7668 37.7411L74.9258 37.6221C75.9008 36.8901 76.6808 36.0741 77.2298 35.1671C77.7778 34.2631 78.0858 33.2551 78.0838 32.2341C78.0858 31.2141 77.7778 30.2061 77.2298 29.3021C76.6808 28.3951 75.9008 27.5801 74.9248 26.8471L74.5438 26.5611C73.8058 26.0081 73.3008 25.4491 72.9928 24.9381C72.6848 24.4241 72.5638 23.9691 72.5628 23.5281C72.5638 23.0881 72.6848 22.6331 72.9928 22.1191C73.3008 21.6081 73.8058 21.0491 74.5438 20.4971L74.5458 20.4951L74.8578 20.2601L74.8558 20.2621C75.8308 19.5291 76.6108 18.7141 77.1588 17.8071C77.7078 16.9031 78.0148 15.8951 78.0138 14.8741C78.0148 13.8531 77.7078 12.8461 77.1588 11.9421C77.1298 11.8941 77.0928 11.8481 77.0618 11.8001H73.0398C73.0558 11.8131 73.0688 11.8291 73.0858 11.8421C73.8228 12.3941 74.3278 12.9531 74.6358 13.4641C74.9438 13.9781 75.0638 14.4331 75.0658 14.8741C75.0638 15.3151 74.9438 15.7701 74.6358 16.2851C74.3278 16.7961 73.8228 17.3531 73.0858 17.9061L73.0828 17.9081L72.7708 18.1431L72.7728 18.1411C71.7968 18.8751 71.0178 19.6901 70.4688 20.5971C69.9208 21.5001 69.6128 22.5081 69.6148 23.5281C69.6128 24.5501 69.9208 25.5571 70.4688 26.4601C71.0178 27.3681 71.7968 28.1831 72.7738 28.9161L73.1548 29.2031C73.8928 29.7551 74.3978 30.3131 74.7058 30.8241C75.0148 31.3391 75.1348 31.7931 75.1368 32.2341C75.1348 32.6761 75.0148 33.1301 74.7058 33.6451C74.3978 34.1561 73.8928 34.7141 73.1558 35.2671L72.9968 35.3861C72.0218 36.1181 71.2418 36.9341 70.6928 37.8401C70.1448 38.7441 69.8368 39.7521 69.8388 40.7731C69.8368 41.7941 70.1448 42.8021 70.6928 43.7051C71.2418 44.6121 72.0208 45.4281 72.9968 46.1601L73.1398 46.2671C73.8758 46.8191 74.3808 47.3781 74.6888 47.8901C74.9968 48.4041 75.1178 48.8591 75.1198 49.2991C75.1178 49.7411 74.9968 50.1951 74.6888 50.7091C74.3818 51.2201 73.8758 51.7781 73.1388 52.3311L73.1358 52.3321L72.9328 52.4861L72.9358 52.4841C71.9598 53.2171 71.1808 54.0321 70.6318 54.9391C70.0838 55.8431 69.7758 56.8511 69.7778 57.8711C69.7758 58.8931 70.0838 59.9001 70.6318 60.8041C71.1808 61.7111 71.9598 62.5261 72.9358 63.2591L73.0138 63.3181L73.0118 63.3171L73.0198 63.3231C73.7568 63.8761 74.2628 64.4351 74.5698 64.9451C74.8778 65.4601 74.9988 65.9141 75.0008 66.3551C74.9988 66.7961 74.8778 67.2501 74.5698 67.7651C74.2628 68.2761 73.7568 68.8341 73.0198 69.3871L72.8418 69.5201C71.8668 70.2531 71.0878 71.0681 70.5388 71.9761C69.9908 72.8791 69.6828 73.8871 69.6848 74.9081C69.6828 75.9291 69.9908 76.9361 70.5388 77.8401C71.0878 78.7471 71.8668 79.5621 72.8428 80.2951L73.2048 80.5671C73.9428 81.1201 74.4478 81.6781 74.7558 82.1891C75.0638 82.7041 75.1848 83.1581 75.1868 83.5991C75.1848 84.0401 75.0638 84.4951 74.7558 85.0101C74.4478 85.5201 73.9428 86.0791 73.2048 86.6311L73.0268 86.7651C72.0518 87.4971 71.2728 88.3121 70.7238 89.2201C70.1758 90.1231 69.8678 91.1311 69.8698 92.1521C69.8678 93.1731 70.1758 94.1811 70.7238 95.0841C71.2728 95.9911 72.0518 96.8071 73.0278 97.5401L73.2978 97.7421C74.0348 98.2951 74.5408 98.8531 74.8478 99.3651C75.1568 99.8791 75.2768 100.333 75.2788 100.774C75.2768 101.216 75.1568 101.67 74.8478 102.185C74.5408 102.696 74.0358 103.254 73.2978 103.807L73.3008 103.805L73.0758 103.973L73.0728 103.975C72.0978 104.708 71.3178 105.524 70.7698 106.431C70.2208 107.335 69.9138 108.343 69.9158 109.363C69.9138 110.397 70.2298 111.418 70.7908 112.33C71.3538 113.246 72.1508 114.068 73.1498 114.806C73.9078 115.365 74.4278 115.932 74.7438 116.45C75.0608 116.972 75.1848 117.433 75.1868 117.88C75.1848 118.327 75.0618 118.788 74.7438 119.31C74.4278 119.829 73.9078 120.394 73.1498 120.954C72.1498 121.693 71.3528 122.515 70.7918 123.431C70.2298 124.344 69.9138 125.364 69.9158 126.398C69.9138 127.419 70.2218 128.426 70.7698 129.33C71.3188 130.237 72.0988 131.052 73.0748 131.785L73.3138 131.965C74.0508 132.518 74.5568 133.077 74.8648 133.589C75.1728 134.104 75.2928 134.559 75.2948 135.001C75.2928 135.441 75.1728 135.895 74.8648 136.409C74.5568 136.919 74.0518 137.478 73.3148 138.03L73.0028 138.264C72.0268 138.996 71.2478 139.811 70.6988 140.719C70.1508 141.623 69.8428 142.63 69.8448 143.651C69.8428 144.446 70.0338 145.231 70.3758 145.967H73.9508C73.6428 145.656 73.3968 145.351 73.2228 145.061" fill="#F9A471"/></g></g></g></g></g></g></g></g></svg>