<svg viewBox="226.5250000000001 78.59489051094897 612.9499999999999 506.2043795620438" fill="none" xmlns="http://www.w3.org/2000/svg" xmlns:xlink="http://www.w3.org/1999/xlink" overflow="visible" width="612.9499999999999px" height="506.2043795620438px"><g id="Master/Stickers/Confetti"><g id="Group 52"><path id="Fill 1" fill-rule="evenodd" clip-rule="evenodd" d="M625.496 520.727C621.861 522.671 617.219 522.115 613.258 522.437C609.393 522.749 605.374 523.56 602.112 525.796C598.2 528.479 596.084 532.735 596.115 537.494C596.14 541.515 597.854 545.773 598.21 549.373C598.347 550.763 598.303 552.108 598.024 553.274C597.845 554.023 597.686 554.5 597.436 554.953C597.035 555.678 596.932 555.739 596.679 555.908C596.185 556.236 596.175 556.254 595.548 556.236C594.576 556.206 593.666 556.048 592.705 555.91C590.251 555.558 587.96 555.592 585.665 556.626C582.392 558.103 580.444 561.169 579.255 564.458C577.979 567.989 577.014 573.242 578.176 576.901C579.088 579.776 581.965 581.625 584.936 580.805C587.707 580.041 589.452 577.233 588.629 574.421C587.169 569.442 585.873 572.121 585.899 571.779C585.925 571.446 585.958 571.113 585.999 570.784C586.141 569.637 586.482 568.09 586.915 566.844C587.696 564.599 588.57 563.551 590.986 563.777C594.882 564.144 598.347 564.824 601.669 562.199C604.203 560.197 605.561 557.117 606.03 553.963C606.552 550.441 606.029 547.162 605.213 543.724C604.495 540.702 603.021 536.342 605.279 533.611C606.862 531.694 609.791 530.951 612.13 530.632C616.245 530.067 620.404 530.406 624.5 529.542C628.74 528.652 632.489 526.346 634.789 522.592C636.964 519.044 637.362 514.489 635.102 510.888C632.35 506.501 625.399 510.552 628.17 514.971C629.309 516.787 627.797 519.497 625.496 520.727Z" fill="#ED6389"/><path id="Fill 3" fill-rule="evenodd" clip-rule="evenodd" d="M464.982 319.045C463.919 320.476 462.436 321.344 460.89 322.159C459.023 323.144 456.999 324.001 454.898 324.663C455.844 323.016 457.079 321.523 458.652 320.276C459.816 319.351 461.2 318.591 462.618 318.146C463.296 317.933 464.019 317.706 464.728 317.674C464.842 317.669 465.221 317.644 465.433 317.64C465.54 317.624 465.633 317.635 465.72 317.655C465.69 317.73 465.662 317.79 465.661 317.791C465.52 318.217 465.262 318.668 464.982 319.045M465.749 317.222C465.85 317.233 465.814 317.396 465.763 317.548C465.756 317.541 465.751 317.537 465.744 317.53C465.728 317.538 465.74 317.222 465.749 317.222M440.891 293.723C443.177 292.81 446.409 292.633 447.869 295.041C449.198 297.229 446.524 298.877 444.674 299.807C441.365 301.471 437.265 302.189 433.602 302.473C432.728 302.539 431.856 302.56 430.985 302.57C431.354 301.991 431.743 301.429 432.159 300.898C434.386 298.049 437.484 295.087 440.891 293.723M462.49 309.953C453.93 311.478 448.231 318.207 445.789 326.055C443.27 325.994 440.786 325.525 438.452 324.515C432.949 322.131 428.249 316.745 428.338 310.525C430.1 310.615 431.863 310.604 433.602 310.468C438.947 310.051 444.711 308.999 449.433 306.327C453.827 303.841 457.231 299.18 455.966 293.915C454.724 288.742 449.539 285.25 444.382 285.076C438.783 284.887 433.703 288.175 429.739 291.818C426.777 294.54 424.193 297.841 422.483 301.52C422.092 301.415 421.695 301.342 421.306 301.222C414.297 299.023 408.018 293.476 406.168 286.205C404.41 279.284 407.437 271.851 413.694 268.43C418.207 265.963 414.179 259.055 409.66 261.525C400.765 266.39 396.518 276.574 398.079 286.426C399.664 296.434 407.654 304.36 416.749 308.055C417.949 308.54 419.184 308.943 420.44 309.286C419.899 317.819 424.892 325.902 432.322 330.315C436.104 332.562 440.245 333.669 444.465 333.913C444.424 335.142 444.439 336.368 444.554 337.574C445.538 347.913 451.888 361.831 464.323 360.961C466.477 360.81 468.318 359.231 468.318 356.962C468.318 354.915 466.488 352.812 464.323 352.965C457.876 353.415 454.296 346.15 453.074 340.699C452.547 338.346 452.319 335.858 452.455 333.406C456.472 332.69 460.405 331.327 464.008 329.534C468.527 327.287 473.177 323.551 473.683 318.146C473.897 315.856 473.079 313.51 471.37 311.934C468.927 309.685 465.625 309.394 462.49 309.953" fill="#ED6389"/><path id="Fill 5" fill-rule="evenodd" clip-rule="evenodd" d="M806.328 275.256C809.118 269.452 814.129 264.179 821.053 264.289C823.25 264.322 827.344 265.238 827.761 267.899C828.139 270.321 825.761 273.667 824.235 275.384C820.683 279.381 815.407 282.031 810.163 282.436C808.059 282.597 806.009 282.441 804.051 281.982C804.563 279.643 805.314 277.368 806.328 275.256M831.364 311.471C826.063 314.082 819.626 313.207 814.594 310.386C808.915 307.198 805.419 301.691 804.005 295.433C803.61 293.692 803.391 291.891 803.321 290.073C804.86 290.375 806.446 290.543 808.078 290.557C815.868 290.62 823.81 287.41 829.245 281.829C832.055 278.945 834.456 275.22 835.426 271.28C836.734 265.97 834.321 261.083 829.576 258.435C821.033 253.672 810.164 257.134 804.03 264.144C800.498 268.182 798.071 273.131 796.671 278.356C796.067 277.865 795.479 277.34 794.92 276.761C791.064 272.777 788.78 267.224 788.613 261.722C788.194 247.971 802.113 237.09 815.544 239.125C817.699 239.452 819.889 238.584 820.516 236.315C821.04 234.411 819.864 231.693 817.693 231.364C800.692 228.79 782.815 240.099 780.728 257.723C779.338 269.469 785.427 281.339 795.316 287.053C795.275 287.927 795.237 288.799 795.253 289.667C795.433 299.86 799.701 309.789 808.137 315.82C816.042 321.47 826.671 322.744 835.441 318.42C840.102 316.123 836.013 309.177 831.364 311.471" fill="#ED6389"/><path id="Fill 7" fill-rule="evenodd" clip-rule="evenodd" d="M487.53 438.882C496.676 438.061 504.595 433.437 509.805 425.839C514.806 418.551 516.551 409.069 514.332 400.498C513.312 396.561 511.511 392.522 511.507 388.4C511.507 387.186 511.663 386.121 512.436 385.292C513.676 383.965 515.733 383.917 517.412 384.127C522.28 384.735 526.669 387.601 530.906 389.864C535.635 392.386 540.449 394.481 545.857 394.811C548.135 394.949 549.716 392.847 549.868 390.783C550.415 383.369 548.108 376.272 547.017 369.024C546.052 362.619 546.928 356.382 550.693 351.009C553.602 346.859 559.206 342.701 564.536 344.332C566.096 344.81 567.541 346.228 568.179 347.722C568.924 349.471 568.906 351.071 568.06 352.063C566.652 353.714 566.445 356.137 568.06 357.758C569.503 359.208 572.317 359.418 573.734 357.758C577.451 353.403 577.554 347.243 574.415 342.478C570.814 337.011 564.574 335.068 558.312 336.408C544.831 339.292 537.523 354.433 538.77 367.239C539.395 373.683 541.444 379.974 541.852 386.42C541.944 387.865 537.991 384.542 534.416 382.618C530.466 380.492 526.507 378.226 522.176 376.965C517.683 375.657 512.344 375.39 508.365 378.253C504.58 380.977 503.126 385.47 503.574 390.01C503.995 394.275 505.437 398.258 506.524 402.372C507.498 406.054 507.53 409.852 506.605 413.551C504.806 420.751 499.713 427.282 492.567 429.698C484.285 432.498 474.759 430.445 468.572 424.197C464.926 420.516 459.251 426.21 462.898 429.893C469.251 436.31 478.544 439.689 487.53 438.882Z" fill="#E0BFDB"/><path id="Fill 9" fill-rule="evenodd" clip-rule="evenodd" d="M802.234 415.715C798.919 418.913 795.022 421.812 791.149 424.283C784.841 428.307 774.861 431.809 768.502 425.812C762.646 420.291 764.159 409.776 766.303 402.869C767.131 400.206 769.082 396.33 772.09 398.886C776.215 402.393 773.217 409.17 771.705 413.206C771.263 414.385 771.625 415.667 772.374 416.656C771.989 417.003 771.6 417.34 771.223 417.697C767.443 421.283 773.144 427.009 776.914 423.431C783.575 417.11 792.783 411.831 802.031 410.803C803.185 410.675 804.293 410.435 804.459 411.747C804.657 413.274 803.261 414.725 802.234 415.715M810.724 406.282C806.022 399.75 795.729 403.474 789.697 405.892C786.725 407.084 783.884 408.511 781.17 410.145C782.486 405.179 782.8 399.939 779.73 395.498C775.915 389.975 768.708 387.946 763.326 392.539C759.103 396.144 757.846 402.375 757.09 407.619C756.194 413.827 756.179 420.145 758.814 425.954C761.318 431.47 766.637 435.353 772.496 436.511C778.705 437.739 784.79 436.573 790.475 433.917C796.362 431.166 801.593 426.873 806.536 422.692C811.188 418.758 814.837 411.994 810.724 406.282" fill="#E0BFDB"/><path id="Fill 11" fill-rule="evenodd" clip-rule="evenodd" d="M247.372 254.106C247.583 254.815 247.732 255.521 247.868 256.245C247.678 255.235 247.852 256.161 247.872 256.41C247.904 256.821 247.92 257.233 247.92 257.646C247.92 257.955 247.913 258.263 247.897 258.571C247.89 258.683 247.801 259.899 247.854 259.265C247.905 258.639 247.753 259.831 247.729 259.951C247.668 260.253 247.601 260.556 247.526 260.856C247.349 261.563 247.114 262.242 246.877 262.928C246.538 263.907 247.242 262.183 246.803 263.122C246.648 263.453 246.494 263.784 246.328 264.108C246.017 264.711 245.678 265.301 245.31 265.871C245.112 266.18 244.901 266.477 244.692 266.777C244.111 267.62 244.974 266.498 244.452 267.085C243.542 268.11 242.618 269.063 241.582 269.961C241.236 270.24 241.26 270.222 241.653 269.909C241.487 270.034 241.319 270.156 241.149 270.275C240.896 270.453 240.638 270.626 240.376 270.791C239.769 271.178 239.139 271.53 238.491 271.841C238.285 271.942 237.412 272.273 238.318 271.933C238.032 272.039 237.748 272.153 237.457 272.25C236.782 272.481 236.092 272.668 235.394 272.809C235.193 272.848 234.993 272.885 234.792 272.917C235.293 272.855 235.392 272.841 235.089 272.876C234.734 272.878 234.373 272.943 234.016 272.957C233.29 272.986 232.565 272.956 231.842 272.886C229.765 272.69 227.776 274.874 227.866 276.902C227.97 279.246 229.617 280.706 231.842 280.917C246.493 282.308 259.222 266.044 255.04 251.972C254.443 249.962 252.225 248.49 250.15 249.167C248.137 249.825 246.732 251.952 247.372 254.106" fill="#E0BFDB"/><path id="Fill 13" fill-rule="evenodd" clip-rule="evenodd" d="M575.66 204.931C576.038 205.559 576.383 206.201 576.687 206.869C576.354 206.135 576.766 207.099 576.824 207.261C576.943 207.601 577.053 207.946 577.151 208.293C577.349 208.987 577.493 209.691 577.618 210.401C577.463 209.518 577.641 210.665 577.65 210.773C577.68 211.133 577.701 211.495 577.711 211.855C577.733 212.58 577.715 213.306 577.661 214.029C577.654 214.115 577.522 215.307 577.644 214.415C577.594 214.776 577.531 215.137 577.461 215.494C577.182 216.933 576.765 218.348 576.211 219.703C576.474 219.058 576.103 219.916 576.018 220.091C575.86 220.421 575.693 220.747 575.518 221.07C575.171 221.714 574.793 222.34 574.384 222.947C574.179 223.248 573.97 223.548 573.75 223.839C574.163 223.294 573.582 224.027 573.463 224.166C572.991 224.715 572.491 225.241 571.963 225.737C571.7 225.985 571.423 226.215 571.156 226.458C570.544 227.014 571.571 226.209 570.826 226.72C570.282 227.096 569.739 227.464 569.164 227.791C568.851 227.97 568.529 228.127 568.21 228.296C568.048 228.377 567.886 228.453 567.721 228.528C568.063 228.389 568.104 228.371 567.839 228.475C567.098 228.761 566.346 228.99 565.575 229.181C563.488 229.694 562.237 232.054 562.795 234.091C563.38 236.222 565.597 237.394 567.692 236.879C582.544 233.219 590.422 214.001 582.534 200.902C579.889 196.509 573.002 200.516 575.66 204.931" fill="#E0BFDB"/><path id="Fill 15" fill-rule="evenodd" clip-rule="evenodd" d="M365.862 379.12C354.675 389.956 355.12 410.817 367.128 420.87C368.76 422.237 371.047 422.51 372.643 420.87C374.016 419.46 374.284 416.576 372.643 415.201C363.732 407.739 363.071 392.834 371.377 384.788C375.037 381.243 369.514 375.582 365.862 379.12" fill="#FFCC37"/><path id="Fill 17" fill-rule="evenodd" clip-rule="evenodd" d="M676.788 417.755C679.848 425.03 680.402 435.118 674.553 441.24C672.079 443.829 668.671 444.918 665.583 442.976C662.566 441.08 660.833 437.296 660.868 433.79C660.922 428.384 664.303 423.494 667.877 419.695C669.961 417.479 672.225 415.442 674.63 413.582C675.458 414.919 676.182 416.315 676.788 417.755M641.518 418.947C641.662 422.752 641.306 426.783 639.84 430.268C638.499 433.456 636.288 436 632.751 436.067C628.536 436.149 625.131 432.401 624.123 428.606C621.77 419.751 627.999 410.294 635.126 405.527C636.4 404.675 637.738 403.913 639.126 403.25C640.465 408.386 641.319 413.642 641.518 418.947M708.255 400.175C703.661 394.681 695.687 394.615 689.346 396.581C684.761 398.001 680.335 400.175 676.209 402.749C674.341 400.843 672.281 399.12 670.037 397.647C662.338 392.595 653.116 391.329 644.357 393.139C643.493 390.827 642.54 388.547 641.487 386.312C638.673 380.343 634.336 374.44 627.155 374.02C623.98 373.834 620.791 374.966 618.608 377.294C615.072 381.06 620.751 386.744 624.298 382.965C627.253 379.817 631.276 384.384 632.755 386.906C634.351 389.626 635.632 392.551 636.728 395.541C636.679 395.564 636.628 395.579 636.579 395.601C625.314 400.514 616.369 411.368 615.665 423.865C615.271 430.869 618.276 437.682 624.252 441.533C629.698 445.045 636.71 444.854 641.798 440.837C651.525 433.158 650.163 417.856 648.231 407.14C647.843 404.99 647.355 402.861 646.792 400.753C650.689 400.038 654.718 400.114 658.602 401.181C662.723 402.314 666.456 404.52 669.567 407.414C664.481 411.38 659.674 415.968 656.435 421.577C653.196 427.185 651.603 434.159 653.988 440.385C656.097 445.882 660.495 450.787 666.557 451.781C680.19 454.019 687.51 438.592 687.018 427.231C686.736 420.787 684.667 414.543 681.255 409.134C681.592 408.936 681.915 408.714 682.256 408.52C686.946 405.861 693.315 402.32 698.92 403.585C701.003 404.054 702.422 405.144 703.245 407.11C703.79 408.409 703.812 409.618 703.006 410.478C699.473 414.245 705.15 419.931 708.696 416.149C713.04 411.519 712.116 404.793 708.255 400.175" fill="#FFCC37"/><g id="Group 21"><path id="Fill 19" fill-rule="evenodd" clip-rule="evenodd" d="M421.726 506.703C412.693 512.513 410.919 525.993 419.403 533.184C423.773 536.889 428.865 537.859 434.403 536.905C436.257 536.585 438.882 535.556 440.754 536.22C442.571 536.864 442.508 539.455 442.476 541.068C442.363 546.887 440.914 552.407 443.424 557.96C445.579 562.724 450.219 565.493 455.406 564.903C457.473 564.669 459.427 564.116 461.4 563.47C463.244 562.868 465.377 562.088 466.827 562.137C467.776 562.171 466.535 561.868 467.382 562.252C466.739 561.96 467.772 562.686 467.417 562.279C467.853 562.779 467.962 563.027 468.038 563.733C468.318 566.265 467.455 568.845 467.543 571.389C467.747 577.33 471.702 582.673 477.387 584.437C483.324 586.28 489.676 583.424 493.004 578.37C495.861 574.026 488.915 569.981 486.075 574.296C484.339 576.934 480.561 577.764 478.002 575.863C474.697 573.407 475.688 569.581 475.987 566.035C476.39 561.25 474.721 556.373 469.897 554.613C466.294 553.298 462.478 554.651 459.021 555.771C456.461 556.602 453.282 558.087 451.4 555.785C448.529 552.269 450.163 546.633 450.429 542.581C450.759 537.531 449.729 531.882 444.906 529.254C440.293 526.742 435.626 529.034 430.854 529.292C427.11 529.494 423.38 527.094 422.188 523.472C421.014 519.908 422.647 515.681 425.776 513.67C430.113 510.881 426.093 503.894 421.726 506.703" fill="#FFCC37"/></g><path id="Fill 22" fill-rule="evenodd" clip-rule="evenodd" d="M300.863 495.427C299.558 494.807 298.286 494.122 297.052 493.367C296.42 492.979 295.797 492.574 295.187 492.153C294.898 491.953 294.612 491.749 294.328 491.542C294.17 491.426 294.015 491.309 293.857 491.193C293.285 490.775 294.416 491.639 294.026 491.329C291.73 489.498 289.626 487.461 287.754 485.193C287.128 484.433 285.829 484 284.887 484C283.893 484 282.706 484.443 282.022 485.193C281.313 485.966 280.787 486.986 280.835 488.07C280.886 489.204 281.302 490.074 282.022 490.946C286.007 495.777 291.126 499.769 296.772 502.454C297.775 502.931 298.791 503.169 299.895 502.863C300.835 502.603 301.854 501.875 302.317 500.995C303.27 499.184 302.909 496.4 300.863 495.427" fill="#FFCC37"/><path id="Fill 24" fill-rule="evenodd" clip-rule="evenodd" d="M650.309 186.011C650.17 183.849 648.597 182 646.37 182C644.346 182 642.292 183.838 642.43 186.011C643.032 195.361 642.765 204.737 641.635 214.035C641.397 215.986 643.316 217.764 645.05 217.974C646.805 218.187 649.069 217.096 649.373 215.101C649.478 214.402 649.585 213.703 649.691 213.004C649.754 212.597 649.758 212.193 649.733 211.795C650.645 203.231 650.861 194.611 650.309 186.011" fill="#FFCC37"/><path id="Fill 26" fill-rule="evenodd" clip-rule="evenodd" d="M691.448 293.306C686.963 287.704 678.154 286.722 672.544 291.077C669.893 293.133 668.34 296.688 665.509 298.41C663.554 299.599 660.779 299.345 658.934 297.838C657.004 296.26 656.36 293.1 655.353 290.92C653.931 287.847 651.498 285.178 648.126 284.464C644.142 283.619 640.34 285.614 637.608 288.469C635.118 291.071 633.789 294.371 631.688 297.245C630.2 299.282 628.28 300.832 626.019 298.957C622.75 296.25 623.521 290.804 623.855 287.079C624.051 284.882 621.877 283 619.858 283C617.534 283 616.06 284.877 615.863 287.079C615.453 291.66 615.389 296.344 617.37 300.592C618.957 303.997 622.155 306.936 625.812 307.753C629.678 308.616 633.441 307.153 636.201 304.356C638.794 301.73 640.084 298.283 642.268 295.379C643.548 293.673 646.02 291.169 647.577 293.327C649.034 295.343 649.655 298.622 651.144 300.959C655.11 307.177 664.107 309.384 670.199 305.018C672.03 303.705 673.391 302.041 674.799 300.297C675.796 299.062 676.843 297.606 678.32 296.951C680.995 295.763 683.971 296.795 685.797 299.074C687.163 300.782 690.03 300.522 691.448 299.074C693.102 297.387 692.819 295.017 691.448 293.306" fill="#00AFA9"/><path id="Fill 28" fill-rule="evenodd" clip-rule="evenodd" d="M722.69 474.074C722.491 476.098 722.093 480.145 722.093 480.145C721.721 483.922 721.553 487.834 724.44 490.758C726.901 493.252 730.5 494.164 733.912 494.223C736.965 494.276 740.103 493.167 743.148 493.65C748.747 494.535 746.307 503.471 746.163 507.38C745.933 513.705 748.103 521.176 755.12 522.748C758.78 523.567 762.276 522.27 765.478 520.583C768.021 519.242 770.872 517.173 773.625 517.084C778.824 516.917 778.848 508.836 773.625 509.003C770.49 509.105 767.672 510.207 764.93 511.657C762.724 512.827 760.582 514.426 758.161 514.89C756.796 515.154 755.539 514.546 754.858 512.801C754.085 510.832 754.161 508.085 754.366 505.793C754.886 499.959 755.477 493.332 750.91 488.818C748.33 486.268 744.66 485.394 741.125 485.525C738.394 485.626 735.534 486.422 732.853 486.101C731.859 485.982 730.58 485.627 730.186 485.075C729.511 484.128 730 482.115 730.115 480.926C730.573 476.246 731.037 471.568 731.497 466.89C731.83 463.521 727.889 462.284 725.404 463.4C721.594 465.112 720.678 469.77 722.403 473.242" fill="#00AFA9"/><path id="Fill 30" fill-rule="evenodd" clip-rule="evenodd" d="M568.859 94.1132C568.933 94.0709 569.004 94.0301 569.001 94.0216C569.036 94.1146 568.966 94.1315 568.859 94.1132M568.608 97.8797C568.456 100.65 568.134 103.404 567.644 106.132C566.694 111.426 565.226 116.664 563.186 121.635C562.02 124.475 559.914 129.322 556.49 129.885C553.246 130.418 550.963 126.195 549.654 123.797C547.172 119.249 545.057 114.491 543.298 109.61C542.376 107.049 541.548 104.453 540.813 101.831C540.327 100.088 539.689 98.3825 539.672 96.7542C540.047 96.9683 540.43 97.1698 540.792 97.3909C542.801 98.622 544.649 100.045 546.36 101.672C549.083 104.263 551.307 107.238 553.089 110.509C552.842 112.471 552.724 114.451 552.757 116.433C552.847 121.638 560.855 121.655 560.765 116.433C560.758 116.026 560.767 115.621 560.774 115.212C562.377 113.939 562.521 111.867 561.742 110.017C561.628 109.748 561.498 109.486 561.38 109.22C561.795 107.041 562.419 104.901 563.277 102.831C564.168 100.678 565.347 98.6164 566.659 96.7007C567.025 96.1655 568.009 95.3076 568.467 94.6442C568.542 94.909 568.599 95.1231 568.592 95.0809C568.741 95.9852 568.658 96.9697 568.608 97.8797M538.791 96.226C538.516 96.2838 538.42 96.05 538.791 96.226ZM539.865 95.4893C539.862 95.495 539.853 95.4992 539.849 95.5077C539.849 95.5006 539.851 95.4893 539.851 95.4865C539.932 95.2048 539.937 95.2062 539.865 95.4893M575.061 89.679C573.032 86.2647 568.893 85.0223 565.359 86.8239C562.144 88.462 559.893 92.0961 558.151 95.1583C557.252 96.7373 556.467 98.3755 555.788 100.059C554.426 98.3614 552.941 96.7669 551.339 95.3133C547.39 91.7271 539.629 85.0124 534.366 89.7213C529.718 93.8822 532.202 101.105 533.713 106.123C535.775 112.967 538.481 119.642 541.742 125.99C544.519 131.399 548.31 137.217 554.841 137.935C561.025 138.615 565.866 133.845 568.657 128.771C571.955 122.776 573.959 115.732 575.228 109.026C575.925 105.352 576.406 101.614 576.616 97.8797C576.77 95.1119 576.504 92.1074 575.061 89.679" fill="#00AFA9"/><path id="Fill 32" fill-rule="evenodd" clip-rule="evenodd" d="M370.908 472.662C370.526 473.077 370.131 473.477 369.708 473.851C369.705 473.853 368.908 474.494 369.34 474.169C369.777 473.838 369.025 474.38 368.939 474.439C368.478 474.75 368.002 475.037 367.511 475.299C367.218 475.456 366.913 475.589 366.616 475.743C366.928 475.582 367.066 475.569 366.661 475.721C365.613 476.109 364.55 476.43 363.451 476.636C363.283 476.668 362.214 476.761 363.198 476.69C362.976 476.705 362.754 476.737 362.531 476.754C361.916 476.803 361.301 476.821 360.684 476.81C360.125 476.8 359.565 476.715 359.009 476.705C358.411 476.694 359.947 476.887 358.919 476.691C358.643 476.64 358.369 476.591 358.095 476.531C357.55 476.414 357.01 476.27 356.477 476.103C356.212 476.02 355.948 475.93 355.686 475.835C355.584 475.798 354.731 475.438 355.239 475.666C355.751 475.899 354.816 475.454 354.815 475.452C354.568 475.328 354.322 475.195 354.081 475.058C353.596 474.783 353.134 474.479 352.676 474.162C352.361 473.942 352.146 473.721 352.568 474.089C352.357 473.905 352.143 473.725 351.938 473.534C351.484 473.11 351.064 472.659 350.659 472.188C349.224 470.515 346.413 470.696 344.945 472.188C343.313 473.845 343.508 476.314 344.945 477.989C352.835 487.188 368.453 487.323 376.621 478.463C378.112 476.847 378.2 474.265 376.621 472.662C375.113 471.131 372.405 471.037 370.908 472.662" fill="#00AFA9"/><path id="Fill 34" fill-rule="evenodd" clip-rule="evenodd" d="M358.573 185.818C354.72 176.445 342.04 175.373 336.017 183.289C332.959 187.308 332.147 192.549 333.203 197.414C333.633 199.397 334.414 201.325 334.702 203.337C334.901 204.732 335.125 205.313 333.853 205.588C331.982 205.991 329.76 205.31 327.819 205.531C325.205 205.826 322.839 206.953 321.057 208.911C317.643 212.663 316.999 217.847 317.895 222.652C318.361 225.148 319.269 227.527 320.039 229.939C320.261 230.635 320.442 232.646 320.949 233.189C321.083 233.334 320.364 234.595 321.299 232.808C321.402 232.718 321.523 232.672 321.66 232.669C321.374 232.771 321.082 232.851 320.785 232.91C319.579 233.145 317.351 232.924 315.769 233.035C313.228 233.213 310.812 234.008 308.743 235.504C304.205 238.791 301.653 244.587 303.342 250.093C305.049 255.665 309.781 259.24 315.46 259.977C317.614 260.256 319.476 257.941 319.476 255.983C319.476 253.593 317.621 252.268 315.46 251.988C312.945 251.662 310.748 248.812 310.845 246.363C310.949 243.759 313.192 241.397 315.769 241.023C319.417 240.493 323.102 241.55 326.268 239.051C330.387 235.8 328.735 230.685 327.348 226.496C326.258 223.205 324.626 219.3 325.986 215.901C327.402 212.367 330.562 213.711 333.791 213.558C338.358 213.344 342.106 210.508 342.695 205.879C343.195 201.953 341.382 198.524 340.832 194.743C340.389 191.706 341.463 187.758 344.45 186.324C346.39 185.393 350.025 185.985 350.831 187.942C351.651 189.939 353.499 191.352 355.769 190.732C357.668 190.214 359.399 187.828 358.573 185.818" fill="#FFCC37"/><path id="Fill 36" fill-rule="evenodd" clip-rule="evenodd" d="M387.06 87.1511C381.673 93.8422 376.286 100.535 370.9 107.226C369.601 108.839 369.218 111.293 370.9 112.849C372.34 114.181 375.091 114.574 376.481 112.849C381.868 106.156 387.254 99.4654 392.641 92.7729C393.939 91.1613 394.323 88.706 392.641 87.1511C391.201 85.819 388.448 85.4261 387.06 87.1511" fill="#F06647"/><path id="Fill 38" fill-rule="evenodd" clip-rule="evenodd" d="M680.582 136.429C670.296 129.146 660.008 121.864 649.721 114.58C647.931 113.314 645.203 114.265 644.164 116.034C642.973 118.063 643.828 120.302 645.621 121.571C655.909 128.854 666.196 136.136 676.482 143.42C678.272 144.686 681.002 143.735 682.039 141.968C683.23 139.937 682.375 137.698 680.582 136.429" fill="#F06647"/><path id="Fill 40" fill-rule="evenodd" clip-rule="evenodd" d="M512.459 471.126C509.445 470.686 506.716 471.372 504.558 473.556C502.748 475.386 501.675 478.027 501.7 480.566C501.73 483.526 503.312 486.11 505.914 487.596C507.083 488.263 508.436 488.663 509.741 488.994C510.348 489.148 510.962 489.28 511.564 489.456C512.248 489.659 512.289 489.609 512.632 489.901C512.699 489.957 512.339 489.646 512.413 489.642C512.489 489.767 512.565 489.891 512.642 490.016L512.538 489.803C512.867 489.746 511.937 488.967 512.516 489.842C512.402 489.669 512.805 489.091 512.433 489.871C512.692 489.326 512.075 490.388 511.971 490.538C511.843 490.721 511.347 491.293 510.962 491.706C509.12 493.681 506.969 495.524 505.596 497.866C502.465 503.205 504.13 510.323 509.199 513.909C514.983 518.004 523.507 515.766 527.074 509.96C529.788 505.544 522.718 501.525 520.011 505.931C519.11 507.397 517.426 508.144 515.612 508.014C514.22 507.914 512.884 506.825 512.396 505.263C511.838 503.473 512.235 502.187 513.603 500.628C515.44 498.532 517.618 496.726 519.16 494.387C520.816 491.875 521.276 488.658 519.706 485.986C518.108 483.268 515.342 482.147 512.376 481.408C511.767 481.257 511.143 481.128 510.551 480.921C510.407 480.87 509.673 480.463 509.993 480.736C509.661 480.399 509.64 480.395 509.929 480.724C509.705 480.317 509.7 480.317 509.913 480.724C509.808 480.264 509.798 480.271 509.883 480.745C509.872 480.506 509.876 480.266 509.897 480.027C509.527 481.174 510.391 478.927 509.937 479.918C510.013 479.755 510.824 478.592 510.343 479.199C510.693 478.89 510.69 478.859 510.336 479.113C510.531 478.976 510.737 478.855 510.952 478.751C510.521 478.927 510.532 478.949 510.985 478.817C510.751 478.915 510.518 478.917 510.284 478.824C512.466 479.142 514.681 478.29 515.316 476.036C515.847 474.152 514.657 471.447 512.459 471.126" fill="#41AFE4"/><path id="Fill 42" fill-rule="evenodd" clip-rule="evenodd" d="M439.026 180.597C444.362 181.991 450.238 179.693 453.107 174.83C455.979 169.965 454.902 163.222 450.919 159.326C446.84 155.337 441.25 155.429 435.995 155.855C433.674 156.044 431.226 156.339 429.101 155.634C427.54 155.114 426.453 153.884 425.977 152.374C424.683 148.259 428.085 144.291 432.441 144.116C437.544 143.913 437.57 135.799 432.441 136.004C427.073 136.22 421.68 139.127 419.206 144.15C416.72 149.199 417.479 155.233 421.014 159.555C424.589 163.925 430.278 164.412 435.464 164.01C437.731 163.833 440.327 163.44 442.484 163.815C444.231 164.12 445.611 164.924 446.366 166.599C447.916 170.035 444.748 173.718 441.141 172.776C436.178 171.479 434.062 179.301 439.026 180.597" fill="#E0BFDB"/><path id="Fill 44" fill-rule="evenodd" clip-rule="evenodd" d="M283.632 357.831C283.177 357.682 283.721 357.867 283.817 357.945C283.38 357.599 283.887 358.071 283.931 358.125C283.646 357.775 284.461 358.969 284.536 359.097C285.143 360.155 285.639 361.277 286.31 362.301C288.21 365.193 291.087 367.212 294.709 366.982C298.402 366.747 301.551 364.306 303.509 361.333C305.614 358.134 305.702 354.277 306.392 350.651C306.738 348.835 307.686 344.999 310.247 345.111C309.862 345.095 310.544 345.477 310.575 345.519C311.319 346.5 311.791 347.696 312.321 348.796C313.504 351.249 315.113 353.575 317.853 354.459C321.897 355.767 325.397 353.212 327.742 350.207C332.934 343.549 334.735 335.135 333.352 326.917C332.993 324.785 330.319 323.597 328.369 324.125C326.077 324.746 325.18 326.904 325.539 329.041C326.483 334.65 324.915 340.726 321.448 345.257C321.173 345.618 320.054 346.473 319.974 346.829C319.902 347.148 319.864 346.653 319.906 346.862C319.888 346.772 320.332 346.855 320.356 346.859C321.208 347.019 320.344 346.833 320.343 346.833C320.584 346.841 320.766 347.4 320.353 346.744C320.707 347.307 319.967 346.049 319.892 345.912C318.79 343.881 318.022 341.751 316.422 340.013C311.679 334.857 304.246 337.589 300.776 342.67C298.915 345.395 298.54 348.724 298.059 351.888C297.69 354.326 297.37 357.459 294.909 358.772C294.202 359.149 294.079 359.086 293.772 358.837C293.273 358.43 292.67 357.191 292.181 356.271C290.694 353.469 288.943 351.158 285.786 350.122C280.828 348.496 278.701 356.212 283.632 357.831" fill="#41AFE4"/><path id="Fill 46" fill-rule="evenodd" clip-rule="evenodd" d="M479.873 228.814C482.226 230.758 484.414 232.894 486.403 235.208C486.873 235.755 487.33 236.314 487.781 236.879C488.305 237.533 487.373 236.339 487.671 236.736C487.791 236.896 487.914 237.055 488.034 237.215C488.249 237.504 488.462 237.796 488.672 238.089C489.584 239.361 490.434 240.672 491.23 242.018C492.297 243.818 494.896 244.622 496.722 243.45C498.544 242.282 499.303 239.914 498.162 237.987C494.849 232.394 490.571 227.319 485.549 223.169C484.71 222.475 483.84 222 482.712 222C481.728 222 480.552 222.433 479.873 223.169C478.514 224.642 478.149 227.39 479.873 228.814" fill="#41AFE4"/><path id="Fill 48" fill-rule="evenodd" clip-rule="evenodd" d="M719.163 210.296C716.896 208.987 715.173 206.8 714.728 204.376C719.172 205 723.321 207.373 725.911 211.049C723.677 211.659 721.315 211.54 719.163 210.296M741.62 179.935C740.857 177.918 738.922 176.535 736.703 177.145C734.768 177.676 733.143 180.029 733.912 182.058C736.847 189.808 738.298 200.147 732.556 206.728C727.823 199.851 719.425 195.583 711.008 196.277C709.201 196.427 707.688 197.42 707.154 199.209C705.191 205.778 708.435 212.396 713.765 216.292C718.14 219.491 723.556 220.051 728.555 218.567C728.871 223.684 726.586 228.863 722.649 232.214C721.005 233.613 721.208 236.422 722.649 237.861C724.279 239.489 726.654 239.266 728.303 237.861C734.902 232.244 737.825 222.899 735.966 214.515C739.626 211.401 742.3 207.067 743.55 202.489C745.585 195.032 744.315 187.049 741.62 179.935" fill="#41AFE4"/><path id="Fill 50" fill-rule="evenodd" clip-rule="evenodd" d="M745.664 316.993C745.645 317.61 745.617 318.227 745.569 318.842C745.547 319.115 745.523 319.389 745.495 319.662C745.488 319.731 745.402 320.493 745.446 320.152C745.493 319.781 745.332 320.868 745.336 320.84C745.291 321.112 745.243 321.382 745.192 321.65C745.089 322.188 744.974 322.726 744.848 323.259C744.578 324.392 744.253 325.511 743.876 326.613C743.676 327.196 743.462 327.773 743.234 328.347C743.391 327.954 743.225 328.375 743.156 328.53C743.016 328.841 742.876 329.155 742.73 329.463C741.735 331.571 740.54 333.567 739.174 335.448C738.775 335.996 739.466 335.083 739.048 335.617C738.879 335.833 738.708 336.045 738.535 336.256C738.144 336.729 737.741 337.193 737.327 337.644C736.497 338.55 735.616 339.403 734.7 340.218C733.1 341.64 733.264 344.407 734.7 345.86C736.289 347.469 738.669 347.288 740.274 345.86C748.423 338.613 753.218 327.937 753.547 316.993C753.61 314.905 751.689 312.909 749.605 313.003C747.416 313.102 745.731 314.757 745.664 316.993" fill="#41AFE4"/></g></g></svg>