<svg viewBox="226.73749999999995 158.521897810219 613.525 346.35036496350364" fill="none" xmlns="http://www.w3.org/2000/svg" xmlns:xlink="http://www.w3.org/1999/xlink" overflow="visible" width="613.525px" height="346.35036496350364px"><g id="Master/Stickers/Jello"><g id="Group 47"><g id="Group 3"><path id="Fill 1" fill-rule="evenodd" clip-rule="evenodd" d="M822.169 427.018H244.899C237.499 427.018 231.5 433.099 231.5 440.6C231.5 448.101 237.499 454.181 244.899 454.181H822.169C829.569 454.181 835.568 448.101 835.568 440.6C835.568 433.099 829.569 427.018 822.169 427.018" fill="#F06647"/></g><path id="Fill 4" fill-rule="evenodd" clip-rule="evenodd" d="M263.48 454V454C277.127 486.354 297.135 505 318.207 505H749.431C770.501 505 790.51 486.354 804.156 454" fill="#BF62A2"/><path id="Fill 6" fill-rule="evenodd" clip-rule="evenodd" d="M782.747 454V454C769.146 486.354 749.204 505 728.203 505H748.614C769.615 505 789.557 486.354 803.158 454H782.747Z" fill="#775CA6"/><path id="Fill 8" fill-rule="evenodd" clip-rule="evenodd" d="M263.48 454C265.038 457.508 266.681 460.838 268.395 464H799.241C800.956 460.838 802.6 457.508 804.156 454H263.48Z" fill="#943F8B"/><path id="Fill 10" fill-rule="evenodd" clip-rule="evenodd" d="M527.069 166L526.912 166.01L527.069 166M526.875 166.012L526.724 166.024L526.875 166.012M526.689 166.026L526.56 166.036L526.689 166.026M526.523 166.039L526.378 166.051L526.523 166.039M526.33 166.055L526.198 166.066L526.33 166.055M526.174 166.07L526.031 166.083L526.174 166.07M525.978 166.088L525.841 166.102L525.978 166.088M525.628 166.126L525.496 166.14L525.628 166.126M525.438 166.147L525.331 166.16L525.438 166.147M525.276 166.167L525.153 166.182L525.276 166.167M525.089 166.19L524.982 166.204L525.089 166.19M524.743 166.236L524.622 166.254L524.743 166.236M544.421 166.723C548.409 167.166 556.954 169.457 561.837 173.097C564.483 175.839 567.263 180.063 569.542 187.066C572.811 197.106 582.037 207.582 586.244 217.266C590.025 225.972 587.141 236.696 591.773 244.978C595.27 251.231 602.458 254.885 605.517 261.361C609.199 269.157 605.823 278.423 607.14 286.942C608.796 297.661 617.703 306.231 619.177 316.976C620.526 326.813 615.407 337.094 618.493 346.531C619.5 349.611 621.325 352.353 622.628 355.321C631.014 374.424 616.382 397.049 622.228 417.074C623.164 420.284 624.584 423.674 625.541 427H445.054C447.458 422.319 446.595 416.388 444.91 411.277C443.059 405.655 440.339 400.115 440.452 394.197C440.638 384.598 448.181 376.547 449.459 367.031C450.243 361.202 448.605 355.308 448.818 349.429C449.287 336.52 458.493 325.319 459.823 312.469C460.788 303.139 457.514 293.571 459.618 284.431C462.182 273.282 472.267 264.907 474.355 253.661C475.559 247.179 473.953 240.36 475.594 233.977C477.693 225.813 484.649 219.866 488.424 212.329C491.383 206.417 492.294 199.714 494.419 193.455C497.113 185.518 501.918 178.383 508.075 172.701C510.997 170.762 515.439 168.474 520.457 167.12C513.611 168.966 507.832 172.552 505.526 174.614C504.269 175.739 503.087 176.955 501.898 178.161C500.266 179.523 498.655 180.987 497.067 182.548C496.712 182.812 496.353 183.074 495.981 183.317C492.94 185.293 489.348 186.412 486.581 188.758C481.034 193.462 480.234 201.687 476.194 207.734C472.05 213.936 464.807 217.403 460.02 223.097L459.998 223.123L459.911 223.227L459.884 223.26L459.793 223.372L459.775 223.393L459.67 223.522L459.641 223.558L459.568 223.651L459.529 223.699L459.459 223.789L459.425 223.833L459.324 223.964C451.733 233.906 453.569 247.979 449.588 259.834C447.402 266.345 443.458 272.147 441.19 278.63C438.85 285.31 438.364 292.503 436.381 299.298C433.041 310.748 425.516 320.887 423.812 332.692C423.495 334.893 423.388 337.11 423.389 339.334C423.391 344.052 423.879 348.806 423.883 353.511C423.885 356.382 423.707 359.234 423.129 362.049C421.524 369.867 416.941 376.829 415.333 384.648C414.786 387.308 414.592 390.059 414.592 392.858C414.592 399.689 415.748 406.81 415.758 413.611C415.763 418.293 415.225 422.823 413.391 427H420.542H426.696H643.283H649.094H654.618C655.058 425.685 655.243 424.329 655.245 422.945C655.257 415.893 650.491 408.1 650.174 401.039C650.163 400.77 650.156 400.501 650.157 400.232C650.171 393.642 653.806 387.002 653.798 380.684C653.796 379.008 653.539 377.354 652.889 375.729C651.873 373.195 649.993 371.1 648.819 368.635C647.507 365.884 647.16 362.931 647.162 359.892C647.164 356.446 647.616 352.89 647.619 349.395C647.621 347.838 647.533 346.292 647.278 344.774C646.127 337.931 641.604 331.974 640.667 325.099C640.505 323.908 640.453 322.707 640.454 321.503C640.454 319.396 640.613 317.277 640.613 315.173C640.612 313.67 640.531 312.175 640.253 310.697C639.054 304.341 634.419 299.211 632.067 293.185C629.301 286.095 629.814 278.084 627.259 270.917C624.427 262.971 618.071 256.708 614.941 248.876C610.992 238.993 612.282 226.944 605.639 218.629L605.543 218.509L605.51 218.47L605.42 218.36L605.385 218.316L605.323 218.243L605.279 218.19L605.197 218.093L605.146 218.033L605.101 217.981L605.012 217.877L604.971 217.83L604.911 217.762L604.877 217.723L604.773 217.605L604.741 217.57L604.678 217.501L604.646 217.464L604.54 217.35L604.504 217.311L604.442 217.243L604.422 217.222L604.305 217.097L604.265 217.054L604.188 216.974L604.124 216.907L604.071 216.852L604.012 216.791L603.954 216.731L603.874 216.65L603.834 216.61L603.733 216.509L603.717 216.493L603.615 216.392L603.596 216.373C598.946 211.79 593.023 208.99 589.079 203.575C586.81 200.46 585.612 196.711 583.816 193.3C578.476 183.16 571.12 184.06 564.107 175.217C560.243 170.346 549.139 167.247 544.421 166.723M520.957 166.988L520.827 167.022L520.957 166.988M520.777 167.035L520.648 167.069L520.777 167.035M520.634 167.072L520.482 167.113L520.634 167.072" fill="#F59EB0"/><path id="Fill 12" fill-rule="evenodd" clip-rule="evenodd" d="M430.694 181.066L430.812 181.073L430.694 181.066M430.906 181.079L431.059 181.089L430.906 181.079M431.124 181.093L431.306 181.107L431.124 181.093M431.35 181.11L431.567 181.127L431.35 181.11M431.571 181.128C440.722 181.876 448.836 185.837 455.787 191.324C453.456 193.594 450.419 195.401 447.431 196.481C440.485 198.996 432.384 200.198 427.803 206.005C423.58 211.356 423.782 218.928 421.05 225.176C415.319 238.292 397.878 243.466 392.91 256.892C388.866 267.819 394.438 281.137 388.557 291.19C383.499 299.836 371.54 302.964 367.454 312.112C362.202 323.869 373.1 337.194 371.057 349.915C369.244 361.197 357.536 369.936 358.618 381.312C359.301 388.517 365.192 395.136 363.476 402.168C361.828 408.917 354.117 412.117 350.199 417.848C348.285 420.647 347.422 423.739 347.132 427H305.135H299.624H295.467C295.465 426.871 295.463 426.742 295.463 426.613C295.463 426.742 295.465 426.871 295.467 427H299.624H305.135H413.712C415.543 422.813 416.081 418.274 416.076 413.582C416.081 418.274 415.543 422.813 413.712 427H391.27C396.961 414.714 391.846 398.755 395.386 385.61C397.464 377.888 402.46 371.205 404.539 363.483C407.092 353.989 405.024 343.787 407.014 334.158C409.434 322.454 417.555 312.774 421.584 301.524C423.976 294.848 424.9 287.685 427.64 281.145C430.297 274.8 434.585 269.237 437.163 262.859C441.854 251.243 440.885 237.054 449.059 227.575C454.178 221.642 462.134 218.619 466.868 212.373C468.196 210.621 469.24 208.652 470.212 206.637C470.948 207.649 471.659 208.665 472.339 209.68C463.343 196.264 449.427 182.585 431.571 181.128" fill="#F9C1CC"/><path id="Fill 14" fill-rule="evenodd" clip-rule="evenodd" d="M472.373 210.018C472.67 210.346 472.962 210.674 473.249 211C472.962 210.673 472.67 210.346 472.373 210.018" fill="#F7ACBB"/><path id="Fill 16" fill-rule="evenodd" clip-rule="evenodd" d="M470.316 207C469.343 209.012 468.3 210.978 466.972 212.727C462.24 218.963 454.287 221.98 449.171 227.903C441 237.368 441.969 251.532 437.279 263.129C434.703 269.497 430.417 275.051 427.761 281.385C425.022 287.915 424.097 295.066 421.707 301.73C417.679 312.962 409.562 322.626 407.142 334.311C405.153 343.924 407.221 354.11 404.668 363.587C402.59 371.297 397.597 377.969 395.519 385.678C391.979 398.802 397.093 414.734 391.404 427H413.837C415.669 422.82 416.206 418.288 416.2 413.604C416.192 406.8 415.038 399.674 415.038 392.841C415.037 390.04 415.231 387.288 415.776 384.626C417.381 376.804 421.958 369.838 423.559 362.016C424.136 359.198 424.314 356.344 424.312 353.473C424.308 348.766 423.82 344.009 423.818 339.289C423.817 337.064 423.925 334.846 424.241 332.644C425.942 320.832 433.454 310.689 436.789 299.232C438.769 292.433 439.254 285.237 441.589 278.554C443.854 272.067 447.792 266.263 449.973 259.748C453.948 247.886 452.114 233.807 459.693 223.86L459.794 223.729L459.827 223.685L459.898 223.595L459.936 223.547L460.01 223.454L460.038 223.418L460.143 223.288L460.16 223.266L460.251 223.155L460.279 223.122L460.366 223.018L460.388 222.991C464.099 218.567 469.284 215.482 473.355 211.42C473.062 210.968 472.764 210.516 472.46 210.062L472.444 210.04L472.443 210.038C471.762 209.025 471.051 208.011 470.316 207" fill="#F08296"/><path id="Fill 18" fill-rule="evenodd" clip-rule="evenodd" d="M424.098 339.535C424.1 344.265 424.584 349.03 424.588 353.748C424.584 349.03 424.1 344.265 424.098 339.535M415.391 393.195C415.391 400.043 416.536 407.183 416.545 414C416.536 407.183 415.391 400.043 415.391 393.195" fill="#E85168"/><path id="Fill 20" fill-rule="evenodd" clip-rule="evenodd" d="M634.853 181.114L634.747 181.122L634.853 181.114M634.418 181.148L634.313 181.156L634.418 181.148M634.208 181.166L634.044 181.18L634.208 181.166M633.745 181.208L633.641 181.218L633.745 181.208M633.566 181.227L633.355 181.248L633.566 181.227M633.282 181.256L633.162 181.27L633.282 181.256M633.098 181.277C632.958 181.293 632.819 181.31 632.679 181.327C632.819 181.31 632.957 181.293 633.098 181.277M632.628 181.333L632.489 181.351L632.628 181.333M632.47 181.353C632.315 181.373 632.158 181.394 632.003 181.416C632.159 181.394 632.314 181.373 632.47 181.353M631.987 181.418C615.587 183.717 603.71 195.182 595.365 207.699C596.229 206.403 597.133 205.12 598.074 203.855C602.861 207.882 608.682 210.36 613.054 215.153C620.5 223.322 619.985 235.898 624.747 245.875C628.522 253.782 635.534 259.843 639.008 267.886C642.142 275.143 642.156 283.481 645.502 290.642C648.347 296.731 653.5 301.733 655.173 308.242C656.419 313.082 655.584 318.244 656.583 323.141C658.021 330.206 663.112 336.073 664.768 343.089C666.69 351.22 663.909 360.426 667.987 367.717C669.372 370.193 671.463 372.238 672.685 374.797C676.546 382.867 670.613 392.324 671.596 401.216C672.531 409.665 679.709 418.726 678.15 427H654.52H762.476H767.222H772.172C772.175 426.895 772.176 426.792 772.176 426.687C772.176 426.792 772.175 426.895 772.172 427H767.222H762.476H736.554C735.644 419.944 735.412 412.607 731.551 406.778C728.821 402.655 724.533 399.755 721.798 395.637C714.784 385.077 719.965 370.563 716.101 358.489C712.162 346.188 699.376 338.06 696.273 325.522C693.045 312.489 701.234 298.254 696.643 285.639C694.037 278.479 687.702 273.187 684.97 266.076C682.665 260.075 683.095 253.184 680.158 247.465C674.182 235.826 657.699 234.324 648.896 224.646C642.402 217.509 640.124 206.029 631.222 202.312C628.909 201.346 626.475 201.065 623.984 201.065C622.236 201.065 620.46 201.203 618.679 201.341C616.898 201.48 615.113 201.619 613.344 201.619C612.592 201.619 611.844 201.593 611.101 201.533C608.206 201.297 605.194 199.867 602.998 197.867C610.522 189.618 620.058 183.092 631.987 181.418" fill="#F9C1CC"/><path id="Fill 22" fill-rule="evenodd" clip-rule="evenodd" d="M596.007 208L595.939 208.093L596.007 208M595.927 208.11C595.709 208.405 595.494 208.702 595.281 209C595.494 208.702 595.709 208.405 595.927 208.11" fill="#F7ACBB"/><path id="Fill 24" fill-rule="evenodd" clip-rule="evenodd" d="M598.743 204C597.799 205.264 596.893 206.546 596.026 207.841L595.956 207.946L595.944 207.965C595.721 208.3 595.5 208.635 595.281 208.972C598.225 211.308 601.379 213.377 604.099 216.054L604.119 216.072L604.222 216.173L604.237 216.189L604.339 216.291L604.379 216.331L604.459 216.412L604.517 216.473L604.576 216.532L604.629 216.588L604.694 216.655L604.771 216.736L604.811 216.779L604.928 216.904L604.95 216.925L605.013 216.993L605.048 217.032L605.153 217.147L605.186 217.183L605.249 217.252L605.281 217.288L605.386 217.406L605.42 217.445L605.48 217.512L605.521 217.559L605.612 217.664L605.656 217.716L605.707 217.776L605.789 217.873L605.834 217.926L605.895 218L605.931 218.043L606.022 218.153L606.054 218.193L606.151 218.313C612.82 226.641 611.525 238.708 615.49 248.605C618.632 256.45 625.013 262.722 627.856 270.679C630.421 277.857 629.906 285.88 632.683 292.981C635.044 299.016 639.698 304.155 640.901 310.521C641.181 312.001 641.262 313.498 641.263 315.003C641.263 317.11 641.104 319.232 641.104 321.342C641.103 322.549 641.155 323.75 641.317 324.945C642.258 331.83 646.798 337.796 647.954 344.649C648.21 346.17 648.298 347.717 648.296 349.277C648.293 352.778 647.84 356.339 647.838 359.791C647.836 362.833 648.185 365.791 649.501 368.546C650.68 371.015 652.568 373.113 653.587 375.651C654.24 377.279 654.499 378.934 654.501 380.612C654.508 386.941 650.859 393.59 650.845 400.192C650.844 400.461 650.85 400.731 650.862 401C651.18 408.071 655.965 415.876 655.954 422.939C655.952 424.325 655.765 425.682 655.324 427H679.01C680.572 418.732 673.377 409.675 672.44 401.232C671.454 392.347 677.402 382.895 673.532 374.83C672.306 372.272 670.21 370.23 668.822 367.756C664.734 360.47 667.522 351.269 665.595 343.143C663.935 336.132 658.832 330.268 657.39 323.209C656.39 318.314 657.226 313.156 655.977 308.319C654.3 301.814 649.136 296.815 646.284 290.73C642.929 283.573 642.916 275.242 639.774 267.989C636.291 259.95 629.263 253.894 625.479 245.993C620.705 236.022 621.222 223.454 613.758 215.29C609.376 210.501 603.539 208.024 598.743 204" fill="#F08296"/><path id="Fill 26" fill-rule="evenodd" clip-rule="evenodd" d="M604.99 216.725L605.108 216.85L604.99 216.725M605.227 216.978L605.332 217.093L605.227 216.978M605.46 217.234L605.566 217.352L605.46 217.234M605.701 217.507L605.792 217.61L605.701 217.507M641.521 314.975C641.523 317.083 641.363 319.205 641.363 321.316C641.363 319.205 641.523 317.083 641.521 314.975M648.572 349.257C648.569 352.759 648.114 356.322 648.112 359.773C648.114 356.322 648.569 352.759 648.572 349.257M654.789 380.602C654.795 386.931 651.139 393.582 651.126 400.185C651.139 393.582 654.795 386.931 654.789 380.602M656.246 422.938C656.244 424.325 656.057 425.683 655.614 427C656.057 425.683 656.244 424.325 656.246 422.938" fill="#E85168"/><path id="Fill 28" fill-rule="evenodd" clip-rule="evenodd" d="M638.288 181H638.079H638.288C645.228 181 651.878 182.411 658.244 185C651.878 182.411 645.228 181 638.288 181M638.018 181.001L637.859 181.002L638.018 181.001M637.801 181.002L637.592 181.005L637.801 181.002M637.569 181.005L637.384 181.008L637.569 181.005M637.32 181.009L637.16 181.013L637.32 181.009M637.109 181.014L636.902 181.019L637.109 181.014M636.86 181.02L636.695 181.026L636.86 181.02M636.629 181.027L636.474 181.033L636.629 181.027M636.419 181.035L636.217 181.043L636.419 181.035M636.163 181.046L636.012 181.052L636.163 181.046M635.942 181.056L635.78 181.063L635.942 181.056M635.736 181.066L635.54 181.076L635.736 181.066M635.467 181.081L635.337 181.088L635.467 181.081M635.258 181.093L635.111 181.103L635.258 181.093M635.005 181.109L634.872 181.118L635.005 181.109M634.574 181.14L634.469 181.148L634.574 181.14" fill="white"/><path id="Fill 30" fill-rule="evenodd" clip-rule="evenodd" d="M638.268 181H638.058L637.996 181.001L637.837 181.002H637.779L637.569 181.005H637.546L637.361 181.009L637.296 181.01L637.135 181.014L637.084 181.015L636.877 181.022L636.835 181.023L636.669 181.029L636.602 181.031L636.447 181.037L636.392 181.039L636.189 181.048L636.135 181.051L635.983 181.058L635.914 181.063L635.751 181.071L635.707 181.074L635.511 181.085L635.437 181.09L635.306 181.098L635.227 181.105L635.08 181.115L634.973 181.122L634.839 181.132L634.743 181.14L634.644 181.149L634.54 181.157L634.435 181.166L634.271 181.18L634.17 181.191L634.069 181.2L633.974 181.209L633.869 181.219L633.795 181.226L633.584 181.249L633.511 181.256L633.391 181.271L633.327 181.278C633.187 181.293 633.048 181.31 632.909 181.327L632.858 181.333L632.719 181.35L632.701 181.354C632.544 181.373 632.39 181.395 632.234 181.416L632.219 181.418C620.309 183.093 610.789 189.618 603.277 197.868C605.47 199.867 608.476 201.297 611.367 201.533C612.109 201.594 612.856 201.619 613.606 201.619C615.372 201.619 617.155 201.48 618.933 201.341C620.71 201.203 622.484 201.065 624.228 201.065C626.715 201.065 629.145 201.346 631.454 202.312C640.342 206.03 642.616 217.51 649.098 224.646C657.888 234.325 674.344 235.825 680.31 247.466C683.242 253.183 682.813 260.074 685.114 266.076C687.841 273.187 694.166 278.479 696.768 285.638C701.351 298.254 693.175 312.489 696.399 325.522C699.496 338.06 712.261 346.188 716.193 358.489C720.051 370.563 714.878 385.076 721.881 395.637C724.611 399.755 728.892 402.655 731.618 406.778C735.472 412.606 735.704 419.943 736.613 427H762.492H767.23H772.172C772.175 426.895 772.176 426.791 772.176 426.686C772.199 417.918 765.127 410.711 762.842 402.203C762.125 399.533 761.896 396.803 761.895 394.044C761.893 389.236 762.584 384.341 762.589 379.522C762.592 376.993 762.406 374.487 761.832 372.025C759.626 362.548 752.032 355.123 748.414 346.201C747.864 344.237 747.301 342.26 746.728 340.272C746.457 338.553 746.356 336.82 746.355 335.077C746.35 330.41 747.05 325.678 747.056 320.989C747.059 319.426 746.985 317.868 746.781 316.318C744.816 301.372 731.573 290.439 726.66 276.188C724.286 269.305 723.908 261.754 720.704 255.217C717.264 248.201 710.903 243.041 706.957 236.299C703.885 231.049 702.385 225.022 699.594 219.615C692.237 205.36 671.537 190.913 658.288 185.469L658.292 185.479C651.904 182.579 645.231 181 638.268 181M735.646 331.546C735.012 327.641 734.287 323.783 733.278 320.051C732.258 316.321 730.942 312.715 729.145 309.458C728.244 307.831 727.203 306.315 726.057 304.919C725.472 304.233 724.871 303.564 724.212 302.962C723.897 302.647 723.548 302.371 723.219 302.076L722.128 301.211C718.819 298.609 715.942 295.236 714.069 291.392C712.147 287.564 711.189 283.451 710.548 279.469C709.912 275.492 709.574 271.486 709.088 267.713C708.583 264.036 707.262 260.437 705.567 257.002C704.718 255.28 703.742 253.61 702.681 251.988C701.642 250.353 700.479 248.769 699.251 247.278L699.831 246.678C702.881 249.302 705.475 252.387 707.688 255.786C709.9 259.181 711.597 262.983 712.553 267.064C713.368 271.062 713.919 274.898 714.762 278.664C715.591 282.41 716.703 285.991 718.365 289.201C720.03 292.407 722.29 295.231 725.08 297.602L726.25 298.641C726.634 299.021 727.035 299.386 727.396 299.788C728.143 300.566 728.815 301.404 729.457 302.257C730.727 303.972 731.767 305.824 732.608 307.732C734.318 311.54 735.269 315.557 735.785 319.552C736.31 323.551 736.37 327.561 736.104 331.525L735.646 331.546" fill="#FBD4DB"/><path id="Fill 32" fill-rule="evenodd" clip-rule="evenodd" d="M699.797 247L699.219 247.601C700.446 249.096 701.607 250.681 702.646 252.319C703.706 253.943 704.681 255.616 705.528 257.34C707.224 260.781 708.544 264.386 709.048 268.067C709.533 271.847 709.871 275.859 710.507 279.841C711.147 283.83 712.105 287.949 714.025 291.783C715.896 295.633 718.771 299.011 722.078 301.617L723.167 302.483C723.497 302.779 723.846 303.055 724.161 303.371C724.819 303.974 725.419 304.644 726.004 305.33C727.149 306.728 728.189 308.248 729.09 309.877C730.885 313.138 732.2 316.75 733.219 320.486C734.228 324.224 734.952 328.087 735.584 332L736.042 331.977C736.307 328.007 736.249 323.991 735.725 319.986C735.208 315.985 734.258 311.962 732.55 308.148C731.708 306.237 730.671 304.382 729.401 302.665C728.76 301.81 728.087 300.971 727.34 300.192C726.979 299.789 726.581 299.423 726.196 299.043L725.028 298.003C722.239 295.628 719.982 292.8 718.317 289.588C716.657 286.374 715.545 282.787 714.717 279.036C713.875 275.264 713.324 271.422 712.51 267.418C711.555 263.33 709.859 259.522 707.649 256.123C705.437 252.718 702.844 249.63 699.797 247" fill="#FEF7F8"/><path id="Fill 34" fill-rule="evenodd" clip-rule="evenodd" d="M428.239 181C417.029 181 406.572 185.096 396.851 192.244C385.221 199.493 373.232 209.095 367.815 219.614C365.031 225.021 363.531 231.046 360.466 236.297C356.528 243.039 350.182 248.199 346.749 255.213C343.55 261.751 342.361 269.072 340.804 276.184C335.988 298.177 322.684 301.367 320.723 316.313C320.52 317.867 320.445 319.431 320.447 321C320.445 319.431 320.52 317.867 320.723 316.313C322.684 301.367 335.988 298.177 340.804 276.184C342.361 269.072 343.55 261.751 346.749 255.213C350.182 248.199 356.528 243.039 360.466 236.297C363.531 231.046 365.031 225.021 367.815 219.614C373.232 209.095 385.221 199.493 396.851 192.244C406.572 185.096 417.029 181 428.239 181H428.461H428.239M428.478 181L428.69 181.002L428.478 181M428.715 181.003L428.92 181.006L428.715 181.003M428.952 181.006L429.151 181.01L428.952 181.006M429.188 181.011L429.384 181.017L429.188 181.011M429.423 181.018L429.612 181.025L429.423 181.018M429.662 181.026L429.841 181.033L429.662 181.026M429.901 181.036L430.072 181.043L429.901 181.036M430.139 181.046L430.303 181.055L430.139 181.046M430.379 181.059L430.504 181.067L430.379 181.059" fill="white"/><path id="Fill 36" fill-rule="evenodd" clip-rule="evenodd" d="M428.908 181C417.649 181 407.146 185.096 397.382 192.245C385.701 199.493 373.659 209.096 368.218 219.615C365.422 225.022 363.915 231.049 360.836 236.299C356.881 243.041 350.507 248.201 347.059 255.217C343.846 261.754 342.652 269.076 341.087 276.188C336.25 298.181 322.888 301.372 320.918 316.318C320.714 317.873 320.639 319.437 320.641 321.006C320.65 325.659 321.339 330.355 321.343 334.988C321.343 335.456 321.337 335.924 321.321 336.392C321.324 336.538 321.324 336.686 321.324 336.832C321.296 355.396 307.694 364.043 305.832 372.025C305.262 374.462 305.074 376.941 305.07 379.443C305.065 384.277 305.758 389.188 305.758 394.013C305.758 395.328 305.705 396.638 305.574 397.937C305.113 400.028 304.671 402.054 304.254 404.005C301.555 411.723 295.478 418.502 295.463 426.613C295.463 426.741 295.464 426.87 295.467 427H299.639H305.17H347.318C347.61 423.739 348.476 420.647 350.397 417.847C354.329 412.116 362.068 408.918 363.722 402.168C365.443 395.136 359.532 388.517 358.845 381.311C357.761 369.935 369.511 361.196 371.331 349.914C373.38 337.194 362.443 323.869 367.713 312.111C371.815 302.963 383.818 299.836 388.893 291.19C394.796 281.136 389.204 267.818 393.263 256.891C398.249 243.467 415.752 238.292 421.504 225.177C424.246 218.928 424.043 211.357 428.282 206.005C432.879 200.198 441.009 198.996 447.981 196.482C450.979 195.402 454.028 193.594 456.366 191.325C449.391 185.838 441.248 181.876 432.064 181.128H432.059L431.84 181.111L431.797 181.107L431.614 181.094L431.549 181.089L431.395 181.08L431.302 181.074L431.183 181.067L431.058 181.059L430.981 181.055L430.817 181.046L430.749 181.043L430.578 181.036L430.517 181.033L430.338 181.026L430.287 181.025L430.098 181.018L430.058 181.017L429.862 181.011L429.824 181.01L429.624 181.006H429.592L429.386 181.003L429.361 181.002L429.148 181H429.131H428.908M333.29 337.456L333.018 337.402C332.67 337.259 332.493 336.873 332.606 336.52L332.611 336.505C333.908 332.505 334.624 328.42 334.898 324.241C335.055 322.151 335.132 320.015 335.391 317.824C335.643 315.636 336.123 313.397 336.913 311.267C337.294 310.192 337.78 309.175 338.273 308.149C338.828 307.079 339.499 306.086 340.23 305.169C341.703 303.334 343.403 301.831 345.045 300.424C348.341 297.631 351.454 295.048 353.278 291.92C355.135 288.838 355.756 285.218 355.547 281.357C355.32 277.163 355.137 272.716 355.723 268.259C356.007 266.025 356.501 263.762 357.323 261.58C358.132 259.396 359.308 257.331 360.731 255.53C363.617 251.924 367.232 249.358 370.844 247.031C371.021 246.916 371.221 246.862 371.419 246.862C371.77 246.862 372.113 247.034 372.318 247.35C372.62 247.819 372.507 248.435 372.074 248.769L372.063 248.778C368.749 251.324 365.596 254.139 363.572 257.516C361.506 260.866 360.79 264.687 360.664 268.676C360.618 270.674 360.642 272.705 360.778 274.762C360.88 276.841 361.06 278.838 361.226 281.027C361.363 283.34 361.289 285.744 360.749 288.124C360.254 290.508 359.225 292.836 357.865 294.861C356.484 296.886 354.789 298.582 353.033 300.014C351.278 301.453 349.481 302.679 347.787 303.895C346.1 305.12 344.507 306.338 343.201 307.727C342.553 308.423 341.97 309.152 341.479 309.934C340.991 310.792 340.489 311.657 340.095 312.561C339.271 314.36 338.705 316.268 338.317 318.277C337.927 320.282 337.691 322.386 337.375 324.514C337.061 326.642 336.666 328.788 336.096 330.884C335.535 332.985 334.77 335.016 333.956 337.01C333.842 337.288 333.573 337.456 333.29 337.456" fill="#FBD4DB"/><path id="Fill 38" fill-rule="evenodd" clip-rule="evenodd" d="M371.346 247C371.148 247 370.947 247.056 370.769 247.171C367.153 249.507 363.532 252.084 360.642 255.707C359.216 257.517 358.038 259.59 357.227 261.784C356.406 263.977 355.91 266.249 355.626 268.493C355.038 272.971 355.222 277.437 355.448 281.651C355.659 285.528 355.037 289.164 353.177 292.261C351.35 295.404 348.233 297.997 344.931 300.803C343.288 302.215 341.583 303.726 340.109 305.568C339.377 306.491 338.705 307.488 338.149 308.562C337.655 309.592 337.168 310.614 336.787 311.695C335.995 313.835 335.516 316.082 335.263 318.28C335.004 320.481 334.926 322.626 334.77 324.726C334.494 328.924 333.777 333.027 332.479 337.046L332.474 337.06C332.36 337.414 332.538 337.803 332.887 337.946L333.159 338C333.443 338 333.712 337.831 333.826 337.552C334.641 335.55 335.408 333.511 335.97 331.399C336.54 329.293 336.935 327.138 337.251 325.001C337.567 322.863 337.803 320.75 338.194 318.735C338.581 316.718 339.149 314.801 339.973 312.994C340.369 312.086 340.871 311.217 341.361 310.355C341.852 309.571 342.435 308.837 343.085 308.139C344.393 306.744 345.988 305.519 347.677 304.289C349.374 303.068 351.174 301.837 352.931 300.391C354.69 298.953 356.388 297.248 357.771 295.214C359.133 293.18 360.164 290.842 360.659 288.447C361.201 286.056 361.275 283.641 361.137 281.319C360.97 279.121 360.791 277.113 360.688 275.025C360.553 272.959 360.528 270.919 360.574 268.913C360.7 264.906 361.416 261.066 363.486 257.702C365.514 254.311 368.671 251.482 371.991 248.926L372.002 248.917C372.436 248.58 372.548 247.963 372.245 247.491C372.041 247.173 371.697 247 371.346 247" fill="#FEF7F8"/><path id="Fill 40" fill-rule="evenodd" clip-rule="evenodd" d="M525.347 166.239L525.224 166.255L525.347 166.239M525.021 166.284L524.873 166.306L525.021 166.284M524.691 166.333L524.533 166.358L524.691 166.333M524.481 166.365L524.33 166.39L524.481 166.365M524.152 166.419L523.993 166.446L524.152 166.419M523.951 166.453C523.852 166.47 523.752 166.488 523.652 166.506C523.752 166.488 523.852 166.47 523.951 166.453M523.623 166.512L523.433 166.547L523.623 166.512M523.292 166.573L523.122 166.606L523.292 166.573M544.681 166.591L544.886 166.605L544.681 166.591M523.09 166.613C522.992 166.631 522.896 166.651 522.8 166.67C522.896 166.651 522.992 166.631 523.09 166.613M544.998 166.614L545.162 166.628L544.998 166.614M522.751 166.68L522.603 166.711L522.751 166.68M522.427 166.748L522.279 166.78L522.427 166.748" fill="white"/><g id="Group 44"><path id="Fill 42" fill-rule="evenodd" clip-rule="evenodd" d="M534.026 165.301C531.824 165.301 529.655 165.491 527.512 165.824L527.355 165.834L527.318 165.836L527.168 165.847L527.132 165.85L527.005 165.86L526.966 165.863L526.822 165.875L526.774 165.879L526.643 165.891L526.619 165.893L526.477 165.907L526.424 165.913L526.287 165.926L526.235 165.932L526.135 165.942L526.073 165.95L525.942 165.964L525.883 165.971L525.778 165.983L525.722 165.991L525.6 166.006L525.536 166.014L525.429 166.027L525.343 166.04L525.259 166.051L525.19 166.06L525.069 166.077L524.991 166.09L524.922 166.099L524.8 166.117L524.734 166.128L524.645 166.142L524.597 166.149L524.45 166.174L524.394 166.182L524.307 166.196L524.269 166.203L524.11 166.231L524.06 166.239L523.908 166.267L523.865 166.275L523.772 166.291L523.73 166.3L523.572 166.329L523.53 166.337C523.431 166.356 523.332 166.375 523.233 166.396L523.203 166.402L523.013 166.441L523.003 166.443L522.905 166.463L522.872 166.47L522.705 166.506L522.671 166.514C522.575 166.535 522.478 166.556 522.382 166.578L522.334 166.589L522.187 166.623L522.142 166.633L522.053 166.655L522.01 166.665L521.863 166.7L521.808 166.713L521.73 166.732L521.635 166.756L521.55 166.777L521.467 166.799L521.411 166.813L521.281 166.846L521.231 166.859L521.102 166.893L521.089 166.897L520.938 166.937L520.912 166.944C515.904 168.299 511.471 170.589 508.555 172.53C502.41 178.215 497.613 185.356 494.925 193.297C492.804 199.561 491.895 206.269 488.941 212.184C485.175 219.727 478.231 225.678 476.137 233.848C474.498 240.235 476.101 247.059 474.9 253.545C472.815 264.8 462.751 273.18 460.19 284.336C458.09 293.483 461.36 303.058 460.396 312.393C459.069 325.253 449.879 336.462 449.413 349.379C449.199 355.262 450.834 361.161 450.052 366.994C448.775 376.516 441.248 384.573 441.062 394.178C440.949 400.1 443.663 405.645 445.512 411.27C447.193 416.385 448.055 422.32 445.655 427.004H625.795C624.84 423.676 623.423 420.284 622.487 417.072C616.653 397.032 631.257 374.392 622.888 355.277C621.587 352.306 619.765 349.562 618.761 346.479C615.68 337.036 620.789 326.749 619.443 316.904C617.973 306.152 609.083 297.575 607.428 286.85C606.114 278.324 609.484 269.052 605.809 261.252C602.756 254.77 595.582 251.113 592.091 244.858C587.468 236.57 590.347 225.837 586.574 217.126C582.375 207.434 573.165 196.951 569.904 186.905C567.629 179.897 564.855 175.669 562.213 172.926C557.34 169.283 548.812 166.99 544.831 166.547L544.818 166.545L544.786 166.542L544.758 166.539L544.737 166.537L544.698 166.533L544.683 166.531L544.518 166.515L544.467 166.51H544.46L544.414 166.506L544.407 166.505L544.203 166.49H544.197L544.153 166.487L544.147 166.486L544.108 166.484L544.096 166.483L544.061 166.481H544.049L544.003 166.478L544.014 166.504C540.733 165.725 537.405 165.301 534.026 165.301M471.668 297.483L471.54 297.469C471.252 297.406 471.059 297.142 471.073 296.858C471.269 292.829 471.807 288.761 473.129 284.793C473.806 282.819 474.661 280.863 475.837 279.024C476.151 278.576 476.432 278.106 476.785 277.677L477.756 276.447C478.364 275.69 478.969 274.934 479.528 274.152C481.824 271.064 483.72 267.785 484.9 264.353C486.135 260.941 486.66 257.366 486.858 253.645C486.914 252.717 486.945 251.777 486.957 250.831L486.961 249.407L486.985 247.86C486.991 246.821 487.058 245.771 487.112 244.727C487.214 243.677 487.295 242.632 487.447 241.582C487.993 237.398 489.192 233.2 491.123 229.318C492.082 227.376 493.253 225.526 494.606 223.834C495.286 222.992 496.001 222.178 496.768 221.422L497.82 220.376C498.165 220.05 498.485 219.701 498.811 219.356C501.397 216.596 503.728 213.42 505.433 209.987L505.462 209.93C505.59 209.673 505.848 209.523 506.117 209.523C506.226 209.523 506.337 209.548 506.442 209.6C506.743 209.75 506.894 210.079 506.834 210.395C506.429 212.494 505.724 214.414 504.854 216.313C503.999 218.207 502.939 220.015 501.737 221.727C501.432 222.153 501.133 222.585 500.805 222.993L499.886 224.193C499.322 224.92 498.816 225.686 498.342 226.466C497.403 228.032 496.641 229.696 496.055 231.428C494.894 234.9 494.319 238.567 494.037 242.305C493.876 244.171 493.812 246.061 493.789 247.962L493.778 249.407L493.745 250.972C493.713 252.018 493.665 253.072 493.576 254.131C493.202 258.348 492.206 262.725 490.244 266.633C488.317 270.554 485.691 273.951 482.864 276.951C482.165 277.713 481.434 278.435 480.701 279.151L479.692 280.159C479.367 280.461 479.096 280.825 478.792 281.159C477.64 282.559 476.679 284.183 475.857 285.897C474.189 289.332 473.099 293.143 472.251 297.009L472.249 297.014C472.188 297.293 471.942 297.483 471.668 297.483" fill="#F8B6C3"/></g><path id="Fill 45" fill-rule="evenodd" clip-rule="evenodd" d="M506.6 209C506.33 209 506.07 209.149 505.941 209.407L505.911 209.465C504.197 212.899 501.853 216.077 499.253 218.838C498.925 219.183 498.602 219.532 498.256 219.857L497.199 220.904C496.427 221.66 495.707 222.474 495.023 223.317C493.662 225.01 492.485 226.861 491.521 228.804C489.579 232.687 488.372 236.886 487.824 241.074C487.671 242.124 487.59 243.169 487.488 244.219C487.433 245.264 487.365 246.314 487.36 247.355L487.336 248.901L487.331 250.327C487.319 251.273 487.288 252.213 487.232 253.142C487.032 256.864 486.505 260.441 485.262 263.854C484.076 267.288 482.168 270.567 479.859 273.657C479.297 274.439 478.689 275.196 478.077 275.954L477.101 277.185C476.746 277.614 476.463 278.084 476.148 278.533C474.966 280.371 474.105 282.329 473.424 284.304C472.095 288.273 471.553 292.344 471.356 296.373C471.342 296.658 471.536 296.922 471.826 296.986L471.955 297C472.23 297 472.478 296.81 472.54 296.53L472.542 296.524C473.394 292.657 474.49 288.845 476.168 285.407C476.994 283.694 477.962 282.069 479.12 280.668C479.425 280.334 479.698 279.969 480.025 279.667L481.039 278.66C481.776 277.943 482.511 277.22 483.215 276.458C486.057 273.457 488.698 270.058 490.636 266.135C492.61 262.225 493.611 257.846 493.987 253.629C494.078 252.569 494.126 251.514 494.159 250.468L494.19 248.901L494.203 247.456C494.226 245.555 494.29 243.663 494.451 241.795C494.735 238.058 495.313 234.388 496.481 230.916C497.071 229.181 497.836 227.518 498.782 225.95C499.257 225.17 499.767 224.404 500.333 223.677L501.257 222.476C501.587 222.068 501.889 221.636 502.195 221.21C503.405 219.496 504.469 217.688 505.33 215.792C506.204 213.894 506.914 211.972 507.321 209.872C507.381 209.556 507.229 209.226 506.926 209.078C506.822 209.025 506.71 209 506.6 209" fill="#FEF1F3"/></g></g></svg>