<svg viewBox="36 27.839805825242763 648.0000000000002 314.32038834951464" fill="none" xmlns="http://www.w3.org/2000/svg" xmlns:xlink="http://www.w3.org/1999/xlink" overflow="visible" width="648.0000000000002px" height="314.32038834951464px"><g id="Master/Background/Worm Blobs"><g id="Background" transform="scale(1 1)"><g id="Background/Blobs"><g id="Group 7"><g id="Group 3"><path id="Fill 1" fill-rule="evenodd" clip-rule="evenodd" d="M293.2 148.153C298.708 140.606 304.359 132.745 306.214 123.588C308.068 114.429 305.01 103.571 296.716 99.2672C281.758 91.5072 262.524 109.027 247.546 101.307C238.749 96.7732 236.014 85.7562 233.916 76.0842C231.817 66.4122 228.244 55.3932 218.972 51.9292C209.616 48.4342 199.57 54.5852 191.949 61.0422C184.328 67.4992 176.094 75.0272 166.11 74.7102C155.939 74.3862 148.094 66.0402 138.974 61.5232C128.09 56.1332 114.339 56.5112 104.212 63.2172C94.0853 69.9232 88.3263 82.9832 91.0033 94.8312C93.1143 104.174 99.9723 113.005 97.7753 122.327C96.1163 129.366 89.5993 134.259 82.8713 136.91C76.1423 139.561 68.8543 140.59 62.1643 143.335C52.3673 147.355 43.9723 155.442 41.0433 165.619C38.1143 175.796 41.4273 187.869 50.0393 194.03C57.6123 199.447 68.4273 200.236 74.1563 207.576C81.3393 216.778 76.3053 230.068 71.1543 240.543C66.0013 251.017 61.2233 264.497 68.7193 273.446C74.8073 280.715 85.7613 280.778 95.2273 280.237C100.367 279.944 105.507 279.65 110.647 279.356C113.1 279.216 115.688 279.102 117.876 280.22C120.581 281.602 122.067 284.54 123.267 287.331C127.527 297.232 130.505 307.802 136.459 316.789C142.412 325.774 152.37 333.164 163.107 332.21C178.167 330.872 189.846 314.005 204.762 316.48C213.464 317.925 219.539 325.547 226.632 330.792C238.469 339.545 255.172 341.757 268.394 335.283C281.616 328.808 290.244 313.442 287.76 298.931C285.503 285.755 275.097 274.216 276.222 260.895C277.396 247.007 290.302 237.639 301.179 228.925C312.057 220.213 322.914 206.868 318.192 193.756C314.974 184.818 305.71 179.879 298.735 173.431C291.759 166.983 287.096 154.994 294.096 148.573" fill="#FFEBC0"/></g><g id="Group 6"><path id="Fill 4" fill-rule="evenodd" clip-rule="evenodd" d="M640.126 244.98C654.08 251.029 672.295 243.685 678.151 229.649C684.007 215.613 676.413 197.501 662.297 191.838C657.659 189.978 652.428 189.266 648.496 186.18C641.274 180.514 641.513 169.26 645.138 160.827C648.763 152.393 654.967 145.194 658.043 136.545C661.119 127.897 659.755 116.377 651.582 112.199C643.876 108.259 633.661 112.546 626.274 108.036C618.873 103.515 618.509 92.8703 620.55 84.4403C622.59 76.0103 626.151 67.2413 623.535 58.9713C618.614 43.4183 596.877 41.9523 581.319 46.8603C574.591 48.9823 567.435 51.7403 560.704 49.6283C554.621 47.7203 550.443 42.2903 545.347 38.4593C536.058 31.4793 522.923 30.0103 512.322 34.7673C501.721 39.5233 494.085 50.3113 493.124 61.8903C492.469 69.7723 494.609 78.1513 491.363 85.3623C486.043 97.1773 470.445 98.7873 458.096 102.711C438.117 109.061 420.944 130.619 428.147 150.306C433.345 164.514 449.675 174.524 449.208 189.645C448.607 209.157 419.873 221.671 424.581 240.616C429.456 260.232 461.896 256.158 473.353 272.811C479.032 281.066 477.92 292.338 482.447 301.277C487.829 311.906 500.382 317.263 512.287 317.692C524.193 318.12 535.82 314.535 547.357 311.563C551.65 310.458 556.193 309.434 560.462 310.627C566.604 312.345 570.552 318.096 575.284 322.372C584.935 331.092 599.515 333.934 611.734 329.476C623.953 325.018 633.278 313.456 635.046 300.569C636.41 290.632 633.588 280.544 634.325 270.542C635.062 260.538 641.538 249.425 651.567 249.296" fill="#E7ECF7"/></g></g></g></g></g></svg>