<svg viewBox="106.60000000000002 145.20072992700727 919.425 599.4525547445256" fill="none" xmlns="http://www.w3.org/2000/svg" xmlns:xlink="http://www.w3.org/1999/xlink" overflow="visible" width="919.425px" height="599.4525547445256px"><g id="Master/Scene/Celebration"><g id="Celebration" transform="translate(66.625 121.667) scale(1.3325 1.2166666259765626)"><g id="Celebration/Confetti"><g id="Group 53"><path id="Fill 1" fill-rule="evenodd" clip-rule="evenodd" d="M156.595 119.987C155.938 120.876 155.02 121.412 154.064 121.919C152.908 122.53 151.655 123.06 150.356 123.472C150.941 122.45 151.705 121.525 152.678 120.751C153.399 120.177 154.254 119.707 155.133 119.43C155.552 119.299 155.999 119.158 156.439 119.138C156.508 119.134 156.744 119.12 156.874 119.118C156.941 119.108 156.998 119.115 157.052 119.127C157.032 119.172 157.017 119.21 157.016 119.211C156.929 119.475 156.768 119.755 156.595 119.987M157.069 118.858C157.131 118.865 157.111 118.967 157.078 119.059C157.073 119.056 157.071 119.054 157.068 119.049C157.057 119.054 157.065 118.858 157.069 118.858M141.688 104.289C143.103 103.722 145.103 103.613 146.007 105.105C146.828 106.461 145.174 107.485 144.029 108.061C141.981 109.092 139.445 109.537 137.178 109.713C136.636 109.754 136.097 109.767 135.558 109.773C135.788 109.415 136.028 109.066 136.285 108.737C137.663 106.971 139.58 105.135 141.688 104.289M160.548 115.58C159.037 114.184 156.993 114.004 155.053 114.35C149.756 115.297 146.23 119.47 144.718 124.334C143.16 124.297 141.622 124.006 140.179 123.378C136.774 121.901 133.866 118.562 133.92 114.706C135.01 114.762 136.101 114.755 137.178 114.67C140.485 114.412 144.051 113.76 146.974 112.103C149.693 110.561 151.799 107.671 151.017 104.407C150.248 101.2 147.039 99.0346 143.848 98.9275C140.383 98.8105 137.24 100.848 134.788 103.107C132.954 104.795 131.356 106.84 130.298 109.123C130.055 109.058 129.81 109.013 129.569 108.936C125.231 107.575 121.346 104.135 120.202 99.6276C119.114 95.3361 120.988 90.7274 124.858 88.6074C127.651 87.0765 125.159 82.7939 122.362 84.3259C116.858 87.3412 114.231 93.6554 115.196 99.7634C116.177 105.97 121.121 110.883 126.749 113.173C127.491 113.476 128.257 113.726 129.033 113.937C128.699 119.228 131.788 124.239 136.386 126.976C138.726 128.368 141.288 129.055 143.899 129.206C143.873 129.968 143.883 130.728 143.954 131.476C144.564 137.886 148.494 146.515 156.188 145.976C157.521 145.882 158.66 144.903 158.66 143.497C158.66 142.228 157.527 140.924 156.188 141.018C152.198 141.298 149.982 136.793 149.227 133.414C148.9 131.954 148.76 130.412 148.844 128.891C151.329 128.447 153.763 127.603 155.993 126.492C158.789 125.098 161.666 122.781 161.979 119.431C162.112 118.011 161.605 116.555 160.548 115.58" fill="#ED6389"/><path id="Fill 5" fill-rule="evenodd" clip-rule="evenodd" d="M593.85 131.537C595.564 127.925 598.643 124.644 602.896 124.713C604.246 124.734 606.763 125.303 607.018 126.96C607.251 128.466 605.789 130.548 604.852 131.616C602.669 134.104 599.428 135.753 596.205 136.004C594.913 136.105 593.654 136.008 592.451 135.723C592.765 134.267 593.227 132.851 593.85 131.537M609.231 154.071C605.974 155.696 602.021 155.151 598.929 153.395C595.439 151.413 593.291 147.986 592.422 144.093C592.18 143.008 592.045 141.887 592.002 140.756C592.947 140.945 593.923 141.049 594.925 141.057C599.71 141.096 604.591 139.1 607.931 135.628C609.657 133.833 611.131 131.515 611.727 129.063C612.53 125.759 611.048 122.717 608.133 121.071C602.884 118.108 596.207 120.26 592.438 124.624C590.268 127.135 588.777 130.216 587.917 133.465C587.544 133.16 587.184 132.833 586.84 132.475C584.472 129.996 583.07 126.539 582.966 123.117C582.708 114.56 591.261 107.789 599.513 109.056C600.836 109.259 602.181 108.719 602.566 107.308C602.888 106.123 602.166 104.432 600.832 104.227C590.387 102.624 579.403 109.661 578.121 120.626C577.266 127.936 581.008 135.322 587.084 138.878C587.059 139.421 587.035 139.963 587.045 140.503C587.155 146.847 589.777 153.025 594.961 156.777C599.817 160.293 606.348 161.085 611.737 158.395C614.6 156.965 612.088 152.644 609.231 154.071" fill="#ED6389"/><path id="Fill 7" fill-rule="evenodd" clip-rule="evenodd" d="M223.617 135.025C221.392 131.628 217.537 130.421 213.67 131.253C205.34 133.045 200.827 142.453 201.596 150.411C201.974 154.32 203.173 158.142 203.465 162.047C201.876 161.551 200.367 160.756 198.908 159.966C196.467 158.646 194.021 157.237 191.346 156.453C188.57 155.642 185.273 155.476 182.814 157.254C180.475 158.947 179.576 161.738 179.853 164.559C180.114 167.209 181.005 169.684 181.677 172.24C182.279 174.529 182.298 176.888 181.727 179.186C180.615 183.66 177.469 187.719 173.054 189.221C167.938 190.96 162.053 189.684 158.231 185.801C155.978 183.515 152.473 187.053 154.726 189.341C158.651 193.327 164.391 195.428 169.942 194.927C175.593 194.416 180.484 191.543 183.703 186.822C186.792 182.293 187.871 176.402 186.5 171.077C185.869 168.63 184.757 166.121 184.755 163.558C184.754 162.805 184.851 162.143 185.328 161.628C186.094 160.803 187.365 160.774 188.402 160.904C191.41 161.283 194.121 163.064 196.739 164.468C199.659 166.037 202.633 167.337 205.975 167.542C207.383 167.628 208.359 166.322 208.453 165.04C208.79 160.434 207.366 156.023 206.692 151.52C206.096 147.54 206.636 143.665 208.962 140.326C210.759 137.748 214.221 135.165 217.514 136.178C218.478 136.474 219.37 137.356 219.764 138.284C220.225 139.37 220.214 140.365 219.691 140.981C218.821 142.007 218.693 143.514 219.691 144.52C220.581 145.421 222.321 145.552 223.196 144.52C225.493 141.813 225.556 137.986 223.617 135.025" fill="#E0BFDB"/><path id="Fill 9" fill-rule="evenodd" clip-rule="evenodd" d="M380.572 119.867C378.499 121.84 376.062 123.63 373.639 125.153C369.694 127.636 363.454 129.797 359.476 126.097C355.814 122.69 356.761 116.203 358.102 111.94C358.618 110.297 359.839 107.906 361.72 109.483C364.299 111.647 362.426 115.829 361.48 118.319C361.203 119.046 361.43 119.838 361.898 120.448C361.657 120.661 361.414 120.869 361.178 121.09C358.815 123.302 362.379 126.835 364.737 124.628C368.904 120.727 374.661 117.471 380.444 116.835C381.166 116.757 381.859 116.608 381.963 117.418C382.086 118.36 381.213 119.256 380.572 119.867M385.881 114.046C382.94 110.016 376.503 112.314 372.731 113.806C370.872 114.541 369.095 115.422 367.399 116.43C368.221 113.366 368.418 110.133 366.498 107.392C364.112 103.985 359.605 102.732 356.239 105.568C353.598 107.792 352.813 111.636 352.339 114.871C351.78 118.702 351.77 122.599 353.418 126.183C354.984 129.588 358.31 131.983 361.973 132.698C365.857 133.457 369.662 132.735 373.217 131.098C376.9 129.4 380.171 126.751 383.261 124.172C386.171 121.744 388.454 117.571 385.881 114.046" fill="#E0BFDB"/><path id="Fill 11" fill-rule="evenodd" clip-rule="evenodd" d="M539.549 137.192C539.684 137.633 539.78 138.076 539.868 138.529C539.746 137.896 539.858 138.475 539.87 138.632C539.891 138.888 539.901 139.146 539.902 139.403C539.902 139.597 539.897 139.789 539.886 139.981C539.883 140.051 539.825 140.812 539.858 140.416C539.892 140.024 539.794 140.768 539.778 140.844C539.74 141.033 539.696 141.223 539.648 141.409C539.534 141.851 539.383 142.276 539.231 142.705C539.013 143.317 539.465 142.24 539.183 142.826C539.084 143.033 538.984 143.238 538.877 143.442C538.678 143.82 538.46 144.188 538.223 144.544C538.095 144.737 537.959 144.923 537.825 145.111C537.452 145.636 538.006 144.936 537.671 145.303C537.086 145.945 536.491 146.54 535.824 147.1C535.602 147.275 535.617 147.264 535.869 147.069C535.763 147.146 535.656 147.222 535.546 147.297C535.383 147.408 535.218 147.515 535.049 147.62C534.658 147.86 534.253 148.081 533.837 148.275C533.704 148.338 533.142 148.545 533.725 148.333C533.541 148.4 533.358 148.47 533.172 148.532C532.737 148.675 532.293 148.792 531.844 148.881C531.715 148.905 531.586 148.927 531.456 148.948C531.779 148.91 531.843 148.901 531.648 148.923C531.419 148.924 531.187 148.965 530.958 148.973C530.49 148.991 530.025 148.972 529.559 148.929C528.223 148.805 526.944 150.171 527.002 151.438C527.068 152.903 528.128 153.816 529.559 153.948C538.982 154.818 547.172 144.653 544.481 135.858C544.097 134.601 542.67 133.68 541.335 134.105C540.041 134.515 539.137 135.844 539.549 137.192" fill="#E0BFDB"/><path id="Fill 13" fill-rule="evenodd" clip-rule="evenodd" d="M224.916 49.7458C225.147 50.1431 225.357 50.5485 225.543 50.97C225.339 50.5061 225.59 51.1142 225.625 51.2171C225.698 51.4328 225.765 51.6496 225.825 51.8685C225.945 52.3081 226.033 52.7518 226.109 53.2016C226.014 52.6419 226.123 53.3669 226.129 53.4355C226.147 53.6634 226.16 53.8903 226.167 54.1192C226.179 54.577 226.168 55.0358 226.135 55.4916C226.132 55.5471 226.051 56.2993 226.125 55.7356C226.095 55.9645 226.056 56.1924 226.013 56.4173C225.844 57.3259 225.589 58.2193 225.252 59.0754C225.412 58.669 225.186 59.2105 225.135 59.3204C225.039 59.5292 224.937 59.7349 224.831 59.9386C224.619 60.346 224.388 60.7413 224.14 61.1244C224.015 61.316 223.887 61.5046 223.754 61.6881C224.005 61.3433 223.651 61.8071 223.578 61.8949C223.291 62.2417 222.986 62.5735 222.665 62.8871C222.505 63.0434 222.336 63.1886 222.174 63.3419C221.8 63.6938 222.426 63.1846 221.973 63.5073C221.641 63.7452 221.311 63.9772 220.961 64.1839C220.769 64.2968 220.573 64.3957 220.38 64.5035C220.281 64.554 220.182 64.6024 220.082 64.6488C220.29 64.561 220.314 64.5509 220.153 64.6165C219.702 64.797 219.244 64.9412 218.775 65.0612C217.502 65.3869 216.741 66.8763 217.081 68.163C217.437 69.5092 218.788 70.2493 220.063 69.9236C229.109 67.6124 233.908 55.4755 229.103 47.2017C227.492 44.4266 223.298 46.9576 224.916 49.7458" fill="#E0BFDB"/><path id="Fill 15" fill-rule="evenodd" clip-rule="evenodd" d="M95.051 157.687C88.0552 164.336 88.3332 177.137 95.8432 183.306C96.8636 184.146 98.2938 184.313 99.2918 183.306C100.15 182.441 100.318 180.672 99.2918 179.828C93.7184 175.249 93.3057 166.103 98.5006 161.166C100.789 158.99 97.3358 155.517 95.051 157.687" fill="#FFCC37"/><path id="Fill 17" fill-rule="evenodd" clip-rule="evenodd" d="M341.609 166.927C343.49 171.403 343.832 177.612 340.234 181.379C338.714 182.972 336.618 183.641 334.718 182.448C332.863 181.28 331.798 178.951 331.818 176.794C331.852 173.468 333.931 170.457 336.129 168.12C337.411 166.756 338.803 165.503 340.281 164.358C340.79 165.181 341.237 166.042 341.609 166.927M319.919 167.661C320.007 170.001 319.789 172.481 318.887 174.627C318.062 176.588 316.702 178.154 314.528 178.195C311.937 178.245 309.842 175.939 309.222 173.605C307.775 168.154 311.605 162.336 315.988 159.402C316.772 158.878 317.595 158.408 318.447 158.001C319.272 161.161 319.797 164.395 319.919 167.661M360.96 156.108C358.135 152.727 353.23 152.687 349.331 153.896C346.512 154.771 343.79 156.108 341.252 157.693C340.103 156.519 338.837 155.459 337.457 154.553C332.723 151.443 327.052 150.664 321.665 151.778C321.134 150.355 320.547 148.952 319.899 147.576C318.17 143.904 315.503 140.271 311.087 140.012C309.134 139.898 307.173 140.595 305.83 142.027C303.656 144.345 307.148 147.844 309.329 145.518C311.147 143.581 313.62 146.39 314.53 147.942C315.512 149.616 316.3 151.416 316.974 153.256C316.943 153.269 316.912 153.281 316.883 153.293C309.955 156.316 304.455 162.996 304.021 170.686C303.779 174.997 305.626 179.189 309.3 181.558C312.651 183.719 316.963 183.603 320.091 181.131C326.074 176.405 325.235 166.988 324.048 160.394C323.81 159.071 323.509 157.761 323.162 156.464C325.559 156.024 328.037 156.071 330.425 156.727C332.96 157.424 335.255 158.781 337.169 160.563C334.041 163.003 331.085 165.827 329.093 169.279C327.101 172.729 326.121 177.021 327.588 180.852C328.885 184.235 331.59 187.254 335.317 187.866C343.701 189.242 348.203 179.749 347.899 172.757C347.727 168.793 346.454 164.95 344.355 161.621C344.563 161.499 344.762 161.361 344.971 161.243C347.856 159.607 351.773 157.428 355.219 158.205C356.499 158.495 357.373 159.166 357.879 160.375C358.213 161.175 358.228 161.919 357.732 162.448C355.559 164.767 359.05 168.264 361.231 165.938C363.902 163.088 363.333 158.95 360.96 156.108" fill="#FFCC37"/><path id="Fill 19" fill-rule="evenodd" clip-rule="evenodd" d="M397.901 49.4056C392.239 53.0111 391.128 61.3779 396.445 65.8408C399.184 68.1403 402.376 68.7432 405.847 68.1503C407.008 67.952 408.654 67.313 409.828 67.7256C410.966 68.1252 410.926 69.7327 410.907 70.7342C410.836 74.3447 409.927 77.771 411.5 81.2183C412.851 84.1748 415.759 85.8934 419.011 85.5268C420.306 85.3816 421.53 85.0381 422.768 84.6385C423.923 84.2649 425.261 83.7802 426.169 83.8112C426.764 83.8302 425.986 83.644 426.517 83.8823C426.114 83.7 426.762 84.1507 426.539 83.8973C426.812 84.2088 426.88 84.3621 426.929 84.8007C427.104 86.3721 426.563 87.9746 426.618 89.553C426.746 93.2406 429.225 96.5557 432.787 97.6514C436.509 98.7941 440.49 97.0214 442.576 93.8846C444.367 91.1895 440.014 88.6787 438.233 91.3577C437.145 92.9932 434.777 93.509 433.174 92.3292C431.102 90.8059 431.723 88.4303 431.91 86.2309C432.164 83.2604 431.118 80.2327 428.094 79.1401C425.835 78.3248 423.443 79.1641 421.276 79.8592C419.673 80.374 417.679 81.2974 416.5 79.8672C414.701 77.6849 415.725 74.1875 415.892 71.6737C416.099 68.5389 415.453 65.0335 412.429 63.403C409.538 61.8426 406.613 63.2648 403.622 63.4251C401.275 63.5513 398.937 62.062 398.19 59.8135C397.454 57.6022 398.478 54.9772 400.44 53.7292C403.157 51.9986 400.638 47.662 397.901 49.4056" fill="#FFCC37"/><path id="Fill 21" fill-rule="evenodd" clip-rule="evenodd" d="M525.755 76.2167C524.924 75.825 524.114 75.3933 523.328 74.9163C522.926 74.6716 522.529 74.4156 522.141 74.1494C521.956 74.0229 521.775 73.8944 521.594 73.7628C521.493 73.6909 521.394 73.6158 521.294 73.5428C520.93 73.2797 521.65 73.8255 521.402 73.6282C519.939 72.4716 518.6 71.1856 517.407 69.7525C517.009 69.2735 516.182 69 515.583 69C514.95 69 514.194 69.2796 513.759 69.7525C513.306 70.2419 512.971 70.8854 513.002 71.5701C513.035 72.2876 513.299 72.8366 513.759 73.3876C516.295 76.4388 519.555 78.9595 523.15 80.6547C523.789 80.9559 524.435 81.107 525.139 80.9138C525.737 80.7503 526.386 80.2897 526.681 79.7336C527.287 78.5904 527.058 76.8315 525.755 76.2167" fill="#FFCC37"/><path id="Fill 23" fill-rule="evenodd" clip-rule="evenodd" d="M271.799 38.4516C271.707 37.1297 270.658 36 269.172 36C267.821 36 266.451 37.1238 266.544 38.4516C266.945 44.1638 266.767 49.8946 266.013 55.5764C265.855 56.7689 267.134 57.8554 268.292 57.9839C269.462 58.1143 270.972 57.4475 271.174 56.2285C271.246 55.801 271.317 55.3734 271.387 54.9459C271.428 54.6978 271.432 54.4506 271.415 54.2065C272.023 48.9738 272.167 43.7058 271.799 38.4516" fill="#FFCC37"/><path id="Fill 25" fill-rule="evenodd" clip-rule="evenodd" d="M297.291 104.184C294.494 100.821 288.999 100.233 285.5 102.846C283.846 104.08 282.878 106.212 281.111 107.246C279.892 107.958 278.162 107.807 277.011 106.902C275.806 105.957 275.405 104.059 274.776 102.753C273.89 100.907 272.373 99.3068 270.269 98.8771C267.784 98.371 265.413 99.5672 263.709 101.28C262.156 102.843 261.326 104.822 260.016 106.547C259.087 107.768 257.889 108.698 256.48 107.576C254.441 105.95 254.921 102.683 255.13 100.447C255.252 99.1297 253.897 98 252.637 98C251.187 98 250.268 99.1257 250.145 100.447C249.889 103.196 249.849 106.005 251.085 108.555C252.075 110.599 254.069 112.361 256.351 112.852C258.762 113.37 261.11 112.492 262.831 110.814C264.449 109.238 265.253 107.17 266.615 105.427C267.414 104.404 268.955 102.9 269.927 104.195C270.835 105.405 271.222 107.374 272.152 108.775C274.625 112.506 280.237 113.83 284.037 111.21C285.179 110.423 286.028 109.425 286.907 108.377C287.528 107.636 288.181 106.764 289.103 106.37C290.771 105.658 292.628 106.277 293.766 107.644C294.618 108.669 296.407 108.513 297.291 107.644C298.323 106.632 298.145 105.211 297.291 104.184" fill="#00AFA9"/><path id="Fill 29" fill-rule="evenodd" clip-rule="evenodd" d="M596.99 54.3098C596.896 56.015 596.695 57.7093 596.39 59.3896C595.798 62.6465 594.885 65.8705 593.615 68.9291C592.889 70.6762 591.577 73.659 589.446 74.0059C587.426 74.3337 586.004 71.7356 585.19 70.2596C583.643 67.4611 582.327 64.5321 581.232 61.5293C580.658 59.9526 580.142 58.3561 579.686 56.7426C579.382 55.6692 578.985 54.6198 578.975 53.6182C579.208 53.7497 579.447 53.8743 579.672 54.0098C580.922 54.7673 582.074 55.6433 583.139 56.6439C584.834 58.2395 586.22 60.0692 587.328 62.0814C587.175 63.2903 587.101 64.5091 587.122 65.728C587.177 68.9311 592.163 68.9411 592.108 65.728C592.103 65.4769 592.109 65.2277 592.113 64.9766C593.111 64.1932 593.201 62.9176 592.716 61.7794C592.645 61.614 592.564 61.4525 592.49 61.2881C592.748 59.9477 593.137 58.6321 593.67 57.3585C594.226 56.033 594.96 54.7633 595.776 53.5853C596.005 53.2564 596.618 52.7272 596.903 52.3186C596.95 52.482 596.985 52.6136 596.98 52.5877C597.074 53.1448 597.022 53.7517 596.99 54.3098M578.426 53.2933C578.255 53.3292 578.195 53.1846 578.426 53.2933ZM579.094 52.8388C579.092 52.8438 579.087 52.8458 579.084 52.8508C579.085 52.8468 579.086 52.8388 579.085 52.8378C579.136 52.6654 579.139 52.6654 579.094 52.8388M601.008 49.264C599.745 47.1621 597.167 46.3987 594.968 47.5069C592.966 48.5155 591.564 50.7519 590.48 52.6365C589.92 53.6072 589.432 54.6158 589.009 55.6513C588.161 54.6068 587.236 53.6261 586.239 52.7312C583.78 50.5237 578.949 46.3917 575.671 49.2899C572.777 51.8492 574.324 56.2951 575.265 59.3836C576.549 63.5953 578.234 67.7023 580.264 71.609C581.993 74.9367 584.352 78.5165 588.419 78.96C592.268 79.3786 595.283 76.4426 597.021 73.3202C599.075 69.6307 600.322 65.2965 601.113 61.1695C601.546 58.9082 601.845 56.609 601.976 54.3098C602.072 52.6066 601.907 50.7589 601.008 49.264" fill="#00AFA9"/><path id="Fill 31" fill-rule="evenodd" clip-rule="evenodd" d="M97.7579 215.949C97.5212 216.186 97.2775 216.415 97.0159 216.629C97.0149 216.631 96.5215 216.997 96.7892 216.811C97.0578 216.622 96.5934 216.932 96.5405 216.965C96.2559 217.142 95.9613 217.306 95.6587 217.456C95.477 217.546 95.2882 217.622 95.1055 217.71C95.2982 217.617 95.3831 217.611 95.1334 217.697C94.4853 217.92 93.8292 218.102 93.1491 218.22C93.0453 218.238 92.3852 218.292 92.9933 218.251C92.8555 218.261 92.7177 218.278 92.5799 218.288C92.2004 218.315 91.8199 218.325 91.4394 218.32C91.0939 218.313 90.7484 218.265 90.4038 218.26C90.0343 218.254 90.9841 218.364 90.3479 218.252C90.1781 218.222 90.0084 218.195 89.8396 218.16C89.5021 218.094 89.1685 218.011 88.839 217.916C88.6752 217.869 88.5124 217.817 88.3506 217.763C88.2877 217.741 87.7594 217.536 88.074 217.667C88.3906 217.799 87.8124 217.544 87.8124 217.544C87.6586 217.473 87.5078 217.398 87.358 217.319C87.0584 217.162 86.7728 216.988 86.4901 216.806C86.2954 216.682 86.1626 216.555 86.4232 216.765C86.2924 216.66 86.1606 216.557 86.0348 216.448C85.7531 216.206 85.4935 215.948 85.2428 215.678C84.357 214.723 82.6194 214.827 81.7126 215.678C80.703 216.626 80.8238 218.037 81.7126 218.994C86.588 224.25 96.2399 224.328 101.289 219.265C102.21 218.341 102.264 216.866 101.289 215.949C100.357 215.074 98.6826 215.023 97.7579 215.949" fill="#00AFA9"/><path id="Fill 33" fill-rule="evenodd" clip-rule="evenodd" d="M90.8678 37.863C88.4575 32.0325 80.5285 31.3667 76.7614 36.2888C74.8492 38.7891 74.341 42.0477 75.0018 45.0747C75.271 46.308 75.7591 47.5065 75.9399 48.7586C76.0644 49.6262 76.204 49.9869 75.4076 50.1578C74.2386 50.4083 72.8486 49.9849 71.6344 50.1221C70.0004 50.3059 68.5211 51.0065 67.4063 52.2249C65.2712 54.5592 64.8684 57.782 65.4288 60.7713C65.7201 62.3225 66.2875 63.8032 66.7696 65.3028C66.9082 65.7361 67.0217 66.9873 67.339 67.3242C67.4234 67.4146 66.9725 68.1977 67.557 67.0866C67.6222 67.032 67.6976 67.0022 67.7829 67.0002C67.6042 67.0648 67.4214 67.1145 67.2356 67.1512C66.4814 67.2963 65.0884 67.1582 64.0981 67.2278C62.5103 67.3391 60.9989 67.833 59.7053 68.7641C56.8672 70.8083 55.2723 74.4127 56.3269 77.8382C57.3954 81.3035 60.3541 83.5275 63.9063 83.9856C65.2531 84.1596 66.4171 82.7196 66.4171 81.5012C66.4171 80.0146 65.2571 79.1917 63.9063 79.0168C62.3326 78.8141 60.9587 77.0422 61.02 75.5197C61.0842 73.8989 62.4872 72.4291 64.0981 72.1966C66.3799 71.8677 68.6848 72.5235 70.6643 70.9693C73.2403 68.949 72.2069 65.7679 71.3402 63.1623C70.6592 61.1151 69.6379 58.6863 70.4885 56.5726C71.3743 54.3734 73.3498 55.2101 75.3694 55.1147C78.2256 54.9816 80.5697 53.2176 80.9383 50.3387C81.2506 47.897 80.1178 45.7644 79.7733 43.4131C79.4961 41.525 80.167 39.0694 82.035 38.177C83.2482 37.5976 85.5229 37.9663 86.0261 39.1837C86.5383 40.4249 87.6952 41.3044 89.1143 40.9188C90.3024 40.5958 91.384 39.1121 90.8678 37.863" fill="#FFCC37"/><path id="Fill 35" fill-rule="evenodd" clip-rule="evenodd" d="M647.808 172.74C644.439 177.042 641.071 181.343 637.701 185.645C636.89 186.682 636.65 188.26 637.701 189.26C638.603 190.116 640.323 190.369 641.192 189.26C644.56 184.958 647.929 180.656 651.299 176.355C652.11 175.318 652.35 173.74 651.299 172.74C650.397 171.884 648.677 171.631 647.808 172.74" fill="#F06647"/><g id="Group 39"><path id="Fill 37" fill-rule="evenodd" clip-rule="evenodd" d="M67.2942 265.146C61.0905 260.704 54.8867 256.262 48.683 251.82C47.6044 251.048 45.9587 251.628 45.3327 252.706C44.6137 253.943 45.13 255.309 46.2114 256.083C52.4152 260.525 58.618 264.967 64.8217 269.409C65.9012 270.182 67.547 269.602 68.1729 268.523C68.891 267.285 68.3757 265.919 67.2942 265.146" fill="#F06647"/></g><path id="Fill 40" fill-rule="evenodd" clip-rule="evenodd" d="M185.625 214.079C183.769 213.805 182.089 214.231 180.76 215.59C179.646 216.729 178.985 218.371 179 219.952C179.018 221.794 179.993 223.401 181.595 224.325C182.315 224.741 183.148 224.99 183.952 225.195C184.326 225.292 184.703 225.374 185.074 225.483C185.495 225.609 185.52 225.578 185.732 225.76C185.773 225.795 185.552 225.603 185.597 225.6C185.643 225.677 185.691 225.754 185.738 225.831C185.717 225.787 185.696 225.744 185.675 225.699C185.876 225.664 185.304 225.179 185.66 225.725C185.59 225.617 185.839 225.256 185.609 225.742C185.769 225.402 185.388 226.064 185.325 226.157C185.245 226.27 184.94 226.628 184.703 226.884C183.569 228.113 182.244 229.259 181.399 230.716C179.472 234.039 180.496 238.468 183.617 240.7C187.18 243.247 192.427 241.855 194.625 238.241C196.296 235.493 191.943 232.993 190.275 235.735C189.72 236.648 188.684 237.112 187.566 237.03C186.71 236.969 185.887 236.29 185.587 235.319C185.243 234.206 185.487 233.405 186.329 232.435C187.461 231.131 188.802 230.007 189.752 228.551C190.771 226.988 191.054 224.987 190.087 223.325C189.104 221.632 187.4 220.936 185.574 220.476C185.199 220.383 184.814 220.302 184.449 220.173C184.361 220.141 183.909 219.888 184.107 220.059C183.902 219.848 183.889 219.845 184.068 220.051C183.93 219.798 183.926 219.798 184.058 220.051C183.993 219.765 183.987 219.769 184.039 220.063C184.032 219.914 184.034 219.766 184.048 219.616C183.82 220.33 184.352 218.933 184.073 219.549C184.119 219.446 184.618 218.724 184.322 219.102C184.537 218.908 184.536 218.891 184.318 219.048C184.438 218.963 184.564 218.888 184.696 218.822C184.432 218.933 184.438 218.946 184.716 218.864C184.573 218.924 184.429 218.926 184.286 218.868C185.629 219.066 186.993 218.535 187.384 217.133C187.711 215.961 186.978 214.278 185.625 214.079" fill="#41AFE4"/><g id="Group 44"><path id="Fill 42" fill-rule="evenodd" clip-rule="evenodd" d="M165.864 55.9611C169.15 56.8253 172.767 55.4014 174.533 52.3889C176.301 49.3753 175.638 45.2002 173.186 42.7876C170.675 40.3157 167.233 40.373 163.998 40.6372C162.569 40.7538 161.062 40.9367 159.753 40.4996C158.792 40.179 158.123 39.4163 157.83 38.4808C157.034 35.9325 159.128 33.4747 161.81 33.3672C164.952 33.2406 164.968 28.2154 161.81 28.343C158.505 28.4756 155.185 30.2763 153.662 33.3873C152.131 36.5144 152.598 40.2524 154.775 42.9283C156.976 45.6353 160.478 45.9368 163.672 45.6876C165.067 45.578 166.665 45.3349 167.994 45.567C169.068 45.7569 169.918 46.2543 170.383 47.2913C171.337 49.4196 169.387 51.7006 167.166 51.1167C164.111 50.3139 162.808 55.1582 165.864 55.9611" fill="#41AFE4"/></g><path id="Fill 45" fill-rule="evenodd" clip-rule="evenodd" d="M461.745 61.2423C461.461 61.1489 461.8 61.2654 461.86 61.3136C461.587 61.0967 461.903 61.3939 461.931 61.428C461.754 61.2082 462.261 61.958 462.307 62.0383C462.685 62.7028 462.994 63.4074 463.413 64.0499C464.596 65.8647 466.389 67.1325 468.646 66.9889C470.946 66.8424 472.909 65.3086 474.127 63.4416C475.44 61.433 475.494 59.0119 475.924 56.7343C476.139 55.595 476.731 53.186 478.326 53.2562C478.087 53.2452 478.512 53.4861 478.531 53.5112C478.995 54.1275 479.289 54.8793 479.619 55.5709C480.355 57.1097 481.358 58.5702 483.064 59.1263C485.584 59.9464 487.765 58.3424 489.225 56.4553C492.461 52.2745 493.582 46.9916 492.72 41.8312C492.497 40.4932 490.832 39.7464 489.616 40.0786C488.189 40.4691 487.629 41.8232 487.853 43.1652C488.441 46.6875 487.464 50.5029 485.304 53.3486C485.133 53.5734 484.436 54.1114 484.387 54.3343C484.341 54.535 484.318 54.2249 484.343 54.3564C484.332 54.2981 484.609 54.3513 484.624 54.3544C485.155 54.4527 484.617 54.3373 484.616 54.3373C484.766 54.3423 484.879 54.6946 484.622 54.2811C484.842 54.6344 484.382 53.8444 484.335 53.7591C483.649 52.4833 483.169 51.1453 482.174 50.0542C479.218 46.817 474.588 48.5344 472.426 51.7235C471.266 53.4349 471.032 55.5248 470.733 57.5112C470.503 59.042 470.304 61.0104 468.771 61.8345C468.33 62.0704 468.254 62.0313 468.062 61.8747C467.751 61.6187 467.375 60.8418 467.071 60.2626C466.144 58.504 465.053 57.0535 463.086 56.4031C459.997 55.3812 458.673 60.2265 461.745 61.2423" fill="#41AFE4"/><path id="Fill 47" fill-rule="evenodd" clip-rule="evenodd" d="M639.697 238.337C641.11 239.575 642.424 240.933 643.617 242.406C643.899 242.754 644.173 243.11 644.444 243.469C644.758 243.885 644.2 243.125 644.377 243.377C644.45 243.48 644.524 243.58 644.595 243.683C644.725 243.866 644.853 244.052 644.98 244.239C645.526 245.048 646.037 245.883 646.515 246.74C647.155 247.885 648.716 248.395 649.812 247.65C650.906 246.907 651.361 245.399 650.676 244.175C648.688 240.615 646.119 237.385 643.105 234.745C642.601 234.303 642.078 234 641.401 234C640.81 234 640.104 234.277 639.697 234.745C638.88 235.682 638.662 237.43 639.697 238.337" fill="#41AFE4"/><path id="Fill 49" fill-rule="evenodd" clip-rule="evenodd" d="M641.955 69.9454C640.523 69.1215 639.433 67.747 639.152 66.2207C641.96 66.6146 644.583 68.1067 646.219 70.4186C644.807 70.8024 643.315 70.7261 641.955 69.9454M656.146 50.8458C655.663 49.5778 654.441 48.7076 653.039 49.0915C651.816 49.425 650.789 50.9061 651.275 52.1811C653.131 57.0572 654.047 63.5611 650.418 67.6997C647.428 63.3752 642.12 60.6905 636.801 61.1265C635.66 61.22 634.704 61.845 634.365 62.9713C633.124 67.1029 635.176 71.2646 638.543 73.7173C641.308 75.7288 644.73 76.0815 647.89 75.1481C648.089 78.3663 646.646 81.6238 644.158 83.7318C643.119 84.613 643.247 86.3783 644.158 87.2846C645.188 88.3075 646.689 88.1668 647.73 87.2846C651.9 83.7509 653.748 77.874 652.573 72.599C654.886 70.6397 656.576 67.9137 657.366 65.0331C658.652 60.3428 657.85 55.321 656.146 50.8458" fill="#41AFE4"/><path id="Fill 51" fill-rule="evenodd" clip-rule="evenodd" d="M393.872 187.467C393.86 187.848 393.841 188.229 393.811 188.609C393.796 188.778 393.781 188.946 393.762 189.115C393.758 189.158 393.701 189.629 393.73 189.418C393.761 189.188 393.656 189.86 393.659 189.844C393.63 190.01 393.598 190.178 393.565 190.343C393.498 190.677 393.424 191.008 393.341 191.336C393.166 192.036 392.954 192.728 392.709 193.408C392.579 193.768 392.44 194.125 392.292 194.478C392.393 194.236 392.286 194.497 392.241 194.593C392.15 194.786 392.059 194.978 391.964 195.168C391.317 196.471 390.54 197.704 389.652 198.865C389.391 199.204 389.841 198.641 389.569 198.971C389.46 199.103 389.348 199.234 389.235 199.363C388.981 199.656 388.719 199.942 388.45 200.222C387.909 200.781 387.337 201.307 386.742 201.811C385.701 202.69 385.806 204.398 386.742 205.296C387.774 206.29 389.323 206.178 390.366 205.296C395.666 200.82 398.785 194.226 398.999 187.467C399.04 186.177 397.791 184.944 396.436 185.002C395.011 185.063 393.916 186.085 393.872 187.467" fill="#41AFE4"/></g></g></g><g id="Master/Worms/Fin" transform="translate(23.9844 346.75) scale(1.3280730897009967 1.2166666666666666)"><g id="Master/Worms/Fin"><g id="Body/Fin" transform="translate(83.918 150.8) scale(1 1)"><g id="Body/Fin/Orange"><g id="Group 10"><g id="Group 3"><path id="Fill 1" fill-rule="evenodd" clip-rule="evenodd" d="M135.896 164.221H1.00012V68.4481C1.00012 31.1971 31.1971 1.00012 68.4481 1.00012C105.698 1.00012 135.896 31.1971 135.896 68.4481V164.221Z" fill="#F06647"/></g><path id="Fill 4" fill-rule="evenodd" clip-rule="evenodd" d="M66.3047 55.4006C66.3047 68.8856 55.3727 79.8176 41.8877 79.8176C28.4027 79.8176 17.4707 68.8856 17.4707 55.4006C17.4707 41.9156 28.4027 30.9836 41.8877 30.9836C55.3727 30.9836 66.3047 41.9156 66.3047 55.4006" fill="#CBD3D8"/><path id="Fill 6" fill-rule="evenodd" clip-rule="evenodd" d="M119.425 55.4006C119.425 68.8856 108.493 79.8176 95.0084 79.8176C81.5234 79.8176 70.5914 68.8856 70.5914 55.4006C70.5914 41.9156 81.5234 30.9836 95.0084 30.9836C108.493 30.9836 119.425 41.9156 119.425 55.4006" fill="#CBD3D8"/><path id="Fill 8" fill-rule="evenodd" clip-rule="evenodd" d="M1 164.221H135.896V100.148H1V164.221Z" fill="#DD4328"/></g></g></g><g id="Eyes/Fin" transform="translate(126.918 194.8) scale(1 1)"><g id="Eyes/Fin/Open"><g id="Eyes"><path id="Fill 8" fill-rule="evenodd" clip-rule="evenodd" d="M15.3588 15.2683V15.2683C13.5528 15.2683 12.0898 13.8043 12.0898 11.9993V8.72428C12.0898 6.91828 13.5528 5.45428 15.3588 5.45428C17.1638 5.45428 18.6278 6.91828 18.6278 8.72428V11.9993C18.6278 13.8043 17.1638 15.2683 15.3588 15.2683" fill="#0F1335"/><path id="Fill 10" fill-rule="evenodd" clip-rule="evenodd" d="M33.8784 15.2683V15.2683C32.0734 15.2683 30.6094 13.8043 30.6094 11.9993V8.72428C30.6094 6.91828 32.0734 5.45428 33.8784 5.45428C35.6844 5.45428 37.1474 6.91828 37.1474 8.72428V11.9993C37.1474 13.8043 35.6844 15.2683 33.8784 15.2683" fill="#0F1335"/></g></g></g><g id="Mouth/Fin" transform="translate(130.918 211.8) scale(0.9761904761904762 1)"><g id="Mouth/Fin/Surprised"><g id="Group 3"><path id="Fill 1" fill-rule="evenodd" clip-rule="evenodd" d="M30.996 10.0389C30.996 15.0309 26.949 19.0779 21.957 19.0779C16.965 19.0779 12.918 15.0309 12.918 10.0389C12.918 5.04689 16.965 0.999893 21.957 0.999893C26.949 0.999893 30.996 5.04689 30.996 10.0389" fill="white"/></g></g></g><g id="Hair/Fin" transform="translate(65.918 60.8) scale(1 1)"><g id="Hair/Fin/Mickey Head"><g id="Group 11"><g id="Group 10"><g id="Group 3"><path id="Fill 1" fill-rule="evenodd" clip-rule="evenodd" d="M138.411 114.436C126.073 99.4366 107.37 89.8706 86.4331 89.8706V89.8706C65.4951 89.8706 46.7931 99.4366 34.4551 114.436H138.411Z" fill="#ED6389"/></g><g id="Group 6"><path id="Fill 4" fill-rule="evenodd" clip-rule="evenodd" d="M147.666 76.0032C147.666 88.6522 137.412 98.9062 124.763 98.9062C112.114 98.9062 101.859 88.6522 101.859 76.0032C101.859 63.3542 112.114 53.1002 124.763 53.1002C137.412 53.1002 147.666 63.3542 147.666 76.0032" fill="#41AFE4"/></g><g id="Group 9"><path id="Fill 7" fill-rule="evenodd" clip-rule="evenodd" d="M71.0062 76.0032C71.0062 88.6522 60.7522 98.9062 48.1032 98.9062C35.4542 98.9062 25.1992 88.6522 25.1992 76.0032C25.1992 63.3542 35.4542 53.1002 48.1032 53.1002C60.7522 53.1002 71.0062 63.3542 71.0062 76.0032" fill="#41AFE4"/></g></g></g></g></g><g id="Clothes/Fin" transform="translate(83.918 245.4) scale(1 1)"><g id="Clothes/Fin/Lavender Polkas"><g id="Group 63"><path id="Fill 1" fill-rule="evenodd" clip-rule="evenodd" d="M1 69.996H135.896V11.12H1V69.996Z" fill="#4FA480"/><g id="Group 62"><path id="Fill 2" fill-rule="evenodd" clip-rule="evenodd" d="M11.367 11.1201H1V20.3711C1.304 20.4011 1.611 20.4181 1.923 20.4181C7.091 20.4181 11.284 16.2681 11.367 11.1201" fill="#E0BFDB"/><path id="Fill 4" fill-rule="evenodd" clip-rule="evenodd" d="M24.1061 20.418C29.2741 20.418 33.4671 16.269 33.5501 11.12H14.6621C14.7451 16.269 18.9381 20.418 24.1061 20.418" fill="#E0BFDB"/><path id="Fill 6" fill-rule="evenodd" clip-rule="evenodd" d="M46.2887 20.418C51.4567 20.418 55.6497 16.269 55.7327 11.12H36.8447C36.9277 16.269 41.1207 20.418 46.2887 20.418" fill="#E0BFDB"/><path id="Fill 8" fill-rule="evenodd" clip-rule="evenodd" d="M68.4718 20.418C73.6398 20.418 77.8328 16.269 77.9158 11.12H59.0278C59.1108 16.269 63.3038 20.418 68.4718 20.418" fill="#E0BFDB"/><path id="Fill 10" fill-rule="evenodd" clip-rule="evenodd" d="M90.6549 20.418C95.8229 20.418 100.016 16.269 100.099 11.12H81.2109C81.2939 16.269 85.4869 20.418 90.6549 20.418" fill="#E0BFDB"/><path id="Fill 12" fill-rule="evenodd" clip-rule="evenodd" d="M112.838 20.418C118.006 20.418 122.199 16.269 122.282 11.12H103.394C103.477 16.269 107.67 20.418 112.838 20.418" fill="#E0BFDB"/><path id="Fill 14" fill-rule="evenodd" clip-rule="evenodd" d="M135.021 20.418C135.316 20.418 135.608 20.4 135.896 20.374V11.12H125.577C125.66 16.269 129.853 20.418 135.021 20.418" fill="#E0BFDB"/><g id="Group 18"><path id="Fill 16" fill-rule="evenodd" clip-rule="evenodd" d="M11.3835 50.4224C11.3835 45.2024 7.15151 40.9704 1.93151 40.9704C1.61651 40.9704 1.30651 40.9874 0.999512 41.0174V59.8274C1.30651 59.8574 1.61651 59.8744 1.93151 59.8744C7.15151 59.8744 11.3835 55.6424 11.3835 50.4224" fill="#E0BFDB"/></g><path id="Fill 19" fill-rule="evenodd" clip-rule="evenodd" d="M24.1141 40.9702C18.8941 40.9702 14.6621 45.2022 14.6621 50.4222C14.6621 55.6422 18.8941 59.8742 24.1141 59.8742C29.3341 59.8742 33.5661 55.6422 33.5661 50.4222C33.5661 45.2022 29.3341 40.9702 24.1141 40.9702" fill="#E0BFDB"/><path id="Fill 21" fill-rule="evenodd" clip-rule="evenodd" d="M46.2972 40.9702C41.0772 40.9702 36.8452 45.2022 36.8452 50.4222C36.8452 55.6422 41.0772 59.8742 46.2972 59.8742C51.5172 59.8742 55.7492 55.6422 55.7492 50.4222C55.7492 45.2022 51.5172 40.9702 46.2972 40.9702" fill="#E0BFDB"/><path id="Fill 23" fill-rule="evenodd" clip-rule="evenodd" d="M68.4803 40.9702C63.2603 40.9702 59.0283 45.2022 59.0283 50.4222C59.0283 55.6422 63.2603 59.8742 68.4803 59.8742C73.7003 59.8742 77.9323 55.6422 77.9323 50.4222C77.9323 45.2022 73.7003 40.9702 68.4803 40.9702" fill="#E0BFDB"/><path id="Fill 25" fill-rule="evenodd" clip-rule="evenodd" d="M90.6634 40.9702C85.4434 40.9702 81.2114 45.2022 81.2114 50.4222C81.2114 55.6422 85.4434 59.8742 90.6634 59.8742C95.8834 59.8742 100.115 55.6422 100.115 50.4222C100.115 45.2022 95.8834 40.9702 90.6634 40.9702" fill="#E0BFDB"/><path id="Fill 27" fill-rule="evenodd" clip-rule="evenodd" d="M112.846 40.9702C107.626 40.9702 103.394 45.2022 103.394 50.4222C103.394 55.6422 107.626 59.8742 112.846 59.8742C118.066 59.8742 122.298 55.6422 122.298 50.4222C122.298 45.2022 118.066 40.9702 112.846 40.9702" fill="#E0BFDB"/><g id="Group 31"><path id="Fill 29" fill-rule="evenodd" clip-rule="evenodd" d="M125.577 50.4224C125.577 55.6424 129.809 59.8744 135.029 59.8744C135.322 59.8744 135.61 59.8564 135.896 59.8304V41.0134C135.61 40.9874 135.322 40.9704 135.029 40.9704C129.809 40.9704 125.577 45.2024 125.577 50.4224" fill="#E0BFDB"/></g><path id="Fill 32" fill-rule="evenodd" clip-rule="evenodd" d="M22.4665 30.6938C22.4665 25.4738 18.2345 21.2418 13.0145 21.2418C7.7945 21.2418 3.5625 25.4738 3.5625 30.6938C3.5625 35.9138 7.7945 40.1458 13.0145 40.1458C18.2345 40.1458 22.4665 35.9138 22.4665 30.6938" fill="#E0BFDB"/><path id="Fill 34" fill-rule="evenodd" clip-rule="evenodd" d="M44.6491 30.6938C44.6491 25.4738 40.4171 21.2418 35.1971 21.2418C29.9771 21.2418 25.7451 25.4738 25.7451 30.6938C25.7451 35.9138 29.9771 40.1458 35.1971 40.1458C40.4171 40.1458 44.6491 35.9138 44.6491 30.6938" fill="#E0BFDB"/><path id="Fill 36" fill-rule="evenodd" clip-rule="evenodd" d="M66.8327 30.6938C66.8327 25.4738 62.6007 21.2418 57.3807 21.2418C52.1607 21.2418 47.9287 25.4738 47.9287 30.6938C47.9287 35.9138 52.1607 40.1458 57.3807 40.1458C62.6007 40.1458 66.8327 35.9138 66.8327 30.6938" fill="#E0BFDB"/><path id="Fill 38" fill-rule="evenodd" clip-rule="evenodd" d="M89.0153 30.6938C89.0153 25.4738 84.7833 21.2418 79.5633 21.2418C74.3433 21.2418 70.1113 25.4738 70.1113 30.6938C70.1113 35.9138 74.3433 40.1458 79.5633 40.1458C84.7833 40.1458 89.0153 35.9138 89.0153 30.6938" fill="#E0BFDB"/><path id="Fill 40" fill-rule="evenodd" clip-rule="evenodd" d="M111.198 30.6938C111.198 25.4738 106.966 21.2418 101.746 21.2418C96.5264 21.2418 92.2944 25.4738 92.2944 30.6938C92.2944 35.9138 96.5264 40.1458 101.746 40.1458C106.966 40.1458 111.198 35.9138 111.198 30.6938" fill="#E0BFDB"/><path id="Fill 42" fill-rule="evenodd" clip-rule="evenodd" d="M133.382 30.6938C133.382 25.4738 129.15 21.2418 123.93 21.2418C118.71 21.2418 114.478 25.4738 114.478 30.6938C114.478 35.9138 118.71 40.1458 123.93 40.1458C129.15 40.1458 133.382 35.9138 133.382 30.6938" fill="#E0BFDB"/><g id="Group 46"><path id="Fill 44" fill-rule="evenodd" clip-rule="evenodd" d="M13.0226 60.6982C7.85461 60.6982 3.66161 64.8472 3.57861 69.9962H22.4666C22.3836 64.8472 18.1906 60.6982 13.0226 60.6982" fill="#E0BFDB"/></g><g id="Group 49"><path id="Fill 47" fill-rule="evenodd" clip-rule="evenodd" d="M35.2057 60.6982C30.0377 60.6982 25.8447 64.8472 25.7617 69.9962H44.6497C44.5667 64.8472 40.3737 60.6982 35.2057 60.6982" fill="#E0BFDB"/></g><g id="Group 52"><path id="Fill 50" fill-rule="evenodd" clip-rule="evenodd" d="M57.3888 60.6982C52.2208 60.6982 48.0278 64.8472 47.9448 69.9962H66.8328C66.7498 64.8472 62.5568 60.6982 57.3888 60.6982" fill="#E0BFDB"/></g><g id="Group 55"><path id="Fill 53" fill-rule="evenodd" clip-rule="evenodd" d="M79.5719 60.6982C74.4039 60.6982 70.2109 64.8472 70.1279 69.9962H89.0159C88.9329 64.8472 84.7399 60.6982 79.5719 60.6982" fill="#E0BFDB"/></g><g id="Group 58"><path id="Fill 56" fill-rule="evenodd" clip-rule="evenodd" d="M101.755 60.6982C96.5865 60.6982 92.3935 64.8472 92.3105 69.9962H111.199C111.116 64.8472 106.923 60.6982 101.755 60.6982" fill="#E0BFDB"/></g><g id="Group 61"><path id="Fill 59" fill-rule="evenodd" clip-rule="evenodd" d="M123.938 60.6982C118.77 60.6982 114.577 64.8472 114.494 69.9962H133.382C133.299 64.8472 129.106 60.6982 123.938 60.6982" fill="#E0BFDB"/></g></g></g></g></g></g></g><g id="Master/Worms/Jae" transform="translate(584.967 346.75) scale(1.3280730897009967 1.2166666666666666)"><g id="Master/Worms/Jae"><g id="Body/Jae" transform="translate(47.918 130.42) scale(1 1)"><g id="Body/Jae/Orange"><g id="Group 10"><g id="Group 3"><path id="Fill 1" fill-rule="evenodd" clip-rule="evenodd" d="M0.000244141 105.107V184.221H208.214V105.107C208.214 47.61 161.604 1 104.107 1C46.6102 1 0.000244141 47.61 0.000244141 105.107Z" fill="#F06647"/></g><path id="Fill 4" fill-rule="evenodd" clip-rule="evenodd" d="M100.977 64.6695C100.977 84.3655 85.0104 100.332 65.3144 100.332C45.6184 100.332 29.6514 84.3655 29.6514 64.6695C29.6514 44.9735 45.6184 29.0065 65.3144 29.0065C85.0104 29.0065 100.977 44.9735 100.977 64.6695" fill="#CBD3D8"/><path id="Fill 6" fill-rule="evenodd" clip-rule="evenodd" d="M178.563 64.6695C178.563 84.3655 162.596 100.332 142.9 100.332C123.204 100.332 107.237 84.3655 107.237 64.6695C107.237 44.9735 123.204 29.0065 142.9 29.0065C162.596 29.0065 178.563 44.9735 178.563 64.6695" fill="#CBD3D8"/><path id="Fill 8" fill-rule="evenodd" clip-rule="evenodd" d="M0 184.221H208.215V113.697H0V184.221Z" fill="#DD4328"/></g></g></g><g id="Eyes/Jae" transform="translate(124.918 186.42) scale(1 1)"><g id="Eyes/Jae/Upset"><g id="Group 6"><g id="Group 3"><path id="Fill 1" fill-rule="evenodd" clip-rule="evenodd" d="M42.6178 14H35.8008C34.6958 14 33.8008 13.105 33.8008 12C33.8008 10.896 34.6958 10 35.8008 10H42.6178C43.7218 10 44.6178 10.896 44.6178 12C44.6178 13.105 43.7218 14 42.6178 14" fill="#101335"/></g><path id="Fill 4" fill-rule="evenodd" clip-rule="evenodd" d="M17.819 14H11.001C9.89598 14 9.00098 13.105 9.00098 12C9.00098 10.896 9.89598 10 11.001 10H17.819C18.923 10 19.819 10.896 19.819 12C19.819 13.105 18.923 14 17.819 14" fill="#101335"/></g></g></g><g id="Mouth/Jae" transform="translate(132.77 206.476) scale(0.975 1)"><g id="Mouth/Jae/Smiling Black"><g id="Group 3"><path id="Fill 1" fill-rule="evenodd" clip-rule="evenodd" d="M8.91797 5H30.788C30.788 5 29.476 16.489 19.3 16.489C9.12297 16.489 8.91797 5 8.91797 5" fill="#101335"/></g></g></g><g id="Hair/Jae" transform="translate(5.91797 0.420013) scale(1 1)"><g id="Hair/Jae/Double Bun"><g id="Hair"><path id="Fill 18" fill-rule="evenodd" clip-rule="evenodd" d="M123.754 153.084L126.284 165.95C131.475 166.321 136.559 166.51 141.502 166.55L145.666 153.345L149.675 166.484C155.365 166.346 160.827 166.027 166.003 165.58L168.46 153.084L173.528 164.826C198.884 161.926 215.699 156.412 215.699 156.412C197.241 139.857 172.854 129.779 146.108 129.779C119.36 129.779 94.9736 139.857 76.5156 156.412C90.7056 161.069 104.897 163.826 118.497 165.265L123.754 153.084Z" fill="#73BAB8"/><path id="Fill 20" fill-rule="evenodd" clip-rule="evenodd" d="M200.523 88.0702V88.0702C199.61 91.8852 195.598 94.0742 191.896 92.7772C186.016 90.7172 180.805 97.1792 184.064 102.488C186.117 105.832 184.828 110.216 181.293 111.917C175.678 114.618 176.563 122.872 182.622 124.322V124.322C186.437 125.235 188.626 129.247 187.329 132.95C185.269 138.829 191.73 144.04 197.04 140.781C200.383 138.729 204.768 140.018 206.468 143.553H206.469C209.169 149.167 217.423 148.283 218.874 142.224C219.787 138.409 223.798 136.22 227.501 137.517V137.517C233.38 139.577 238.591 133.115 235.333 127.806C233.28 124.462 234.569 120.077 238.105 118.377C243.718 115.676 242.834 107.422 236.775 105.972C232.96 105.059 230.771 101.047 232.068 97.3442C234.128 91.4652 227.667 86.2542 222.357 89.5132C219.013 91.5652 214.628 90.2762 212.928 86.7412C210.227 81.1272 201.973 82.0112 200.523 88.0702" fill="#3A3E5B"/><path id="Fill 22" fill-rule="evenodd" clip-rule="evenodd" d="M204.469 99.7111V99.7111C203.948 101.886 201.661 103.134 199.55 102.394C196.198 101.22 193.228 104.904 195.085 107.931C196.255 109.837 195.521 112.336 193.505 113.306C190.305 114.846 190.809 119.551 194.263 120.378C196.438 120.898 197.686 123.185 196.947 125.296C195.772 128.648 199.456 131.618 202.483 129.761C204.389 128.591 206.888 129.326 207.858 131.341C209.398 134.541 214.103 134.037 214.93 130.583C215.45 128.408 217.738 127.16 219.848 127.9C223.199 129.074 226.17 125.39 224.313 122.364C223.143 120.457 223.877 117.958 225.893 116.988C229.093 115.449 228.589 110.743 225.135 109.917C222.96 109.396 221.712 107.109 222.451 104.998C223.626 101.647 219.943 98.6761 216.915 100.534C215.009 101.704 212.51 100.969 211.54 98.9531C210 95.7531 205.295 96.2571 204.469 99.7111" fill="#F1758E"/><path id="Fill 24" fill-rule="evenodd" clip-rule="evenodd" d="M91.8741 88.0702V88.0702C92.7871 91.8852 96.7991 94.0742 100.501 92.7772C106.381 90.7172 111.592 97.1792 108.333 102.488C106.28 105.832 107.569 110.216 111.105 111.917C116.719 114.618 115.834 122.872 109.775 124.322V124.322C105.96 125.235 103.771 129.247 105.068 132.95C107.129 138.829 100.667 144.04 95.3571 140.781C92.0141 138.729 87.6291 140.018 85.9291 143.553C83.2281 149.167 74.9741 148.283 73.5231 142.224C72.6101 138.409 68.5991 136.22 64.8961 137.517V137.517C59.0171 139.577 53.8061 133.115 57.0641 127.806C59.1171 124.462 57.8281 120.077 54.2931 118.377C48.6791 115.676 49.5631 107.422 55.6221 105.972C59.4371 105.059 61.6261 101.047 60.3291 97.3442C58.2701 91.4652 64.7301 86.2542 70.0401 89.5132C73.3841 91.5652 77.7691 90.2762 79.4691 86.7412H79.4701C82.1701 81.1272 90.4241 82.0112 91.8741 88.0702" fill="#3A3E5B"/><path id="Fill 26" fill-rule="evenodd" clip-rule="evenodd" d="M87.9298 99.7111V99.7111C88.4508 101.886 90.7378 103.134 92.8478 102.394C96.1998 101.22 99.1698 104.904 97.3128 107.931C96.1428 109.837 96.8768 112.336 98.8928 113.306C102.093 114.846 101.589 119.551 98.1348 120.378C95.9598 120.898 94.7118 123.185 95.4508 125.296C96.6258 128.648 92.9428 131.618 89.9148 129.761C88.0088 128.591 85.5098 129.326 84.5398 131.341C82.9998 134.541 78.2948 134.037 77.4688 130.583C76.9488 128.408 74.6608 127.16 72.5498 127.9C69.1988 129.074 66.2278 125.39 68.0848 122.364C69.2548 120.457 68.5208 117.958 66.5048 116.988C63.3048 115.449 63.8088 110.743 67.2628 109.917C69.4378 109.396 70.6858 107.109 69.9468 104.998C68.7718 101.647 72.4558 98.6761 75.4828 100.534C77.3888 101.704 79.8878 100.969 80.8578 98.9531C82.3978 95.7531 87.1028 96.2571 87.9298 99.7111" fill="#F1758E"/></g></g></g><g id="Clothes/Jae" transform="translate(47.918 251.42) scale(1 1)"><g id="Clothes/Jae/Purple Sprinkles"><g id="Group 28"><path id="Fill 1" fill-rule="evenodd" clip-rule="evenodd" d="M0 64.5816H208.215V1.00061H0V64.5816Z" fill="#BF62A2"/><g id="Group 27"><path id="Fill 2" fill-rule="evenodd" clip-rule="evenodd" d="M115.879 8.84682C117.355 10.8118 119.612 11.8478 121.899 11.8478C123.469 11.8478 125.052 11.3588 126.4 10.3458L138.852 0.999817H115.157C114.808 1.70782 114.564 2.47182 114.448 3.27482C114.165 5.26382 114.673 7.24182 115.879 8.84682" fill="#604299"/><path id="Fill 4" fill-rule="evenodd" clip-rule="evenodd" d="M32.8883 11.2799C33.7423 13.0959 35.2523 14.4719 37.1413 15.1529C37.9803 15.4549 38.8373 15.5979 39.6823 15.5979C42.7613 15.5979 45.6573 13.6909 46.7593 10.6319L50.2323 0.999939H34.2533L32.6183 5.53394C31.9373 7.42294 32.0343 9.46294 32.8883 11.2799" fill="#604299"/><path id="Fill 6" fill-rule="evenodd" clip-rule="evenodd" d="M70.3128 5.13049L88.2948 17.8165C89.2418 18.4835 90.3048 18.9155 91.4168 19.0955C92.2288 19.2275 93.0678 19.2245 93.9038 19.0805C95.8848 18.7385 97.6128 17.6455 98.7648 16.0095C99.9228 14.3695 100.375 12.3765 100.033 10.3965C99.6918 8.41749 98.5998 6.69149 96.9588 5.53249L90.5338 1.00049H67.4028C67.8638 2.67049 68.8778 4.11849 70.3128 5.13049" fill="#604299"/><g id="Group 10"><path id="Fill 8" fill-rule="evenodd" clip-rule="evenodd" d="M107.777 38.0081C106.348 36.5971 104.486 35.8471 102.451 35.8411C100.443 35.8541 98.5586 36.6481 97.1486 38.0771C95.7376 39.5061 94.9676 41.4001 94.9816 43.4051L95.1176 64.5821H110.149L110.012 43.3101C110.001 41.3021 109.207 39.4191 107.777 38.0081" fill="#604299"/></g><path id="Fill 11" fill-rule="evenodd" clip-rule="evenodd" d="M66.4175 27.7575C65.7485 25.8635 64.3825 24.3435 62.5695 23.4785C60.7555 22.6115 58.7155 22.5045 56.8255 23.1745C52.9205 24.5545 50.8645 28.8565 52.2445 32.7625L59.5815 53.5105C60.6705 56.5915 63.5775 58.5215 66.6755 58.5215C67.5045 58.5215 68.3495 58.3825 69.1755 58.0905C73.0815 56.7085 75.1355 52.4045 73.7535 48.4995L66.4175 27.7575Z" fill="#604299"/><path id="Fill 13" fill-rule="evenodd" clip-rule="evenodd" d="M162.174 29.9796C162.688 30.0856 163.204 30.1386 163.717 30.1386C165.166 30.1386 166.585 29.7176 167.825 28.9036C169.503 27.8016 170.653 26.1126 171.06 24.1466L175.528 2.60161C175.638 2.06761 175.685 1.53161 175.681 1.00061H160.508L156.342 21.0936C155.5 25.1516 158.116 29.1376 162.174 29.9796" fill="#604299"/><path id="Fill 15" fill-rule="evenodd" clip-rule="evenodd" d="M140.122 29.0163C139.368 24.9413 135.443 22.2353 131.368 22.9933C127.294 23.7443 124.59 27.6703 125.342 31.7503L129.342 53.3893C130.012 57.0023 133.178 59.5373 136.731 59.5373C137.183 59.5373 137.641 59.4963 138.099 59.4123C140.073 59.0473 141.787 57.9353 142.925 56.2803C144.062 54.6273 144.487 52.6293 144.122 50.6553L140.122 29.0163Z" fill="#604299"/><path id="Fill 17" fill-rule="evenodd" clip-rule="evenodd" d="M166.508 41.4592C162.493 42.4752 160.051 46.5682 161.065 50.5862C161.556 52.5322 162.775 54.1702 164.499 55.1992C165.68 55.9032 166.999 56.2642 168.337 56.2642C168.955 56.2642 169.577 56.1882 170.191 56.0322L191.523 50.6462C193.471 50.1542 195.111 48.9342 196.14 47.2092C197.168 45.4852 197.463 43.4652 196.973 41.5192C195.958 37.5022 191.867 35.0562 187.848 36.0712L166.508 41.4592Z" fill="#604299"/><g id="Group 21"><path id="Fill 19" fill-rule="evenodd" clip-rule="evenodd" d="M19.726 37.7625C20.964 37.5425 22.103 37.0295 23.063 36.2705C23.636 35.8185 24.145 35.2795 24.576 34.6635C25.723 33.0185 26.163 31.0245 25.812 29.0495C25.461 27.0715 24.362 25.3495 22.714 24.1995L4.671 11.6025C3.251 10.6125 1.609 10.2115 0 10.2935V26.6745L14.107 36.5235C15.753 37.6735 17.748 38.1135 19.726 37.7625" fill="#604299"/></g><path id="Fill 22" fill-rule="evenodd" clip-rule="evenodd" d="M47.7085 58.1295C46.6925 54.1135 42.5955 51.6735 38.5835 52.6855L17.2495 58.0725C14.1125 58.8645 11.9435 61.5345 11.6235 64.5815H46.3465C47.7175 62.8155 48.2985 60.4625 47.7085 58.1295" fill="#604299"/><g id="Group 26"><path id="Fill 24" fill-rule="evenodd" clip-rule="evenodd" d="M195.122 4.90437C193.129 5.13737 191.345 6.13237 190.1 7.70737C188.854 9.28237 188.296 11.2484 188.53 13.2434C188.765 15.2374 189.761 17.0214 191.335 18.2644L208.215 31.6084V12.4474L200.658 6.47437C199.083 5.22837 197.126 4.67037 195.122 4.90437" fill="#604299"/></g></g></g></g></g></g></g><g id="Master/Worms/Mol" transform="translate(194.545 346.75) scale(1.3280730897009967 1.2166666666666666)"><g id="Master/Worms/Mol"><g id="Body/Mol" transform="translate(99.918 45.84) scale(1 1)"><g id="Body/Mol/Grey"><g id="Group 10"><g id="Group 3"><path id="Fill 1" fill-rule="evenodd" clip-rule="evenodd" d="M7.2251 70.6674V268.041H96.5611V70.6674C96.5611 45.9984 76.5621 25.9994 51.8931 25.9994C27.2231 25.9994 7.2251 45.9984 7.2251 70.6674Z" fill="#CBD3D8"/></g><path id="Fill 4" fill-rule="evenodd" clip-rule="evenodd" d="M49.7115 71.0883C49.7115 84.8163 38.5835 95.9443 24.8555 95.9443C11.1285 95.9443 0.000488281 84.8163 0.000488281 71.0883C0.000488281 57.3603 11.1285 46.2333 24.8555 46.2333C38.5835 46.2333 49.7115 57.3603 49.7115 71.0883" fill="#74BAB9"/><path id="Fill 6" fill-rule="evenodd" clip-rule="evenodd" d="M103.786 71.0883C103.786 84.8163 92.658 95.9443 78.93 95.9443C65.203 95.9443 54.075 84.8163 54.075 71.0883C54.075 57.3603 65.203 46.2333 78.93 46.2333C92.658 46.2333 103.786 57.3603 103.786 71.0883" fill="#74BAB9"/><path id="Fill 8" fill-rule="evenodd" clip-rule="evenodd" d="M7.2251 268.042H96.4901V123.015H7.2251V268.042Z" fill="#AAB8BF"/></g></g></g><g id="Eyes/Mol" transform="translate(127.918 109.84) scale(1 1)"><g id="Eyes/Mol/Open"><g id="Eyes"><path id="Fill 10" fill-rule="evenodd" clip-rule="evenodd" d="M14.6333 12.3554V12.3554C12.8273 12.3554 11.3643 10.8914 11.3643 9.08642V5.81142C11.3643 4.00542 12.8273 2.54242 14.6333 2.54242C16.4383 2.54242 17.9023 4.00542 17.9023 5.81142V9.08642C17.9023 10.8914 16.4383 12.3554 14.6333 12.3554" fill="#101335"/><path id="Fill 12" fill-rule="evenodd" clip-rule="evenodd" d="M33.1528 12.3554V12.3554C31.3478 12.3554 29.8838 10.8914 29.8838 9.08642V5.81142C29.8838 4.00542 31.3478 2.54242 33.1528 2.54242C34.9588 2.54242 36.4218 4.00542 36.4218 5.81142V9.08642C36.4218 10.8914 34.9588 12.3554 33.1528 12.3554" fill="#101335"/></g></g></g><g id="Mouth/Mol" transform="translate(133.656 123.909) scale(0.9736842105263158 1)"><g id="Mouth/Mol/Smiling White"><g id="Group 3"><path id="Fill 1" fill-rule="evenodd" clip-rule="evenodd" d="M10.918 6H28.769C28.769 6 27.698 15.377 19.392 15.377C11.086 15.377 10.918 6 10.918 6" fill="white"/></g></g></g><g id="Hair/Mol" transform="translate(88.918 7.84003) scale(1 1)"><g id="Hair/Mol/Mickey Head"><g id="Group 9"><path id="Fill 1" fill-rule="evenodd" clip-rule="evenodd" d="M98.6399 82.2384C90.9879 71.7871 78.1509 64.0038 62.6969 64.0038V64.0038C47.2429 64.0038 34.4059 71.4683 26.7539 82.2384H98.6399Z" fill="#ED6389"/><g id="Group 5"><path id="Fill 3" fill-rule="evenodd" clip-rule="evenodd" d="M107.891 54.7159C107.891 64.1052 100.323 71.7165 90.986 71.7165C81.65 71.7165 74.082 64.1052 74.082 54.7159C74.082 45.3265 81.65 37.7143 90.986 37.7143C100.323 37.7143 107.891 45.3265 107.891 54.7159" fill="#41AFE4"/></g><g id="Group 8"><path id="Fill 6" fill-rule="evenodd" clip-rule="evenodd" d="M51.31 54.7159C51.31 64.1052 43.741 71.7165 34.405 71.7165C25.069 71.7165 17.5 64.1052 17.5 54.7159C17.5 45.3265 25.069 37.7143 34.405 37.7143C43.741 37.7143 51.31 45.3265 51.31 54.7159" fill="#41AFE4"/></g></g></g></g><g id="Clothes/Mol" transform="translate(107.117 168.84) scale(1 1)"><g id="Clothes/Mol/Colourful Kites"><g id="Group 38"><path id="Fill 1" fill-rule="evenodd" clip-rule="evenodd" d="M0 146.073H89.336V11.8H0V146.073Z" fill="#74BAB9"/><path id="Fill 2" fill-rule="evenodd" clip-rule="evenodd" d="M22.4649 100.972L22.4059 100.913L0.171875 123.145L22.4649 145.438L44.6989 123.205L44.6379 123.145L44.6989 123.085L22.5249 100.913L22.4649 100.972ZM9.37788 123.145L22.4649 110.058L35.5519 123.145L22.4649 136.232L9.37788 123.145Z" fill="#00AFA9"/><path id="Fill 3" fill-rule="evenodd" clip-rule="evenodd" d="M22.4649 56.5059L22.4059 56.4459L0.171875 78.6789L22.4059 100.913L22.4649 100.972L22.5249 100.913L44.6989 78.7389L44.6379 78.6789L44.6989 78.6189L22.5249 56.4459L22.4649 56.5059ZM9.37788 78.6789L22.4649 65.5919L35.5519 78.6789L22.4649 91.7659L9.37788 78.6789Z" fill="#00AFA9"/><path id="Fill 4" fill-rule="evenodd" clip-rule="evenodd" d="M0.171875 34.2129L22.4059 56.4459L22.4649 56.5059L22.5249 56.4459L44.6989 34.2719L44.6379 34.2129L44.6989 34.1529L22.4649 11.9189L0.171875 34.2129ZM9.37788 34.2129L22.4649 21.1259L35.5519 34.2129L22.4649 47.2999L9.37788 34.2129Z" fill="#00AFA9"/><path id="Fill 5" fill-rule="evenodd" clip-rule="evenodd" d="M66.9312 56.5059L66.8712 56.4459L44.6982 78.6189L44.6382 78.6789L44.6982 78.7389L66.8712 100.913L66.9312 100.853L66.9912 100.913L89.2242 78.6789L66.9912 56.4459L66.9312 56.5059ZM53.8442 78.6789L66.9312 65.5919L80.0182 78.6789L66.9312 91.7659L53.8442 78.6789Z" fill="#00AFA9"/><path id="Fill 6" fill-rule="evenodd" clip-rule="evenodd" d="M49.4918 56.4461L44.6978 61.2391L39.9038 56.4461L44.6978 51.6521L49.4918 56.4461ZM44.6978 69.5321L57.7848 56.4461L44.6978 43.3591L31.6108 56.4461L44.6978 69.5321Z" fill="#E0BFDB"/><path id="Fill 7" fill-rule="evenodd" clip-rule="evenodd" d="M44.6983 61.2395L49.4923 56.4465L44.6983 51.6525L39.9043 56.4465L44.6983 61.2395Z" fill="#BF62A2"/><path id="Fill 8" fill-rule="evenodd" clip-rule="evenodd" d="M49.4918 11.8002L44.6988 16.5932L39.9038 11.8002H31.6118L44.6988 24.8872L57.7848 11.8002H49.4918Z" fill="#E0BFDB"/><path id="Fill 9" fill-rule="evenodd" clip-rule="evenodd" d="M49.4918 100.912L44.6978 105.706L39.9038 100.912L44.6978 96.1189L49.4918 100.912ZM44.6978 113.999L57.7848 100.912L44.6978 87.8259L31.6108 100.912L44.6978 113.999Z" fill="#E0BFDB"/><path id="Fill 10" fill-rule="evenodd" clip-rule="evenodd" d="M31.6118 146.073H39.9048L44.6988 141.279L49.4918 146.073H57.7848L44.6988 132.986L31.6118 146.073Z" fill="#E0BFDB"/><path id="Fill 11" fill-rule="evenodd" clip-rule="evenodd" d="M39.9043 11.8002L44.6983 16.5932L49.4923 11.8002H39.9043Z" fill="#BF62A2"/><path id="Fill 12" fill-rule="evenodd" clip-rule="evenodd" d="M44.6983 105.706L49.4923 100.912L44.6983 96.1188L39.9043 100.912L44.6983 105.706Z" fill="#BF62A2"/><path id="Fill 13" fill-rule="evenodd" clip-rule="evenodd" d="M39.9043 146.073H49.4923L44.6983 141.279L39.9043 146.073Z" fill="#BF62A2"/><path id="Fill 14" fill-rule="evenodd" clip-rule="evenodd" d="M76.3003 56.4465L89.3363 69.4825L89.3343 61.2395L84.5403 56.4465L89.3343 51.6525L89.3363 43.4095L76.3003 56.4465Z" fill="#BF62A2"/><path id="Fill 15" fill-rule="evenodd" clip-rule="evenodd" d="M76.3272 11.8002L76.2012 11.9262L89.2872 25.0132L89.3362 24.9642V16.5582L84.5072 11.8002H76.3272Z" fill="#BF62A2"/><path id="Fill 16" fill-rule="evenodd" clip-rule="evenodd" d="M76.2012 100.912L89.3362 114.047V106.293L84.1982 101.156L89.3362 96.0179V87.7769L76.2012 100.912Z" fill="#BF62A2"/><path id="Fill 17" fill-rule="evenodd" clip-rule="evenodd" d="M76.8418 146.073H84.1098L89.3358 141.712V133.393L76.8418 146.073Z" fill="#BF62A2"/><path id="Fill 18" fill-rule="evenodd" clip-rule="evenodd" d="M0 51.6522L4.793 56.4462L0 61.2402V69.5322L13.087 56.4462L0 43.3592V51.6522Z" fill="#BF62A2"/><path id="Fill 19" fill-rule="evenodd" clip-rule="evenodd" d="M5.453 11.8002L0 15.9352V24.5302L0.482 25.0132L13.569 11.9262L13.442 11.8002H5.453Z" fill="#BF62A2"/><path id="Fill 20" fill-rule="evenodd" clip-rule="evenodd" d="M0 96.3615L4.793 101.156L0 105.95V113.999L13.087 100.912L0 87.8255V96.3615Z" fill="#BF62A2"/><path id="Fill 21" fill-rule="evenodd" clip-rule="evenodd" d="M0 141.363L4.878 146.073H12.928L0 132.827V141.363Z" fill="#BF62A2"/><path id="Fill 22" fill-rule="evenodd" clip-rule="evenodd" d="M84.5405 56.4465L89.3335 61.2395V51.6525L84.5405 56.4465Z" fill="#E0BFDB"/><path id="Fill 23" fill-rule="evenodd" clip-rule="evenodd" d="M84.1978 101.156L89.3358 106.293V96.0178L84.1978 101.156Z" fill="#E0BFDB"/><path id="Fill 24" fill-rule="evenodd" clip-rule="evenodd" d="M84.1104 146.073H89.3354V140.712L84.1104 146.073Z" fill="#E0BFDB"/><path id="Fill 25" fill-rule="evenodd" clip-rule="evenodd" d="M84.5073 11.8002L89.3353 16.5582V11.8002H84.5073Z" fill="#E0BFDB"/><path id="Fill 26" fill-rule="evenodd" clip-rule="evenodd" d="M0 61.2399L4.793 56.4469L0 51.6519V61.2399Z" fill="#E0BFDB"/><path id="Fill 27" fill-rule="evenodd" clip-rule="evenodd" d="M0 105.949L4.793 101.156L0 96.3612V105.949Z" fill="#E0BFDB"/><path id="Fill 28" fill-rule="evenodd" clip-rule="evenodd" d="M0 146.073H4.878L0 141.363V146.073Z" fill="#E0BFDB"/><path id="Fill 29" fill-rule="evenodd" clip-rule="evenodd" d="M0 11.8002V15.9352L5.453 11.8002H0Z" fill="#E0BFDB"/><path id="Fill 30" fill-rule="evenodd" clip-rule="evenodd" d="M66.8707 100.913L44.6987 123.085L44.6377 123.146L44.6987 123.205L66.9307 145.439L89.2237 123.146L66.9917 100.913L66.9307 100.853L66.8707 100.913ZM53.8437 123.146L66.9307 110.059L80.0177 123.146L66.9307 136.233L53.8437 123.146Z" fill="#00AFA9"/><path id="Fill 31" fill-rule="evenodd" clip-rule="evenodd" d="M44.6987 34.1526L44.6387 34.2126L44.6987 34.2726L66.8707 56.4456L66.9317 56.5056L66.9917 56.4456L89.2247 34.2126L66.9317 11.9186L44.6987 34.1526ZM53.8447 34.2126L66.9317 21.1256L80.0187 34.2126L66.9317 47.2996L53.8447 34.2126Z" fill="#00AFA9"/><path id="Fill 32" fill-rule="evenodd" clip-rule="evenodd" d="M53.8442 78.679L66.9312 91.766L80.0182 78.679L66.9312 65.592L53.8442 78.679Z" fill="#5473B8"/><path id="Fill 33" fill-rule="evenodd" clip-rule="evenodd" d="M80.0177 34.2127L66.9307 21.1257L53.8438 34.2127L66.9307 47.2997L80.0177 34.2127Z" fill="#5473B8"/><path id="Fill 34" fill-rule="evenodd" clip-rule="evenodd" d="M53.8442 123.145L66.9312 136.232L80.0182 123.145L66.9312 110.059L53.8442 123.145Z" fill="#5473B8"/><path id="Fill 35" fill-rule="evenodd" clip-rule="evenodd" d="M35.5519 78.679L22.4649 65.592L9.37793 78.679L22.4649 91.766L35.5519 78.679Z" fill="#5473B8"/><path id="Fill 36" fill-rule="evenodd" clip-rule="evenodd" d="M35.5519 34.2127L22.4649 21.1257L9.37793 34.2127L22.4649 47.2997L35.5519 34.2127Z" fill="#5473B8"/><path id="Fill 37" fill-rule="evenodd" clip-rule="evenodd" d="M9.37842 123.145L22.4654 136.232L35.5524 123.145L22.4654 110.059L9.37842 123.145Z" fill="#5473B8"/></g></g></g></g></g><g id="Master/Worms/Poh" transform="translate(349.115 346.75) scale(1.3280730897009967 1.2166666666666666)"><g id="Master/Worms/Poh"><g id="Body/Poh" transform="translate(92.457 113.4) scale(1 1)"><g id="Body/Poh/Yellow"><g id="Group 11"><g id="Group 3"><path id="Fill 1" fill-rule="evenodd" clip-rule="evenodd" d="M118.501 81.3973C118.501 74.8333 115.577 68.9623 110.977 64.9783C115.577 60.9943 118.501 55.1233 118.501 48.5593C118.501 36.5593 108.772 26.8313 96.7725 26.8313C96.5585 26.8313 96.3505 26.8563 96.1375 26.8633C96.5375 25.2143 96.7725 23.5013 96.7725 21.7293C96.7725 9.7283 87.0445 0.000305176 75.0445 0.000305176C69.0785 0.000305176 63.6775 2.40831 59.7505 6.30031C55.8235 2.40831 50.4225 0.000305176 44.4565 0.000305176C32.4565 0.000305176 22.7285 9.7283 22.7285 21.7293C22.7285 23.5013 22.9635 25.2143 23.3635 26.8633C23.1505 26.8563 22.9425 26.8313 22.7285 26.8313C10.7285 26.8313 1.00049 36.5593 1.00049 48.5593C1.00049 55.1233 3.92349 60.9943 8.52449 64.9783C3.92349 68.9623 1.00049 74.8333 1.00049 81.3973C1.00049 87.9613 3.92349 93.8323 8.52349 97.8163C3.92349 101.8 1.00049 107.671 1.00049 114.235C1.00049 120.799 3.92349 126.669 8.52349 130.654C3.92349 134.638 1.00049 140.508 1.00049 147.073C1.00049 153.637 3.92349 159.507 8.52349 163.492C3.92349 167.476 1.00049 173.346 1.00049 179.91C1.00049 191.305 9.77549 200.634 20.9365 201.548L20.9335 201.639H96.7725C108.772 201.639 118.501 191.91 118.501 179.91C118.501 173.346 115.577 167.476 110.977 163.492C115.577 159.507 118.501 153.637 118.501 147.073C118.501 140.508 115.577 134.638 110.977 130.654C115.577 126.669 118.501 120.799 118.501 114.235C118.501 107.671 115.577 101.8 110.977 97.8163C115.577 93.8323 118.501 87.9613 118.501 81.3973" fill="#FFCC37"/></g><path id="Fill 4" fill-rule="evenodd" clip-rule="evenodd" d="M58.2018 46.8196C58.2018 56.5686 50.2988 64.4716 40.5488 64.4716C30.7998 64.4716 22.8958 56.5686 22.8958 46.8196C22.8958 37.0706 30.7998 29.1676 40.5488 29.1676C50.2988 29.1676 58.2018 37.0706 58.2018 46.8196" fill="#F9A471"/><path id="Fill 6" fill-rule="evenodd" clip-rule="evenodd" d="M96.605 46.8196C96.605 56.5686 88.702 64.4716 78.953 64.4716C69.204 64.4716 61.3 56.5686 61.3 46.8196C61.3 37.0706 69.204 29.1676 78.953 29.1676C88.702 29.1676 96.605 37.0706 96.605 46.8196" fill="#F9A471"/><g id="Group 10"><path id="Fill 8" fill-rule="evenodd" clip-rule="evenodd" d="M2.11873 88.282L2.33673 88.479C4.63873 90.679 7.57373 90.679 9.87573 88.479L10.0367 88.325C12.3547 86.11 15.3127 86.126 17.6197 88.367C19.9427 90.623 22.9237 90.623 25.2467 88.367C27.5547 86.126 30.5127 86.11 32.8297 88.324L32.9797 88.469C35.2827 90.669 38.2177 90.669 40.5187 88.469L40.7007 88.295C43.0027 86.095 45.9377 86.095 48.2397 88.295L48.3587 88.409C50.6617 90.609 53.5967 90.609 55.8977 88.409L56.1417 88.176C58.4437 85.976 61.3797 85.976 63.6817 88.176L63.8007 88.29C66.1017 90.49 69.0377 90.49 71.3397 88.29L71.3957 88.236C73.6987 86.036 76.6337 86.036 78.9347 88.236L79.0717 88.366C81.3747 90.566 84.3087 90.566 86.6107 88.366L86.7067 88.276C89.0087 86.076 91.9437 86.076 94.2457 88.276L94.3517 88.377C96.6537 90.577 99.5887 90.577 101.891 88.377L102.148 88.132C104.45 85.932 107.386 85.932 109.687 88.132L109.896 88.332C112.199 90.532 115.032 90.626 117.334 88.427C116.073 92.099 113.852 95.326 110.977 97.816C115.578 101.801 118.502 107.671 118.502 114.235C118.502 120.8 115.578 126.67 110.977 130.654C115.578 134.638 118.502 140.509 118.502 147.073C118.502 153.637 115.578 159.508 110.977 163.492C115.578 167.476 118.502 173.346 118.502 179.91C118.502 191.91 108.773 201.639 96.7727 201.639H20.9327L20.9357 201.549C9.77573 200.635 1.00073 191.305 1.00073 179.91C1.00073 173.346 3.92373 167.476 8.52373 163.492C3.92373 159.508 1.00073 153.637 1.00073 147.073C1.00073 140.509 3.92373 134.638 8.52373 130.654C3.92373 126.67 1.00073 120.8 1.00073 114.235C1.00073 107.671 3.92373 101.801 8.52373 97.816C5.61073 95.294 3.37073 92.014 2.11873 88.282" fill="#ECB11F"/></g></g></g></g><g id="Eyes/Poh" transform="translate(131.918 153.017) scale(1 1)"><g id="Eyes/Poh/Upset"><g id="Group 6"><g id="Group 3"><path id="Fill 1" fill-rule="evenodd" clip-rule="evenodd" d="M35.6168 9H28.7988C27.6938 9 26.7988 8.104 26.7988 7C26.7988 5.896 27.6938 5 28.7988 5H35.6168C36.7208 5 37.6168 5.896 37.6168 7C37.6168 8.104 36.7208 9 35.6168 9" fill="#101335"/></g><path id="Fill 4" fill-rule="evenodd" clip-rule="evenodd" d="M10.817 9H4C2.895 9 2 8.104 2 7C2 5.896 2.895 5 4 5H10.817C11.921 5 12.817 5.896 12.817 7C12.817 8.104 11.921 9 10.817 9" fill="#101335"/></g></g></g><g id="Mouth/Poh" transform="translate(131.904 166.433) scale(0.975609756097561 1)"><g id="Mouth/Poh/Angry"><g id="Group 3"><path id="Fill 1" fill-rule="evenodd" clip-rule="evenodd" d="M20.1583 1.0002C25.9153 1.0002 31.0263 3.0892 34.0293 5.0502C37.4973 7.3142 38.4713 11.9622 36.2073 15.4302C33.9553 18.8772 29.3503 19.8612 25.8883 17.6482C25.2623 17.2632 20.1343 14.2962 15.7983 17.4172C12.4353 19.8342 7.74832 19.0722 5.33032 15.7092C2.91132 12.3472 3.67632 7.6602 7.03832 5.2412C11.3733 2.1232 15.9383 1.0002 20.1583 1.0002" fill="#101335"/></g></g></g><g id="Hair/Poh" transform="translate(80.918 60.5) scale(1 1)"><g id="Hair/Poh/Easter Bunny"><g id="Group 22"><path id="Fill 1" fill-rule="evenodd" clip-rule="evenodd" d="M54.0768 51.4033C53.8538 51.1083 31.8968 21.5793 41.3088 -6.51968L41.7358 -7.79468L42.8348 -7.01868C43.6758 -6.42468 63.3998 8.00132 61.5878 49.1843L61.5558 49.9013L54.4918 51.9523L54.0768 51.4033Z" fill="white"/><path id="Fill 3" fill-rule="evenodd" clip-rule="evenodd" d="M41.2165 -9.3877L40.3625 -6.8377C36.3845 5.0363 37.3665 18.9903 43.2035 33.5163C47.5765 44.3983 53.0495 51.7003 53.2805 52.0063L54.1115 53.1053L55.4345 52.7203L61.1475 51.0613L62.5245 50.6613L62.5875 49.2283C64.4235 7.50531 44.2715 -7.2287 43.4115 -7.8357L41.2165 -9.3877ZM42.2585 -6.2017C42.2585 -6.2017 62.3985 8.0293 60.5895 49.1403L54.8765 50.8003C54.8765 50.8003 32.9045 21.7213 42.2585 -6.2017V-6.2017Z" fill="#E0BFDB"/><path id="Fill 5" fill-rule="evenodd" clip-rule="evenodd" d="M56.3362 50.3754C56.3362 50.3754 40.3252 18.5344 47.8452 16.3504C55.3632 14.1664 59.0872 49.5764 59.0872 49.5764L56.3362 50.3754Z" fill="#ED6389"/><path id="Fill 7" fill-rule="evenodd" clip-rule="evenodd" d="M84.2741 49.892L84.2721 49.143C84.1481 8.01105 102.224 -6.40095 102.994 -6.99395L104.138 -7.87695L104.56 -6.49395C113.313 22.16 92.0031 51.11 91.7871 51.399L91.3721 51.954L84.2741 49.892Z" fill="white"/><path id="Fill 9" fill-rule="evenodd" clip-rule="evenodd" d="M104.67 -9.55115L102.381 -7.78615C101.596 -7.18015 83.1451 7.52686 83.2721 49.1469L83.2751 50.6439L84.7131 51.0619L90.4271 52.7209L91.7561 53.1079L92.5861 51.9989C92.8111 51.6989 98.1251 44.5359 102.417 33.7249C108.138 19.3149 109.209 5.30585 105.515 -6.78615L104.67 -9.55115ZM103.602 -6.20215C112.309 22.2989 90.9841 50.8009 90.9841 50.8009L85.2721 49.1409C85.1471 8.02885 103.602 -6.20215 103.602 -6.20215V-6.20215Z" fill="#E0BFDB"/><path id="Fill 11" fill-rule="evenodd" clip-rule="evenodd" d="M89.5244 50.3754C89.5244 50.3754 105.535 18.5344 98.0164 16.3504C90.4974 14.1664 86.7734 49.5764 86.7734 49.5764L89.5244 50.3754Z" fill="#ED6389"/><path id="Fill 13" fill-rule="evenodd" clip-rule="evenodd" d="M122.638 66.8067C110.063 53.8057 92.4467 45.7097 72.9297 45.7097H72.9287C53.4117 45.7097 35.7967 53.8057 23.2207 66.8067L38.2107 62.8187L44.1987 66.8067L54.1817 59.5297L65.4557 66.8067L75.1267 59.9997L84.9527 66.8067L95.0537 57.4157L103.745 66.8067L111.186 62.9357L122.638 66.8067Z" fill="white"/><path id="Stroke 15 (Stroke)" fill-rule="evenodd" clip-rule="evenodd" d="M25.7232 67.1115C38.4793 53.9242 56.3503 45.7097 76.1499 45.7097C95.9496 45.7097 113.823 53.9242 126.578 67.1115L125.539 68.7541L114.49 65.0195L106.75 69.0461L98.2218 59.8306L88.2657 69.0868L78.3525 62.2194L68.7011 69.0126L57.4373 61.7421L47.4457 69.0254L41.2531 64.9011L23.2207 69.6985L25.7232 67.1115ZM29.8569 65.8634L41.6108 62.7363L47.3941 66.588L57.3685 59.3173L68.6527 66.6009L78.3434 59.78L88.0821 66.5266L98.3281 57.0009L107.181 66.5674L114.323 62.8519L121.984 65.4415C109.879 54.4295 93.8042 47.7097 76.1509 47.7097C58.2734 47.7097 42.0149 54.6014 29.8569 65.8634Z" fill="#FFCC37"/><path id="Fill 17" fill-rule="evenodd" clip-rule="evenodd" d="M110.001 8.00204C105.041 8.00204 100.03 6.99604 95.1073 5.01104L94.0723 4.59404L94.6013 3.61004C94.7683 3.29904 98.7543 -4.04696 104.463 -8.37196L105.011 -8.78796L105.595 -8.42396C105.94 -8.20896 114.135 -3.05396 119.585 5.19204L120.276 6.23704L119.104 6.67904C118.961 6.73304 115.534 8.00204 110.001 8.00204" fill="white"/><g id="Group 21"><path id="Fill 19" fill-rule="evenodd" clip-rule="evenodd" d="M104.957 -10L103.859 -9.169C97.9781 -4.714 93.8921 2.818 93.7211 3.137L92.6641 5.104L94.7341 5.938C99.7771 7.971 104.914 9.002 110.002 9.002C115.716 9.002 119.308 7.672 119.458 7.615L121.803 6.731L120.421 4.641C114.851 -3.785 106.478 -9.053 106.124 -9.273L104.957 -10ZM105.067 -7.575C105.067 -7.575 113.359 -2.415 118.752 5.744C118.752 5.744 115.417 7.002 110.002 7.002C106.09 7.002 101.093 6.346 95.4821 4.084C95.4821 4.084 99.4671 -3.332 105.067 -7.575V-7.575Z" fill="#E0BFDB"/></g></g></g></g><g id="Clothes/Poh" transform="translate(92.918 199) scale(1 1)"><g id="Clothes/Poh/Snow Crystals"><g id="Group 23"><g id="Group 3"><path id="Fill 1" fill-rule="evenodd" clip-rule="evenodd" d="M8.07429 12.2082L8.30529 12.4242C10.3513 14.3792 12.9593 14.3792 15.0043 12.4242L15.1473 12.2882C17.2073 10.3192 19.8353 10.3342 21.8853 12.3252C23.9483 14.3292 26.5963 14.3292 28.6603 12.3252C30.7103 10.3342 33.3383 10.3192 35.3973 12.2872L35.5313 12.4152C37.5763 14.3702 40.1833 14.3702 42.2293 12.4152L42.3903 12.2612C44.4353 10.3072 47.0433 10.3072 49.0883 12.2612L49.1943 12.3622C51.2393 14.3172 53.8463 14.3172 55.8923 12.3622L56.1093 12.1552C58.1543 10.2012 60.7623 10.2012 62.8063 12.1552L62.9133 12.2572C64.9583 14.2112 67.5653 14.2112 69.6103 12.2572L69.6613 12.2082C71.7073 10.2542 74.3143 10.2542 76.3593 12.2082L76.4813 12.3242C78.5263 14.2792 81.1343 14.2792 83.1783 12.3242L83.2633 12.2442C85.3083 10.2892 87.9163 10.2892 89.9623 12.2442L90.0553 12.3342C92.1003 14.2882 94.7093 14.2882 96.7543 12.3342L96.9823 12.1162C99.0273 10.1612 101.635 10.1612 103.679 12.1162L103.866 12.2932C105.911 14.2482 108.481 14.1632 110.526 12.2082C115.128 16.1922 118.051 22.0632 118.051 28.6272C118.051 35.1912 115.128 41.0622 110.526 45.0462C115.128 49.0302 118.051 54.9002 118.051 61.4652C118.051 68.0292 115.128 73.8992 110.526 77.8842C115.128 81.8682 118.051 87.7382 118.051 94.3022C118.051 106.302 108.323 116.031 96.3233 116.031H20.4833L20.4863 115.94C9.32629 115.026 0.550293 105.697 0.550293 94.3022C0.550293 87.7382 3.47329 81.8682 8.07429 77.8842C3.47329 73.8992 0.550293 68.0292 0.550293 61.4652C0.550293 54.9002 3.47329 49.0302 8.07429 45.0462C3.47329 41.0622 0.550293 35.1912 0.550293 28.6272C0.550293 22.0632 3.47329 16.1922 8.07429 12.2082" fill="#9FD5DD"/></g><g id="Group 6"><path id="Fill 4" fill-rule="evenodd" clip-rule="evenodd" d="M0.549805 61.4646C0.549805 68.0286 3.4738 73.8996 8.0738 77.8836C7.9158 78.0206 7.7648 78.1656 7.6108 78.3066H110.99C110.836 78.1656 110.685 78.0206 110.527 77.8836C115.128 73.8996 118.051 68.0286 118.051 61.4646C118.051 54.9006 115.128 49.0296 110.527 45.0456H8.0738C3.4738 49.0296 0.549805 54.9006 0.549805 61.4646" fill="#5473B8"/></g><path id="Fill 7" fill-rule="evenodd" clip-rule="evenodd" d="M27.047 29.5642H23.143L24.849 27.8592C25.243 27.4652 25.243 26.8252 24.849 26.4302C24.454 26.0362 23.815 26.0362 23.42 26.4302L21.715 28.1362V24.2312C21.715 23.6742 21.262 23.2212 20.704 23.2212C20.147 23.2212 19.694 23.6742 19.694 24.2312V28.1352L17.989 26.4302C17.595 26.0362 16.955 26.0362 16.561 26.4302C16.166 26.8252 16.166 27.4652 16.561 27.8592L18.267 29.5642H14.362C13.805 29.5642 13.353 30.0172 13.353 30.5742C13.353 31.1322 13.805 31.5842 14.362 31.5842H18.267L16.561 33.2902C16.166 33.6842 16.166 34.3232 16.561 34.7182C16.758 34.9152 17.017 35.0142 17.276 35.0142C17.533 35.0142 17.792 34.9152 17.989 34.7182L19.694 33.0132V36.9172C19.694 37.4752 20.147 37.9272 20.704 37.9272C21.262 37.9272 21.715 37.4752 21.715 36.9172V33.0122L23.42 34.7182C23.617 34.9152 23.876 35.0142 24.134 35.0142C24.393 35.0142 24.651 34.9152 24.849 34.7182C25.243 34.3232 25.243 33.6842 24.849 33.2902L23.143 31.5842H27.047C27.605 31.5842 28.057 31.1322 28.057 30.5742C28.057 30.0172 27.605 29.5642 27.047 29.5642" fill="white"/><path id="Fill 9" fill-rule="evenodd" clip-rule="evenodd" d="M64.2785 29.5642H60.3745L62.0795 27.8592C62.4735 27.4652 62.4735 26.8252 62.0795 26.4302C61.6845 26.0362 61.0465 26.0362 60.6515 26.4302L58.9465 28.1352V24.2312C58.9465 23.6742 58.4945 23.2212 57.9355 23.2212C57.3785 23.2212 56.9255 23.6742 56.9255 24.2312V28.1362L55.2205 26.4302C54.8265 26.0362 54.1865 26.0362 53.7925 26.4302C53.3975 26.8252 53.3975 27.4652 53.7925 27.8592L55.4975 29.5642H51.5935C51.0355 29.5642 50.5835 30.0172 50.5835 30.5742C50.5835 31.1322 51.0355 31.5842 51.5935 31.5842H55.4975L53.7925 33.2902C53.3975 33.6842 53.3975 34.3232 53.7925 34.7182C53.9895 34.9152 54.2485 35.0142 54.5065 35.0142C54.7645 35.0142 55.0235 34.9152 55.2205 34.7182L56.9255 33.0122V36.9172C56.9255 37.4752 57.3785 37.9272 57.9355 37.9272C58.4945 37.9272 58.9465 37.4752 58.9465 36.9172V33.0132L60.6515 34.7182C60.8485 34.9152 61.1065 35.0142 61.3655 35.0142C61.6245 35.0142 61.8825 34.9152 62.0795 34.7182C62.4735 34.3232 62.4735 33.6842 62.0795 33.2902L60.3745 31.5842H64.2785C64.8375 31.5842 65.2895 31.1322 65.2895 30.5742C65.2895 30.0172 64.8375 29.5642 64.2785 29.5642" fill="white"/><path id="Fill 11" fill-rule="evenodd" clip-rule="evenodd" d="M101.51 29.5642H97.6059L99.3119 27.8592C99.7059 27.4652 99.7059 26.8252 99.3119 26.4302C98.9169 26.0362 98.2779 26.0362 97.8829 26.4302L96.1779 28.1362V24.2312C96.1779 23.6742 95.7249 23.2212 95.1669 23.2212C94.6099 23.2212 94.1569 23.6742 94.1569 24.2312V28.1352L92.4519 26.4302C92.0579 26.0362 91.4179 26.0362 91.0239 26.4302C90.6289 26.8252 90.6289 27.4652 91.0239 27.8592L92.7299 29.5642H88.8249C88.2679 29.5642 87.8159 30.0172 87.8159 30.5742C87.8159 31.1322 88.2679 31.5842 88.8249 31.5842H92.7299L91.0239 33.2902C90.6289 33.6842 90.6289 34.3232 91.0239 34.7182C91.2209 34.9152 91.4799 35.0142 91.7389 35.0142C91.9959 35.0142 92.2549 34.9152 92.4519 34.7182L94.1569 33.0132V36.9172C94.1569 37.4752 94.6099 37.9272 95.1669 37.9272C95.7249 37.9272 96.1779 37.4752 96.1779 36.9172V33.0122L97.8829 34.7182C98.0799 34.9152 98.3389 35.0142 98.5969 35.0142C98.8559 35.0142 99.1139 34.9152 99.3119 34.7182C99.7059 34.3232 99.7059 33.6842 99.3119 33.2902L97.6059 31.5842H101.51C102.068 31.5842 102.52 31.1322 102.52 30.5742C102.52 30.0172 102.068 29.5642 101.51 29.5642" fill="white"/><path id="Fill 13" fill-rule="evenodd" clip-rule="evenodd" d="M27.047 95.4885H23.143L24.849 93.7835C25.243 93.3895 25.243 92.7495 24.849 92.3555C24.454 91.9605 23.815 91.9605 23.42 92.3555L21.715 94.0605V90.1555C21.715 89.5985 21.262 89.1455 20.704 89.1455C20.147 89.1455 19.694 89.5985 19.694 90.1555V94.0605L17.989 92.3555C17.595 91.9605 16.955 91.9605 16.561 92.3555C16.166 92.7495 16.166 93.3895 16.561 93.7835L18.267 95.4885H14.362C13.805 95.4885 13.353 95.9415 13.353 96.4985C13.353 97.0565 13.805 97.5085 14.362 97.5085H18.267L16.561 99.2145C16.166 99.6085 16.166 100.247 16.561 100.642C16.758 100.839 17.017 100.939 17.276 100.939C17.533 100.939 17.792 100.839 17.989 100.642L19.694 98.9375V102.842C19.694 103.4 20.147 103.852 20.704 103.852C21.262 103.852 21.715 103.4 21.715 102.842V98.9365L23.42 100.642C23.617 100.839 23.876 100.939 24.134 100.939C24.393 100.939 24.651 100.839 24.849 100.642C25.243 100.247 25.243 99.6085 24.849 99.2145L23.143 97.5085H27.047C27.605 97.5085 28.057 97.0565 28.057 96.4985C28.057 95.9415 27.605 95.4885 27.047 95.4885" fill="white"/><path id="Fill 15" fill-rule="evenodd" clip-rule="evenodd" d="M64.2785 95.4885H60.3745L62.0795 93.7835C62.4735 93.3895 62.4735 92.7495 62.0795 92.3555C61.6845 91.9605 61.0465 91.9605 60.6515 92.3555L58.9465 94.0605V90.1555C58.9465 89.5985 58.4945 89.1455 57.9355 89.1455C57.3785 89.1455 56.9255 89.5985 56.9255 90.1555V94.0605L55.2205 92.3555C54.8265 91.9605 54.1865 91.9605 53.7925 92.3555C53.3975 92.7495 53.3975 93.3895 53.7925 93.7835L55.4975 95.4885H51.5935C51.0355 95.4885 50.5835 95.9415 50.5835 96.4985C50.5835 97.0565 51.0355 97.5085 51.5935 97.5085H55.4975L53.7925 99.2145C53.3975 99.6085 53.3975 100.247 53.7925 100.642C53.9895 100.839 54.2485 100.939 54.5065 100.939C54.7645 100.939 55.0235 100.839 55.2205 100.642L56.9255 98.9365V102.842C56.9255 103.4 57.3785 103.852 57.9355 103.852C58.4945 103.852 58.9465 103.4 58.9465 102.842V98.9375L60.6515 100.642C60.8485 100.839 61.1065 100.939 61.3655 100.939C61.6245 100.939 61.8825 100.839 62.0795 100.642C62.4735 100.247 62.4735 99.6085 62.0795 99.2145L60.3745 97.5085H64.2785C64.8375 97.5085 65.2895 97.0565 65.2895 96.4985C65.2895 95.9415 64.8375 95.4885 64.2785 95.4885" fill="white"/><path id="Fill 17" fill-rule="evenodd" clip-rule="evenodd" d="M101.51 95.4885H97.6059L99.3119 93.7835C99.7059 93.3895 99.7059 92.7495 99.3119 92.3555C98.9169 91.9605 98.2779 91.9605 97.8829 92.3555L96.1779 94.0605V90.1555C96.1779 89.5985 95.7249 89.1455 95.1669 89.1455C94.6099 89.1455 94.1569 89.5985 94.1569 90.1555V94.0605L92.4519 92.3555C92.0579 91.9605 91.4179 91.9605 91.0239 92.3555C90.6289 92.7495 90.6289 93.3895 91.0239 93.7835L92.7299 95.4885H88.8249C88.2679 95.4885 87.8159 95.9415 87.8159 96.4985C87.8159 97.0565 88.2679 97.5085 88.8249 97.5085H92.7299L91.0239 99.2145C90.6289 99.6085 90.6289 100.247 91.0239 100.642C91.2209 100.839 91.4799 100.939 91.7389 100.939C91.9959 100.939 92.2549 100.839 92.4519 100.642L94.1569 98.9375V102.842C94.1569 103.4 94.6099 103.852 95.1669 103.852C95.7249 103.852 96.1779 103.4 96.1779 102.842V98.9365L97.8829 100.642C98.0799 100.839 98.3389 100.939 98.5969 100.939C98.8559 100.939 99.1139 100.839 99.3119 100.642C99.7059 100.247 99.7059 99.6085 99.3119 99.2145L97.6059 97.5085H101.51C102.068 97.5085 102.52 97.0565 102.52 96.4985C102.52 95.9415 102.068 95.4885 101.51 95.4885" fill="white"/><path id="Fill 19" fill-rule="evenodd" clip-rule="evenodd" d="M44.4865 60.3659H40.5835L42.2875 58.6609C42.6825 58.2669 42.6825 57.6269 42.2875 57.2329C41.8925 56.8379 41.2545 56.8379 40.8595 57.2329L39.1545 58.9379V55.0329C39.1545 54.4759 38.7025 54.0239 38.1445 54.0239C37.5865 54.0239 37.1335 54.4759 37.1335 55.0329V58.9379L35.4285 57.2329C35.0345 56.8379 34.3945 56.8379 34.0005 57.2329C33.6055 57.6269 33.6055 58.2669 34.0005 58.6609L35.7055 60.3659H31.8015C31.2445 60.3659 30.7915 60.8189 30.7915 61.3759C30.7915 61.9339 31.2445 62.3869 31.8015 62.3869H35.7055L34.0005 64.0919C33.6055 64.4859 33.6055 65.1259 34.0005 65.5199C34.1975 65.7179 34.4565 65.8159 34.7155 65.8159C34.9725 65.8159 35.2315 65.7179 35.4285 65.5199L37.1335 63.8149V67.7189C37.1335 68.2769 37.5865 68.7289 38.1445 68.7289C38.7025 68.7289 39.1545 68.2769 39.1545 67.7189V63.8149L40.8595 65.5199C41.0565 65.7179 41.3155 65.8159 41.5735 65.8159C41.8325 65.8159 42.0905 65.7179 42.2875 65.5199C42.6825 65.1259 42.6825 64.4859 42.2875 64.0919L40.5825 62.3869H44.4865C45.0455 62.3869 45.4975 61.9339 45.4975 61.3759C45.4975 60.8189 45.0455 60.3659 44.4865 60.3659" fill="white"/><path id="Fill 21" fill-rule="evenodd" clip-rule="evenodd" d="M82.9191 60.3659H79.0161L80.7201 58.6609C81.1151 58.2669 81.1151 57.6269 80.7201 57.2329C80.3251 56.8379 79.6871 56.8379 79.2921 57.2329L77.5871 58.9379V55.0329C77.5871 54.4759 77.1351 54.0239 76.5771 54.0239C76.0191 54.0239 75.5661 54.4759 75.5661 55.0329V58.9379L73.8611 57.2329C73.4671 56.8379 72.8271 56.8379 72.4331 57.2329C72.0381 57.6269 72.0381 58.2669 72.4331 58.6609L74.1381 60.3659H70.2341C69.6771 60.3659 69.2241 60.8189 69.2241 61.3759C69.2241 61.9339 69.6771 62.3869 70.2341 62.3869H74.1381L72.4331 64.0919C72.0381 64.4859 72.0381 65.1259 72.4331 65.5199C72.6301 65.7179 72.8891 65.8159 73.1481 65.8159C73.4051 65.8159 73.6641 65.7179 73.8611 65.5199L75.5661 63.8149V67.7189C75.5661 68.2769 76.0191 68.7289 76.5771 68.7289C77.1351 68.7289 77.5871 68.2769 77.5871 67.7189V63.8149L79.2921 65.5199C79.4891 65.7179 79.7481 65.8159 80.0061 65.8159C80.2651 65.8159 80.5231 65.7179 80.7201 65.5199C81.1151 65.1259 81.1151 64.4859 80.7201 64.0919L79.0151 62.3869H82.9191C83.4781 62.3869 83.9301 61.9339 83.9301 61.3759C83.9301 60.8189 83.4781 60.3659 82.9191 60.3659" fill="white"/></g></g></g></g></g></g></svg>