<svg viewBox="0 -1.3321167883211729 1065.9999999999998 732.6642335766425" fill="none" xmlns="http://www.w3.org/2000/svg" xmlns:xlink="http://www.w3.org/1999/xlink" overflow="visible" width="1065.9999999999998px" height="732.6642335766425px"><g id="Master/Stickers/Email Notification"><g id="Group 517"><rect id="Rectangle 6" x="274.834" y="237.523" width="499.887" height="316.477" rx="20.0692" fill="#FFE9FC"/><path id="Vector 1 (Stroke)" fill-rule="evenodd" clip-rule="evenodd" d="M782.395 250.843C783.778 252.737 783.365 255.393 781.471 256.776L529.985 440.487C528.486 441.582 526.449 441.576 524.956 440.472L276.555 256.761C274.67 255.367 274.272 252.708 275.666 250.823C277.061 248.938 279.719 248.54 281.604 249.934L527.496 431.79L776.463 249.92C778.356 248.537 781.012 248.95 782.395 250.843Z" fill="#ECA9F7"/><path id="Line 1 (Stroke)" fill-rule="evenodd" clip-rule="evenodd" d="M481.474 399.22C482.81 401.147 482.331 403.793 480.405 405.13L278.322 545.404C276.396 546.741 273.752 546.263 272.416 544.336C271.08 542.409 271.558 539.763 273.485 538.426L475.567 398.152C477.493 396.815 480.138 397.293 481.474 399.22Z" fill="#ECA9F6"/><path id="Line 2 (Stroke)" fill-rule="evenodd" clip-rule="evenodd" d="M550.937 412.397C552.253 410.457 554.893 409.952 556.832 411.269L763.495 551.615C765.434 552.932 765.94 555.573 764.624 557.513C763.307 559.454 760.668 559.959 758.728 558.642L552.066 418.296C550.126 416.979 549.621 414.338 550.937 412.397Z" fill="#ECA9F6"/><path id="Vector" d="M808.588 298.694C784.536 333.412 736.495 342.976 701.525 320.186C666.814 297.581 658.098 251.633 681.812 217.406C705.527 183.178 752.925 173.259 787.973 195.374C823.28 217.674 832.636 264.008 808.615 298.729L808.588 298.694Z" fill="#F06647"/></g></g></svg>