<svg viewBox="306.4749999999999 91.91605839416059 453.0499999999998 466.2408759124088" fill="none" xmlns="http://www.w3.org/2000/svg" xmlns:xlink="http://www.w3.org/1999/xlink" overflow="visible" width="453.0499999999998px" height="466.2408759124088px"><g id="Master/Stickers/Donut"><g id="Group 70"><g id="Group 3"><path id="Fill 1" fill-rule="evenodd" clip-rule="evenodd" d="M532.242 401.534C490.829 401.534 457.257 367.933 457.257 326.486C457.257 285.038 490.829 251.442 532.242 251.442C573.655 251.442 607.228 285.038 607.228 326.486C607.228 367.933 573.655 401.534 532.242 401.534M532.242 101.874C408.295 101.874 307.814 202.437 307.814 326.486C307.814 450.536 408.295 551.1 532.242 551.1C656.189 551.1 756.669 450.536 756.669 326.486C756.669 202.437 656.189 101.874 532.242 101.874" fill="#F06647"/></g><path id="Fill 4" fill-rule="evenodd" clip-rule="evenodd" d="M532.18 400C491.611 400 458.725 366.868 458.725 325.998C458.725 285.128 491.611 252 532.18 252C572.748 252 605.636 285.128 605.636 325.998C605.636 366.868 572.748 400 532.18 400M694.063 340.787C693.091 336.785 690.812 333.205 688.112 330.1C673.058 312.781 644.572 308.017 636.108 286.669C630.778 273.225 635.745 257.943 642.391 245.102C649.032 232.261 657.51 219.864 659.617 205.556C662.966 182.82 647.003 158.866 624.776 153.265C602.548 147.666 577.187 161.212 569.419 182.83C565.018 195.086 563.835 211.422 551.613 215.838C549.867 216.469 547.946 216.769 546.147 216.305C544.466 215.869 543.007 214.792 541.817 213.524C536.346 207.696 536.46 198.78 534.697 190.972C532.935 183.164 524.372 174.077 516.733 176.4C506.623 176.764 501.201 188.541 499.834 198.59C498.467 208.641 498.211 220.149 490.539 226.761C480.728 235.213 465.918 230.168 453.389 226.951C432.358 221.547 408.533 223.219 391.045 236.115C373.555 249.008 364.911 274.659 375.198 293.825C381.506 305.586 393.44 313.21 405.555 318.754C409.812 320.7 414.372 322.626 417.126 326.417C423.542 335.254 416.633 347.241 410.747 356.441C400.697 372.15 393.345 392.289 401.302 409.163C405.782 418.658 414.988 425.762 425.29 427.672C438.737 430.168 453.158 424.298 466.029 428.928C476.84 432.816 483.928 443.294 488.293 453.944C492.66 464.596 495.1 476.061 500.584 486.179C514.066 511.054 546.81 523.425 573.313 513.655C599.814 503.879 616.762 473.187 610.956 445.479C607.199 427.563 595.383 408.793 603.676 392.483C609.513 381.004 623.332 376.113 636.106 374.711C648.882 373.309 662.14 374.272 674.229 369.905C686.321 365.538 697.105 353.308 694.063 340.787" fill="#FFCC37"/><path id="Fill 6" fill-rule="evenodd" clip-rule="evenodd" d="M599.639 217.979V235.021C599.639 237.624 601.937 240.117 604.636 239.996C607.342 239.876 609.633 237.811 609.633 235.021V217.979C609.633 215.376 607.334 212.883 604.636 213.004C601.929 213.126 599.639 215.191 599.639 217.979" fill="#5473B8"/><path id="Fill 8" fill-rule="evenodd" clip-rule="evenodd" d="M611.985 431.47C611.272 432.025 610.555 432.579 609.838 433.13C609.407 433.461 609.48 433.404 610.055 432.964C609.875 433.102 609.695 433.24 609.514 433.374C609.154 433.649 608.794 433.921 608.431 434.191C606.986 435.279 605.53 436.354 604.064 437.418C601.134 439.54 598.166 441.613 595.166 443.638C592.981 445.111 591.797 448.107 593.35 450.488C594.751 452.637 597.935 453.863 600.274 452.285C606.729 447.931 613.007 443.333 619.144 438.549C620.091 437.81 620.626 436.142 620.626 435.01C620.626 433.781 620.073 432.315 619.144 431.47C618.178 430.595 616.913 429.942 615.564 430.004C614.135 430.066 613.098 430.601 611.985 431.47" fill="#5473B8"/><path id="Fill 10" fill-rule="evenodd" clip-rule="evenodd" d="M443.393 408.654C445.17 412.933 446.948 417.21 448.725 421.489C449.179 422.579 450.574 423.529 451.611 423.828C452.768 424.165 454.308 424.014 455.334 423.315C456.365 422.616 457.271 421.571 457.553 420.271C457.609 419.818 457.667 419.37 457.725 418.918C457.723 417.999 457.503 417.141 457.067 416.346C455.289 412.069 453.51 407.79 451.733 403.514C451.281 402.421 449.884 401.474 448.847 401.17C447.691 400.836 446.152 400.987 445.126 401.684C444.094 402.387 443.186 403.432 442.906 404.728C442.848 405.18 442.79 405.633 442.734 406.083C442.736 407.002 442.957 407.86 443.393 408.654" fill="#5473B8"/><path id="Fill 12" fill-rule="evenodd" clip-rule="evenodd" d="M422.825 276.433C422.67 276.416 422.515 276.397 422.359 276.378C422.794 276.433 423.23 276.49 423.666 276.548C420.789 276.167 417.988 275.426 415.311 274.339C415.702 274.5 416.094 274.66 416.485 274.821C414.969 274.196 413.509 273.466 412.104 272.635C409.906 271.333 406.604 272.097 405.382 274.349C404.118 276.674 404.798 279.493 407.145 280.882C409.505 282.282 412.059 283.405 414.671 284.284C417.322 285.18 420.044 285.658 422.825 285.984C423.987 286.12 425.51 285.352 426.3 284.586C427.151 283.757 427.794 282.399 427.739 281.209C427.682 279.975 427.265 278.693 426.3 277.831C425.968 277.585 425.636 277.335 425.306 277.086C424.539 276.653 423.712 276.437 422.825 276.433" fill="#5473B8"/><path id="Fill 14" fill-rule="evenodd" clip-rule="evenodd" d="M462.24 174.459C458.068 178.598 453.712 182.538 449.188 186.268C448.258 187.037 447.73 188.716 447.73 189.884C447.73 191.137 448.272 192.636 449.188 193.501C450.137 194.393 451.381 195.057 452.707 194.996C453.147 194.937 453.589 194.873 454.029 194.814C454.873 194.571 455.606 194.133 456.227 193.501C460.749 189.769 465.105 185.829 469.279 181.688C471.155 179.827 471.236 176.303 469.279 174.459C467.263 172.557 464.243 172.471 462.24 174.459" fill="#5473B8"/><path id="Fill 16" fill-rule="evenodd" clip-rule="evenodd" d="M666.177 332.128C660.896 333.065 655.615 334.002 650.334 334.939C649.153 335.149 647.89 336.293 647.306 337.306C646.671 338.41 646.402 340.037 646.795 341.273C647.192 342.519 647.953 343.722 649.124 344.352C650.393 345.034 651.618 345.123 653.029 344.871C658.31 343.932 663.59 342.995 668.871 342.058C670.053 341.85 671.316 340.704 671.9 339.693C672.536 338.589 672.806 336.962 672.411 335.724C672.015 334.48 671.255 333.277 670.081 332.647C668.812 331.965 667.588 331.878 666.177 332.128" fill="#5473B8"/><path id="Fill 18" fill-rule="evenodd" clip-rule="evenodd" d="M698.837 265.268C701.064 270.967 703.291 276.665 705.518 282.364C706.001 283.601 706.641 284.631 707.852 285.322C708.941 285.941 710.544 286.205 711.766 285.821C714.181 285.058 716.325 282.323 715.313 279.733C713.086 274.034 710.859 268.336 708.632 262.637C708.151 261.4 707.509 260.368 706.3 259.68C705.211 259.058 703.606 258.795 702.384 259.181C699.969 259.943 697.825 262.677 698.837 265.268" fill="#5473B8"/><path id="Fill 20" fill-rule="evenodd" clip-rule="evenodd" d="M511.606 467.582C510.016 473.288 509.062 479.17 508.7 485.062C508.542 487.645 511.178 490.112 513.842 489.996C516.764 489.872 518.812 487.829 518.983 485.062C519.111 483.001 519.316 480.946 519.602 478.901C519.54 479.34 519.479 479.776 519.417 480.212C519.902 476.837 520.604 473.497 521.521 470.205C522.216 467.714 520.651 464.732 517.93 464.136C515.23 463.546 512.351 464.913 511.606 467.582" fill="#5473B8"/><path id="Fill 22" fill-rule="evenodd" clip-rule="evenodd" d="M347.239 350.748L357.128 361.5C357.994 362.441 359.475 363 360.73 363C361.979 363 363.472 362.443 364.332 361.5C366.257 359.389 366.265 356.359 364.332 354.254C361.036 350.67 357.739 347.086 354.443 343.502C353.577 342.561 352.094 342 350.841 342C349.592 342 348.099 342.559 347.239 343.502C345.314 345.613 345.303 348.643 347.239 350.748" fill="#5473B8"/><path id="Fill 24" fill-rule="evenodd" clip-rule="evenodd" d="M391.328 425.464C389.036 429.447 386.742 433.43 384.45 437.415C383.791 438.558 383.589 440.048 383.939 441.323C384.264 442.502 385.172 443.777 386.268 444.358C388.684 445.637 391.786 444.993 393.199 442.537C395.493 438.554 397.785 434.569 400.077 430.586C400.738 429.441 400.941 427.955 400.588 426.676C400.266 425.498 399.356 424.223 398.26 423.643C395.844 422.364 392.743 423.005 391.328 425.464" fill="#00AFA9"/><path id="Fill 26" fill-rule="evenodd" clip-rule="evenodd" d="M421.304 343.218C417.033 344.905 412.763 346.594 408.491 348.279C407.215 348.785 406.178 349.345 405.454 350.545C404.815 351.601 404.545 353.156 404.941 354.343C405.34 355.533 406.102 356.684 407.278 357.285C408.404 357.862 409.957 358.27 411.193 357.784C415.465 356.095 419.737 354.408 424.007 352.719C425.283 352.214 426.32 351.655 427.044 350.456C427.683 349.4 427.953 347.843 427.557 346.659C427.16 345.468 426.398 344.317 425.22 343.714C424.094 343.137 422.543 342.729 421.304 343.218" fill="#00AFA9"/><path id="Fill 28" fill-rule="evenodd" clip-rule="evenodd" d="M386.782 219.964C387.375 225.882 389.203 231.607 392.545 236.553C393.273 237.63 394.211 238.478 395.49 238.833C396.669 239.16 398.24 239.013 399.286 238.333C401.405 236.957 402.606 233.84 401.054 231.546C399.915 229.857 398.949 228.069 398.157 226.192L398.654 227.376C397.629 224.886 396.927 222.288 396.57 219.617C396.629 220.056 396.689 220.496 396.748 220.935C396.706 220.611 396.669 220.288 396.637 219.964C396.503 218.615 396.178 217.446 395.195 216.456C394.339 215.596 392.938 214.95 391.71 215.003C390.434 215.061 389.114 215.481 388.225 216.456C387.393 217.369 386.654 218.678 386.782 219.964" fill="#00AFA9"/><path id="Fill 30" fill-rule="evenodd" clip-rule="evenodd" d="M519.006 212.782C521.423 211.823 523.785 210.732 526.002 209.36C528.206 207.993 530.286 206.391 532.219 204.656C533.142 203.828 533.679 202.289 533.679 201.073C533.679 199.828 533.136 198.344 532.219 197.488C531.27 196.602 530.021 195.941 528.693 196.004C527.325 196.065 526.2 196.562 525.169 197.488C524.549 198.042 523.912 198.577 523.258 199.094C523.595 198.828 523.932 198.565 524.267 198.299C521.792 200.232 519.094 201.837 516.224 203.082C516.621 202.912 517.018 202.742 517.415 202.571C517.064 202.721 516.711 202.865 516.356 203.007C515.107 203.502 514.076 204.12 513.376 205.337C512.75 206.422 512.484 208.023 512.873 209.242C513.262 210.469 514.01 211.651 515.163 212.271C516.28 212.871 517.778 213.269 519.006 212.782" fill="#00AFA9"/><path id="Fill 32" fill-rule="evenodd" clip-rule="evenodd" d="M612.225 167.719C612.18 167.74 612.134 167.761 612.089 167.78C612.481 167.603 612.873 167.427 613.266 167.25C611.841 167.887 610.355 168.313 608.825 168.534C609.261 168.471 609.699 168.408 610.134 168.347C608.95 168.507 607.759 168.54 606.569 168.444C605.367 168.345 603.914 169.097 603.085 169.982C602.231 170.894 601.587 172.388 601.642 173.698C601.699 175.055 602.119 176.463 603.085 177.411C603.418 177.684 603.751 177.959 604.082 178.233C604.85 178.708 605.68 178.947 606.569 178.951C608.406 179.098 610.219 178.895 612.034 178.573C613.851 178.252 615.51 177.564 617.199 176.791C617.773 176.461 618.234 176.009 618.581 175.438C619.016 174.931 619.31 174.334 619.462 173.651C619.787 172.395 619.641 170.72 618.967 169.602C618.287 168.482 617.278 167.494 616.021 167.189C615.585 167.126 615.148 167.063 614.712 167C613.823 167.004 612.994 167.242 612.225 167.719" fill="#00AFA9"/><path id="Fill 34" fill-rule="evenodd" clip-rule="evenodd" d="M667.524 268.037C667.22 271.013 666.917 273.987 666.613 276.963C666.488 278.169 667.263 279.699 668.085 280.523C668.958 281.397 670.388 282.053 671.641 281.997C672.94 281.938 674.29 281.509 675.197 280.523C675.458 280.182 675.72 279.842 675.981 279.504C676.438 278.719 676.665 277.873 676.669 276.963C676.973 273.987 677.276 271.013 677.58 268.037C677.703 266.829 676.93 265.301 676.108 264.475C675.235 263.603 673.805 262.947 672.552 263.003C671.253 263.06 669.903 263.489 668.996 264.475C668.735 264.816 668.473 265.156 668.21 265.496C667.755 266.281 667.526 267.127 667.524 268.037" fill="#00AFA9"/><path id="Fill 36" fill-rule="evenodd" clip-rule="evenodd" d="M710.262 359.692C709.417 363.669 708.573 367.646 707.726 371.62C707.442 372.96 707.522 374.306 708.257 375.514C708.897 376.563 710.15 377.561 711.403 377.836C712.751 378.131 714.265 378.066 715.461 377.327C716.569 376.642 717.607 375.591 717.88 374.306C718.725 370.331 719.569 366.354 720.414 362.378C720.698 361.04 720.62 359.692 719.883 358.486C719.245 357.437 717.992 356.439 716.737 356.164C715.389 355.869 713.877 355.934 712.681 356.673C711.572 357.36 710.533 358.409 710.262 359.692" fill="#00AFA9"/><path id="Fill 38" fill-rule="evenodd" clip-rule="evenodd" d="M645.274 424.729L651.387 434.463C652.09 435.58 653.087 436.467 654.347 436.827C655.534 437.166 657.114 437.014 658.166 436.308C659.224 435.601 660.155 434.545 660.443 433.235C660.73 431.922 660.673 430.432 659.943 429.27C657.904 426.028 655.867 422.783 653.828 419.539C653.127 418.42 652.13 417.535 650.868 417.173C649.683 416.833 648.103 416.988 647.051 417.691C645.993 418.401 645.062 419.454 644.774 420.765C644.487 422.078 644.544 423.567 645.274 424.729" fill="#00AFA9"/><path id="Fill 40" fill-rule="evenodd" clip-rule="evenodd" d="M518.104 425.415C515.386 429.891 512.478 434.254 509.386 438.5C508.654 439.505 508.541 441.193 508.866 442.334C509.196 443.488 510.12 444.74 511.236 445.307C512.432 445.918 513.882 446.225 515.209 445.809C516.547 445.391 517.481 444.633 518.29 443.524C521.384 439.28 524.292 434.913 527.008 430.437C528.373 428.192 527.618 424.883 525.158 423.632C522.685 422.37 519.56 423.016 518.104 425.415" fill="#00AFA9"/><path id="Fill 42" fill-rule="evenodd" clip-rule="evenodd" d="M574.185 489.589C578.04 492.568 581.895 495.548 585.75 498.527C586.868 499.39 587.941 500 589.432 500C590.709 500 592.236 499.451 593.115 498.527C594.025 497.569 594.702 496.309 594.639 494.969C594.581 493.723 594.17 492.228 593.115 491.411C589.259 488.432 585.404 485.454 581.549 482.475C580.431 481.61 579.356 481 577.867 481C576.59 481 575.064 481.549 574.185 482.475C573.275 483.433 572.598 484.691 572.66 486.031C572.716 487.279 573.129 488.774 574.185 489.589" fill="#00AFA9"/><path id="Fill 44" fill-rule="evenodd" clip-rule="evenodd" d="M513.822 146.252C514.791 151.3 516.77 156.23 519.517 160.566C520.197 161.64 521.215 162.493 522.453 162.835C523.628 163.159 525.194 163.013 526.238 162.337C528.405 160.936 529.476 157.915 528 155.585C526.878 153.812 525.906 151.954 525.084 150.021C525.249 150.414 525.414 150.809 525.58 151.2C524.56 148.759 523.795 146.226 523.296 143.628C523.074 142.467 522.023 141.256 521.038 140.678C519.987 140.058 518.434 139.795 517.253 140.18C516.065 140.565 514.919 141.306 514.318 142.447C513.673 143.673 513.561 144.887 513.822 146.252" fill="white"/><path id="Fill 46" fill-rule="evenodd" clip-rule="evenodd" d="M676.143 215.501L668.051 222.268C667.568 222.73 667.228 223.278 667.028 223.913C666.718 224.522 666.575 225.177 666.603 225.882C666.603 227.136 667.141 228.636 668.051 229.499C668.993 230.393 670.231 231.056 671.548 230.996C671.985 230.935 672.425 230.876 672.862 230.814C673.7 230.571 674.426 230.131 675.044 229.499L683.138 222.732C683.619 222.27 683.961 221.722 684.159 221.086C684.469 220.478 684.612 219.821 684.586 219.118C684.586 217.862 684.046 216.364 683.138 215.501C682.194 214.607 680.958 213.943 679.641 214.004C679.201 214.065 678.764 214.125 678.325 214.186C677.488 214.429 676.761 214.867 676.143 215.501" fill="white"/><path id="Fill 48" fill-rule="evenodd" clip-rule="evenodd" d="M648.277 476.523C649.687 478.522 651.095 480.522 652.505 482.521C652.812 483.105 653.231 483.57 653.763 483.924C654.235 484.366 654.788 484.663 655.422 484.817C656.073 485.025 656.721 485.057 657.369 484.905C658.02 484.877 658.625 484.679 659.185 484.314C660.228 483.626 661.144 482.601 661.429 481.328C661.486 480.886 661.544 480.442 661.603 479.999C661.601 479.097 661.378 478.256 660.937 477.478C659.527 475.48 658.117 473.479 656.707 471.481C656.401 470.897 655.983 470.429 655.45 470.076C654.979 469.636 654.426 469.336 653.79 469.182C653.142 468.974 652.493 468.944 651.843 469.092C651.195 469.124 650.589 469.32 650.029 469.686C648.986 470.375 648.068 471.399 647.785 472.672C647.727 473.115 647.668 473.559 647.611 474.001C647.613 474.902 647.836 475.742 648.277 476.523" fill="white"/><path id="Fill 50" fill-rule="evenodd" clip-rule="evenodd" d="M449.533 471.537C449.206 472.02 448.869 472.498 448.521 472.965C448.778 472.62 449.034 472.275 449.293 471.933C447.516 474.303 445.465 476.44 443.181 478.292C442.702 478.753 442.361 479.301 442.163 479.932C441.854 480.539 441.712 481.194 441.737 481.898C441.737 483.148 442.276 484.643 443.181 485.503C444.122 486.395 445.354 487.055 446.668 486.996C447.105 486.935 447.541 486.876 447.979 486.813C448.813 486.572 449.539 486.134 450.154 485.503C453.227 483.009 455.814 479.991 458.047 476.683C458.408 476.097 458.603 475.467 458.633 474.788C458.779 474.111 458.751 473.434 458.544 472.757C458.23 471.574 457.345 470.291 456.28 469.71C455.134 469.084 453.748 468.77 452.48 469.196L451.302 469.71C450.561 470.16 449.971 470.77 449.533 471.537" fill="white"/><path id="Fill 52" fill-rule="evenodd" clip-rule="evenodd" d="M414.75 392.095V404.905C414.75 407.569 417.049 410.12 419.747 409.996C422.453 409.871 424.744 407.76 424.744 404.905V392.095C424.744 389.431 422.445 386.88 419.747 387.004C417.041 387.129 414.75 389.24 414.75 392.095" fill="white"/><path id="Fill 54" fill-rule="evenodd" clip-rule="evenodd" d="M411.762 188.989C411.76 193.664 411.756 198.338 411.752 203.011C411.752 205.619 414.05 208.117 416.744 207.996C419.452 207.876 421.736 205.807 421.736 203.011C421.74 198.338 421.744 193.664 421.746 188.989C421.748 186.381 419.448 183.883 416.754 184.004C414.048 184.126 411.764 186.195 411.762 188.989" fill="white"/><path id="Fill 56" fill-rule="evenodd" clip-rule="evenodd" d="M361.305 290.179C357.431 291.308 353.67 292.937 350.311 295.082C349.201 295.791 348.328 296.702 347.962 297.946C347.626 299.092 347.778 300.62 348.479 301.64C349.182 302.663 350.229 303.562 351.534 303.842C352.822 304.116 354.341 304.08 355.472 303.357C357.459 302.09 359.569 301.007 361.78 300.122C361.373 300.283 360.966 300.444 360.559 300.605C361.694 300.158 362.849 299.763 364.022 299.42C365.276 299.054 366.407 298.291 367.077 297.218C367.719 296.19 367.991 294.678 367.592 293.526C367.194 292.366 366.427 291.248 365.243 290.662C364.049 290.07 362.63 289.792 361.305 290.179" fill="white"/><path id="Fill 58" fill-rule="evenodd" clip-rule="evenodd" d="M635.122 280.577C635.075 280.696 635.027 280.811 634.979 280.929C635.141 280.537 635.303 280.148 635.466 279.758C634.587 281.863 633.447 283.839 632.073 285.65C632.324 285.321 632.575 284.99 632.828 284.66C632.571 284.994 632.309 285.321 632.038 285.642C631.569 286.085 631.234 286.611 631.039 287.218C630.738 287.799 630.599 288.429 630.624 289.103C630.624 290.305 631.149 291.737 632.038 292.563C632.96 293.421 634.167 294.055 635.454 293.996C636.673 293.941 638.049 293.542 638.87 292.563C640.037 291.172 641.14 289.7 642.075 288.136C643.02 286.56 643.752 284.887 644.436 283.178C644.639 282.528 644.666 281.878 644.523 281.226C644.494 280.577 644.303 279.968 643.949 279.408C643.364 278.394 642.214 277.425 641.063 277.159C639.826 276.873 638.439 276.936 637.342 277.652C637.015 277.909 636.691 278.163 636.364 278.418C635.765 279.028 635.352 279.747 635.122 280.577" fill="white"/><path id="Fill 60" fill-rule="evenodd" clip-rule="evenodd" d="M708.187 306.182C704.221 306.782 700.255 307.382 696.289 307.98C695.126 308.157 693.841 309.347 693.275 310.324C692.644 311.417 692.376 313.027 692.767 314.256C693.162 315.49 693.918 316.681 695.083 317.304C695.485 317.475 695.886 317.647 696.289 317.818C697.182 318.061 698.075 318.061 698.969 317.818L710.866 316.018C712.03 315.843 713.314 314.651 713.879 313.674C714.512 312.583 714.78 310.971 714.387 309.744C713.994 308.51 713.238 307.321 712.07 306.696C711.669 306.525 711.268 306.353 710.866 306.182C709.973 305.939 709.08 305.939 708.187 306.182" fill="white"/><path id="Fill 62" fill-rule="evenodd" clip-rule="evenodd" d="M643.624 375.013C643.801 377.118 644.163 379.214 644.979 381.176C645.448 382.302 645.927 383.423 646.555 384.473C647.208 385.561 648.004 386.555 648.816 387.533C649.592 388.471 651.275 389 652.455 389C653.717 389 655.224 388.455 656.092 387.533C656.994 386.579 657.661 385.326 657.601 383.99C657.539 383.547 657.478 383.102 657.416 382.659C657.173 381.811 656.73 381.072 656.092 380.449C655.996 380.33 655.899 380.212 655.804 380.092C656.072 380.43 656.341 380.769 656.609 381.106C655.761 380.022 655.059 378.845 654.505 377.595C654.678 377.993 654.851 378.394 655.024 378.791C654.439 377.442 654.038 376.033 653.83 374.583C653.892 375.027 653.954 375.472 654.013 375.913C653.974 375.615 653.941 375.314 653.916 375.013C653.803 373.665 653.418 372.454 652.41 371.47C651.516 370.602 650.053 369.949 648.77 370.003C647.438 370.061 646.059 370.486 645.131 371.47C644.252 372.404 643.515 373.701 643.624 375.013" fill="white"/><path id="Fill 64" fill-rule="evenodd" clip-rule="evenodd" d="M697.663 424.444C696.189 426.831 694.715 429.215 693.24 431.602C692.89 432.163 692.701 432.772 692.672 433.424C692.531 434.079 692.559 434.731 692.758 435.383C693.064 436.522 693.921 437.757 694.956 438.317C696.065 438.92 697.409 439.221 698.639 438.812C699.849 438.41 700.807 437.671 701.496 436.557C702.97 434.171 704.444 431.786 705.919 429.4C706.269 428.836 706.458 428.229 706.487 427.575C706.628 426.923 706.602 426.271 706.401 425.619C706.097 424.479 705.238 423.244 704.203 422.684C703.094 422.081 701.75 421.779 700.52 422.187C699.31 422.59 698.352 423.33 697.663 424.444" fill="white"/><path id="Fill 66" fill-rule="evenodd" clip-rule="evenodd" d="M460.563 231.506C458.837 234.474 457.112 237.441 455.388 240.409C454.737 241.527 454.556 243.04 454.892 244.289C455.205 245.458 456.088 246.725 457.153 247.299C458.294 247.917 459.677 248.228 460.942 247.807C462.168 247.402 463.211 246.646 463.882 245.492C465.607 242.526 467.333 239.557 469.056 236.589C469.707 235.473 469.888 233.96 469.552 232.711C469.239 231.542 468.356 230.275 467.291 229.701C466.15 229.083 464.767 228.772 463.502 229.193C462.276 229.598 461.233 230.354 460.563 231.506" fill="white"/><path id="Fill 68" fill-rule="evenodd" clip-rule="evenodd" d="M573.992 420.642C572.278 418.238 570.565 415.831 568.851 413.424C568.539 412.856 568.117 412.398 567.58 412.052C567.102 411.622 566.543 411.329 565.9 411.178C565.244 410.975 564.589 410.946 563.934 411.09C563.276 411.121 562.664 411.315 562.098 411.671C561.043 412.343 560.116 413.346 559.829 414.592C559.549 415.811 559.571 417.295 560.327 418.357C562.04 420.763 563.754 423.17 565.469 425.575C565.779 426.145 566.202 426.603 566.741 426.949C567.217 427.379 567.775 427.672 568.419 427.823C569.074 428.024 569.73 428.055 570.387 427.909C571.042 427.879 571.654 427.688 572.221 427.33C573.275 426.656 574.203 425.655 574.489 424.409C574.77 423.19 574.75 421.706 573.992 420.642" fill="white"/></g></g></svg>