<svg viewBox="198 36.82038834951459 468 287.3786407766991" fill="none" xmlns="http://www.w3.org/2000/svg" xmlns:xlink="http://www.w3.org/1999/xlink" overflow="visible" width="468px" height="287.3786407766991px"><g id="Master/Background/Worm Squeaky"><g id="Background" transform="scale(1 1)"><g id="Background/Squeaky"><g id="Background"><path id="Fill 1" fill-rule="evenodd" clip-rule="evenodd" d="M563.061 65.4922C572.241 58.9222 587.717 60.2562 593.756 66.2502C606.963 79.3592 596.864 103.412 606.293 119.455C615.181 134.579 636.821 135.886 649.978 147.487C663.959 159.815 664.667 184.221 651.425 197.338C644.793 203.907 635.832 207.452 627.924 212.411C620.016 217.371 612.546 224.91 612.253 234.24C611.949 243.911 619.437 253.602 615.827 262.58C614.242 266.521 610.791 269.352 607.474 272.008C595.807 281.346 582.446 291.22 567.579 289.704C557.711 288.699 548.602 282.66 538.695 283.17C516.219 284.328 507.233 316.03 485.595 322.218C475.222 325.184 463.685 321.299 455.717 314.025C447.749 306.753 442.985 296.531 440.333 286.074C438.287 278.006 437.13 269.147 431.453 263.06C419.745 250.506 394.085 255.188 387.487 239.341C382.228 226.708 394.581 214.451 403.41 203.997C410.306 195.832 415.806 184.903 412.596 174.71C409.311 164.279 398.213 158.406 392.644 148.995C386.293 138.259 388.665 123.162 398.002 114.891C411.242 103.164 435.182 104.55 442.697 88.5392C446.101 81.2852 444.68 72.7052 446.672 64.9432C450.051 51.7752 464.455 42.4812 477.845 44.8302C490.821 47.1052 500.134 58.0592 510.225 66.5302C510.225 66.5302 530.792 88.5852 563.061 65.4922" fill="#E7ECF7"/><path id="Combined Shape" fill-rule="evenodd" clip-rule="evenodd" d="M311.044 83.916C310.295 95.403 305.167 107.238 295.616 114.089C286.724 120.467 274.568 122.655 264.65 117.305C261.911 115.826 259.458 113.877 257.433 111.591L257.443 111.567C266.996 106.138 274.498 96.5657 274.334 85.162C274.291 82.222 273.817 78.803 272.335 76.205C270.916 73.717 268.208 72.284 265.372 72.293C259.541 72.311 254.349 76.405 251.201 80.999C248.037 85.617 246.416 91.437 246.473 97.016C246.518 101.474 247.757 105.732 249.876 109.56L249.871 109.566C243.992 111.65 237.566 111.839 231.684 108.867C227.653 106.83 224.348 103.738 222.854 99.799C221.368 95.881 221.149 92.174 221.627 87.949C221.771 86.6847 222.046 85.2822 222.413 83.8629H222.554L222.628 83.782C226.674 84.3227 230.829 83.7629 234.627 82.053C239.86 79.696 245.526 72.737 241.586 66.958C237.925 61.59 230.182 63.376 225.99 67.042C222.911 69.735 220.873 73.574 219.335 77.301C219.271 77.4555 219.208 77.6108 219.146 77.7668C216.961 76.886 214.973 75.5378 213.378 73.723C210.297 70.219 209.186 65.001 210.133 60.483C210.615 58.184 211.563 55.985 213.089 54.182C213.96 53.151 214.099 51.657 213.089 50.646C212.194 49.752 210.429 49.61 209.553 50.646C201.183 60.543 204.46 76.8 216.506 82.068C216.851 82.2187 217.198 82.3606 217.548 82.4937L217.548 82.4937L217.587 82.5269C215.599 90.1781 215.79 98.781 220.175 105.408C223.642 110.647 229.505 114.188 235.583 115.535C241.385 116.819 247.269 116.016 252.71 113.849L252.773 113.871C261.123 124.306 275.372 127.684 287.861 123.581C301.364 119.145 310.86 107.524 314.44 93.995C315.312 90.703 315.823 87.312 316.044 83.916C316.132 82.567 314.832 81.416 313.544 81.416C312.118 81.416 311.132 82.563 311.044 83.916ZM219.146 77.7668L219.215 77.7943L219.165 77.8074L219.1 77.8844L219.146 77.7668ZM254.474 107.498C254.475 107.498 254.476 107.497 254.477 107.496C254.478 107.497 254.478 107.498 254.479 107.499L254.474 107.498ZM260.219 103.551C258.46 105.038 256.527 106.375 254.477 107.496C252.009 103.212 250.892 98.2283 251.743 93.138C252.484 88.702 254.325 84.324 257.522 81.133C258.948 79.708 260.702 78.504 262.558 77.873C263.596 77.52 264.797 77.157 265.907 77.31C266.757 77.426 267.22 77.735 267.636 78.194C267.703 78.2678 267.748 78.3147 267.776 78.3419L267.804 78.384C267.894 78.5193 267.974 78.6578 268.054 78.7975L268.11 78.896C268.13 78.9312 268.157 78.9866 268.179 79.031C268.272 79.2757 268.353 79.5268 268.433 79.7742L268.459 79.854C268.876 81.146 269.17 82.482 269.273 83.837C269.486 86.623 269.125 89.361 268.279 92.021C266.81 96.645 263.887 100.451 260.219 103.551ZM268.179 79.031C268.146 78.9437 268.111 78.8572 268.074 78.772C268.237 79.1511 268.231 79.1381 268.189 79.0507L268.179 79.031ZM267.74 78.249C267.683 78.1757 267.639 78.1333 267.776 78.3419C267.865 78.4262 267.796 78.3222 267.74 78.249ZM224.043 78.9365L224.024 78.9823L223.988 78.9314L224.043 78.9365ZM227.563 72.6601C227.545 72.6846 227.524 72.714 227.498 72.749C226.465 74.152 225.577 75.656 224.81 77.221C224.548 77.7565 224.29 78.3326 224.043 78.9365C224.782 79.0035 225.526 79.025 226.27 79.001C230.566 78.862 236.198 76.912 237.617 72.365C238.163 70.619 237.531 68.972 235.57 68.613C233.664 68.266 231.511 69.188 229.842 70.312L229.825 70.3236C230.02 70.1544 229.911 70.2271 229.808 70.3058C229.705 70.3844 229.608 70.4691 229.825 70.3236L229.8 70.345C229.764 70.3756 229.729 70.4061 229.693 70.4365L229.693 70.4366C229.591 70.5232 229.489 70.6095 229.389 70.699C229.155 70.91 228.928 71.131 228.708 71.356C228.452 71.621 228.206 71.894 227.967 72.174C227.854 72.306 227.744 72.44 227.634 72.5739L227.634 72.574L227.634 72.574C227.606 72.6084 227.583 72.6368 227.563 72.6601ZM227.559 72.648C227.493 72.733 227.429 72.822 227.563 72.6601C227.693 72.482 227.625 72.563 227.559 72.648Z" fill="#F0D3E6"/></g></g></g></g></svg>