<svg viewBox="0 -1.3321167883211729 1065.9999999999998 732.6642335766425" fill="none" xmlns="http://www.w3.org/2000/svg" xmlns:xlink="http://www.w3.org/1999/xlink" overflow="visible" width="1065.9999999999998px" height="732.6642335766425px"><g id="Master/Stickers/Wormies in Space"><rect width="1066" height="730" fill="white"/><g id="Group 101"><g id="Group 100"><g id="Group 3"><path id="Fill 1" fill-rule="evenodd" clip-rule="evenodd" d="M633.303 261.36C629.418 252.864 625.329 244.089 618.255 237.991C611.178 231.893 600.219 229.248 592.412 234.376C578.334 243.625 584.201 268.971 570.148 278.257C561.895 283.711 550.955 280.707 541.499 277.804C532.042 274.903 520.691 272.628 513.138 279.02C505.517 285.47 505.966 297.241 507.868 307.046C509.769 316.852 512.305 327.716 507.147 336.269C501.891 344.981 490.781 347.739 482.385 353.484C472.365 360.339 465.971 372.517 466.864 384.63C467.757 396.743 476.325 408.155 487.961 411.617C497.137 414.347 508.187 412.686 515.238 419.163C520.562 424.054 521.641 432.132 520.662 439.296C519.682 446.462 517.015 453.322 516.137 460.499C514.85 471.011 517.794 482.289 525.233 489.822C532.671 497.356 544.814 500.373 554.395 495.877C562.82 491.922 568.795 482.876 577.994 481.47C589.527 479.708 598.649 490.6 605.261 500.218C611.871 509.836 621.284 520.599 632.749 518.439C642.062 516.686 647.473 507.163 651.63 498.643C653.888 494.017 656.145 489.39 658.402 484.763C659.479 482.556 660.645 480.243 662.689 478.881C665.217 477.198 668.504 477.34 671.523 477.659C682.236 478.787 692.905 481.362 703.65 480.566C714.392 479.77 725.702 474.701 730.121 464.87C736.318 451.08 727.327 432.643 736.778 420.845C742.292 413.962 751.906 412.393 759.946 408.773C773.363 402.732 783.458 389.247 784.28 374.548C785.101 359.848 775.927 344.806 762.064 339.872C749.476 335.395 734.33 338.825 723.27 331.326C711.738 323.508 709.884 307.668 707.607 293.919C705.332 280.169 699.009 264.171 685.271 261.875C675.907 260.308 667.073 265.971 658.042 268.9C649.011 271.829 636.281 270.03 634.107 260.784" fill="#FFEBC0"/></g><g id="Group 99"><path id="Fill 1_2" fill-rule="evenodd" clip-rule="evenodd" d="M252.531 202.36C248.646 193.864 244.558 185.089 237.483 178.991C230.407 172.893 219.447 170.248 211.64 175.376C197.563 184.625 203.429 209.971 189.377 219.257C181.123 224.711 170.183 221.707 160.727 218.804C151.271 215.903 139.919 213.628 132.366 220.02C124.745 226.47 125.195 238.241 127.096 248.046C128.998 257.852 131.533 268.716 126.375 277.269C121.12 285.981 110.009 288.739 101.613 294.484C91.5932 301.339 85.1991 313.517 86.0925 325.63C86.9859 337.743 95.5534 349.155 107.189 352.617C116.365 355.347 127.416 353.686 134.467 360.163C139.791 365.054 140.869 373.132 139.89 380.296C138.911 387.462 136.244 394.322 135.365 401.499C134.079 412.011 137.023 423.289 144.461 430.822C151.9 438.356 164.043 441.373 173.624 436.877C182.048 432.922 188.024 423.876 197.223 422.47C208.756 420.708 217.878 431.6 224.49 441.218C231.099 450.836 240.513 461.599 251.978 459.439C261.29 457.686 266.701 448.163 270.858 439.643C273.116 435.017 275.373 430.39 277.63 425.763C278.708 423.556 279.874 421.243 281.918 419.881C284.445 418.198 287.732 418.34 290.752 418.659C301.465 419.787 312.134 422.362 322.878 421.566C333.621 420.77 344.931 415.701 349.349 405.87C355.547 392.08 346.556 373.643 356.006 361.845C361.521 354.962 371.135 353.393 379.174 349.773C392.591 343.732 402.687 330.247 403.509 315.548C404.33 300.848 395.155 285.806 381.293 280.872C368.705 276.395 353.559 279.825 342.498 272.326C330.967 264.508 329.112 248.668 326.835 234.919C324.561 221.169 318.237 205.171 304.5 202.875C295.136 201.308 286.301 206.971 277.27 209.9C268.239 212.829 255.509 211.03 253.335 201.784" fill="#F0E0FF"/></g><g id="Group 100_2"><path id="Fill 1_3" fill-rule="evenodd" clip-rule="evenodd" d="M894.322 387.189C891.551 381.129 888.635 374.87 883.588 370.52C878.54 366.17 870.723 364.283 865.154 367.941C855.112 374.539 859.297 392.619 849.273 399.243C843.385 403.133 835.582 400.99 828.836 398.92C822.091 396.85 813.994 395.227 808.606 399.787C803.17 404.387 803.49 412.784 804.847 419.778C806.203 426.773 808.012 434.523 804.333 440.623C800.584 446.838 792.658 448.806 786.669 452.903C779.522 457.793 774.96 466.48 775.598 475.121C776.235 483.761 782.346 491.902 790.647 494.371C797.192 496.318 805.074 495.134 810.104 499.754C813.902 503.243 814.671 509.005 813.973 514.116C813.274 519.227 811.372 524.12 810.745 529.24C809.828 536.738 811.928 544.783 817.234 550.157C822.54 555.531 831.201 557.683 838.036 554.475C844.045 551.655 848.308 545.202 854.87 544.199C863.096 542.942 869.603 550.712 874.32 557.572C879.034 564.433 885.749 572.11 893.928 570.57C900.571 569.319 904.43 562.527 907.395 556.449C909.006 553.149 910.616 549.848 912.226 546.548C912.994 544.973 913.826 543.323 915.285 542.352C917.087 541.152 919.432 541.253 921.586 541.48C929.228 542.285 936.838 544.122 944.503 543.554C952.165 542.986 960.233 539.37 963.385 532.357C967.806 522.521 961.392 509.369 968.133 500.953C972.067 496.044 978.925 494.925 984.66 492.342C994.231 488.033 1001.43 478.414 1002.02 467.929C1002.6 457.443 996.059 446.713 986.171 443.194C977.191 440 966.388 442.447 958.498 437.098C950.272 431.521 948.949 420.222 947.325 410.414C945.702 400.606 941.192 389.195 931.393 387.556C924.713 386.439 918.411 390.479 911.969 392.568C905.527 394.657 896.447 393.374 894.896 386.778" fill="#E0F4FF"/></g><g id="Environment"><g id="Group 53"><path id="Fill 1_4" fill-rule="evenodd" clip-rule="evenodd" d="M409.559 241H387.149C313.853 241 254.436 300.454 254.436 373.794V474.071C254.436 484.094 262.556 492.219 272.573 492.219H524.137C534.153 492.219 542.273 484.094 542.273 474.071V373.794C542.273 300.454 482.855 241 409.559 241" fill="#E6F8FB"/><path id="Fill 3" fill-rule="evenodd" clip-rule="evenodd" d="M512.045 428.372C510.81 417.93 510.229 407.497 509.742 397.068C509.51 391.853 509.289 386.64 509.339 381.422C509.465 376.083 509.385 371.305 508.85 366.225C508.323 361.21 507.493 356.205 506.281 351.276C505.062 346.351 503.553 341.478 501.717 336.711C498.089 327.15 493.099 318.074 487.177 309.545L487.169 309.535C486.868 309.099 486.975 308.5 487.411 308.198C487.811 307.92 488.349 307.989 488.667 308.34C495.768 316.134 501.921 324.951 506.57 334.587C511.239 344.202 514.651 354.535 516.334 365.224C516.583 366.554 516.737 367.898 516.91 369.241L517.165 371.257L517.342 373.316C517.644 376.126 517.585 378.646 517.628 381.286C517.677 386.517 517.457 391.752 517.224 396.985C516.738 407.453 516.157 417.918 514.921 428.372C514.827 429.167 514.107 429.735 513.314 429.641C512.635 429.56 512.121 429.022 512.045 428.372" fill="white"/><path id="Fill 5" fill-rule="evenodd" clip-rule="evenodd" d="M254.437 472.539C186.323 483.866 149.314 530.375 149.314 530.375H647.396C647.396 530.375 610.389 483.866 542.275 472.539H254.437Z" fill="#A8E3FF"/><path id="Fill 7" fill-rule="evenodd" clip-rule="evenodd" d="M253.756 614.512C201.671 598.069 149.314 562.308 149.314 562.308H647.396C647.396 562.308 595.04 598.069 542.955 614.512C530.915 618.313 518.342 620.144 505.716 620.144H290.994C278.369 620.144 265.796 618.313 253.756 614.512" fill="#A8E3FF"/><g id="Group 11"><path id="Fill 9" fill-rule="evenodd" clip-rule="evenodd" d="M647.396 562.308C647.396 562.308 659.546 548.287 647.396 530.375H149.314C149.314 530.375 137.164 544.396 149.314 562.308H647.396Z" fill="#00AFA9"/></g><path id="Fill 12" fill-rule="evenodd" clip-rule="evenodd" d="M519.919 472.539C519.919 472.539 570.361 489.181 605.147 530.375H530.757C530.757 530.375 519.671 493.844 498.76 472.531L519.919 472.539Z" fill="#FFF383"/><path id="Fill 14" fill-rule="evenodd" clip-rule="evenodd" d="M272.706 472.539C272.706 472.539 222.265 489.181 187.479 530.375H261.868C261.868 530.375 272.953 493.844 293.866 472.531L272.706 472.539Z" fill="#FFF383"/><path id="Fill 16" fill-rule="evenodd" clip-rule="evenodd" d="M614.752 546.529C614.752 553.789 608.869 559.675 601.614 559.675C594.358 559.675 588.477 553.789 588.477 546.529C588.477 539.269 594.358 533.383 601.614 533.383C608.869 533.383 614.752 539.269 614.752 546.529" fill="#F1758E"/><path id="Fill 18" fill-rule="evenodd" clip-rule="evenodd" d="M513.124 546.529C513.124 553.789 507.241 559.675 499.986 559.675C492.73 559.675 486.848 553.789 486.848 546.529C486.848 539.269 492.73 533.383 499.986 533.383C507.241 533.383 513.124 539.269 513.124 546.529" fill="#F1758E"/><path id="Fill 20" fill-rule="evenodd" clip-rule="evenodd" d="M411.492 546.529C411.492 553.789 405.61 559.675 398.354 559.675C391.099 559.675 385.217 553.789 385.217 546.529C385.217 539.269 391.099 533.383 398.354 533.383C405.61 533.383 411.492 539.269 411.492 546.529" fill="#F1758E"/><path id="Fill 22" fill-rule="evenodd" clip-rule="evenodd" d="M309.864 546.529C309.864 553.789 303.982 559.675 296.726 559.675C289.47 559.675 283.588 553.789 283.588 546.529C283.588 539.269 289.47 533.383 296.726 533.383C303.982 533.383 309.864 539.269 309.864 546.529" fill="#F1758E"/><path id="Fill 24" fill-rule="evenodd" clip-rule="evenodd" d="M208.232 546.529C208.232 553.789 202.351 559.675 195.094 559.675C187.84 559.675 181.957 553.789 181.957 546.529C181.957 539.269 187.84 533.383 195.094 533.383C202.351 533.383 208.232 539.269 208.232 546.529" fill="#F1758E"/><path id="Fill 26" fill-rule="evenodd" clip-rule="evenodd" d="M610.743 546.529C610.743 551.574 606.656 555.664 601.614 555.664C596.572 555.664 592.484 551.574 592.484 546.529C592.484 541.484 596.572 537.394 601.614 537.394C606.656 537.394 610.743 541.484 610.743 546.529" fill="#FFF383"/><path id="Fill 28" fill-rule="evenodd" clip-rule="evenodd" d="M509.115 546.529C509.115 551.574 505.027 555.664 499.985 555.664C494.943 555.664 490.855 551.574 490.855 546.529C490.855 541.484 494.943 537.394 499.985 537.394C505.027 537.394 509.115 541.484 509.115 546.529" fill="#FFF383"/><path id="Fill 30" fill-rule="evenodd" clip-rule="evenodd" d="M407.484 546.529C407.484 551.574 403.396 555.664 398.354 555.664C393.312 555.664 389.225 551.574 389.225 546.529C389.225 541.484 393.312 537.394 398.354 537.394C403.396 537.394 407.484 541.484 407.484 546.529" fill="#FFF383"/><path id="Fill 32" fill-rule="evenodd" clip-rule="evenodd" d="M305.855 546.529C305.855 551.574 301.767 555.664 296.725 555.664C291.683 555.664 287.596 551.574 287.596 546.529C287.596 541.484 291.683 537.394 296.725 537.394C301.767 537.394 305.855 541.484 305.855 546.529" fill="#FFF383"/><path id="Fill 34" fill-rule="evenodd" clip-rule="evenodd" d="M204.224 546.529C204.224 551.574 200.136 555.664 195.094 555.664C190.052 555.664 185.965 551.574 185.965 546.529C185.965 541.484 190.052 537.394 195.094 537.394C200.136 537.394 204.224 541.484 204.224 546.529" fill="#FFF383"/><path id="Fill 36" fill-rule="evenodd" clip-rule="evenodd" d="M607.047 546.529C607.047 549.531 604.615 551.964 601.615 551.964C598.615 551.964 596.184 549.531 596.184 546.529C596.184 543.528 598.615 541.094 601.615 541.094C604.615 541.094 607.047 543.528 607.047 546.529" fill="#FFCC37"/><path id="Fill 38" fill-rule="evenodd" clip-rule="evenodd" d="M505.416 546.529C505.416 549.531 502.984 551.964 499.983 551.964C496.984 551.964 494.553 549.531 494.553 546.529C494.553 543.528 496.984 541.094 499.983 541.094C502.984 541.094 505.416 543.528 505.416 546.529" fill="#FFCC37"/><path id="Fill 40" fill-rule="evenodd" clip-rule="evenodd" d="M403.786 546.529C403.786 549.531 401.355 551.964 398.355 551.964C395.354 551.964 392.924 549.531 392.924 546.529C392.924 543.528 395.354 541.094 398.355 541.094C401.355 541.094 403.786 543.528 403.786 546.529" fill="#FFCC37"/><path id="Fill 42" fill-rule="evenodd" clip-rule="evenodd" d="M302.156 546.529C302.156 549.531 299.724 551.964 296.725 551.964C293.725 551.964 291.293 549.531 291.293 546.529C291.293 543.528 293.725 541.094 296.725 541.094C299.724 541.094 302.156 543.528 302.156 546.529" fill="#FFCC37"/><path id="Fill 44" fill-rule="evenodd" clip-rule="evenodd" d="M200.528 546.529C200.528 549.531 198.095 551.964 195.095 551.964C192.096 551.964 189.664 549.531 189.664 546.529C189.664 543.528 192.096 541.094 195.095 541.094C198.095 541.094 200.528 543.528 200.528 546.529" fill="#FFCC37"/><path id="Fill 46" fill-rule="evenodd" clip-rule="evenodd" d="M498.761 472.531C498.761 472.531 517.403 489.152 530.758 530.375H510.234C510.234 530.375 503.782 499.712 488.689 472.539L498.761 472.531Z" fill="#A8E3FF"/><path id="Fill 48" fill-rule="evenodd" clip-rule="evenodd" d="M272.706 472.539C272.706 472.539 224.348 488.392 187.479 530.375H149.314C149.314 530.375 185.269 483.74 254.437 472.539H272.706Z" fill="#A8E3FF"/><g id="Group 52"><path id="Fill 50" fill-rule="evenodd" clip-rule="evenodd" d="M512.234 604.499H281.756C274.917 604.499 269.371 610.047 269.371 616.89C269.371 617.366 269.404 617.834 269.457 618.296C276.561 619.522 283.767 620.144 290.994 620.144H505.717C511.998 620.144 518.266 619.689 524.461 618.765C524.555 618.152 524.619 617.53 524.619 616.89C524.619 610.047 519.074 604.499 512.234 604.499" fill="#FFCC37"/></g></g></g><g id="Environment_2"><g id="Group 53_2"><path id="Fill 1_5" fill-rule="evenodd" clip-rule="evenodd" d="M774.235 177H757.735C703.771 177 660.025 220.773 660.025 274.769V348.598C660.025 355.977 666.004 361.959 673.379 361.959H858.592C865.967 361.959 871.945 355.977 871.945 348.598V274.769C871.945 220.773 828.199 177 774.235 177" fill="#F8E2F5"/><g id="Group 99_2"><g id="Body/Mol" transform="translate(717.666 209.782) scale(0.9147602228017954 0.9153094096697839)"><g id="Body/Mol/Yellow"><g id="Group 11"><g id="Group 3"><path id="Fill 1" fill-rule="evenodd" clip-rule="evenodd" d="M7.2251 70.6674V268.041H96.5611V70.6674C96.5611 45.9984 76.5621 25.9994 51.8931 25.9994C27.2231 25.9994 7.2251 45.9984 7.2251 70.6674Z" fill="#FFCC37"/></g><path id="Fill 4" fill-rule="evenodd" clip-rule="evenodd" d="M49.7115 71.0883C49.7115 84.8163 38.5835 95.9443 24.8555 95.9443C11.1285 95.9443 0.000488281 84.8163 0.000488281 71.0883C0.000488281 57.3603 11.1285 46.2333 24.8555 46.2333C38.5835 46.2333 49.7115 57.3603 49.7115 71.0883" fill="#F9A471"/><g id="Group 8"><path id="Fill 6" fill-rule="evenodd" clip-rule="evenodd" d="M103.786 71.0883C103.786 84.8163 92.6582 95.9443 78.9302 95.9443C65.2032 95.9443 54.0742 84.8163 54.0742 71.0883C54.0742 57.3603 65.2032 46.2333 78.9302 46.2333C92.6582 46.2333 103.786 57.3603 103.786 71.0883" fill="#F9A471"/></g><path id="Fill 9" fill-rule="evenodd" clip-rule="evenodd" d="M7.2251 268.042H96.4911V123.015H7.2251V268.042Z" fill="#ECB11F"/></g></g></g><g id="Eyes/Mol" transform="translate(743.279 268.361) scale(0.9147601837807513 0.9153093973795573)"><g id="Eyes/Mol/Angry"><g id="Group 6"><g id="Group 3"><path id="Fill 1" fill-rule="evenodd" clip-rule="evenodd" d="M8.002 14.8913C7.345 14.8913 6.701 14.5673 6.319 13.9743C5.721 13.0453 5.988 11.8083 6.917 11.2093L11.889 8.0063L7.321 4.6043C6.436 3.9443 6.252 2.6913 6.912 1.8053C7.572 0.919305 8.825 0.736305 9.711 1.3963L15.604 5.7863C16.354 6.3453 16.783 7.2363 16.752 8.1713C16.72 9.1063 16.231 9.96731 15.445 10.4743L9.083 14.5723C8.748 14.7873 8.373 14.8913 8.002 14.8913" fill="#101335"/></g><path id="Fill 4" fill-rule="evenodd" clip-rule="evenodd" d="M38.3497 14.8908C37.9457 14.8908 37.5367 14.7688 37.1837 14.5148L31.3037 10.2878C30.5427 9.7418 30.0987 8.8578 30.1157 7.9218C30.1307 6.9868 30.6047 6.1188 31.3827 5.5988L37.7547 1.3378C38.6737 0.723803 39.9157 0.970803 40.5297 1.8888C41.1427 2.8068 40.8967 4.0488 39.9787 4.6628L34.9797 8.0048L39.5177 11.2668C40.4147 11.9118 40.6197 13.1618 39.9747 14.0578C39.5847 14.6018 38.9717 14.8908 38.3497 14.8908" fill="#101335"/></g></g></g><g id="Mouth/Mol" transform="translate(748.529 281.239) scale(0.8906875409578022 0.9153094518752325)"><g id="Mouth/Mol/Laughing"><path id="Mouth" fill-rule="evenodd" clip-rule="evenodd" d="M19.6689 17.833C14.2649 17.833 9.45993 15.867 6.63793 14.024C3.86293 12.212 3.08293 8.49504 4.89593 5.72004C6.69693 2.95904 10.3879 2.17204 13.1599 3.95204C13.4949 4.16004 19.6749 7.90704 24.9259 4.13004C27.6169 2.19604 31.3649 2.80704 33.3009 5.49704C35.2349 8.18704 34.6229 11.937 31.9339 13.872C27.8859 16.784 23.6169 17.833 19.6689 17.833" fill="white"/></g></g><g id="Hair/Mol" transform="translate(707.604 175) scale(0.9147601759577372 0.9153093858198686)"><g id="Hair/Mol/Mickey Head"><g id="Group 9"><path id="Fill 1" fill-rule="evenodd" clip-rule="evenodd" d="M98.6399 82.2384C90.9879 71.7871 78.1509 64.0038 62.6969 64.0038V64.0038C47.2429 64.0038 34.4059 71.4683 26.7539 82.2384H98.6399Z" fill="#ED6389"/><g id="Group 5"><path id="Fill 3" fill-rule="evenodd" clip-rule="evenodd" d="M107.891 54.7159C107.891 64.1052 100.323 71.7165 90.986 71.7165C81.65 71.7165 74.082 64.1052 74.082 54.7159C74.082 45.3265 81.65 37.7143 90.986 37.7143C100.323 37.7143 107.891 45.3265 107.891 54.7159" fill="#41AFE4"/></g><g id="Group 8"><path id="Fill 6" fill-rule="evenodd" clip-rule="evenodd" d="M51.31 54.7159C51.31 64.1052 43.741 71.7165 34.405 71.7165C25.069 71.7165 17.5 64.1052 17.5 54.7159C17.5 45.3265 25.069 37.7143 34.405 37.7143C43.741 37.7143 51.31 45.3265 51.31 54.7159" fill="#41AFE4"/></g></g></g></g><g id="Clothes/Mol" transform="translate(724.252 322.365) scale(0.9147602123218578 0.915309435700717)"><g id="Clothes/Mol/Purple Sprinkles"><g id="Group 43"><path id="Fill 1" fill-rule="evenodd" clip-rule="evenodd" d="M0 146.073H89.336V11.8H0V146.073Z" fill="#BF62A2"/><g id="Group 42"><path id="Fill 2" fill-rule="evenodd" clip-rule="evenodd" d="M20.365 69.1835C21.574 69.9055 22.993 70.1135 24.36 69.7685L39.331 65.9875C40.696 65.6425 41.845 64.7865 42.567 63.5775C43.289 62.3665 43.498 60.9475 43.151 59.5855C42.807 58.2185 41.95 57.0675 40.74 56.3465C39.531 55.6245 38.113 55.4165 36.748 55.7615L21.775 59.5425C20.41 59.8875 19.261 60.7435 18.539 61.9525C18.045 62.7815 17.792 63.7075 17.792 64.6455C17.792 65.0795 17.846 65.5145 17.955 65.9445C18.299 67.3105 19.155 68.4605 20.365 69.1835" fill="#604299"/><path id="Fill 4" fill-rule="evenodd" clip-rule="evenodd" d="M25.1492 79.2302C23.7402 79.2382 22.4182 79.7962 21.4282 80.7992C20.4472 81.7932 19.9082 83.1072 19.9082 84.5042V84.5372L20.0062 99.9792C20.0262 102.886 22.4082 105.235 25.3122 105.216C26.7212 105.208 28.0422 104.65 29.0332 103.648C30.0142 102.654 30.5532 101.34 30.5532 99.9442V99.9092L30.4552 84.4682C30.4452 83.0602 29.8882 81.7402 28.8862 80.7512C27.8832 79.7612 26.5552 79.2202 25.1492 79.2302" fill="#604299"/><path id="Fill 6" fill-rule="evenodd" clip-rule="evenodd" d="M26.9501 29.7523C24.8871 27.7053 21.5431 27.7163 19.4941 29.7773L8.61008 40.7293C7.59008 41.7563 7.08008 43.1013 7.08008 44.4463C7.08008 45.8023 7.59808 47.1583 8.63408 48.1883C10.6961 50.2363 14.0411 50.2263 16.0921 48.1633L26.9751 37.2123C29.0231 35.1503 29.0131 31.8053 26.9501 29.7523" fill="#604299"/><path id="Fill 8" fill-rule="evenodd" clip-rule="evenodd" d="M85.3316 96.2405C83.9526 97.2755 83.2256 98.8595 83.2256 100.465C83.2256 101.566 83.5696 102.677 84.2796 103.624L89.3256 110.346V95.2575C89.2966 95.2525 89.2706 95.2405 89.2406 95.2365C87.8466 95.0375 86.4576 95.3945 85.3316 96.2405" fill="#604299"/><path id="Fill 10" fill-rule="evenodd" clip-rule="evenodd" d="M83.6247 38.0066C82.3497 38.6066 81.3847 39.6666 80.9077 40.9916C80.6957 41.5796 80.5947 42.1816 80.5947 42.7746C80.5947 44.9346 81.9327 46.9656 84.0787 47.7396L89.3257 49.6316V38.4206L87.6557 37.8186C86.3317 37.3396 84.8997 37.4076 83.6247 38.0066" fill="#604299"/><path id="Fill 12" fill-rule="evenodd" clip-rule="evenodd" d="M87.9391 64.2675L79.0371 76.8855C78.5691 77.5495 78.2671 78.2955 78.1401 79.0755C78.0471 79.6455 78.0491 80.2345 78.1501 80.8215C78.3901 82.2105 79.1571 83.4235 80.3051 84.2315C81.4561 85.0445 82.8551 85.3605 84.2441 85.1215C85.6321 84.8815 86.8441 84.1165 87.6571 82.9645L89.3251 80.5995V62.9285C88.7931 63.2835 88.3191 63.7285 87.9391 64.2675" fill="#604299"/><path id="Fill 14" fill-rule="evenodd" clip-rule="evenodd" d="M64.8698 90.555C65.8598 89.553 66.3858 88.245 66.3898 86.818C66.3808 85.409 65.8238 84.088 64.8208 83.097C63.8188 82.107 62.4898 81.568 61.0828 81.577L45.6448 81.676C42.7478 81.694 40.4028 84.056 40.4038 86.953V86.986C40.4228 89.892 42.8038 92.242 45.7108 92.223L61.1488 92.124C62.5578 92.115 63.8798 91.558 64.8698 90.555" fill="#604299"/><path id="Fill 16" fill-rule="evenodd" clip-rule="evenodd" d="M50.4761 61.7151C50.4761 62.2971 50.5731 62.8891 50.7781 63.4691C51.7481 66.2101 54.7681 67.6511 57.5081 66.6811L72.0621 61.5331C73.3911 61.0651 74.4581 60.1061 75.0651 58.8341C75.6731 57.5611 75.7481 56.1291 75.2781 54.8041C74.3091 52.0631 71.2911 50.6211 68.5501 51.5891L53.9921 56.7371C51.8301 57.5011 50.4761 59.5411 50.4761 61.7151" fill="#604299"/><path id="Fill 18" fill-rule="evenodd" clip-rule="evenodd" d="M10.704 79.8591C11.943 79.1891 12.848 78.0761 13.25 76.7261C13.651 75.3781 13.505 73.9511 12.835 72.7121C12.164 71.4731 11.052 70.5681 9.701 70.1671L0 67.2751V78.2801L6.69 80.2741C8.039 80.6761 9.465 80.5291 10.704 79.8591" fill="#604299"/><path id="Fill 20" fill-rule="evenodd" clip-rule="evenodd" d="M26.7589 14.5121C27.1429 13.6501 27.2639 12.7221 27.1639 11.8081H7.71191L19.7979 17.1881C22.4529 18.3691 25.5749 17.1691 26.7589 14.5121" fill="#604299"/><path id="Fill 22" fill-rule="evenodd" clip-rule="evenodd" d="M70.5031 128.724C70.4291 129.085 70.3911 129.447 70.3911 129.807C70.3911 130.824 70.6871 131.82 71.2581 132.689C72.0321 133.867 73.2171 134.673 74.5961 134.959L89.3261 138.013V127.242L76.7381 124.632C73.8901 124.041 71.0941 125.877 70.5031 128.724" fill="#604299"/><path id="Fill 24" fill-rule="evenodd" clip-rule="evenodd" d="M75.4057 107.109C74.8787 104.25 72.1237 102.352 69.2607 102.88L54.0777 105.687C51.5417 106.157 49.7627 108.379 49.7627 110.872C49.7627 111.189 49.7917 111.509 49.8517 111.832C50.1077 113.217 50.8877 114.42 52.0487 115.218C53.2087 116.016 54.6107 116.315 55.9957 116.058L71.1787 113.252C74.0387 112.722 75.9377 109.968 75.4057 107.109" fill="#604299"/><path id="Fill 26" fill-rule="evenodd" clip-rule="evenodd" d="M56.0441 127.946C54.6791 128.29 53.5291 129.146 52.8071 130.356C52.3131 131.184 52.0601 132.11 52.0601 133.049C52.0601 133.483 52.1141 133.919 52.2231 134.35L55.1811 146.065H66.0591L62.4481 131.765C61.7351 128.948 58.8631 127.235 56.0441 127.946" fill="#604299"/><path id="Fill 28" fill-rule="evenodd" clip-rule="evenodd" d="M65.9114 24.829C65.1044 25.984 64.7954 27.385 65.0414 28.772C65.1964 29.641 65.5564 30.439 66.0884 31.113C66.4064 31.515 66.7844 31.872 67.2164 32.174C68.3704 32.98 69.7694 33.288 71.1554 33.042C72.5434 32.796 73.7524 32.024 74.5584 30.869L83.3974 18.208C84.7904 16.212 84.5894 13.59 83.0914 11.808H75.0594C74.9564 11.93 74.8414 12.039 74.7484 12.172L65.9114 24.829Z" fill="#604299"/><path id="Fill 30" fill-rule="evenodd" clip-rule="evenodd" d="M42.5142 142.065C41.5112 141.075 40.1832 140.535 38.7762 140.544L23.3372 140.644C21.9292 140.652 20.6072 141.21 19.6172 142.213C18.6362 143.207 18.0962 144.521 18.0962 145.92V145.953C18.0962 145.991 18.1072 146.027 18.1082 146.065H44.0552C44.0602 145.971 44.0822 145.88 44.0832 145.785C44.0742 144.377 43.5172 143.055 42.5142 142.065" fill="#604299"/><path id="Fill 32" fill-rule="evenodd" clip-rule="evenodd" d="M38.0672 113.815C36.6752 113.598 35.2832 113.936 34.1452 114.766L21.6742 123.868C20.2612 124.899 19.5112 126.506 19.5112 128.135C19.5112 129.213 19.8402 130.301 20.5232 131.236C22.2372 133.584 25.5412 134.101 27.8922 132.388L40.3652 123.284C42.7122 121.568 43.2282 118.263 41.5142 115.917C40.6832 114.778 39.4592 114.032 38.0672 113.815" fill="#604299"/><path id="Fill 34" fill-rule="evenodd" clip-rule="evenodd" d="M58.6342 11.808H48.6182L51.4612 13.52C53.9202 15 57.1092 14.225 58.6342 11.808" fill="#604299"/><path id="Fill 36" fill-rule="evenodd" clip-rule="evenodd" d="M12.949 118.486C15.031 116.456 15.073 113.11 13.044 111.029L2.267 99.9707C1.619 99.3067 0.832 98.8737 0 98.6257V112.757L5.491 118.391C7.519 120.471 10.863 120.515 12.949 118.486" fill="#604299"/><path id="Fill 38" fill-rule="evenodd" clip-rule="evenodd" d="M44.3443 44.5843C45.0563 47.4033 47.9283 49.1193 50.7513 48.4063C53.5683 47.6933 55.2813 44.8183 54.5713 42.0033L50.7913 27.0343C50.0793 24.2143 47.2073 22.5003 44.3843 23.2123C41.9973 23.8163 40.4033 25.9693 40.4033 28.3263C40.4033 28.7513 40.4553 29.1843 40.5643 29.6153L44.3443 44.5843Z" fill="#604299"/><path id="Fill 40" fill-rule="evenodd" clip-rule="evenodd" d="M10.823 138.06C10.66 136.662 9.961 135.41 8.856 134.537C7.751 133.662 6.371 133.271 4.971 133.435C3.572 133.599 2.321 134.298 1.448 135.403L0 137.235V146.065H6.464L9.721 141.945C10.595 140.839 10.987 139.466 10.823 138.06" fill="#604299"/></g></g></g></g></g><path id="Fill 3_2" fill-rule="evenodd" clip-rule="evenodd" d="M849.689 314.952C848.78 307.264 848.351 299.583 847.993 291.905C847.822 288.065 847.66 284.227 847.697 280.385C847.789 276.455 847.73 272.937 847.337 269.197C846.948 265.504 846.338 261.819 845.445 258.19C844.547 254.564 843.436 250.977 842.085 247.467C839.414 240.428 835.74 233.746 831.38 227.466L831.374 227.459C831.152 227.138 831.231 226.697 831.552 226.474C831.847 226.27 832.242 226.321 832.477 226.579C837.705 232.317 842.235 238.809 845.658 245.903C849.095 252.982 851.607 260.59 852.846 268.46C853.03 269.439 853.143 270.428 853.27 271.417L853.459 272.901L853.589 274.417C853.811 276.486 853.768 278.342 853.799 280.285C853.835 284.137 853.674 287.991 853.502 291.844C853.144 299.551 852.716 307.256 851.806 314.952C851.737 315.538 851.207 315.956 850.623 315.887C850.123 315.827 849.745 315.431 849.689 314.952" fill="white"/><path id="Fill 5_2" fill-rule="evenodd" clip-rule="evenodd" d="M660.025 347.47C609.877 355.81 582.629 390.052 582.629 390.052H949.341C949.341 390.052 922.094 355.81 871.945 347.47H660.025Z" fill="#F06647"/><path id="Fill 7_2" fill-rule="evenodd" clip-rule="evenodd" d="M659.524 451.997C621.176 439.891 582.629 413.562 582.629 413.562H949.341C949.341 413.562 910.793 439.891 872.446 451.997C863.582 454.796 854.325 456.144 845.029 456.144H686.94C677.645 456.144 668.388 454.796 659.524 451.997" fill="#F1758E"/><g id="Group 11_2"><path id="Fill 9_2" fill-rule="evenodd" clip-rule="evenodd" d="M949.34 413.562C949.34 413.562 958.285 403.239 949.34 390.052H582.628C582.628 390.052 573.683 400.375 582.628 413.562H949.34Z" fill="#775CA6"/></g><path id="Fill 12_2" fill-rule="evenodd" clip-rule="evenodd" d="M855.487 347.47C855.487 347.47 892.624 359.723 918.236 390.052H863.466C863.466 390.052 855.304 363.156 839.908 347.464L855.487 347.47Z" fill="#F9A471"/><path id="Fill 14_2" fill-rule="evenodd" clip-rule="evenodd" d="M673.475 347.47C673.475 347.47 636.338 359.723 610.727 390.052H665.496C665.496 390.052 673.657 363.156 689.054 347.464L673.475 347.47Z" fill="#F9A471"/><path id="Fill 16_2" fill-rule="evenodd" clip-rule="evenodd" d="M925.308 401.945C925.308 407.29 920.977 411.624 915.635 411.624C910.293 411.624 905.963 407.29 905.963 401.945C905.963 396.6 910.293 392.266 915.635 392.266C920.977 392.266 925.308 396.6 925.308 401.945" fill="#4D439B"/><path id="Fill 18_2" fill-rule="evenodd" clip-rule="evenodd" d="M850.483 401.945C850.483 407.29 846.152 411.624 840.81 411.624C835.468 411.624 831.137 407.29 831.137 401.945C831.137 396.6 835.468 392.266 840.81 392.266C846.152 392.266 850.483 396.6 850.483 401.945" fill="#4D439B"/><path id="Fill 20_2" fill-rule="evenodd" clip-rule="evenodd" d="M775.658 401.945C775.658 407.29 771.327 411.624 765.985 411.624C760.643 411.624 756.312 407.29 756.312 401.945C756.312 396.6 760.643 392.266 765.985 392.266C771.327 392.266 775.658 396.6 775.658 401.945" fill="#4D439B"/><path id="Fill 22_2" fill-rule="evenodd" clip-rule="evenodd" d="M700.832 401.945C700.832 407.29 696.501 411.624 691.159 411.624C685.817 411.624 681.486 407.29 681.486 401.945C681.486 396.6 685.817 392.266 691.159 392.266C696.501 392.266 700.832 396.6 700.832 401.945" fill="#4D439B"/><path id="Fill 24_2" fill-rule="evenodd" clip-rule="evenodd" d="M626.007 401.945C626.007 407.29 621.677 411.624 616.334 411.624C610.993 411.624 606.662 407.29 606.662 401.945C606.662 396.6 610.993 392.266 616.334 392.266C621.677 392.266 626.007 396.6 626.007 401.945" fill="#4D439B"/><path id="Fill 26_2" fill-rule="evenodd" clip-rule="evenodd" d="M922.355 401.945C922.355 405.66 919.346 408.671 915.634 408.671C911.922 408.671 908.912 405.66 908.912 401.945C908.912 398.231 911.922 395.22 915.634 395.22C919.346 395.22 922.355 398.231 922.355 401.945" fill="#F9A471"/><path id="Fill 28_2" fill-rule="evenodd" clip-rule="evenodd" d="M847.531 401.945C847.531 405.66 844.522 408.671 840.809 408.671C837.097 408.671 834.088 405.66 834.088 401.945C834.088 398.231 837.097 395.22 840.809 395.22C844.522 395.22 847.531 398.231 847.531 401.945" fill="#F9A471"/><path id="Fill 30_2" fill-rule="evenodd" clip-rule="evenodd" d="M772.707 401.945C772.707 405.66 769.697 408.671 765.985 408.671C762.273 408.671 759.264 405.66 759.264 401.945C759.264 398.231 762.273 395.22 765.985 395.22C769.697 395.22 772.707 398.231 772.707 401.945" fill="#F9A471"/><path id="Fill 32_2" fill-rule="evenodd" clip-rule="evenodd" d="M697.881 401.945C697.881 405.66 694.871 408.671 691.159 408.671C687.447 408.671 684.438 405.66 684.438 401.945C684.438 398.231 687.447 395.22 691.159 395.22C694.871 395.22 697.881 398.231 697.881 401.945" fill="#F9A471"/><path id="Fill 34_2" fill-rule="evenodd" clip-rule="evenodd" d="M623.056 401.945C623.056 405.66 620.047 408.671 616.335 408.671C612.623 408.671 609.613 405.66 609.613 401.945C609.613 398.231 612.623 395.22 616.335 395.22C620.047 395.22 623.056 398.231 623.056 401.945" fill="#F9A471"/><path id="Fill 36_2" fill-rule="evenodd" clip-rule="evenodd" d="M919.633 401.945C919.633 404.155 917.842 405.946 915.634 405.946C913.425 405.946 911.635 404.155 911.635 401.945C911.635 399.735 913.425 397.943 915.634 397.943C917.842 397.943 919.633 399.735 919.633 401.945" fill="#FFCC37"/><path id="Fill 38_2" fill-rule="evenodd" clip-rule="evenodd" d="M844.809 401.945C844.809 404.155 843.018 405.946 840.809 405.946C838.601 405.946 836.811 404.155 836.811 401.945C836.811 399.735 838.601 397.943 840.809 397.943C843.018 397.943 844.809 399.735 844.809 401.945" fill="#FFCC37"/><path id="Fill 40_2" fill-rule="evenodd" clip-rule="evenodd" d="M769.984 401.945C769.984 404.155 768.194 405.946 765.985 405.946C763.776 405.946 761.986 404.155 761.986 401.945C761.986 399.735 763.776 397.943 765.985 397.943C768.194 397.943 769.984 399.735 769.984 401.945" fill="#FFCC37"/><path id="Fill 42_2" fill-rule="evenodd" clip-rule="evenodd" d="M695.158 401.945C695.158 404.155 693.367 405.946 691.159 405.946C688.95 405.946 687.16 404.155 687.16 401.945C687.16 399.735 688.95 397.943 691.159 397.943C693.367 397.943 695.158 399.735 695.158 401.945" fill="#FFCC37"/><path id="Fill 44_2" fill-rule="evenodd" clip-rule="evenodd" d="M620.334 401.945C620.334 404.155 618.543 405.946 616.334 405.946C614.126 405.946 612.336 404.155 612.336 401.945C612.336 399.735 614.126 397.943 616.334 397.943C618.543 397.943 620.334 399.735 620.334 401.945" fill="#FFCC37"/><path id="Fill 46_2" fill-rule="evenodd" clip-rule="evenodd" d="M839.908 347.464C839.908 347.464 853.633 359.702 863.465 390.052H848.354C848.354 390.052 843.604 367.476 832.492 347.47L839.908 347.464Z" fill="#F1758E"/><path id="Fill 48_2" fill-rule="evenodd" clip-rule="evenodd" d="M673.476 347.47C673.476 347.47 637.873 359.142 610.727 390.052H582.629C582.629 390.052 609.1 355.717 660.025 347.47H673.476Z" fill="#F1758E"/><g id="Group 52_2"><path id="Fill 50_2" fill-rule="evenodd" clip-rule="evenodd" d="M849.827 444.626H680.138C675.103 444.626 671.02 448.711 671.02 453.749C671.02 454.099 671.044 454.444 671.083 454.784C676.313 455.687 681.619 456.145 686.939 456.145H845.029C849.653 456.145 854.268 455.81 858.829 455.129C858.898 454.678 858.945 454.22 858.945 453.749C858.945 448.711 854.863 444.626 849.827 444.626" fill="#FFCC37"/></g></g></g><g id="Group 98"><g id="Body/Fin" transform="translate(326.803 308) scale(0.9993999705595129 1)"><g id="Body/Fin/Periwinkle"><g id="Group 9"><g id="Group 3"><path id="Fill 1" fill-rule="evenodd" clip-rule="evenodd" d="M135.896 164.221H0.999756V67.4481C0.999756 30.1971 31.1978 0.000100017 68.4478 0.000100017V0.000100017C105.698 0.000100017 135.896 30.1971 135.896 67.4481V164.221Z" fill="#96A5D3"/></g><path id="Fill 4" fill-rule="evenodd" clip-rule="evenodd" d="M1 164.221H135.896V99.148H1V164.221Z" fill="#6F83B1"/><path id="Fill 6" fill-rule="evenodd" clip-rule="evenodd" d="M66.3049 54.4006C66.3049 67.8856 55.3729 78.8176 41.8879 78.8176C28.4019 78.8176 17.4709 67.8856 17.4709 54.4006C17.4709 40.9156 28.4019 29.9836 41.8879 29.9836C55.3729 29.9836 66.3049 40.9156 66.3049 54.4006" fill="#DFBEDA"/><path id="Fill 7" fill-rule="evenodd" clip-rule="evenodd" d="M119.425 54.4006C119.425 67.8856 108.493 78.8176 95.0083 78.8176C81.5233 78.8176 70.5913 67.8856 70.5913 54.4006C70.5913 40.9156 81.5233 29.9836 95.0083 29.9836C108.493 29.9836 119.425 40.9156 119.425 54.4006" fill="#DFBEDA"/></g></g></g><g id="Eyes/Fin" transform="translate(369.777 352) scale(0.9993999481201172 1)"><g id="Eyes/Fin/Open"><g id="Eyes"><path id="Fill 8" fill-rule="evenodd" clip-rule="evenodd" d="M15.3588 15.2683V15.2683C13.5528 15.2683 12.0898 13.8043 12.0898 11.9993V8.72428C12.0898 6.91828 13.5528 5.45428 15.3588 5.45428C17.1638 5.45428 18.6278 6.91828 18.6278 8.72428V11.9993C18.6278 13.8043 17.1638 15.2683 15.3588 15.2683" fill="#0F1335"/><path id="Fill 10" fill-rule="evenodd" clip-rule="evenodd" d="M33.8784 15.2683V15.2683C32.0734 15.2683 30.6094 13.8043 30.6094 11.9993V8.72428C30.6094 6.91828 32.0734 5.45428 33.8784 5.45428C35.6844 5.45428 37.1474 6.91828 37.1474 8.72428V11.9993C37.1474 13.8043 35.6844 15.2683 33.8784 15.2683" fill="#0F1335"/></g></g></g><g id="Mouth/Fin" transform="translate(373.775 369) scale(0.975604738507952 1)"><g id="Mouth/Fin/Surprised"><g id="Group 3"><path id="Fill 1" fill-rule="evenodd" clip-rule="evenodd" d="M30.996 10.0389C30.996 15.0309 26.949 19.0779 21.957 19.0779C16.965 19.0779 12.918 15.0309 12.918 10.0389C12.918 5.04689 16.965 0.999893 21.957 0.999893C26.949 0.999893 30.996 5.04689 30.996 10.0389" fill="white"/></g></g></g><g id="Hair/Fin" transform="translate(308.814 218) scale(0.9993999584301098 1)"><g id="Hair/Fin/Colour Buns"><g id="Group 25"><path id="Fill 1" fill-rule="evenodd" clip-rule="evenodd" d="M89.1458 126.566C89.1458 128.261 87.7718 129.635 86.0758 129.635C84.3808 129.635 83.0068 128.261 83.0068 126.566C83.0068 124.871 84.3808 123.497 86.0758 123.497C87.7718 123.497 89.1458 124.871 89.1458 126.566" fill="white"/><g id="Group 24"><path id="Fill 3" fill-rule="evenodd" clip-rule="evenodd" d="M163.64 109.404C163.64 115.485 158.71 120.415 152.629 120.415C146.548 120.415 141.618 115.485 141.618 109.404C141.618 103.323 146.548 98.3932 152.629 98.3932C158.71 98.3932 163.64 103.323 163.64 109.404" fill="#FFCC37"/><path id="Fill 5" fill-rule="evenodd" clip-rule="evenodd" d="M144.244 121.874C143.475 121.874 142.718 121.521 142.228 120.855L137.986 115.086C137.168 113.974 137.406 112.409 138.518 111.591C139.632 110.774 141.197 111.012 142.014 112.124L146.256 117.893C147.074 119.005 146.836 120.57 145.723 121.388C145.277 121.716 144.759 121.874 144.244 121.874" fill="#3A3E5B"/><g id="Group 9"><path id="Fill 7" fill-rule="evenodd" clip-rule="evenodd" d="M92.6072 66.1467C97.5032 69.7537 98.5482 76.6467 94.9412 81.5427C91.3342 86.4387 84.4412 87.4837 79.5452 83.8767C74.6492 80.2697 73.6042 73.3767 77.2112 68.4807C80.8182 63.5847 87.7112 62.5397 92.6072 66.1467" fill="#5473B8"/></g><path id="Fill 10" fill-rule="evenodd" clip-rule="evenodd" d="M89.1288 90.1766H89.1268L81.9658 90.1706C80.5848 90.1696 79.4668 89.0496 79.4678 87.6686C79.4688 86.2886 80.5878 85.1706 81.9678 85.1706H81.9698L89.1308 85.1766C90.5118 85.1776 91.6298 86.2976 91.6288 87.6786C91.6278 89.0586 90.5088 90.1766 89.1288 90.1766" fill="#3A3E5B"/><path id="Fill 12" fill-rule="evenodd" clip-rule="evenodd" d="M133.496 79.4366C136.242 84.8626 134.069 91.4876 128.642 94.2326C123.216 96.9786 116.592 94.8046 113.846 89.3786C111.101 83.9526 113.274 77.3286 118.7 74.5826C124.126 71.8376 130.751 74.0106 133.496 79.4366" fill="#F1758E"/><path id="Fill 14" fill-rule="evenodd" clip-rule="evenodd" d="M120.687 99.5901C120.307 99.5901 119.922 99.5041 119.561 99.3201L113.171 96.0891C111.939 95.4651 111.445 93.9611 112.069 92.7291C112.692 91.4971 114.199 91.0051 115.427 91.6271L121.817 94.8591C123.049 95.4821 123.543 96.9861 122.919 98.2181C122.48 99.0881 121.6 99.5901 120.687 99.5901" fill="#3A3E5B"/><path id="Fill 16" fill-rule="evenodd" clip-rule="evenodd" d="M38.8463 79.4366C36.1013 84.8626 38.2743 91.4876 43.7003 94.2326C49.1263 96.9786 55.7513 94.8046 58.4963 89.3786C61.2423 83.9526 59.0683 77.3286 53.6423 74.5826C48.2163 71.8376 41.5923 74.0106 38.8463 79.4366" fill="#F9A471"/><path id="Fill 18" fill-rule="evenodd" clip-rule="evenodd" d="M51.6545 99.5902C50.7415 99.5902 49.8615 99.0882 49.4225 98.2182C48.7985 96.9862 49.2925 95.4822 50.5245 94.8592L56.9155 91.6272C58.1465 91.0022 59.6515 91.4982 60.2735 92.7292C60.8975 93.9622 60.4035 95.4652 59.1715 96.0892L52.7805 99.3202C52.4195 99.5042 52.0335 99.5902 51.6545 99.5902" fill="#3A3E5B"/><path id="Fill 20" fill-rule="evenodd" clip-rule="evenodd" d="M9 109.404C9 115.485 13.93 120.415 20.011 120.415C26.092 120.415 31.022 115.485 31.022 109.404C31.022 103.323 26.092 98.3932 20.011 98.3932C13.93 98.3932 9 103.323 9 109.404" fill="#41AFE4"/><path id="Fill 22" fill-rule="evenodd" clip-rule="evenodd" d="M28.3958 121.874C27.8808 121.874 27.3628 121.716 26.9168 121.388C25.8038 120.57 25.5658 119.005 26.3838 117.893L30.6258 112.124C31.4438 111.012 33.0088 110.773 34.1218 111.591C35.2338 112.409 35.4718 113.974 34.6538 115.086L30.4118 120.855C29.9218 121.521 29.1648 121.874 28.3958 121.874" fill="#3A3E5B"/></g></g></g></g><g id="Clothes/Fin" transform="translate(326.803 402.6) scale(0.9993999705595129 1)"><g id="Clothes/Fin/Lavender Polkas"><g id="Group 63"><path id="Fill 1" fill-rule="evenodd" clip-rule="evenodd" d="M1 69.996H135.896V11.12H1V69.996Z" fill="#4FA480"/><g id="Group 62"><path id="Fill 2" fill-rule="evenodd" clip-rule="evenodd" d="M11.367 11.1201H1V20.3711C1.304 20.4011 1.611 20.4181 1.923 20.4181C7.091 20.4181 11.284 16.2681 11.367 11.1201" fill="#E0BFDB"/><path id="Fill 4" fill-rule="evenodd" clip-rule="evenodd" d="M24.1061 20.418C29.2741 20.418 33.4671 16.269 33.5501 11.12H14.6621C14.7451 16.269 18.9381 20.418 24.1061 20.418" fill="#E0BFDB"/><path id="Fill 6" fill-rule="evenodd" clip-rule="evenodd" d="M46.2887 20.418C51.4567 20.418 55.6497 16.269 55.7327 11.12H36.8447C36.9277 16.269 41.1207 20.418 46.2887 20.418" fill="#E0BFDB"/><path id="Fill 8" fill-rule="evenodd" clip-rule="evenodd" d="M68.4718 20.418C73.6398 20.418 77.8328 16.269 77.9158 11.12H59.0278C59.1108 16.269 63.3038 20.418 68.4718 20.418" fill="#E0BFDB"/><path id="Fill 10" fill-rule="evenodd" clip-rule="evenodd" d="M90.6549 20.418C95.8229 20.418 100.016 16.269 100.099 11.12H81.2109C81.2939 16.269 85.4869 20.418 90.6549 20.418" fill="#E0BFDB"/><path id="Fill 12" fill-rule="evenodd" clip-rule="evenodd" d="M112.838 20.418C118.006 20.418 122.199 16.269 122.282 11.12H103.394C103.477 16.269 107.67 20.418 112.838 20.418" fill="#E0BFDB"/><path id="Fill 14" fill-rule="evenodd" clip-rule="evenodd" d="M135.021 20.418C135.316 20.418 135.608 20.4 135.896 20.374V11.12H125.577C125.66 16.269 129.853 20.418 135.021 20.418" fill="#E0BFDB"/><g id="Group 18"><path id="Fill 16" fill-rule="evenodd" clip-rule="evenodd" d="M11.3835 50.4224C11.3835 45.2024 7.15151 40.9704 1.93151 40.9704C1.61651 40.9704 1.30651 40.9874 0.999512 41.0174V59.8274C1.30651 59.8574 1.61651 59.8744 1.93151 59.8744C7.15151 59.8744 11.3835 55.6424 11.3835 50.4224" fill="#E0BFDB"/></g><path id="Fill 19" fill-rule="evenodd" clip-rule="evenodd" d="M24.1141 40.9702C18.8941 40.9702 14.6621 45.2022 14.6621 50.4222C14.6621 55.6422 18.8941 59.8742 24.1141 59.8742C29.3341 59.8742 33.5661 55.6422 33.5661 50.4222C33.5661 45.2022 29.3341 40.9702 24.1141 40.9702" fill="#E0BFDB"/><path id="Fill 21" fill-rule="evenodd" clip-rule="evenodd" d="M46.2972 40.9702C41.0772 40.9702 36.8452 45.2022 36.8452 50.4222C36.8452 55.6422 41.0772 59.8742 46.2972 59.8742C51.5172 59.8742 55.7492 55.6422 55.7492 50.4222C55.7492 45.2022 51.5172 40.9702 46.2972 40.9702" fill="#E0BFDB"/><path id="Fill 23" fill-rule="evenodd" clip-rule="evenodd" d="M68.4803 40.9702C63.2603 40.9702 59.0283 45.2022 59.0283 50.4222C59.0283 55.6422 63.2603 59.8742 68.4803 59.8742C73.7003 59.8742 77.9323 55.6422 77.9323 50.4222C77.9323 45.2022 73.7003 40.9702 68.4803 40.9702" fill="#E0BFDB"/><path id="Fill 25" fill-rule="evenodd" clip-rule="evenodd" d="M90.6634 40.9702C85.4434 40.9702 81.2114 45.2022 81.2114 50.4222C81.2114 55.6422 85.4434 59.8742 90.6634 59.8742C95.8834 59.8742 100.115 55.6422 100.115 50.4222C100.115 45.2022 95.8834 40.9702 90.6634 40.9702" fill="#E0BFDB"/><path id="Fill 27" fill-rule="evenodd" clip-rule="evenodd" d="M112.846 40.9702C107.626 40.9702 103.394 45.2022 103.394 50.4222C103.394 55.6422 107.626 59.8742 112.846 59.8742C118.066 59.8742 122.298 55.6422 122.298 50.4222C122.298 45.2022 118.066 40.9702 112.846 40.9702" fill="#E0BFDB"/><g id="Group 31"><path id="Fill 29" fill-rule="evenodd" clip-rule="evenodd" d="M125.577 50.4224C125.577 55.6424 129.809 59.8744 135.029 59.8744C135.322 59.8744 135.61 59.8564 135.896 59.8304V41.0134C135.61 40.9874 135.322 40.9704 135.029 40.9704C129.809 40.9704 125.577 45.2024 125.577 50.4224" fill="#E0BFDB"/></g><path id="Fill 32" fill-rule="evenodd" clip-rule="evenodd" d="M22.4665 30.6938C22.4665 25.4738 18.2345 21.2418 13.0145 21.2418C7.7945 21.2418 3.5625 25.4738 3.5625 30.6938C3.5625 35.9138 7.7945 40.1458 13.0145 40.1458C18.2345 40.1458 22.4665 35.9138 22.4665 30.6938" fill="#E0BFDB"/><path id="Fill 34" fill-rule="evenodd" clip-rule="evenodd" d="M44.6491 30.6938C44.6491 25.4738 40.4171 21.2418 35.1971 21.2418C29.9771 21.2418 25.7451 25.4738 25.7451 30.6938C25.7451 35.9138 29.9771 40.1458 35.1971 40.1458C40.4171 40.1458 44.6491 35.9138 44.6491 30.6938" fill="#E0BFDB"/><path id="Fill 36" fill-rule="evenodd" clip-rule="evenodd" d="M66.8327 30.6938C66.8327 25.4738 62.6007 21.2418 57.3807 21.2418C52.1607 21.2418 47.9287 25.4738 47.9287 30.6938C47.9287 35.9138 52.1607 40.1458 57.3807 40.1458C62.6007 40.1458 66.8327 35.9138 66.8327 30.6938" fill="#E0BFDB"/><path id="Fill 38" fill-rule="evenodd" clip-rule="evenodd" d="M89.0153 30.6938C89.0153 25.4738 84.7833 21.2418 79.5633 21.2418C74.3433 21.2418 70.1113 25.4738 70.1113 30.6938C70.1113 35.9138 74.3433 40.1458 79.5633 40.1458C84.7833 40.1458 89.0153 35.9138 89.0153 30.6938" fill="#E0BFDB"/><path id="Fill 40" fill-rule="evenodd" clip-rule="evenodd" d="M111.198 30.6938C111.198 25.4738 106.966 21.2418 101.746 21.2418C96.5264 21.2418 92.2944 25.4738 92.2944 30.6938C92.2944 35.9138 96.5264 40.1458 101.746 40.1458C106.966 40.1458 111.198 35.9138 111.198 30.6938" fill="#E0BFDB"/><path id="Fill 42" fill-rule="evenodd" clip-rule="evenodd" d="M133.382 30.6938C133.382 25.4738 129.15 21.2418 123.93 21.2418C118.71 21.2418 114.478 25.4738 114.478 30.6938C114.478 35.9138 118.71 40.1458 123.93 40.1458C129.15 40.1458 133.382 35.9138 133.382 30.6938" fill="#E0BFDB"/><g id="Group 46"><path id="Fill 44" fill-rule="evenodd" clip-rule="evenodd" d="M13.0226 60.6982C7.85461 60.6982 3.66161 64.8472 3.57861 69.9962H22.4666C22.3836 64.8472 18.1906 60.6982 13.0226 60.6982" fill="#E0BFDB"/></g><g id="Group 49"><path id="Fill 47" fill-rule="evenodd" clip-rule="evenodd" d="M35.2057 60.6982C30.0377 60.6982 25.8447 64.8472 25.7617 69.9962H44.6497C44.5667 64.8472 40.3737 60.6982 35.2057 60.6982" fill="#E0BFDB"/></g><g id="Group 52"><path id="Fill 50" fill-rule="evenodd" clip-rule="evenodd" d="M57.3888 60.6982C52.2208 60.6982 48.0278 64.8472 47.9448 69.9962H66.8328C66.7498 64.8472 62.5568 60.6982 57.3888 60.6982" fill="#E0BFDB"/></g><g id="Group 55"><path id="Fill 53" fill-rule="evenodd" clip-rule="evenodd" d="M79.5719 60.6982C74.4039 60.6982 70.2109 64.8472 70.1279 69.9962H89.0159C88.9329 64.8472 84.7399 60.6982 79.5719 60.6982" fill="#E0BFDB"/></g><g id="Group 58"><path id="Fill 56" fill-rule="evenodd" clip-rule="evenodd" d="M101.755 60.6982C96.5865 60.6982 92.3935 64.8472 92.3105 69.9962H111.199C111.116 64.8472 106.923 60.6982 101.755 60.6982" fill="#E0BFDB"/></g><g id="Group 61"><path id="Fill 59" fill-rule="evenodd" clip-rule="evenodd" d="M123.938 60.6982C118.77 60.6982 114.577 64.8472 114.494 69.9962H133.382C133.299 64.8472 129.106 60.6982 123.938 60.6982" fill="#E0BFDB"/></g></g></g></g></g></g></g></g></g></svg>