<svg viewBox="306.76250000000005 91.91605839416059 453.4749999999998 466.2408759124088" fill="none" xmlns="http://www.w3.org/2000/svg" xmlns:xlink="http://www.w3.org/1999/xlink" overflow="visible" width="453.4749999999998px" height="466.2408759124088px"><g id="Master/Stickers/Sushi"><g id="Group 26"><g id="Group 3"><path id="Fill 1" fill-rule="evenodd" clip-rule="evenodd" d="M532.022 100.876C407.8 100.876 307.096 201.64 307.096 325.937C307.096 450.236 407.8 550.998 532.022 550.998C656.246 550.998 756.948 450.236 756.948 325.937C756.948 201.64 656.246 100.876 532.022 100.876" fill="#101335"/></g><path id="Fill 4" fill-rule="evenodd" clip-rule="evenodd" d="M722.445 335.21C722.379 335.204 722.317 335.219 722.252 335.212C722.252 335.196 722.252 335.178 722.254 335.162C722.323 335.164 722.387 335.182 722.457 335.182C727.088 335.182 730.842 331.426 730.842 326.793L730.834 324.861C730.8 320.25 727.054 316.54 722.453 316.54H722.385C722.323 316.54 722.264 316.558 722.2 316.558C722.2 316.548 722.2 316.538 722.198 316.526C722.26 316.522 722.321 316.522 722.383 316.516C726.992 316.075 730.374 311.979 729.931 307.368C729.869 306.72 729.804 306.072 729.736 305.424C729.248 300.817 725.128 297.477 720.515 297.966C720.453 297.972 720.394 297.997 720.332 298.007C720.33 297.991 720.33 297.976 720.326 297.96C720.388 297.95 720.451 297.956 720.513 297.944C725.057 297.053 728.019 292.649 727.132 288.1C727.008 287.46 726.877 286.819 726.746 286.185C725.809 281.648 721.376 278.735 716.84 279.666C716.775 279.678 716.719 279.708 716.657 279.723C716.653 279.708 716.649 279.694 716.645 279.68C716.709 279.664 716.771 279.66 716.834 279.64C721.269 278.304 723.78 273.625 722.445 269.188C722.258 268.563 722.067 267.939 721.872 267.317C720.495 262.891 715.796 260.427 711.375 261.805C711.308 261.823 711.256 261.859 711.192 261.881C711.186 261.863 711.18 261.845 711.174 261.827C711.234 261.805 711.298 261.799 711.358 261.773C715.639 260.004 717.678 255.103 715.911 250.82C715.663 250.216 715.412 249.615 715.157 249.013C713.349 244.748 708.427 242.758 704.164 244.567C704.104 244.593 704.054 244.633 703.993 244.659C703.987 244.645 703.981 244.633 703.975 244.621C704.034 244.591 704.094 244.569 704.152 244.541C708.236 242.358 709.778 237.276 707.599 233.188L706.678 231.477C704.46 227.409 699.369 225.911 695.303 228.126C695.243 228.16 695.199 228.204 695.14 228.238C695.132 228.224 695.124 228.21 695.114 228.196C695.166 228.162 695.225 228.14 695.277 228.106C699.13 225.534 700.169 220.326 697.601 216.471C697.237 215.928 696.874 215.384 696.506 214.847C693.896 211.021 688.68 210.039 684.856 212.646C684.803 212.682 684.767 212.727 684.719 212.763C684.709 212.749 684.699 212.737 684.689 212.725C684.737 212.688 684.791 212.662 684.838 212.622C688.421 209.689 688.951 204.403 686.02 200.818L684.783 199.319C681.82 195.76 676.533 195.278 672.975 198.243C672.922 198.285 672.884 198.342 672.834 198.386C672.822 198.374 672.81 198.362 672.8 198.352C672.846 198.305 672.9 198.275 672.946 198.229C676.226 194.96 676.234 189.646 672.965 186.369C672.504 185.904 672.042 185.445 671.577 184.987C668.272 181.744 662.963 181.792 659.72 185.099C659.678 185.142 659.65 185.196 659.608 185.24C659.593 185.228 659.581 185.218 659.569 185.206C659.612 185.158 659.666 185.124 659.708 185.073C662.652 181.498 662.143 176.211 658.572 173.263C658.067 172.849 657.563 172.437 657.056 172.028C653.451 169.123 648.173 169.688 645.267 173.296C645.227 173.344 645.205 173.398 645.167 173.449C645.157 173.441 645.145 173.432 645.135 173.424C645.173 173.37 645.217 173.324 645.255 173.27C647.835 169.423 646.812 164.21 642.967 161.627C642.426 161.263 641.885 160.902 641.343 160.546C637.472 158.007 632.272 159.086 629.733 162.959C629.699 163.011 629.681 163.069 629.646 163.124C629.636 163.116 629.624 163.109 629.612 163.101C629.646 163.043 629.689 162.989 629.723 162.928C631.912 158.848 630.38 153.762 626.299 151.571L624.602 150.666C620.504 148.507 615.433 150.078 613.275 154.179C613.241 154.241 613.229 154.307 613.197 154.372L613.161 154.354C613.189 154.295 613.225 154.243 613.249 154.183C615.033 149.907 613.016 144.992 608.743 143.208L606.972 142.478C602.685 140.725 597.789 142.777 596.036 147.065C596.008 147.137 596 147.214 595.971 147.284C595.955 147.28 595.941 147.274 595.927 147.27C595.947 147.208 595.979 147.151 595.998 147.089C597.353 142.657 594.864 137.967 590.434 136.611C589.809 136.418 589.179 136.231 588.55 136.048C584.102 134.734 579.448 137.293 578.149 141.741C578.131 141.804 578.131 141.864 578.115 141.928C578.101 141.924 578.084 141.92 578.072 141.918C578.086 141.852 578.115 141.791 578.127 141.727C579.035 137.184 576.092 132.764 571.552 131.857L569.644 131.483C565.095 130.628 560.706 133.603 559.839 138.156C559.825 138.224 559.831 138.291 559.821 138.359C559.805 138.357 559.791 138.355 559.775 138.351C559.783 138.289 559.805 138.23 559.811 138.166C560.274 133.555 556.912 129.443 552.305 128.982C551.654 128.915 551.003 128.855 550.349 128.797C545.741 128.394 541.669 131.8 541.263 136.418C541.257 136.48 541.269 136.538 541.265 136.599C541.249 136.599 541.233 136.599 541.217 136.597C541.219 136.526 541.237 136.46 541.237 136.39C541.237 131.756 537.485 128 532.854 128L530.524 128.01C525.893 128.05 522.171 131.839 522.214 136.472C522.214 136.538 522.232 136.599 522.234 136.663C522.218 136.665 522.204 136.665 522.189 136.667C522.185 136.605 522.195 136.544 522.189 136.482C521.743 131.869 517.645 128.487 513.037 128.942L511.105 129.137C506.5 129.626 503.164 133.758 503.653 138.363C503.659 138.43 503.683 138.492 503.691 138.556C503.677 138.558 503.661 138.56 503.647 138.562C503.637 138.504 503.641 138.444 503.631 138.385C502.736 133.839 498.329 130.879 493.787 131.772C493.141 131.897 492.498 132.03 491.858 132.163C487.324 133.114 484.421 137.56 485.37 142.095C485.382 142.154 485.408 142.206 485.422 142.266C485.408 142.27 485.394 142.274 485.378 142.278C485.36 142.21 485.36 142.144 485.34 142.079C483.993 137.645 479.306 135.154 474.878 136.494C474.255 136.683 473.631 136.874 473.012 137.074C468.595 138.464 466.142 143.174 467.531 147.592C467.549 147.65 467.579 147.702 467.599 147.761C467.583 147.767 467.567 147.773 467.551 147.779C467.529 147.721 467.523 147.66 467.499 147.602C465.73 143.321 460.825 141.289 456.547 143.055C455.939 143.306 455.334 143.562 454.727 143.821C450.47 145.644 448.496 150.575 450.318 154.837C450.342 154.889 450.374 154.937 450.398 154.992C450.384 155 450.37 155.006 450.356 155.012C450.326 154.951 450.314 154.889 450.281 154.833C448.092 150.746 443.011 149.219 438.931 151.404L437.23 152.326C433.167 154.545 431.673 159.641 433.892 163.709C433.925 163.767 433.965 163.82 434.001 163.878L433.959 163.902C433.929 163.85 433.91 163.794 433.876 163.741C431.303 159.894 426.097 158.856 422.246 161.432C421.704 161.794 421.165 162.158 420.626 162.528C416.804 165.143 415.824 170.362 418.438 174.187C418.472 174.239 418.517 174.284 418.553 174.334C418.541 174.344 418.529 174.352 418.519 174.362C418.478 174.312 418.454 174.255 418.414 174.207C415.479 170.626 410.194 170.109 406.615 173.046C406.109 173.463 405.608 173.877 405.107 174.298C401.563 177.277 401.1 182.568 404.08 186.117C404.12 186.164 404.17 186.196 404.213 186.242C404.199 186.254 404.187 186.268 404.172 186.28C404.126 186.23 404.094 186.172 404.046 186.121C400.768 182.852 395.458 182.854 392.189 186.136L390.824 187.516C387.582 190.823 387.635 196.135 390.94 199.378C390.986 199.424 391.043 199.454 391.091 199.499C391.079 199.513 391.069 199.525 391.059 199.535C391.007 199.492 390.97 199.438 390.918 199.394C387.339 196.455 382.057 196.974 379.117 200.555L377.901 202.052C374.991 205.657 375.552 210.938 379.156 213.851C379.21 213.894 379.272 213.924 379.326 213.966C379.316 213.978 379.308 213.992 379.298 214.004C379.246 213.966 379.206 213.918 379.152 213.879C375.305 211.294 370.097 212.328 367.518 216.177C367.156 216.718 366.796 217.259 366.44 217.807C363.903 221.682 364.986 226.88 368.861 229.419C368.917 229.456 368.975 229.478 369.03 229.514C369.024 229.526 369.016 229.536 369.01 229.546C368.951 229.514 368.903 229.468 368.843 229.437C364.761 227.244 359.68 228.786 357.494 232.87C357.189 233.439 356.885 234.01 356.586 234.586C354.438 238.69 356.025 243.76 360.126 245.909C360.187 245.939 360.249 245.961 360.309 245.989C360.303 246.001 360.297 246.011 360.293 246.023C360.229 245.995 360.179 245.955 360.116 245.929C355.84 244.146 350.932 246.182 349.158 250.462L348.428 252.248C346.691 256.542 348.762 261.435 353.055 263.171C353.121 263.199 353.19 263.205 353.256 263.231C353.25 263.245 353.244 263.261 353.24 263.277C353.176 263.255 353.119 263.221 353.055 263.201C348.625 261.845 343.942 264.356 342.597 268.79C342.408 269.412 342.223 270.033 342.04 270.659C340.739 275.105 343.289 279.765 347.733 281.065C347.797 281.085 347.863 281.091 347.93 281.107L347.918 281.153C347.853 281.137 347.795 281.107 347.729 281.095C343.184 280.187 338.773 283.145 337.872 287.69C337.746 288.327 337.623 288.967 337.504 289.605C336.646 294.16 339.642 298.544 344.192 299.399C344.258 299.413 344.325 299.409 344.393 299.419C344.391 299.435 344.389 299.449 344.387 299.461C344.318 299.455 344.258 299.431 344.192 299.423C339.583 298.962 335.482 302.344 335.031 306.956L334.85 308.893C334.444 313.508 337.854 317.578 342.467 317.985C342.531 317.991 342.597 317.989 342.664 317.995C342.662 318.023 342.662 318.053 342.66 318.079C342.593 318.077 342.531 318.061 342.465 318.061C337.834 318.061 334.08 321.866 334.08 326.499L334.09 328.348C334.132 332.953 337.878 336.659 342.471 336.659H342.551C342.613 336.657 342.672 336.639 342.736 336.637C342.736 336.651 342.736 336.667 342.738 336.679C342.672 336.683 342.611 336.673 342.545 336.679C337.937 337.126 334.565 341.226 335.011 345.837L335.208 347.775C335.667 352.08 339.304 355.275 343.534 355.275C343.832 355.275 344.131 355.261 344.433 355.227C344.497 355.219 344.554 355.199 344.618 355.191C344.62 355.205 344.622 355.217 344.624 355.233C344.562 355.243 344.499 355.239 344.435 355.251C339.893 356.146 336.937 360.56 337.832 365.103C337.959 365.743 338.087 366.379 338.218 367.014C339.038 370.976 342.529 373.702 346.42 373.702C346.983 373.702 347.556 373.646 348.129 373.525C348.195 373.513 348.251 373.481 348.314 373.469C348.318 373.483 348.322 373.499 348.326 373.513C348.265 373.531 348.203 373.531 348.143 373.549C343.707 374.889 341.198 379.569 342.535 384.005C342.724 384.633 342.917 385.258 343.112 385.882C344.236 389.469 347.544 391.763 351.111 391.763C351.941 391.763 352.787 391.64 353.622 391.378C353.682 391.358 353.734 391.324 353.795 391.304L353.815 391.356C353.755 391.38 353.69 391.386 353.63 391.413C349.351 393.183 347.318 398.09 349.092 402.373L349.842 404.164C351.197 407.363 354.302 409.28 357.565 409.28C358.657 409.28 359.767 409.067 360.834 408.612C360.899 408.586 360.949 408.544 361.013 408.518C361.019 408.532 361.027 408.55 361.035 408.566C360.979 408.596 360.917 408.606 360.86 408.638C356.777 410.823 355.236 415.905 357.42 419.991C357.728 420.567 358.037 421.14 358.351 421.712C359.877 424.496 362.748 426.069 365.71 426.069C367.073 426.069 368.455 425.737 369.733 425.033C369.788 425.005 369.83 424.961 369.884 424.931C369.892 424.947 369.902 424.963 369.91 424.977C369.856 425.013 369.796 425.033 369.74 425.069C365.893 427.647 364.864 432.857 367.441 436.708L368.525 438.312C370.15 440.694 372.78 441.973 375.46 441.973C377.087 441.973 378.731 441.503 380.175 440.517C380.229 440.479 380.271 440.432 380.324 440.392C380.334 440.406 380.344 440.42 380.354 440.434C380.304 440.472 380.245 440.499 380.193 440.541C376.618 443.482 376.101 448.768 379.041 452.349L380.269 453.831C381.928 455.821 384.311 456.849 386.714 456.849C388.606 456.849 390.51 456.212 392.078 454.902C392.133 454.858 392.171 454.799 392.221 454.755C392.233 454.769 392.245 454.781 392.257 454.793C392.211 454.835 392.157 454.866 392.112 454.91C388.835 458.183 388.829 463.497 392.1 466.776C392.567 467.241 393.031 467.703 393.502 468.164C395.132 469.758 397.246 470.552 399.359 470.552C401.536 470.552 403.716 469.707 405.359 468.021C405.399 467.981 405.423 467.933 405.463 467.889C405.475 467.901 405.487 467.911 405.5 467.923C405.457 467.971 405.405 468.007 405.365 468.056C402.421 471.633 402.934 476.92 406.507 479.863C407.016 480.282 407.524 480.698 408.037 481.113C409.585 482.352 411.437 482.956 413.275 482.956C415.732 482.956 418.167 481.877 419.824 479.811C419.86 479.767 419.88 479.714 419.916 479.668C419.928 479.678 419.942 479.688 419.954 479.694C419.916 479.751 419.866 479.791 419.83 479.847C417.25 483.696 418.277 488.907 422.122 491.488C422.661 491.848 423.202 492.208 423.744 492.564C425.162 493.496 426.758 493.94 428.337 493.94C431.065 493.94 433.744 492.605 435.354 490.152C435.39 490.096 435.41 490.033 435.445 489.977C435.459 489.985 435.471 489.993 435.483 490.001C435.451 490.058 435.404 490.104 435.374 490.164C433.183 494.244 434.717 499.33 438.796 501.521C439.367 501.829 439.943 502.133 440.518 502.435C441.758 503.085 443.087 503.394 444.396 503.394C447.416 503.394 450.336 501.755 451.834 498.89C451.864 498.833 451.876 498.771 451.904 498.711C451.918 498.719 451.93 498.723 451.944 498.729C451.918 498.789 451.878 498.835 451.854 498.896C450.07 503.173 452.089 508.086 456.364 509.869C456.961 510.12 457.558 510.363 458.157 510.607C459.191 511.025 460.256 511.223 461.306 511.223C464.618 511.223 467.756 509.247 469.077 505.986C469.105 505.919 469.111 505.847 469.138 505.78C469.154 505.786 469.17 505.79 469.184 505.797C469.164 505.863 469.126 505.923 469.105 505.99C467.762 510.422 470.266 515.108 474.697 516.449L476.561 517.005C477.347 517.238 478.141 517.345 478.92 517.345C482.547 517.345 485.891 514.973 486.962 511.311C486.98 511.247 486.98 511.182 486.999 511.12C487.015 511.124 487.029 511.126 487.045 511.128C487.031 511.194 487.001 511.249 486.988 511.311C486.082 515.856 489.025 520.274 493.565 521.185C494.209 521.312 494.85 521.437 495.496 521.558C496.018 521.656 496.537 521.705 497.05 521.705C501.005 521.705 504.526 518.892 505.282 514.86C505.294 514.796 505.288 514.731 505.296 514.667C505.312 514.669 505.328 514.673 505.344 514.673C505.334 514.745 505.31 514.81 505.302 514.882C504.855 519.493 508.227 523.592 512.836 524.038L514.77 524.219C515.019 524.242 515.267 524.254 515.514 524.254C519.811 524.254 523.472 520.964 523.856 516.598C523.862 516.534 523.85 516.472 523.854 516.407C523.87 516.407 523.886 516.407 523.901 516.409C523.899 516.478 523.88 516.542 523.88 516.61C523.88 521.244 527.634 525 532.265 525H532.462L534.213 524.992C538.842 524.948 542.558 521.155 542.513 516.522C542.513 516.462 542.495 516.407 542.493 516.347C542.509 516.347 542.524 516.345 542.538 516.343C542.544 516.409 542.532 516.472 542.538 516.538C542.958 520.874 546.605 524.117 550.872 524.117C551.143 524.117 551.415 524.105 551.69 524.077L553.622 523.881C558.227 523.392 561.563 519.26 561.076 514.655C561.068 514.59 561.044 514.534 561.036 514.472C561.052 514.468 561.068 514.466 561.082 514.464C561.094 514.526 561.088 514.588 561.1 514.651C561.886 518.652 565.391 521.425 569.318 521.425C569.855 521.425 570.398 521.371 570.944 521.264L572.849 520.88C577.385 519.944 580.302 515.506 579.367 510.967C579.353 510.903 579.323 510.846 579.307 510.782C579.323 510.778 579.337 510.774 579.353 510.77C579.369 510.832 579.369 510.893 579.387 510.957C580.481 514.586 583.811 516.926 587.414 516.926C588.214 516.926 589.029 516.814 589.833 516.57C590.464 516.379 591.096 516.184 591.723 515.987C596.14 514.597 598.595 509.887 597.206 505.469C597.188 505.41 597.156 505.362 597.136 505.306C597.152 505.298 597.17 505.294 597.186 505.285C597.21 505.346 597.218 505.412 597.242 505.473C598.577 508.706 601.7 510.659 604.993 510.659C606.061 510.659 607.145 510.454 608.192 510.021C608.796 509.774 609.397 509.521 609.996 509.265C614.259 507.45 616.243 502.527 614.434 498.262C614.407 498.202 614.367 498.151 614.339 498.093C614.357 498.085 614.371 498.079 614.389 498.071C614.415 498.127 614.428 498.186 614.456 498.238C615.964 501.073 618.865 502.686 621.863 502.686C623.194 502.686 624.543 502.37 625.798 501.7C626.373 501.392 626.948 501.083 627.521 500.769C631.585 498.55 633.079 493.452 630.859 489.386C630.827 489.329 630.782 489.281 630.748 489.225C630.764 489.217 630.78 489.206 630.794 489.196C630.829 489.251 630.847 489.309 630.883 489.361C632.498 491.784 635.156 493.093 637.862 493.093C639.463 493.093 641.081 492.635 642.511 491.679C643.052 491.317 643.59 490.955 644.129 490.587C647.954 487.975 648.939 482.756 646.329 478.93C646.293 478.875 646.245 478.839 646.21 478.787C646.222 478.777 646.234 478.767 646.249 478.759C646.289 478.809 646.313 478.865 646.353 478.916C648.012 480.938 650.417 481.984 652.842 481.984C654.712 481.984 656.596 481.362 658.154 480.081L659.646 478.843C663.203 475.874 663.677 470.582 660.709 467.027C660.667 466.975 660.613 466.941 660.569 466.889C660.581 466.877 660.593 466.864 660.607 466.854C660.649 466.901 660.679 466.953 660.723 466.999C662.36 468.641 664.512 469.464 666.661 469.464C668.802 469.464 670.944 468.649 672.58 467.017C673.045 466.553 673.509 466.086 673.97 465.613C677.205 462.301 677.147 456.99 673.835 453.753C673.795 453.711 673.745 453.687 673.702 453.646C673.712 453.634 673.723 453.622 673.733 453.612C673.781 453.652 673.815 453.703 673.863 453.743C675.426 455.035 677.316 455.662 679.196 455.662C681.61 455.662 684.009 454.624 685.666 452.612C686.078 452.111 686.488 451.606 686.897 451.103C689.808 447.5 689.249 442.219 685.648 439.306C685.594 439.263 685.531 439.237 685.479 439.195C685.489 439.181 685.497 439.169 685.509 439.155C685.561 439.193 685.604 439.241 685.658 439.279C687.094 440.241 688.716 440.704 690.323 440.704C693.023 440.704 695.673 439.4 697.292 436.99C697.654 436.451 698.012 435.912 698.367 435.368C700.911 431.495 699.835 426.293 695.965 423.752C695.908 423.713 695.846 423.693 695.79 423.661C695.798 423.647 695.806 423.633 695.814 423.619C695.87 423.653 695.916 423.697 695.975 423.73C697.237 424.408 698.597 424.729 699.938 424.729C702.926 424.729 705.817 423.128 707.329 420.313C707.637 419.74 707.942 419.165 708.244 418.589C710.393 414.485 708.811 409.417 704.709 407.264C704.651 407.234 704.587 407.222 704.528 407.192C704.534 407.178 704.54 407.168 704.546 407.156C704.609 407.182 704.659 407.224 704.721 407.25C705.775 407.687 706.867 407.896 707.942 407.896C711.226 407.896 714.342 405.953 715.683 402.729C715.933 402.132 716.18 401.534 716.421 400.935C718.159 396.639 716.088 391.749 711.797 390.01C711.732 389.986 711.666 389.978 711.602 389.954C711.608 389.938 711.614 389.922 711.62 389.906C711.684 389.926 711.741 389.964 711.805 389.984C712.619 390.232 713.44 390.348 714.25 390.348C717.843 390.348 721.167 388.019 722.266 384.399C722.455 383.779 722.642 383.156 722.825 382.532C724.13 378.088 721.585 373.424 717.141 372.121C717.077 372.1 717.011 372.1 716.946 372.084C716.95 372.068 716.954 372.054 716.958 372.04C717.025 372.054 717.083 372.084 717.149 372.098C717.702 372.211 718.253 372.261 718.798 372.261C722.713 372.261 726.215 369.501 727.01 365.512C727.138 364.872 727.261 364.234 727.384 363.59C728.24 359.037 725.248 354.651 720.696 353.794C720.632 353.78 720.567 353.788 720.503 353.778C720.505 353.764 720.507 353.748 720.509 353.732C720.577 353.74 720.638 353.766 720.706 353.774C720.986 353.8 721.263 353.812 721.539 353.812C725.799 353.812 729.447 350.577 729.873 346.246L730.054 344.308C730.464 339.695 727.058 335.621 722.445 335.21" fill="white"/><path id="Fill 6" fill-rule="evenodd" clip-rule="evenodd" d="M532.46 211C468.71 211 417.029 262.711 417.029 326.499C417.029 390.289 468.71 442 532.46 442C596.21 442 647.891 390.289 647.891 326.499C647.891 262.711 596.21 211 532.46 211" fill="#F9A471"/><path id="Fill 8" fill-rule="evenodd" clip-rule="evenodd" d="M439.39 244.794C446.1 257.64 456.821 268.861 472.446 267.948C479.571 267.532 486.025 264.73 491.333 259.997C495.976 255.86 499.598 250.677 504.401 246.711C509.945 242.13 516.475 241.561 522.883 244.886C529.69 248.417 534.611 254.408 540.532 259.124C546.222 263.657 552.516 266.573 559.833 267.101C566.967 267.613 574.193 265.804 580.544 262.617C595.447 255.136 604.149 239.726 609.714 224.664C611.065 221.004 605.22 219.427 603.879 223.055C599.254 235.579 592.276 248.472 580.572 255.674C574.941 259.138 568.393 261.215 561.749 261.134C554.803 261.05 548.797 258.229 543.541 253.807C533.679 245.507 522.334 232.284 507.819 237.765C496.507 242.035 491.769 254.714 481.044 259.745C474.424 262.85 466.145 262.725 459.691 259.253C452.687 255.487 448.199 248.605 444.615 241.739C442.812 238.287 437.589 241.342 439.39 244.794" fill="white"/><path id="Fill 10" fill-rule="evenodd" clip-rule="evenodd" d="M414.374 291.232C422.287 307.366 439.259 318.278 457.202 318.25C466.253 318.234 475.357 315.598 483.027 310.761C487.015 308.242 490.574 305.133 493.689 301.588C497.162 297.636 500.194 293.287 503.969 289.604C507.351 286.306 511.739 283.298 516.596 283.073C521.512 282.842 525.842 285.634 529.667 288.424C538.145 294.609 546.043 301.563 554.608 307.637C570.628 318.999 591.075 328.077 610.904 322.111C621.664 318.873 630.028 311.038 640.171 306.532C647.982 303.059 658.777 302.015 664.847 309.202C667.368 312.184 671.62 307.87 669.115 304.908C663.708 298.508 655.107 297.032 647.201 298.217C637.897 299.612 630.183 305.064 622.336 309.892C618.083 312.512 613.71 314.976 608.892 316.373C604.115 317.758 599.165 318.11 594.22 317.738C584.093 316.968 574.445 312.954 565.807 307.759C556.866 302.381 548.791 295.724 540.612 289.268C533.403 283.579 525.27 276.031 515.385 277.102C504.997 278.226 498.218 286.596 492.039 294.174C486.001 301.575 479.003 307.374 469.784 310.231C449.983 316.363 428.715 306.781 419.585 288.167C417.866 284.662 412.657 287.736 414.374 291.232" fill="white"/><path id="Fill 12" fill-rule="evenodd" clip-rule="evenodd" d="M419.326 383.878C435.497 395.803 458.678 392.368 470.817 376.453C473.936 372.364 475.757 367.683 477.853 363.035C479.761 358.805 482.134 354.228 486.36 351.89C493.553 347.916 501.431 354.626 507.645 357.656C514.833 361.165 522.368 361.86 529.068 356.901C534.861 352.615 538.571 345.891 544.656 342.017C553.234 336.556 561.826 344.204 569.614 347.574C579.062 351.659 589.8 352.523 599.776 349.918C611.41 346.881 620.459 338.612 631.486 334.264C639.704 331.023 650.671 330.39 656.756 337.891C656.599 336.674 656.442 335.457 656.285 334.24C655.863 335.015 655.443 335.789 655.022 336.562C653.168 339.972 658.376 343.017 660.23 339.605C660.651 338.829 661.073 338.056 661.493 337.281C662.193 335.993 661.899 334.712 661.021 333.63C655.481 326.799 646.285 325.166 637.967 326.357C628.222 327.755 620.059 333.382 611.698 338.163C602.331 343.515 592.293 346.723 581.415 344.851C576.08 343.933 571.349 341.89 566.618 339.335C562.288 337.002 557.848 334.606 552.878 334.071C544.66 333.188 538.569 338.564 533.419 344.218C529.014 349.052 523.978 355.644 516.587 354.487C508.716 353.254 502.726 346.741 494.928 345.098C485.297 343.071 477.903 349.41 473.783 357.584C471.219 362.669 469.538 368.215 466.065 372.808C462.884 377.018 458.553 380.392 453.741 382.543C443.4 387.166 431.369 385.313 422.371 378.675C419.246 376.371 416.234 381.597 419.326 383.878" fill="white"/><path id="Fill 14" fill-rule="evenodd" clip-rule="evenodd" d="M636.35 389.037C633.525 394.961 627.086 397.495 620.777 397.526C612.692 397.564 605.239 393.364 598.313 389.672C590.819 385.677 583.067 381.75 574.446 381.079C567.716 380.557 561.218 382.65 555.853 386.655C546.303 393.789 540.88 405.018 531.371 412.148C517.317 422.685 500.716 413.484 486.776 407.687C478.764 404.355 470.355 401.882 461.611 403.134C454.212 404.192 447.226 407.924 443.437 414.522C441.5 417.893 446.726 420.932 448.659 417.561C451.883 411.947 458.212 409.26 464.494 408.842C472.482 408.31 480.147 411.301 487.341 414.43C501.67 420.663 518.371 427.972 533.008 418.339C543.069 411.716 548.664 400.637 557.66 392.892C562.644 388.597 568.68 386.398 575.315 387.187C583.841 388.201 591.337 392.872 598.795 396.746C606.394 400.693 614.779 404.347 623.549 403.391C630.945 402.583 638.255 399.036 641.572 392.078C643.233 388.593 638.021 385.532 636.35 389.037" fill="white"/><path id="Fill 16" fill-rule="evenodd" clip-rule="evenodd" d="M579.933 251.5C579.933 268.898 565.84 283 548.453 283C531.066 283 516.971 268.898 516.971 251.5C516.971 234.104 531.066 220 548.453 220C565.84 220 579.933 234.104 579.933 251.5" fill="#00AFA9"/><path id="Fill 18" fill-rule="evenodd" clip-rule="evenodd" d="M523.966 292.501C523.966 312.66 507.634 329 487.487 329C467.34 329 451.01 312.66 451.01 292.501C451.01 272.342 467.34 256 487.487 256C507.634 256 523.966 272.342 523.966 292.501" fill="#FFCC37"/><path id="Fill 20" fill-rule="evenodd" clip-rule="evenodd" d="M601.979 390L509.975 344.779L533.903 296L625.905 341.225L601.979 390Z" fill="#F06647"/><path id="Fill 22" fill-rule="evenodd" clip-rule="evenodd" d="M456.006 401.9L486.777 340L519.967 356.098L489.196 418L456.006 401.9Z" fill="#5473B8"/><path id="Fill 24" fill-rule="evenodd" clip-rule="evenodd" d="M567.939 408.001C567.939 417.941 559.886 426 549.95 426C540.014 426 531.961 417.941 531.961 408.001C531.961 398.059 540.014 390 549.95 390C559.886 390 567.939 398.059 567.939 408.001" fill="#9FD5DD"/></g></g></svg>