<svg viewBox="0 -1.3321167883211729 1065.9999999999998 732.6642335766425" fill="none" xmlns="http://www.w3.org/2000/svg" xmlns:xlink="http://www.w3.org/1999/xlink" overflow="visible" width="1065.9999999999998px" height="732.6642335766425px"><g id="Master/Stickers/Suny Day" clip-path="url(#clip0_201_15615e7223242-161c-41a5-b5f9-9d76dd82e95e)"><g id="Group 91"><path id="Fill 18" fill-rule="evenodd" clip-rule="evenodd" d="M810.068 621.162H807.292V515.585H810.068V621.162Z" fill="#00AFA9"/><path id="Fill 19" fill-rule="evenodd" clip-rule="evenodd" d="M807.344 586.569H770.106C754.888 586.569 742.555 574.194 742.555 558.933V549.062H779.791C795.008 549.062 807.344 561.438 807.344 576.701V586.569Z" fill="#00AFA9"/><g id="Group 68"><path id="Fill 12" fill-rule="evenodd" clip-rule="evenodd" d="M802.273 424.193V424.193C795.36 417.833 784.146 421.475 782.292 430.687C781.055 436.833 775.315 441.008 769.084 440.288C759.752 439.2 752.824 448.738 756.736 457.283V457.289C759.352 462.988 757.157 469.742 751.694 472.818C743.507 477.424 743.507 489.216 751.694 493.833C757.157 496.909 759.352 503.658 756.736 509.363C752.824 517.903 759.752 527.446 769.084 526.358C775.315 525.633 781.055 529.813 782.292 535.959C784.146 545.171 795.36 548.818 802.273 542.453C806.888 538.204 813.982 538.204 818.598 542.453C825.51 548.818 836.724 545.171 838.579 535.959C839.815 529.813 845.555 525.633 851.786 526.358C861.118 527.446 868.047 517.903 864.135 509.363C861.523 503.658 863.714 496.909 869.176 493.833C877.368 489.216 877.368 477.424 869.176 472.818C863.714 469.742 861.523 462.988 864.135 457.289V457.283C868.047 448.738 861.118 439.2 851.786 440.288C845.555 441.008 839.815 436.833 838.579 430.687C836.724 421.475 825.51 417.833 818.598 424.193C813.982 428.442 806.888 428.442 802.273 424.193" fill="#FFACCA"/></g><path id="Fill 20" fill-rule="evenodd" clip-rule="evenodd" d="M770.246 483.324C770.246 505.523 788.239 523.52 810.437 523.52C832.63 523.52 850.623 505.523 850.623 483.324C850.623 461.12 832.63 443.123 810.437 443.123C788.239 443.123 770.246 461.12 770.246 483.324" fill="#F3C4FF"/><path id="Fill 21" fill-rule="evenodd" clip-rule="evenodd" d="M782.852 483.325C782.852 498.561 795.201 510.913 810.433 510.913C825.671 510.913 838.02 498.561 838.02 483.325C838.02 468.088 825.671 455.731 810.433 455.731C795.201 455.731 782.852 468.088 782.852 483.325" fill="#F0DF47"/></g><g id="Group 95"><g id="Group 67"><g id="Group 13"><path id="Fill 1" fill-rule="evenodd" clip-rule="evenodd" d="M269.16 341.889C278.121 341.889 286.524 344.258 293.799 348.387C374.852 187.871 163.469 187.871 244.52 348.387C251.795 344.258 260.199 341.889 269.16 341.889" fill="#96D4AF"/><path id="Fill 3" fill-rule="evenodd" clip-rule="evenodd" d="M319.183 391.521C498.642 381.501 392.951 198.325 294.549 348.817C309.179 357.457 319.029 373.328 319.183 391.521" fill="#96D4AF"/><path id="Fill 5" fill-rule="evenodd" clip-rule="evenodd" d="M219.138 391.522C219.292 373.328 229.142 357.457 243.773 348.818C145.371 198.325 39.6789 381.501 219.138 391.522" fill="#96D4AF"/><path id="Fill 7" fill-rule="evenodd" clip-rule="evenodd" d="M219.138 392.384C39.6789 402.404 145.371 585.581 243.773 435.088C229.142 426.448 219.292 410.577 219.138 392.384" fill="#96D4AF"/><path id="Fill 9" fill-rule="evenodd" clip-rule="evenodd" d="M319.183 392.384C319.029 410.577 309.179 426.448 294.549 435.088C392.951 585.581 498.642 402.404 319.183 392.384" fill="#96D4AF"/><path id="Fill 11" fill-rule="evenodd" clip-rule="evenodd" d="M269.16 442.016C260.199 442.016 251.795 439.647 244.52 435.519C163.469 596.034 374.852 596.035 293.799 435.519C286.524 439.647 278.121 442.016 269.16 442.016" fill="#96D4AF"/></g><g id="Group 53"><g id="Group 16"><path id="Fill 14" fill-rule="evenodd" clip-rule="evenodd" d="M269.52 488.29V460.656H267.295V488.29" fill="#BFE0D6"/></g><g id="Group 19"><path id="Fill 17" fill-rule="evenodd" clip-rule="evenodd" d="M278.454 495.719C278.454 501.27 273.957 505.77 268.408 505.77C262.86 505.77 258.363 501.27 258.363 495.719C258.363 490.167 262.86 485.667 268.408 485.667C273.957 485.667 278.454 490.167 278.454 495.719" fill="#6462BF"/></g><g id="Group 22"><path id="Fill 20_2" fill-rule="evenodd" clip-rule="evenodd" d="M268.047 298.718V326.352H270.272V298.718" fill="#BFE0D6"/></g><g id="Group 25"><path id="Fill 23" fill-rule="evenodd" clip-rule="evenodd" d="M259.115 291.289C259.115 285.738 263.613 281.238 269.161 281.238C274.709 281.238 279.206 285.738 279.206 291.289C279.206 296.841 274.709 301.341 269.161 301.341C263.613 301.341 259.115 296.841 259.115 291.289" fill="#6462BF"/></g><g id="Group 28"><path id="Fill 26" fill-rule="evenodd" clip-rule="evenodd" d="M190.818 346.655L214.736 360.472L215.848 358.544L191.931 344.727" fill="#BFE0D6"/></g><g id="Group 31"><path id="Fill 29" fill-rule="evenodd" clip-rule="evenodd" d="M179.921 350.681C175.116 347.905 173.47 341.758 176.244 336.95C179.018 332.143 185.161 330.496 189.966 333.271C194.771 336.047 196.416 342.194 193.643 347.002C190.869 351.809 184.726 353.456 179.921 350.681" fill="#6462BF"/></g><g id="Group 34"><path id="Fill 32" fill-rule="evenodd" clip-rule="evenodd" d="M350.873 436.604L326.956 422.787L325.844 424.715L349.76 438.532" fill="#BFE0D6"/></g><g id="Group 37"><path id="Fill 35" fill-rule="evenodd" clip-rule="evenodd" d="M361.771 432.577C366.576 435.352 368.222 441.499 365.448 446.307C362.674 451.114 356.53 452.761 351.726 449.986C346.921 447.21 345.275 441.064 348.048 436.256C350.823 431.448 356.966 429.801 361.771 432.577" fill="#6462BF"/></g><g id="Group 40"><path id="Fill 38" fill-rule="evenodd" clip-rule="evenodd" d="M349.101 348.592L325.184 362.409L326.296 364.337L350.214 350.521" fill="#BFE0D6"/></g><g id="Group 43"><path id="Fill 41" fill-rule="evenodd" clip-rule="evenodd" d="M351.063 337.138C355.868 334.362 362.012 336.009 364.786 340.817C367.56 345.625 365.914 351.771 361.109 354.547C356.304 357.322 350.161 355.675 347.386 350.868C344.613 346.06 346.259 339.913 351.063 337.138" fill="#6462BF"/></g><g id="Group 46"><path id="Fill 44" fill-rule="evenodd" clip-rule="evenodd" d="M191.199 439.607L215.116 425.79L214.003 423.863L190.086 437.679" fill="#BFE0D6"/></g><g id="Group 49"><path id="Fill 47" fill-rule="evenodd" clip-rule="evenodd" d="M189.234 451.062C184.429 453.837 178.285 452.19 175.512 447.382C172.738 442.575 174.384 436.428 179.188 433.652C183.993 430.877 190.137 432.524 192.911 437.332C195.685 442.139 194.038 448.287 189.234 451.062" fill="#6462BF"/></g><g id="Group 52"><path id="Fill 50" fill-rule="evenodd" clip-rule="evenodd" d="M269.161 442.015C241.529 442.015 219.128 419.602 219.128 391.952C219.128 364.303 241.529 341.889 269.161 341.889C296.794 341.889 319.195 364.303 319.195 391.952C319.195 419.602 296.794 442.015 269.161 442.015M342.684 388.109V388.109C347.16 378.059 344.034 366.247 335.174 359.732C330.551 356.332 327.338 351.351 326.147 345.735C323.866 334.973 314.398 327.255 303.403 327.195C297.666 327.164 292.14 325.023 287.878 321.18C279.71 313.815 267.517 313.14 258.586 319.558C253.926 322.906 248.199 324.424 242.493 323.822C231.558 322.668 221.297 329.293 217.842 339.738V339.738C216.04 345.187 212.297 349.784 207.328 352.652C197.803 358.149 193.393 369.544 196.734 380.026C198.477 385.496 198.15 391.415 195.815 396.659C191.338 406.708 194.464 418.519 203.325 425.035C207.947 428.434 211.159 433.416 212.35 439.032C214.632 449.794 224.1 457.512 235.095 457.571C240.832 457.603 246.357 459.744 250.62 463.587C258.788 470.952 270.981 471.627 279.912 465.209C284.572 461.86 290.3 460.342 296.005 460.945C306.939 462.099 317.201 455.475 320.655 445.03C322.459 439.58 326.201 434.983 331.17 432.115C340.694 426.617 345.104 415.223 341.764 404.741C340.021 399.272 340.348 393.352 342.684 388.109" fill="#8C71F9"/></g></g><g id="Group 66"><g id="Group 56"><path id="Fill 54" fill-rule="evenodd" clip-rule="evenodd" d="M376.902 289.792C376.902 289.792 389.83 292.943 388.006 308.366C386.184 323.789 390.99 328.433 400.271 332.246C409.552 336.061 411.707 345.182 411.21 350.323C411.21 350.323 423.134 330.881 411.674 309.663C401.058 290.008 376.902 289.792 376.902 289.792" fill="#6462BF"/></g><path id="Fill 57" fill-rule="evenodd" clip-rule="evenodd" d="M411.21 350.323C411.707 345.182 409.553 336.061 400.271 332.246C390.99 328.433 386.184 323.789 388.007 308.367C389.83 292.943 376.902 289.792 376.902 289.792C376.902 289.792 385.726 294.319 385.13 304.251C384.682 311.734 378.89 320.204 382.859 328.087C386.828 335.971 401.057 333.451 405.31 337.795C408.07 340.616 410.815 344.773 411.21 350.323" fill="#96D4AF"/><g id="Group 61"><path id="Fill 59" fill-rule="evenodd" clip-rule="evenodd" d="M303.706 536.44C303.706 536.44 294.543 546.038 282.146 536.776C269.748 527.513 263.345 529.351 255.428 535.468C247.511 541.585 238.484 538.943 234.297 535.951C234.297 535.951 245.21 555.9 269.229 556.576C291.479 557.202 303.706 536.44 303.706 536.44" fill="#6462BF"/></g><path id="Fill 62" fill-rule="evenodd" clip-rule="evenodd" d="M234.299 535.951C238.486 538.943 247.513 541.585 255.43 535.468C263.347 529.352 269.75 527.514 282.147 536.776C294.545 546.038 303.708 536.441 303.708 536.441C303.708 536.441 295.405 541.807 287.132 536.342C280.899 532.224 276.479 522.999 267.699 522.498C258.918 521.998 254 535.548 248.131 537.055C244.322 538.034 239.284 538.375 234.299 535.951" fill="#96D4AF"/><path id="Fill 64" fill-rule="evenodd" clip-rule="evenodd" d="M319.182 391.953C319.182 419.575 296.803 441.969 269.196 441.969C241.589 441.969 219.209 419.575 219.209 391.953C219.209 364.329 241.589 341.936 269.196 341.936C296.803 341.936 319.182 364.329 319.182 391.953" fill="#FF9737"/></g></g><g id="Master/Worms/Jae" transform="translate(259.846 27) scale(1.8777042021387043 1.885094439794147)"><g id="Master/Worms/Jae"><g id="Body/Jae" transform="translate(47.918 130.42) scale(1 1)"><g id="Body/Jae/Grey"><g id="Group 10"><g id="Group 3"><path id="Fill 1" fill-rule="evenodd" clip-rule="evenodd" d="M0.000244141 105.107V184.221H208.214V105.107C208.214 47.61 161.604 1 104.107 1C46.6102 1 0.000244141 47.61 0.000244141 105.107Z" fill="#CBD3D8"/></g><path id="Fill 4" fill-rule="evenodd" clip-rule="evenodd" d="M100.977 64.6694C100.977 84.3654 85.0104 100.332 65.3144 100.332C45.6184 100.332 29.6514 84.3654 29.6514 64.6694C29.6514 44.9734 45.6184 29.0064 65.3144 29.0064C85.0104 29.0064 100.977 44.9734 100.977 64.6694" fill="#74BAB9"/><path id="Fill 6" fill-rule="evenodd" clip-rule="evenodd" d="M178.563 64.6694C178.563 84.3654 162.596 100.332 142.9 100.332C123.204 100.332 107.237 84.3654 107.237 64.6694C107.237 44.9734 123.204 29.0064 142.9 29.0064C162.596 29.0064 178.563 44.9734 178.563 64.6694" fill="#74BAB9"/><path id="Fill 8" fill-rule="evenodd" clip-rule="evenodd" d="M0 184.22H208.215V113.696H0V184.22Z" fill="#AAB8BF"/></g></g></g><g id="Eyes/Jae" transform="translate(124.918 186.42) scale(1 1)"><g id="Eyes/Jae/Upset"><g id="Group 6"><g id="Group 3"><path id="Fill 1" fill-rule="evenodd" clip-rule="evenodd" d="M42.6178 14H35.8008C34.6958 14 33.8008 13.105 33.8008 12C33.8008 10.896 34.6958 10 35.8008 10H42.6178C43.7218 10 44.6178 10.896 44.6178 12C44.6178 13.105 43.7218 14 42.6178 14" fill="#101335"/></g><path id="Fill 4" fill-rule="evenodd" clip-rule="evenodd" d="M17.819 14H11.001C9.89598 14 9.00098 13.105 9.00098 12C9.00098 10.896 9.89598 10 11.001 10H17.819C18.923 10 19.819 10.896 19.819 12C19.819 13.105 18.923 14 17.819 14" fill="#101335"/></g></g></g><g id="Mouth/Jae" transform="translate(132.77 206.476) scale(0.975 1)"><g id="Mouth/Jae/Surprised"><g id="Group 3"><path id="Fill 1" fill-rule="evenodd" clip-rule="evenodd" d="M28.995 16.0388C28.995 21.0308 24.948 25.0778 19.957 25.0778C14.965 25.0778 10.918 21.0308 10.918 16.0388C10.918 11.0468 14.965 6.9998 19.957 6.9998C24.948 6.9998 28.995 11.0468 28.995 16.0388" fill="white"/></g></g></g><g id="Hair/Jae" transform="translate(5.91797 0.420013) scale(1 1)"><g id="Hair/Jae/Mickey Head"><g id="Group 9"><path id="Fill 1" fill-rule="evenodd" clip-rule="evenodd" d="M227.14 169.416C208.588 145.881 179.203 130.641 146.155 130.641C113.105 130.641 83.9949 145.803 65.1689 169.416H227.14Z" fill="#ED6389"/><g id="Group 5"><path id="Fill 3" fill-rule="evenodd" clip-rule="evenodd" d="M242.809 108.752C242.809 128.718 226.623 144.904 206.658 144.904C186.691 144.904 170.505 128.718 170.505 108.752C170.505 88.786 186.691 72.6 206.658 72.6C226.623 72.6 242.809 88.786 242.809 108.752" fill="#41AFE4"/></g><g id="Group 8"><path id="Fill 6" fill-rule="evenodd" clip-rule="evenodd" d="M121.804 108.752C121.804 128.718 105.618 144.904 85.652 144.904C65.686 144.904 49.499 128.718 49.499 108.752C49.499 88.786 65.686 72.6 85.652 72.6C105.618 72.6 121.804 88.786 121.804 108.752" fill="#41AFE4"/></g></g></g></g><g id="Clothes/Jae" transform="translate(47.918 251.42) scale(1 1)"><g id="Clothes/Jae/Smooth Mixie"><g id="Group 15"><path id="Fill 1" fill-rule="evenodd" clip-rule="evenodd" d="M0 64.5816H208.214V1.0006H0V64.5816Z" fill="#00AFA9"/><g id="Group 14"><path id="Fill 2" fill-rule="evenodd" clip-rule="evenodd" d="M186 9.1363C178.411 19.5673 175.736 32.3183 179.018 42.4123C181.42 49.8073 186.709 55.0183 194.311 57.4823L194.617 57.5493C199.58 58.1263 204.114 56.8023 208.084 53.6343C208.129 53.5983 208.17 53.5573 208.214 53.5223V49.1753C207.537 49.9073 206.834 50.5723 206.104 51.1543C202.852 53.7433 199.168 54.8443 195.139 54.4143C188.625 52.2573 184.094 47.7713 182.035 41.4323C179.063 32.2863 181.564 20.6263 188.565 11.0023C191.451 7.0363 195.082 3.6893 199.191 1.0003H193.801C190.861 3.3623 188.225 6.0783 186 9.1363" fill="#E0BFDB"/><path id="Fill 4" fill-rule="evenodd" clip-rule="evenodd" d="M22.791 16.7403C27.33 12.6093 29.84 6.7083 29.818 1.0003H26.659C26.689 5.8283 24.541 10.8573 20.654 14.3933C20.042 14.9513 19.388 15.4723 18.697 15.9563C13.981 19.2643 7.584 20.8083 1.085 20.1263C0.722 20.0883 0.361 20.0313 0 19.9793V23.1813C0.252 23.2133 0.502 23.2563 0.754 23.2823C9.214 24.1703 17.241 21.7853 22.791 16.7403" fill="#E0BFDB"/><g id="Group 8"><path id="Fill 6" fill-rule="evenodd" clip-rule="evenodd" d="M34.4375 48.2291C29.1015 44.3541 21.9165 42.6781 14.2055 43.5091C9.17751 44.0501 4.36151 45.6801 -0.000488281 48.1341V51.8131C4.38851 49.0591 9.34151 47.2241 14.5445 46.6641C21.4725 45.9171 27.8755 47.3851 32.5725 50.7971C37.1895 54.1491 39.9195 59.4831 39.7915 64.5821H42.9625C43.0765 58.4831 39.8615 52.1681 34.4375 48.2291" fill="#E0BFDB"/></g><path id="Fill 9" fill-rule="evenodd" clip-rule="evenodd" d="M157.578 56.1705C154.377 49.3465 147.451 44.0695 140.345 43.0385C133.682 42.0725 127.273 43.5825 121.508 46.1205C121.566 44.2785 121.713 42.5945 121.883 41.1555C123.639 26.3945 129.763 12.3855 139.166 1.0005H135.09C126.221 12.4715 120.457 26.2805 118.732 40.7805C118.502 42.7185 118.316 45.0715 118.31 47.6605C113.726 50.0535 109.635 52.9695 106.269 55.5695C102.414 58.5475 98.9261 61.5485 95.7651 64.5815H100.41C102.82 62.4025 105.418 60.2375 108.209 58.0815C111.789 55.3165 115.18 53.0385 118.42 51.2295C118.698 55.5335 119.563 60.2125 121.502 64.5815H125.01C122.57 59.7915 121.682 54.4085 121.513 49.6235C128.139 46.4525 134.151 45.3475 139.89 46.1795C145.983 47.0625 151.937 51.6195 154.705 57.5185C155.833 59.9215 156.299 62.3165 156.152 64.5815H159.348C159.492 61.8585 158.91 59.0075 157.578 56.1705" fill="#E0BFDB"/><g id="Group 13"><path id="Fill 11" fill-rule="evenodd" clip-rule="evenodd" d="M98.58 1.0001H93.91C94.083 3.2151 94.047 5.3901 93.775 7.5151C92.927 14.1351 88.961 20.7051 83.425 24.6591C79.047 27.7601 74.164 28.9481 69.572 28.0041C67.014 27.4791 64.578 26.3421 62.531 24.7181C55.876 19.4371 54.368 8.5141 58.968 1.0001H55.351C51.019 9.7641 53.051 21.2451 60.559 27.2031C62.993 29.1351 65.89 30.4881 68.934 31.1131C74.336 32.2231 80.062 30.8941 85.086 27.3711C85.146 27.3281 85.209 27.2851 85.269 27.2411C91.5 22.7901 95.966 15.3861 96.922 7.9191C97.056 6.8811 97.141 5.8351 97.177 4.7801C101.124 12.1541 102.147 21.4071 100.371 29.2881C97.09 43.8471 86.45 55.7521 77.35 64.5821H81.865C90.707 55.7031 100.282 44.1161 103.467 29.9851C105.583 20.5961 104 9.4151 98.58 1.0001" fill="#E0BFDB"/></g></g></g></g></g></g></g><g id="Plant 1" transform="translate(183.891 347) scale(1.8737796267947635 1.8850944705125763)"><g id="Plant 1/Flowering Cactus"><g id="Group 56"><path id="Fill 1" fill-rule="evenodd" clip-rule="evenodd" d="M114.872 113.284H50.4629L60.0449 147.172H105.289L114.872 113.284Z" fill="#E0BFDB"/><g id="Group 55"><path id="Fill 2" fill-rule="evenodd" clip-rule="evenodd" d="M97.75 105.935C97.75 110.099 101.126 113.475 105.291 113.475C109.455 113.475 112.832 110.099 112.832 105.935C112.832 101.77 109.455 98.394 105.291 98.394C101.126 98.394 97.75 101.77 97.75 105.935" fill="#00AFA9"/><path id="Fill 4" fill-rule="evenodd" clip-rule="evenodd" d="M112.83 105.935C112.83 110.099 116.206 113.475 120.371 113.475C124.535 113.475 127.911 110.099 127.911 105.935C127.911 101.77 124.535 98.394 120.371 98.394C116.206 98.394 112.83 101.77 112.83 105.935" fill="#00AFA9"/><path id="Fill 6" fill-rule="evenodd" clip-rule="evenodd" d="M112.83 121.016C112.83 125.18 116.206 128.557 120.371 128.557C124.535 128.557 127.911 125.18 127.911 121.016C127.911 116.851 124.535 113.475 120.371 113.475C116.206 113.475 112.83 116.851 112.83 121.016" fill="#00AFA9"/><path id="Fill 8" fill-rule="evenodd" clip-rule="evenodd" d="M112.83 136.097C112.83 140.262 116.206 143.638 120.371 143.638C124.535 143.638 127.911 140.262 127.911 136.097C127.911 131.933 124.535 128.557 120.371 128.557C116.206 128.557 112.83 131.933 112.83 136.097" fill="#00AFA9"/><path id="Fill 10" fill-rule="evenodd" clip-rule="evenodd" d="M112.83 151.179C112.83 155.343 116.206 158.719 120.371 158.719C124.535 158.719 127.911 155.343 127.911 151.179C127.911 147.014 124.535 143.638 120.371 143.638C116.206 143.638 112.83 147.014 112.83 151.179" fill="#00AFA9"/><g id="Group 14"><path id="Fill 12" fill-rule="evenodd" clip-rule="evenodd" d="M118.839 155.168V155.168C117.542 153.975 115.438 154.658 115.09 156.387C114.858 157.54 113.781 158.322 112.612 158.187C110.861 157.983 109.561 159.773 110.296 161.376C110.786 162.445 110.374 163.712 109.349 164.289C107.813 165.153 107.813 167.366 109.349 168.231C110.374 168.808 110.786 170.074 110.296 171.144C109.561 172.746 110.861 174.536 112.612 174.333C113.781 174.197 114.858 174.98 115.09 176.133C115.438 177.861 117.542 178.545 118.839 177.352C119.705 176.555 121.037 176.555 121.902 177.352C123.199 178.545 125.303 177.861 125.651 176.133C125.883 174.98 126.96 174.197 128.129 174.333C129.88 174.536 131.18 172.746 130.446 171.144C129.956 170.074 130.367 168.808 131.392 168.231C132.929 167.366 132.929 165.153 131.392 164.289C130.367 163.712 129.956 162.445 130.446 161.376C131.18 159.773 129.88 157.983 128.129 158.187C126.96 158.322 125.883 157.54 125.651 156.387C125.303 154.658 123.199 153.975 121.902 155.168C121.037 155.965 119.705 155.965 118.839 155.168" fill="#5473B8"/></g><path id="Fill 15" fill-rule="evenodd" clip-rule="evenodd" d="M112.83 166.26C112.83 170.425 116.206 173.801 120.371 173.801C124.535 173.801 127.911 170.425 127.911 166.26C127.911 162.095 124.535 158.719 120.371 158.719C116.206 158.719 112.83 162.095 112.83 166.26" fill="#F9A471"/><path id="Fill 17" fill-rule="evenodd" clip-rule="evenodd" d="M115.195 166.26C115.195 169.118 117.512 171.436 120.371 171.436C123.229 171.436 125.546 169.118 125.546 166.26C125.546 163.402 123.229 161.084 120.371 161.084C117.512 161.084 115.195 163.402 115.195 166.26" fill="#F06647"/><path id="Fill 19" fill-rule="evenodd" clip-rule="evenodd" d="M82.668 105.935C82.668 110.099 86.044 113.475 90.209 113.475C94.373 113.475 97.749 110.099 97.749 105.935C97.749 101.77 94.373 98.394 90.209 98.394C86.044 98.394 82.668 101.77 82.668 105.935" fill="#00AFA9"/><path id="Fill 21" fill-rule="evenodd" clip-rule="evenodd" d="M82.668 90.853C82.668 95.018 86.044 98.394 90.209 98.394C94.373 98.394 97.749 95.018 97.749 90.853C97.749 86.689 94.373 83.312 90.209 83.312C86.044 83.312 82.668 86.689 82.668 90.853" fill="#00AFA9"/><path id="Fill 23" fill-rule="evenodd" clip-rule="evenodd" d="M82.668 75.7719C82.668 79.9359 86.044 83.3119 90.209 83.3119C94.373 83.3119 97.749 79.9359 97.749 75.7719C97.749 71.6069 94.373 68.2309 90.209 68.2309C86.044 68.2309 82.668 71.6069 82.668 75.7719" fill="#00AFA9"/><path id="Fill 25" fill-rule="evenodd" clip-rule="evenodd" d="M97.75 75.7719C97.75 79.9359 101.126 83.3119 105.291 83.3119C109.455 83.3119 112.832 79.9359 112.832 75.7719C112.832 71.6069 109.455 68.2309 105.291 68.2309C101.126 68.2309 97.75 71.6069 97.75 75.7719" fill="#00AFA9"/><path id="Fill 27" fill-rule="evenodd" clip-rule="evenodd" d="M112.83 75.7719C112.83 79.9359 116.206 83.3119 120.371 83.3119C124.535 83.3119 127.911 79.9359 127.911 75.7719C127.911 71.6069 124.535 68.2309 120.371 68.2309C116.206 68.2309 112.83 71.6069 112.83 75.7719" fill="#00AFA9"/><g id="Group 31"><path id="Fill 29" fill-rule="evenodd" clip-rule="evenodd" d="M118.839 49.5991V49.5991C117.542 48.4051 115.438 49.0881 115.09 50.8171C114.858 51.9701 113.781 52.7531 112.612 52.6181C110.861 52.4141 109.561 54.2031 110.296 55.8061C110.786 56.8751 110.374 58.1421 109.349 58.7191C107.813 59.5841 107.813 61.7961 109.349 62.6611C110.374 63.2391 110.786 64.5051 110.296 65.5751C109.561 67.1771 110.861 68.9661 112.612 68.7631C113.781 68.6271 114.858 69.4111 115.09 70.5641C115.438 72.2911 117.542 72.9751 118.839 71.7821C119.705 70.9851 121.037 70.9851 121.902 71.7821C123.199 72.9751 125.303 72.2911 125.651 70.5641C125.883 69.4111 126.96 68.6271 128.129 68.7631C129.88 68.9661 131.18 67.1771 130.446 65.5751C129.956 64.5051 130.367 63.2391 131.392 62.6611C132.929 61.7961 132.929 59.5841 131.392 58.7191C130.367 58.1421 129.956 56.8751 130.446 55.8061C131.18 54.2031 129.88 52.4141 128.129 52.6181C126.96 52.7531 125.883 51.9701 125.651 50.8171C125.303 49.0881 123.199 48.4051 121.902 49.5991C121.037 50.3961 119.705 50.3961 118.839 49.5991" fill="#5473B8"/></g><path id="Fill 32" fill-rule="evenodd" clip-rule="evenodd" d="M112.83 60.6899C112.83 64.8549 116.206 68.2309 120.371 68.2309C124.535 68.2309 127.911 64.8549 127.911 60.6899C127.911 56.5259 124.535 53.1499 120.371 53.1499C116.206 53.1499 112.83 56.5259 112.83 60.6899" fill="#F9A471"/><path id="Fill 34" fill-rule="evenodd" clip-rule="evenodd" d="M115.195 60.6899C115.195 63.5479 117.512 65.8659 120.371 65.8659C123.229 65.8659 125.546 63.5479 125.546 60.6899C125.546 57.8329 123.229 55.5149 120.371 55.5149C117.512 55.5149 115.195 57.8329 115.195 60.6899" fill="#F06647"/><path id="Fill 36" fill-rule="evenodd" clip-rule="evenodd" d="M67.5859 105.935C67.5859 110.099 70.9619 113.475 75.1269 113.475C79.2909 113.475 82.6679 110.099 82.6679 105.935C82.6679 101.77 79.2909 98.394 75.1269 98.394C70.9619 98.394 67.5859 101.77 67.5859 105.935" fill="#00AFA9"/><path id="Fill 38" fill-rule="evenodd" clip-rule="evenodd" d="M67.5859 121.016C67.5859 125.18 70.9619 128.557 75.1269 128.557C79.2909 128.557 82.6679 125.18 82.6679 121.016C82.6679 116.851 79.2909 113.475 75.1269 113.475C70.9619 113.475 67.5859 116.851 67.5859 121.016" fill="#00AFA9"/><path id="Fill 40" fill-rule="evenodd" clip-rule="evenodd" d="M52.5059 105.935C52.5059 110.099 55.8819 113.475 60.0469 113.475C64.2109 113.475 67.5869 110.099 67.5869 105.935C67.5869 101.77 64.2109 98.394 60.0469 98.394C55.8819 98.394 52.5059 101.77 52.5059 105.935" fill="#00AFA9"/><g id="Group 44"><path id="Fill 42" fill-rule="evenodd" clip-rule="evenodd" d="M58.5607 79.7622V79.7622C57.2637 78.5682 55.1597 79.2512 54.8117 80.9802C54.5797 82.1332 53.5027 82.9162 52.3337 82.7812C50.5827 82.5762 49.2827 84.3662 50.0167 85.9692C50.5067 87.0382 50.0957 88.3052 49.0707 88.8822C47.5337 89.7472 47.5337 91.9592 49.0707 92.8242C50.0957 93.4012 50.5067 94.6672 50.0167 95.7372C49.2827 97.3392 50.5827 99.1292 52.3337 98.9262C53.5027 98.7902 54.5797 99.5732 54.8117 100.726C55.1597 102.454 57.2637 103.138 58.5607 101.945C59.4257 101.148 60.7577 101.148 61.6237 101.945C62.9207 103.138 65.0247 102.454 65.3727 100.726C65.6047 99.5732 66.6817 98.7902 67.8507 98.9262C69.6017 99.1292 70.9017 97.3392 70.1677 95.7372C69.6767 94.6672 70.0887 93.4012 71.1137 92.8242C72.6497 91.9592 72.6497 89.7472 71.1137 88.8822C70.0887 88.3052 69.6767 87.0382 70.1677 85.9692C70.9017 84.3662 69.6017 82.5762 67.8507 82.7812C66.6817 82.9162 65.6047 82.1332 65.3727 80.9802C65.0247 79.2512 62.9207 78.5682 61.6237 79.7622C60.7577 80.5582 59.4257 80.5582 58.5607 79.7622" fill="#5473B8"/></g><path id="Fill 45" fill-rule="evenodd" clip-rule="evenodd" d="M52.5508 90.853C52.5508 95.018 55.9268 98.394 60.0918 98.394C64.2558 98.394 67.6318 95.018 67.6318 90.853C67.6318 86.689 64.2558 83.312 60.0918 83.312C55.9268 83.312 52.5508 86.689 52.5508 90.853" fill="#F9A471"/><path id="Fill 47" fill-rule="evenodd" clip-rule="evenodd" d="M54.916 90.853C54.916 93.711 57.233 96.029 60.092 96.029C62.95 96.029 65.267 93.711 65.267 90.853C65.267 87.995 62.95 85.678 60.092 85.678C57.233 85.678 54.916 87.995 54.916 90.853" fill="#F06647"/><path id="Fill 49" fill-rule="evenodd" clip-rule="evenodd" d="M73.5951 125.006V125.006C72.2981 123.812 70.1941 124.495 69.8461 126.224C69.6141 127.377 68.5371 128.16 67.3681 128.025C65.6171 127.82 64.3171 129.61 65.0511 131.213C65.5421 132.282 65.1301 133.549 64.1051 134.126C62.5691 134.991 62.5691 137.203 64.1051 138.068C65.1301 138.645 65.5421 139.911 65.0511 140.981C64.3171 142.584 65.6171 144.373 67.3681 144.17C68.5371 144.034 69.6141 144.818 69.8461 145.971C70.1941 147.698 72.2981 148.382 73.5951 147.189C74.4611 146.392 75.7931 146.392 76.6581 147.189C77.9551 148.382 80.0591 147.698 80.4071 145.971C80.6391 144.818 81.7161 144.034 82.8851 144.17C84.6361 144.373 85.9361 142.584 85.2021 140.981C84.7121 139.911 85.1231 138.645 86.1481 138.068C87.6851 137.203 87.6851 134.991 86.1481 134.126C85.1231 133.549 84.7121 132.282 85.2021 131.213C85.9361 129.61 84.6361 127.82 82.8851 128.025C81.7161 128.16 80.6391 127.377 80.4071 126.224C80.0591 124.495 77.9551 123.812 76.6581 125.006C75.7931 125.803 74.4611 125.803 73.5951 125.006" fill="#5473B8"/><path id="Fill 51" fill-rule="evenodd" clip-rule="evenodd" d="M67.5859 136.097C67.5859 140.262 70.9619 143.638 75.1269 143.638C79.2909 143.638 82.6679 140.262 82.6679 136.097C82.6679 131.933 79.2909 128.557 75.1269 128.557C70.9619 128.557 67.5859 131.933 67.5859 136.097" fill="#F9A471"/><path id="Fill 53" fill-rule="evenodd" clip-rule="evenodd" d="M69.9512 136.097C69.9512 138.955 72.2682 141.273 75.1262 141.273C77.9852 141.273 80.3022 138.955 80.3022 136.097C80.3022 133.239 77.9852 130.922 75.1262 130.922C72.2682 130.922 69.9512 133.239 69.9512 136.097" fill="#F06647"/></g></g></g></g><ellipse id="Ellipse 6" cx="757.047" cy="137.5" rx="38.4769" ry="38.5" fill="#FFF389"/><ellipse id="Ellipse 7" cx="133.421" cy="216.5" rx="11.4931" ry="11.5" fill="#F0DF47"/><path id="Fill 5_2" fill-rule="evenodd" clip-rule="evenodd" d="M898.612 171.601C890.311 171.601 883.047 176.004 879.049 182.586C879.265 180.92 879.388 179.225 879.388 177.499C879.388 155.684 861.598 138 839.652 138C817.704 138 799.914 155.684 799.914 177.499C799.914 178.857 799.983 180.198 800.118 181.521C796.445 178.138 791.532 176.067 786.131 176.067C774.759 176.067 765.541 185.23 765.541 196.533C765.541 207.836 774.759 217 786.131 217H898.612C911.223 217 921.447 206.837 921.447 194.3C921.447 181.764 911.223 171.601 898.612 171.601" fill="#BFFFFB"/></g></g><defs><clipPath id="clip0_201_15615e7223242-161c-41a5-b5f9-9d76dd82e95e"></clipPath></defs></svg>