<svg viewBox="46.095549738219916 70.875 212.74869109947642 248.06249999999997" fill="none" xmlns="http://www.w3.org/2000/svg" xmlns:xlink="http://www.w3.org/1999/xlink" overflow="visible" width="212.74869109947642px" height="248.06249999999997px"><g id="Master/Worms/Jae"><g id="Body/Jae" transform="translate(47.918 130.42) scale(1 1)"><g id="Body/Jae/Lavender"><g id="Group 9"><path id="Fill 1" fill-rule="evenodd" clip-rule="evenodd" d="M0.000488281 104.107V183.221H208.213V104.107C208.213 46.61 161.603 0 104.107 0C46.6105 0 0.000488281 46.61 0.000488281 104.107Z" fill="#E0BFDB"/><path id="Fill 3" fill-rule="evenodd" clip-rule="evenodd" d="M100.978 63.6693C100.978 83.3653 85.0106 99.3323 65.3146 99.3323C45.6186 99.3323 29.6516 83.3653 29.6516 63.6693C29.6516 43.9733 45.6186 28.0063 65.3146 28.0063C85.0106 28.0063 100.978 43.9733 100.978 63.6693" fill="#00AFA9"/><path id="Fill 5" fill-rule="evenodd" clip-rule="evenodd" d="M178.563 63.6693C178.563 83.3653 162.596 99.3323 142.901 99.3323C123.205 99.3323 107.238 83.3653 107.238 63.6693C107.238 43.9733 123.205 28.0063 142.901 28.0063C162.596 28.0063 178.563 43.9733 178.563 63.6693" fill="#00AFA9"/><path id="Fill 7" fill-rule="evenodd" clip-rule="evenodd" d="M0 183.22H208.214V112.696H0V183.22Z" fill="#C591C1"/></g></g></g><g id="Eyes/Jae" transform="translate(124.918 186.42) scale(1 1)"><g id="Eyes/Jae/Upset"><g id="Group 6"><g id="Group 3"><path id="Fill 1" fill-rule="evenodd" clip-rule="evenodd" d="M42.6178 14H35.8008C34.6958 14 33.8008 13.105 33.8008 12C33.8008 10.896 34.6958 10 35.8008 10H42.6178C43.7218 10 44.6178 10.896 44.6178 12C44.6178 13.105 43.7218 14 42.6178 14" fill="#101335"/></g><path id="Fill 4" fill-rule="evenodd" clip-rule="evenodd" d="M17.819 14H11.001C9.89598 14 9.00098 13.105 9.00098 12C9.00098 10.896 9.89598 10 11.001 10H17.819C18.923 10 19.819 10.896 19.819 12C19.819 13.105 18.923 14 17.819 14" fill="#101335"/></g></g></g><g id="Mouth/Jae" transform="translate(132.77 206.476) scale(0.975 1)"><g id="Mouth/Jae/Smiling Black"><g id="Group 3"><path id="Fill 1" fill-rule="evenodd" clip-rule="evenodd" d="M8.91797 5H30.788C30.788 5 29.476 16.489 19.3 16.489C9.12297 16.489 8.91797 5 8.91797 5" fill="#101335"/></g></g></g><g id="Hair/Jae" transform="translate(5.91797 0.420013) scale(1 1)"><g id="Hair/Jae/Mickey Head"><g id="Group 9"><path id="Fill 1" fill-rule="evenodd" clip-rule="evenodd" d="M227.14 169.416C208.588 145.881 179.203 130.641 146.155 130.641C113.105 130.641 83.9949 145.803 65.1689 169.416H227.14Z" fill="#ED6389"/><g id="Group 5"><path id="Fill 3" fill-rule="evenodd" clip-rule="evenodd" d="M242.809 108.752C242.809 128.718 226.623 144.904 206.658 144.904C186.691 144.904 170.505 128.718 170.505 108.752C170.505 88.786 186.691 72.6 206.658 72.6C226.623 72.6 242.809 88.786 242.809 108.752" fill="#41AFE4"/></g><g id="Group 8"><path id="Fill 6" fill-rule="evenodd" clip-rule="evenodd" d="M121.804 108.752C121.804 128.718 105.618 144.904 85.652 144.904C65.686 144.904 49.499 128.718 49.499 108.752C49.499 88.786 65.686 72.6 85.652 72.6C105.618 72.6 121.804 88.786 121.804 108.752" fill="#41AFE4"/></g></g></g></g><g id="Clothes/Jae" transform="translate(47.918 251.42) scale(1 1)"><g id="Clothes/Jae/Orange Curls"><g id="Group 12"><path id="Fill 1" fill-rule="evenodd" clip-rule="evenodd" d="M0 63.5815H208.214V0.000488281H0V63.5815Z" fill="#FFCC37"/><g id="Group 11"><g id="Group 4"><path id="Fill 2" fill-rule="evenodd" clip-rule="evenodd" d="M1.40549 12.0248C2.20449 11.5468 2.90949 11.3598 3.59349 11.3578C4.27849 11.3598 4.98449 11.5468 5.78249 12.0248C6.57549 12.5018 7.44149 13.2848 8.29949 14.4288L8.30149 14.4308L8.66449 14.9128L8.66249 14.9108C9.80049 16.4238 11.0655 17.6328 12.4725 18.4838C13.8755 19.3338 15.4395 19.8118 17.0245 19.8088C18.6085 19.8118 20.1725 19.3338 21.5745 18.4838C22.9815 17.6328 24.2475 16.4238 25.3845 14.9108L25.3875 14.9068L25.6665 14.5348L25.6635 14.5388C26.5215 13.3948 27.3875 12.6108 28.1805 12.1338C28.9785 11.6568 29.6845 11.4698 30.3705 11.4668C31.0625 11.4698 31.7785 11.6608 32.5885 12.1528C33.3935 12.6438 34.2725 13.4508 35.1415 14.6268C36.2855 16.1738 37.5625 17.4108 38.9835 18.2818C40.4005 19.1528 41.9825 19.6428 43.5885 19.6398C45.1935 19.6428 46.7755 19.1528 48.1925 18.2818C49.6145 17.4108 50.8905 16.1738 52.0355 14.6258C52.9025 13.4498 53.7825 12.6438 54.5865 12.1528C55.3965 11.6608 56.1115 11.4698 56.8055 11.4668C57.4905 11.4698 58.1955 11.6558 58.9935 12.1338C59.7875 12.6108 60.6545 13.3948 61.5135 14.5398L61.7735 14.8858C62.9105 16.3988 64.1765 17.6078 65.5835 18.4588C66.9855 19.3088 68.5505 19.7858 70.1345 19.7838C71.7185 19.7858 73.2825 19.3088 74.6845 18.4578C76.0925 17.6068 77.3575 16.3988 78.4945 14.8848L78.4915 14.8898L78.8065 14.4708L78.8095 14.4668C79.6685 13.3238 80.5345 12.5408 81.3275 12.0638C82.1255 11.5858 82.8305 11.3988 83.5155 11.3958C84.2005 11.3988 84.9055 11.5858 85.7045 12.0638C86.4975 12.5408 87.3635 13.3238 88.2205 14.4668L88.4275 14.7428C89.5645 16.2548 90.8305 17.4638 92.2375 18.3148C93.6395 19.1648 95.2045 19.6428 96.7895 19.6398C98.3735 19.6428 99.9365 19.1648 101.339 18.3148C102.746 17.4638 104.01 16.2548 105.148 14.7428L105.571 14.1808C106.429 13.0358 107.295 12.2528 108.089 11.7748C108.886 11.2978 109.592 11.1108 110.277 11.1078C110.962 11.1108 111.667 11.2978 112.465 11.7748C113.258 12.2528 114.124 13.0358 114.982 14.1798L115.189 14.4558C116.326 15.9688 117.592 17.1768 119 18.0278C120.402 18.8778 121.966 19.3548 123.55 19.3528C125.134 19.3548 126.697 18.8778 128.099 18.0278C129.507 17.1768 130.771 15.9688 131.909 14.4558L132.009 14.3248C132.868 13.1798 133.733 12.3958 134.527 11.9188C135.325 11.4418 136.03 11.2548 136.716 11.2518C137.4 11.2548 138.105 11.4418 138.904 11.9188C139.697 12.3958 140.563 13.1798 141.421 14.3228L141.659 14.6398C142.796 16.1528 144.061 17.3608 145.467 18.2118C146.871 19.0618 148.433 19.5398 150.018 19.5368C151.602 19.5398 153.166 19.0618 154.568 18.2118C155.975 17.3618 157.241 16.1528 158.38 14.6408L158.546 14.4188C159.403 13.2768 160.269 12.4928 161.062 12.0158C161.86 11.5378 162.566 11.3508 163.251 11.3488C163.935 11.3508 164.64 11.5378 165.439 12.0158C166.232 12.4928 167.098 13.2768 167.956 14.4198L168.141 14.6658C169.277 16.1778 170.543 17.3868 171.951 18.2378C173.353 19.0878 174.917 19.5648 176.502 19.5618C178.086 19.5648 179.649 19.0878 181.051 18.2378C182.46 17.3868 183.724 16.1778 184.862 14.6658L185.308 14.0698C186.165 12.9288 187.031 12.1448 187.824 11.6678C188.622 11.1898 189.328 11.0028 190.012 10.9998C190.696 11.0028 191.402 11.1898 192.2 11.6678C192.993 12.1448 193.86 12.9288 194.718 14.0718L195.085 14.5578L195.082 14.5548C196.218 16.0678 197.484 17.2768 198.892 18.1278C200.295 18.9778 201.858 19.4548 203.443 19.4518C205.027 19.4548 206.591 18.9778 207.993 18.1278C208.069 18.0818 208.139 18.0238 208.214 17.9768V11.7398C208.193 11.7648 208.169 11.7838 208.149 11.8098C207.291 12.9528 206.425 13.7368 205.632 14.2138C204.833 14.6918 204.128 14.8788 203.443 14.8808C202.758 14.8788 202.052 14.6918 201.255 14.2138C200.461 13.7368 199.595 12.9528 198.737 11.8098L198.735 11.8068L198.371 11.3228C197.234 9.81276 195.969 8.60476 194.562 7.75376C193.16 6.90376 191.596 6.42676 190.012 6.42976C188.427 6.42676 186.865 6.90376 185.463 7.75376C184.054 8.60476 182.789 9.81276 181.651 11.3258L181.205 11.9218C180.349 13.0628 179.483 13.8468 178.689 14.3238C177.891 14.8018 177.186 14.9888 176.502 14.9908C175.816 14.9888 175.111 14.8018 174.312 14.3238C173.519 13.8468 172.654 13.0638 171.796 11.9198L171.61 11.6738C170.474 10.1618 169.209 8.95276 167.801 8.10176C166.399 7.25176 164.835 6.77476 163.251 6.77776C161.666 6.77476 160.102 7.25176 158.7 8.10176C157.293 8.95276 156.027 10.1618 154.889 11.6748L154.724 11.8958C153.867 13.0378 153 13.8208 152.206 14.2988C151.407 14.7768 150.702 14.9628 150.018 14.9658C149.334 14.9628 148.629 14.7768 147.831 14.2988C147.038 13.8218 146.172 13.0378 145.314 11.8948L145.076 11.5778C143.939 10.0648 142.674 8.85676 141.266 8.00576C139.864 7.15476 138.3 6.67776 136.716 6.68076C135.131 6.67776 133.567 7.15476 132.165 8.00476C130.757 8.85576 129.491 10.0648 128.354 11.5778L128.257 11.7078C127.397 12.8528 126.53 13.6368 125.737 14.1138C124.939 14.5918 124.233 14.7788 123.55 14.7818C122.865 14.7788 122.16 14.5918 121.362 14.1138C120.569 13.6368 119.702 12.8528 118.844 11.7098L118.637 11.4348C117.501 9.92176 116.235 8.71276 114.827 7.86176C113.425 7.01176 111.861 6.53376 110.277 6.53676C108.692 6.53376 107.129 7.01176 105.726 7.86176C104.318 8.71276 103.052 9.92176 101.916 11.4358L101.493 11.9968C100.636 13.1408 99.7695 13.9238 98.9765 14.4008C98.1785 14.8788 97.4725 15.0658 96.7895 15.0688C96.1035 15.0658 95.3975 14.8788 94.5995 14.4008C93.8065 13.9238 92.9405 13.1408 92.0835 11.9978L91.8765 11.7218C90.7395 10.2098 89.4735 9.00076 88.0665 8.14976C86.6635 7.29976 85.0995 6.82276 83.5155 6.82476C81.9305 6.82276 80.3675 7.29976 78.9655 8.14976C77.5565 9.00076 76.2925 10.2088 75.1545 11.7228L75.1575 11.7178L74.8425 12.1368L74.8395 12.1408C73.9815 13.2838 73.1155 14.0678 72.3225 14.5448C71.5235 15.0228 70.8185 15.2098 70.1345 15.2128C69.4495 15.2098 68.7435 15.0228 67.9455 14.5448C67.1525 14.0678 66.2865 13.2838 65.4285 12.1408L65.1685 11.7938C64.0295 10.2798 62.7625 9.07076 61.3555 8.21976C59.9535 7.36976 58.3885 6.89276 56.8055 6.89576C55.2005 6.89276 53.6165 7.38276 52.2005 8.25376C50.7785 9.12476 49.5035 10.3618 48.3595 11.9088C47.4905 13.0848 46.6125 13.8918 45.8065 14.3828C44.9975 14.8738 44.2815 15.0658 43.5885 15.0688C42.8945 15.0658 42.1795 14.8748 41.3695 14.3828C40.5645 13.8918 39.6855 13.0858 38.8175 11.9098C37.6725 10.3608 36.3955 9.12476 34.9735 8.25276C33.5565 7.38276 31.9745 6.89276 30.3705 6.89576C28.7855 6.89276 27.2215 7.36976 25.8185 8.22076C24.4115 9.07176 23.1455 10.2798 22.0085 11.7938L22.0065 11.7968L21.7275 12.1688L21.7295 12.1658C20.8725 13.3088 20.0055 14.0928 19.2125 14.5708C18.4145 15.0488 17.7095 15.2348 17.0245 15.2378C16.3395 15.2348 15.6345 15.0488 14.8355 14.5708C14.0425 14.0928 13.1755 13.3098 12.3175 12.1658L12.3155 12.1628L11.9525 11.6808L11.9545 11.6838C10.8175 10.1708 9.55149 8.96176 8.14449 8.11076C6.74249 7.26076 5.17749 6.78376 3.59349 6.78676C2.36049 6.78476 1.14149 7.08076 0.000488281 7.60976V13.1538C0.481488 12.6768 0.955488 12.2958 1.40549 12.0248" fill="#F9A471"/></g><g id="Group 7"><path id="Fill 5" fill-rule="evenodd" clip-rule="evenodd" d="M1.40549 30.1659C2.20449 29.6879 2.90949 29.5009 3.59349 29.4989C4.27849 29.5009 4.98449 29.6879 5.78249 30.1659C6.57549 30.6429 7.44149 31.4259 8.29949 32.5699L8.66249 33.0529C9.79949 34.5649 11.0635 35.7729 12.4685 36.6239C13.8715 37.4749 15.4335 37.9529 17.0185 37.9499C18.6025 37.9529 20.1665 37.4759 21.5695 36.6259C22.9775 35.7749 24.2445 34.5669 25.3845 33.0529L25.6635 32.6819C26.5215 31.5369 27.3875 30.7529 28.1805 30.2759C28.9795 29.7979 29.6845 29.6109 30.3705 29.6079C31.0625 29.6109 31.7775 29.8029 32.5885 30.2949C33.3925 30.7859 34.2725 31.5929 35.1405 32.7689C36.2865 34.3159 37.5625 35.5529 38.9835 36.4239C40.4005 37.2939 41.9835 37.7839 43.5885 37.7809C45.1935 37.7839 46.7755 37.2939 48.1925 36.4239C49.6145 35.5529 50.8895 34.3159 52.0355 32.7679L52.0505 32.7489C52.9125 31.5839 53.7865 30.7819 54.5865 30.2939C55.3965 29.8019 56.1115 29.6109 56.8055 29.6079C57.4905 29.6109 58.1955 29.7969 58.9935 30.2749C59.7875 30.7519 60.6545 31.5359 61.5135 32.6809L61.5095 32.6759L61.7705 33.0239L61.7735 33.0279C62.9105 34.5409 64.1765 35.7489 65.5835 36.5999C66.9855 37.4509 68.5505 37.9279 70.1345 37.9249C71.7185 37.9279 73.2825 37.4509 74.6845 36.5999C76.0925 35.7489 77.3565 34.5409 78.4945 33.0279L78.8095 32.6089C79.6685 31.4649 80.5345 30.6819 81.3275 30.2049C82.1255 29.7269 82.8305 29.5399 83.5155 29.5369C84.2005 29.5399 84.9055 29.7269 85.7045 30.2049C86.4975 30.6819 87.3635 31.4649 88.2205 32.6079L88.4275 32.8839C89.5645 34.3959 90.8305 35.6049 92.2375 36.4559C93.6395 37.3059 95.2045 37.7839 96.7895 37.7809C98.3735 37.7839 99.9365 37.3059 101.339 36.4559C102.746 35.6049 104.01 34.3959 105.148 32.8839L105.571 32.3219C106.429 31.1779 107.295 30.3949 108.089 29.9169C108.886 29.4399 109.592 29.2529 110.277 29.2499C110.962 29.2529 111.667 29.4399 112.465 29.9169C113.258 30.3949 114.124 31.1779 114.982 32.3209L115.189 32.5969C116.326 34.1099 117.592 35.3179 119 36.1689C120.402 37.0189 121.966 37.4959 123.55 37.4939C125.134 37.4959 126.697 37.0189 128.099 36.1689C129.507 35.3179 130.771 34.1099 131.909 32.5969L132.009 32.4659C132.868 31.3209 133.733 30.5369 134.527 30.0599C135.325 29.5829 136.03 29.3959 136.716 29.3929C137.4 29.3959 138.105 29.5829 138.904 30.0599C139.697 30.5369 140.563 31.3209 141.421 32.4639L141.659 32.7809C142.796 34.2939 144.061 35.5019 145.467 36.3529C146.871 37.2029 148.433 37.6809 150.018 37.6779C151.602 37.6809 153.166 37.2029 154.568 36.3529C155.975 35.5029 157.241 34.2939 158.38 32.7819L158.546 32.5599C159.403 31.4179 160.269 30.6339 161.062 30.1569C161.86 29.6789 162.566 29.4919 163.251 29.4899C163.935 29.4919 164.64 29.6789 165.439 30.1569C166.232 30.6339 167.098 31.4179 167.956 32.5609L168.141 32.8069C169.277 34.3189 170.543 35.5279 171.951 36.3789C173.353 37.2289 174.917 37.7059 176.502 37.7029C178.086 37.7059 179.649 37.2289 181.051 36.3789C182.46 35.5279 183.724 34.3189 184.862 32.8059L185.308 32.2109C186.165 31.0699 187.031 30.2859 187.824 29.8089C188.622 29.3309 189.328 29.1439 190.012 29.1409C190.696 29.1439 191.402 29.3309 192.2 29.8089C192.993 30.2859 193.86 31.0699 194.718 32.2129L195.085 32.6989L195.082 32.6959C196.218 34.2089 197.484 35.4179 198.892 36.2689C200.295 37.1199 201.858 37.5969 203.443 37.5939C205.027 37.5969 206.591 37.1199 207.993 36.2689C208.069 36.2229 208.139 36.1659 208.214 36.1179V29.8809C208.193 29.9059 208.169 29.9259 208.149 29.9519C207.29 31.0949 206.425 31.8789 205.632 32.3559C204.833 32.8339 204.128 33.0209 203.443 33.0239C202.758 33.0209 202.052 32.8339 201.255 32.3559C200.461 31.8789 199.595 31.0949 198.737 29.9519L198.735 29.9479L198.371 29.4639C197.234 27.9539 195.969 26.7459 194.562 25.8949C193.16 25.0449 191.596 24.5679 190.012 24.5709C188.427 24.5679 186.865 25.0449 185.463 25.8949C184.054 26.7459 182.789 27.9539 181.651 29.4669L181.205 30.0629C180.349 31.2039 179.483 31.9879 178.689 32.4649C177.891 32.9429 177.186 33.1299 176.502 33.1319C175.816 33.1299 175.111 32.9429 174.312 32.4649C173.519 31.9879 172.654 31.2049 171.796 30.0609L171.61 29.8149C170.474 28.3029 169.209 27.0939 167.801 26.2429C166.399 25.3929 164.835 24.9159 163.251 24.9189C161.666 24.9159 160.102 25.3929 158.7 26.2429C157.293 27.0939 156.027 28.3029 154.889 29.8159L154.724 30.0369C153.867 31.1789 153 31.9619 152.206 32.4399C151.407 32.9179 150.702 33.1039 150.018 33.1069C149.334 33.1039 148.629 32.9179 147.831 32.4399C147.038 31.9629 146.172 31.1789 145.314 30.0359L145.076 29.7189C143.939 28.2059 142.674 26.9979 141.266 26.1469C139.864 25.2959 138.3 24.8189 136.716 24.8219C135.131 24.8189 133.567 25.2959 132.165 26.1459C130.757 26.9979 129.491 28.2059 128.354 29.7189L128.257 29.8489C127.397 30.9939 126.53 31.7779 125.737 32.2549C124.939 32.7329 124.233 32.9199 123.55 32.9229C122.865 32.9199 122.16 32.7329 121.362 32.2549C120.569 31.7779 119.702 30.9939 118.844 29.8509L118.637 29.5759C117.501 28.0629 116.235 26.8549 114.827 26.0039C113.425 25.1539 111.861 24.6759 110.277 24.6789C108.692 24.6759 107.129 25.1539 105.726 26.0039C104.318 26.8549 103.052 28.0629 101.916 29.5759L101.493 30.1379C100.636 31.2819 99.7695 32.0649 98.9765 32.5429C98.1785 33.0199 97.4725 33.2069 96.7895 33.2099C96.1035 33.2069 95.3975 33.0199 94.5995 32.5429C93.8065 32.0649 92.9405 31.2819 92.0835 30.1389L91.8765 29.8629C90.7395 28.3509 89.4735 27.1419 88.0665 26.2909C86.6635 25.4409 85.0995 24.9639 83.5155 24.9659C81.9305 24.9639 80.3675 25.4409 78.9655 26.2909C77.5565 27.1419 76.2925 28.3499 75.1545 29.8639L74.8405 30.2819C73.9825 31.4259 73.1155 32.2099 72.3225 32.6869C71.5235 33.1649 70.8185 33.3509 70.1345 33.3539C69.4495 33.3509 68.7435 33.1649 67.9455 32.6869C67.1525 32.2099 66.2865 31.4259 65.4285 30.2829L65.4315 30.2869L65.1715 29.9379L65.1675 29.9339C64.0295 28.4209 62.7625 27.2119 61.3555 26.3609C59.9535 25.5109 58.3885 25.0339 56.8055 25.0369C55.2005 25.0339 53.6165 25.5239 52.2005 26.3949C50.7785 27.2659 49.5035 28.5029 48.3595 30.0499L48.3445 30.0699C47.4815 31.2349 46.6075 32.0359 45.8065 32.5239C44.9975 33.0159 44.2815 33.2079 43.5885 33.2099C42.8945 33.2079 42.1795 33.0159 41.3695 32.5239C40.5645 32.0339 39.6845 31.2269 38.8175 30.0519C37.6725 28.5029 36.3955 27.2669 34.9735 26.3949C33.5565 25.5249 31.9745 25.0349 30.3705 25.0369C28.7855 25.0349 27.2215 25.5119 25.8185 26.3619C24.4115 27.2139 23.1455 28.4229 22.0085 29.9369L21.7295 30.3069C20.8715 31.4499 20.0035 32.2339 19.2095 32.7119C18.4105 33.1899 17.7035 33.3759 17.0185 33.3789C16.3355 33.3759 15.6315 33.1899 14.8335 32.7119C14.0415 32.2339 13.1755 31.4509 12.3175 30.3079L11.9545 29.8249C10.8175 28.3119 9.55149 27.1029 8.14449 26.2519C6.74249 25.4019 5.17749 24.9249 3.59349 24.9279C2.36049 24.9259 1.14149 25.2219 0.000488281 25.7509V31.2949C0.481488 30.8179 0.955488 30.4369 1.40549 30.1659" fill="#F9A471"/></g><g id="Group 10"><path id="Fill 8" fill-rule="evenodd" clip-rule="evenodd" d="M1.40549 48.3073C2.20449 47.8293 2.90949 47.6423 3.59349 47.6403C4.27849 47.6423 4.98449 47.8293 5.78249 48.3073C6.57549 48.7843 7.44149 49.5673 8.29949 50.7113L8.66249 51.1943C9.79949 52.7063 11.0635 53.9143 12.4685 54.7653C13.8715 55.6163 15.4335 56.0943 17.0185 56.0913C18.6025 56.0943 20.1665 55.6173 21.5695 54.7673C22.9775 53.9163 24.2445 52.7083 25.3845 51.1943L25.6635 50.8233C26.5215 49.6783 27.3875 48.8953 28.1805 48.4173C28.9785 47.9393 29.6845 47.7533 30.3695 47.7503C31.0615 47.7533 31.7775 47.9443 32.5885 48.4363C33.3925 48.9273 34.2725 49.7343 35.1415 50.9103C36.2855 52.4583 37.5625 53.6943 38.9835 54.5663C40.4005 55.4363 41.9825 55.9263 43.5885 55.9233C45.1935 55.9263 46.7755 55.4363 48.1925 54.5663C49.6145 53.6943 50.8905 52.4583 52.0355 50.9093C52.9025 49.7333 53.7825 48.9273 54.5875 48.4363C55.3975 47.9443 56.1125 47.7523 56.8055 47.7493C57.4905 47.7523 58.1955 47.9393 58.9935 48.4163C59.7875 48.8943 60.6545 49.6773 61.5135 50.8223L61.5095 50.8173L61.7705 51.1653L61.7735 51.1693C62.9105 52.6823 64.1765 53.8903 65.5835 54.7413C66.9855 55.5923 68.5505 56.0693 70.1345 56.0663C71.7185 56.0693 73.2825 55.5923 74.6845 54.7413C76.0925 53.8903 77.3565 52.6823 78.4945 51.1693L78.8095 50.7503C79.6685 49.6063 80.5345 48.8233 81.3275 48.3463C82.1255 47.8683 82.8305 47.6813 83.5155 47.6783C84.2005 47.6813 84.9055 47.8683 85.7045 48.3463C86.4975 48.8233 87.3635 49.6063 88.2205 50.7493L88.4275 51.0253C89.5645 52.5383 90.8305 53.7473 92.2375 54.5983C93.6395 55.4483 95.2045 55.9263 96.7895 55.9233C98.3735 55.9263 99.9365 55.4483 101.339 54.5983C102.746 53.7463 104.011 52.5383 105.148 51.0243L105.571 50.4633C106.429 49.3193 107.295 48.5363 108.089 48.0583C108.886 47.5813 109.592 47.3943 110.277 47.3913C110.962 47.3943 111.667 47.5813 112.465 48.0583C113.258 48.5363 114.124 49.3193 114.982 50.4623L115.189 50.7383C116.326 52.2513 117.592 53.4593 119 54.3103C120.402 55.1603 121.966 55.6373 123.55 55.6353C125.134 55.6373 126.697 55.1603 128.099 54.3103C129.507 53.4593 130.771 52.2513 131.909 50.7383L132.001 50.6193L132.009 50.6063C132.868 49.4633 133.733 48.6803 134.527 48.2033C135.325 47.7253 136.03 47.5383 136.716 47.5363C137.4 47.5383 138.105 47.7253 138.904 48.2033C139.697 48.6803 140.563 49.4633 141.421 50.6063L141.424 50.6113L141.662 50.9263L141.659 50.9223C142.796 52.4353 144.061 53.6433 145.467 54.4943C146.871 55.3443 148.433 55.8223 150.018 55.8193C151.602 55.8223 153.166 55.3443 154.568 54.4943C155.975 53.6443 157.241 52.4353 158.38 50.9233L158.546 50.7013C159.403 49.5593 160.269 48.7753 161.062 48.2983C161.86 47.8203 162.566 47.6333 163.251 47.6313C163.935 47.6333 164.64 47.8203 165.439 48.2983C166.232 48.7753 167.098 49.5593 167.956 50.7023L168.141 50.9483C169.277 52.4603 170.543 53.6693 171.951 54.5203C173.353 55.3713 174.917 55.8483 176.502 55.8453C178.086 55.8483 179.649 55.3713 181.051 54.5203C182.46 53.6693 183.725 52.4603 184.862 50.9473L185.306 50.3553C186.165 49.2123 187.031 48.4283 187.824 47.9503C188.623 47.4723 189.328 47.2863 190.012 47.2833C190.696 47.2863 191.402 47.4723 192.2 47.9503C192.992 48.4283 193.86 49.2123 194.717 50.3563L194.719 50.3583L195.085 50.8423L195.082 50.8393C196.218 52.3523 197.484 53.5603 198.892 54.4113C200.295 55.2613 201.858 55.7393 203.443 55.7363C205.027 55.7393 206.591 55.2613 207.993 54.4113C208.069 54.3653 208.139 54.3083 208.214 54.2603V48.0233C208.193 48.0483 208.169 48.0683 208.149 48.0943C207.291 49.2373 206.425 50.0203 205.632 50.4983C204.833 50.9753 204.128 51.1623 203.443 51.1653C202.758 51.1623 202.052 50.9753 201.255 50.4983C200.461 50.0203 199.595 49.2373 198.737 48.0943L198.735 48.0903L198.371 47.6073L198.373 47.6103C197.234 46.0973 195.969 44.8883 194.562 44.0373C193.16 43.1873 191.596 42.7093 190.012 42.7123C188.427 42.7093 186.865 43.1873 185.463 44.0373C184.054 44.8883 182.789 46.0973 181.651 47.6103L181.207 48.2023C180.348 49.3463 179.483 50.1303 178.689 50.6073C177.891 51.0853 177.186 51.2723 176.502 51.2753C175.816 51.2723 175.111 51.0853 174.312 50.6073C173.519 50.1303 172.654 49.3463 171.796 48.2033L171.61 47.9563C170.474 46.4443 169.209 45.2353 167.801 44.3843C166.399 43.5343 164.835 43.0573 163.251 43.0603C161.666 43.0573 160.102 43.5343 158.7 44.3843C157.293 45.2353 156.027 46.4443 154.889 47.9573L154.724 48.1783C153.867 49.3203 153 50.1033 152.206 50.5813C151.407 51.0593 150.702 51.2453 150.018 51.2483C149.334 51.2453 148.629 51.0593 147.831 50.5813C147.038 50.1043 146.172 49.3203 145.314 48.1773L145.311 48.1733L145.073 47.8573L145.076 47.8623C143.939 46.3493 142.674 45.1403 141.266 44.2893C139.864 43.4393 138.3 42.9623 136.716 42.9653C135.131 42.9623 133.567 43.4393 132.165 44.2893C130.757 45.1403 129.491 46.3493 128.354 47.8623L128.263 47.9843V47.9813L128.256 47.9923C127.397 49.1353 126.53 49.9193 125.737 50.3963C124.939 50.8743 124.233 51.0613 123.55 51.0643C122.865 51.0613 122.16 50.8743 121.362 50.3963C120.569 49.9193 119.702 49.1353 118.844 47.9923L118.637 47.7173C117.501 46.2043 116.235 44.9963 114.827 44.1453C113.425 43.2953 111.861 42.8173 110.277 42.8203C108.692 42.8173 107.129 43.2953 105.726 44.1453C104.318 44.9963 103.052 46.2043 101.916 47.7173L101.493 48.2793C100.635 49.4233 99.7695 50.2073 98.9765 50.6843C98.1785 51.1623 97.4725 51.3493 96.7895 51.3523C96.1035 51.3493 95.3975 51.1623 94.5995 50.6843C93.8065 50.2073 92.9405 49.4243 92.0835 48.2803L91.8765 48.0043C90.7395 46.4923 89.4735 45.2833 88.0665 44.4323C86.6635 43.5823 85.0995 43.1053 83.5155 43.1073C81.9305 43.1053 80.3675 43.5823 78.9655 44.4323C77.5565 45.2833 76.2925 46.4913 75.1545 48.0053L74.8405 48.4233C73.9825 49.5673 73.1155 50.3513 72.3225 50.8283C71.5235 51.3063 70.8185 51.4923 70.1345 51.4953C69.4495 51.4923 68.7435 51.3063 67.9455 50.8283C67.1525 50.3513 66.2865 49.5673 65.4285 48.4243L65.4315 48.4283L65.1715 48.0793L65.1675 48.0753C64.0295 46.5623 62.7625 45.3533 61.3555 44.5033C59.9535 43.6533 58.3885 43.1763 56.8055 43.1783C55.2005 43.1763 53.6165 43.6663 52.2015 44.5373C50.7795 45.4083 49.5035 46.6453 48.3585 48.1933C47.4905 49.3693 46.6125 50.1763 45.8065 50.6663C44.9975 51.1583 44.2815 51.3503 43.5885 51.3523C42.8945 51.3503 42.1795 51.1583 41.3695 50.6663C40.5645 50.1763 39.6855 49.3693 38.8175 48.1933C37.6715 46.6443 36.3945 45.4083 34.9725 44.5373C33.5565 43.6663 31.9735 43.1763 30.3695 43.1793C28.7845 43.1763 27.2215 43.6543 25.8185 44.5043C24.4115 45.3553 23.1455 46.5643 22.0085 48.0783L21.7295 48.4483C20.8715 49.5913 20.0035 50.3753 19.2095 50.8533C18.4105 51.3313 17.7035 51.5173 17.0185 51.5203C16.3355 51.5173 15.6315 51.3313 14.8335 50.8533C14.0415 50.3753 13.1755 49.5923 12.3175 48.4493L11.9545 47.9663C10.8175 46.4533 9.55149 45.2443 8.14449 44.3933C6.74249 43.5433 5.17749 43.0663 3.59349 43.0693C2.36049 43.0673 1.14149 43.3633 0.000488281 43.8923V49.4363C0.481488 48.9593 0.955488 48.5783 1.40549 48.3073" fill="#F9A471"/></g></g></g></g></g></g></svg>