<svg viewBox="97.31282722513089 43.3125 110.31413612565449 275.625" fill="none" xmlns="http://www.w3.org/2000/svg" xmlns:xlink="http://www.w3.org/1999/xlink" overflow="visible" width="110.31413612565449px" height="275.625px"><g id="Master/Worms/Mol"><g id="Body/Mol" transform="translate(99.918 45.84) scale(1 1)"><g id="Body/Mol/Yellow"><g id="Group 11"><g id="Group 3"><path id="Fill 1" fill-rule="evenodd" clip-rule="evenodd" d="M7.2251 70.6674V268.041H96.5611V70.6674C96.5611 45.9984 76.5621 25.9994 51.8931 25.9994C27.2231 25.9994 7.2251 45.9984 7.2251 70.6674Z" fill="#FFCC37"/></g><path id="Fill 4" fill-rule="evenodd" clip-rule="evenodd" d="M49.7115 71.0883C49.7115 84.8163 38.5835 95.9443 24.8555 95.9443C11.1285 95.9443 0.000488281 84.8163 0.000488281 71.0883C0.000488281 57.3603 11.1285 46.2333 24.8555 46.2333C38.5835 46.2333 49.7115 57.3603 49.7115 71.0883" fill="#F9A471"/><g id="Group 8"><path id="Fill 6" fill-rule="evenodd" clip-rule="evenodd" d="M103.786 71.0883C103.786 84.8163 92.6582 95.9443 78.9302 95.9443C65.2032 95.9443 54.0742 84.8163 54.0742 71.0883C54.0742 57.3603 65.2032 46.2333 78.9302 46.2333C92.6582 46.2333 103.786 57.3603 103.786 71.0883" fill="#F9A471"/></g><path id="Fill 9" fill-rule="evenodd" clip-rule="evenodd" d="M7.2251 268.042H96.4911V123.015H7.2251V268.042Z" fill="#ECB11F"/></g></g></g><g id="Eyes/Mol" transform="translate(127.918 109.84) scale(1 1)"><g id="Eyes/Mol/Angry"><g id="Group 6"><g id="Group 3"><path id="Fill 1" fill-rule="evenodd" clip-rule="evenodd" d="M8.002 14.8913C7.345 14.8913 6.701 14.5673 6.319 13.9743C5.721 13.0453 5.988 11.8083 6.917 11.2093L11.889 8.0063L7.321 4.6043C6.436 3.9443 6.252 2.6913 6.912 1.8053C7.572 0.919305 8.825 0.736305 9.711 1.3963L15.604 5.7863C16.354 6.3453 16.783 7.2363 16.752 8.1713C16.72 9.1063 16.231 9.96731 15.445 10.4743L9.083 14.5723C8.748 14.7873 8.373 14.8913 8.002 14.8913" fill="#101335"/></g><path id="Fill 4" fill-rule="evenodd" clip-rule="evenodd" d="M38.3497 14.8908C37.9457 14.8908 37.5367 14.7688 37.1837 14.5148L31.3037 10.2878C30.5427 9.7418 30.0987 8.8578 30.1157 7.9218C30.1307 6.9868 30.6047 6.1188 31.3827 5.5988L37.7547 1.3378C38.6737 0.723803 39.9157 0.970803 40.5297 1.8888C41.1427 2.8068 40.8967 4.0488 39.9787 4.6628L34.9797 8.0048L39.5177 11.2668C40.4147 11.9118 40.6197 13.1618 39.9747 14.0578C39.5847 14.6018 38.9717 14.8908 38.3497 14.8908" fill="#101335"/></g></g></g><g id="Mouth/Mol" transform="translate(133.656 123.909) scale(0.9736842105263158 1)"><g id="Mouth/Mol/Laughing"><path id="Mouth" fill-rule="evenodd" clip-rule="evenodd" d="M19.6689 17.833C14.2649 17.833 9.45993 15.867 6.63793 14.024C3.86293 12.212 3.08293 8.49504 4.89593 5.72004C6.69693 2.95904 10.3879 2.17204 13.1599 3.95204C13.4949 4.16004 19.6749 7.90704 24.9259 4.13004C27.6169 2.19604 31.3649 2.80704 33.3009 5.49704C35.2349 8.18704 34.6229 11.937 31.9339 13.872C27.8859 16.784 23.6169 17.833 19.6689 17.833" fill="white"/></g></g><g id="Hair/Mol" transform="translate(88.918 7.84003) scale(1 1)"><g id="Hair/Mol/Mickey Head"><g id="Group 9"><path id="Fill 1" fill-rule="evenodd" clip-rule="evenodd" d="M98.6399 82.2384C90.9879 71.7871 78.1509 64.0038 62.6969 64.0038V64.0038C47.2429 64.0038 34.4059 71.4683 26.7539 82.2384H98.6399Z" fill="#ED6389"/><g id="Group 5"><path id="Fill 3" fill-rule="evenodd" clip-rule="evenodd" d="M107.891 54.7159C107.891 64.1052 100.323 71.7165 90.986 71.7165C81.65 71.7165 74.082 64.1052 74.082 54.7159C74.082 45.3265 81.65 37.7143 90.986 37.7143C100.323 37.7143 107.891 45.3265 107.891 54.7159" fill="#41AFE4"/></g><g id="Group 8"><path id="Fill 6" fill-rule="evenodd" clip-rule="evenodd" d="M51.31 54.7159C51.31 64.1052 43.741 71.7165 34.405 71.7165C25.069 71.7165 17.5 64.1052 17.5 54.7159C17.5 45.3265 25.069 37.7143 34.405 37.7143C43.741 37.7143 51.31 45.3265 51.31 54.7159" fill="#41AFE4"/></g></g></g></g><g id="Clothes/Mol" transform="translate(107.117 168.84) scale(1 1)"><g id="Clothes/Mol/Purple Sprinkles"><g id="Group 43"><path id="Fill 1" fill-rule="evenodd" clip-rule="evenodd" d="M0 146.073H89.336V11.8H0V146.073Z" fill="#BF62A2"/><g id="Group 42"><path id="Fill 2" fill-rule="evenodd" clip-rule="evenodd" d="M20.365 69.1835C21.574 69.9055 22.993 70.1135 24.36 69.7685L39.331 65.9875C40.696 65.6425 41.845 64.7865 42.567 63.5775C43.289 62.3665 43.498 60.9475 43.151 59.5855C42.807 58.2185 41.95 57.0675 40.74 56.3465C39.531 55.6245 38.113 55.4165 36.748 55.7615L21.775 59.5425C20.41 59.8875 19.261 60.7435 18.539 61.9525C18.045 62.7815 17.792 63.7075 17.792 64.6455C17.792 65.0795 17.846 65.5145 17.955 65.9445C18.299 67.3105 19.155 68.4605 20.365 69.1835" fill="#604299"/><path id="Fill 4" fill-rule="evenodd" clip-rule="evenodd" d="M25.1492 79.2302C23.7402 79.2382 22.4182 79.7962 21.4282 80.7992C20.4472 81.7932 19.9082 83.1072 19.9082 84.5042V84.5372L20.0062 99.9792C20.0262 102.886 22.4082 105.235 25.3122 105.216C26.7212 105.208 28.0422 104.65 29.0332 103.648C30.0142 102.654 30.5532 101.34 30.5532 99.9442V99.9092L30.4552 84.4682C30.4452 83.0602 29.8882 81.7402 28.8862 80.7512C27.8832 79.7612 26.5552 79.2202 25.1492 79.2302" fill="#604299"/><path id="Fill 6" fill-rule="evenodd" clip-rule="evenodd" d="M26.9501 29.7523C24.8871 27.7053 21.5431 27.7163 19.4941 29.7773L8.61008 40.7293C7.59008 41.7563 7.08008 43.1013 7.08008 44.4463C7.08008 45.8023 7.59808 47.1583 8.63408 48.1883C10.6961 50.2363 14.0411 50.2263 16.0921 48.1633L26.9751 37.2123C29.0231 35.1503 29.0131 31.8053 26.9501 29.7523" fill="#604299"/><path id="Fill 8" fill-rule="evenodd" clip-rule="evenodd" d="M85.3316 96.2405C83.9526 97.2755 83.2256 98.8595 83.2256 100.465C83.2256 101.566 83.5696 102.677 84.2796 103.624L89.3256 110.346V95.2575C89.2966 95.2525 89.2706 95.2405 89.2406 95.2365C87.8466 95.0375 86.4576 95.3945 85.3316 96.2405" fill="#604299"/><path id="Fill 10" fill-rule="evenodd" clip-rule="evenodd" d="M83.6247 38.0066C82.3497 38.6066 81.3847 39.6666 80.9077 40.9916C80.6957 41.5796 80.5947 42.1816 80.5947 42.7746C80.5947 44.9346 81.9327 46.9656 84.0787 47.7396L89.3257 49.6316V38.4206L87.6557 37.8186C86.3317 37.3396 84.8997 37.4076 83.6247 38.0066" fill="#604299"/><path id="Fill 12" fill-rule="evenodd" clip-rule="evenodd" d="M87.9391 64.2675L79.0371 76.8855C78.5691 77.5495 78.2671 78.2955 78.1401 79.0755C78.0471 79.6455 78.0491 80.2345 78.1501 80.8215C78.3901 82.2105 79.1571 83.4235 80.3051 84.2315C81.4561 85.0445 82.8551 85.3605 84.2441 85.1215C85.6321 84.8815 86.8441 84.1165 87.6571 82.9645L89.3251 80.5995V62.9285C88.7931 63.2835 88.3191 63.7285 87.9391 64.2675" fill="#604299"/><path id="Fill 14" fill-rule="evenodd" clip-rule="evenodd" d="M64.8698 90.555C65.8598 89.553 66.3858 88.245 66.3898 86.818C66.3808 85.409 65.8238 84.088 64.8208 83.097C63.8188 82.107 62.4898 81.568 61.0828 81.577L45.6448 81.676C42.7478 81.694 40.4028 84.056 40.4038 86.953V86.986C40.4228 89.892 42.8038 92.242 45.7108 92.223L61.1488 92.124C62.5578 92.115 63.8798 91.558 64.8698 90.555" fill="#604299"/><path id="Fill 16" fill-rule="evenodd" clip-rule="evenodd" d="M50.4761 61.7151C50.4761 62.2971 50.5731 62.8891 50.7781 63.4691C51.7481 66.2101 54.7681 67.6511 57.5081 66.6811L72.0621 61.5331C73.3911 61.0651 74.4581 60.1061 75.0651 58.8341C75.6731 57.5611 75.7481 56.1291 75.2781 54.8041C74.3091 52.0631 71.2911 50.6211 68.5501 51.5891L53.9921 56.7371C51.8301 57.5011 50.4761 59.5411 50.4761 61.7151" fill="#604299"/><path id="Fill 18" fill-rule="evenodd" clip-rule="evenodd" d="M10.704 79.8591C11.943 79.1891 12.848 78.0761 13.25 76.7261C13.651 75.3781 13.505 73.9511 12.835 72.7121C12.164 71.4731 11.052 70.5681 9.701 70.1671L0 67.2751V78.2801L6.69 80.2741C8.039 80.6761 9.465 80.5291 10.704 79.8591" fill="#604299"/><path id="Fill 20" fill-rule="evenodd" clip-rule="evenodd" d="M26.7589 14.5121C27.1429 13.6501 27.2639 12.7221 27.1639 11.8081H7.71191L19.7979 17.1881C22.4529 18.3691 25.5749 17.1691 26.7589 14.5121" fill="#604299"/><path id="Fill 22" fill-rule="evenodd" clip-rule="evenodd" d="M70.5031 128.724C70.4291 129.085 70.3911 129.447 70.3911 129.807C70.3911 130.824 70.6871 131.82 71.2581 132.689C72.0321 133.867 73.2171 134.673 74.5961 134.959L89.3261 138.013V127.242L76.7381 124.632C73.8901 124.041 71.0941 125.877 70.5031 128.724" fill="#604299"/><path id="Fill 24" fill-rule="evenodd" clip-rule="evenodd" d="M75.4057 107.109C74.8787 104.25 72.1237 102.352 69.2607 102.88L54.0777 105.687C51.5417 106.157 49.7627 108.379 49.7627 110.872C49.7627 111.189 49.7917 111.509 49.8517 111.832C50.1077 113.217 50.8877 114.42 52.0487 115.218C53.2087 116.016 54.6107 116.315 55.9957 116.058L71.1787 113.252C74.0387 112.722 75.9377 109.968 75.4057 107.109" fill="#604299"/><path id="Fill 26" fill-rule="evenodd" clip-rule="evenodd" d="M56.0441 127.946C54.6791 128.29 53.5291 129.146 52.8071 130.356C52.3131 131.184 52.0601 132.11 52.0601 133.049C52.0601 133.483 52.1141 133.919 52.2231 134.35L55.1811 146.065H66.0591L62.4481 131.765C61.7351 128.948 58.8631 127.235 56.0441 127.946" fill="#604299"/><path id="Fill 28" fill-rule="evenodd" clip-rule="evenodd" d="M65.9114 24.829C65.1044 25.984 64.7954 27.385 65.0414 28.772C65.1964 29.641 65.5564 30.439 66.0884 31.113C66.4064 31.515 66.7844 31.872 67.2164 32.174C68.3704 32.98 69.7694 33.288 71.1554 33.042C72.5434 32.796 73.7524 32.024 74.5584 30.869L83.3974 18.208C84.7904 16.212 84.5894 13.59 83.0914 11.808H75.0594C74.9564 11.93 74.8414 12.039 74.7484 12.172L65.9114 24.829Z" fill="#604299"/><path id="Fill 30" fill-rule="evenodd" clip-rule="evenodd" d="M42.5142 142.065C41.5112 141.075 40.1832 140.535 38.7762 140.544L23.3372 140.644C21.9292 140.652 20.6072 141.21 19.6172 142.213C18.6362 143.207 18.0962 144.521 18.0962 145.92V145.953C18.0962 145.991 18.1072 146.027 18.1082 146.065H44.0552C44.0602 145.971 44.0822 145.88 44.0832 145.785C44.0742 144.377 43.5172 143.055 42.5142 142.065" fill="#604299"/><path id="Fill 32" fill-rule="evenodd" clip-rule="evenodd" d="M38.0672 113.815C36.6752 113.598 35.2832 113.936 34.1452 114.766L21.6742 123.868C20.2612 124.899 19.5112 126.506 19.5112 128.135C19.5112 129.213 19.8402 130.301 20.5232 131.236C22.2372 133.584 25.5412 134.101 27.8922 132.388L40.3652 123.284C42.7122 121.568 43.2282 118.263 41.5142 115.917C40.6832 114.778 39.4592 114.032 38.0672 113.815" fill="#604299"/><path id="Fill 34" fill-rule="evenodd" clip-rule="evenodd" d="M58.6342 11.808H48.6182L51.4612 13.52C53.9202 15 57.1092 14.225 58.6342 11.808" fill="#604299"/><path id="Fill 36" fill-rule="evenodd" clip-rule="evenodd" d="M12.949 118.486C15.031 116.456 15.073 113.11 13.044 111.029L2.267 99.9707C1.619 99.3067 0.832 98.8737 0 98.6257V112.757L5.491 118.391C7.519 120.471 10.863 120.515 12.949 118.486" fill="#604299"/><path id="Fill 38" fill-rule="evenodd" clip-rule="evenodd" d="M44.3443 44.5843C45.0563 47.4033 47.9283 49.1193 50.7513 48.4063C53.5683 47.6933 55.2813 44.8183 54.5713 42.0033L50.7913 27.0343C50.0793 24.2143 47.2073 22.5003 44.3843 23.2123C41.9973 23.8163 40.4033 25.9693 40.4033 28.3263C40.4033 28.7513 40.4553 29.1843 40.5643 29.6153L44.3443 44.5843Z" fill="#604299"/><path id="Fill 40" fill-rule="evenodd" clip-rule="evenodd" d="M10.823 138.06C10.66 136.662 9.961 135.41 8.856 134.537C7.751 133.662 6.371 133.271 4.971 133.435C3.572 133.599 2.321 134.298 1.448 135.403L0 137.235V146.065H6.464L9.721 141.945C10.595 140.839 10.987 139.466 10.823 138.06" fill="#604299"/></g></g></g></g></g></svg>