<svg viewBox="426.4000000000001 118.55839416058393 213.2000000000002 466.2408759124088" fill="none" xmlns="http://www.w3.org/2000/svg" xmlns:xlink="http://www.w3.org/1999/xlink" overflow="visible" width="213.2000000000002px" height="466.2408759124088px"><g id="Master/Stickers/Dry Stem"><g id="Group 11"><g id="Group 3"><path id="Fill 1" fill-rule="evenodd" clip-rule="evenodd" d="M619.632 206.244C615.14 206.244 611.501 209.889 611.501 214.387V253.851C611.501 265.387 602.13 274.77 590.61 274.77H584.6V235.814C584.6 231.316 580.96 227.671 576.468 227.671C571.977 227.671 568.337 231.316 568.337 235.814V274.77H562.327C554.586 274.77 547.395 277.157 541.436 281.228V204.599H544.806C565.351 204.599 582.066 187.859 582.066 167.288V139.429C582.066 134.931 578.426 131.286 573.935 131.286C569.443 131.286 565.804 134.931 565.804 139.429V167.288C565.804 178.883 556.384 188.315 544.806 188.315H541.436V159.654C541.436 155.156 537.797 151.512 533.305 151.512C528.817 151.512 525.174 155.156 525.174 159.654V309.664H476.228C466.291 309.664 458.206 301.571 458.206 291.618V282.44C458.749 282.554 459.311 282.619 459.887 282.619H472.045C487.361 282.619 499.821 270.142 499.821 254.808V217.451C499.821 212.957 496.181 209.309 491.69 209.309C487.198 209.309 483.559 212.957 483.559 217.451V254.808C483.559 261.162 478.394 266.334 472.045 266.334H459.887C459.311 266.334 458.749 266.403 458.206 266.517V241.601C458.206 237.107 454.566 233.459 450.075 233.459C445.583 233.459 441.943 237.107 441.943 241.601V291.618C441.943 310.547 457.324 325.949 476.228 325.949H525.174V358.554C525.174 363.052 528.817 366.696 533.305 366.696C537.797 366.696 541.436 363.052 541.436 358.554V311.973C541.436 300.437 550.81 291.054 562.327 291.054H590.61C611.094 291.054 627.763 274.366 627.763 253.851V214.387C627.763 209.889 624.123 206.244 619.632 206.244" fill="#FFCC37"/></g><path id="Fill 4" fill-rule="evenodd" clip-rule="evenodd" d="M502.699 403H561.664V349H502.699V403Z" fill="#775CA6"/><path id="Fill 6" fill-rule="evenodd" clip-rule="evenodd" d="M532.818 539.04C509.038 539.04 489.761 519.741 489.761 495.934C489.761 472.126 509.038 452.827 532.818 452.827C556.598 452.827 575.875 472.126 575.875 495.934C575.875 519.741 556.598 539.04 532.818 539.04M532.681 394C474.727 394 427.744 441.038 427.744 499.059C427.744 533.974 444.773 564.897 470.957 584H594.405C620.59 564.897 637.618 533.974 637.618 499.059C637.618 441.038 590.635 394 532.681 394" fill="#BF62A2"/><path id="Fill 7" fill-rule="evenodd" clip-rule="evenodd" d="M512.526 533.106C517.156 540.186 521.783 547.267 526.413 554.347C530.004 559.835 533.592 565.331 537.183 570.819C524.299 561.606 511.523 552.25 499.071 542.456C478.304 526.124 459.352 508.19 440.271 489.963C436.705 486.558 433.063 483.216 429.322 480C428.306 485.88 427.744 491.913 427.744 498.084C427.744 505.327 428.514 512.387 429.91 519.223C444.066 540.956 458.037 562.823 474.178 583H491.016C469.486 557.905 452.213 529.483 433.968 501.798C441.891 509.436 449.605 517.322 457.687 524.637C477.61 542.662 498.919 559.085 520.618 574.876C524.374 577.609 528.166 580.296 531.946 583H560.664C550.856 567.995 541.047 552.993 531.238 537.992C524.498 537.799 518.143 536.074 512.526 533.106" fill="#ED6389"/><path id="Fill 8" fill-rule="evenodd" clip-rule="evenodd" d="M575.213 495.656C575.213 501.36 574.1 506.796 572.126 511.784C577.437 519.751 582.723 527.738 588.095 535.663C590.911 539.82 593.791 543.924 596.62 548.065C593.509 545.632 590.425 543.159 587.397 540.621C580.16 534.564 573.377 528.088 566.819 521.367C564.244 524.896 561.161 528.006 557.666 530.593C563.36 536.461 569.243 542.139 575.48 547.483C585.6 556.157 596.238 564.173 607.004 572C611.296 567.49 615.183 562.584 618.629 557.351C603.921 536.039 589.374 514.606 575.081 493C575.136 493.883 575.213 494.76 575.213 495.656" fill="#ED6389"/><path id="Fill 9" fill-rule="evenodd" clip-rule="evenodd" d="M475.903 477.297C480.717 484.53 485.535 491.767 490.349 499C490.267 497.932 490.185 496.866 490.185 495.778C490.185 490.157 491.314 484.799 493.313 479.884C486.204 469.205 479.093 458.524 471.984 447.845C480.596 455.71 489.532 463.196 498.465 470.701C501.055 467.185 504.166 464.083 507.697 461.486C498.341 453.66 488.925 445.909 479.989 437.6C474.213 432.232 468.627 426.673 463.163 421C457.849 425.672 452.999 430.846 448.732 436.48C449.271 437.29 449.812 438.102 450.35 438.912C458.87 451.708 467.386 464.504 475.903 477.297" fill="#ED6389"/><path id="Fill 10" fill-rule="evenodd" clip-rule="evenodd" d="M551.089 456.702C542.341 443.368 533.671 429.985 525.089 416.543C523.87 414.637 522.691 412.715 521.479 410.808C524.387 413.772 527.278 416.752 530.163 419.725C542.575 432.529 555.234 444.776 568.855 456.292C588.288 472.726 606.515 490.605 625.223 507.849C628.439 510.81 631.648 513.949 634.949 517C636.037 510.946 636.618 504.713 636.618 498.344C636.618 493.081 636.219 487.908 635.472 482.85C630.323 475.553 624.992 468.387 619.58 461.289C604.173 441.084 588.096 421.42 572.201 401.606C565.344 398.749 558.116 396.615 550.615 395.265C552.07 397.107 553.532 398.935 554.981 400.766C562.693 410.509 570.541 420.145 578.338 429.822C593.826 449.051 609.318 468.377 623.569 488.569C618.031 483.419 612.489 478.283 606.944 473.146C585.582 453.348 563.07 434.943 542.754 414.035C536.202 407.289 529.653 400.545 522.932 394C514.531 394.719 506.416 396.44 498.701 399.032C509.908 416.862 521.223 434.624 532.716 452.271C539.31 452.356 545.531 453.953 551.089 456.702" fill="#ED6389"/></g></g></svg>