<svg viewBox="180 54.781553398058236 359.99999999999994 269.4174757281554" fill="none" xmlns="http://www.w3.org/2000/svg" xmlns:xlink="http://www.w3.org/1999/xlink" overflow="visible" width="359.99999999999994px" height="269.4174757281554px"><g id="Master/Background/Worm Sunrise"><g id="Background" transform="scale(1 1)"><g id="Background/Sunrise"><g id="Group 10"><path id="Fill 1" fill-rule="evenodd" clip-rule="evenodd" d="M431.846 231.977C456.095 227.516 479.331 217.636 499.368 203.268C505.975 198.531 512.801 192.203 512.847 184.073C512.894 175.603 504.96 168.698 496.606 167.309C488.251 165.92 479.781 168.808 472.129 172.437C457.784 179.241 444.77 188.84 434.034 200.538C430.474 204.416 427.057 208.61 422.455 211.169C417.853 213.728 411.621 214.237 407.629 210.804C400.363 204.557 405.91 192.859 411.486 185.067C421.685 170.814 431.257 155.166 432.803 137.708C433.253 132.619 432.9 127.15 429.964 122.967C425.15 116.108 414.738 115.223 407.255 118.997C399.773 122.771 394.692 129.998 390.524 137.267C385.364 146.268 381.107 155.788 377.839 165.634C375.584 172.432 373.719 179.546 369.48 185.32C365.241 191.093 357.838 195.271 350.951 193.307C343.541 191.196 339.6 183.113 337.93 175.591C334.292 159.204 337.118 141.956 333.956 125.469C330.793 108.984 317.938 91.8489 301.216 93.3229C284.05 94.8359 274.418 115.312 276.405 132.429C278.391 149.547 288.015 164.679 294.025 180.83C297.203 189.371 298.806 200.389 291.94 206.38C286.104 211.471 276.736 209.998 270.435 205.498C264.134 200.997 259.974 194.186 255.255 188.045C248.341 179.049 239.924 171.209 230.46 164.951C223.682 160.468 216.138 156.725 208.039 156.069C199.939 155.412 191.2 158.333 186.507 164.966C180.116 173.999 183.102 187.138 190.309 195.534C197.516 203.93 207.943 208.72 217.99 213.358C226.628 217.345 235.232 221.404 243.804 225.533C249.366 228.211 255.049 231.019 259.251 235.541C263.453 240.064 265.911 246.741 263.798 252.54C259.739 263.684 244.269 263.611 232.469 262.427C221.499 261.327 209.97 261.149 199.979 265.81C189.988 270.47 182.089 281.219 183.981 292.081C186.402 305.97 203.072 313.039 217.078 311.42C231.084 309.803 451.043 309.006 457.831 310.717C477.981 315.796 500.056 315.649 518.777 306.63C527.998 302.189 536.971 294.247 537.131 284.013C537.353 269.86 521.307 261.332 507.328 259.111C494.083 257.005 480.43 257.503 467.374 260.569C457.653 262.851 447.892 266.57 437.99 265.288C428.087 264.005 418.169 255.162 420.29 245.404C421.29 240.807 425.041 233.686 431.846 231.977" fill="#FDD7C6"/><path id="Fill 3" fill-rule="evenodd" clip-rule="evenodd" d="M249.562 132.259C246.034 133.208 242.832 130.611 241.393 127.571C239.42 123.404 240.395 118.863 240.249 114.453C240.11 110.26 238.514 105.64 234.385 103.839C232.125 102.854 229.83 103.243 227.462 102.983C225.865 102.807 224.5 101.972 223.473 100.754C220.726 97.4982 221.649 92.6792 224.132 89.5512C224.971 88.4942 225.164 87.0472 224.132 86.0162C223.262 85.1452 221.441 84.9522 220.597 86.0162C217.533 89.8752 215.705 95.1392 217.429 99.9962C219.058 104.592 222.994 107.766 227.901 108.009C230.022 108.113 232.372 107.66 233.822 109.573C235.031 111.167 235.254 113.235 235.262 115.166C235.274 117.89 234.935 120.59 235.23 123.311C235.5 125.807 236.093 128.22 237.258 130.458C239.794 135.33 245.407 138.556 250.891 137.08C253.995 136.245 252.678 131.42 249.562 132.259" fill="#F0D3E6"/><g id="Group 7"><path id="Fill 5" fill-rule="evenodd" clip-rule="evenodd" d="M370.655 110.522C371.137 107.516 370.328 104.674 368.676 102.152C367.243 99.9656 365.36 98.0896 364.098 95.7876C362.098 92.1356 363.626 87.1346 367.405 85.1246C369.893 83.8016 372.921 84.1206 375.302 82.3556C377.794 80.5096 378.738 77.3266 378.552 74.3226C378.152 67.8336 372.785 61.2824 372.01 60.3571C371.18 59.3661 370.358 57.9666 369.29 57.3416C368.008 56.5926 366.686 57.1576 365.87 58.2386C365.415 58.8396 364.96 59.4406 364.506 60.0426C363.755 61.0356 364.266 62.9676 365.403 63.4626C369.651 65.3136 373.003 69.2546 373.524 73.9606C373.771 76.1966 373.311 78.2836 370.962 78.9636C368.517 79.6706 366.087 79.8906 363.936 81.3946C359.84 84.2606 357.608 89.3286 358.359 94.2806C358.721 96.6656 359.924 98.7766 361.352 100.684C362.739 102.539 364.507 104.346 365.387 106.522C367.825 112.553 360.585 116.462 356.044 118.131C354.777 118.597 353.918 119.827 354.298 121.206C354.633 122.427 356.1 123.421 357.373 122.952C363.196 120.811 369.572 117.271 370.655 110.522Z" fill="#F0D3E6"/></g><path id="Fill 8" fill-rule="evenodd" clip-rule="evenodd" d="M458.505 153.481C462.413 155.818 467.489 155.714 471.397 153.415C476.013 150.697 477.362 145.7 478.012 140.723C478.486 137.089 478.821 132.302 482.214 130.084C483.875 128.998 485.583 129.708 487.429 130.421C489.828 131.35 492.294 131.935 494.746 130.82C497.234 129.689 498.677 127.222 499.571 124.75C500.397 122.466 500.536 119.674 502.326 117.877C504.6 115.595 501.066 112.059 498.79 114.342C497.031 116.107 496.182 118.384 495.534 120.743C495.066 122.444 494.683 124.56 493.321 125.818C491.935 127.098 490.091 126.117 488.575 125.529C486.408 124.69 484.13 124.128 481.829 124.807C477.652 126.041 475.044 130.258 474 134.259C472.91 138.437 473.553 143.493 470.978 147.184C468.797 150.311 464.196 151.057 461.028 149.164C458.26 147.508 455.743 151.83 458.505 153.481" fill="#F0D3E6"/></g></g></g></g></svg>