<svg viewBox="36 27.839805825242763 648.0000000000002 323.30097087378647" fill="none" xmlns="http://www.w3.org/2000/svg" xmlns:xlink="http://www.w3.org/1999/xlink" overflow="visible" width="648.0000000000002px" height="323.30097087378647px"><g id="Master/Background/Worm Party"><g id="Background" transform="scale(1 1)"><g id="Background/Party"><g id="Group 9"><g id="Group 3"><path id="Fill 1" fill-rule="evenodd" clip-rule="evenodd" d="M172.115 108.862C172.226 98.9372 172.266 88.6522 168.217 79.5912C164.168 70.5282 154.809 63.0332 144.986 64.4532C133.874 66.0602 127.128 77.8132 124.968 88.8322C122.265 102.614 124.157 117.257 130.275 129.899C117.498 125.36 105.382 118.961 92.3079 115.364C79.2349 111.767 64.5029 111.278 52.8239 118.169C41.1459 125.058 34.2789 140.972 40.6879 152.922C44.6769 160.362 52.5739 164.747 60.2219 168.324C78.0879 176.68 96.9609 182.883 116.301 186.756C87.1069 187.737 58.9349 204.612 44.2929 229.887C39.0069 239.013 35.4609 250.54 40.2659 259.929C44.4829 268.169 53.9339 272.309 62.9959 274.192C88.9489 279.584 115.604 271.59 140.902 263.679C122.953 277.494 119.972 306.431 133.646 324.488C147.319 342.544 174.666 347.876 194.832 337.564C214.998 327.254 226.631 303.176 223.705 280.716C239.64 297.851 262.038 310.356 285.414 309.3C308.789 308.245 331.918 290.87 334.709 267.637C335.435 261.6 334.774 255.243 331.819 249.927C326.277 239.956 314.321 235.814 303.409 232.485C292.713 229.222 282.018 225.96 271.322 222.697C300.479 220.947 328.631 206.325 346.83 183.476C355.57 172.505 362.196 159.258 362.545 145.236C362.893 131.213 355.944 116.514 343.359 110.318C331.719 104.588 317.84 106.819 305.294 110.123C285.018 115.462 265.396 123.277 247.003 133.341C262.8 117.239 277.055 99.6252 289.511 80.8182C294.624 73.0972 299.613 64.5152 299.086 55.2702C298.376 42.8002 287.213 32.7162 275.025 29.9882C262.836 27.2592 250.054 30.5362 238.598 35.5122C208.433 48.6192 183.847 74.0562 171.777 104.65" fill="#D7EFF6"/></g><g id="Group 8"><path id="Fill 6" fill-rule="evenodd" clip-rule="evenodd" d="M651.303 122.67C655.572 120.602 661.743 121.857 664.3 126.041C665.397 127.837 665.894 130.033 665.331 131.981C664.713 134.115 662.706 135.012 660.602 135.469C658.018 136.031 655.311 136.049 652.795 136.917C650.108 137.843 647.852 139.558 646.695 142.207C644.046 148.273 647.778 154.781 653.872 156.661C656.856 157.581 659.811 157.043 662.799 156.471C664.839 156.079 668.031 155.407 669.015 157.821C669.76 159.649 668.876 161.776 667.242 162.949C664.962 164.587 662.416 164.36 659.779 164.673C656.271 165.088 653.859 167.21 652.389 170.367C651.299 172.71 650.694 175.274 650.743 177.866C650.838 182.918 653.568 188.004 658.843 189.101C662.369 189.834 665.711 188.633 669.202 188.368C672.044 188.151 674.412 189.034 675.823 191.614C676.918 193.614 676.857 196.012 675.382 197.806C673.798 199.733 671.188 200.612 668.852 199.952C665.75 199.075 664.426 203.898 667.523 204.774C673.384 206.43 680.286 202.567 681.393 196.427C682.52 190.175 677.894 184.083 671.627 183.396C668.318 183.032 665.153 184.254 661.876 184.36C660.53 184.404 659.355 184.22 658.32 183.577C657.574 183.114 657.103 182.546 656.626 181.66C655.753 180.041 655.552 177.677 655.87 175.788C656.209 173.776 657.109 170.594 659.282 169.824C660.665 169.335 662.296 169.565 663.737 169.388C665.525 169.167 667.239 168.684 668.834 167.83C671.562 166.372 673.665 163.798 674.125 160.701C674.589 157.573 673.527 154.283 670.827 152.464C667.885 150.482 664.326 151.1 661.068 151.728C658.319 152.257 655.633 152.571 653.211 150.856C651.267 149.479 650.334 147.086 651.041 144.783C651.793 142.333 654.134 141.584 656.426 141.158C659.249 140.634 662.114 140.528 664.78 139.361C671.361 136.478 672.005 128.043 668.056 122.693C663.668 116.749 655.282 115.201 648.779 118.353C647.564 118.941 647.239 120.673 647.882 121.774C648.608 123.014 650.084 123.261 651.303 122.67" fill="#F0D3E6"/></g></g></g></g></g></svg>