<svg viewBox="253.41250000000014 131.87956204379554 560.175 426.27737226277384" fill="none" xmlns="http://www.w3.org/2000/svg" xmlns:xlink="http://www.w3.org/1999/xlink" overflow="visible" width="560.175px" height="426.27737226277384px"><g id="Master/Stickers/Skateboard"><g id="Group 39"><path id="Fill 1" fill-rule="evenodd" clip-rule="evenodd" d="M285.818 431.524L301.112 438.255C304.966 441.359 309.463 443 314.116 443H752.805C757.459 443 761.956 441.359 765.809 438.255L781.104 431.524C781.214 431.436 781.33 431.36 781.442 431.278C782.991 420.039 783.811 408.569 783.811 396.905C783.811 258.887 671.726 147 533.462 147C395.197 147 283.111 258.887 283.111 396.905C283.111 408.569 283.93 420.039 285.479 431.278C285.592 431.36 285.709 431.436 285.818 431.524" fill="#B8EBFF"/><path id="Fill 3" fill-rule="evenodd" clip-rule="evenodd" d="M660.346 466H405.574C392.491 466 379.984 462.669 370.987 456.79L359.064 449H706.856L694.933 456.79C685.936 462.669 673.43 466 660.346 466" fill="#775CA6"/><path id="Fill 5" fill-rule="evenodd" clip-rule="evenodd" d="M712.004 263.601C703.704 263.601 696.44 268.004 692.442 274.586C692.658 272.92 692.781 271.225 692.781 269.499C692.781 247.684 674.99 230 653.044 230C631.097 230 613.306 247.684 613.306 269.499C613.306 270.857 613.376 272.198 613.511 273.521C609.837 270.138 604.924 268.067 599.523 268.067C588.151 268.067 578.934 277.23 578.934 288.533C578.934 299.836 588.151 309 599.523 309H712.004C724.616 309 734.84 298.837 734.84 286.3C734.84 273.764 724.616 263.601 712.004 263.601" fill="white"/><g id="Group 9"><path id="Fill 7" fill-rule="evenodd" clip-rule="evenodd" d="M769.143 448.365H296.995C288.181 448.365 279.764 445.337 272.653 439.606L256.193 426.342C252.653 423.488 252.099 418.309 254.955 414.773C257.812 411.237 262.997 410.681 266.539 413.537L282.999 426.802C287.147 430.144 291.987 431.911 296.995 431.911H769.143C774.151 431.911 778.991 430.144 783.138 426.802L799.6 413.537C803.141 410.681 808.326 411.237 811.184 414.773C814.041 418.309 813.487 423.488 809.946 426.342L793.484 439.606C786.374 445.337 777.957 448.365 769.143 448.365" fill="#3A3E5B"/></g><path id="Fill 10" fill-rule="evenodd" clip-rule="evenodd" d="M418.495 359.077C413.475 359.077 408.88 360.881 405.314 363.866C402.908 348.667 388.857 337 371.879 337C353.212 337 338.078 351.103 338.078 368.5C338.078 385.896 353.212 400 371.879 400H418.495C429.83 400 439.018 390.839 439.018 379.539C439.018 368.239 429.83 359.077 418.495 359.077" fill="white"/><g id="Group 14"><path id="Fill 12" fill-rule="evenodd" clip-rule="evenodd" d="M450.119 195.955C450.119 226.862 425.078 251.918 394.189 251.918C363.301 251.918 338.26 226.862 338.26 195.955C338.26 165.048 363.301 139.992 394.189 139.992C425.078 139.992 450.119 165.048 450.119 195.955" fill="#FFCC37"/></g><path id="Fill 15" fill-rule="evenodd" clip-rule="evenodd" d="M371.055 456.791C380.104 462.67 392.683 466 405.84 466H410.034C406.723 459.661 402.403 453.925 397.276 449H359.064L371.055 456.791Z" fill="#4D439B"/><path id="Fill 17" fill-rule="evenodd" clip-rule="evenodd" d="M694.865 456.791C685.817 462.67 673.238 466 660.08 466H655.887C659.198 459.661 663.518 453.925 668.644 449H706.856L694.865 456.791Z" fill="#4D439B"/><g id="Group 21"><path id="Fill 19" fill-rule="evenodd" clip-rule="evenodd" d="M406.654 495.808C406.654 526.29 381.959 551 351.495 551C321.032 551 296.336 526.29 296.336 495.808C296.336 465.325 321.032 440.616 351.495 440.616C381.959 440.616 406.654 465.325 406.654 495.808" fill="#F9A471"/></g><path id="Fill 22" fill-rule="evenodd" clip-rule="evenodd" d="M398.041 495.5C398.041 521.733 376.787 543 350.569 543C324.352 543 303.098 521.733 303.098 495.5C303.098 469.267 324.352 448 350.569 448C376.787 448 398.041 469.267 398.041 495.5" fill="#F06647"/><path id="Fill 24" fill-rule="evenodd" clip-rule="evenodd" d="M368.06 496C368.06 505.389 360.453 513 351.07 513C341.687 513 334.08 505.389 334.08 496C334.08 486.611 341.687 479 351.07 479C360.453 479 368.06 486.611 368.06 496" fill="#E0BFDB"/><g id="Group 28"><path id="Fill 26" fill-rule="evenodd" clip-rule="evenodd" d="M769.803 495.808C769.803 526.29 745.134 551 714.702 551C684.272 551 659.604 526.29 659.604 495.808C659.604 465.325 684.272 440.616 714.702 440.616C745.134 440.616 769.803 465.325 769.803 495.808" fill="#F9A471"/></g><path id="Fill 29" fill-rule="evenodd" clip-rule="evenodd" d="M762.822 495.5C762.822 521.733 741.568 543 715.35 543C689.133 543 667.879 521.733 667.879 495.5C667.879 469.267 689.133 448 715.35 448C741.568 448 762.822 469.267 762.822 495.5" fill="#F06647"/><path id="Fill 31" fill-rule="evenodd" clip-rule="evenodd" d="M731.841 496C731.841 505.389 724.234 513 714.851 513C705.468 513 697.861 505.389 697.861 496C697.861 486.611 705.468 479 714.851 479C724.234 479 731.841 486.611 731.841 496" fill="#E0BFDB"/><path id="Fill 33" fill-rule="evenodd" clip-rule="evenodd" d="M297.236 432H361.413C367.292 428.01 372.267 422.454 375.056 416.62C361.305 414.955 351 414.096 333.972 420.31C352.046 413.257 356.019 400.521 362.791 383.13C347.281 388.633 334.976 393.592 322.457 404.973C329.875 389.232 333.967 373.875 331.14 356.71C317.197 368.959 307.802 382.05 302.896 399.933C305.694 379.588 301.541 361.762 287.807 349C284.736 364.605 283.111 380.727 283.111 397.23C283.111 407.718 283.782 418.047 285.047 428.193C288.764 430.686 292.937 432 297.236 432" fill="#4FA480"/><path id="Fill 35" fill-rule="evenodd" clip-rule="evenodd" d="M619.409 462C622.737 462 622.743 456 619.409 456C616.08 456 616.074 462 619.409 462" fill="#BF62A2"/><path id="Fill 37" fill-rule="evenodd" clip-rule="evenodd" d="M679.873 399.09C694.152 415.36 715.645 425.084 737.319 425.077C730.972 426.012 724.878 428.438 719.549 432H768.641C772.95 432 777.132 430.685 780.858 428.19C782.129 418.016 782.811 407.658 782.811 397.14C782.811 380.518 781.166 364.281 778.059 348.569C773.473 340.692 767.883 333.406 761.374 327C758.785 344.54 760.36 362.678 765.935 379.512C750.052 349.542 730.492 336.928 710.152 327.723C710.238 340.945 712.916 355.875 717.891 367.369C723.145 379.508 728.461 388.05 738.315 396.891C721.857 390.845 696.842 394.669 679.873 399.09" fill="#4FA480"/></g></g></svg>