<svg viewBox="93.27500000000009 38.6313868613139 852.8000000000002 532.8467153284673" fill="none" xmlns="http://www.w3.org/2000/svg" xmlns:xlink="http://www.w3.org/1999/xlink" overflow="visible" width="852.8000000000002px" height="532.8467153284673px"><g id="Master/Spot Illustration/Fin in Jello"><g id="Background" transform="translate(113 -30) scale(1.3333333333333333 1.2351351351351352)"><g id="Background/Sunrise"><g id="Group 10"><path id="Fill 1" fill-rule="evenodd" clip-rule="evenodd" d="M431.846 231.977C456.095 227.516 479.331 217.636 499.368 203.268C505.975 198.531 512.801 192.203 512.847 184.073C512.894 175.603 504.96 168.698 496.606 167.309C488.251 165.92 479.781 168.808 472.129 172.437C457.784 179.241 444.77 188.84 434.034 200.538C430.474 204.416 427.057 208.61 422.455 211.169C417.853 213.728 411.621 214.237 407.629 210.804C400.363 204.557 405.91 192.859 411.486 185.067C421.685 170.814 431.257 155.166 432.803 137.708C433.253 132.619 432.9 127.15 429.964 122.967C425.15 116.108 414.738 115.223 407.255 118.997C399.773 122.771 394.692 129.998 390.524 137.267C385.364 146.268 381.107 155.788 377.839 165.634C375.584 172.432 373.719 179.546 369.48 185.32C365.241 191.093 357.838 195.271 350.951 193.307C343.541 191.196 339.6 183.113 337.93 175.591C334.292 159.204 337.118 141.956 333.956 125.469C330.793 108.984 317.938 91.8489 301.216 93.3229C284.05 94.8359 274.418 115.312 276.405 132.429C278.391 149.547 288.015 164.679 294.025 180.83C297.203 189.371 298.806 200.389 291.94 206.38C286.104 211.471 276.736 209.998 270.435 205.498C264.134 200.997 259.974 194.186 255.255 188.045C248.341 179.049 239.924 171.209 230.46 164.951C223.682 160.468 216.138 156.725 208.039 156.069C199.939 155.412 191.2 158.333 186.507 164.966C180.116 173.999 183.102 187.138 190.309 195.534C197.516 203.93 207.943 208.72 217.99 213.358C226.628 217.345 235.232 221.404 243.804 225.533C249.366 228.211 255.049 231.019 259.251 235.541C263.453 240.064 265.911 246.741 263.798 252.54C259.739 263.684 244.269 263.611 232.469 262.427C221.499 261.327 209.97 261.149 199.979 265.81C189.988 270.47 182.089 281.219 183.981 292.081C186.402 305.97 203.072 313.039 217.078 311.42C231.084 309.803 451.043 309.006 457.831 310.717C477.981 315.796 500.056 315.649 518.777 306.63C527.998 302.189 536.971 294.247 537.131 284.013C537.353 269.86 521.307 261.332 507.328 259.111C494.083 257.005 480.43 257.503 467.374 260.569C457.653 262.851 447.892 266.57 437.99 265.288C428.087 264.005 418.169 255.162 420.29 245.404C421.29 240.807 425.041 233.686 431.846 231.977" fill="#FDD7C6"/><path id="Fill 3" fill-rule="evenodd" clip-rule="evenodd" d="M249.562 132.259C246.034 133.208 242.832 130.611 241.393 127.571C239.42 123.404 240.395 118.863 240.249 114.453C240.11 110.26 238.514 105.64 234.385 103.839C232.125 102.854 229.83 103.243 227.462 102.983C225.865 102.807 224.5 101.972 223.473 100.754C220.726 97.4982 221.649 92.6792 224.132 89.5512C224.971 88.4942 225.164 87.0472 224.132 86.0162C223.262 85.1452 221.441 84.9522 220.597 86.0162C217.533 89.8752 215.705 95.1392 217.429 99.9962C219.058 104.592 222.994 107.766 227.901 108.009C230.022 108.113 232.372 107.66 233.822 109.573C235.031 111.167 235.254 113.235 235.262 115.166C235.274 117.89 234.935 120.59 235.23 123.311C235.5 125.807 236.093 128.22 237.258 130.458C239.794 135.33 245.407 138.556 250.891 137.08C253.995 136.245 252.678 131.42 249.562 132.259" fill="#F0D3E6"/><g id="Group 7"><path id="Fill 5" fill-rule="evenodd" clip-rule="evenodd" d="M370.655 110.522C371.137 107.516 370.328 104.674 368.676 102.152C367.243 99.9656 365.36 98.0896 364.098 95.7876C362.098 92.1356 363.626 87.1346 367.405 85.1246C369.893 83.8016 372.921 84.1206 375.302 82.3556C377.794 80.5096 378.738 77.3266 378.552 74.3226C378.152 67.8336 372.785 61.2824 372.01 60.3571C371.18 59.3661 370.358 57.9666 369.29 57.3416C368.008 56.5926 366.686 57.1576 365.87 58.2386C365.415 58.8396 364.96 59.4406 364.506 60.0426C363.755 61.0356 364.266 62.9676 365.403 63.4626C369.651 65.3136 373.003 69.2546 373.524 73.9606C373.771 76.1966 373.311 78.2836 370.962 78.9636C368.517 79.6706 366.087 79.8906 363.936 81.3946C359.84 84.2606 357.608 89.3286 358.359 94.2806C358.721 96.6656 359.924 98.7766 361.352 100.684C362.739 102.539 364.507 104.346 365.387 106.522C367.825 112.553 360.585 116.462 356.044 118.131C354.777 118.597 353.918 119.827 354.298 121.206C354.633 122.427 356.1 123.421 357.373 122.952C363.196 120.811 369.572 117.271 370.655 110.522Z" fill="#F0D3E6"/></g><path id="Fill 8" fill-rule="evenodd" clip-rule="evenodd" d="M458.505 153.481C462.413 155.818 467.489 155.714 471.397 153.415C476.013 150.697 477.362 145.7 478.012 140.723C478.486 137.089 478.821 132.302 482.214 130.084C483.875 128.998 485.583 129.708 487.429 130.421C489.828 131.35 492.294 131.935 494.746 130.82C497.234 129.689 498.677 127.222 499.571 124.75C500.397 122.466 500.536 119.674 502.326 117.877C504.6 115.595 501.066 112.059 498.79 114.342C497.031 116.107 496.182 118.384 495.534 120.743C495.066 122.444 494.683 124.56 493.321 125.818C491.935 127.098 490.091 126.117 488.575 125.529C486.408 124.69 484.13 124.128 481.829 124.807C477.652 126.041 475.044 130.258 474 134.259C472.91 138.437 473.553 143.493 470.978 147.184C468.797 150.311 464.196 151.057 461.028 149.164C458.26 147.508 455.743 151.83 458.505 153.481" fill="#F0D3E6"/></g></g></g><g id="Environment"><g id="Group 61 Copy"><g id="Group 3"><path id="Fill 1" fill-rule="evenodd" clip-rule="evenodd" d="M917.225 475.268H165.36C155.722 475.268 147.908 482.517 147.908 491.459C147.908 500.4 155.722 507.647 165.36 507.647H917.225C926.861 507.647 934.676 500.4 934.676 491.459C934.676 482.517 926.861 475.268 917.225 475.268" fill="#F06647"/></g><g id="Group 6"><path id="Fill 4" fill-rule="evenodd" clip-rule="evenodd" d="M189.475 507.841V507.841C207.234 546.766 233.271 569.199 260.693 569.199H821.868C849.289 569.199 875.327 546.766 893.085 507.841" fill="#BF62A2"/></g><g id="Group 9"><path id="Fill 7" fill-rule="evenodd" clip-rule="evenodd" d="M866.436 507.841V507.841C848.677 546.766 822.639 569.199 795.219 569.199H821.869C849.289 569.199 875.327 546.766 893.086 507.841H866.436Z" fill="#775CA6"/></g><path id="Fill 10" fill-rule="evenodd" clip-rule="evenodd" d="M189.475 507.841C191.501 512.282 193.64 516.496 195.871 520.499H886.689C888.921 516.496 891.06 512.282 893.085 507.841H189.475Z" fill="#943F8B"/><g id="Group 14"><path id="Fill 12" fill-rule="evenodd" clip-rule="evenodd" d="M541.918 159.14C539.405 159.14 536.924 159.315 534.471 159.63C536.924 159.315 539.405 159.14 541.919 159.14H541.918M533.421 159.772C533.352 159.776 533.285 159.78 533.217 159.784C533.285 159.78 533.352 159.776 533.421 159.772M533.168 159.787C533.102 159.792 533.038 159.795 532.974 159.8C533.038 159.795 533.102 159.792 533.168 159.787M532.922 159.804C532.87 159.808 532.818 159.811 532.766 159.815C532.818 159.811 532.869 159.808 532.922 159.804M532.705 159.82C532.646 159.824 532.586 159.829 532.527 159.834C532.586 159.829 532.646 159.824 532.705 159.82M532.45 159.84C532.403 159.844 532.356 159.847 532.31 159.851C532.356 159.847 532.403 159.844 532.45 159.84M532.222 159.86C532.174 159.863 532.127 159.867 532.08 159.871C532.127 159.867 532.174 159.863 532.222 159.86M555.943 160.639C561.105 161.155 572.305 163.929 578.69 168.351C582.136 171.666 585.755 176.771 588.724 185.235C592.98 197.374 604.994 210.038 610.472 221.746C615.396 232.267 611.639 245.232 617.673 255.245C622.226 262.803 631.585 267.217 635.567 275.05C640.363 284.472 635.965 295.674 637.682 305.971C639.838 318.927 651.436 329.29 653.354 342.279C655.109 354.169 648.446 366.596 652.464 378.005C653.776 381.73 656.151 385.046 657.848 388.632C668.769 411.724 649.715 439.074 657.328 463.282C658.545 467.158 660.393 471.253 661.637 475.268H699.508C700.077 473.682 700.317 472.048 700.32 470.379C700.333 461.854 694.128 452.431 693.717 443.898C693.701 443.573 693.695 443.248 693.695 442.922C693.712 434.954 698.445 426.928 698.436 419.29C698.433 417.264 698.097 415.266 697.251 413.302C695.929 410.24 693.48 407.705 691.95 404.726C690.243 401.401 689.792 397.83 689.794 394.156C689.796 389.992 690.383 385.693 690.389 381.468C690.39 379.585 690.277 377.717 689.944 375.883C688.444 367.61 682.556 360.41 681.338 352.097C681.126 350.657 681.058 349.205 681.06 347.749C681.06 345.202 681.266 342.641 681.266 340.098C681.266 338.282 681.16 336.476 680.797 334.69C679.236 327.004 673.199 320.802 670.139 313.517C666.538 304.945 667.206 295.264 663.879 286.599C660.191 276.993 651.914 269.424 647.838 259.955C642.697 248.008 644.376 233.444 635.727 223.392C635.684 223.343 635.64 223.293 635.598 223.244C635.586 223.23 635.574 223.217 635.562 223.202L635.439 223.062C635.427 223.05 635.415 223.038 635.404 223.025C635.372 222.988 635.339 222.951 635.306 222.915C635.292 222.899 635.278 222.883 635.264 222.868C635.223 222.824 635.183 222.779 635.143 222.736L635.101 222.689L635.007 222.588C634.993 222.571 634.978 222.557 634.965 222.542C634.925 222.499 634.885 222.455 634.845 222.413C634.829 222.396 634.811 222.379 634.795 222.361C634.763 222.327 634.73 222.292 634.698 222.259C634.681 222.241 634.665 222.224 634.647 222.207C634.611 222.168 634.576 222.131 634.538 222.093C634.524 222.077 634.506 222.061 634.492 222.045C634.449 222.002 634.408 221.958 634.365 221.916C634.356 221.905 634.346 221.897 634.336 221.885C634.298 221.848 634.26 221.81 634.222 221.772C634.21 221.759 634.198 221.748 634.186 221.736C634.141 221.69 634.097 221.646 634.051 221.6C634.043 221.592 634.035 221.585 634.027 221.578C633.983 221.534 633.939 221.49 633.893 221.447C633.888 221.442 633.885 221.438 633.88 221.433C633.829 221.383 633.779 221.335 633.728 221.286L633.719 221.277C627.575 215.367 619.484 211.977 614.162 205.194C611.207 201.427 609.648 196.897 607.311 192.774C600.357 180.514 590.779 181.603 581.646 170.914C576.597 165.002 562.045 161.249 555.943 160.639M525.455 160.969C525.403 160.981 525.35 160.993 525.296 161.006C525.35 160.993 525.403 160.981 525.455 160.969M525.218 161.025C525.172 161.037 525.122 161.048 525.076 161.06C525.124 161.048 525.172 161.037 525.218 161.025M525.037 161.07C524.973 161.085 524.909 161.101 524.847 161.117C524.909 161.101 524.973 161.085 525.037 161.07M524.808 161.126C515.895 163.359 508.371 167.692 505.368 170.185C503.732 171.543 502.193 173.014 500.644 174.472C498.519 176.118 496.422 177.889 494.355 179.775C493.891 180.095 493.425 180.412 492.938 180.706C488.98 183.094 484.302 184.445 480.699 187.283C473.477 192.969 472.437 202.912 467.176 210.222C461.602 217.963 451.724 222.183 445.513 229.479C445.505 229.489 445.497 229.499 445.489 229.508C445.451 229.552 445.412 229.599 445.375 229.644L445.345 229.678C445.3 229.733 445.255 229.787 445.21 229.843C435.322 241.86 437.714 258.87 432.532 273.203C429.686 281.073 424.548 288.088 421.595 295.923C418.549 303.999 417.916 312.693 415.334 320.908C410.986 334.751 401.185 347.006 398.969 361.277C398.555 363.937 398.415 366.617 398.416 369.306C398.419 375.01 399.054 380.756 399.06 386.445C399.062 389.914 398.832 393.361 398.079 396.765C395.988 406.216 390.019 414.632 387.927 424.083C387.214 427.298 386.962 430.623 386.962 434.007C386.962 442.265 388.469 450.874 388.48 459.095C388.486 464.749 387.788 470.22 385.404 475.268H426.632C429.757 469.611 428.631 462.447 426.441 456.274C424.028 449.479 420.486 442.779 420.636 435.626C420.877 424.022 430.699 414.291 432.364 402.786C433.385 395.741 431.252 388.614 431.529 381.507C432.138 365.903 444.126 352.364 445.858 336.83C447.115 325.552 442.851 313.986 445.591 302.935C448.93 289.459 462.062 279.333 464.78 265.739C466.347 257.906 464.256 249.663 466.394 241.944C469.127 232.077 478.185 224.888 483.098 215.776C486.954 208.628 488.137 200.529 490.906 192.961C494.413 183.366 500.671 174.741 508.686 167.872C512.491 165.53 518.275 162.764 524.808 161.126" fill="#F59EB0"/></g><path id="Fill 15" fill-rule="evenodd" clip-rule="evenodd" d="M699.51 475.268H661.639C661.64 475.272 661.642 475.277 661.643 475.28H426.626C426.629 475.277 426.63 475.272 426.633 475.268H385.404C385.402 475.272 385.4 475.277 385.398 475.28H394.71H402.724H684.743H692.312H699.506C699.507 475.277 699.509 475.272 699.51 475.268" fill="#E73F31"/><path id="Fill 17" fill-rule="evenodd" clip-rule="evenodd" d="M404.583 178.546H404.739H404.583M406.654 178.586C406.701 178.587 406.749 178.589 406.797 178.591C406.749 178.589 406.702 178.587 406.654 178.586M406.806 178.592C419.509 179.111 430.722 184.036 440.256 191.001C437.218 193.738 433.258 195.92 429.361 197.223C420.306 200.255 409.743 201.704 403.769 208.708C398.265 215.164 398.527 224.297 394.966 231.835C387.493 247.655 364.754 253.895 358.277 270.089C353.004 283.269 360.267 299.334 352.6 311.461C346.007 321.89 330.413 325.662 325.085 336.697C318.236 350.88 332.446 366.953 329.784 382.297C327.42 395.905 312.156 406.448 313.563 420.17C314.455 428.86 322.135 436.845 319.898 445.328C317.75 453.468 307.696 457.326 302.589 464.241C300.094 467.613 298.971 471.338 298.59 475.268H356.142C363.552 460.45 356.889 441.205 361.503 425.353C364.215 416.039 370.727 407.978 373.436 398.663C376.766 387.212 374.069 374.906 376.665 363.293C379.82 349.173 390.407 337.498 395.662 323.928C398.781 315.874 399.985 307.233 403.556 299.345C407.022 291.691 412.612 284.981 415.971 277.288C422.089 263.276 420.825 246.162 431.485 234.727C438.157 227.57 448.529 223.925 454.704 216.389C456.436 214.277 457.796 211.901 459.064 209.471C460.461 211.247 461.786 213.034 463.03 214.81C451.051 197.682 431.801 179.611 406.806 178.592M316.151 245.252C311.172 253.129 303.246 259.216 298.684 267.283C303.246 259.216 311.174 253.129 316.151 245.252" fill="#F9C1CC"/><path id="Fill 19" fill-rule="evenodd" clip-rule="evenodd" d="M385.403 475.268V475.268C385.402 475.272 385.399 475.277 385.398 475.28H356.136C356.138 475.276 356.14 475.273 356.142 475.268H298.589C298.588 475.272 298.588 475.277 298.588 475.28H243.831H236.647H231.225C231.225 475.276 231.225 475.272 231.225 475.268C231.225 475.272 231.225 475.276 231.225 475.28H236.647H243.831H385.398C385.399 475.277 385.402 475.272 385.403 475.268" fill="#EA4D39"/><path id="Fill 21" fill-rule="evenodd" clip-rule="evenodd" d="M459.065 209.471C457.796 211.902 456.436 214.278 454.705 216.389C448.53 223.924 438.158 227.571 431.486 234.727C420.826 246.162 422.089 263.276 415.972 277.287C412.613 284.981 407.021 291.692 403.557 299.345C399.986 307.233 398.781 315.874 395.663 323.927C390.408 337.497 379.82 349.173 376.666 363.293C374.07 374.906 376.767 387.212 373.437 398.663C370.728 407.978 364.215 416.04 361.503 425.353C356.889 441.205 363.553 460.451 356.143 475.268H385.404C387.788 470.22 388.488 464.749 388.48 459.094C388.469 450.874 386.963 442.265 386.963 434.007C386.962 430.623 387.215 427.298 387.927 424.082C390.019 414.632 395.988 406.215 398.079 396.765C398.832 393.361 399.062 389.914 399.06 386.445C399.054 380.756 398.419 375.01 398.416 369.306C398.415 366.617 398.555 363.937 398.969 361.277C401.185 347.006 410.986 334.751 415.335 320.908C417.917 312.694 418.549 303.999 421.595 295.923C424.549 288.088 429.686 281.073 432.532 273.203C437.714 258.87 435.324 241.86 445.21 229.843C445.255 229.788 445.3 229.733 445.345 229.678C445.356 229.666 445.365 229.656 445.375 229.644C445.412 229.599 445.451 229.553 445.489 229.508C445.497 229.499 445.505 229.489 445.515 229.479C450.381 223.758 457.494 219.926 463.03 214.81C461.786 213.034 460.461 211.248 459.065 209.471" fill="#F08296"/><path id="Fill 23" fill-rule="evenodd" clip-rule="evenodd" d="M385.404 475.268H356.143C356.141 475.273 356.139 475.276 356.137 475.28H385.398C385.4 475.277 385.402 475.272 385.404 475.268" fill="#E2342A"/><path id="Fill 25" fill-rule="evenodd" clip-rule="evenodd" d="M398.418 369.306C398.419 375.01 399.055 380.756 399.06 386.445C399.055 380.756 398.419 375.01 398.418 369.306M386.963 434.007C386.963 442.265 388.47 450.874 388.48 459.095C388.47 450.874 386.963 442.265 386.963 434.007" fill="#E85168"/><path id="Fill 27" fill-rule="evenodd" clip-rule="evenodd" d="M673.964 178.683C673.897 178.686 673.829 178.691 673.764 178.696C673.831 178.691 673.897 178.686 673.964 178.683M673.629 178.705C673.581 178.709 673.533 178.712 673.485 178.716C673.533 178.712 673.581 178.709 673.629 178.705M673.383 178.723C673.331 178.727 673.28 178.731 673.228 178.736C673.28 178.731 673.331 178.727 673.383 178.723M673.148 178.742C673.048 178.751 672.949 178.758 672.849 178.767C672.948 178.758 673.048 178.751 673.148 178.742M672.766 178.774C672.711 178.778 672.654 178.784 672.599 178.789C672.654 178.784 672.711 178.778 672.766 178.774M672.525 178.795C672.332 178.812 672.142 178.831 671.949 178.851C672.141 178.831 672.333 178.812 672.525 178.795M671.912 178.854C671.846 178.861 671.78 178.867 671.714 178.874C671.78 178.867 671.846 178.861 671.912 178.854M671.698 178.877C671.487 178.898 671.278 178.921 671.069 178.945C671.277 178.921 671.487 178.898 671.698 178.877M671.068 178.945C648.657 181.531 632.661 196.294 621.627 212.117C623.041 210.092 624.538 208.085 626.117 206.115C632.34 210.975 639.909 213.962 645.592 219.743C655.274 229.597 654.604 244.768 660.793 256.801C665.702 266.34 674.818 273.65 679.335 283.351C683.411 292.106 683.427 302.163 687.778 310.801C691.477 318.145 698.175 324.179 700.351 332.031C701.97 337.87 700.887 344.096 702.185 350.002C704.053 358.524 710.671 365.6 712.826 374.063C715.324 383.871 711.709 394.976 717.01 403.772C718.81 406.757 721.53 409.225 723.121 412.31C728.139 422.046 720.424 433.453 721.703 444.178C722.918 454.364 732.242 465.291 730.226 475.268H806.153C804.971 466.761 804.666 457.914 799.648 450.886C796.099 445.914 790.525 442.416 786.969 437.448C777.851 424.711 784.586 407.205 779.562 392.641C774.443 377.803 757.82 367.997 753.783 352.873C749.588 337.154 760.235 319.983 754.265 304.764C750.879 296.13 742.639 289.746 739.089 281.168C736.093 273.93 736.652 265.618 732.835 258.719C725.065 244.68 703.634 242.869 692.189 231.194C683.748 222.587 680.789 208.74 669.212 204.254C666.207 203.09 663.042 202.75 659.804 202.75C657.532 202.75 655.226 202.917 652.911 203.084C650.597 203.251 648.277 203.418 645.978 203.418C644.999 203.418 644.024 203.387 643.055 203.314C639.291 203.029 635.376 201.305 632.519 198.893C642.481 188.759 655.155 180.782 671.068 178.945" fill="#F9C1CC"/><path id="Fill 29" fill-rule="evenodd" clip-rule="evenodd" d="M852.46 475.268V475.268V475.28H846.022H839.853H806.155C806.155 475.277 806.153 475.272 806.153 475.268H730.225C730.225 475.272 730.223 475.276 730.222 475.28H699.504H839.853H846.022H852.46V475.268" fill="#EA4D39"/><path id="Fill 31" fill-rule="evenodd" clip-rule="evenodd" d="M626.117 206.116C624.538 208.085 623.041 210.091 621.627 212.118C625.683 215.112 630.047 217.745 633.719 221.277L633.729 221.285C633.779 221.335 633.83 221.384 633.881 221.432C633.885 221.437 633.89 221.441 633.894 221.446C633.938 221.491 633.983 221.534 634.027 221.577C634.035 221.586 634.043 221.593 634.051 221.601C634.096 221.646 634.142 221.691 634.187 221.737C634.199 221.748 634.211 221.76 634.223 221.772C634.26 221.809 634.299 221.848 634.335 221.886C634.346 221.896 634.356 221.906 634.366 221.916C634.408 221.959 634.45 222.002 634.491 222.044C634.507 222.06 634.523 222.078 634.539 222.094C634.575 222.131 634.612 222.169 634.648 222.206C634.665 222.224 634.681 222.241 634.697 222.259C634.731 222.293 634.763 222.327 634.796 222.362C634.812 222.378 634.829 222.397 634.844 222.414C634.884 222.456 634.924 222.498 634.964 222.541C634.979 222.556 634.993 222.572 635.007 222.587C635.039 222.622 635.069 222.655 635.101 222.688C635.115 222.704 635.129 222.721 635.144 222.735C635.184 222.779 635.224 222.824 635.264 222.868C635.278 222.884 635.292 222.9 635.306 222.915C635.338 222.952 635.372 222.988 635.405 223.025C635.417 223.038 635.426 223.051 635.438 223.063L635.561 223.203C635.574 223.216 635.585 223.23 635.598 223.245C635.641 223.294 635.683 223.344 635.726 223.393C644.377 233.443 642.696 248.008 647.839 259.954C651.915 269.423 660.192 276.994 663.878 286.598C667.205 295.264 666.538 304.946 670.138 313.517C673.2 320.802 679.236 327.005 680.797 334.689C681.159 336.475 681.266 338.283 681.266 340.099C681.267 342.642 681.059 345.202 681.059 347.75C681.059 349.206 681.127 350.656 681.338 352.097C682.557 360.41 688.445 367.609 689.944 375.882C690.276 377.717 690.391 379.585 690.388 381.467C690.384 385.693 689.796 389.991 689.794 394.157C689.791 397.831 690.244 401.4 691.95 404.727C693.479 407.706 695.928 410.24 697.25 413.302C698.098 415.265 698.434 417.264 698.435 419.291C698.444 426.928 693.713 434.955 693.695 442.923C693.694 443.247 693.702 443.572 693.717 443.897C694.128 452.431 700.334 461.855 700.32 470.378C700.318 472.047 700.077 473.681 699.509 475.269H730.224C732.242 465.291 722.918 454.364 721.703 444.178C720.424 433.453 728.138 422.046 723.121 412.31C721.53 409.224 718.81 406.758 717.01 403.772C711.708 394.977 715.324 383.872 712.826 374.062C710.671 365.601 704.053 358.525 702.183 350.002C700.887 344.095 701.97 337.87 700.35 332.03C698.175 324.179 691.477 318.145 687.778 310.802C683.427 302.162 683.411 292.107 679.335 283.352C674.818 273.649 665.702 266.34 660.793 256.8C654.602 244.768 655.274 229.598 645.592 219.743C639.909 213.962 632.339 210.975 626.117 206.116" fill="#F08296"/><path id="Fill 33" fill-rule="evenodd" clip-rule="evenodd" d="M730.225 475.268H699.508C699.507 475.272 699.505 475.277 699.504 475.28H730.222C730.223 475.276 730.225 475.272 730.225 475.268" fill="#E2342A"/><path id="Fill 35" fill-rule="evenodd" clip-rule="evenodd" d="M681.267 340.099C681.267 342.642 681.061 345.202 681.061 347.75C681.061 345.202 681.267 342.642 681.267 340.099M690.389 381.468C690.384 385.693 689.796 389.991 689.794 394.157C689.796 389.991 690.384 385.693 690.389 381.468M698.436 419.291C698.445 426.928 693.712 434.955 693.694 442.922C693.712 434.955 698.445 426.928 698.436 419.291M700.32 470.378C700.317 472.047 700.077 473.681 699.508 475.268C700.077 473.681 700.317 472.047 700.32 470.378" fill="#E85168"/><path id="Fill 37" fill-rule="evenodd" clip-rule="evenodd" d="M678.087 178.546C677.997 178.546 677.905 178.546 677.814 178.546C677.906 178.546 677.997 178.546 678.087 178.546C687.154 178.546 695.843 180.452 704.162 183.948C695.843 180.452 687.154 178.546 678.087 178.546M677.731 178.547C677.663 178.547 677.594 178.547 677.527 178.548C677.594 178.547 677.664 178.547 677.731 178.547M677.449 178.548C677.358 178.55 677.269 178.551 677.177 178.552C677.267 178.551 677.359 178.55 677.449 178.548M677.144 178.553C677.064 178.555 676.986 178.556 676.908 178.557C676.986 178.556 677.064 178.555 677.144 178.553M676.817 178.558C676.75 178.56 676.684 178.562 676.617 178.563C676.684 178.562 676.75 178.56 676.817 178.558M676.546 178.565C676.456 178.567 676.367 178.569 676.279 178.572C676.367 178.569 676.455 178.567 676.546 178.565M676.216 178.573C676.145 178.576 676.077 178.578 676.008 178.581C676.077 178.578 676.145 178.576 676.216 178.573M675.914 178.583C675.85 178.586 675.786 178.588 675.723 178.591C675.787 178.588 675.85 178.586 675.914 178.583M675.641 178.594C675.555 178.597 675.471 178.6 675.387 178.604C675.473 178.6 675.555 178.597 675.641 178.594M675.289 178.608C675.233 178.61 675.178 178.614 675.122 178.616C675.178 178.614 675.233 178.61 675.289 178.608M675.012 178.621L674.832 178.63C674.892 178.628 674.952 178.624 675.012 178.621M674.736 178.635C674.659 178.64 674.58 178.645 674.503 178.649C674.581 178.644 674.657 178.64 674.736 178.635M674.389 178.655C674.34 178.658 674.289 178.661 674.24 178.665L674.389 178.655M674.12 178.672C674.068 178.675 674.016 178.678 673.963 178.682C674.016 178.678 674.068 178.675 674.12 178.672M673.764 178.696C673.72 178.699 673.675 178.702 673.631 178.705C673.675 178.702 673.72 178.699 673.764 178.696M818.839 364.288C818.838 366.428 818.966 368.558 819.326 370.668C820.073 373.065 820.804 375.45 821.522 377.818C826.232 388.578 836.122 397.536 838.996 408.967C839.742 411.937 839.985 414.96 839.982 418.01C839.985 414.96 839.742 411.937 838.996 408.967C836.122 397.536 826.232 388.578 821.522 377.818C820.805 375.45 820.073 373.065 819.326 370.668C818.966 368.558 818.838 366.428 818.839 364.288" fill="white"/><path id="Fill 39" fill-rule="evenodd" clip-rule="evenodd" d="M678.088 178.546C677.998 178.546 677.907 178.546 677.815 178.546C677.787 178.546 677.761 178.546 677.733 178.547C677.666 178.547 677.595 178.547 677.529 178.548C677.502 178.548 677.477 178.548 677.45 178.548C677.361 178.55 677.269 178.551 677.178 178.552C677.168 178.552 677.156 178.552 677.145 178.553C677.065 178.555 676.988 178.556 676.909 178.557C676.878 178.557 676.849 178.558 676.818 178.558C676.752 178.56 676.685 178.562 676.619 178.563C676.595 178.563 676.569 178.565 676.545 178.565C676.455 178.567 676.367 178.57 676.279 178.572L676.216 178.573C676.146 178.576 676.078 178.578 676.008 178.581C675.978 178.582 675.947 178.582 675.915 178.583C675.851 178.586 675.788 178.588 675.725 178.591C675.697 178.592 675.669 178.593 675.642 178.594C675.557 178.597 675.474 178.6 675.389 178.604C675.357 178.605 675.322 178.607 675.29 178.608C675.234 178.61 675.18 178.614 675.124 178.616C675.088 178.618 675.05 178.62 675.013 178.621C674.953 178.624 674.893 178.628 674.833 178.63C674.801 178.633 674.769 178.634 674.737 178.635C674.659 178.64 674.583 178.644 674.504 178.649C674.464 178.651 674.428 178.652 674.389 178.655L674.24 178.665C674.2 178.667 674.161 178.67 674.122 178.672C674.07 178.675 674.018 178.678 673.964 178.682C673.898 178.687 673.832 178.691 673.764 178.696C673.72 178.699 673.675 178.702 673.631 178.705C673.583 178.709 673.534 178.713 673.486 178.715C673.451 178.719 673.418 178.722 673.383 178.724C673.331 178.728 673.279 178.731 673.227 178.735C673.202 178.738 673.174 178.74 673.149 178.743C673.049 178.75 672.95 178.759 672.85 178.767C672.824 178.769 672.793 178.772 672.766 178.775C672.71 178.778 672.654 178.783 672.6 178.788C672.574 178.791 672.55 178.793 672.527 178.796C672.333 178.813 672.141 178.83 671.951 178.85C671.939 178.851 671.926 178.853 671.912 178.854C671.847 178.86 671.782 178.867 671.716 178.875C671.71 178.875 671.704 178.876 671.698 178.876C671.488 178.898 671.278 178.921 671.069 178.945C655.157 180.781 642.483 188.76 632.52 198.894C635.378 201.305 639.291 203.029 643.056 203.314C644.026 203.388 645 203.417 645.979 203.417C648.278 203.417 650.599 203.25 652.912 203.085C655.227 202.917 657.535 202.751 659.805 202.751C663.043 202.751 666.208 203.09 669.213 204.253C680.789 208.739 683.749 222.586 692.19 231.195C703.636 242.869 725.067 244.681 732.835 258.719C736.653 265.617 736.093 273.93 739.09 281.169C742.641 289.746 750.88 296.129 754.266 304.764C760.237 319.982 749.59 337.154 753.785 352.874C757.821 367.998 774.444 377.803 779.564 392.642C784.588 407.204 777.851 424.71 786.971 437.448C790.527 442.415 796.1 445.914 799.648 450.887C804.668 457.914 804.972 466.761 806.154 475.268H852.462C852.465 475.146 852.466 475.025 852.466 474.903C852.497 464.325 843.285 455.632 840.312 445.37C839.378 442.15 839.08 438.856 839.078 435.528C839.077 429.728 839.976 423.823 839.983 418.01C839.986 414.96 839.743 411.937 838.997 408.967C836.123 397.536 826.233 388.578 821.523 377.818C820.804 375.45 820.074 373.065 819.327 370.668C818.967 368.558 818.839 366.428 818.84 364.288C818.847 358.657 819.758 352.948 819.754 347.293C819.753 345.446 819.655 343.604 819.395 341.773C816.838 323.743 799.591 310.556 793.194 293.365C790.104 285.063 789.609 275.953 785.437 268.07C780.956 259.608 772.673 253.383 767.536 245.252C763.536 238.918 761.58 231.649 757.948 225.128C748.368 207.93 721.411 190.505 704.157 183.937L704.163 183.948C695.844 180.452 687.155 178.546 678.088 178.546M804.895 360.142C804.069 355.429 803.124 350.779 801.81 346.274C800.484 341.778 798.771 337.425 796.43 333.498C795.254 331.536 793.901 329.706 792.408 328.022C791.646 327.195 790.862 326.388 790.007 325.663C789.595 325.282 789.142 324.949 788.71 324.592L787.293 323.549C782.983 320.411 779.235 316.343 776.797 311.706C774.295 307.087 773.046 302.129 772.21 297.324C771.381 292.526 770.943 287.694 770.309 283.142C769.653 278.708 767.933 274.367 765.725 270.223C764.618 268.147 763.348 266.132 761.968 264.173C760.612 262.203 759.098 260.293 757.502 258.492L758.253 257.769C762.226 260.936 765.605 264.656 768.486 268.757C771.369 272.852 773.577 277.438 774.822 282.359C775.884 287.184 776.601 291.809 777.7 296.353C778.777 300.872 780.226 305.191 782.392 309.063C784.561 312.931 787.501 316.335 791.136 319.197L792.659 320.448C793.16 320.908 793.681 321.347 794.15 321.833C795.125 322.771 795.999 323.782 796.835 324.812C798.49 326.879 799.843 329.114 800.937 331.415C803.167 336.01 804.405 340.853 805.078 345.672C805.76 350.497 805.837 355.334 805.491 360.115L804.895 360.142" fill="#FBD4DB"/><path id="Fill 41" fill-rule="evenodd" clip-rule="evenodd" d="M852.461 475.268H806.154C806.154 475.272 806.156 475.277 806.156 475.28H839.855H846.023H852.461V475.268" fill="#F08375"/><path id="Fill 43" fill-rule="evenodd" clip-rule="evenodd" d="M758.253 257.769L757.502 258.492C759.098 260.293 760.612 262.203 761.968 264.173C763.348 266.132 764.618 268.147 765.723 270.223C767.933 274.367 769.653 278.708 770.309 283.142C770.943 287.695 771.381 292.526 772.21 297.324C773.046 302.129 774.295 307.087 776.797 311.706C779.235 316.343 782.983 320.411 787.291 323.549L788.709 324.592C789.142 324.949 789.595 325.282 790.007 325.663C790.862 326.388 791.646 327.196 792.408 328.023C793.901 329.706 795.254 331.536 796.43 333.498C798.771 337.426 800.484 341.778 801.81 346.274C803.124 350.779 804.069 355.429 804.895 360.142L805.491 360.116C805.836 355.334 805.76 350.497 805.078 345.672C804.405 340.853 803.167 336.01 800.937 331.415C799.843 329.114 798.49 326.879 796.835 324.812C795.999 323.782 795.124 322.771 794.15 321.833C793.679 321.347 793.16 320.908 792.659 320.448L791.136 319.197C787.501 316.335 784.561 312.931 782.392 309.063C780.226 305.191 778.777 300.872 777.7 296.353C776.601 291.809 775.882 287.184 774.822 282.359C773.577 277.438 771.369 272.852 768.486 268.757C765.605 264.656 762.226 260.936 758.253 257.769" fill="#FEF7F8"/><path id="Fill 45" fill-rule="evenodd" clip-rule="evenodd" d="M404.583 178.546C389.957 178.546 376.313 183.49 363.627 192.11C348.451 200.855 332.809 212.437 325.74 225.128C322.107 231.649 320.152 238.918 316.152 245.252C311.175 253.129 303.246 259.216 298.684 267.283C298.537 267.543 298.393 267.805 298.253 268.07C294.079 275.953 292.526 284.787 290.493 293.365C284.209 319.894 266.85 323.743 264.293 341.773C264.027 343.648 263.93 345.535 263.932 347.427C263.942 353.04 264.837 358.704 264.844 364.293C264.844 364.858 264.836 365.423 264.816 365.987C264.817 366.119 264.818 366.252 264.818 366.385C264.852 388.866 247.116 399.322 244.691 408.967C243.953 411.907 243.706 414.898 243.704 417.915C243.697 423.746 244.596 429.671 244.596 435.49C244.595 437.077 244.528 438.656 244.358 440.224C243.758 442.747 243.185 445.191 242.644 447.544C239.14 456.852 231.242 465.029 231.221 474.814C231.221 474.965 231.222 475.117 231.226 475.268H298.591C298.972 471.338 300.095 467.613 302.589 464.241C307.697 457.326 317.751 453.468 319.899 445.328C322.136 436.845 314.455 428.86 313.564 420.17C312.157 406.448 327.421 395.905 329.784 382.297C332.447 366.953 318.237 350.88 325.086 336.697C330.413 325.663 346.008 321.89 352.601 311.461C360.268 299.334 353.005 283.269 358.277 270.089C364.755 253.896 387.494 247.655 394.966 231.835C398.528 224.297 398.266 215.164 403.77 208.708C409.744 201.704 420.306 200.255 429.362 197.223C433.258 195.92 437.219 193.738 440.257 191.001C430.723 184.036 419.51 179.111 406.807 178.592C406.804 178.592 406.8 178.591 406.796 178.591C406.748 178.589 406.7 178.587 406.654 178.586C406.647 178.584 406.64 178.584 406.634 178.584C406.591 178.583 406.546 178.581 406.502 178.579C406.492 178.579 406.48 178.578 406.471 178.578C406.43 178.577 406.387 178.576 406.345 178.574C406.334 178.573 406.326 178.573 406.315 178.573L406.194 178.57C406.179 178.57 406.167 178.57 406.153 178.568C406.115 178.567 406.079 178.567 406.042 178.566C406.026 178.565 406.01 178.565 405.994 178.565C405.959 178.563 405.925 178.562 405.889 178.562C405.87 178.561 405.854 178.561 405.835 178.561C405.801 178.56 405.766 178.558 405.732 178.558C405.714 178.557 405.697 178.557 405.68 178.557C405.645 178.556 405.609 178.556 405.573 178.555C405.557 178.555 405.541 178.555 405.526 178.553C405.488 178.553 405.453 178.552 405.416 178.552C405.4 178.552 405.384 178.552 405.368 178.551C405.334 178.551 405.301 178.551 405.268 178.55C405.248 178.55 405.229 178.55 405.209 178.55C405.177 178.548 405.144 178.548 405.112 178.548C405.092 178.548 405.072 178.547 405.052 178.547C405.02 178.547 404.988 178.547 404.956 178.547C404.936 178.547 404.916 178.546 404.896 178.546H404.797C404.778 178.546 404.758 178.546 404.739 178.546H404.583M280.366 367.27C280.248 367.27 280.129 367.249 280.013 367.204C279.558 367.032 279.328 366.565 279.476 366.14L279.483 366.121C281.167 361.299 282.099 356.369 282.456 351.33C282.658 348.807 282.758 346.231 283.094 343.588C283.422 340.948 284.046 338.25 285.072 335.68C285.567 334.383 286.199 333.155 286.838 331.918C287.558 330.628 288.431 329.431 289.381 328.324C291.293 326.11 293.504 324.298 295.637 322.602C299.92 319.231 303.962 316.118 306.332 312.341C308.745 308.625 309.552 304.258 309.279 299.602C308.983 294.542 308.746 289.177 309.508 283.801C309.877 281.107 310.52 278.378 311.586 275.744C312.638 273.11 314.167 270.62 316.014 268.447C319.763 264.097 324.462 261 329.152 258.196C329.384 258.058 329.644 257.991 329.901 257.991C330.355 257.991 330.8 258.2 331.067 258.581C331.46 259.146 331.313 259.89 330.751 260.293L330.736 260.304C326.432 263.372 322.334 266.771 319.706 270.843C317.018 274.883 316.092 279.494 315.926 284.305C315.866 286.715 315.899 289.165 316.073 291.646C316.208 294.152 316.441 296.562 316.657 299.203C316.836 301.993 316.74 304.892 316.037 307.763C315.397 310.638 314.057 313.446 312.29 315.892C310.498 318.331 308.294 320.38 306.013 322.105C303.733 323.842 301.397 325.32 299.199 326.788C297.008 328.264 294.936 329.733 293.242 331.41C292.398 332.248 291.639 333.129 291.004 334.073C290.368 335.107 289.721 336.149 289.204 337.241C288.136 339.411 287.399 341.711 286.897 344.134C286.389 346.555 286.082 349.091 285.672 351.66C285.263 354.226 284.75 356.814 284.012 359.342C283.283 361.876 282.287 364.325 281.23 366.731C281.082 367.066 280.734 367.27 280.366 367.27" fill="#FBD4DB"/><path id="Fill 47" fill-rule="evenodd" clip-rule="evenodd" d="M298.589 475.268H231.225C231.225 475.272 231.226 475.276 231.226 475.28H236.647H243.831H298.588C298.588 475.277 298.589 475.272 298.589 475.268" fill="#F08375"/><path id="Fill 49" fill-rule="evenodd" clip-rule="evenodd" d="M329.899 257.991C329.642 257.991 329.382 258.058 329.151 258.196C324.46 261 319.763 264.097 316.014 268.447C314.165 270.62 312.637 273.11 311.584 275.745C310.518 278.378 309.876 281.107 309.507 283.801C308.746 289.177 308.983 294.541 309.278 299.602C309.551 304.258 308.743 308.624 306.332 312.341C303.961 316.118 299.918 319.231 295.636 322.602C293.502 324.298 291.292 326.11 289.381 328.324C288.429 329.431 287.558 330.629 286.837 331.918C286.197 333.155 285.566 334.383 285.07 335.68C284.044 338.25 283.422 340.948 283.093 343.588C282.757 346.231 282.657 348.806 282.456 351.33C282.097 356.369 281.166 361.298 279.483 366.121L279.476 366.14C279.328 366.565 279.558 367.033 280.013 367.204C280.128 367.249 280.248 367.27 280.365 367.27C280.733 367.27 281.081 367.066 281.23 366.73C282.285 364.325 283.282 361.876 284.011 359.342C284.75 356.814 285.262 354.227 285.671 351.66C286.082 349.091 286.389 346.555 286.897 344.134C287.398 341.711 288.135 339.411 289.202 337.24C289.719 336.15 290.367 335.107 291.004 334.071C291.639 333.129 292.396 332.248 293.241 331.41C294.935 329.734 297.007 328.264 299.197 326.786C301.396 325.32 303.732 323.842 306.012 322.105C308.294 320.38 310.497 318.331 312.291 315.89C314.057 313.446 315.395 310.638 316.036 307.764C316.74 304.892 316.836 301.993 316.656 299.203C316.44 296.562 316.208 294.152 316.073 291.646C315.899 289.165 315.866 286.713 315.926 284.305C316.091 279.494 317.018 274.883 319.705 270.843C322.332 266.771 326.431 263.373 330.735 260.304L330.75 260.293C331.313 259.89 331.459 259.146 331.065 258.581C330.8 258.199 330.354 257.991 329.899 257.991" fill="#FEF7F8"/><g id="Group 53"><path id="Fill 51" fill-rule="evenodd" clip-rule="evenodd" d="M541.919 159.14V159.14C546.327 159.14 550.669 159.653 554.948 160.593C550.669 159.653 546.325 159.14 541.919 159.14M531.643 159.913L531.465 159.931C531.524 159.925 531.583 159.919 531.643 159.913M531.205 159.96C531.139 159.967 531.071 159.975 531.004 159.983C531.071 159.975 531.139 159.967 531.205 159.96M530.79 160.008C530.709 160.018 530.63 160.028 530.549 160.038C530.629 160.028 530.71 160.017 530.79 160.008M530.511 160.043C530.375 160.06 530.238 160.079 530.101 160.097C530.237 160.079 530.375 160.06 530.511 160.043M530.092 160.098C528.949 160.254 527.818 160.453 526.704 160.688C527.818 160.453 528.949 160.254 530.092 160.098M555.194 160.577C555.281 160.582 555.37 160.588 555.461 160.595C555.37 160.588 555.281 160.582 555.194 160.577M526.693 160.69C526.556 160.72 526.418 160.75 526.282 160.779C526.418 160.75 526.556 160.72 526.693 160.69M526.272 160.782C526.192 160.799 526.112 160.817 526.031 160.835C526.112 160.817 526.192 160.799 526.272 160.782M525.799 160.888C525.743 160.901 525.689 160.914 525.633 160.927C525.689 160.914 525.743 160.901 525.799 160.888" fill="white"/></g><g id="Group 56"><path id="Fill 54" fill-rule="evenodd" clip-rule="evenodd" d="M541.918 159.14C539.404 159.14 536.923 159.315 534.47 159.63C534.119 159.674 533.77 159.721 533.421 159.772C533.352 159.776 533.285 159.781 533.217 159.784C533.2 159.786 533.182 159.787 533.166 159.787C533.101 159.792 533.037 159.795 532.973 159.8C532.956 159.802 532.939 159.803 532.921 159.804C532.868 159.808 532.817 159.811 532.765 159.815C532.745 159.816 532.725 159.818 532.704 159.82C532.645 159.824 532.585 159.829 532.527 159.834C532.5 159.835 532.475 159.837 532.449 159.84C532.403 159.844 532.356 159.847 532.31 159.851C532.28 159.854 532.251 159.856 532.222 159.86C532.175 159.863 532.127 159.867 532.08 159.871C532.05 159.875 532.019 159.877 531.99 159.879C531.946 159.884 531.902 159.888 531.858 159.892C531.815 159.897 531.774 159.9 531.731 159.904L531.642 159.913C531.582 159.919 531.523 159.925 531.463 159.931C531.438 159.935 531.413 159.938 531.387 159.94L531.27 159.952C531.249 159.955 531.228 159.957 531.206 159.96C531.138 159.967 531.072 159.975 531.004 159.983C530.984 159.985 530.965 159.987 530.946 159.99C530.904 159.994 530.861 159.999 530.82 160.004C530.811 160.006 530.8 160.007 530.791 160.008C530.711 160.017 530.628 160.028 530.548 160.038C530.536 160.04 530.524 160.041 530.511 160.043C530.373 160.06 530.236 160.079 530.099 160.097C530.096 160.097 530.094 160.097 530.091 160.098C528.948 160.254 527.816 160.453 526.704 160.688C526.7 160.689 526.696 160.69 526.692 160.69C526.555 160.72 526.419 160.75 526.283 160.779C526.28 160.781 526.276 160.781 526.273 160.782C526.193 160.799 526.112 160.817 526.032 160.835C526.016 160.839 526.002 160.841 525.987 160.845C525.948 160.854 525.91 160.862 525.872 160.871C525.848 160.877 525.823 160.882 525.8 160.888C525.744 160.901 525.688 160.914 525.632 160.927C525.602 160.934 525.571 160.941 525.54 160.948C525.513 160.955 525.485 160.961 525.457 160.969C525.403 160.981 525.35 160.993 525.297 161.006C525.271 161.013 525.245 161.019 525.218 161.025C525.171 161.037 525.123 161.048 525.075 161.06C525.062 161.064 525.05 161.066 525.037 161.07C524.973 161.085 524.909 161.101 524.846 161.117C524.834 161.119 524.821 161.123 524.808 161.126C518.274 162.764 512.493 165.53 508.686 167.872C500.671 174.741 494.413 183.366 490.906 192.96C488.137 200.529 486.954 208.628 483.098 215.776C478.185 224.888 469.126 232.077 466.393 241.944C464.256 249.663 466.347 257.906 464.78 265.739C462.062 279.333 448.93 289.459 445.59 302.935C442.851 313.986 447.116 325.552 445.858 336.83C444.126 352.364 432.138 365.903 431.529 381.507C431.251 388.614 433.385 395.741 432.364 402.786C430.698 414.291 420.877 424.022 420.635 435.626C420.486 442.779 424.028 449.479 426.441 456.274C428.63 462.447 429.756 469.611 426.632 475.268H661.638C660.393 471.253 658.545 467.158 657.329 463.282C649.716 439.074 668.77 411.724 657.848 388.632C656.152 385.045 653.776 381.73 652.465 378.005C648.446 366.596 655.11 354.169 653.355 342.279C651.436 329.29 639.838 318.927 637.682 305.971C635.966 295.674 640.363 284.472 635.568 275.05C631.586 267.217 622.227 262.803 617.674 255.245C611.64 245.232 615.396 232.267 610.473 221.746C604.995 210.038 592.981 197.374 588.725 185.235C585.756 176.771 582.137 171.666 578.691 168.351C572.306 163.929 561.106 161.155 555.944 160.639C555.941 160.637 555.939 160.637 555.936 160.637C555.92 160.636 555.903 160.634 555.887 160.632C555.872 160.631 555.858 160.63 555.844 160.629C555.836 160.627 555.828 160.627 555.82 160.626C555.804 160.625 555.788 160.624 555.771 160.621C555.763 160.621 555.754 160.62 555.746 160.619C555.723 160.618 555.702 160.615 555.68 160.613H555.675C555.654 160.611 555.632 160.609 555.61 160.608C555.607 160.608 555.603 160.606 555.6 160.606L555.538 160.601H555.532C555.512 160.599 555.491 160.598 555.471 160.596C555.467 160.595 555.464 160.595 555.462 160.595C555.37 160.588 555.282 160.582 555.195 160.577C555.193 160.577 555.19 160.577 555.187 160.575C555.167 160.574 555.147 160.573 555.129 160.572H555.125C555.105 160.571 555.086 160.571 555.069 160.569C555.065 160.568 555.062 160.568 555.058 160.568C555.039 160.567 555.021 160.567 555.003 160.566H554.997C554.975 160.564 554.955 160.563 554.935 160.562L554.949 160.593C550.67 159.653 546.326 159.14 541.918 159.14M460.566 318.817C460.51 318.817 460.454 318.812 460.396 318.799C460.021 318.724 459.767 318.405 459.786 318.061C460.043 313.196 460.746 308.282 462.468 303.488C463.353 301.102 464.469 298.739 466.002 296.519C466.411 295.976 466.778 295.41 467.24 294.892L468.505 293.406C469.299 292.492 470.088 291.576 470.818 290.634C473.812 286.903 476.288 282.942 477.826 278.796C479.438 274.673 480.123 270.356 480.381 265.861C480.456 264.739 480.496 263.604 480.51 262.46L480.514 260.741L480.546 258.873C480.554 257.616 480.644 256.348 480.713 255.086C480.845 253.82 480.952 252.557 481.15 251.29C481.862 246.231 483.426 241.162 485.946 236.473C487.197 234.126 488.723 231.892 490.49 229.849C491.378 228.83 492.31 227.849 493.31 226.934L494.683 225.672C495.132 225.278 495.549 224.856 495.974 224.438C499.348 221.107 502.39 217.268 504.614 213.121L504.65 213.051C504.818 212.74 505.155 212.561 505.506 212.561C505.648 212.561 505.793 212.59 505.931 212.653C506.322 212.834 506.522 213.233 506.441 213.613C505.913 216.149 504.994 218.471 503.86 220.762C502.742 223.05 501.36 225.233 499.792 227.304C499.395 227.818 499.003 228.34 498.577 228.833L497.376 230.283C496.642 231.161 495.981 232.085 495.363 233.027C494.138 234.919 493.144 236.929 492.379 239.022C490.865 243.215 490.115 247.646 489.746 252.161C489.537 254.415 489.456 256.698 489.422 258.996L489.409 260.741L489.366 262.632C489.324 263.897 489.261 265.169 489.145 266.447C488.656 271.542 487.357 276.829 484.797 281.551C482.283 286.286 478.858 290.39 475.17 294.013C474.257 294.936 473.302 295.806 472.348 296.671L471.031 297.889C470.609 298.254 470.253 298.695 469.858 299.097C468.355 300.788 467.1 302.751 466.028 304.822C463.853 308.972 462.431 313.574 461.324 318.243L461.322 318.251C461.241 318.587 460.921 318.817 460.566 318.817" fill="#F8B6C3"/></g><path id="Fill 57" fill-rule="evenodd" clip-rule="evenodd" d="M661.638 475.268H426.632C426.629 475.272 426.628 475.277 426.625 475.28H661.642C661.641 475.277 661.639 475.272 661.638 475.268" fill="#ED6F65"/><path id="Fill 59" fill-rule="evenodd" clip-rule="evenodd" d="M505.506 212.56C505.155 212.56 504.818 212.741 504.65 213.051L504.614 213.12C502.39 217.268 499.348 221.106 495.974 224.438C495.549 224.856 495.132 225.279 494.683 225.672L493.312 226.934C492.31 227.849 491.378 228.83 490.49 229.849C488.723 231.892 487.197 234.126 485.946 236.473C483.426 241.161 481.862 246.231 481.15 251.29C480.952 252.557 480.846 253.82 480.713 255.086C480.644 256.348 480.554 257.615 480.548 258.873L480.516 260.741L480.51 262.46C480.496 263.604 480.456 264.738 480.381 265.861C480.124 270.356 479.438 274.673 477.826 278.797C476.288 282.942 473.812 286.903 470.818 290.633C470.088 291.575 469.299 292.491 468.505 293.406L467.24 294.892C466.779 295.41 466.411 295.978 466.002 296.519C464.469 298.739 463.353 301.103 462.47 303.488C460.746 308.282 460.043 313.196 459.786 318.061C459.767 318.405 460.021 318.724 460.396 318.799C460.454 318.812 460.51 318.817 460.566 318.817C460.921 318.817 461.241 318.587 461.322 318.252L461.324 318.243C462.431 313.574 463.853 308.971 466.028 304.821C467.1 302.751 468.355 300.788 469.858 299.097C470.253 298.695 470.61 298.253 471.031 297.889L472.348 296.672C473.303 295.806 474.257 294.935 475.17 294.013C478.858 290.39 482.283 286.286 484.797 281.551C487.357 276.829 488.656 271.541 489.145 266.447C489.261 265.169 489.324 263.897 489.368 262.632L489.409 260.741L489.422 258.996C489.456 256.698 489.537 254.415 489.746 252.161C490.115 247.645 490.865 243.215 492.379 239.022C493.145 236.929 494.138 234.919 495.364 233.027C495.981 232.085 496.642 231.161 497.376 230.283L498.577 228.834C499.003 228.339 499.395 227.818 499.792 227.304C501.361 225.233 502.742 223.05 503.86 220.762C504.994 218.471 505.915 216.149 506.442 213.614C506.522 213.233 506.322 212.834 505.931 212.653C505.793 212.59 505.648 212.56 505.506 212.56" fill="#FEF1F3"/></g></g><g id="Master/Worms/Fin" transform="translate(334 85) scale(1.3289036544850499 1.234920634920635)"><g id="Master/Worms/Fin"><g id="Body/Fin" transform="translate(83.918 150.8) scale(1 1)"><g id="Body/Fin/Grey"><g id="Group 8"><g id="Group 3"><path id="Fill 1" fill-rule="evenodd" clip-rule="evenodd" d="M135.896 164.221H0.999817V68.4479C0.999817 31.1979 31.1978 0.999878 68.4478 0.999878C105.699 0.999878 135.896 31.1979 135.896 68.4479V164.221Z" fill="#CBD3D8"/></g><path id="Fill 4" fill-rule="evenodd" clip-rule="evenodd" d="M1 164.221H135.896V100.148H1V164.221Z" fill="#AAB8BF"/><path id="Fill 6" fill-rule="evenodd" clip-rule="evenodd" d="M66.3049 55.4006C66.3049 68.8856 55.3729 79.8176 41.8879 79.8176C28.4019 79.8176 17.4709 68.8856 17.4709 55.4006C17.4709 41.9156 28.4019 30.9836 41.8879 30.9836C55.3729 30.9836 66.3049 41.9156 66.3049 55.4006" fill="#74BAB9"/><path id="Fill 7" fill-rule="evenodd" clip-rule="evenodd" d="M119.425 55.4006C119.425 68.8856 108.493 79.8176 95.0083 79.8176C81.5233 79.8176 70.5913 68.8856 70.5913 55.4006C70.5913 41.9156 81.5233 30.9836 95.0083 30.9836C108.493 30.9836 119.425 41.9156 119.425 55.4006" fill="#74BAB9"/></g></g></g><g id="Eyes/Fin" transform="translate(126.918 194.8) scale(1 1)"><g id="Eyes/Fin/Happy"><g id="Group 6"><g id="Group 3"><path id="Fill 1" fill-rule="evenodd" clip-rule="evenodd" d="M45.0561 14.9118C44.2271 14.9118 43.4521 14.3918 43.1661 13.5638C43.0711 13.3088 42.0941 10.9098 39.3531 11.0028C36.4631 11.1058 35.6191 13.2918 35.5321 13.5408C35.1721 14.5728 34.0451 15.1398 33.0081 14.7948C31.9701 14.4498 31.3971 13.3498 31.7271 12.3078C31.7931 12.0998 33.4061 7.21077 39.2121 7.00577C43.8441 6.84577 46.2941 10.3698 46.9461 12.2588C47.3071 13.3028 46.7531 14.4408 45.7091 14.8018C45.4931 14.8768 45.2721 14.9118 45.0561 14.9118" fill="#101335"/></g><path id="Fill 4" fill-rule="evenodd" clip-rule="evenodd" d="M15.4223 14.9118C14.5933 14.9118 13.8183 14.3918 13.5323 13.5638C13.4373 13.3088 12.4613 10.9068 9.71932 11.0028C6.82932 11.1058 5.98532 13.2918 5.89832 13.5408C5.53832 14.5728 4.41132 15.1398 3.37432 14.7948C2.33632 14.4498 1.76332 13.3498 2.09332 12.3078C2.15932 12.0998 3.77232 7.21078 9.57732 7.00578C14.1993 6.83978 16.6603 10.3698 17.3123 12.2588C17.6733 13.3028 17.1193 14.4408 16.0753 14.8018C15.8593 14.8768 15.6383 14.9118 15.4223 14.9118" fill="#101335"/></g></g></g><g id="Mouth/Fin" transform="translate(130.918 211.8) scale(0.9761904761904762 1)"><g id="Mouth/Fin/Laughing Teeth"><g id="Group 8"><g id="Group 3"><path id="Fill 1" fill-rule="evenodd" clip-rule="evenodd" d="M3.91797 4.99991C3.91797 4.99991 3.91797 21.0129 20.94 21.0129C38.778 21.0129 38.778 4.99991 38.778 4.99991H3.91797Z" fill="#101335"/></g><path id="Fill 4" fill-rule="evenodd" clip-rule="evenodd" d="M16.2252 11.5849H15.4412C13.9272 11.5849 12.6992 10.3569 12.6992 8.84291V4.99991H18.9672V8.84291C18.9672 10.3569 17.7392 11.5849 16.2252 11.5849" fill="white"/><path id="Fill 6" fill-rule="evenodd" clip-rule="evenodd" d="M26.5709 11.5849H25.7869C24.2729 11.5849 23.0449 10.3569 23.0449 8.84291V4.99991H29.3129V8.84291C29.3129 10.3569 28.0849 11.5849 26.5709 11.5849" fill="white"/></g></g></g><g id="Hair/Fin" transform="translate(65.918 60.8) scale(1 1)"><g id="Hair/Fin/Double Bun"><g id="Hair"><path id="Fill 15" fill-rule="evenodd" clip-rule="evenodd" d="M71.1586 105.746L72.7956 114.069C76.1536 114.309 79.4416 114.432 82.6396 114.458L85.3336 105.915L87.9276 114.415C91.6086 114.326 95.1416 114.119 98.4906 113.83L100.08 105.746L103.359 113.342C119.762 111.466 130.64 107.899 130.64 107.899C118.7 97.189 102.922 90.67 85.6196 90.67H85.6186C68.3156 90.67 52.5396 97.189 40.5986 107.899C49.7786 110.912 58.9586 112.695 67.7576 113.626L71.1586 105.746Z" fill="#73BAB8"/><g id="Group 19"><path id="Fill 17" fill-rule="evenodd" clip-rule="evenodd" d="M53.2362 80.6995V80.6995C51.5222 83.4895 52.5972 87.1495 55.5472 88.5695C60.2312 90.8255 59.4902 97.7135 54.4332 98.9225C51.2492 99.6835 49.4212 103.031 50.5022 106.122C52.2192 111.029 46.8252 115.376 42.3952 112.655C39.6052 110.941 35.9452 112.015 34.5242 114.966C32.2682 119.65 25.3802 118.909 24.1722 113.852C23.4112 110.668 20.0632 108.839 16.9732 109.921C12.0652 111.638 7.71821 106.244 10.4402 101.813C12.1542 99.0225 11.0792 95.3635 8.12921 93.9425V93.9425C3.44521 91.6865 4.18521 84.7985 9.24321 83.5905C12.4272 82.8295 14.2552 79.4815 13.1742 76.3915C11.4562 71.4835 16.8512 67.1365 21.2812 69.8585V69.8585C24.0712 71.5715 27.7312 70.4975 29.1522 67.5475V67.5475C31.4072 62.8635 38.2962 63.6035 39.5042 68.6605C40.2652 71.8455 43.6122 73.6735 46.7032 72.5925C51.6112 70.8745 55.9572 76.2695 53.2362 80.6995" fill="#3A3E5B"/></g><path id="Fill 20" fill-rule="evenodd" clip-rule="evenodd" d="M131.741 68.6579V68.6579C130.979 71.8419 127.631 73.6689 124.541 72.5859C119.634 70.8669 115.285 76.2599 118.004 80.6909C119.717 83.4819 118.641 87.1409 115.691 88.5609C111.005 90.8149 111.744 97.7039 116.8 98.9139C119.984 99.6759 121.811 103.024 120.729 106.114C119.01 111.021 124.402 115.37 128.834 112.65V112.65C131.624 110.938 135.283 112.013 136.703 114.964C138.957 119.649 145.846 118.911 147.056 113.855C147.818 110.67 151.166 108.844 154.256 109.926C159.163 111.645 163.512 106.252 160.793 101.821C159.08 99.0309 160.156 95.3709 163.106 93.9519C167.792 91.6979 167.053 84.8089 161.997 83.5989C158.813 82.8369 156.986 79.4879 158.068 76.3979C159.787 71.4909 154.395 67.1429 149.963 69.8619C147.173 71.5749 143.513 70.4989 142.094 67.5489C139.84 62.8629 132.951 63.6009 131.741 68.6579" fill="#3A3E5B"/><path id="Fill 22" fill-rule="evenodd" clip-rule="evenodd" d="M44.025 85.2437V85.2437C43.049 86.8327 43.661 88.9167 45.341 89.7267C48.009 91.0107 47.587 94.9337 44.707 95.6227C42.893 96.0557 41.852 97.9627 42.468 99.7227C43.446 102.518 40.374 104.994 37.85 103.444C36.261 102.468 34.177 103.079 33.368 104.76C32.083 107.428 28.16 107.006 27.472 104.126V104.125C27.038 102.312 25.132 101.271 23.372 101.886C20.577 102.864 18.101 99.7917 19.651 97.2687C20.627 95.6797 20.015 93.5957 18.335 92.7857C15.667 91.5017 16.089 87.5787 18.969 86.8897C20.783 86.4567 21.824 84.5497 21.208 82.7897C20.23 79.9947 23.302 77.5197 25.825 79.0687C27.414 80.0457 29.499 79.4337 30.308 77.7527C31.593 75.0847 35.516 75.5067 36.204 78.3867V78.3877C36.637 80.2007 38.544 81.2417 40.304 80.6267C43.099 79.6487 45.575 82.7207 44.025 85.2437" fill="#F0748D"/><path id="Fill 24" fill-rule="evenodd" clip-rule="evenodd" d="M135.034 78.3733V78.3733C134.599 80.1883 132.691 81.2303 130.929 80.6133C128.132 79.6333 125.652 82.7073 127.203 85.2333V85.2333C128.179 86.8243 127.566 88.9103 125.884 89.7193C123.213 91.0043 123.634 94.9313 126.516 95.6213C128.332 96.0563 129.373 97.9653 128.756 99.7263C127.776 102.523 130.85 105.003 133.377 103.452C134.967 102.476 137.054 103.089 137.863 104.771C139.148 107.442 143.075 107.021 143.764 104.139C144.199 102.323 146.108 101.282 147.869 101.899V101.899C150.667 102.879 153.146 99.8053 151.596 97.2793V97.2793C150.619 95.6883 151.232 93.6023 152.915 92.7923C155.586 91.5083 155.165 87.5813 152.282 86.8913C150.467 86.4563 149.425 84.5473 150.043 82.7863V82.7863C151.023 79.9883 147.948 77.5093 145.422 79.0603C143.831 80.0363 141.745 79.4233 140.936 77.7413C139.651 75.0703 135.724 75.4903 135.034 78.3733" fill="#F0748D"/></g></g></g><g id="Clothes/Fin" transform="translate(83.918 245.4) scale(1 1)"><g id="Clothes/Fin/Colourful Kites"><g id="Group 24"><path id="Fill 1" fill-rule="evenodd" clip-rule="evenodd" d="M1.10693 70.016H136.003V11.14H1.10693V70.016Z" fill="#74BAB9"/><path id="Fill 2" fill-rule="evenodd" clip-rule="evenodd" d="M68.5763 53.6499L55.3793 40.4529L68.5763 27.2559L81.7733 40.4529L68.5763 53.6499ZM90.8723 40.3929L68.4513 17.9719L46.0303 40.3929L46.0903 40.4529L46.0303 40.5129L68.4513 62.9339L90.8723 40.5129L90.8113 40.4529L90.8723 40.3929Z" fill="#00AFA9"/><path id="Fill 3" fill-rule="evenodd" clip-rule="evenodd" d="M84.5668 11.1398L77.6748 18.0318L90.8718 31.2298L104.069 18.0318L97.1778 11.1398H84.5668ZM86.0378 18.0318L90.8718 13.1978L95.7058 18.0318L90.8718 22.8668L86.0378 18.0318Z" fill="#BF62A2"/><path id="Fill 4" fill-rule="evenodd" clip-rule="evenodd" d="M90.8716 22.8667L95.7056 18.0327L90.8716 13.1977L86.0376 18.0327L90.8716 22.8667Z" fill="#E0BFDB"/><path id="Fill 5" fill-rule="evenodd" clip-rule="evenodd" d="M129.409 11.1398L122.517 18.0318L135.713 31.2298L135.896 31.0468V22.6838L135.713 22.8668L130.88 18.0318L135.713 13.1978L135.896 13.3808V11.1398H129.409Z" fill="#BF62A2"/><path id="Fill 6" fill-rule="evenodd" clip-rule="evenodd" d="M39.725 11.1398L32.833 18.0318L46.03 31.2298L59.227 18.0318L52.336 11.1398H39.725ZM41.196 18.0318L46.03 13.1978L50.864 18.0318L46.03 22.8668L41.196 18.0318Z" fill="#BF62A2"/><path id="Fill 7" fill-rule="evenodd" clip-rule="evenodd" d="M1 11.1398V13.3868L1.189 13.1978L6.024 18.0318L1.189 22.8668L1 22.6768V31.0408L1.189 31.2298L14.387 18.0318L7.494 11.1398H1Z" fill="#BF62A2"/><path id="Fill 8" fill-rule="evenodd" clip-rule="evenodd" d="M130.879 18.0322L135.713 22.8662L135.896 22.6842V13.3802L135.713 13.1982L130.879 18.0322Z" fill="#E0BFDB"/><path id="Fill 9" fill-rule="evenodd" clip-rule="evenodd" d="M46.0303 22.8667L50.8643 18.0327L46.0303 13.1977L41.1963 18.0327L46.0303 22.8667Z" fill="#E0BFDB"/><path id="Fill 10" fill-rule="evenodd" clip-rule="evenodd" d="M1 13.3871V22.6771L1.189 22.8671L6.024 18.0321L1.189 13.1981L1 13.3871Z" fill="#E0BFDB"/><path id="Fill 11" fill-rule="evenodd" clip-rule="evenodd" d="M77.6748 62.9258L84.7638 70.0158H96.9798L104.069 62.9258L90.8728 49.7288L77.6748 62.9258ZM86.0378 62.8738L90.8728 58.0398L95.7058 62.8738L90.8728 67.7078L86.0378 62.8738Z" fill="#E0BFDB"/><path id="Fill 12" fill-rule="evenodd" clip-rule="evenodd" d="M122.516 62.9258L129.605 70.0158H135.895V67.5858L135.774 67.7078L130.939 62.8738L135.774 58.0398L135.895 58.1608V49.9118L135.713 49.7288L122.516 62.9258Z" fill="#E0BFDB"/><path id="Fill 13" fill-rule="evenodd" clip-rule="evenodd" d="M32.833 62.9258L39.923 70.0158H52.138L59.227 62.9258L46.031 49.7288L32.833 62.9258ZM40.951 62.6288L45.785 57.7938L50.62 62.6288L45.785 67.4628L40.951 62.6288Z" fill="#E0BFDB"/><path id="Fill 14" fill-rule="evenodd" clip-rule="evenodd" d="M1 49.9181V57.8511L5.532 62.3831L1 66.9161V70.0161H7.296L14.387 62.9261L1.189 49.7291L1 49.9181Z" fill="#E0BFDB"/><path id="Fill 15" fill-rule="evenodd" clip-rule="evenodd" d="M90.8716 58.0395L86.0376 62.8735L90.8716 67.7075L95.7056 62.8735L90.8716 58.0395Z" fill="#BF62A2"/><path id="Fill 16" fill-rule="evenodd" clip-rule="evenodd" d="M45.7852 57.7944L40.9512 62.6284L45.7852 67.4624L50.6192 62.6284L45.7852 57.7944Z" fill="#BF62A2"/><path id="Fill 17" fill-rule="evenodd" clip-rule="evenodd" d="M1 66.9164L5.532 62.3834L1 57.8504V66.9164Z" fill="#BF62A2"/><path id="Fill 18" fill-rule="evenodd" clip-rule="evenodd" d="M130.939 62.8735L135.773 67.7075L135.895 67.5855V58.1615L135.773 58.0395L130.939 62.8735Z" fill="#BF62A2"/><path id="Fill 19" fill-rule="evenodd" clip-rule="evenodd" d="M1.12891 40.4528L23.6099 62.9338L46.0309 40.5128L46.0909 40.4528L46.0309 40.3928L23.6099 17.9718L1.12891 40.4528ZM10.4129 40.4528L23.6099 27.2558L36.8069 40.4528L23.6099 53.6498L10.4129 40.4528Z" fill="#00AFA9"/><path id="Fill 20" fill-rule="evenodd" clip-rule="evenodd" d="M100.096 40.4526L113.293 27.2556L126.491 40.4526L113.293 53.6496L100.096 40.4526ZM113.293 17.9716L90.8725 40.3926L90.8115 40.4526L90.8725 40.5136L113.293 62.9336L135.774 40.4526L113.293 17.9716Z" fill="#00AFA9"/><path id="Fill 21" fill-rule="evenodd" clip-rule="evenodd" d="M113.293 27.2558L100.096 40.4528L113.293 53.6498L126.49 40.4528L113.293 27.2558Z" fill="#5473B8"/><path id="Fill 22" fill-rule="evenodd" clip-rule="evenodd" d="M55.3789 40.4526L68.5759 53.6496L81.7739 40.4526L68.5759 27.2556L55.3789 40.4526Z" fill="#5473B8"/><path id="Fill 23" fill-rule="evenodd" clip-rule="evenodd" d="M10.4121 40.4526L23.6091 53.6496L36.8071 40.4526L23.6091 27.2556L10.4121 40.4526Z" fill="#5473B8"/></g></g></g></g></g><g id="Dialogue Box 1" transform="translate(56 118) scale(1.3301435406698565 1.2366412213740459)"><g id="Dialogue Box 1/Teal Circle"><path id="Dialogue Box 1" fill-rule="evenodd" clip-rule="evenodd" d="M177.304 65.107L161.813 57.937C158.242 25.354 130.641 0 97.108 0C61.15 0 32 29.149 32 65.107C32 101.064 61.15 130.214 97.108 130.214C130.848 130.214 158.592 104.548 161.885 71.675L177.304 65.107Z" fill="#74BAB9"/></g></g></g></svg>