<svg viewBox="93.27500000000009 65.27372262773724 946.0749999999999 572.8102189781021" fill="none" xmlns="http://www.w3.org/2000/svg" xmlns:xlink="http://www.w3.org/1999/xlink" overflow="visible" width="946.0749999999999px" height="572.8102189781021px"><g id="Master/Spot Illustration/Staying Home"><g id="Background" transform="translate(53 31) scale(1.3333333333333333 1.3891891891891892)"><g id="Background/Party"><g id="Group 9"><g id="Group 3"><path id="Fill 1" fill-rule="evenodd" clip-rule="evenodd" d="M172.115 108.862C172.226 98.9372 172.266 88.6522 168.217 79.5912C164.168 70.5282 154.809 63.0332 144.986 64.4532C133.874 66.0602 127.128 77.8132 124.968 88.8322C122.265 102.614 124.157 117.257 130.275 129.899C117.498 125.36 105.382 118.961 92.3079 115.364C79.2349 111.767 64.5029 111.278 52.8239 118.169C41.1459 125.058 34.2789 140.972 40.6879 152.922C44.6769 160.362 52.5739 164.747 60.2219 168.324C78.0879 176.68 96.9609 182.883 116.301 186.756C87.1069 187.737 58.9349 204.612 44.2929 229.887C39.0069 239.013 35.4609 250.54 40.2659 259.929C44.4829 268.169 53.9339 272.309 62.9959 274.192C88.9489 279.584 115.604 271.59 140.902 263.679C122.953 277.494 119.972 306.431 133.646 324.488C147.319 342.544 174.666 347.876 194.832 337.564C214.998 327.254 226.631 303.176 223.705 280.716C239.64 297.851 262.038 310.356 285.414 309.3C308.789 308.245 331.918 290.87 334.709 267.637C335.435 261.6 334.774 255.243 331.819 249.927C326.277 239.956 314.321 235.814 303.409 232.485C292.713 229.222 282.018 225.96 271.322 222.697C300.479 220.947 328.631 206.325 346.83 183.476C355.57 172.505 362.196 159.258 362.545 145.236C362.893 131.213 355.944 116.514 343.359 110.318C331.719 104.588 317.84 106.819 305.294 110.123C285.018 115.462 265.396 123.277 247.003 133.341C262.8 117.239 277.055 99.6252 289.511 80.8182C294.624 73.0972 299.613 64.5152 299.086 55.2702C298.376 42.8002 287.213 32.7162 275.025 29.9882C262.836 27.2592 250.054 30.5362 238.598 35.5122C208.433 48.6192 183.847 74.0562 171.777 104.65" fill="#D7EFF6"/></g><g id="Group 8"><path id="Fill 6" fill-rule="evenodd" clip-rule="evenodd" d="M651.303 122.67C655.572 120.602 661.743 121.857 664.3 126.041C665.397 127.837 665.894 130.033 665.331 131.981C664.713 134.115 662.706 135.012 660.602 135.469C658.018 136.031 655.311 136.049 652.795 136.917C650.108 137.843 647.852 139.558 646.695 142.207C644.046 148.273 647.778 154.781 653.872 156.661C656.856 157.581 659.811 157.043 662.799 156.471C664.839 156.079 668.031 155.407 669.015 157.821C669.76 159.649 668.876 161.776 667.242 162.949C664.962 164.587 662.416 164.36 659.779 164.673C656.271 165.088 653.859 167.21 652.389 170.367C651.299 172.71 650.694 175.274 650.743 177.866C650.838 182.918 653.568 188.004 658.843 189.101C662.369 189.834 665.711 188.633 669.202 188.368C672.044 188.151 674.412 189.034 675.823 191.614C676.918 193.614 676.857 196.012 675.382 197.806C673.798 199.733 671.188 200.612 668.852 199.952C665.75 199.075 664.426 203.898 667.523 204.774C673.384 206.43 680.286 202.567 681.393 196.427C682.52 190.175 677.894 184.083 671.627 183.396C668.318 183.032 665.153 184.254 661.876 184.36C660.53 184.404 659.355 184.22 658.32 183.577C657.574 183.114 657.103 182.546 656.626 181.66C655.753 180.041 655.552 177.677 655.87 175.788C656.209 173.776 657.109 170.594 659.282 169.824C660.665 169.335 662.296 169.565 663.737 169.388C665.525 169.167 667.239 168.684 668.834 167.83C671.562 166.372 673.665 163.798 674.125 160.701C674.589 157.573 673.527 154.283 670.827 152.464C667.885 150.482 664.326 151.1 661.068 151.728C658.319 152.257 655.633 152.571 653.211 150.856C651.267 149.479 650.334 147.086 651.041 144.783C651.793 142.333 654.134 141.584 656.426 141.158C659.249 140.634 662.114 140.528 664.78 139.361C671.361 136.478 672.005 128.043 668.056 122.693C663.668 116.749 655.282 115.201 648.779 118.353C647.564 118.941 647.239 120.673 647.882 121.774C648.608 123.014 650.084 123.261 651.303 122.67" fill="#F0D3E6"/></g></g></g></g><g id="Window 1" transform="translate(385 218) scale(1.3271375464684014 1.3926174496644295)"><g id="Window 1/Periwinkle Cathedral"><g id="Group 6"><g id="Group 3"><mask id="mask0_201_18555fc3038af-a710-4e4d-8c55-796f5bd10bc8" style="mask-type:alpha" maskUnits="userSpaceOnUse" x="7" y="6" width="255" height="292" fill="#ffffff"><path id="Clip 2" fill-rule="evenodd" clip-rule="evenodd" d="M7.91797 6H261.792V297.782H7.91797V6Z" fill="#ffffff"/></mask><g mask="url(#mask0_201_18555fc3038af-a710-4e4d-8c55-796f5bd10bc8)"><path id="Fill 1" fill-rule="evenodd" clip-rule="evenodd" d="M134.855 5.99957L50.524 50.0716C24.335 63.7596 7.91797 90.8626 7.91797 120.413V297.782H261.792V120.413C261.792 90.8626 245.376 63.7596 219.186 50.0716L134.855 5.99957ZM134.855 16.6926L214.797 58.4716C237.939 70.5656 252.315 94.3006 252.315 120.413V288.306H17.395V120.413C17.395 94.3006 31.771 70.5656 54.914 58.4716L134.855 16.6926V16.6926Z" fill="#96A5D4"/></g></g><path id="Fill 4" fill-rule="evenodd" clip-rule="evenodd" d="M134.855 16.6929L214.797 58.4709C237.939 70.5659 252.315 94.2999 252.315 120.413V288.305H17.3945V120.413C17.3945 94.2999 31.7705 70.5659 54.9135 58.4709L134.855 16.6929" fill="white"/></g></g></g><g id="Dialogue Box 2" transform="translate(756 287) scale(1.3301435406698565 1.3893129770992367)"><g id="Dialogue Box 2/Pink Bubble"><path id="Fill 1" fill-rule="evenodd" clip-rule="evenodd" d="M205.347 57.1119C205.347 62.4009 201.248 66.7219 196.056 67.0989C196.054 67.1539 196.053 67.2089 196.052 67.2629C200.866 67.9959 204.558 72.1419 204.558 77.1609C204.558 82.6989 200.07 87.1869 194.533 87.1869C193.518 87.1869 192.539 87.0329 191.615 86.7519C194.694 88.4629 196.779 91.7449 196.779 95.5169C196.779 101.054 192.29 105.542 186.754 105.542C184.246 105.542 181.96 104.616 180.202 103.094C180.17 103.125 180.137 103.156 180.105 103.187C181.599 104.938 182.506 107.205 182.506 109.688C182.506 115.224 178.018 119.712 172.481 119.712C168.807 119.712 165.603 117.73 163.858 114.782C164.067 115.587 164.189 116.428 164.189 117.299C164.189 122.835 159.7 127.324 154.164 127.324C148.988 127.324 144.73 123.401 144.197 118.366C144.174 118.367 144.151 118.367 144.128 118.368C144.014 123.806 139.579 128.181 134.114 128.181C128.659 128.181 124.232 123.823 124.101 118.4H124.058C124.07 118.604 124.089 118.806 124.089 119.014C124.089 124.55 119.6 129.038 114.064 129.038C108.527 129.038 104.038 124.55 104.038 119.014C104.038 118.806 104.057 118.604 104.07 118.4H103.919C103.99 118.881 104.038 119.37 104.038 119.871C104.038 125.408 99.5497 129.896 94.0127 129.896C88.4767 129.896 83.9887 125.408 83.9887 119.871C83.9887 119.37 84.0367 118.881 84.1077 118.4H83.9567C83.9687 118.604 83.9887 118.806 83.9887 119.014C83.9887 124.55 79.4997 129.038 73.9627 129.038C68.4267 129.038 63.9377 124.55 63.9377 119.014C63.9377 118.12 64.0667 117.256 64.2857 116.431C62.7397 119.972 59.2107 122.45 55.0987 122.45C49.5627 122.45 45.0737 117.96 45.0737 112.424C45.0737 110.547 45.5997 108.796 46.4977 107.294C44.6847 109.101 42.1837 110.218 39.4227 110.218C33.8857 110.218 29.3977 105.73 29.3977 100.193C29.3977 96.8569 31.0337 93.9099 33.5407 92.0869C32.2767 92.6619 30.8767 92.9909 29.3977 92.9909C23.8607 92.9909 19.3727 88.5019 19.3727 82.9659C19.3727 78.4769 22.3247 74.6829 26.3917 73.4059L2.99968 63.4399L26.7887 52.4289C23.5027 50.7849 21.2417 47.3949 21.2417 43.4699C21.2417 37.9329 25.7307 33.4449 31.2677 33.4449C33.0397 33.4449 34.7027 33.9099 36.1477 34.7159C34.0307 32.8779 32.6857 30.1729 32.6857 27.1499C32.6857 21.6129 37.1737 17.1239 42.7107 17.1239C45.3197 17.1239 47.6887 18.1299 49.4717 19.7639C49.1707 18.8089 49.0057 17.7929 49.0057 16.7389C49.0057 11.2019 53.4937 6.7129 59.0307 6.7129C62.6957 6.7129 65.8917 8.6869 67.6407 11.6219C67.8537 6.2739 72.2447 1.9989 77.6457 1.9989C83.1387 1.9989 87.5947 6.4189 87.6637 11.8969H87.6767C87.7457 6.4189 92.2017 1.9989 97.6957 1.9989C103.189 1.9989 107.645 6.4189 107.715 11.8969H107.727C107.797 6.4189 112.253 1.9989 117.746 1.9989C123.24 1.9989 127.695 6.4189 127.764 11.8969H127.778C127.847 6.4189 132.303 1.9989 137.796 1.9989C143.333 1.9989 147.822 6.4879 147.822 12.0249C147.822 12.0619 147.816 12.0979 147.816 12.1349C147.901 12.1429 147.988 12.1459 148.073 12.1549C149.079 7.6809 153.069 4.3359 157.846 4.3359C163.383 4.3359 167.871 8.8249 167.871 14.3609C167.871 15.5779 167.644 16.7379 167.247 17.8169C167.276 17.8309 167.305 17.8459 167.333 17.8619C169.096 14.9889 172.257 13.0669 175.874 13.0669C181.411 13.0669 185.899 17.5549 185.899 23.0919C185.899 25.8499 184.784 28.3459 182.983 30.1589C184.64 28.9469 186.677 28.2219 188.889 28.2219C194.426 28.2219 198.914 32.7099 198.914 38.2459C198.914 42.2879 196.517 45.7629 193.071 47.3489C193.796 47.1829 194.547 47.0859 195.322 47.0859C200.859 47.0859 205.347 51.5749 205.347 57.1119" fill="#F0D3E6"/></g></g><g id="Plant 2" transform="translate(53 445) scale(1.3243243243243243 1.3902439024390243)"><g id="Plant 2/Pretty Pearls"><g id="Group 29"><g id="Group 3"><path id="Fill 1" fill-rule="evenodd" clip-rule="evenodd" d="M123.857 95.4144C126.909 101.207 128.676 108.035 128.676 115.352C128.676 122.671 126.908 129.501 123.856 135.295H69.0858C66.0338 129.501 64.2658 122.671 64.2658 115.352C64.2658 108.035 66.0328 101.207 69.0848 95.4144H123.857Z" fill="#FFCC37"/></g><path id="Stroke 4 (Stroke)" fill-rule="evenodd" clip-rule="evenodd" d="M101.732 44.0435V95.4145H103.732V44.0435H101.732Z" fill="#00AFA9"/><path id="Fill 6" fill-rule="evenodd" clip-rule="evenodd" d="M102.061 81.5862H126.748C134.574 81.5862 140.918 75.2422 140.918 67.4162V59.1632H116.231C108.405 59.1632 102.061 65.5072 102.061 73.3342V81.5862Z" fill="#788AC1"/><path id="Stroke 8 (Stroke)" fill-rule="evenodd" clip-rule="evenodd" d="M93.7207 25.1804V95.4144H95.7207V25.1804H93.7207Z" fill="#00AFA9"/><path id="Fill 10" fill-rule="evenodd" clip-rule="evenodd" d="M96.3711 60.2718H71.6211C61.5061 60.2718 53.3071 52.0718 53.3071 41.9578V35.4178H78.0571C88.1721 35.4178 96.3711 43.6178 96.3711 53.7318V60.2718Z" fill="#788AC1"/><g id="Group 14"><path id="Fill 12" fill-rule="evenodd" clip-rule="evenodd" d="M82.0609 16.3597C82.0609 23.6277 87.9529 29.5197 95.2209 29.5197C102.489 29.5197 108.381 23.6277 108.381 16.3597C108.381 9.09071 102.489 3.19971 95.2209 3.19971C87.9529 3.19971 82.0609 9.09071 82.0609 16.3597" fill="#F1758E"/></g><path id="Fill 15" fill-rule="evenodd" clip-rule="evenodd" d="M95.2209 29.5198H98.1129C104.52 29.5198 109.713 24.3268 109.713 17.9188V15.1998L95.2209 29.5198Z" fill="#F9A471"/><path id="Fill 17" fill-rule="evenodd" clip-rule="evenodd" d="M95.2207 29.5198H92.3287C85.9227 29.5198 80.7287 24.3268 80.7287 17.9188V15.1998L95.2207 29.5198Z" fill="#F9A471"/><path id="Fill 19" fill-rule="evenodd" clip-rule="evenodd" d="M95.2196 15.1995L88.0166 22.4025L95.2196 29.5195L102.557 22.2695L95.2196 15.1995Z" fill="#BF62A2"/><path id="Stroke 21 (Stroke)" fill-rule="evenodd" clip-rule="evenodd" d="M85.6348 72.3264V95.4144H87.6348V72.3264H85.6348Z" fill="#00AFA9"/><path id="Fill 23" fill-rule="evenodd" clip-rule="evenodd" d="M82.1078 69.9915C82.1078 72.7375 84.3338 74.9635 87.0798 74.9635C89.8258 74.9635 92.0508 72.7375 92.0508 69.9915C92.0508 67.2455 89.8258 65.0195 87.0798 65.0195C84.3338 65.0195 82.1078 67.2455 82.1078 69.9915" fill="#F1758E"/><path id="Fill 25" fill-rule="evenodd" clip-rule="evenodd" d="M98.2601 44.3411C98.2601 47.0871 100.486 49.3131 103.232 49.3131C105.978 49.3131 108.203 47.0871 108.203 44.3411C108.203 41.5961 105.978 39.3691 103.232 39.3691C100.486 39.3691 98.2601 41.5961 98.2601 44.3411" fill="#F9A471"/><path id="Fill 27" fill-rule="evenodd" clip-rule="evenodd" d="M88.2988 89.8089H75.5348C70.3188 89.8089 66.0908 85.5809 66.0908 80.3649V76.9929H78.8548C84.0708 76.9929 88.2988 81.2219 88.2988 86.4379V89.8089Z" fill="#788AC1"/></g></g></g><g id="Master/Worms/Jae" transform="translate(470 194) scale(1.3289036544850499 1.3936507936507936)"><g id="Master/Worms/Jae"><g id="Body/Jae" transform="translate(47.918 130.42) scale(1 1)"><g id="Body/Jae/Periwinkle"><g id="Group 9"><path id="Fill 1" fill-rule="evenodd" clip-rule="evenodd" d="M0.000732422 104.107V183.221H208.214V104.107C208.214 46.61 161.604 0 104.108 0C46.6107 0 0.000732422 46.61 0.000732422 104.107Z" fill="#96A5D4"/><path id="Fill 3" fill-rule="evenodd" clip-rule="evenodd" d="M100.977 63.6695C100.977 83.3655 85.0099 99.3325 65.3139 99.3325C45.6189 99.3325 29.6519 83.3655 29.6519 63.6695C29.6519 43.9735 45.6189 28.0065 65.3139 28.0065C85.0099 28.0065 100.977 43.9735 100.977 63.6695" fill="#E0BFDB"/><path id="Fill 5" fill-rule="evenodd" clip-rule="evenodd" d="M178.563 63.6695C178.563 83.3655 162.596 99.3325 142.9 99.3325C123.205 99.3325 107.238 83.3655 107.238 63.6695C107.238 43.9735 123.205 28.0065 142.9 28.0065C162.596 28.0065 178.563 43.9735 178.563 63.6695" fill="#E0BFDB"/><path id="Fill 7" fill-rule="evenodd" clip-rule="evenodd" d="M0 183.221H208.214V112.697H0V183.221Z" fill="#7083B2"/></g></g></g><g id="Eyes/Jae" transform="translate(124.918 186.42) scale(1 1)"><g id="Eyes/Jae/Upset"><g id="Group 6"><g id="Group 3"><path id="Fill 1" fill-rule="evenodd" clip-rule="evenodd" d="M42.6178 14H35.8008C34.6958 14 33.8008 13.105 33.8008 12C33.8008 10.896 34.6958 10 35.8008 10H42.6178C43.7218 10 44.6178 10.896 44.6178 12C44.6178 13.105 43.7218 14 42.6178 14" fill="#101335"/></g><path id="Fill 4" fill-rule="evenodd" clip-rule="evenodd" d="M17.819 14H11.001C9.89598 14 9.00098 13.105 9.00098 12C9.00098 10.896 9.89598 10 11.001 10H17.819C18.923 10 19.819 10.896 19.819 12C19.819 13.105 18.923 14 17.819 14" fill="#101335"/></g></g></g><g id="Mouth/Jae" transform="translate(132.77 206.476) scale(0.975 1)"><g id="Mouth/Jae/Sad"><g id="Group 3"><path id="Fill 1" fill-rule="evenodd" clip-rule="evenodd" d="M20.1583 1C25.9153 1 31.0263 3.089 34.0293 5.05C37.4973 7.314 38.4713 11.962 36.2073 15.43C33.9553 18.877 29.3503 19.861 25.8883 17.648C25.2623 17.263 20.1343 14.296 15.7983 17.417C12.4353 19.834 7.74832 19.072 5.33032 15.709C2.91132 12.347 3.67632 7.66 7.03832 5.241C11.3733 2.123 15.9383 1 20.1583 1" fill="#101335"/></g></g></g><g id="Hair/Jae" transform="translate(5.91797 0.420013) scale(1 1)"><g id="Hair/Jae/Blue Waves"><g id="Group 3"><path id="Fill 1" fill-rule="evenodd" clip-rule="evenodd" d="M271.055 209.668C282.288 202.978 280.525 186.198 268.146 181.99C258.452 178.694 254.655 167.003 260.559 158.639V158.639C268.1 147.958 259.663 133.347 246.644 134.537H246.643C236.448 135.469 228.222 126.334 230.215 116.291C232.759 103.466 219.11 93.5493 207.7 99.9323H207.699C198.764 104.931 187.534 99.9313 185.27 89.9463V89.9463C182.378 77.1953 165.874 73.6873 158.047 84.1603C151.917 92.3603 139.624 92.3603 133.494 84.1603C125.666 73.6873 109.163 77.1953 106.272 89.9463V89.9463C104.008 99.9313 92.7778 104.931 83.8418 99.9323C72.4318 93.5493 58.7818 103.466 61.3258 116.291C63.3198 126.334 55.0938 135.469 44.8978 134.537C31.8778 133.347 23.4418 147.958 30.9828 158.639V158.639C36.8878 167.003 33.0888 178.694 23.3958 181.99C11.0168 186.198 9.25279 202.978 20.4868 209.668C29.2828 214.907 30.5678 227.132 23.0528 234.086C13.4558 242.965 18.6698 259.012 31.6538 260.554C35.9718 261.068 39.5538 263.294 41.9498 266.396V236.606C48.7368 235.776 58.7788 232.099 63.9878 218.372C72.3138 196.433 80.9258 209.018 100.45 198.395C119.973 187.772 103.895 164.804 124.853 158.775C141.739 153.918 147.194 137.141 148.678 130.801C150.052 135.231 157.955 157.304 179.381 158.819C203.204 160.503 197.429 184.421 214.033 189.548C230.637 194.674 241.947 195.396 242.669 214.888C243.001 223.853 246.429 230.939 250.034 235.983V265.862C252.419 263.044 255.824 261.038 259.888 260.554C272.871 259.012 278.085 242.965 268.489 234.086C260.974 227.132 262.258 214.907 271.055 209.668" fill="#41AFE4"/></g></g></g><g id="Clothes/Jae" transform="translate(47.918 251.42) scale(1 1)"><g id="Clothes/Jae/Mix Scribbles"><g id="Group 35"><path id="Fill 1" fill-rule="evenodd" clip-rule="evenodd" d="M0 64.5815H208.214V1.00052H0V64.5815Z" fill="#5473B8"/><g id="Group 34"><path id="Fill 2" fill-rule="evenodd" clip-rule="evenodd" d="M72.0299 26.4419C69.8169 26.5949 69.7999 30.0619 72.0299 29.9079C80.6269 29.3149 87.6759 24.3969 92.2609 17.6109C95.7179 26.2879 106.948 28.4809 112.717 35.3249C114.479 37.4159 115.413 39.8879 115.211 42.6349C114.982 45.7309 113.716 48.6539 113.464 51.7539C113.127 55.8959 115.148 61.1299 119.742 61.8109C121.924 62.1349 122.865 58.7959 120.663 58.4689C115.132 57.6479 117.259 49.9389 118.043 46.5039C119.201 41.4179 118.613 36.9179 115.168 32.8749C112.115 29.2929 107.897 27.0879 103.963 24.6479C99.9309 22.1479 95.7789 19.0759 94.8339 14.1439C94.7889 13.9129 94.7059 13.7229 94.6039 13.5589C95.9809 10.7339 96.9799 7.70691 97.5349 4.60591C97.7459 3.42291 97.8839 2.21491 97.9639 0.999908H94.5249C94.4219 2.35291 94.2189 3.69491 93.9289 4.99991C91.5629 15.6529 83.5449 25.6479 72.0299 26.4419" fill="#E0BFDB"/><path id="Fill 4" fill-rule="evenodd" clip-rule="evenodd" d="M163.404 42.5625C163.985 41.7295 163.477 40.7205 162.782 40.1915C156.135 35.1355 152.529 26.8605 153.017 18.5745C153.148 16.3465 149.681 16.3545 149.551 18.5745C149.023 27.5505 152.868 36.1925 159.592 42.0125C155.11 48.6685 150.841 57.1685 154.927 64.5815H159.055C159.021 64.5305 158.994 64.4795 158.953 64.4295C153.25 57.5575 159.301 48.4445 163.404 42.5625" fill="#E0BFDB"/><g id="Group 8"><path id="Fill 6" fill-rule="evenodd" clip-rule="evenodd" d="M202.286 47.8364C201.046 49.0854 201.216 50.8614 201.524 52.4394C201.879 54.2514 202.01 56.0564 201.84 57.8994C201.619 60.2914 200.885 62.5504 199.762 64.5814H203.623C203.909 63.9294 204.171 63.2644 204.39 62.5784C205.523 59.0444 205.599 55.3464 204.909 51.7224C204.761 50.9444 204.441 50.3234 205.331 50.0934C206.284 49.8464 207.254 49.6504 208.215 49.4314V45.8784L207.573 46.0254C205.892 46.4094 203.569 46.5434 202.286 47.8364" fill="#E0BFDB"/></g><g id="Group 11"><path id="Fill 9" fill-rule="evenodd" clip-rule="evenodd" d="M65.8621 51.603C64.1901 50.141 61.7291 52.582 63.4121 54.054C66.6561 56.89 68.4681 60.675 70.0961 64.582H73.7641C71.7931 59.836 69.8411 55.082 65.8621 51.603" fill="#E0BFDB"/></g><path id="Fill 12" fill-rule="evenodd" clip-rule="evenodd" d="M46.155 19.9397C41.14 30.1327 29.971 35.0667 20.26 39.6937C13.573 42.8807 6.814 45.9137 0 48.8177V52.6017C5.915 50.1007 11.787 47.5007 17.61 44.7907C27.874 40.0137 39.367 35.3557 46.43 26.0697C49.439 22.1147 51.266 17.5327 51.669 12.5737C51.983 8.70073 51.442 4.80773 50.654 0.999725H47.105C48.482 7.39073 49.122 13.9087 46.155 19.9397" fill="#E0BFDB"/><path id="Fill 14" fill-rule="evenodd" clip-rule="evenodd" d="M3.691 1H0V8.832C1.016 6.125 2.251 3.504 3.691 1" fill="#E0BFDB"/><path id="Fill 16" fill-rule="evenodd" clip-rule="evenodd" d="M29.5299 46.1621C22.9209 47.8911 17.0789 53.1091 14.9359 59.6181C12.2599 60.8281 9.73588 62.6231 7.52588 64.5811H12.8919C13.2919 64.3171 13.6989 64.0631 14.1149 63.8261C14.1069 63.9431 14.0879 64.0591 14.0819 64.1771C14.0749 64.3121 14.0879 64.4461 14.0859 64.5811H17.5409C17.5579 63.7861 17.6609 63.0071 17.8139 62.2411C19.3449 61.7921 20.9299 61.5711 22.5369 61.7281C24.7909 61.9481 26.6729 62.9861 27.9319 64.5811H31.9509C31.0799 62.6831 29.7429 61.0221 28.0759 59.9651C25.2059 58.1451 22.1919 57.7581 19.2399 58.2661C22.1989 52.7141 28.5719 48.8141 34.7989 49.0071C43.4219 49.2731 50.4719 56.6141 52.6419 64.5811H56.2039C55.3689 60.9511 53.7059 57.5281 51.4259 54.5821C46.3139 47.9781 37.8619 43.9821 29.5299 46.1621" fill="#74BAB9"/><g id="Group 20"><path id="Fill 18" fill-rule="evenodd" clip-rule="evenodd" d="M110.561 15.6875C116.897 19.4885 125.375 15.5465 128.993 9.77351C130.712 7.02951 131.314 4.02451 131.162 0.999512H127.623C127.829 4.60051 126.748 8.08351 123.588 10.7675C121.052 12.9205 117.333 14.3425 114.017 13.4205C109.811 12.2505 108.164 7.62651 108.759 3.62951C108.896 2.71451 109.14 1.83851 109.467 0.999512H105.847C105.423 2.40751 105.175 3.87151 105.181 5.38351C105.199 9.44051 106.996 13.5485 110.561 15.6875" fill="#74BAB9"/></g><g id="Group 23"><path id="Fill 21" fill-rule="evenodd" clip-rule="evenodd" d="M20.6345 5.35191C25.4815 8.56491 23.7985 16.7909 20.2055 20.2459C20.0165 20.4279 19.8125 20.5859 19.6155 20.7559C14.4545 20.6089 11.9125 16.2219 12.4705 11.2079C12.9235 7.13891 16.1515 2.37891 20.6345 5.35191M8.92351 11.9099C8.69851 16.6259 10.7755 21.5489 15.3055 23.4049C10.6435 25.3739 5.08751 25.5629 -0.000488281 25.8229V29.2819C6.28551 28.8949 12.6245 28.6519 18.3525 25.7359C19.2015 25.3039 19.9955 24.7999 20.7415 24.2479C25.9655 23.8349 30.7625 20.1959 33.6675 15.8549C36.7125 11.3049 37.6375 6.14991 37.1195 0.999908H33.7035C33.8675 2.37091 33.9205 3.75991 33.8305 5.16491C33.4875 10.5259 30.0895 16.7009 25.0875 19.3899C26.6375 16.6749 27.3445 13.4949 26.9345 10.1589C26.4055 5.85491 23.2995 1.65891 19.0445 0.999908H16.7775C16.5145 1.03691 16.2525 1.07291 15.9845 1.13691C11.2765 2.26591 9.13351 7.52591 8.92351 11.9099" fill="#74BAB9"/></g><g id="Group 26"><path id="Fill 24" fill-rule="evenodd" clip-rule="evenodd" d="M205.904 20.7344C205.23 24.1394 202.758 26.8694 199.81 28.6324C198.03 27.8254 196.409 26.7454 195.198 25.2424C193.172 22.7274 192.186 19.0954 192.817 15.9134C193.488 12.5284 196.41 10.0314 199.974 11.0404C203.967 12.1704 206.704 16.6934 205.904 20.7344M192.844 9.3084C187.424 13.6454 188.58 22.4364 192.479 27.3574C193.438 28.5674 194.549 29.5484 195.752 30.3774C187.886 32.5674 179.281 28.8654 173.879 23.0404C168.383 17.1144 166.399 8.9354 166.929 1.0004H163.466C162.987 8.9264 164.781 17.0254 169.684 23.4094C175.017 30.3544 183.813 35.1364 192.716 34.3914C195.057 34.1954 197.511 33.5204 199.804 32.4544C202.432 33.4224 205.313 33.9024 208.215 34.1704V30.6744C207.876 30.6394 207.537 30.6264 207.2 30.5834C206.114 30.4434 204.981 30.2504 203.849 29.9864C205.678 28.5524 207.202 26.8044 208.215 24.7994V14.0914C205.359 8.5314 198.374 4.8834 192.844 9.3084" fill="#74BAB9"/></g><path id="Fill 27" fill-rule="evenodd" clip-rule="evenodd" d="M135.67 28.3164C137.51 23.3994 140.411 19.1514 143.365 14.8584C146.073 10.9234 148.91 6.7494 150.018 2.0274C150.099 1.6834 150.166 1.3404 150.223 1.0004H146.682C146.596 1.4054 146.499 1.8114 146.376 2.2164C144.991 6.7944 141.975 10.7874 139.292 14.6724C136.386 18.8794 133.835 23.1714 132.104 28.0064C128.903 36.9454 128.453 47.1384 131.911 56.0754C133.076 59.0854 134.638 61.9604 136.543 64.5814H140.968C139.071 62.3844 137.461 59.9294 136.199 57.3194C131.814 48.2504 132.191 37.6104 135.67 28.3164" fill="#74BAB9"/><path id="Fill 29" fill-rule="evenodd" clip-rule="evenodd" d="M187.718 56.1084C187.368 52.1734 184.805 48.3954 181.002 47.0664C177.218 45.7434 173.387 47.4994 171.052 50.5544C167.999 54.5474 167.293 59.6604 168.068 64.5814H171.509C170.86 61.1914 171.093 57.7094 172.655 54.5134C173.549 52.6864 174.951 50.8734 176.98 50.2704C179.153 49.6234 181.311 50.6954 182.673 52.3874C185.631 56.0614 184.151 60.9624 181.681 64.5814H185.837C187.234 61.9924 187.987 59.1314 187.718 56.1084" fill="#74BAB9"/><g id="Group 33"><path id="Fill 31" fill-rule="evenodd" clip-rule="evenodd" d="M92.6903 38.356C94.5563 37.472 100.849 37.044 99.1233 40.862C97.4903 44.473 90.9433 44.645 87.6673 44.573C88.5933 41.991 90.2403 39.517 92.6903 38.356M88.6293 57.318C87.0663 54.531 86.4683 51.168 86.8533 47.985C88.7983 48.073 90.7533 47.993 92.6923 47.712C96.3833 47.177 101.099 45.713 102.478 41.787C103.665 38.407 101.486 35.163 98.1193 34.399C91.3643 32.868 86.0163 38.26 84.1273 44.272C80.5823 43.747 77.1343 42.555 74.0233 40.778C65.9813 36.185 60.8793 27.687 60.2943 18.467C60.0653 14.855 60.5793 10.6 62.0053 6.781C63.5923 8.924 65.5603 10.753 67.9283 12.053C71.5463 14.039 75.7223 14.366 79.5173 12.684C82.9943 11.142 85.7783 7.984 86.0473 4.086C86.1233 2.986 86.0173 1.956 85.7633 1H81.9923C83.8343 4.756 81.0813 8.487 77.4933 9.781C71.6033 11.904 66.7753 8.037 63.8183 3.048C64.2623 2.324 64.7543 1.64 65.2893 1H58.8883C59.1703 1.745 59.4753 2.481 59.8253 3.194C57.8073 7.214 56.8263 11.858 56.7693 16.139C56.6513 25.117 60.3793 34.201 67.1863 40.139C71.7633 44.131 77.4633 46.72 83.4303 47.643C82.7193 54.22 85.3223 60.916 90.8393 64.582H100.676C99.9873 64.44 99.2983 64.289 98.6163 64.113C94.4933 63.052 90.7673 61.133 88.6293 57.318" fill="#74BAB9"/></g></g></g></g></g></g></g><g id="Master/Worms/Poh" transform="translate(196 194) scale(1.3289036544850499 1.3936507936507936)"><g id="Master/Worms/Poh"><g id="Body/Poh" transform="translate(92.457 113.4) scale(1 1)"><g id="Body/Poh/Blushie"><g id="Group 12"><g id="Group 3"><path id="Fill 1" fill-rule="evenodd" clip-rule="evenodd" d="M118.501 81.3973C118.501 74.8333 115.577 68.9623 110.977 64.9783C115.577 60.9943 118.501 55.1233 118.501 48.5593C118.501 36.5593 108.772 26.8313 96.772 26.8313C96.558 26.8313 96.35 26.8563 96.137 26.8633C96.537 25.2143 96.772 23.5013 96.772 21.7293C96.772 9.7283 87.044 0.000305176 75.044 0.000305176C69.078 0.000305176 63.677 2.40831 59.75 6.30031C55.824 2.40831 50.423 0.000305176 44.457 0.000305176C32.456 0.000305176 22.728 9.7283 22.728 21.7293C22.728 23.5013 22.964 25.2143 23.363 26.8633C23.15 26.8563 22.942 26.8313 22.728 26.8313C10.728 26.8313 1 36.5593 1 48.5593C1 55.1233 3.923 60.9943 8.524 64.9783C3.923 68.9623 1 74.8333 1 81.3973C1 87.9613 3.923 93.8323 8.524 97.8163C3.923 101.8 1 107.671 1 114.235C1 120.799 3.923 126.669 8.524 130.654C3.923 134.638 1 140.508 1 147.073C1 153.637 3.923 159.507 8.524 163.492C3.923 167.476 1 173.346 1 179.91C1 191.305 9.776 200.634 20.936 201.548L20.933 201.639H96.772C108.772 201.639 118.501 191.91 118.501 179.91C118.501 173.346 115.578 167.476 110.977 163.492C115.578 159.507 118.501 153.637 118.501 147.073C118.501 140.508 115.578 134.638 110.977 130.654C115.578 126.669 118.501 120.799 118.501 114.235C118.501 107.671 115.578 101.8 110.977 97.8163C115.578 93.8323 118.501 87.9613 118.501 81.3973" fill="#9FD5DD"/></g><g id="Group 6"><path id="Fill 4" fill-rule="evenodd" clip-rule="evenodd" d="M2.11824 88.282L2.33624 88.479C4.63924 90.679 7.57324 90.679 9.87624 88.479L10.0362 88.325C12.3542 86.11 15.3122 86.126 17.6202 88.367C19.9422 90.623 22.9242 90.623 25.2462 88.367C27.5542 86.126 30.5122 86.11 32.8292 88.324L32.9802 88.469C35.2822 90.669 38.2172 90.669 40.5192 88.469L40.7012 88.295C43.0032 86.095 45.9372 86.095 48.2392 88.295L48.3592 88.409C50.6612 90.609 53.5962 90.609 55.8982 88.409L56.1412 88.176C58.4432 85.976 61.3792 85.976 63.6812 88.176L63.8002 88.29C66.1022 90.49 69.0372 90.49 71.3392 88.29L71.3962 88.236C73.6982 86.036 76.6332 86.036 78.9352 88.236L79.0722 88.366C81.3742 90.566 84.3082 90.566 86.6112 88.366L86.7062 88.276C89.0082 86.076 91.9432 86.076 94.2452 88.276L94.3512 88.377C96.6532 90.577 99.5892 90.577 101.89 88.377L102.147 88.132C104.449 85.932 107.385 85.932 109.686 88.132L109.896 88.332C112.198 90.532 115.031 90.626 117.333 88.427C116.072 92.099 113.852 95.326 110.976 97.816C115.578 101.801 118.501 107.671 118.501 114.235C118.501 120.8 115.578 126.67 110.976 130.654C115.578 134.638 118.501 140.509 118.501 147.073C118.501 153.637 115.578 159.508 110.976 163.492C115.578 167.476 118.501 173.346 118.501 179.91C118.501 191.91 108.772 201.639 96.7722 201.639H20.9322L20.9352 201.549C9.77624 200.635 1.00024 191.305 1.00024 179.91C1.00024 173.346 3.92324 167.476 8.52424 163.492C3.92324 159.508 1.00024 153.637 1.00024 147.073C1.00024 140.509 3.92324 134.638 8.52424 130.654C3.92324 126.67 1.00024 120.8 1.00024 114.235C1.00024 107.671 3.92324 101.801 8.52424 97.816C5.61024 95.294 3.37024 92.014 2.11824 88.282" fill="#77BCC1"/></g><path id="Fill 7" fill-rule="evenodd" clip-rule="evenodd" d="M2.754 72.8675C6.144 75.4465 10.359 76.9945 14.946 76.9945C26.089 76.9945 35.122 67.9625 35.122 56.8195C35.122 45.6775 26.089 36.6445 14.946 36.6445C10.162 36.6445 5.773 38.3185 2.315 41.1015C1.464 43.4275 1 45.9395 1 48.5595C1 55.1235 3.923 60.9945 8.525 64.9785C6.048 67.1225 4.065 69.8165 2.754 72.8675" fill="#ED6389"/><g id="Group 11"><path id="Fill 9" fill-rule="evenodd" clip-rule="evenodd" d="M84.3789 56.8196C84.3789 67.9626 93.4119 76.9946 104.555 76.9946C109.142 76.9946 113.358 75.4456 116.747 72.8676C115.437 69.8166 113.453 67.1226 110.977 64.9786C115.578 60.9946 118.501 55.1236 118.501 48.5596C118.501 45.9396 118.037 43.4276 117.187 41.1016C113.729 38.3186 109.339 36.6446 104.555 36.6446C93.4119 36.6446 84.3789 45.6766 84.3789 56.8196" fill="#ED6389"/></g></g></g></g><g id="Eyes/Poh" transform="translate(131.918 153.017) scale(1 1)"><g id="Eyes/Poh/Open"><g id="Eyes"><path id="Fill 12" fill-rule="evenodd" clip-rule="evenodd" d="M10.7715 11.6831V11.6831C9.11548 11.6831 7.77148 10.3401 7.77148 8.6831V5.6781C7.77148 4.0211 9.11548 2.6781 10.7715 2.6781C12.4285 2.6781 13.7715 4.0211 13.7715 5.6781V8.6831C13.7715 10.3401 12.4285 11.6831 10.7715 11.6831" fill="#101335"/><path id="Fill 14" fill-rule="evenodd" clip-rule="evenodd" d="M29.7646 11.6831V11.6831C28.1086 11.6831 26.7656 10.3401 26.7656 8.6831V5.6781C26.7656 4.0211 28.1086 2.6781 29.7646 2.6781C31.4216 2.6781 32.7646 4.0211 32.7646 5.6781V8.6831C32.7646 10.3401 31.4216 11.6831 29.7646 11.6831" fill="#101335"/></g></g></g><g id="Mouth/Poh" transform="translate(131.904 166.433) scale(0.975609756097561 1)"><g id="Mouth/Poh/Smiling"><g id="Group 3"><path id="Fill 1" fill-rule="evenodd" clip-rule="evenodd" d="M11.918 5.00006H29.769C29.769 5.00006 28.698 14.3771 20.392 14.3771C12.086 14.3771 11.918 5.00006 11.918 5.00006" fill="white"/></g></g></g><g id="Hair/Poh" transform="translate(80.918 60.5) scale(1 1)"><g id="Hair/Poh/Colour Buns"><g id="Group 25"><path id="Fill 1" fill-rule="evenodd" clip-rule="evenodd" d="M74.7923 85.8037C74.7923 87.4987 73.4173 88.8727 71.7223 88.8727C70.0273 88.8727 68.6523 87.4987 68.6523 85.8037C68.6523 84.1087 70.0273 82.7347 71.7223 82.7347C73.4173 82.7347 74.7923 84.1087 74.7923 85.8037" fill="white"/><g id="Group 5"><path id="Fill 3" fill-rule="evenodd" clip-rule="evenodd" d="M131.325 71.8242C131.325 77.9052 126.395 82.8352 120.313 82.8352C114.232 82.8352 109.303 77.9052 109.303 71.8242C109.303 65.7432 114.232 60.8132 120.313 60.8132C126.395 60.8132 131.325 65.7432 131.325 71.8242" fill="#FFCC37"/></g><path id="Fill 6" fill-rule="evenodd" clip-rule="evenodd" d="M111.928 84.2939C111.159 84.2939 110.402 83.9409 109.912 83.2749L105.67 77.5059C104.852 76.3939 105.09 74.8289 106.202 74.0109C107.316 73.1939 108.881 73.4319 109.698 74.5439L113.94 80.3129C114.758 81.4249 114.52 82.9899 113.407 83.8079C112.961 84.1359 112.443 84.2939 111.928 84.2939" fill="#3A3E5B"/><path id="Fill 8" fill-rule="evenodd" clip-rule="evenodd" d="M78.0096 36.1469C82.9056 39.7539 83.9496 46.6469 80.3436 51.5429C76.7366 56.4389 69.8436 57.4829 64.9466 53.8759C60.0516 50.2699 59.0066 43.3769 62.6136 38.4809C66.2206 33.5849 73.1136 32.5399 78.0096 36.1469" fill="#5473B8"/><path id="Fill 10" fill-rule="evenodd" clip-rule="evenodd" d="M74.5321 60.1767H74.5301L67.3691 60.1707C65.9881 60.1697 64.8701 59.0497 64.8711 57.6687C64.8721 56.2887 65.9911 55.1707 67.3711 55.1707H67.3731L74.5341 55.1767C75.9151 55.1777 77.0331 56.2977 77.0321 57.6787C77.0311 59.0587 75.9121 60.1767 74.5321 60.1767" fill="#3A3E5B"/><path id="Fill 12" fill-rule="evenodd" clip-rule="evenodd" d="M113.826 40.6596C116.572 46.0856 114.398 52.7106 108.972 55.4556C103.547 58.2016 96.9221 56.0286 94.1771 50.6016C91.4311 45.1756 93.6041 38.5516 99.0301 35.8056C104.457 33.0606 111.081 35.2336 113.826 40.6596" fill="#F1758E"/><path id="Fill 14" fill-rule="evenodd" clip-rule="evenodd" d="M101.017 60.8135C100.637 60.8135 100.252 60.7275 99.891 60.5435L93.501 57.3125C92.269 56.6885 91.775 55.1845 92.399 53.9525C93.022 52.7205 94.529 52.2285 95.757 52.8505L102.147 56.0825C103.379 56.7055 103.873 58.2095 103.249 59.4415C102.81 60.3115 101.93 60.8135 101.017 60.8135" fill="#3A3E5B"/><g id="Group 18"><path id="Fill 16" fill-rule="evenodd" clip-rule="evenodd" d="M29.9948 40.042C27.2498 45.468 29.4228 52.093 34.8488 54.838C40.2748 57.584 46.8988 55.411 49.6448 49.984C52.3908 44.559 50.2178 37.934 44.7908 35.188C39.3648 32.443 32.7408 34.616 29.9948 40.042" fill="#F9A471"/></g><path id="Fill 19" fill-rule="evenodd" clip-rule="evenodd" d="M42.8029 60.1958C41.8899 60.1958 41.0099 59.6938 40.5709 58.8238C39.9469 57.5918 40.4409 56.0878 41.6729 55.4648L48.0639 52.2328C49.2949 51.6078 50.7999 52.1038 51.4219 53.3348C52.0459 54.5678 51.5519 56.0708 50.3199 56.6948L43.9289 59.9258C43.5679 60.1098 43.1819 60.1958 42.8029 60.1958" fill="#3A3E5B"/><path id="Fill 21" fill-rule="evenodd" clip-rule="evenodd" d="M12 71.8242C12 77.9052 16.93 82.8352 23.011 82.8352C29.092 82.8352 34.021 77.9052 34.021 71.8242C34.021 65.7432 29.092 60.8132 23.011 60.8132C16.93 60.8132 12 65.7432 12 71.8242" fill="#41AFE4"/><path id="Fill 23" fill-rule="evenodd" clip-rule="evenodd" d="M31.3948 84.2939C30.8798 84.2939 30.3618 84.1359 29.9158 83.8079C28.8028 82.9899 28.5648 81.4249 29.3828 80.3129L33.6248 74.5439C34.4428 73.4319 36.0078 73.1929 37.1208 74.0109C38.2328 74.8289 38.4708 76.3939 37.6528 77.5059L33.4108 83.2749C32.9208 83.9409 32.1638 84.2939 31.3948 84.2939" fill="#3A3E5B"/></g></g></g><g id="Clothes/Poh" transform="translate(92.918 199) scale(1 1)"><g id="Clothes/Poh/Lavender Polkas"><g id="Group 71"><g id="Group 3"><path id="Fill 1" fill-rule="evenodd" clip-rule="evenodd" d="M8.07478 12.2082L8.30578 12.4242C10.3508 14.3792 12.9598 14.3792 15.0048 12.4242L15.1468 12.2882C17.2068 10.3192 19.8348 10.3342 21.8848 12.3252C23.9478 14.3292 26.5958 14.3292 28.6608 12.3252C30.7108 10.3342 33.3388 10.3192 35.3968 12.2872L35.5308 12.4152C37.5768 14.3702 40.1838 14.3702 42.2288 12.4152L42.3898 12.2612C44.4358 10.3072 47.0438 10.3072 49.0888 12.2612L49.1948 12.3622C51.2398 14.3172 53.8468 14.3172 55.8918 12.3622L56.1088 12.1552C58.1538 10.2012 60.7628 10.2012 62.8068 12.1552L62.9128 12.2572C64.9588 14.2112 67.5658 14.2112 69.6108 12.2572L69.6618 12.2082C71.7068 10.2542 74.3138 10.2542 76.3598 12.2082L76.4808 12.3242C78.5258 14.2792 81.1348 14.2792 83.1798 12.3242L83.2628 12.2442C85.3088 10.2892 87.9168 10.2892 89.9618 12.2442L90.0558 12.3342C92.1008 14.2882 94.7088 14.2882 96.7538 12.3342L96.9818 12.1162C99.0278 10.1612 101.636 10.1612 103.68 12.1162L103.867 12.2932C105.912 14.2482 108.482 14.1632 110.527 12.2082C115.129 16.1922 118.052 22.0632 118.052 28.6272C118.052 35.1912 115.129 41.0622 110.527 45.0462C115.129 49.0302 118.052 54.9002 118.052 61.4652C118.052 68.0292 115.129 73.8992 110.527 77.8842C115.129 81.8682 118.052 87.7382 118.052 94.3022C118.052 106.302 108.323 116.031 96.3228 116.031H20.4828L20.4858 115.94C9.32678 115.026 0.550781 105.697 0.550781 94.3022C0.550781 87.7382 3.47278 81.8682 8.07478 77.8842C3.47278 73.8992 0.550781 68.0292 0.550781 61.4652C0.550781 54.9002 3.47278 49.0302 8.07478 45.0462C3.47278 41.0622 0.550781 35.1912 0.550781 28.6272C0.550781 22.0632 3.47278 16.1922 8.07478 12.2082" fill="#4FA480"/></g><path id="Fill 4" fill-rule="evenodd" clip-rule="evenodd" d="M9.76129 31.1369C9.76129 26.2559 6.45929 22.1569 1.97029 20.9229C1.05729 23.3169 0.550293 25.9109 0.550293 28.6269C0.550293 33.0189 1.86429 37.0969 4.10829 40.5109C7.46929 38.7319 9.76129 35.2039 9.76129 31.1369" fill="#E0BFDB"/><path id="Fill 6" fill-rule="evenodd" clip-rule="evenodd" d="M34.647 31.1369C34.647 25.2809 29.899 20.5329 24.043 20.5329C18.187 20.5329 13.439 25.2809 13.439 31.1369C13.439 36.9929 18.187 41.7409 24.043 41.7409C29.899 41.7409 34.647 36.9929 34.647 31.1369" fill="#E0BFDB"/><path id="Fill 8" fill-rule="evenodd" clip-rule="evenodd" d="M48.9292 41.7409C54.7852 41.7409 59.5332 36.9929 59.5332 31.1369C59.5332 25.2809 54.7852 20.5329 48.9292 20.5329C43.0732 20.5329 38.3252 25.2809 38.3252 31.1369C38.3252 36.9929 43.0732 41.7409 48.9292 41.7409" fill="#E0BFDB"/><path id="Fill 10" fill-rule="evenodd" clip-rule="evenodd" d="M73.8149 41.7409C79.6709 41.7409 84.4189 36.9929 84.4189 31.1369C84.4189 25.2809 79.6709 20.5329 73.8149 20.5329C67.9589 20.5329 63.2109 25.2809 63.2109 31.1369C63.2109 36.9929 67.9589 41.7409 73.8149 41.7409" fill="#E0BFDB"/><path id="Fill 12" fill-rule="evenodd" clip-rule="evenodd" d="M98.7007 41.7409C104.557 41.7409 109.305 36.9929 109.305 31.1369C109.305 25.2809 104.557 20.5329 98.7007 20.5329C92.8447 20.5329 88.0967 25.2809 88.0967 31.1369C88.0967 36.9929 92.8447 41.7409 98.7007 41.7409" fill="#E0BFDB"/><path id="Fill 14" fill-rule="evenodd" clip-rule="evenodd" d="M112.983 31.1369C112.983 33.8959 114.045 36.4009 115.773 38.2869C117.226 35.3779 118.051 32.1019 118.051 28.6269C118.051 26.5609 117.76 24.5639 117.22 22.6719C114.652 24.6069 112.983 27.6729 112.983 31.1369" fill="#E0BFDB"/><path id="Fill 16" fill-rule="evenodd" clip-rule="evenodd" d="M21.7097 12.1808C19.6867 10.3508 17.1497 10.3738 15.1477 12.2878L15.0047 12.4248C12.9597 14.3788 10.3517 14.3788 8.30671 12.4248L8.07471 12.2078C6.59471 13.4898 5.29171 14.9688 4.19971 16.6008C6.10971 18.4598 8.71471 19.6088 11.5907 19.6088C16.3407 19.6088 20.3597 16.4848 21.7097 12.1808" fill="#E0BFDB"/><path id="Fill 18" fill-rule="evenodd" clip-rule="evenodd" d="M36.4763 19.6086C41.6583 19.6086 45.9653 15.8896 46.8903 10.9766C45.3623 10.5456 43.7523 10.9596 42.3903 12.2616L42.2293 12.4156C40.1843 14.3696 37.5773 14.3696 35.5323 12.4156L35.3973 12.2876C33.3383 10.3196 30.7103 10.3346 28.6613 12.3246C28.1033 12.8666 27.5013 13.2486 26.8823 13.4976C28.5753 17.1046 32.2283 19.6086 36.4763 19.6086" fill="#E0BFDB"/><path id="Fill 20" fill-rule="evenodd" clip-rule="evenodd" d="M61.363 19.6086C66.553 19.6086 70.866 15.8766 71.781 10.9496C71.042 11.1736 70.321 11.5786 69.662 12.2086L69.611 12.2566C67.566 14.2116 64.959 14.2116 62.913 12.2566L62.807 12.1556C60.762 10.2016 58.154 10.2016 56.109 12.1556L55.892 12.3626C54.679 13.5226 53.269 13.9766 51.894 13.7596C53.638 17.2256 57.218 19.6086 61.363 19.6086" fill="#E0BFDB"/><path id="Fill 22" fill-rule="evenodd" clip-rule="evenodd" d="M86.2487 19.6086C90.7487 19.6086 94.5847 16.8006 96.1247 12.8446C94.1917 14.2546 91.8977 14.0936 90.0567 12.3346L89.9617 12.2436C87.9167 10.2896 85.3097 10.2896 83.2637 12.2436L83.1797 12.3246C81.1347 14.2786 78.5257 14.2786 76.4807 12.3246L76.3597 12.2086C76.2687 12.1206 76.1697 12.0576 76.0747 11.9776C77.3607 16.3856 81.4257 19.6086 86.2487 19.6086" fill="#E0BFDB"/><path id="Fill 24" fill-rule="evenodd" clip-rule="evenodd" d="M111.134 19.6086C112.73 19.6086 114.238 19.2466 115.595 18.6146C114.319 16.1716 112.594 13.9986 110.527 12.2086C108.482 14.1626 105.911 14.2486 103.866 12.2936L103.68 12.1156C102.759 11.2356 101.723 10.7736 100.676 10.6866C101.484 15.7416 105.852 19.6086 111.134 19.6086" fill="#E0BFDB"/><path id="Fill 26" fill-rule="evenodd" clip-rule="evenodd" d="M9.77003 75.401C9.77003 70.112 5.89503 65.741 0.832031 64.941C1.66303 70.084 4.30303 74.618 8.07503 77.884C5.67503 79.961 3.73903 82.554 2.42803 85.488C6.68803 84.112 9.77003 80.118 9.77003 75.401" fill="#E0BFDB"/><path id="Fill 28" fill-rule="evenodd" clip-rule="evenodd" d="M34.6567 75.401C34.6567 69.545 29.9087 64.797 24.0527 64.797C18.1957 64.797 13.4487 69.545 13.4487 75.401C13.4487 81.257 18.1957 86.005 24.0527 86.005C29.9087 86.005 34.6567 81.257 34.6567 75.401" fill="#E0BFDB"/><path id="Fill 30" fill-rule="evenodd" clip-rule="evenodd" d="M59.5425 75.401C59.5425 69.545 54.7945 64.797 48.9385 64.797C43.0825 64.797 38.3345 69.545 38.3345 75.401C38.3345 81.257 43.0825 86.005 48.9385 86.005C54.7945 86.005 59.5425 81.257 59.5425 75.401" fill="#E0BFDB"/><path id="Fill 32" fill-rule="evenodd" clip-rule="evenodd" d="M84.4282 75.401C84.4282 69.545 79.6812 64.797 73.8242 64.797C67.9682 64.797 63.2202 69.545 63.2202 75.401C63.2202 81.257 67.9682 86.005 73.8242 86.005C79.6812 86.005 84.4282 81.257 84.4282 75.401" fill="#E0BFDB"/><path id="Fill 34" fill-rule="evenodd" clip-rule="evenodd" d="M109.314 75.401C109.314 69.545 104.567 64.797 98.7099 64.797C92.8539 64.797 88.1069 69.545 88.1069 75.401C88.1069 81.257 92.8539 86.005 98.7099 86.005C104.567 86.005 109.314 81.257 109.314 75.401" fill="#E0BFDB"/><path id="Fill 36" fill-rule="evenodd" clip-rule="evenodd" d="M112.994 75.3717C115.044 72.9227 116.559 70.0167 117.373 66.8287C114.73 68.7507 113.004 71.8557 112.994 75.3717" fill="#E0BFDB"/><path id="Fill 38" fill-rule="evenodd" clip-rule="evenodd" d="M11.6001 63.8727C17.4561 63.8727 22.2041 59.1247 22.2041 53.2687C22.2041 47.4127 17.4561 42.6647 11.6001 42.6647C9.86608 42.6647 8.23308 43.0897 6.78808 43.8277C7.20208 44.2487 7.62708 44.6587 8.07508 45.0457C4.85208 47.8367 2.45708 51.5537 1.30908 55.7857C2.44008 60.4247 6.61208 63.8727 11.6001 63.8727" fill="#E0BFDB"/><path id="Fill 40" fill-rule="evenodd" clip-rule="evenodd" d="M25.8823 53.2692C25.8823 59.1252 30.6293 63.8732 36.4863 63.8732C42.3423 63.8732 47.0903 59.1252 47.0903 53.2692C47.0903 47.4132 42.3423 42.6652 36.4863 42.6652C30.6293 42.6652 25.8823 47.4132 25.8823 53.2692" fill="#E0BFDB"/><path id="Fill 42" fill-rule="evenodd" clip-rule="evenodd" d="M50.7681 53.2692C50.7681 59.1252 55.5151 63.8732 61.3721 63.8732C67.2281 63.8732 71.9761 59.1252 71.9761 53.2692C71.9761 47.4132 67.2281 42.6652 61.3721 42.6652C55.5151 42.6652 50.7681 47.4132 50.7681 53.2692" fill="#E0BFDB"/><path id="Fill 44" fill-rule="evenodd" clip-rule="evenodd" d="M75.6538 53.2692C75.6538 59.1252 80.4018 63.8732 86.2578 63.8732C92.1148 63.8732 96.8618 59.1252 96.8618 53.2692C96.8618 47.4132 92.1148 42.6652 86.2578 42.6652C80.4018 42.6652 75.6538 47.4132 75.6538 53.2692" fill="#E0BFDB"/><path id="Fill 46" fill-rule="evenodd" clip-rule="evenodd" d="M100.541 53.2692C100.541 59.1252 105.288 63.8732 111.145 63.8732C113.783 63.8732 116.191 62.9032 118.048 61.3082C118.001 54.8072 115.092 48.9982 110.527 45.0462C111.327 44.3532 112.072 43.6012 112.764 42.8012C112.234 42.7202 111.696 42.6652 111.145 42.6652C105.288 42.6652 100.541 47.4132 100.541 53.2692" fill="#E0BFDB"/><g id="Group 50"><path id="Fill 48" fill-rule="evenodd" clip-rule="evenodd" d="M24.0623 109.061C20.0193 109.061 16.5073 111.324 14.7183 114.652C16.5403 115.328 18.4723 115.775 20.4863 115.94L20.4833 116.031H34.0133C32.5283 111.967 28.6393 109.061 24.0623 109.061" fill="#E0BFDB"/></g><g id="Group 53"><path id="Fill 51" fill-rule="evenodd" clip-rule="evenodd" d="M48.9476 109.061C44.3706 109.061 40.4816 111.967 38.9966 116.031H58.8986C57.4136 111.967 53.5256 109.061 48.9476 109.061" fill="#E0BFDB"/></g><g id="Group 56"><path id="Fill 54" fill-rule="evenodd" clip-rule="evenodd" d="M73.8338 109.061C69.2568 109.061 65.3678 111.967 63.8838 116.031H83.7848C82.3008 111.967 78.4118 109.061 73.8338 109.061" fill="#E0BFDB"/></g><g id="Group 59"><path id="Fill 57" fill-rule="evenodd" clip-rule="evenodd" d="M98.7205 109.061C94.1425 109.061 90.2535 111.967 88.7695 116.031H96.3235C100.243 116.031 103.916 114.988 107.092 113.172C105.152 110.675 102.128 109.061 98.7205 109.061" fill="#E0BFDB"/></g><path id="Fill 60" fill-rule="evenodd" clip-rule="evenodd" d="M11.6099 108.137C17.4649 108.137 22.2139 103.389 22.2139 97.5329C22.2139 91.6769 17.4649 86.9289 11.6099 86.9289C5.75386 86.9289 1.00586 91.6769 1.00586 97.5329C1.00586 98.1819 1.07286 98.8139 1.18386 99.4299C1.37786 100.226 1.60986 101.005 1.88786 101.763C3.52286 105.513 7.25686 108.137 11.6099 108.137" fill="#E0BFDB"/><path id="Fill 62" fill-rule="evenodd" clip-rule="evenodd" d="M36.4956 86.9294C30.6396 86.9294 25.8916 91.6774 25.8916 97.5334C25.8916 103.389 30.6396 108.137 36.4956 108.137C42.3516 108.137 47.0996 103.389 47.0996 97.5334C47.0996 91.6774 42.3516 86.9294 36.4956 86.9294" fill="#E0BFDB"/><path id="Fill 64" fill-rule="evenodd" clip-rule="evenodd" d="M61.3813 86.9294C55.5253 86.9294 50.7773 91.6774 50.7773 97.5334C50.7773 103.389 55.5253 108.137 61.3813 108.137C67.2373 108.137 71.9863 103.389 71.9863 97.5334C71.9863 91.6774 67.2373 86.9294 61.3813 86.9294" fill="#E0BFDB"/><path id="Fill 66" fill-rule="evenodd" clip-rule="evenodd" d="M86.2671 86.9294C80.4111 86.9294 75.6631 91.6774 75.6631 97.5334C75.6631 103.389 80.4111 108.137 86.2671 108.137C92.1231 108.137 96.8711 103.389 96.8711 97.5334C96.8711 91.6774 92.1231 86.9294 86.2671 86.9294" fill="#E0BFDB"/><g id="Group 70"><path id="Fill 68" fill-rule="evenodd" clip-rule="evenodd" d="M100.549 97.5334C100.549 103.389 105.297 108.137 111.153 108.137C111.868 108.137 112.567 108.064 113.242 107.929C116.248 104.201 118.051 99.4634 118.051 94.3024C118.051 92.4574 117.813 90.6704 117.378 88.9624C115.629 87.6894 113.483 86.9294 111.153 86.9294C105.297 86.9294 100.549 91.6774 100.549 97.5334" fill="#E0BFDB"/></g></g></g></g></g></g></g></svg>