<svg viewBox="333.125 131.87956204379554 399.7499999999998 466.2408759124088" fill="none" xmlns="http://www.w3.org/2000/svg" xmlns:xlink="http://www.w3.org/1999/xlink" overflow="visible" width="399.7499999999998px" height="466.2408759124088px"><g id="Master/Stickers/Flower"><g id="Group 67"><g id="Group 13"><path id="Fill 1" fill-rule="evenodd" clip-rule="evenodd" d="M532.171 297.448C544.244 297.448 555.565 300.639 565.367 306.202C674.565 89.9463 389.778 89.9463 498.975 306.202C508.777 300.639 520.099 297.448 532.171 297.448" fill="#96A5D4"/><path id="Fill 3" fill-rule="evenodd" clip-rule="evenodd" d="M599.564 364.315C841.341 350.815 698.947 104.031 566.375 306.782C586.086 318.422 599.356 339.804 599.564 364.315" fill="#96A5D4"/><path id="Fill 5" fill-rule="evenodd" clip-rule="evenodd" d="M464.779 364.315C464.987 339.804 478.257 318.422 497.968 306.782C365.396 104.03 223.002 350.815 464.779 364.315" fill="#96A5D4"/><path id="Fill 7" fill-rule="evenodd" clip-rule="evenodd" d="M464.779 365.478C223.002 378.978 365.396 625.763 497.968 423.011C478.257 411.371 464.987 389.989 464.779 365.478" fill="#96A5D4"/><path id="Fill 9" fill-rule="evenodd" clip-rule="evenodd" d="M599.564 365.478C599.356 389.989 586.086 411.371 566.375 423.011C698.947 625.763 841.341 378.978 599.564 365.478" fill="#96A5D4"/><path id="Fill 11" fill-rule="evenodd" clip-rule="evenodd" d="M532.171 432.344C520.099 432.344 508.777 429.153 498.975 423.591C389.778 639.846 674.565 639.847 565.367 423.591C555.565 429.153 544.244 432.344 532.171 432.344" fill="#96A5D4"/></g><g id="Group 53"><g id="Group 16"><path id="Fill 14" fill-rule="evenodd" clip-rule="evenodd" d="M532.658 494.687V457.458H529.66V494.687" fill="#E0BFDB"/></g><g id="Group 19"><path id="Fill 17" fill-rule="evenodd" clip-rule="evenodd" d="M544.694 504.695C544.694 512.174 538.635 518.237 531.16 518.237C523.685 518.237 517.627 512.174 517.627 504.695C517.627 497.216 523.685 491.153 531.16 491.153C538.635 491.153 544.694 497.216 544.694 504.695" fill="#BF62A2"/></g><g id="Group 22"><path id="Fill 20" fill-rule="evenodd" clip-rule="evenodd" d="M530.672 239.286V276.515H533.67V239.286" fill="#E0BFDB"/></g><g id="Group 25"><path id="Fill 23" fill-rule="evenodd" clip-rule="evenodd" d="M518.639 229.277C518.639 221.798 524.698 215.735 532.173 215.735C539.647 215.735 545.705 221.798 545.705 229.277C545.705 236.756 539.647 242.819 532.173 242.819C524.698 242.819 518.639 236.756 518.639 229.277" fill="#BF62A2"/></g><g id="Group 28"><path id="Fill 26" fill-rule="evenodd" clip-rule="evenodd" d="M426.627 303.869L458.85 322.484L460.348 319.886L428.126 301.271" fill="#E0BFDB"/></g><g id="Group 31"><path id="Fill 29" fill-rule="evenodd" clip-rule="evenodd" d="M411.947 309.293C405.474 305.553 403.256 297.272 406.993 290.794C410.731 284.318 419.007 282.099 425.481 285.838C431.954 289.578 434.171 297.859 430.434 304.336C426.697 310.813 418.42 313.032 411.947 309.293" fill="#BF62A2"/></g><g id="Group 34"><path id="Fill 32" fill-rule="evenodd" clip-rule="evenodd" d="M642.262 425.052L610.039 406.437L608.541 409.035L640.763 427.65" fill="#E0BFDB"/></g><g id="Group 37"><path id="Fill 35" fill-rule="evenodd" clip-rule="evenodd" d="M656.942 419.627C663.415 423.366 665.633 431.648 661.896 438.125C658.158 444.602 649.881 446.821 643.408 443.082C636.935 439.342 634.717 431.061 638.454 424.584C642.192 418.107 650.469 415.888 656.942 419.627" fill="#BF62A2"/></g><g id="Group 40"><path id="Fill 38" fill-rule="evenodd" clip-rule="evenodd" d="M639.873 306.479L607.65 325.094L609.149 327.691L641.372 309.077" fill="#E0BFDB"/></g><g id="Group 43"><path id="Fill 41" fill-rule="evenodd" clip-rule="evenodd" d="M642.519 291.046C648.992 287.307 657.269 289.526 661.007 296.003C664.744 302.48 662.526 310.761 656.053 314.501C649.58 318.24 641.303 316.021 637.565 309.544C633.828 303.067 636.046 294.785 642.519 291.046" fill="#BF62A2"/></g><g id="Group 46"><path id="Fill 44" fill-rule="evenodd" clip-rule="evenodd" d="M427.138 429.099L459.36 410.484L457.861 407.887L425.639 426.501" fill="#E0BFDB"/></g><g id="Group 49"><path id="Fill 47" fill-rule="evenodd" clip-rule="evenodd" d="M424.492 444.532C418.019 448.271 409.742 446.052 406.005 439.575C402.268 433.098 404.485 424.817 410.958 421.077C417.431 417.338 425.708 419.557 429.446 426.034C433.183 432.511 430.965 440.793 424.492 444.532" fill="#BF62A2"/></g><g id="Group 52"><path id="Fill 50" fill-rule="evenodd" clip-rule="evenodd" d="M532.173 432.344C494.945 432.344 464.766 402.147 464.766 364.896C464.766 327.646 494.945 297.448 532.173 297.448C569.401 297.448 599.581 327.646 599.581 364.896C599.581 402.147 569.401 432.344 532.173 432.344M631.227 359.718V359.718C637.257 346.179 633.046 330.265 621.109 321.488C614.88 316.907 610.552 310.196 608.948 302.63C605.874 288.131 593.119 277.733 578.305 277.652C570.576 277.61 563.132 274.725 557.389 269.548C546.385 259.626 529.957 258.716 517.926 267.363C511.647 271.874 503.931 273.919 496.245 273.108C481.513 271.553 467.688 280.478 463.034 294.55V294.55C460.605 301.892 455.563 308.085 448.868 311.949C436.036 319.355 430.094 334.707 434.596 348.829C436.943 356.198 436.503 364.173 433.356 371.237C427.325 384.776 431.538 400.689 443.474 409.467C449.702 414.047 454.03 420.759 455.634 428.324C458.708 442.824 471.464 453.222 486.278 453.302C494.007 453.345 501.451 456.229 507.193 461.406C518.198 471.329 534.625 472.239 546.656 463.592C552.935 459.08 560.652 457.035 568.338 457.847C583.07 459.402 596.894 450.477 601.549 436.405C603.978 429.063 609.02 422.87 615.715 419.006C628.546 411.599 634.488 396.248 629.987 382.126C627.639 374.758 628.08 366.782 631.227 359.718" fill="#F9A471"/></g></g><g id="Group 66"><g id="Group 56"><path id="Fill 54" fill-rule="evenodd" clip-rule="evenodd" d="M677.326 227.262C677.326 227.262 694.743 231.507 692.286 252.285C689.831 273.064 696.306 279.32 708.809 284.458C721.314 289.597 724.217 301.886 723.547 308.812C723.547 308.812 739.612 282.619 724.173 254.032C709.871 227.552 677.326 227.262 677.326 227.262" fill="#BF62A2"/></g><path id="Fill 57" fill-rule="evenodd" clip-rule="evenodd" d="M723.547 308.811C724.217 301.885 721.315 289.597 708.81 284.457C696.306 279.319 689.831 273.063 692.287 252.285C694.743 231.506 677.326 227.261 677.326 227.261C677.326 227.261 689.214 233.359 688.412 246.74C687.807 256.822 680.004 268.233 685.351 278.854C690.698 289.475 709.869 286.08 715.598 291.933C719.317 295.733 723.015 301.334 723.547 308.811" fill="#96A5D4"/><g id="Group 61"><path id="Fill 59" fill-rule="evenodd" clip-rule="evenodd" d="M578.715 559.559C578.715 559.559 566.37 572.489 549.667 560.011C532.964 547.532 524.339 550.008 513.672 558.249C503.005 566.49 490.845 562.93 485.203 558.899C485.203 558.899 499.905 585.776 532.266 586.687C562.242 587.53 578.715 559.559 578.715 559.559" fill="#BF62A2"/></g><path id="Fill 62" fill-rule="evenodd" clip-rule="evenodd" d="M485.203 558.899C490.845 562.93 503.005 566.49 513.672 558.249C524.339 550.008 532.964 547.532 549.667 560.01C566.37 572.489 578.715 559.559 578.715 559.559C578.715 559.559 567.529 566.788 556.383 559.426C547.985 553.878 542.03 541.45 530.201 540.775C518.371 540.101 511.745 558.356 503.839 560.387C498.707 561.706 491.919 562.165 485.203 558.899" fill="#96A5D4"/><path id="Fill 64" fill-rule="evenodd" clip-rule="evenodd" d="M599.564 364.896C599.564 402.111 569.413 432.281 532.22 432.281C495.026 432.281 464.875 402.111 464.875 364.896C464.875 327.68 495.026 297.511 532.22 297.511C569.413 297.511 599.564 327.68 599.564 364.896" fill="#FFCC37"/></g></g></g></svg>