<svg viewBox="36 27.839805825242763 648.0000000000002 314.32038834951464" fill="none" xmlns="http://www.w3.org/2000/svg" xmlns:xlink="http://www.w3.org/1999/xlink" overflow="visible" width="648.0000000000002px" height="314.32038834951464px"><g id="Master/Background/Worm Blasts"><g id="Background" transform="scale(1 1)"><g id="Background/Blasts"><g id="Group 3"><path id="Fill 1" fill-rule="evenodd" clip-rule="evenodd" d="M56.756 270.408C81.905 257.523 107.061 244.657 132.226 231.809L45 165.641L144.108 164.113L106.781 83.0005L188.949 130.129L187.935 42.2725L248.351 134.002L284.584 30.9995C290.052 109.332 295.521 222.61 300.989 300.942L56.756 270.408Z" fill="#FFEBC0"/></g><path id="Fill 4" fill-rule="evenodd" clip-rule="evenodd" d="M633.102 340.14C612.895 320.388 592.675 300.651 572.443 280.928L675.348 243.549L581.136 212.748L640.803 146.323L548.365 167.012L575.345 83.395L490.48 153.125L486.366 44.014C457.952 117.215 419.192 223.797 390.778 296.998L633.102 340.14Z" fill="#F0D3E6"/><path id="Combined Shape" fill-rule="evenodd" clip-rule="evenodd" d="M426.657 74.7745C423.726 78.6695 419.347 80.9132 414.688 81.5587L414.587 81.5725C414.935 79.2365 414.935 76.8492 414.553 74.4965C413.681 69.1275 410.352 63.8095 405.248 61.5845C400.319 59.4345 394 60.8375 391.165 65.6655C387.943 71.1505 391.577 77.5645 395.943 81.1495C399.366 83.9609 403.552 85.7548 407.912 86.4445C404.297 93.8449 396.209 98.1102 388.182 99.1675C382.562 99.9082 376.537 99.1233 371.279 96.773L371.271 96.7642C371.406 96.5147 371.537 96.2624 371.664 96.0075C373.957 91.4065 374.914 86.2885 374.137 81.1905C373.352 76.0395 369.943 70.5235 364.699 68.9855C359.404 67.4315 354.613 71.1575 353.365 76.2085C352.138 81.1755 353.611 86.3335 356.334 90.5405C358.369 93.6845 361.023 96.3039 364.061 98.3896C361.048 101.796 356.975 104.234 352.406 104.749C344.549 105.633 336.501 101.196 332.601 94.4095C331.625 92.7115 330.973 90.9175 330.567 89.0035C329.9 85.8575 325.079 87.1885 325.746 90.3325C327.842 100.221 336.779 108.045 346.674 109.54C355.092 110.812 363.195 107.276 368.447 100.947L368.481 100.943L368.493 100.937C372.82 102.995 377.608 104.153 382.348 104.39C393.392 104.941 405.605 100.263 411.425 90.4385C412.127 89.2541 412.728 88.0143 413.221 86.7356L413.223 86.7347C417.187 86.5423 421.1 85.426 424.529 83.3225C433.3 77.9415 437.273 66.8255 435.084 56.9495C434.554 54.5555 433.603 52.2325 432.334 50.1375C430.67 47.3875 426.345 49.8975 428.017 52.6605C432.113 59.4295 431.386 68.4905 426.657 74.7745ZM364.064 98.3911C364.063 98.3906 364.062 98.3901 364.061 98.3896C364.062 98.3889 364.063 98.3881 364.063 98.3874L364.064 98.3911ZM366.897 94.3441L366.922 94.3296C366.918 94.3267 366.914 94.3239 366.91 94.321C367.659 92.9416 368.258 91.4879 368.681 89.9995C369.702 86.4085 369.902 82.1435 368.239 78.7055C366.816 75.7645 363.321 72.0525 360.07 74.3315C357.69 76.0005 357.553 80.2445 358.36 83.1425C359.423 86.9625 361.968 90.2745 364.948 92.8135C365.577 93.3487 366.232 93.8512 366.91 94.321C366.906 94.3287 366.901 94.3364 366.897 94.3441ZM407.912 86.4445L407.918 86.4321L407.924 86.4464L407.912 86.4445ZM414.587 81.5725L414.579 81.6242L414.526 81.5806L414.587 81.5725ZM409.519 81.6277L409.546 81.6307L409.51 81.6722L409.519 81.6277ZM408.427 71.4935C409.98 74.6173 410.188 78.2313 409.519 81.6277C408.222 81.4851 406.937 81.2227 405.687 80.8415C401.93 79.6935 398.206 77.3375 396.133 73.9225C395.113 72.2425 394.446 70.1685 395.403 68.3305C396.2 66.8025 397.925 65.8635 399.587 65.5965C403.493 64.9665 406.815 68.2525 408.427 71.4935Z" fill="#E7ECF7"/></g></g></g></svg>