<svg viewBox="66.625 38.6313868613139 879.4500000000002 639.4160583941606" fill="none" xmlns="http://www.w3.org/2000/svg" xmlns:xlink="http://www.w3.org/1999/xlink" overflow="visible" width="879.4500000000002px" height="639.4160583941606px"><g id="Master/Spot Illustration/Outdoors"><g id="Background" transform="translate(43 12) scale(1.3319444444444444 1.3)"><g id="Background/Blasts"><g id="Group 3"><path id="Fill 1" fill-rule="evenodd" clip-rule="evenodd" d="M56.756 270.408C81.905 257.523 107.061 244.657 132.226 231.809L45 165.641L144.108 164.113L106.781 83.0005L188.949 130.129L187.935 42.2725L248.351 134.002L284.584 30.9995C290.052 109.332 295.521 222.61 300.989 300.942L56.756 270.408Z" fill="#FFEBC0"/></g><path id="Fill 4" fill-rule="evenodd" clip-rule="evenodd" d="M633.102 340.14C612.895 320.388 592.675 300.651 572.443 280.928L675.348 243.549L581.136 212.748L640.803 146.323L548.365 167.012L575.345 83.395L490.48 153.125L486.366 44.014C457.952 117.215 419.192 223.797 390.778 296.998L633.102 340.14Z" fill="#F0D3E6"/><path id="Combined Shape" fill-rule="evenodd" clip-rule="evenodd" d="M426.657 74.7745C423.726 78.6695 419.347 80.9132 414.688 81.5587L414.587 81.5725C414.935 79.2365 414.935 76.8492 414.553 74.4965C413.681 69.1275 410.352 63.8095 405.248 61.5845C400.319 59.4345 394 60.8375 391.165 65.6655C387.943 71.1505 391.577 77.5645 395.943 81.1495C399.366 83.9609 403.552 85.7548 407.912 86.4445C404.297 93.8449 396.209 98.1102 388.182 99.1675C382.562 99.9082 376.537 99.1233 371.279 96.773L371.271 96.7642C371.406 96.5147 371.537 96.2624 371.664 96.0075C373.957 91.4065 374.914 86.2885 374.137 81.1905C373.352 76.0395 369.943 70.5235 364.699 68.9855C359.404 67.4315 354.613 71.1575 353.365 76.2085C352.138 81.1755 353.611 86.3335 356.334 90.5405C358.369 93.6845 361.023 96.3039 364.061 98.3896C361.048 101.796 356.975 104.234 352.406 104.749C344.549 105.633 336.501 101.196 332.601 94.4095C331.625 92.7115 330.973 90.9175 330.567 89.0035C329.9 85.8575 325.079 87.1885 325.746 90.3325C327.842 100.221 336.779 108.045 346.674 109.54C355.092 110.812 363.195 107.276 368.447 100.947L368.481 100.943L368.493 100.937C372.82 102.995 377.608 104.153 382.348 104.39C393.392 104.941 405.605 100.263 411.425 90.4385C412.127 89.2541 412.728 88.0143 413.221 86.7356L413.223 86.7347C417.187 86.5423 421.1 85.426 424.529 83.3225C433.3 77.9415 437.273 66.8255 435.084 56.9495C434.554 54.5555 433.603 52.2325 432.334 50.1375C430.67 47.3875 426.345 49.8975 428.017 52.6605C432.113 59.4295 431.386 68.4905 426.657 74.7745ZM364.064 98.3911C364.063 98.3906 364.062 98.3901 364.061 98.3896C364.062 98.3889 364.063 98.3881 364.063 98.3874L364.064 98.3911ZM366.897 94.3441L366.922 94.3296C366.918 94.3267 366.914 94.3239 366.91 94.321C367.659 92.9416 368.258 91.4879 368.681 89.9995C369.702 86.4085 369.902 82.1435 368.239 78.7055C366.816 75.7645 363.321 72.0525 360.07 74.3315C357.69 76.0005 357.553 80.2445 358.36 83.1425C359.423 86.9625 361.968 90.2745 364.948 92.8135C365.577 93.3487 366.232 93.8512 366.91 94.321C366.906 94.3287 366.901 94.3364 366.897 94.3441ZM407.912 86.4445L407.918 86.4321L407.924 86.4464L407.912 86.4445ZM414.587 81.5725L414.579 81.6242L414.526 81.5806L414.587 81.5725ZM409.519 81.6277L409.546 81.6307L409.51 81.6722L409.519 81.6277ZM408.427 71.4935C409.98 74.6173 410.188 78.2313 409.519 81.6277C408.222 81.4851 406.937 81.2227 405.687 80.8415C401.93 79.6935 398.206 77.3375 396.133 73.9225C395.113 72.2425 394.446 70.1685 395.403 68.3305C396.2 66.8025 397.925 65.8635 399.587 65.5965C403.493 64.9665 406.815 68.2525 408.427 71.4935Z" fill="#E7ECF7"/></g></g><g id="Environment"><g id="Group 38"><path id="Fill 1" fill-rule="evenodd" clip-rule="evenodd" d="M227.784 531.462L245.986 539.292C250.575 542.904 255.926 544.814 261.464 544.814H783.616C789.154 544.814 794.507 542.904 799.093 539.292L817.299 531.462C817.43 531.359 817.567 531.27 817.702 531.175C819.546 518.102 820.52 504.756 820.52 491.187C820.52 330.619 687.11 200.452 522.541 200.452C357.97 200.452 224.561 330.619 224.561 491.187C224.561 504.756 225.536 518.1 227.379 531.175C227.515 531.27 227.652 531.359 227.784 531.462" fill="#B8EBFF"/><path id="Fill 3" fill-rule="evenodd" clip-rule="evenodd" d="M674.417 570.832H370.663C355.065 570.832 340.154 566.936 329.426 560.063L315.211 550.952H729.869L715.654 560.063C704.927 566.936 690.015 570.832 674.417 570.832" fill="#775CA6"/><path id="Fill 5" fill-rule="evenodd" clip-rule="evenodd" d="M735.401 336.187C725.543 336.187 716.915 341.32 712.166 348.995C712.424 347.051 712.57 345.075 712.57 343.064C712.57 317.632 691.441 297.017 665.374 297.017C639.311 297.017 618.18 317.632 618.18 343.064C618.18 344.646 618.263 346.21 618.422 347.753C614.06 343.809 608.225 341.394 601.809 341.394C588.304 341.394 577.357 352.077 577.357 365.253C577.357 378.43 588.304 389.112 601.809 389.112H735.401C750.38 389.112 762.523 377.264 762.523 362.65C762.523 348.035 750.38 336.187 735.401 336.187" fill="white"/><path id="Fill 7" fill-rule="evenodd" clip-rule="evenodd" d="M803.633 550.952H241.446C230.953 550.952 220.93 547.43 212.463 540.764L192.863 525.333C188.649 522.014 187.989 515.989 191.39 511.876C194.791 507.762 200.965 507.116 205.184 510.438L224.782 525.869C229.722 529.756 235.483 531.812 241.446 531.812H803.633C809.598 531.812 815.359 529.756 820.299 525.869L839.9 510.438C844.116 507.116 850.289 507.762 853.691 511.876C857.093 515.989 856.434 522.014 852.219 525.333L832.618 540.764C824.15 547.43 814.128 550.952 803.633 550.952" fill="#3A3E5B"/><path id="Fill 9" fill-rule="evenodd" clip-rule="evenodd" d="M386.421 447.431C380.446 447.431 374.976 449.532 370.732 453.008C367.868 435.303 351.143 421.715 330.935 421.715C308.715 421.715 290.701 438.141 290.701 458.406C290.701 478.67 308.715 495.098 330.935 495.098H386.421C399.913 495.098 410.849 484.426 410.849 471.264C410.849 458.102 399.913 447.431 386.421 447.431" fill="white"/><g id="Group 13"><path id="Fill 11" fill-rule="evenodd" clip-rule="evenodd" d="M424.004 257.745C424.004 293.661 394.163 322.776 357.353 322.776C320.543 322.776 290.701 293.661 290.701 257.745C290.701 221.83 320.543 192.714 357.353 192.714C394.163 192.714 424.004 221.83 424.004 257.745" fill="#FFCC37"/></g><path id="Fill 14" fill-rule="evenodd" clip-rule="evenodd" d="M329.426 560.063C340.154 566.937 355.065 570.831 370.663 570.831H375.636C371.709 563.418 366.589 556.711 360.511 550.951H315.211L329.426 560.063Z" fill="#4D439B"/><path id="Fill 16" fill-rule="evenodd" clip-rule="evenodd" d="M715.643 560.063C704.915 566.937 690.005 570.831 674.406 570.831H669.434C673.36 563.418 678.48 556.711 684.559 550.951H729.858L715.643 560.063Z" fill="#4D439B"/><g id="Group 20"><path id="Fill 18" fill-rule="evenodd" clip-rule="evenodd" d="M371.313 606.001C371.313 641.347 341.946 670 305.719 670C269.494 670 240.127 641.347 240.127 606.001C240.127 570.656 269.494 542.003 305.719 542.003C341.946 542.003 371.313 570.656 371.313 606.001" fill="#F9A471"/></g><path id="Fill 21" fill-rule="evenodd" clip-rule="evenodd" d="M362.141 606.001C362.141 636.404 336.881 661.051 305.719 661.051C274.558 661.051 249.297 636.404 249.297 606.001C249.297 575.598 274.558 550.952 305.719 550.952C336.881 550.952 362.141 575.598 362.141 606.001" fill="#F06647"/><path id="Fill 23" fill-rule="evenodd" clip-rule="evenodd" d="M326.216 606.001C326.216 617.047 317.039 625.999 305.719 625.999C294.4 625.999 285.223 617.047 285.223 606.001C285.223 594.957 294.4 586.003 305.719 586.003C317.039 586.003 326.216 594.957 326.216 606.001" fill="#E0BFDB"/><g id="Group 27"><path id="Fill 25" fill-rule="evenodd" clip-rule="evenodd" d="M804.954 606.001C804.954 641.347 775.587 670 739.36 670C703.135 670 673.768 641.347 673.768 606.001C673.768 570.656 703.135 542.003 739.36 542.003C775.587 542.003 804.954 570.656 804.954 606.001" fill="#F9A471"/></g><path id="Fill 28" fill-rule="evenodd" clip-rule="evenodd" d="M795.784 606.001C795.784 636.404 770.522 661.051 739.361 661.051C708.2 661.051 682.939 636.404 682.939 606.001C682.939 575.598 708.2 550.952 739.361 550.952C770.522 550.952 795.784 575.598 795.784 606.001" fill="#F06647"/><path id="Fill 30" fill-rule="evenodd" clip-rule="evenodd" d="M759.856 606.001C759.856 617.047 750.679 625.999 739.36 625.999C728.04 625.999 718.863 617.047 718.863 606.001C718.863 594.957 728.04 586.003 739.36 586.003C750.679 586.003 759.856 594.957 759.856 606.001" fill="#E0BFDB"/><path id="Fill 32" fill-rule="evenodd" clip-rule="evenodd" d="M241.448 531.812H318.169C325.197 527.15 331.145 520.659 334.478 513.842C318.039 511.897 305.72 510.894 285.363 518.153C306.971 509.913 311.72 495.032 319.816 474.713C301.273 481.143 286.564 486.937 271.598 500.234C280.465 481.843 285.358 463.9 281.979 443.845C265.31 458.156 254.079 473.452 248.213 494.346C251.558 470.575 246.593 449.747 230.175 434.836C226.505 453.069 224.562 471.905 224.562 491.187C224.562 503.441 225.365 515.51 226.876 527.365C231.318 530.277 236.308 531.812 241.448 531.812" fill="#4FA480"/><path id="Fill 36" fill-rule="evenodd" clip-rule="evenodd" d="M697.848 493.46C714.864 512.42 740.477 523.752 766.308 523.744C758.743 524.832 751.481 527.66 745.129 531.813H803.633C808.769 531.813 813.753 530.279 818.192 527.372C819.706 515.515 820.52 503.444 820.52 491.187C820.52 471.817 818.56 452.894 814.857 434.583C809.391 425.404 802.73 416.915 794.975 409.448C791.888 429.89 793.765 451.026 800.409 470.644C781.481 435.718 758.171 421.018 733.932 410.292C734.034 425.701 737.226 443.099 743.154 456.494C749.415 470.64 755.75 480.594 767.493 490.897C747.882 483.852 718.07 488.307 697.848 493.46" fill="#4FA480"/></g></g><g id="Dialogue Box 1" transform="translate(43 168) scale(1.3301435406698565 1.297709923664122)"><g id="Dialogue Box 1/Periwinkle Rectircle"><g id="Group 3"><path id="Fill 1" fill-rule="evenodd" clip-rule="evenodd" d="M21 58.1698V58.1698C21 80.3558 38.984 98.3398 61.169 98.3398H108.563C109.514 98.3398 110.434 98.6788 111.158 99.2948L127.062 112.847C129.659 115.06 133.656 113.215 133.656 109.803V102.34C133.656 100.131 135.447 98.3398 137.656 98.3398H146.142C168.327 98.3398 186.312 80.3558 186.312 58.1698C186.312 35.9838 168.327 17.9998 146.142 17.9998H61.169C38.984 17.9998 21 35.9838 21 58.1698" fill="#96A5D4"/></g></g></g><g id="Master/Worms/Poh" transform="translate(322 122) scale(1.3289036544850499 1.3015873015873016)"><g id="Master/Worms/Poh"><g id="Body/Poh" transform="translate(92.457 113.4) scale(1 1)"><g id="Body/Poh/Orange"><g id="Group 11"><g id="Group 3"><path id="Fill 1" fill-rule="evenodd" clip-rule="evenodd" d="M118.501 81.3972C118.501 74.8332 115.578 68.9622 110.977 64.9782C115.578 60.9942 118.501 55.1232 118.501 48.5592C118.501 36.5592 108.773 26.8312 96.7728 26.8312C96.5588 26.8312 96.3508 26.8562 96.1378 26.8632C96.5368 25.2142 96.7728 23.5012 96.7728 21.7292C96.7728 9.72824 87.0448 0.000244141 75.0448 0.000244141C69.0788 0.000244141 63.6778 2.40824 59.7508 6.30024C55.8238 2.40824 50.4228 0.000244141 44.4568 0.000244141C32.4568 0.000244141 22.7288 9.72824 22.7288 21.7292C22.7288 23.5012 22.9638 25.2142 23.3638 26.8632C23.1508 26.8562 22.9428 26.8312 22.7288 26.8312C10.7288 26.8312 0.999756 36.5592 0.999756 48.5592C0.999756 55.1232 3.92376 60.9942 8.52376 64.9782C3.92376 68.9622 0.999756 74.8332 0.999756 81.3972C0.999756 87.9612 3.92376 93.8322 8.52376 97.8162C3.92376 101.8 0.999756 107.671 0.999756 114.235C0.999756 120.799 3.92376 126.669 8.52376 130.653C3.92376 134.638 0.999756 140.508 0.999756 147.072C0.999756 153.637 3.92376 159.507 8.52376 163.492C3.92376 167.476 0.999756 173.346 0.999756 179.91C0.999756 191.305 9.77576 200.634 20.9368 201.548L20.9338 201.639H96.7728C108.773 201.639 118.501 191.91 118.501 179.91C118.501 173.346 115.578 167.476 110.977 163.492C115.578 159.507 118.501 153.637 118.501 147.072C118.501 140.508 115.578 134.638 110.977 130.653C115.578 126.669 118.501 120.799 118.501 114.235C118.501 107.671 115.578 101.8 110.977 97.8162C115.578 93.8322 118.501 87.9612 118.501 81.3972" fill="#F06647"/></g><g id="Group 6"><path id="Fill 4" fill-rule="evenodd" clip-rule="evenodd" d="M2.119 88.2821L2.337 88.4791C4.639 90.6791 7.574 90.6791 9.876 88.4791L10.037 88.3251C12.354 86.1101 15.313 86.1261 17.62 88.3671C19.943 90.6231 22.924 90.6231 25.247 88.3671C27.554 86.1261 30.512 86.1101 32.83 88.3241L32.98 88.4691C35.282 90.6681 38.218 90.6681 40.519 88.4691L40.701 88.2951C43.003 86.0951 45.938 86.0951 48.24 88.2951L48.359 88.4091C50.661 90.6091 53.597 90.6091 55.898 88.4091L56.142 88.1761C58.444 85.9761 61.379 85.9761 63.682 88.1761L63.801 88.2901C66.102 90.4901 69.037 90.4901 71.34 88.2901L71.396 88.2361C73.698 86.0361 76.634 86.0361 78.935 88.2361L79.072 88.3661C81.374 90.5661 84.309 90.5661 86.611 88.3661L86.707 88.2761C89.009 86.0761 91.943 86.0761 94.246 88.2761L94.351 88.3771C96.654 90.5771 99.589 90.5771 101.89 88.3771L102.148 88.1321C104.45 85.9321 107.385 85.9321 109.687 88.1321L109.896 88.3321C112.198 90.5321 115.032 90.6261 117.334 88.4271C116.073 92.0991 113.852 95.3261 110.976 97.8161C115.578 101.8 118.501 107.671 118.501 114.235C118.501 120.8 115.578 126.67 110.976 130.654C115.578 134.638 118.501 140.509 118.501 147.073C118.501 153.637 115.578 159.507 110.976 163.492C115.578 167.476 118.501 173.346 118.501 179.91C118.501 191.91 108.773 201.639 96.773 201.639H20.933L20.936 201.549C9.776 200.635 1 191.305 1 179.91C1 173.346 3.924 167.476 8.524 163.492C3.924 159.507 1 153.637 1 147.073C1 140.509 3.924 134.638 8.524 130.654C3.924 126.67 1 120.8 1 114.235C1 107.671 3.924 101.8 8.524 97.8161C5.611 95.2931 3.371 92.0141 2.119 88.2821" fill="#DD4328"/></g><path id="Fill 7" fill-rule="evenodd" clip-rule="evenodd" d="M58.201 46.8196C58.201 56.5686 50.298 64.4716 40.549 64.4716C30.8 64.4716 22.896 56.5686 22.896 46.8196C22.896 37.0696 30.8 29.1676 40.549 29.1676C50.298 29.1676 58.201 37.0696 58.201 46.8196" fill="#CBD3D8"/><path id="Fill 9" fill-rule="evenodd" clip-rule="evenodd" d="M96.6053 46.8196C96.6053 56.5686 88.7023 64.4716 78.9533 64.4716C69.2033 64.4716 61.2993 56.5686 61.2993 46.8196C61.2993 37.0696 69.2033 29.1676 78.9533 29.1676C88.7023 29.1676 96.6053 37.0696 96.6053 46.8196" fill="#CBD3D8"/></g></g></g><g id="Eyes/Poh" transform="translate(131.918 153.017) scale(1 1)"><g id="Eyes/Poh/Upset"><g id="Group 6"><g id="Group 3"><path id="Fill 1" fill-rule="evenodd" clip-rule="evenodd" d="M35.6168 9H28.7988C27.6938 9 26.7988 8.104 26.7988 7C26.7988 5.896 27.6938 5 28.7988 5H35.6168C36.7208 5 37.6168 5.896 37.6168 7C37.6168 8.104 36.7208 9 35.6168 9" fill="#101335"/></g><path id="Fill 4" fill-rule="evenodd" clip-rule="evenodd" d="M10.817 9H4C2.895 9 2 8.104 2 7C2 5.896 2.895 5 4 5H10.817C11.921 5 12.817 5.896 12.817 7C12.817 8.104 11.921 9 10.817 9" fill="#101335"/></g></g></g><g id="Mouth/Poh" transform="translate(131.904 166.433) scale(0.975609756097561 1)"><g id="Mouth/Poh/Smiling"><g id="Group 3"><path id="Fill 1" fill-rule="evenodd" clip-rule="evenodd" d="M11.918 5.00006H29.769C29.769 5.00006 28.698 14.3771 20.392 14.3771C12.086 14.3771 11.918 5.00006 11.918 5.00006" fill="white"/></g></g></g><g id="Hair/Poh" transform="translate(80.918 60.5) scale(1 1)"><g id="Hair/Poh/Mickey Head"><g id="Group 10"><g id="Group 3"><path id="Fill 1" fill-rule="evenodd" clip-rule="evenodd" d="M108.208 72.3356C107.075 61.3986 97.8324 52.8716 86.5984 52.8716C80.6324 52.8716 75.2304 55.2796 71.3044 59.1716C67.3774 55.2796 61.9764 52.8716 56.0104 52.8716C44.7744 52.8716 35.5324 61.3986 34.3984 72.3356H108.208Z" fill="#ED6389"/></g><g id="Group 6"><path id="Fill 4" fill-rule="evenodd" clip-rule="evenodd" d="M54.2074 43.9034C54.2074 56.5524 43.9534 66.8064 31.3044 66.8064C18.6544 66.8064 8.40039 56.5524 8.40039 43.9034C8.40039 31.2544 18.6544 21.0004 31.3044 21.0004C43.9534 21.0004 54.2074 31.2544 54.2074 43.9034" fill="#41AFE4"/></g><g id="Group 9"><path id="Fill 7" fill-rule="evenodd" clip-rule="evenodd" d="M134.207 43.9034C134.207 56.5524 123.953 66.8064 111.304 66.8064C98.6544 66.8064 88.4004 56.5524 88.4004 43.9034C88.4004 31.2544 98.6544 21.0004 111.304 21.0004C123.953 21.0004 134.207 31.2544 134.207 43.9034" fill="#41AFE4"/></g></g></g></g><g id="Clothes/Poh" transform="translate(92.918 199) scale(1 1)"><g id="Clothes/Poh/Lavender Polkas"><g id="Group 71"><g id="Group 3"><path id="Fill 1" fill-rule="evenodd" clip-rule="evenodd" d="M8.07478 12.2082L8.30578 12.4242C10.3508 14.3792 12.9598 14.3792 15.0048 12.4242L15.1468 12.2882C17.2068 10.3192 19.8348 10.3342 21.8848 12.3252C23.9478 14.3292 26.5958 14.3292 28.6608 12.3252C30.7108 10.3342 33.3388 10.3192 35.3968 12.2872L35.5308 12.4152C37.5768 14.3702 40.1838 14.3702 42.2288 12.4152L42.3898 12.2612C44.4358 10.3072 47.0438 10.3072 49.0888 12.2612L49.1948 12.3622C51.2398 14.3172 53.8468 14.3172 55.8918 12.3622L56.1088 12.1552C58.1538 10.2012 60.7628 10.2012 62.8068 12.1552L62.9128 12.2572C64.9588 14.2112 67.5658 14.2112 69.6108 12.2572L69.6618 12.2082C71.7068 10.2542 74.3138 10.2542 76.3598 12.2082L76.4808 12.3242C78.5258 14.2792 81.1348 14.2792 83.1798 12.3242L83.2628 12.2442C85.3088 10.2892 87.9168 10.2892 89.9618 12.2442L90.0558 12.3342C92.1008 14.2882 94.7088 14.2882 96.7538 12.3342L96.9818 12.1162C99.0278 10.1612 101.636 10.1612 103.68 12.1162L103.867 12.2932C105.912 14.2482 108.482 14.1632 110.527 12.2082C115.129 16.1922 118.052 22.0632 118.052 28.6272C118.052 35.1912 115.129 41.0622 110.527 45.0462C115.129 49.0302 118.052 54.9002 118.052 61.4652C118.052 68.0292 115.129 73.8992 110.527 77.8842C115.129 81.8682 118.052 87.7382 118.052 94.3022C118.052 106.302 108.323 116.031 96.3228 116.031H20.4828L20.4858 115.94C9.32678 115.026 0.550781 105.697 0.550781 94.3022C0.550781 87.7382 3.47278 81.8682 8.07478 77.8842C3.47278 73.8992 0.550781 68.0292 0.550781 61.4652C0.550781 54.9002 3.47278 49.0302 8.07478 45.0462C3.47278 41.0622 0.550781 35.1912 0.550781 28.6272C0.550781 22.0632 3.47278 16.1922 8.07478 12.2082" fill="#4FA480"/></g><path id="Fill 4" fill-rule="evenodd" clip-rule="evenodd" d="M9.76129 31.1369C9.76129 26.2559 6.45929 22.1569 1.97029 20.9229C1.05729 23.3169 0.550293 25.9109 0.550293 28.6269C0.550293 33.0189 1.86429 37.0969 4.10829 40.5109C7.46929 38.7319 9.76129 35.2039 9.76129 31.1369" fill="#E0BFDB"/><path id="Fill 6" fill-rule="evenodd" clip-rule="evenodd" d="M34.647 31.1369C34.647 25.2809 29.899 20.5329 24.043 20.5329C18.187 20.5329 13.439 25.2809 13.439 31.1369C13.439 36.9929 18.187 41.7409 24.043 41.7409C29.899 41.7409 34.647 36.9929 34.647 31.1369" fill="#E0BFDB"/><path id="Fill 8" fill-rule="evenodd" clip-rule="evenodd" d="M48.9292 41.7409C54.7852 41.7409 59.5332 36.9929 59.5332 31.1369C59.5332 25.2809 54.7852 20.5329 48.9292 20.5329C43.0732 20.5329 38.3252 25.2809 38.3252 31.1369C38.3252 36.9929 43.0732 41.7409 48.9292 41.7409" fill="#E0BFDB"/><path id="Fill 10" fill-rule="evenodd" clip-rule="evenodd" d="M73.8149 41.7409C79.6709 41.7409 84.4189 36.9929 84.4189 31.1369C84.4189 25.2809 79.6709 20.5329 73.8149 20.5329C67.9589 20.5329 63.2109 25.2809 63.2109 31.1369C63.2109 36.9929 67.9589 41.7409 73.8149 41.7409" fill="#E0BFDB"/><path id="Fill 12" fill-rule="evenodd" clip-rule="evenodd" d="M98.7007 41.7409C104.557 41.7409 109.305 36.9929 109.305 31.1369C109.305 25.2809 104.557 20.5329 98.7007 20.5329C92.8447 20.5329 88.0967 25.2809 88.0967 31.1369C88.0967 36.9929 92.8447 41.7409 98.7007 41.7409" fill="#E0BFDB"/><path id="Fill 14" fill-rule="evenodd" clip-rule="evenodd" d="M112.983 31.1369C112.983 33.8959 114.045 36.4009 115.773 38.2869C117.226 35.3779 118.051 32.1019 118.051 28.6269C118.051 26.5609 117.76 24.5639 117.22 22.6719C114.652 24.6069 112.983 27.6729 112.983 31.1369" fill="#E0BFDB"/><path id="Fill 16" fill-rule="evenodd" clip-rule="evenodd" d="M21.7097 12.1808C19.6867 10.3508 17.1497 10.3738 15.1477 12.2878L15.0047 12.4248C12.9597 14.3788 10.3517 14.3788 8.30671 12.4248L8.07471 12.2078C6.59471 13.4898 5.29171 14.9688 4.19971 16.6008C6.10971 18.4598 8.71471 19.6088 11.5907 19.6088C16.3407 19.6088 20.3597 16.4848 21.7097 12.1808" fill="#E0BFDB"/><path id="Fill 18" fill-rule="evenodd" clip-rule="evenodd" d="M36.4763 19.6086C41.6583 19.6086 45.9653 15.8896 46.8903 10.9766C45.3623 10.5456 43.7523 10.9596 42.3903 12.2616L42.2293 12.4156C40.1843 14.3696 37.5773 14.3696 35.5323 12.4156L35.3973 12.2876C33.3383 10.3196 30.7103 10.3346 28.6613 12.3246C28.1033 12.8666 27.5013 13.2486 26.8823 13.4976C28.5753 17.1046 32.2283 19.6086 36.4763 19.6086" fill="#E0BFDB"/><path id="Fill 20" fill-rule="evenodd" clip-rule="evenodd" d="M61.363 19.6086C66.553 19.6086 70.866 15.8766 71.781 10.9496C71.042 11.1736 70.321 11.5786 69.662 12.2086L69.611 12.2566C67.566 14.2116 64.959 14.2116 62.913 12.2566L62.807 12.1556C60.762 10.2016 58.154 10.2016 56.109 12.1556L55.892 12.3626C54.679 13.5226 53.269 13.9766 51.894 13.7596C53.638 17.2256 57.218 19.6086 61.363 19.6086" fill="#E0BFDB"/><path id="Fill 22" fill-rule="evenodd" clip-rule="evenodd" d="M86.2487 19.6086C90.7487 19.6086 94.5847 16.8006 96.1247 12.8446C94.1917 14.2546 91.8977 14.0936 90.0567 12.3346L89.9617 12.2436C87.9167 10.2896 85.3097 10.2896 83.2637 12.2436L83.1797 12.3246C81.1347 14.2786 78.5257 14.2786 76.4807 12.3246L76.3597 12.2086C76.2687 12.1206 76.1697 12.0576 76.0747 11.9776C77.3607 16.3856 81.4257 19.6086 86.2487 19.6086" fill="#E0BFDB"/><path id="Fill 24" fill-rule="evenodd" clip-rule="evenodd" d="M111.134 19.6086C112.73 19.6086 114.238 19.2466 115.595 18.6146C114.319 16.1716 112.594 13.9986 110.527 12.2086C108.482 14.1626 105.911 14.2486 103.866 12.2936L103.68 12.1156C102.759 11.2356 101.723 10.7736 100.676 10.6866C101.484 15.7416 105.852 19.6086 111.134 19.6086" fill="#E0BFDB"/><path id="Fill 26" fill-rule="evenodd" clip-rule="evenodd" d="M9.77003 75.401C9.77003 70.112 5.89503 65.741 0.832031 64.941C1.66303 70.084 4.30303 74.618 8.07503 77.884C5.67503 79.961 3.73903 82.554 2.42803 85.488C6.68803 84.112 9.77003 80.118 9.77003 75.401" fill="#E0BFDB"/><path id="Fill 28" fill-rule="evenodd" clip-rule="evenodd" d="M34.6567 75.401C34.6567 69.545 29.9087 64.797 24.0527 64.797C18.1957 64.797 13.4487 69.545 13.4487 75.401C13.4487 81.257 18.1957 86.005 24.0527 86.005C29.9087 86.005 34.6567 81.257 34.6567 75.401" fill="#E0BFDB"/><path id="Fill 30" fill-rule="evenodd" clip-rule="evenodd" d="M59.5425 75.401C59.5425 69.545 54.7945 64.797 48.9385 64.797C43.0825 64.797 38.3345 69.545 38.3345 75.401C38.3345 81.257 43.0825 86.005 48.9385 86.005C54.7945 86.005 59.5425 81.257 59.5425 75.401" fill="#E0BFDB"/><path id="Fill 32" fill-rule="evenodd" clip-rule="evenodd" d="M84.4282 75.401C84.4282 69.545 79.6812 64.797 73.8242 64.797C67.9682 64.797 63.2202 69.545 63.2202 75.401C63.2202 81.257 67.9682 86.005 73.8242 86.005C79.6812 86.005 84.4282 81.257 84.4282 75.401" fill="#E0BFDB"/><path id="Fill 34" fill-rule="evenodd" clip-rule="evenodd" d="M109.314 75.401C109.314 69.545 104.567 64.797 98.7099 64.797C92.8539 64.797 88.1069 69.545 88.1069 75.401C88.1069 81.257 92.8539 86.005 98.7099 86.005C104.567 86.005 109.314 81.257 109.314 75.401" fill="#E0BFDB"/><path id="Fill 36" fill-rule="evenodd" clip-rule="evenodd" d="M112.994 75.3717C115.044 72.9227 116.559 70.0167 117.373 66.8287C114.73 68.7507 113.004 71.8557 112.994 75.3717" fill="#E0BFDB"/><path id="Fill 38" fill-rule="evenodd" clip-rule="evenodd" d="M11.6001 63.8727C17.4561 63.8727 22.2041 59.1247 22.2041 53.2687C22.2041 47.4127 17.4561 42.6647 11.6001 42.6647C9.86608 42.6647 8.23308 43.0897 6.78808 43.8277C7.20208 44.2487 7.62708 44.6587 8.07508 45.0457C4.85208 47.8367 2.45708 51.5537 1.30908 55.7857C2.44008 60.4247 6.61208 63.8727 11.6001 63.8727" fill="#E0BFDB"/><path id="Fill 40" fill-rule="evenodd" clip-rule="evenodd" d="M25.8823 53.2692C25.8823 59.1252 30.6293 63.8732 36.4863 63.8732C42.3423 63.8732 47.0903 59.1252 47.0903 53.2692C47.0903 47.4132 42.3423 42.6652 36.4863 42.6652C30.6293 42.6652 25.8823 47.4132 25.8823 53.2692" fill="#E0BFDB"/><path id="Fill 42" fill-rule="evenodd" clip-rule="evenodd" d="M50.7681 53.2692C50.7681 59.1252 55.5151 63.8732 61.3721 63.8732C67.2281 63.8732 71.9761 59.1252 71.9761 53.2692C71.9761 47.4132 67.2281 42.6652 61.3721 42.6652C55.5151 42.6652 50.7681 47.4132 50.7681 53.2692" fill="#E0BFDB"/><path id="Fill 44" fill-rule="evenodd" clip-rule="evenodd" d="M75.6538 53.2692C75.6538 59.1252 80.4018 63.8732 86.2578 63.8732C92.1148 63.8732 96.8618 59.1252 96.8618 53.2692C96.8618 47.4132 92.1148 42.6652 86.2578 42.6652C80.4018 42.6652 75.6538 47.4132 75.6538 53.2692" fill="#E0BFDB"/><path id="Fill 46" fill-rule="evenodd" clip-rule="evenodd" d="M100.541 53.2692C100.541 59.1252 105.288 63.8732 111.145 63.8732C113.783 63.8732 116.191 62.9032 118.048 61.3082C118.001 54.8072 115.092 48.9982 110.527 45.0462C111.327 44.3532 112.072 43.6012 112.764 42.8012C112.234 42.7202 111.696 42.6652 111.145 42.6652C105.288 42.6652 100.541 47.4132 100.541 53.2692" fill="#E0BFDB"/><g id="Group 50"><path id="Fill 48" fill-rule="evenodd" clip-rule="evenodd" d="M24.0623 109.061C20.0193 109.061 16.5073 111.324 14.7183 114.652C16.5403 115.328 18.4723 115.775 20.4863 115.94L20.4833 116.031H34.0133C32.5283 111.967 28.6393 109.061 24.0623 109.061" fill="#E0BFDB"/></g><g id="Group 53"><path id="Fill 51" fill-rule="evenodd" clip-rule="evenodd" d="M48.9476 109.061C44.3706 109.061 40.4816 111.967 38.9966 116.031H58.8986C57.4136 111.967 53.5256 109.061 48.9476 109.061" fill="#E0BFDB"/></g><g id="Group 56"><path id="Fill 54" fill-rule="evenodd" clip-rule="evenodd" d="M73.8338 109.061C69.2568 109.061 65.3678 111.967 63.8838 116.031H83.7848C82.3008 111.967 78.4118 109.061 73.8338 109.061" fill="#E0BFDB"/></g><g id="Group 59"><path id="Fill 57" fill-rule="evenodd" clip-rule="evenodd" d="M98.7205 109.061C94.1425 109.061 90.2535 111.967 88.7695 116.031H96.3235C100.243 116.031 103.916 114.988 107.092 113.172C105.152 110.675 102.128 109.061 98.7205 109.061" fill="#E0BFDB"/></g><path id="Fill 60" fill-rule="evenodd" clip-rule="evenodd" d="M11.6099 108.137C17.4649 108.137 22.2139 103.389 22.2139 97.5329C22.2139 91.6769 17.4649 86.9289 11.6099 86.9289C5.75386 86.9289 1.00586 91.6769 1.00586 97.5329C1.00586 98.1819 1.07286 98.8139 1.18386 99.4299C1.37786 100.226 1.60986 101.005 1.88786 101.763C3.52286 105.513 7.25686 108.137 11.6099 108.137" fill="#E0BFDB"/><path id="Fill 62" fill-rule="evenodd" clip-rule="evenodd" d="M36.4956 86.9294C30.6396 86.9294 25.8916 91.6774 25.8916 97.5334C25.8916 103.389 30.6396 108.137 36.4956 108.137C42.3516 108.137 47.0996 103.389 47.0996 97.5334C47.0996 91.6774 42.3516 86.9294 36.4956 86.9294" fill="#E0BFDB"/><path id="Fill 64" fill-rule="evenodd" clip-rule="evenodd" d="M61.3813 86.9294C55.5253 86.9294 50.7773 91.6774 50.7773 97.5334C50.7773 103.389 55.5253 108.137 61.3813 108.137C67.2373 108.137 71.9863 103.389 71.9863 97.5334C71.9863 91.6774 67.2373 86.9294 61.3813 86.9294" fill="#E0BFDB"/><path id="Fill 66" fill-rule="evenodd" clip-rule="evenodd" d="M86.2671 86.9294C80.4111 86.9294 75.6631 91.6774 75.6631 97.5334C75.6631 103.389 80.4111 108.137 86.2671 108.137C92.1231 108.137 96.8711 103.389 96.8711 97.5334C96.8711 91.6774 92.1231 86.9294 86.2671 86.9294" fill="#E0BFDB"/><g id="Group 70"><path id="Fill 68" fill-rule="evenodd" clip-rule="evenodd" d="M100.549 97.5334C100.549 103.389 105.297 108.137 111.153 108.137C111.868 108.137 112.567 108.064 113.242 107.929C116.248 104.201 118.051 99.4634 118.051 94.3024C118.051 92.4574 117.813 90.6704 117.378 88.9624C115.629 87.6894 113.483 86.9294 111.153 86.9294C105.297 86.9294 100.549 91.6774 100.549 97.5334" fill="#E0BFDB"/></g></g></g></g></g></g></g></svg>