<svg viewBox="373.45000000000005 105.23722627737232 426.7999999999998 466.2408759124088" fill="none" xmlns="http://www.w3.org/2000/svg" xmlns:xlink="http://www.w3.org/1999/xlink" overflow="visible" width="426.7999999999998px" height="466.2408759124088px"><g id="Master/Stickers/Mobile"><g id="Group 26"><g id="Group 3"><path id="Fill 1" fill-rule="evenodd" clip-rule="evenodd" d="M415.033 110H610.368C626.927 110 640.35 123.431 640.35 140V530C640.35 546.568 626.927 560 610.368 560H415.033C398.474 560 385.051 546.568 385.051 530V140C385.051 123.431 398.474 110 415.033 110" fill="#E0BFDB"/></g><path id="Fill 4" fill-rule="evenodd" clip-rule="evenodd" d="M642.991 227.785H640.35V179.678H642.991C645.199 179.678 646.989 181.469 646.989 183.678V223.785C646.989 225.994 645.199 227.785 642.991 227.785" fill="#E0BFDB"/><g id="Group 8"><path id="Fill 6" fill-rule="evenodd" clip-rule="evenodd" d="M385.051 208.086H382.41C380.202 208.086 378.412 206.295 378.412 204.086V171.486C378.412 169.277 380.202 167.486 382.41 167.486H385.051V208.086Z" fill="#E0BFDB"/></g><g id="Group 11"><path id="Fill 9" fill-rule="evenodd" clip-rule="evenodd" d="M385.051 256.369H382.41C380.202 256.369 378.412 254.578 378.412 252.369V219.769C378.412 217.56 380.202 215.769 382.41 215.769H385.051V256.369Z" fill="#E0BFDB"/></g><path id="Fill 12" fill-rule="evenodd" clip-rule="evenodd" d="M608.663 120.621H570.153C567.04 120.621 564.516 123.146 564.516 126.261V129.591C564.516 132.706 561.993 135.231 558.88 135.231H476.341C473.228 135.231 470.705 132.706 470.705 129.591V126.261C470.705 123.146 468.181 120.621 465.068 120.621H416.738C405.699 120.621 396.75 129.575 396.75 140.621V529.25C396.75 540.296 405.699 549.25 416.738 549.25H608.663C619.702 549.25 628.651 540.296 628.651 529.25V140.621C628.651 129.575 619.702 120.621 608.663 120.621" fill="#5473B8"/><path id="Fill 14" fill-rule="evenodd" clip-rule="evenodd" d="M396.719 248.278L396.132 250.55C396.329 250.339 396.545 250.155 396.751 249.957V248.314C396.74 248.302 396.729 248.29 396.719 248.278" fill="#41AFE4"/><path id="Fill 16" fill-rule="evenodd" clip-rule="evenodd" d="M567.218 304.696C563.626 297.372 561.129 287.222 567.507 282.138C571.377 279.052 577.16 279.468 581.516 281.819C585.874 284.169 589.128 288.093 592.268 291.921C603.395 305.488 614.523 319.055 625.652 332.623C626.58 333.756 627.585 334.907 628.652 336.03V267.543C627.244 265.93 625.814 264.344 624.367 262.786C608.271 245.451 589.748 230.27 575.641 211.279C570.013 203.704 565.74 191.607 573.36 186.043C577.4 183.094 583.346 183.571 587.525 186.318C599.161 193.967 617.394 216.89 628.652 225.812V140.621C628.652 129.575 619.702 120.621 608.663 120.621H592.076C594.48 129.909 594.662 137.786 589.141 140.791C582.459 144.427 573.355 140.09 563.684 132.531C562.692 134.149 560.915 135.231 558.88 135.231H476.341C473.229 135.231 470.705 132.706 470.705 129.592V126.261C470.705 123.147 468.181 120.621 465.069 120.621H463.085C463.002 120.992 462.93 121.378 462.874 121.785C461.582 131.221 469.717 141.92 474.815 149.963C481.831 161.033 488.79 171.739 494.313 184.256C497.438 191.334 497.836 200.338 493.251 206.567C488.974 212.377 480.684 214.095 473.692 212.325C466.701 210.554 460.794 205.934 455.535 200.995C439.999 186.404 428.172 168.093 411.867 154.366C407.307 150.527 402.184 147.088 396.75 144.326V247.524C397.136 247.982 397.518 248.445 397.902 248.904C397.78 249.005 397.653 249.1 397.534 249.205C404.011 256.568 410.488 263.932 416.965 271.295C422.608 277.855 428.276 284.395 433.984 290.899C435.916 293.425 437.602 296.104 438.629 299.102C440.386 304.228 439.78 310.559 435.732 314.159C433.562 316.089 430.653 317.029 427.76 317.282C416.172 318.294 406.502 309.427 396.75 303.008V356.251C407.219 367.116 417.686 377.982 428.154 388.847C436.491 397.5 444.827 406.153 453.164 414.806C458.14 419.972 463.304 425.463 465.102 432.409C466.899 439.355 463.923 448.095 457.037 450.099C450.668 451.952 444.35 447.615 438.836 443.927C426.217 435.491 412.078 429.341 397.307 425.864C397.123 425.821 396.937 425.779 396.75 425.738V458.681C401.501 466.174 407.716 473.075 413.779 479.508C428.373 494.994 443.588 510.656 462.818 519.757C475.266 525.648 489.007 528.551 502.762 529.182C515.793 529.779 529.218 528.279 540.866 522.404C564.27 510.601 576.058 482.828 575.461 456.462C588.951 469.894 604.7 481.153 622.84 486.506C624.711 487.058 626.663 487.511 628.652 487.853V391.479C607.942 362.946 582.723 336.312 567.218 304.696" fill="#B8EBFF"/><path id="Fill 18" fill-rule="evenodd" clip-rule="evenodd" d="M396.751 248.314V249.957C397.011 249.705 397.263 249.441 397.535 249.205L396.751 248.314Z" fill="#41AFE4"/><path id="Fill 20" fill-rule="evenodd" clip-rule="evenodd" d="M396.75 415.874H628.651V529.25C628.651 540.296 619.702 549.25 608.663 549.25H416.738C405.699 549.25 396.75 540.296 396.75 529.25V415.874Z" fill="#F06647"/><path id="Fill 22" fill-rule="evenodd" clip-rule="evenodd" d="M753.119 249.363C716.402 223.957 666.054 233.145 640.663 269.884C626.996 289.659 623.352 313.384 628.62 335.04L613.914 347.657L633.062 348.245C638.866 361.584 648.332 373.523 661.172 382.407C697.889 407.812 748.236 398.625 773.627 361.886C799.017 325.147 789.835 274.769 753.119 249.363" fill="#E9BE50"/><path id="Fill 24" fill-rule="evenodd" clip-rule="evenodd" d="M639.189 315.885C639.189 353.438 669.614 383.882 707.146 383.882C744.676 383.882 775.101 353.438 775.101 315.885C775.101 278.332 744.676 247.889 707.146 247.889C669.614 247.889 639.189 278.332 639.189 315.885" fill="#FFCC37"/></g></g></svg>