<svg viewBox="77.61387434554973 66.9375 149.71204188481684 251.99999999999997" fill="none" xmlns="http://www.w3.org/2000/svg" xmlns:xlink="http://www.w3.org/1999/xlink" overflow="visible" width="149.71204188481684px" height="251.99999999999997px"><g id="Master/Worms/Poh"><g id="Body/Poh" transform="translate(92.457 113.4) scale(1 1)"><g id="Body/Poh/Purple"><g id="Group 11"><g id="Group 3"><path id="Fill 1" fill-rule="evenodd" clip-rule="evenodd" d="M118.501 81.3973C118.501 74.8333 115.578 68.9623 110.977 64.9783C115.578 60.9943 118.501 55.1233 118.501 48.5593C118.501 36.5593 108.773 26.8313 96.7728 26.8313C96.5588 26.8313 96.3508 26.8563 96.1378 26.8633C96.5368 25.2143 96.7728 23.5013 96.7728 21.7293C96.7728 9.7283 87.0448 0.000305176 75.0448 0.000305176C69.0788 0.000305176 63.6778 2.40831 59.7508 6.30031C55.8238 2.40831 50.4228 0.000305176 44.4568 0.000305176C32.4568 0.000305176 22.7288 9.7283 22.7288 21.7293C22.7288 23.5013 22.9638 25.2143 23.3638 26.8633C23.1508 26.8563 22.9428 26.8313 22.7288 26.8313C10.7288 26.8313 0.999756 36.5593 0.999756 48.5593C0.999756 55.1233 3.92376 60.9943 8.52376 64.9783C3.92376 68.9623 0.999756 74.8333 0.999756 81.3973C0.999756 87.9613 3.92376 93.8323 8.52376 97.8163C3.92376 101.8 0.999756 107.671 0.999756 114.235C0.999756 120.799 3.92376 126.669 8.52376 130.653C3.92376 134.638 0.999756 140.508 0.999756 147.072C0.999756 153.637 3.92376 159.507 8.52376 163.492C3.92376 167.476 0.999756 173.346 0.999756 179.91C0.999756 191.305 9.77576 200.634 20.9358 201.548L20.9338 201.639H96.7728C108.773 201.639 118.501 191.91 118.501 179.91C118.501 173.346 115.578 167.476 110.977 163.492C115.578 159.507 118.501 153.637 118.501 147.072C118.501 140.508 115.578 134.638 110.977 130.653C115.578 126.669 118.501 120.799 118.501 114.235C118.501 107.671 115.578 101.8 110.977 97.8163C115.578 93.8323 118.501 87.9613 118.501 81.3973" fill="#775CA6"/></g><g id="Group 6"><path id="Fill 4" fill-rule="evenodd" clip-rule="evenodd" d="M2.119 88.2821L2.337 88.4791C4.639 90.6791 7.574 90.6791 9.876 88.4791L10.037 88.3251C12.354 86.1101 15.313 86.1261 17.62 88.3671C19.943 90.6231 22.924 90.6231 25.247 88.3671C27.554 86.1261 30.512 86.1101 32.83 88.3241L32.98 88.4691C35.282 90.6681 38.218 90.6681 40.519 88.4691L40.701 88.2951C43.003 86.0951 45.938 86.0951 48.24 88.2951L48.359 88.4091C50.661 90.6091 53.597 90.6091 55.898 88.4091L56.142 88.1761C58.444 85.9761 61.379 85.9761 63.682 88.1761L63.801 88.2901C66.102 90.4901 69.037 90.4901 71.34 88.2901L71.396 88.2361C73.698 86.0361 76.634 86.0361 78.935 88.2361L79.072 88.3661C81.374 90.5661 84.309 90.5661 86.611 88.3661L86.707 88.2761C89.009 86.0761 91.943 86.0761 94.245 88.2761L94.351 88.3771C96.654 90.5771 99.589 90.5771 101.89 88.3771L102.148 88.1321C104.45 85.9321 107.385 85.9321 109.686 88.1321L109.896 88.3321C112.198 90.5321 115.032 90.6261 117.334 88.4271C116.073 92.0991 113.852 95.3261 110.976 97.8161C115.578 101.8 118.501 107.671 118.501 114.235C118.501 120.8 115.578 126.67 110.976 130.654C115.578 134.638 118.501 140.509 118.501 147.073C118.501 153.637 115.578 159.507 110.976 163.492C115.578 167.476 118.501 173.346 118.501 179.91C118.501 191.91 108.773 201.639 96.773 201.639H20.933L20.935 201.549C9.776 200.635 1 191.305 1 179.91C1 173.346 3.924 167.476 8.524 163.492C3.924 159.507 1 153.637 1 147.073C1 140.509 3.924 134.638 8.524 130.654C3.924 126.67 1 120.8 1 114.235C1 107.671 3.924 101.8 8.524 97.8161C5.611 95.2931 3.37 92.0141 2.119 88.2821" fill="#4D439B"/></g><path id="Fill 7" fill-rule="evenodd" clip-rule="evenodd" d="M58.201 46.8197C58.201 56.5687 50.298 64.4717 40.549 64.4717C30.8 64.4717 22.896 56.5687 22.896 46.8197C22.896 37.0697 30.8 29.1677 40.549 29.1677C50.298 29.1677 58.201 37.0697 58.201 46.8197" fill="#F1758E"/><path id="Fill 9" fill-rule="evenodd" clip-rule="evenodd" d="M96.6053 46.8197C96.6053 56.5687 88.7023 64.4717 78.9533 64.4717C69.2033 64.4717 61.2993 56.5687 61.2993 46.8197C61.2993 37.0697 69.2033 29.1677 78.9533 29.1677C88.7023 29.1677 96.6053 37.0697 96.6053 46.8197" fill="#F1758E"/></g></g></g><g id="Eyes/Poh" transform="translate(131.918 153.017) scale(1 1)"><g id="Eyes/Poh/Angry"><g id="Group 7"><g id="Group 3"><path id="Fill 1" fill-rule="evenodd" clip-rule="evenodd" d="M12.959 5.24431L9.056 2.33631C8.693 2.06631 8.249 1.95231 7.795 2.01831C7.346 2.08331 6.948 2.32031 6.678 2.68431C6.406 3.04831 6.293 3.49631 6.358 3.94531C6.424 4.39431 6.661 4.79131 7.025 5.06231L9.616 6.99331L6.778 8.82131C5.991 9.32931 5.763 10.3833 6.27 11.1713C6.585 11.6593 7.12 11.9503 7.7 11.9503C8.026 11.9503 8.344 11.8563 8.619 11.6803L12.833 8.96531C13.456 8.56331 13.844 7.88031 13.87 7.13731C13.895 6.39531 13.554 5.68831 12.959 5.24431" fill="#101335"/></g><g id="Group 6"><path id="Fill 4" fill-rule="evenodd" clip-rule="evenodd" d="M32.793 8.87031L30.227 7.02631L33.087 5.11231C33.866 4.59231 34.076 3.53431 33.556 2.75531C33.033 1.97531 31.976 1.76531 31.198 2.28731L26.978 5.10931C26.359 5.52131 25.983 6.21131 25.971 6.95331C25.959 7.69631 26.312 8.39831 26.914 8.83131L30.81 11.6303C31.1 11.8403 31.442 11.9503 31.8 11.9503C32.347 11.9503 32.863 11.6853 33.182 11.2423C33.729 10.4823 33.554 9.41831 32.793 8.87031" fill="#101335"/></g></g></g></g><g id="Mouth/Poh" transform="translate(131.904 166.433) scale(0.975609756097561 1)"><g id="Mouth/Poh/Laughing Teeth"><g id="Group 8"><g id="Group 3"><path id="Fill 1" fill-rule="evenodd" clip-rule="evenodd" d="M3.91797 3C3.91797 3 3.91797 19.013 20.94 19.013C38.778 19.013 38.778 3 38.778 3H3.91797Z" fill="#101335"/></g><path id="Fill 4" fill-rule="evenodd" clip-rule="evenodd" d="M16.2262 9.58491H15.4432C13.9282 9.58491 12.7012 8.35691 12.7012 6.84291V2.99991H18.9682V6.84291C18.9682 8.35691 17.7412 9.58491 16.2262 9.58491" fill="white"/><path id="Fill 6" fill-rule="evenodd" clip-rule="evenodd" d="M26.5729 9.58491H25.7889C24.2739 9.58491 23.0469 8.35691 23.0469 6.84291V2.99991H29.3139V6.84291C29.3139 8.35691 28.0869 9.58491 26.5729 9.58491" fill="white"/></g></g></g><g id="Hair/Poh" transform="translate(80.918 60.5) scale(1 1)"><g id="Hair/Poh/Double Bun"><g id="Hair"><path id="Fill 19" fill-rule="evenodd" clip-rule="evenodd" d="M53.4073 71.3672L56.8083 63.4872L58.4453 71.8102C61.8033 72.0502 65.0923 72.1732 68.2903 72.1992L70.9843 63.6562L73.5783 72.1562C77.2593 72.0672 80.7923 71.8602 84.1403 71.5712L85.7303 63.4872L89.0093 71.0832C96.4493 70.2322 102.746 69.0342 107.414 67.9782C104.773 58.9542 96.4403 52.3612 86.5623 52.3612C80.5973 52.3612 75.1963 54.7682 71.2693 58.6612C67.3433 54.7682 61.9413 52.3612 55.9753 52.3612C46.0323 52.3612 37.6543 59.0432 35.0723 68.1602C41.2803 69.6972 47.4323 70.7352 53.4073 71.3672" fill="#73BAB8"/><path id="Fill 21" fill-rule="evenodd" clip-rule="evenodd" d="M48.2357 26.7651V26.7651C46.5217 29.5551 47.5967 33.2151 50.5467 34.6351H50.5477C55.2307 36.8911 54.4907 43.7801 49.4327 44.9881C46.2487 45.7481 44.4207 49.0961 45.5027 52.1871C47.2187 57.0941 41.8247 61.4411 37.3947 58.7201C34.6047 57.0061 30.9447 58.0801 29.5247 61.0311C27.2687 65.7151 20.3807 64.9741 19.1727 59.9171V59.9171C18.4117 56.7321 15.0637 54.9051 11.9727 55.9861C7.06571 57.7031 2.71771 52.3081 5.43971 47.8781C7.15371 45.0881 6.07971 41.4291 3.12971 40.0081C-1.55529 37.7521 -0.814291 30.8641 4.24271 29.6561C7.42671 28.8951 9.25571 25.5471 8.17371 22.4561C6.45671 17.5491 11.8507 13.2021 16.2817 15.9241C19.0717 17.6381 22.7307 16.5631 24.1517 13.6131C26.4077 8.92913 33.2957 9.66913 34.5047 14.7261C35.2647 17.9111 38.6127 19.7391 41.7037 18.6581C46.6107 16.9401 50.9577 22.3351 48.2357 26.7651" fill="#3A3E5B"/><path id="Fill 23" fill-rule="evenodd" clip-rule="evenodd" d="M39.0244 31.3096V31.3096C38.0484 32.8986 38.6604 34.9826 40.3404 35.7916C43.0084 37.0766 42.5874 40.9996 39.7074 41.6876C37.8924 42.1216 36.8514 44.0276 37.4674 45.7886C38.4454 48.5826 35.3734 51.0596 32.8504 49.5086C31.2604 48.5326 29.1764 49.1446 28.3674 50.8246C27.0834 53.4926 23.1604 53.0706 22.4714 50.1906C22.0384 48.3766 20.1314 47.3356 18.3714 47.9516C15.5764 48.9296 13.1004 45.8576 14.6504 43.3346C15.6274 41.7456 15.0144 39.6616 13.3354 38.8516C10.6674 37.5666 11.0884 33.6436 13.9684 32.9556C15.7824 32.5226 16.8234 30.6156 16.2084 28.8556C15.2294 26.0606 18.3014 23.5846 20.8254 25.1346C22.4144 26.1106 24.4994 25.4986 25.3074 23.8186C26.5924 21.1506 30.5154 21.5726 31.2044 24.4526C31.6364 26.2666 33.5444 27.3076 35.3034 26.6916C38.0984 25.7136 40.5744 28.7866 39.0244 31.3096" fill="#F1758E"/><g id="Group 27"><path id="Fill 25" fill-rule="evenodd" clip-rule="evenodd" d="M108.016 14.7236V14.7236C107.253 17.9076 103.906 19.7346 100.815 18.6516C95.909 16.9326 91.559 22.3256 94.279 26.7566C95.992 29.5476 94.915 33.2066 91.965 34.6266C87.28 36.8806 88.018 43.7686 93.075 44.9786C96.259 45.7416 98.085 49.0896 97.003 52.1796C95.285 57.0866 100.677 61.4356 105.108 58.7156C107.899 57.0026 111.558 58.0786 112.978 61.0296V61.0296C115.232 65.7146 122.12 64.9766 123.33 59.9206V59.9196C124.092 56.7356 127.441 54.9096 130.531 55.9916C135.438 57.7106 139.786 52.3176 137.067 47.8866C135.354 45.0966 136.43 41.4366 139.381 40.0166C144.066 37.7636 143.328 30.8746 138.272 29.6646C135.087 28.9026 133.26 25.5536 134.343 22.4636C136.062 17.5566 130.669 13.2076 126.238 15.9276C123.448 17.6406 119.788 16.5646 118.369 13.6146C116.115 8.92862 109.226 9.66662 108.016 14.7236" fill="#3A3E5B"/></g><path id="Fill 28" fill-rule="evenodd" clip-rule="evenodd" d="M111.308 24.439V24.439C110.873 26.254 108.964 27.296 107.203 26.679C104.406 25.698 101.926 28.773 103.477 31.299C104.454 32.89 103.84 34.976 102.158 35.785C99.4871 37.07 99.9081 40.997 102.79 41.687C104.606 42.122 105.647 44.03 105.03 45.792C104.05 48.589 107.124 51.068 109.65 49.518C111.241 48.542 113.328 49.155 114.136 50.837C115.421 53.508 119.348 53.087 120.038 50.205C120.473 48.389 122.381 47.348 124.143 47.965C126.941 48.945 129.42 45.871 127.87 43.345C126.893 41.754 127.506 39.668 129.188 38.858H129.189C131.86 37.573 131.439 33.647 128.556 32.957C126.741 32.522 125.7 30.613 126.317 28.852C127.296 26.054 124.222 23.575 121.696 25.126C120.105 26.102 118.019 25.489 117.209 23.807C115.924 21.136 111.997 21.556 111.308 24.439" fill="#F1758E"/></g></g></g><g id="Clothes/Poh" transform="translate(92.918 199) scale(1 1)"><g id="Clothes/Poh/Water Waves"><g id="Clothes"><g id="Group 33"><path id="Fill 31" fill-rule="evenodd" clip-rule="evenodd" d="M8.04207 12.2172L8.27307 12.4332C10.3191 14.3882 12.9271 14.3882 14.9721 12.4332L15.1151 12.2972C17.1741 10.3282 19.8031 10.3432 21.8531 12.3342C23.9161 14.3382 26.5641 14.3382 28.6281 12.3342C30.6781 10.3432 33.3061 10.3282 35.3651 12.2962L35.4991 12.4242C37.5441 14.3792 40.1511 14.3792 42.1971 12.4242L42.3581 12.2702C44.4031 10.3162 47.0111 10.3162 49.0561 12.2702L49.1621 12.3712C51.2071 14.3252 53.8141 14.3252 55.8601 12.3712L56.0771 12.1642C58.1221 10.2102 60.7301 10.2102 62.7741 12.1642L62.8811 12.2652C64.9261 14.2202 67.5331 14.2202 69.5781 12.2652L69.6291 12.2172C71.6751 10.2632 74.2821 10.2632 76.3271 12.2172L76.4491 12.3332C78.4941 14.2882 81.1021 14.2882 83.1461 12.3332L83.2311 12.2532C85.2761 10.2982 87.8841 10.2982 89.9291 12.2532L90.0231 12.3432C92.0681 14.2972 94.6771 14.2972 96.7221 12.3432L96.9501 12.1252C98.9951 10.1702 101.603 10.1702 103.647 12.1252L103.834 12.3022C105.879 14.2572 108.449 14.1722 110.494 12.2172C115.096 16.2012 118.019 22.0722 118.019 28.6362C118.019 35.2002 115.096 41.0712 110.494 45.0542C115.096 49.0392 118.019 54.9092 118.019 61.4732C118.019 68.0382 115.096 73.9082 110.494 77.8932C115.096 81.8772 118.019 87.7472 118.019 94.3112C118.019 106.311 108.291 116.04 96.2911 116.04H20.4511L20.4531 115.949C9.29407 115.035 0.518066 105.706 0.518066 94.3112C0.518066 87.7472 3.44107 81.8772 8.04207 77.8932C3.44107 73.9082 0.518066 68.0382 0.518066 61.4732C0.518066 54.9092 3.44107 49.0392 8.04207 45.0542C3.44107 41.0712 0.518066 35.2002 0.518066 28.6362C0.518066 22.0722 3.44107 16.2012 8.04207 12.2172" fill="#41AFE4"/></g><path id="Fill 34" fill-rule="evenodd" clip-rule="evenodd" d="M109.564 62.372C100.044 62.76 99.7556 51.401 92.2136 55.227C85.4676 58.649 81.5567 60.861 79.7227 55.898C78.4307 52.401 79.0187 49.535 75.8917 47.503C74.1647 46.38 72.0407 46.044 69.9797 45.993C62.1547 45.8 54.3337 49.585 49.6287 55.842C47.8387 58.224 46.4437 61.196 47.0347 64.118C47.8347 68.069 51.9257 70.468 55.8387 71.44C59.7517 72.413 63.9347 72.501 67.5667 74.253C71.1987 76.006 74.1247 80.323 72.4857 84.007C70.9627 87.429 66.2627 88.772 65.2157 92.369C64.3047 95.498 66.8257 98.76 69.8427 99.992C72.8607 101.224 76.2377 101.017 79.4957 101.101C80.7127 101.132 81.9977 101.229 83.0027 101.916C84.8147 103.156 84.9977 105.747 84.7167 107.924C84.3417 110.846 83.3896 113.802 81.5206 116.04H96.2906C108.292 116.04 118.019 106.311 118.019 94.311C118.019 93.213 117.931 92.136 117.773 91.082C117.439 91.121 117.109 91.157 116.765 91.202C109.573 92.143 104.732 99.724 102.367 101.049C92.5926 106.522 85.8146 86.905 105.678 85.373C108.892 85.125 112.111 84.555 115.175 83.595C113.945 81.438 112.361 79.508 110.495 77.893C115.096 73.908 118.019 68.038 118.019 61.474C118.019 60.034 117.871 58.631 117.603 57.271C115.782 60.155 112.999 62.232 109.564 62.372" fill="#CBD3D8"/><path id="Fill 36" fill-rule="evenodd" clip-rule="evenodd" d="M59.2568 10.7163C59.2148 10.7183 59.1728 10.7263 59.1308 10.7293C59.1388 10.8003 59.1418 10.8693 59.1568 10.9423L59.2568 10.7163Z" fill="#CBD3D8"/><path id="Fill 38" fill-rule="evenodd" clip-rule="evenodd" d="M103.834 12.3027L103.647 12.1247C101.603 10.1707 98.9953 10.1707 96.9503 12.1247L96.7223 12.3427C94.6773 14.2977 92.0693 14.2977 90.0233 12.3427L89.9293 12.2527C87.8843 10.2987 85.2763 10.2987 83.2313 12.2527L83.1473 12.3337C81.1023 14.2877 78.4943 14.2877 76.4483 12.3337L76.3273 12.2177C74.2823 10.2627 71.6753 10.2627 69.6293 12.2177L69.5793 12.2657C67.5333 14.2197 64.9263 14.2197 62.8813 12.2657L62.7743 12.1647C61.7173 11.1537 60.5093 10.6767 59.3053 10.7117C58.6133 14.1357 57.9443 17.6647 58.6303 21.0877C59.3273 24.5717 61.7953 27.9537 65.2903 28.5947C70.1573 29.4877 74.1603 25.1257 78.0093 22.0157C81.6693 19.0587 86.4563 16.9207 91.0293 18.0277C95.6033 19.1347 99.1333 24.5877 96.9393 28.7497C96.1793 30.1937 94.8763 31.2947 94.1103 32.7357C91.9253 36.8537 96.1303 42.6507 100.724 41.8507C104.083 41.2657 106.399 38.1237 109.567 36.8597C112.167 35.8217 114.286 36.4147 115.924 37.9287C117.265 35.1127 118.019 31.9647 118.019 28.6357C118.019 22.6337 115.569 17.2147 111.632 13.2837C110.966 13.3047 110.292 13.1547 109.646 12.8957C107.77 14.1527 105.605 13.9947 103.834 12.3027" fill="#CBD3D8"/><path id="Fill 40" fill-rule="evenodd" clip-rule="evenodd" d="M50.4836 87.3056C45.6906 80.7196 35.0186 79.5336 28.8956 84.9066C27.0896 86.4906 25.6926 88.4986 23.8766 90.0706C21.7766 91.8866 19.0206 93.0906 16.2576 92.8266C13.4946 92.5626 10.8296 90.6016 10.2366 87.8896C8.66758 80.7126 20.6516 76.8496 20.7216 69.5026C20.7576 65.6626 17.4136 62.6756 14.0746 60.7776C10.7366 58.8796 6.94158 57.3496 4.77158 54.1816C4.13358 53.2516 3.65358 52.2166 3.08358 51.2456C1.44858 54.2926 0.517578 57.7726 0.517578 61.4736C0.517578 68.0376 3.44058 73.9086 8.04258 77.8926C3.44058 81.8766 0.517578 87.7466 0.517578 94.3106C0.517578 105.707 9.29458 115.036 20.4546 115.95L20.4516 116.04H22.4826C28.4926 111.107 38.9946 112.846 46.1306 108.587C53.1266 104.412 55.2776 93.8916 50.4836 87.3056" fill="#CBD3D8"/><path id="Fill 42" fill-rule="evenodd" clip-rule="evenodd" d="M10.2619 15.4428C13.4809 22.0468 2.74689 28.6298 4.41389 35.7858C5.28489 39.5258 9.24089 41.6388 12.9329 42.6948C16.6239 43.7518 20.6729 44.3418 23.5309 46.9078C24.8019 48.0508 25.7639 49.5328 27.1629 50.5148C31.2739 53.3978 38.0179 49.4188 37.4829 44.4278C37.3849 43.5228 37.1009 42.6238 37.2119 41.7208C37.5069 39.3398 40.2739 38.1588 42.6579 37.8928C45.0409 37.6268 47.6949 37.7138 49.5049 36.1408C52.3659 33.6548 50.9709 28.6468 47.9759 26.3248C44.9809 24.0018 41.0439 23.4128 37.4619 22.1738C33.8809 20.9348 30.1749 18.4548 29.7049 14.6938C29.5599 13.5288 29.7409 12.4008 30.0989 11.2988C29.5889 11.5468 29.0929 11.8828 28.6279 12.3338C26.5649 14.3388 23.9159 14.3388 21.8529 12.3338C19.8029 10.3428 17.1749 10.3288 15.1159 12.2968L14.9719 12.4338C12.9269 14.3878 10.3199 14.3878 8.27489 12.4338L8.04189 12.2168C7.84489 12.3888 7.65489 12.5678 7.46289 12.7458C8.65989 13.3318 9.67689 14.2418 10.2619 15.4428" fill="#CBD3D8"/><path id="Fill 44" fill-rule="evenodd" clip-rule="evenodd" d="M60.4776 10.9272C60.4776 10.9272 51.6526 1.4242 39.3666 0.3862C39.3666 0.3862 36.4246 10.5952 39.3666 21.4972C39.3666 21.4972 51.4796 19.3912 60.4776 10.9272" fill="#FFCC37"/><path id="Fill 46" fill-rule="evenodd" clip-rule="evenodd" d="M58.0586 10.9272C58.0586 10.9272 66.8836 1.4242 79.1706 0.3862C79.1706 0.3862 82.1126 10.5952 79.1706 21.4972C79.1706 21.4972 67.0576 19.3912 58.0586 10.9272" fill="#FFCC37"/></g></g></g></g></svg>