<svg viewBox="53.30000000000007 38.6313868613139 1012.6999999999997 652.7372262773721" fill="none" xmlns="http://www.w3.org/2000/svg" xmlns:xlink="http://www.w3.org/1999/xlink" overflow="visible" width="1012.6999999999997px" height="652.7372262773721px"><g id="Master/Scene/Online Treats"><g id="Background"><g id="Group 16"><g id="Group 3"><path id="Fill 1" fill-rule="evenodd" clip-rule="evenodd" d="M194.202 360.273C194.202 278.229 229.214 201.097 292.789 143.085C356.364 85.0714 440.89 53.123 530.8 53.123C620.708 53.123 705.233 85.0714 768.809 143.085C832.382 201.097 867.395 278.229 867.395 360.273V619.284H880.377V360.273C880.377 275.067 844.014 194.958 777.988 134.708C711.962 74.4588 624.175 41.2771 530.8 41.2771C437.424 41.2771 349.636 74.4588 283.609 134.708C217.582 194.958 181.221 275.067 181.221 360.273V619.284H194.202V360.273Z" fill="#775CA6"/></g><g id="Group 6"><path id="Fill 4" fill-rule="evenodd" clip-rule="evenodd" d="M530.189 110.716C681.806 110.716 805.154 223.19 805.154 361.437V618.067H818.136V361.437C818.136 216.662 688.965 98.8794 530.189 98.8794C371.412 98.8794 242.238 216.662 242.238 361.437V618.067H255.22V361.437C255.22 223.19 378.571 110.716 530.189 110.716" fill="#41AFE4"/></g><g id="Group 9"><path id="Fill 7" fill-rule="evenodd" clip-rule="evenodd" d="M531.465 158.085C408.412 158.085 308.301 249.683 308.301 362.272V619.284H321.257V362.272C321.257 256.22 415.556 169.94 531.465 169.94C647.375 169.94 741.672 256.22 741.672 362.272V619.284H754.629V362.272C754.629 249.683 654.518 158.085 531.465 158.085" fill="#00AFA9"/></g><g id="Group 12"><path id="Fill 10" fill-rule="evenodd" clip-rule="evenodd" d="M530.852 216.012C442.444 216.012 370.52 281.751 370.52 362.553V619.284H383.476V362.553C383.476 288.28 449.588 227.854 530.852 227.854C612.116 227.854 678.229 288.28 678.229 362.553V619.284H691.185V362.553C691.185 281.751 619.26 216.012 530.852 216.012" fill="#F1758E"/></g><g id="Group 15"><path id="Fill 13" fill-rule="evenodd" clip-rule="evenodd" d="M530.186 273.114C476.63 273.114 433.059 312.86 433.059 361.714V618.068H446.021V361.714C446.021 319.38 483.778 284.938 530.186 284.938C576.595 284.938 614.352 319.38 614.352 361.714V618.068H627.314V361.714C627.314 312.86 583.743 273.114 530.186 273.114" fill="#FFCC37"/></g></g></g><g id="Window 2" transform="translate(648.928 317.46) scale(1.327546413946329 1.2166667144570575)"><g id="Window 2/Periwinkle Picture"><path id="Fill 1" fill-rule="evenodd" clip-rule="evenodd" d="M0.917969 297.881H268.801V0H0.917969V297.881ZM10.918 287.881H258.8V10H10.918V287.881Z" fill="#96A5D4"/><path id="Fill 1_2" fill-rule="evenodd" clip-rule="evenodd" d="M10.918 287.882H258.8V10H10.918V287.882Z" fill="white"/></g></g><g id="Window 1" transform="translate(54.6328 317.46) scale(1.327546413946329 1.2166667144570575)"><g id="Window 1/Red Insta"><g id="Group 10"><path id="Fill 1" fill-rule="evenodd" clip-rule="evenodd" d="M0.917969 297.883H268.8V0H0.917969V297.883ZM10.918 287.883H258.8V10H10.918V287.883Z" fill="#F1758E"/><path id="Fill 2" fill-rule="evenodd" clip-rule="evenodd" d="M0.917969 40.709H268.8V0H0.917969V40.709Z" fill="#604299"/><g id="Group 9"><path id="Fill 3" fill-rule="evenodd" clip-rule="evenodd" d="M28.2534 12.1105C23.3764 12.1105 22.2474 18.7565 22.2474 18.7565C22.2474 18.7565 21.1194 12.1105 16.2404 12.1105C15.6644 12.1105 15.0344 12.2035 14.3484 12.4125C8.85145 14.0785 10.6054 25.6955 22.2474 28.5985C33.8894 25.6955 35.6444 14.0785 30.1464 12.4125C29.4594 12.2035 28.8304 12.1105 28.2534 12.1105" fill="#F1758E"/><path id="Fill 5" fill-rule="evenodd" clip-rule="evenodd" d="M52.3818 12.1105C47.1808 12.1105 42.9648 15.8005 42.9648 20.3545C42.9648 24.9075 47.1808 28.5985 52.3818 28.5985C54.2248 28.5985 55.9388 28.1285 57.3908 27.3265L59.5828 28.8125L58.9988 26.2165C60.7268 24.7225 61.7988 22.6485 61.7988 20.3545C61.7988 15.8005 57.5828 12.1105 52.3818 12.1105" fill="#F1758E"/><path id="Fill 7" fill-rule="evenodd" clip-rule="evenodd" d="M258.74 12.1105H244.764V28.5985L251.752 24.5985L258.74 28.5985V12.1105Z" fill="#F1758E"/></g></g><path id="Fill 1_2" fill-rule="evenodd" clip-rule="evenodd" d="M10.918 288.168H258.8V41H10.918V288.168Z" fill="white"/></g></g><g id="Food" transform="translate(371.768 379.6) scale(1.3324999491373697 1.2166666924198972)"><g id="Food/Pizza"><g id="Group 88"><g id="Group 3"><path id="Fill 1" fill-rule="evenodd" clip-rule="evenodd" d="M119.782 6.99908C58.047 6.99908 8 57.0461 8 118.781C8 180.517 58.047 230.563 119.782 230.563C181.518 230.563 231.564 180.517 231.564 118.781C231.564 57.0461 181.518 6.99908 119.782 6.99908" fill="#3A3E5B"/></g><path id="Fill 4" fill-rule="evenodd" clip-rule="evenodd" d="M186.218 51.3096L119.782 121.754V23.9706C119.782 20.9766 117.259 18.6136 114.269 18.7756C61.0509 21.6626 18.8839 66.0956 19.6369 120.208C20.3869 174.152 64.4119 218.177 118.356 218.928C174.324 219.707 219.938 174.571 219.938 118.782C219.938 92.8276 210.062 69.1816 193.866 51.3896C191.822 49.1446 188.302 49.1006 186.218 51.3096" fill="#F9A471"/><path id="Fill 6" fill-rule="evenodd" clip-rule="evenodd" d="M186.215 51.2354L125.038 116.174C123.15 118.179 119.782 116.843 119.782 114.089V24.0344C67.0056 24.0344 24.3076 67.1854 25.0446 120.131C25.7546 171.161 67.4016 212.808 118.432 213.519C171.378 214.256 214.53 171.558 214.53 118.781C214.53 92.3354 203.689 68.4224 186.215 51.2354" fill="#F06647"/><path id="Fill 8" fill-rule="evenodd" clip-rule="evenodd" d="M176.718 101.161C176.718 101.161 167.921 104.563 167.921 115.002C167.921 125.441 176.718 128.491 176.718 128.491C176.718 128.491 185.984 125.207 185.984 114.826C185.984 104.445 176.718 101.161 176.718 101.161" fill="#4FA480"/><path id="Fill 10" fill-rule="evenodd" clip-rule="evenodd" d="M133.494 138.343C133.494 138.343 127.413 131.133 117.543 134.532C107.673 137.933 107.654 147.243 107.654 147.243C107.654 147.243 113.777 154.935 123.592 151.554C133.407 148.174 133.494 138.343 133.494 138.343" fill="#4FA480"/><path id="Fill 12" fill-rule="evenodd" clip-rule="evenodd" d="M85.3208 115.029C85.3208 115.029 86.1188 105.631 76.7358 101.055C67.3528 96.4804 60.7558 103.05 60.7558 103.05C60.7558 103.05 59.6468 112.819 68.9768 117.369C78.3078 121.919 85.3208 115.029 85.3208 115.029" fill="#4FA480"/><path id="Fill 14" fill-rule="evenodd" clip-rule="evenodd" d="M106.341 72.0616C106.341 72.0616 113.551 65.9806 110.151 56.1106C106.752 46.2406 97.4414 46.2216 97.4414 46.2216C97.4414 46.2216 89.7494 52.3446 93.1304 62.1596C96.5104 71.9736 106.341 72.0616 106.341 72.0616" fill="#4FA480"/><path id="Fill 16" fill-rule="evenodd" clip-rule="evenodd" d="M184.868 176.2C184.868 176.2 192.078 170.119 188.678 160.249C185.279 150.379 175.968 150.36 175.968 150.36C175.968 150.36 168.276 156.483 171.657 166.298C175.037 176.112 184.868 176.2 184.868 176.2" fill="#4FA480"/><path id="Fill 18" fill-rule="evenodd" clip-rule="evenodd" d="M88.6124 183.686C88.6124 183.686 89.5464 174.3 80.2294 169.59C70.9134 164.88 64.2234 171.355 64.2234 171.355C64.2234 171.355 62.9734 181.106 72.2374 185.79C81.5004 190.473 88.6124 183.686 88.6124 183.686" fill="#4FA480"/><path id="Fill 20" fill-rule="evenodd" clip-rule="evenodd" d="M193.634 138.937C193.634 143.163 190.209 146.587 185.983 146.587C181.758 146.587 178.333 143.163 178.333 138.937C178.333 134.711 181.758 131.286 185.983 131.286C190.209 131.286 193.634 134.711 193.634 138.937" fill="#E9BE50"/><path id="Fill 22" fill-rule="evenodd" clip-rule="evenodd" d="M141.146 152.412C141.146 156.638 137.721 160.063 133.495 160.063C129.27 160.063 125.844 156.638 125.844 152.412C125.844 148.187 129.27 144.762 133.495 144.762C137.721 144.762 141.146 148.187 141.146 152.412" fill="#E9BE50"/><path id="Fill 24" fill-rule="evenodd" clip-rule="evenodd" d="M171.167 95.2589C171.167 99.4849 167.742 102.91 163.516 102.91C159.291 102.91 155.866 99.4849 155.866 95.2589C155.866 91.0339 159.291 87.6089 163.516 87.6089C167.742 87.6089 171.167 91.0339 171.167 95.2589" fill="#E9BE50"/><path id="Fill 26" fill-rule="evenodd" clip-rule="evenodd" d="M91.0598 82.6426C91.0598 86.8676 87.6348 90.2926 83.4088 90.2926C79.1838 90.2926 75.7578 86.8676 75.7578 82.6426C75.7578 78.4166 79.1838 74.9916 83.4088 74.9916C87.6348 74.9916 91.0598 78.4166 91.0598 82.6426" fill="#E9BE50"/><path id="Fill 28" fill-rule="evenodd" clip-rule="evenodd" d="M65.3655 109.253C65.3655 113.479 61.9405 116.904 57.7145 116.904C53.4895 116.904 50.0645 113.479 50.0645 109.253C50.0645 105.028 53.4895 101.603 57.7145 101.603C61.9405 101.603 65.3655 105.028 65.3655 109.253" fill="#E9BE50"/><path id="Fill 30" fill-rule="evenodd" clip-rule="evenodd" d="M83.4094 160.414C83.4094 164.64 79.9834 168.065 75.7584 168.065C71.5334 168.065 68.1074 164.64 68.1074 160.414C68.1074 156.189 71.5334 152.764 75.7584 152.764C79.9834 152.764 83.4094 156.189 83.4094 160.414" fill="#E9BE50"/><path id="Fill 32" fill-rule="evenodd" clip-rule="evenodd" d="M55.9914 160.414C55.9914 164.64 52.5664 168.065 48.3404 168.065C44.1154 168.065 40.6904 164.64 40.6904 160.414C40.6904 156.189 44.1154 152.764 48.3404 152.764C52.5664 152.764 55.9914 156.189 55.9914 160.414" fill="#E9BE50"/><path id="Fill 34" fill-rule="evenodd" clip-rule="evenodd" d="M107.749 196.018C107.749 200.244 104.324 203.669 100.098 203.669C95.8732 203.669 92.4482 200.244 92.4482 196.018C92.4482 191.793 95.8732 188.368 100.098 188.368C104.324 188.368 107.749 191.793 107.749 196.018" fill="#E9BE50"/><path id="Fill 36" fill-rule="evenodd" clip-rule="evenodd" d="M82.9888 71.7784C82.9888 78.7574 77.3308 84.4154 70.3518 84.4154C63.3728 84.4154 57.7148 78.7574 57.7148 71.7784C57.7148 64.7994 63.3728 59.1414 70.3518 59.1414C77.3308 59.1414 82.9888 64.7994 82.9888 71.7784" fill="white"/><path id="Fill 38" fill-rule="evenodd" clip-rule="evenodd" d="M118.482 110.527C118.482 117.506 112.824 123.164 105.845 123.164C98.866 123.164 93.208 117.506 93.208 110.527C93.208 103.548 98.866 97.8894 105.845 97.8894C112.824 97.8894 118.482 103.548 118.482 110.527" fill="white"/><path id="Fill 40" fill-rule="evenodd" clip-rule="evenodd" d="M70.3521 140.703C70.3521 147.682 64.6941 153.34 57.7151 153.34C50.7361 153.34 45.0781 147.682 45.0781 140.703C45.0781 133.724 50.7361 128.065 57.7151 128.065C64.6941 128.065 70.3521 133.724 70.3521 140.703" fill="white"/><path id="Fill 42" fill-rule="evenodd" clip-rule="evenodd" d="M147.863 181.365C147.863 188.344 142.205 194.002 135.226 194.002C128.247 194.002 122.589 188.344 122.589 181.365C122.589 174.386 128.247 168.728 135.226 168.728C142.205 168.728 147.863 174.386 147.863 181.365" fill="white"/><path id="Fill 44" fill-rule="evenodd" clip-rule="evenodd" d="M210.3 131.641C210.3 137.36 205.664 141.996 199.944 141.996C194.225 141.996 189.589 137.36 189.589 131.641C189.589 125.921 194.225 121.285 199.944 121.285C205.664 121.285 210.3 125.921 210.3 131.641" fill="white"/><path id="Fill 46" fill-rule="evenodd" clip-rule="evenodd" d="M189.59 75.0176C189.59 80.3646 185.256 84.6986 179.909 84.6986C174.562 84.6986 170.227 80.3646 170.227 75.0176C170.227 69.6696 174.562 65.3356 179.909 65.3356C185.256 65.3356 189.59 69.6696 189.59 75.0176" fill="white"/><path id="Fill 48" fill-rule="evenodd" clip-rule="evenodd" d="M204.174 101.487C202.187 101.487 200.576 99.8774 200.576 97.8904C200.576 95.9034 202.187 94.2934 204.174 94.2934C206.161 94.2934 207.771 95.9034 207.771 97.8904C207.771 99.8774 206.161 101.487 204.174 101.487M204.174 90.0634C199.851 90.0634 196.347 93.5674 196.347 97.8904C196.347 102.213 199.851 105.716 204.174 105.716C208.497 105.716 212.001 102.213 212.001 97.8904C212.001 93.5674 208.497 90.0634 204.174 90.0634" fill="#3A3E5B"/><path id="Fill 50" fill-rule="evenodd" clip-rule="evenodd" d="M179.41 92.8585C177.423 92.8585 175.812 91.2485 175.812 89.2615C175.812 87.2745 177.423 85.6645 179.41 85.6645C181.397 85.6645 183.007 87.2745 183.007 89.2615C183.007 91.2485 181.397 92.8585 179.41 92.8585M179.41 81.4345C175.087 81.4345 171.583 84.9385 171.583 89.2615C171.583 93.5845 175.087 97.0875 179.41 97.0875C183.733 97.0875 187.237 93.5845 187.237 89.2615C187.237 84.9385 183.733 81.4345 179.41 81.4345" fill="#3A3E5B"/><path id="Fill 52" fill-rule="evenodd" clip-rule="evenodd" d="M151.006 114.194C149.019 114.194 147.408 112.584 147.408 110.596C147.408 108.61 149.019 106.999 151.006 106.999C152.993 106.999 154.603 108.61 154.603 110.596C154.603 112.584 152.993 114.194 151.006 114.194M151.006 102.769C146.683 102.769 143.179 106.274 143.179 110.596C143.179 114.92 146.683 118.423 151.006 118.423C155.329 118.423 158.833 114.92 158.833 110.596C158.833 106.274 155.329 102.769 151.006 102.769" fill="#3A3E5B"/><path id="Fill 54" fill-rule="evenodd" clip-rule="evenodd" d="M155.689 159.051C153.702 159.051 152.091 157.441 152.091 155.454C152.091 153.467 153.702 151.857 155.689 151.857C157.676 151.857 159.286 153.467 159.286 155.454C159.286 157.441 157.676 159.051 155.689 159.051M155.689 147.627C151.366 147.627 147.862 151.131 147.862 155.454C147.862 159.777 151.366 163.28 155.689 163.28C160.012 163.28 163.516 159.777 163.516 155.454C163.516 151.131 160.012 147.627 155.689 147.627" fill="#3A3E5B"/><path id="Fill 56" fill-rule="evenodd" clip-rule="evenodd" d="M128.402 203.025C126.415 203.025 124.804 201.415 124.804 199.427C124.804 197.441 126.415 195.83 128.402 195.83C130.389 195.83 131.999 197.441 131.999 199.427C131.999 201.415 130.389 203.025 128.402 203.025M128.402 191.6C124.079 191.6 120.575 195.105 120.575 199.427C120.575 203.751 124.079 207.254 128.402 207.254C132.725 207.254 136.229 203.751 136.229 199.427C136.229 195.105 132.725 191.6 128.402 191.6" fill="#3A3E5B"/><path id="Fill 58" fill-rule="evenodd" clip-rule="evenodd" d="M101.667 170.459C99.6798 170.459 98.0688 168.849 98.0688 166.861C98.0688 164.875 99.6798 163.264 101.667 163.264C103.654 163.264 105.264 164.875 105.264 166.861C105.264 168.849 103.654 170.459 101.667 170.459M101.667 159.034C97.3438 159.034 93.8398 162.539 93.8398 166.861C93.8398 171.185 97.3438 174.688 101.667 174.688C105.99 174.688 109.494 171.185 109.494 166.861C109.494 162.539 105.99 159.034 101.667 159.034" fill="#3A3E5B"/><path id="Fill 60" fill-rule="evenodd" clip-rule="evenodd" d="M100.098 130.347C98.1115 130.347 96.5005 128.737 96.5005 126.75C96.5005 124.763 98.1115 123.153 100.098 123.153C102.085 123.153 103.695 124.763 103.695 126.75C103.695 128.737 102.085 130.347 100.098 130.347M100.098 118.923C95.7755 118.923 92.2715 122.427 92.2715 126.75C92.2715 131.073 95.7755 134.576 100.098 134.576C104.421 134.576 107.925 131.073 107.925 126.75C107.925 122.427 104.421 118.923 100.098 118.923" fill="#3A3E5B"/><path id="Fill 62" fill-rule="evenodd" clip-rule="evenodd" d="M35.9432 122.022C33.9562 122.022 32.3452 120.412 32.3452 118.424C32.3452 116.438 33.9562 114.827 35.9432 114.827C37.9302 114.827 39.5402 116.438 39.5402 118.424C39.5402 120.412 37.9302 122.022 35.9432 122.022M35.9432 110.597C31.6202 110.597 28.1162 114.102 28.1162 118.424C28.1162 122.748 31.6202 126.251 35.9432 126.251C40.2662 126.251 43.7702 122.748 43.7702 118.424C43.7702 114.102 40.2662 110.597 35.9432 110.597" fill="#3A3E5B"/><path id="Fill 64" fill-rule="evenodd" clip-rule="evenodd" d="M94.8338 83.2032C92.8468 83.2032 91.2358 81.5932 91.2358 79.6052C91.2358 77.6192 92.8468 76.0082 94.8338 76.0082C96.8208 76.0082 98.4308 77.6192 98.4308 79.6052C98.4308 81.5932 96.8208 83.2032 94.8338 83.2032M94.8338 71.7782C90.5108 71.7782 87.0068 75.2832 87.0068 79.6052C87.0068 83.9292 90.5108 87.4322 94.8338 87.4322C99.1568 87.4322 102.661 83.9292 102.661 79.6052C102.661 75.2832 99.1568 71.7782 94.8338 71.7782" fill="#3A3E5B"/><path id="Fill 66" fill-rule="evenodd" clip-rule="evenodd" d="M88.6385 43.8946C86.6515 43.8946 85.0405 42.2846 85.0405 40.2976C85.0405 38.3106 86.6515 36.7006 88.6385 36.7006C90.6255 36.7006 92.2355 38.3106 92.2355 40.2976C92.2355 42.2846 90.6255 43.8946 88.6385 43.8946M88.6385 32.4706C84.3155 32.4706 80.8115 35.9746 80.8115 40.2976C80.8115 44.6206 84.3155 48.1236 88.6385 48.1236C92.9615 48.1236 96.4655 44.6206 96.4655 40.2976C96.4655 35.9746 92.9615 32.4706 88.6385 32.4706" fill="#3A3E5B"/><path id="Fill 68" fill-rule="evenodd" clip-rule="evenodd" d="M92.2717 144.648C92.2717 147.802 89.7147 150.36 86.5597 150.36C83.4047 150.36 80.8477 147.802 80.8477 144.648C80.8477 141.494 83.4047 138.936 86.5597 138.936C89.7147 138.936 92.2717 141.494 92.2717 144.648" fill="white"/><path id="Fill 70" fill-rule="evenodd" clip-rule="evenodd" d="M159.535 121.814C160.28 118.749 163.37 116.868 166.435 117.613C169.501 118.358 171.381 121.448 170.636 124.513C169.89 127.579 166.801 129.46 163.736 128.713C160.67 127.968 158.79 124.879 159.535 121.814" fill="white"/><path id="Fill 72" fill-rule="evenodd" clip-rule="evenodd" d="M106.009 41.6231C106.754 38.5581 109.843 36.6771 112.909 37.4221C115.974 38.1671 117.855 41.2571 117.11 44.3221C116.364 47.3881 113.275 49.2691 110.21 48.5221C107.144 47.7771 105.264 44.6881 106.009 41.6231" fill="white"/><path id="Fill 74" fill-rule="evenodd" clip-rule="evenodd" d="M36.7694 91.0235C37.5144 87.9585 40.6044 86.0775 43.6694 86.8235C46.7354 87.5685 48.6154 90.6575 47.8704 93.7225C47.1244 96.7885 44.0354 98.6695 40.9704 97.9235C37.9044 97.1785 36.0244 94.0885 36.7694 91.0235" fill="white"/><path id="Fill 76" fill-rule="evenodd" clip-rule="evenodd" d="M67.3545 183.722C67.7575 182.067 69.4255 181.051 71.0805 181.453C72.7355 181.856 73.7505 183.524 73.3485 185.179C72.9465 186.834 71.2775 187.85 69.6225 187.448C67.9675 187.045 66.9525 185.377 67.3545 183.722" fill="white"/><path id="Fill 78" fill-rule="evenodd" clip-rule="evenodd" d="M77.7874 127.763C78.1894 126.108 79.8584 125.092 81.5134 125.494C83.1684 125.897 84.1834 127.565 83.7814 129.22C83.3784 130.875 81.7104 131.891 80.0554 131.489C78.4004 131.086 77.3844 129.417 77.7874 127.763" fill="white"/><path id="Fill 80" fill-rule="evenodd" clip-rule="evenodd" d="M190.105 109.996C190.507 108.341 192.176 107.325 193.831 107.728C195.486 108.131 196.501 109.799 196.099 111.454C195.696 113.109 194.028 114.124 192.373 113.722C190.718 113.319 189.702 111.651 190.105 109.996" fill="white"/><path id="Fill 82" fill-rule="evenodd" clip-rule="evenodd" d="M148.009 137.604C148.412 135.949 150.08 134.933 151.735 135.335C153.39 135.738 154.405 137.407 154.003 139.061C153.601 140.716 151.932 141.732 150.277 141.33C148.622 140.927 147.607 139.259 148.009 137.604" fill="white"/><path id="Fill 84" fill-rule="evenodd" clip-rule="evenodd" d="M155.836 183.722C156.238 182.067 157.907 181.051 159.562 181.453C161.217 181.856 162.232 183.524 161.83 185.179C161.427 186.834 159.759 187.85 158.104 187.448C156.449 187.045 155.433 185.377 155.836 183.722" fill="white"/><path id="Fill 86" fill-rule="evenodd" clip-rule="evenodd" d="M70.0293 50.5049C70.4323 48.8499 72.1003 47.8349 73.7553 48.2369C75.4103 48.6399 76.4253 50.3079 76.0233 51.9629C75.6213 53.6179 73.9533 54.6339 72.2973 54.2309C70.6423 53.8279 69.6273 52.1599 70.0293 50.5049" fill="white"/></g></g></g><g id="Master/Worms/Jae" transform="translate(627.607 284.7) scale(1.3280730897009967 1.2166666666666666)"><g id="Master/Worms/Jae"><g id="Body/Jae" transform="translate(47.918 130.42) scale(1 1)"><g id="Body/Jae/Purple"><g id="Body"><g id="Group 3"><path id="Fill 1" fill-rule="evenodd" clip-rule="evenodd" d="M0.000366211 104.886V184H208.214V104.886C208.214 47.389 161.604 0.778992 104.107 0.778992C46.6104 0.778992 0.000366211 47.389 0.000366211 104.886Z" fill="#775CA6"/><path id="Fill 8" fill-rule="evenodd" clip-rule="evenodd" d="M0 184H208.215V113.476H0V184Z" fill="#4D439B"/></g><path id="Fill 4" fill-rule="evenodd" clip-rule="evenodd" d="M100.977 64.4485C100.977 84.1445 85.0105 100.111 65.3145 100.111C45.6185 100.111 29.6515 84.1445 29.6515 64.4485C29.6515 44.7525 45.6185 28.7855 65.3145 28.7855C85.0105 28.7855 100.977 44.7525 100.977 64.4485" fill="#F1758E"/><path id="Fill 6" fill-rule="evenodd" clip-rule="evenodd" d="M178.564 64.4485C178.564 84.1445 162.597 100.111 142.901 100.111C123.205 100.111 107.238 84.1445 107.238 64.4485C107.238 44.7525 123.205 28.7855 142.901 28.7855C162.597 28.7855 178.564 44.7525 178.564 64.4485" fill="#F1758E"/></g></g></g><g id="Eyes/Jae" transform="translate(124.918 186.42) scale(1 1)"><g id="Eyes/Jae/Angry"><g id="Group 7"><g id="Group 3"><path id="Fill 1" fill-rule="evenodd" clip-rule="evenodd" d="M11.0023 18.8912C10.3453 18.8912 9.70126 18.5672 9.31826 17.9742C8.72126 17.0452 8.98826 15.8082 9.91726 15.2092L14.8893 12.0062L10.3213 8.6042C9.43626 7.9442 9.25226 6.6912 9.91226 5.8052C10.5723 4.9202 11.8253 4.7362 12.7113 5.3962L18.6043 9.7862C19.3543 10.3452 19.7833 11.2372 19.7513 12.1722C19.7203 13.1062 19.2313 13.9672 18.4443 14.4742L12.0833 18.5722C11.7483 18.7882 11.3733 18.8912 11.0023 18.8912" fill="#101335"/></g><g id="Group 6"><path id="Fill 4" fill-rule="evenodd" clip-rule="evenodd" d="M41.3497 18.8911C40.9457 18.8911 40.5367 18.7691 40.1837 18.5151L34.3027 14.2881C33.5427 13.7421 33.0987 12.8581 33.1157 11.9221C33.1307 10.9871 33.6047 10.1181 34.3827 9.5981L40.7547 5.3381C41.6737 4.7231 42.9147 4.9711 43.5297 5.8891C44.1427 6.8071 43.8967 8.0491 42.9787 8.6631L37.9797 12.0051L42.5177 15.2671C43.4147 15.9121 43.6197 17.1611 42.9747 18.0581C42.5837 18.6021 41.9707 18.8911 41.3497 18.8911" fill="#101335"/></g></g></g></g><g id="Mouth/Jae" transform="translate(132.77 206.476) scale(0.975 1)"><g id="Mouth/Jae/Smiling White"><g id="Group 3"><path id="Fill 1" fill-rule="evenodd" clip-rule="evenodd" d="M8.91797 2H32.827C32.827 2 31.393 14.56 20.268 14.56C9.14297 14.56 8.91797 2 8.91797 2" fill="white"/></g></g></g><g id="Hair/Jae" transform="translate(5.91797 0.420013) scale(1 1)"><g id="Hair/Jae/Blue Waves"><g id="Group 3"><path id="Fill 1" fill-rule="evenodd" clip-rule="evenodd" d="M271.055 209.668C282.288 202.978 280.525 186.198 268.146 181.99C258.452 178.694 254.655 167.003 260.559 158.639V158.639C268.1 147.958 259.663 133.347 246.644 134.537H246.643C236.448 135.469 228.222 126.334 230.215 116.291C232.759 103.466 219.11 93.5493 207.7 99.9323H207.699C198.764 104.931 187.534 99.9313 185.27 89.9463V89.9463C182.378 77.1953 165.874 73.6873 158.047 84.1603C151.917 92.3603 139.624 92.3603 133.494 84.1603C125.666 73.6873 109.163 77.1953 106.272 89.9463V89.9463C104.008 99.9313 92.7778 104.931 83.8418 99.9323C72.4318 93.5493 58.7818 103.466 61.3258 116.291C63.3198 126.334 55.0938 135.469 44.8978 134.537C31.8778 133.347 23.4418 147.958 30.9828 158.639V158.639C36.8878 167.003 33.0888 178.694 23.3958 181.99C11.0168 186.198 9.25279 202.978 20.4868 209.668C29.2828 214.907 30.5678 227.132 23.0528 234.086C13.4558 242.965 18.6698 259.012 31.6538 260.554C35.9718 261.068 39.5538 263.294 41.9498 266.396V236.606C48.7368 235.776 58.7788 232.099 63.9878 218.372C72.3138 196.433 80.9258 209.018 100.45 198.395C119.973 187.772 103.895 164.804 124.853 158.775C141.739 153.918 147.194 137.141 148.678 130.801C150.052 135.231 157.955 157.304 179.381 158.819C203.204 160.503 197.429 184.421 214.033 189.548C230.637 194.674 241.947 195.396 242.669 214.888C243.001 223.853 246.429 230.939 250.034 235.983V265.862C252.419 263.044 255.824 261.038 259.888 260.554C272.871 259.012 278.085 242.965 268.489 234.086C260.974 227.132 262.258 214.907 271.055 209.668" fill="#41AFE4"/></g></g></g><g id="Clothes/Jae" transform="translate(47.918 251.42) scale(1 1)"><g id="Clothes/Jae/Water Waves"><g id="Clothes"><path id="Fill 29" fill-rule="evenodd" clip-rule="evenodd" d="M0 64H208.214V0.419006H0V64Z" fill="#41AFE4"/><path id="Fill 30" fill-rule="evenodd" clip-rule="evenodd" d="M208.215 54.4937C204.32 53.2947 199.703 53.4907 195.602 52.5977C193.714 52.1877 191.733 51.3997 190.76 49.7297C189.477 47.5247 190.491 44.5957 192.277 42.7737C194.064 40.9517 196.465 39.8977 198.641 38.5647C202.694 36.0827 205.969 32.4567 208.215 28.2737V4.8017C208.023 4.6307 207.832 4.4587 207.619 4.3097C204.341 2.0187 199.187 2.8267 196.343 0.418701H170.571C172.096 3.9067 175.472 6.9277 178.143 9.8957C181.758 13.9127 184.501 19.2747 183.51 24.5857C182.519 29.8977 176.481 34.2787 171.573 32.0167C169.871 31.2317 168.529 29.8057 166.829 29.0157C161.973 26.7597 155.581 31.9357 156.778 37.1547C157.654 40.9727 161.399 43.4377 163.041 46.9937C166.269 53.9757 158.706 58.4127 151.093 59.5107C143.479 60.6087 134.502 56.2007 133.781 48.5417C132.757 37.6487 145.766 36.6257 140.92 28.2097C136.584 20.6807 133.809 16.3297 139.389 13.9247C143.321 12.2297 146.645 12.7287 148.784 9.0197C149.967 6.9707 150.223 4.5137 150.155 2.1477C150.139 1.5707 150.103 0.993701 150.049 0.418701H117.844C117.76 0.645701 117.692 0.876701 117.598 1.1007C115.809 5.3727 111.036 8.9917 106.711 7.3367C103.419 6.0767 101.596 2.2867 98.74 0.418701H92.031C90.299 1.5097 88.897 3.3247 88.218 5.2797C86.989 8.8147 87.432 12.6757 87.534 16.4167C87.572 17.8147 87.539 19.2947 86.812 20.4887C85.5 22.6417 82.54 23.0087 80.027 22.8207C76.119 22.5287 72.109 21.3597 69.311 18.6187C64.633 14.0357 64.861 7.2707 64.873 0.418701H32.061C32.371 1.1927 32.725 1.9517 33.169 2.6707C34.618 5.0177 36.625 6.9837 38.059 9.3407C39.715 12.0647 40.552 15.4157 39.726 18.4947C38.899 21.5737 36.17 24.2187 32.985 24.3717C24.557 24.7777 22.471 10.4677 14.163 8.9867C9.821 8.2117 5.8 11.4297 3.013 14.8477C1.995 16.0957 1.022 17.4207 0 18.6927V60.3657C1.541 60.3477 3.107 59.9747 4.42 59.2467C8.228 57.1387 10.633 53.2507 13.563 50.0317C16.492 46.8117 20.788 44.0237 24.97 45.2307C28.424 46.2277 30.549 49.5607 32.854 52.3187C35.072 54.9717 37.818 57.3327 41.13 58.3247C44.444 59.3157 48.389 58.6907 50.721 56.1377C52.708 53.9617 53.225 50.8727 54.195 48.0917C55.168 45.3107 57.133 42.4007 60.07 42.1727C62.934 41.9497 65.385 44.5207 66.137 47.2917C66.889 50.0627 66.397 52.9947 66.086 55.8497C65.874 57.8067 66.113 60.3447 67.993 60.9267C70.239 61.6217 71.819 58.8277 73.678 57.3897C77.754 54.2357 84.182 58.6767 84.521 63.8197C84.525 63.8807 84.521 63.9397 84.524 63.9997H101.974C101.784 62.3177 101.517 60.5067 101.156 58.5567C99.639 50.3657 90.651 45.2757 88.986 42.6427C82.114 31.7687 104.199 22.7997 107.166 45.4867C108.026 52.0627 110.057 58.5977 113.721 63.9997H208.215V54.4937Z" fill="#CBD3D8"/></g></g></g></g></g><g id="Master/Worms/Mol" transform="translate(33.3125 284.7) scale(1.3280730897009967 1.2166666666666666)"><g id="Master/Worms/Mol"><g id="Body/Mol" transform="translate(99.918 45.84) scale(1 1)"><g id="Body/Mol/Purple"><g id="Body"><path id="Fill 1" fill-rule="evenodd" clip-rule="evenodd" d="M51.8931 25.9574C27.2231 25.9574 7.2251 45.9564 7.2251 70.6254V267.999H96.5611V70.6254C96.5611 45.9564 76.5621 24.9574 51.8931 24.9574" fill="#775CA6"/><path id="Fill 3" fill-rule="evenodd" clip-rule="evenodd" d="M49.7115 71.0463C49.7115 84.7743 38.5835 95.9023 24.8555 95.9023C11.1285 95.9023 0.000488281 84.7743 0.000488281 71.0463C0.000488281 57.3183 11.1285 46.1913 24.8555 46.1913C38.5835 46.1913 49.7115 57.3183 49.7115 71.0463" fill="#F1758E"/><path id="Fill 5" fill-rule="evenodd" clip-rule="evenodd" d="M103.786 71.0463C103.786 84.7743 92.658 95.9023 78.93 95.9023C65.203 95.9023 54.075 84.7743 54.075 71.0463C54.075 57.3183 65.203 46.1913 78.93 46.1913C92.658 46.1913 103.786 57.3183 103.786 71.0463" fill="#F1758E"/><path id="Fill 7" fill-rule="evenodd" clip-rule="evenodd" d="M7.2251 268H96.4901V122.973H7.2251V268Z" fill="#4D439B"/></g></g></g><g id="Eyes/Mol" transform="translate(127.918 109.84) scale(1 1)"><g id="Eyes/Mol/Upset"><g id="Group 7"><g id="Group 3"><path id="Fill 1" fill-rule="evenodd" clip-rule="evenodd" d="M39.6168 10H32.7988C31.6948 10 30.7988 9.104 30.7988 8C30.7988 6.896 31.6948 6 32.7988 6H39.6168C40.7208 6 41.6168 6.896 41.6168 8C41.6168 9.104 40.7208 10 39.6168 10" fill="#101335"/></g><g id="Group 6"><path id="Fill 4" fill-rule="evenodd" clip-rule="evenodd" d="M14.818 10H8C6.896 10 6 9.104 6 8C6 6.896 6.896 6 8 6H14.818C15.922 6 16.818 6.896 16.818 8C16.818 9.104 15.922 10 14.818 10" fill="#101335"/></g></g></g></g><g id="Mouth/Mol" transform="translate(133.656 123.909) scale(0.9736842105263158 1)"><g id="Mouth/Mol/Suprised"><g id="Group 3"><path id="Fill 1" fill-rule="evenodd" clip-rule="evenodd" d="M27.996 10.0387C27.996 15.0307 23.949 19.0777 18.957 19.0777C13.965 19.0777 9.91797 15.0307 9.91797 10.0387C9.91797 5.0467 13.965 0.9997 18.957 0.9997C23.949 0.9997 27.996 5.0467 27.996 10.0387" fill="white"/></g></g></g><g id="Hair/Mol" transform="translate(88.918 7.84003) scale(1 1)"><g id="Hair/Mol/Blue Puff"><g id="Group 3"><path id="Fill 1" fill-rule="evenodd" clip-rule="evenodd" d="M28.5148 41.1955C28.7728 35.8935 32.4398 33.0005 32.4398 33.0005C43.1628 44.7115 57.7548 36.8555 69.2158 37.4125C78.8268 37.8805 87.2518 46.6955 86.7358 57.3115C86.4738 62.7155 84.1958 66.4595 82.5018 68.5265C82.5018 68.5265 75.1098 64.6215 64.9958 64.3395C63.3748 72.2055 56.2018 78.1565 47.9288 77.7545C38.7808 77.3105 31.7248 69.5335 32.1698 60.3845C32.3158 57.3785 33.2538 54.5975 34.7728 52.2345C30.4658 49.7825 28.2978 45.6555 28.5148 41.1955" fill="#41AFE4"/></g></g></g><g id="Clothes/Mol" transform="translate(107.117 168.84) scale(1 1)"><g id="Clothes/Mol/Colourful Kites"><g id="Group 38"><path id="Fill 1" fill-rule="evenodd" clip-rule="evenodd" d="M0 146.073H89.336V11.8H0V146.073Z" fill="#74BAB9"/><path id="Fill 2" fill-rule="evenodd" clip-rule="evenodd" d="M22.4649 100.972L22.4059 100.913L0.171875 123.145L22.4649 145.438L44.6989 123.205L44.6379 123.145L44.6989 123.085L22.5249 100.913L22.4649 100.972ZM9.37788 123.145L22.4649 110.058L35.5519 123.145L22.4649 136.232L9.37788 123.145Z" fill="#00AFA9"/><path id="Fill 3" fill-rule="evenodd" clip-rule="evenodd" d="M22.4649 56.5059L22.4059 56.4459L0.171875 78.6789L22.4059 100.913L22.4649 100.972L22.5249 100.913L44.6989 78.7389L44.6379 78.6789L44.6989 78.6189L22.5249 56.4459L22.4649 56.5059ZM9.37788 78.6789L22.4649 65.5919L35.5519 78.6789L22.4649 91.7659L9.37788 78.6789Z" fill="#00AFA9"/><path id="Fill 4" fill-rule="evenodd" clip-rule="evenodd" d="M0.171875 34.2129L22.4059 56.4459L22.4649 56.5059L22.5249 56.4459L44.6989 34.2719L44.6379 34.2129L44.6989 34.1529L22.4649 11.9189L0.171875 34.2129ZM9.37788 34.2129L22.4649 21.1259L35.5519 34.2129L22.4649 47.2999L9.37788 34.2129Z" fill="#00AFA9"/><path id="Fill 5" fill-rule="evenodd" clip-rule="evenodd" d="M66.9312 56.5059L66.8712 56.4459L44.6982 78.6189L44.6382 78.6789L44.6982 78.7389L66.8712 100.913L66.9312 100.853L66.9912 100.913L89.2242 78.6789L66.9912 56.4459L66.9312 56.5059ZM53.8442 78.6789L66.9312 65.5919L80.0182 78.6789L66.9312 91.7659L53.8442 78.6789Z" fill="#00AFA9"/><path id="Fill 6" fill-rule="evenodd" clip-rule="evenodd" d="M49.4918 56.4461L44.6978 61.2391L39.9038 56.4461L44.6978 51.6521L49.4918 56.4461ZM44.6978 69.5321L57.7848 56.4461L44.6978 43.3591L31.6108 56.4461L44.6978 69.5321Z" fill="#E0BFDB"/><path id="Fill 7" fill-rule="evenodd" clip-rule="evenodd" d="M44.6983 61.2395L49.4923 56.4465L44.6983 51.6525L39.9043 56.4465L44.6983 61.2395Z" fill="#BF62A2"/><path id="Fill 8" fill-rule="evenodd" clip-rule="evenodd" d="M49.4918 11.8002L44.6988 16.5932L39.9038 11.8002H31.6118L44.6988 24.8872L57.7848 11.8002H49.4918Z" fill="#E0BFDB"/><path id="Fill 9" fill-rule="evenodd" clip-rule="evenodd" d="M49.4918 100.912L44.6978 105.706L39.9038 100.912L44.6978 96.1189L49.4918 100.912ZM44.6978 113.999L57.7848 100.912L44.6978 87.8259L31.6108 100.912L44.6978 113.999Z" fill="#E0BFDB"/><path id="Fill 10" fill-rule="evenodd" clip-rule="evenodd" d="M31.6118 146.073H39.9048L44.6988 141.279L49.4918 146.073H57.7848L44.6988 132.986L31.6118 146.073Z" fill="#E0BFDB"/><path id="Fill 11" fill-rule="evenodd" clip-rule="evenodd" d="M39.9043 11.8002L44.6983 16.5932L49.4923 11.8002H39.9043Z" fill="#BF62A2"/><path id="Fill 12" fill-rule="evenodd" clip-rule="evenodd" d="M44.6983 105.706L49.4923 100.912L44.6983 96.1188L39.9043 100.912L44.6983 105.706Z" fill="#BF62A2"/><path id="Fill 13" fill-rule="evenodd" clip-rule="evenodd" d="M39.9043 146.073H49.4923L44.6983 141.279L39.9043 146.073Z" fill="#BF62A2"/><path id="Fill 14" fill-rule="evenodd" clip-rule="evenodd" d="M76.3003 56.4465L89.3363 69.4825L89.3343 61.2395L84.5403 56.4465L89.3343 51.6525L89.3363 43.4095L76.3003 56.4465Z" fill="#BF62A2"/><path id="Fill 15" fill-rule="evenodd" clip-rule="evenodd" d="M76.3272 11.8002L76.2012 11.9262L89.2872 25.0132L89.3362 24.9642V16.5582L84.5072 11.8002H76.3272Z" fill="#BF62A2"/><path id="Fill 16" fill-rule="evenodd" clip-rule="evenodd" d="M76.2012 100.912L89.3362 114.047V106.293L84.1982 101.156L89.3362 96.0179V87.7769L76.2012 100.912Z" fill="#BF62A2"/><path id="Fill 17" fill-rule="evenodd" clip-rule="evenodd" d="M76.8418 146.073H84.1098L89.3358 141.712V133.393L76.8418 146.073Z" fill="#BF62A2"/><path id="Fill 18" fill-rule="evenodd" clip-rule="evenodd" d="M0 51.6522L4.793 56.4462L0 61.2402V69.5322L13.087 56.4462L0 43.3592V51.6522Z" fill="#BF62A2"/><path id="Fill 19" fill-rule="evenodd" clip-rule="evenodd" d="M5.453 11.8002L0 15.9352V24.5302L0.482 25.0132L13.569 11.9262L13.442 11.8002H5.453Z" fill="#BF62A2"/><path id="Fill 20" fill-rule="evenodd" clip-rule="evenodd" d="M0 96.3615L4.793 101.156L0 105.95V113.999L13.087 100.912L0 87.8255V96.3615Z" fill="#BF62A2"/><path id="Fill 21" fill-rule="evenodd" clip-rule="evenodd" d="M0 141.363L4.878 146.073H12.928L0 132.827V141.363Z" fill="#BF62A2"/><path id="Fill 22" fill-rule="evenodd" clip-rule="evenodd" d="M84.5405 56.4465L89.3335 61.2395V51.6525L84.5405 56.4465Z" fill="#E0BFDB"/><path id="Fill 23" fill-rule="evenodd" clip-rule="evenodd" d="M84.1978 101.156L89.3358 106.293V96.0178L84.1978 101.156Z" fill="#E0BFDB"/><path id="Fill 24" fill-rule="evenodd" clip-rule="evenodd" d="M84.1104 146.073H89.3354V140.712L84.1104 146.073Z" fill="#E0BFDB"/><path id="Fill 25" fill-rule="evenodd" clip-rule="evenodd" d="M84.5073 11.8002L89.3353 16.5582V11.8002H84.5073Z" fill="#E0BFDB"/><path id="Fill 26" fill-rule="evenodd" clip-rule="evenodd" d="M0 61.2399L4.793 56.4469L0 51.6519V61.2399Z" fill="#E0BFDB"/><path id="Fill 27" fill-rule="evenodd" clip-rule="evenodd" d="M0 105.949L4.793 101.156L0 96.3612V105.949Z" fill="#E0BFDB"/><path id="Fill 28" fill-rule="evenodd" clip-rule="evenodd" d="M0 146.073H4.878L0 141.363V146.073Z" fill="#E0BFDB"/><path id="Fill 29" fill-rule="evenodd" clip-rule="evenodd" d="M0 11.8002V15.9352L5.453 11.8002H0Z" fill="#E0BFDB"/><path id="Fill 30" fill-rule="evenodd" clip-rule="evenodd" d="M66.8707 100.913L44.6987 123.085L44.6377 123.146L44.6987 123.205L66.9307 145.439L89.2237 123.146L66.9917 100.913L66.9307 100.853L66.8707 100.913ZM53.8437 123.146L66.9307 110.059L80.0177 123.146L66.9307 136.233L53.8437 123.146Z" fill="#00AFA9"/><path id="Fill 31" fill-rule="evenodd" clip-rule="evenodd" d="M44.6987 34.1526L44.6387 34.2126L44.6987 34.2726L66.8707 56.4456L66.9317 56.5056L66.9917 56.4456L89.2247 34.2126L66.9317 11.9186L44.6987 34.1526ZM53.8447 34.2126L66.9317 21.1256L80.0187 34.2126L66.9317 47.2996L53.8447 34.2126Z" fill="#00AFA9"/><path id="Fill 32" fill-rule="evenodd" clip-rule="evenodd" d="M53.8442 78.679L66.9312 91.766L80.0182 78.679L66.9312 65.592L53.8442 78.679Z" fill="#5473B8"/><path id="Fill 33" fill-rule="evenodd" clip-rule="evenodd" d="M80.0177 34.2127L66.9307 21.1257L53.8438 34.2127L66.9307 47.2997L80.0177 34.2127Z" fill="#5473B8"/><path id="Fill 34" fill-rule="evenodd" clip-rule="evenodd" d="M53.8442 123.145L66.9312 136.232L80.0182 123.145L66.9312 110.059L53.8442 123.145Z" fill="#5473B8"/><path id="Fill 35" fill-rule="evenodd" clip-rule="evenodd" d="M35.5519 78.679L22.4649 65.592L9.37793 78.679L22.4649 91.766L35.5519 78.679Z" fill="#5473B8"/><path id="Fill 36" fill-rule="evenodd" clip-rule="evenodd" d="M35.5519 34.2127L22.4649 21.1257L9.37793 34.2127L22.4649 47.2997L35.5519 34.2127Z" fill="#5473B8"/><path id="Fill 37" fill-rule="evenodd" clip-rule="evenodd" d="M9.37842 123.145L22.4654 136.232L35.5524 123.145L22.4654 110.059L9.37842 123.145Z" fill="#5473B8"/></g></g></g></g></g></g></svg>