<svg viewBox="386.7874999999999 105.23722627737232 293.42500000000024 439.59854014598545" fill="none" xmlns="http://www.w3.org/2000/svg" xmlns:xlink="http://www.w3.org/1999/xlink" overflow="visible" width="293.42500000000024px" height="439.59854014598545px"><g id="Master/Stickers/Pretty Pearls"><g id="Group 17"><g id="Group 3"><path id="Fill 1" fill-rule="evenodd" clip-rule="evenodd" d="M445.802 408.389C435.9 427.213 430.168 449.407 430.168 473.187C430.168 496.974 435.904 519.171 445.805 538.002H623.49C633.392 519.171 639.127 496.974 639.127 473.187C639.127 449.407 633.395 427.213 623.494 408.389H445.802Z" fill="#FFCC37"/></g><path id="Fill 4" fill-rule="evenodd" clip-rule="evenodd" d="M510.332 409H516.328V243H510.332V409Z" fill="#00AFA9"/><path id="Fill 6" fill-rule="evenodd" clip-rule="evenodd" d="M516.329 364H436.325C410.963 364 390.404 343.347 390.404 317.868V291H470.408C495.77 291 516.329 311.653 516.329 337.132V364Z" fill="#96A5D4"/><path id="Fill 7" fill-rule="evenodd" clip-rule="evenodd" d="M536.316 409H542.313V181H536.316V409Z" fill="#00AFA9"/><path id="Fill 8" fill-rule="evenodd" clip-rule="evenodd" d="M535.316 295H615.733C648.597 295 675.232 268.276 675.232 235.317V214H594.819C561.955 214 535.316 240.727 535.316 273.689V295Z" fill="#96A5D4"/><path id="Fill 9" fill-rule="evenodd" clip-rule="evenodd" d="M581.289 152.5C581.289 175.972 562.272 195 538.814 195C515.357 195 496.34 175.972 496.34 152.5C496.34 129.025 515.357 110 538.814 110C562.272 110 581.289 129.025 581.289 152.5" fill="#F1758E"/><path id="Fill 10" fill-rule="evenodd" clip-rule="evenodd" d="M539.316 195H529.942C509.175 195 492.344 178.315 492.344 157.734V149L539.316 195Z" fill="#F9A471"/><path id="Fill 11" fill-rule="evenodd" clip-rule="evenodd" d="M538.316 195H547.69C568.453 195 585.288 178.315 585.288 157.734V149L538.316 195Z" fill="#F9A471"/><path id="Fill 12" fill-rule="evenodd" clip-rule="evenodd" d="M539.032 149L562.302 172.138L539.032 195L515.33 171.711L539.032 149Z" fill="#BF62A2"/><path id="Fill 13" fill-rule="evenodd" clip-rule="evenodd" d="M562.301 409H568.297V334H562.301V409Z" fill="#00AFA9"/><path id="Fill 14" fill-rule="evenodd" clip-rule="evenodd" d="M581.289 326C581.289 334.833 574.13 342 565.297 342C556.465 342 549.309 334.833 549.309 326C549.309 317.163 556.465 310 565.297 310C574.13 310 581.289 317.163 581.289 326" fill="#F1758E"/><path id="Fill 15" fill-rule="evenodd" clip-rule="evenodd" d="M529.321 243C529.321 251.837 522.161 259 513.329 259C504.496 259 497.34 251.837 497.34 243C497.34 234.163 504.496 227 513.329 227C522.161 227 529.321 234.163 529.321 243" fill="#F9A471"/><path id="Fill 16" fill-rule="evenodd" clip-rule="evenodd" d="M561.301 391H602.656C619.556 391 633.258 377.144 633.258 360.051V349H591.902C575.003 349 561.301 362.859 561.301 379.949V391Z" fill="#96A5D4"/></g></g></svg>