<svg viewBox="0 -1.3321167883211729 1065.9999999999998 732.6642335766425" fill="none" xmlns="http://www.w3.org/2000/svg" xmlns:xlink="http://www.w3.org/1999/xlink" overflow="visible" width="1065.9999999999998px" height="732.6642335766425px"><g id="Master/Stickers/UI"><g id="Group 26"><g id="Group 3"><path id="Fill 1" fill-rule="evenodd" clip-rule="evenodd" d="M409.74 83H654.882C675.664 83 692.509 99.8557 692.509 120.65V610.093C692.509 630.886 675.664 647.743 654.882 647.743H409.74C388.959 647.743 372.113 630.886 372.113 610.093V120.65C372.113 99.8557 388.959 83 409.74 83" fill="#E0BFDB"/></g><path id="Fill 4" fill-rule="evenodd" clip-rule="evenodd" d="M695.825 230.819H692.51V170.445H695.825C698.595 170.445 700.842 172.693 700.842 175.465V225.799C700.842 228.571 698.595 230.819 695.825 230.819" fill="#E0BFDB"/><g id="Group 8"><path id="Fill 6" fill-rule="evenodd" clip-rule="evenodd" d="M372.113 206.095H368.798C366.028 206.095 363.781 203.848 363.781 201.075V160.163C363.781 157.391 366.028 155.143 368.798 155.143H372.113V206.095Z" fill="#E0BFDB"/></g><g id="Group 11"><path id="Fill 9" fill-rule="evenodd" clip-rule="evenodd" d="M372.113 266.691H368.798C366.028 266.691 363.781 264.443 363.781 261.671V220.758C363.781 217.986 366.028 215.738 368.798 215.738H372.113V266.691Z" fill="#E0BFDB"/></g><path id="Fill 14" fill-rule="evenodd" clip-rule="evenodd" d="M386.755 256.536L386.018 259.387C386.266 259.123 386.537 258.892 386.795 258.643V256.581C386.781 256.566 386.768 256.551 386.755 256.536" fill="#41AFE4"/><path id="Fill 18" fill-rule="evenodd" clip-rule="evenodd" d="M386.794 256.581V258.643C387.12 258.327 387.436 257.995 387.778 257.699L386.794 256.581Z" fill="#41AFE4"/><path id="Union" fill-rule="evenodd" clip-rule="evenodd" d="M677.829 366.661V436.248C677.829 436.249 677.83 436.25 677.831 436.251V557.198L677.83 557.198V609.152C677.83 618.152 673.096 626.046 665.984 630.476C662.141 632.869 657.605 634.252 652.745 634.252C652.745 634.252 652.744 634.252 652.744 634.252H411.882C411.882 634.252 411.882 634.252 411.882 634.252C408.418 634.252 405.119 633.549 402.118 632.28C393.114 628.469 386.797 619.549 386.797 609.152V121.429C386.797 107.566 398.027 96.3293 411.882 96.3293H470.047C470.047 96.3289 470.047 96.3285 470.047 96.3281H472.537C476.443 96.3281 479.61 99.4982 479.61 103.406V107.587C479.61 111.495 482.778 114.663 486.683 114.663H590.268C592.823 114.663 595.053 113.306 596.297 111.275C596.299 111.277 596.301 111.278 596.303 111.28C596.961 110.205 597.341 108.94 597.341 107.587V103.407C597.341 99.4981 600.508 96.3293 604.415 96.3293H631.929C631.929 96.3289 631.929 96.3285 631.928 96.3281H652.745C666.599 96.3281 677.831 107.565 677.831 121.428V228.341C677.83 228.341 677.829 228.34 677.829 228.34V280.711C677.829 280.711 677.83 280.712 677.831 280.713V366.663C677.83 366.662 677.829 366.662 677.829 366.661Z" fill="#FCE8FF"/></g><path id="Fill 1_2" fill-rule="evenodd" clip-rule="evenodd" d="M402.758 529.112C402.758 534.401 406.854 538.722 412.043 539.099C412.045 539.154 412.046 539.209 412.047 539.263C407.236 539.996 403.546 544.142 403.546 549.161C403.546 554.699 408.032 559.187 413.565 559.187C414.58 559.187 415.558 559.033 416.482 558.752C413.404 560.463 411.321 563.745 411.321 567.517C411.321 573.054 415.807 577.542 421.34 577.542C423.846 577.542 426.131 576.616 427.888 575.094C427.92 575.125 427.953 575.156 427.985 575.187C426.492 576.938 425.585 579.205 425.585 581.688C425.585 587.224 430.07 591.712 435.604 591.712C439.276 591.712 442.478 589.73 444.222 586.782C444.013 587.587 443.891 588.428 443.891 589.299C443.891 594.835 448.377 599.324 453.91 599.324C459.083 599.324 463.338 595.401 463.871 590.366C463.894 590.367 463.917 590.367 463.94 590.368C464.054 595.806 468.486 600.181 473.948 600.181C479.4 600.181 483.824 595.823 483.955 590.4H483.998C483.986 590.604 483.967 590.806 483.967 591.014C483.967 596.55 488.453 601.038 493.986 601.038C499.52 601.038 504.006 596.55 504.006 591.014C504.006 590.806 503.987 590.604 503.974 590.4H504.125C504.054 590.881 504.006 591.37 504.006 591.871C504.006 597.408 508.491 601.896 514.025 601.896C519.558 601.896 524.043 597.408 524.043 591.871C524.043 591.37 523.995 590.881 523.924 590.4H524.075C524.063 590.604 524.043 590.806 524.043 591.014C524.043 596.55 528.529 601.038 534.063 601.038C539.596 601.038 544.082 596.55 544.082 591.014C544.082 590.12 543.953 589.256 543.734 588.431C545.279 591.972 548.806 594.45 552.916 594.45C558.448 594.45 562.935 589.96 562.935 584.424C562.935 582.547 562.409 580.796 561.511 579.294C563.323 581.101 565.823 582.218 568.582 582.218C574.116 582.218 578.601 577.73 578.601 572.193C578.601 568.857 576.966 565.91 574.461 564.087C575.724 564.662 577.123 564.991 578.601 564.991C584.135 564.991 588.62 560.502 588.62 554.966C588.62 550.477 585.67 546.683 581.605 545.406L604.983 535.44L581.209 524.429C584.493 522.785 586.752 519.395 586.752 515.47C586.752 509.933 582.266 505.445 576.732 505.445C574.961 505.445 573.299 505.91 571.855 506.716C573.971 504.878 575.315 502.173 575.315 499.15C575.315 493.613 570.83 489.124 565.296 489.124C562.689 489.124 560.321 490.13 558.539 491.764C558.84 490.809 559.005 489.793 559.005 488.739C559.005 483.202 554.52 478.713 548.986 478.713C545.323 478.713 542.129 480.687 540.381 483.622C540.168 478.274 535.78 473.999 530.382 473.999C524.892 473.999 520.439 478.419 520.37 483.897H520.357C520.288 478.419 515.835 473.999 510.344 473.999C504.855 473.999 500.401 478.419 500.331 483.897H500.319C500.249 478.419 495.796 473.999 490.306 473.999C484.816 473.999 480.363 478.419 480.294 483.897H480.28C480.211 478.419 475.758 473.999 470.268 473.999C464.735 473.999 460.248 478.488 460.248 484.025C460.248 484.062 460.254 484.098 460.254 484.135C460.169 484.143 460.082 484.146 459.997 484.155C458.992 479.681 455.004 476.336 450.23 476.336C444.697 476.336 440.211 480.825 440.211 486.361C440.211 487.578 440.438 488.738 440.835 489.817C440.806 489.831 440.777 489.846 440.749 489.862C438.987 486.989 435.828 485.067 432.213 485.067C426.679 485.067 422.194 489.555 422.194 495.092C422.194 497.85 423.308 500.346 425.108 502.159C423.452 500.947 421.417 500.222 419.206 500.222C413.672 500.222 409.187 504.71 409.187 510.246C409.187 514.288 411.583 517.763 415.026 519.349C414.302 519.183 413.551 519.086 412.777 519.086C407.243 519.086 402.758 523.575 402.758 529.112" fill="#B8C9FF"/><g id="Group 3_2"><path id="Fill 1_3" fill-rule="evenodd" clip-rule="evenodd" d="M463.72 406.475L478.323 413.238C481.439 433.213 498.706 448.499 519.544 448.499H623.679C646.724 448.499 665.404 429.807 665.404 406.749C665.404 383.691 646.724 365 623.679 365H519.544C498.71 365 481.446 380.279 478.325 400.249L463.72 406.475Z" fill="#FFA8E4"/></g><g id="Group 521"><path id="Fill 1_4" fill-rule="evenodd" clip-rule="evenodd" d="M520.686 310.475L535.289 317.238C538.405 337.213 555.672 352.499 576.51 352.499H620.681C643.726 352.499 662.406 333.807 662.406 310.749C662.406 287.691 643.726 269 620.681 269H576.51C555.675 269 538.412 284.279 535.291 304.249L520.686 310.475Z" fill="#FFA8E4"/></g><g id="Group 520"><ellipse id="Ellipse 8" cx="532.679" cy="198" rx="58.9646" ry="59" fill="#B8C9FF"/><g id="Mask group"><mask id="mask0_201_1706586298d4a-5ee8-4400-b362-58d5c348efa2" style="mask-type:alpha" maskUnits="userSpaceOnUse" x="473" y="139" width="119" height="118" fill="#ffffff"><ellipse id="Ellipse 8_2" cx="532.679" cy="198" rx="58.9646" ry="59" fill="#ffffff"/></mask><g mask="url(#mask0_201_1706586298d4a-5ee8-4400-b362-58d5c348efa2)"><g id="Master/Worms/Mol" transform="translate(450.783 128.621) scale(0.5441546265865085 0.5462962801494295)"><g id="Master/Worms/Mol"><g id="Body/Mol" transform="translate(99.918 45.84) scale(1 1)"><g id="Body/Mol/Purple"><g id="Body"><path id="Fill 1" fill-rule="evenodd" clip-rule="evenodd" d="M51.8931 25.9574C27.2231 25.9574 7.2251 45.9564 7.2251 70.6254V267.999H96.5611V70.6254C96.5611 45.9564 76.5621 24.9574 51.8931 24.9574" fill="#775CA6"/><path id="Fill 3" fill-rule="evenodd" clip-rule="evenodd" d="M49.7115 71.0463C49.7115 84.7743 38.5835 95.9023 24.8555 95.9023C11.1285 95.9023 0.000488281 84.7743 0.000488281 71.0463C0.000488281 57.3183 11.1285 46.1913 24.8555 46.1913C38.5835 46.1913 49.7115 57.3183 49.7115 71.0463" fill="#F1758E"/><path id="Fill 5" fill-rule="evenodd" clip-rule="evenodd" d="M103.786 71.0463C103.786 84.7743 92.658 95.9023 78.93 95.9023C65.203 95.9023 54.075 84.7743 54.075 71.0463C54.075 57.3183 65.203 46.1913 78.93 46.1913C92.658 46.1913 103.786 57.3183 103.786 71.0463" fill="#F1758E"/><path id="Fill 7" fill-rule="evenodd" clip-rule="evenodd" d="M7.2251 268H96.4901V122.973H7.2251V268Z" fill="#4D439B"/></g></g></g><g id="Eyes/Mol" transform="translate(127.918 109.84) scale(1 1)"><g id="Eyes/Mol/Happy"><g id="Group 7"><g id="Group 3"><path id="Fill 1" fill-rule="evenodd" clip-rule="evenodd" d="M44.0559 11.9119C43.2269 11.9119 42.4519 11.3919 42.1659 10.5639C42.0709 10.3089 41.0959 7.89992 38.3529 8.00292C35.3359 8.11092 34.5479 10.4909 34.5399 10.5149C34.2069 11.5679 33.0839 12.1519 32.0299 11.8179C30.9769 11.4849 30.3929 10.3609 30.7269 9.30792C30.7929 9.09992 32.4059 4.21192 38.2119 4.00592C42.8409 3.84292 45.2939 7.36992 45.9459 9.25892C46.3069 10.3029 45.7529 11.4409 44.7089 11.8019C44.4929 11.8769 44.2719 11.9119 44.0559 11.9119" fill="#101335"/></g><g id="Group 6"><path id="Fill 4" fill-rule="evenodd" clip-rule="evenodd" d="M14.4223 11.9119C13.5933 11.9119 12.8183 11.3919 12.5323 10.5639C12.4373 10.3089 11.4623 7.89591 8.71932 8.00291C5.82932 8.10591 4.98532 10.2919 4.89832 10.5409C4.53832 11.5739 3.41232 12.1409 2.37332 11.7949C1.33632 11.4499 0.763323 10.3499 1.09332 9.30791C1.15932 9.09991 2.77232 4.21191 8.57732 4.00591C13.1963 3.83291 15.6603 7.36991 16.3123 9.25891C16.6733 10.3029 16.1193 11.4409 15.0753 11.8019C14.8593 11.8769 14.6383 11.9119 14.4223 11.9119" fill="#101335"/></g></g></g></g><g id="Mouth/Mol" transform="translate(133.656 123.909) scale(0.9736842105263158 1)"><g id="Mouth/Mol/Teeth Out"><g id="Group 10"><g id="Group 3"><path id="Fill 1" fill-rule="evenodd" clip-rule="evenodd" d="M15.8775 15.5283V15.5283C14.6455 15.5283 13.6465 14.5293 13.6465 13.2973V9.23129H18.1085V13.2973C18.1085 14.5293 17.1095 15.5283 15.8775 15.5283" fill="#FFEFCD"/></g><g id="Group 6"><path id="Fill 4" fill-rule="evenodd" clip-rule="evenodd" d="M22.1802 15.5283V15.5283C20.9482 15.5283 19.9492 14.5293 19.9492 13.2973V9.23129H24.4112V13.2973C24.4112 14.5293 23.4122 15.5283 22.1802 15.5283" fill="#FFEFCD"/></g><g id="Group 9"><path id="Fill 7" fill-rule="evenodd" clip-rule="evenodd" d="M18.7799 11.1651C13.3669 11.1651 11.4139 8.7031 11.2059 8.4161C10.7179 7.7471 10.8649 6.8091 11.5349 6.3211C12.2049 5.8331 13.1419 5.9801 13.6299 6.6501C13.6589 6.6821 14.9859 8.2271 19.0349 8.1631C23.1409 8.0941 24.3349 6.6641 24.3459 6.6491C24.8069 5.9611 25.7209 5.8011 26.4089 6.2611C27.0979 6.7211 27.2649 7.6781 26.8049 8.3671C26.6209 8.6431 24.8369 11.0661 19.0849 11.1631C18.9819 11.1641 18.8799 11.1651 18.7799 11.1651" fill="#171617"/></g></g></g></g><g id="Hair/Mol" transform="translate(88.918 7.84003) scale(1 1)"><g id="Hair/Mol/Colour Buns"><g id="Group 26"><path id="Fill 1" fill-rule="evenodd" clip-rule="evenodd" d="M66.4769 92.029C66.4769 93.7337 65.1029 95.1156 63.4069 95.1156C61.7119 95.1156 60.3379 93.7337 60.3379 92.029C60.3379 90.3244 61.7119 88.9425 63.4069 88.9425C65.1029 88.9425 66.4769 90.3244 66.4769 92.029" fill="white"/><g id="Group 25"><g id="Group 5"><path id="Fill 3" fill-rule="evenodd" clip-rule="evenodd" d="M114.455 77.5223C114.455 81.5743 111.189 84.859 107.16 84.859C103.131 84.859 99.8652 81.5743 99.8652 77.5223C99.8652 73.4703 103.131 70.1856 107.16 70.1856C111.189 70.1856 114.455 73.4703 114.455 77.5223" fill="#FFCC37"/></g><path id="Fill 6" fill-rule="evenodd" clip-rule="evenodd" d="M101.605 85.8313C101.096 85.8313 100.594 85.597 100.27 85.1525L97.4589 81.3076C96.9169 80.5674 97.0749 79.5245 97.8119 78.9794C98.5489 78.4353 99.5859 78.5942 100.127 79.3344L102.938 83.1782C103.48 83.9205 103.322 84.9624 102.585 85.5075C102.29 85.7257 101.946 85.8313 101.605 85.8313" fill="#3A3E5B"/><path id="Fill 8" fill-rule="evenodd" clip-rule="evenodd" d="M67.3921 48.6989C70.6361 51.1026 71.3281 55.6957 68.9381 58.9582C66.5491 62.2197 61.9821 62.9167 58.7381 60.513C55.4941 58.1094 54.8021 53.5163 57.1921 50.2537C59.5811 46.9922 64.1481 46.2953 67.3921 48.6989" fill="#5473B8"/><path id="Fill 10" fill-rule="evenodd" clip-rule="evenodd" d="M65.0885 64.7108H65.0875L60.3425 64.7068C59.4275 64.7068 58.6875 63.9595 58.6875 63.0393C58.6885 62.1201 59.4295 61.3759 60.3445 61.3759H60.3455L65.0895 61.3789C66.0045 61.3799 66.7455 62.1261 66.7445 63.0463C66.7445 63.9656 66.0025 64.7108 65.0885 64.7108" fill="#3A3E5B"/><path id="Fill 12" fill-rule="evenodd" clip-rule="evenodd" d="M94.4841 57.5543C96.3031 61.1699 94.8631 65.584 91.2681 67.4134C87.6731 69.2427 83.2841 67.7945 81.4651 64.179C79.6461 60.5634 81.0861 56.1494 84.6811 54.32C88.2761 52.4906 92.6651 53.9388 94.4841 57.5543" fill="#F1758E"/><path id="Fill 14" fill-rule="evenodd" clip-rule="evenodd" d="M85.9962 70.9833C85.7442 70.9833 85.4892 70.9259 85.2502 70.8032L81.0172 68.65C80.2002 68.2346 79.8732 67.233 80.2862 66.4123C80.6992 65.5906 81.6972 65.2628 82.5112 65.6771L86.7452 67.8303C87.5612 68.2457 87.8882 69.2484 87.4752 70.0691C87.1842 70.6484 86.6012 70.9833 85.9962 70.9833" fill="#3A3E5B"/><path id="Fill 16" fill-rule="evenodd" clip-rule="evenodd" d="M31.7737 57.5543C29.9547 61.1699 31.3947 65.584 34.9897 67.4134C38.5847 69.2427 42.9737 67.7945 44.7927 64.179C46.6117 60.5634 45.1717 56.1494 41.5767 54.32C37.9817 52.4906 33.5927 53.9388 31.7737 57.5543" fill="#F9A471"/><path id="Fill 18" fill-rule="evenodd" clip-rule="evenodd" d="M40.2598 70.9832C39.6548 70.9832 39.0718 70.6483 38.7808 70.069C38.3668 69.2474 38.6948 68.2457 39.5108 67.8303L43.7448 65.6771C44.5608 65.2607 45.5578 65.5916 45.9698 66.4123C46.3838 67.2329 46.0568 68.2346 45.2398 68.65L41.0058 70.8032C40.7668 70.9259 40.5108 70.9832 40.2598 70.9832" fill="#3A3E5B"/><g id="Group 22"><path id="Fill 20" fill-rule="evenodd" clip-rule="evenodd" d="M12 77.5223C12 81.5743 15.266 84.859 19.295 84.859C23.324 84.859 26.59 81.5743 26.59 77.5223C26.59 73.4703 23.324 70.1856 19.295 70.1856C15.266 70.1856 12 73.4703 12 77.5223" fill="#41AFE4"/></g><path id="Fill 23" fill-rule="evenodd" clip-rule="evenodd" d="M24.8505 85.8313C24.5095 85.8313 24.1655 85.7267 23.8705 85.5074C23.1335 84.9623 22.9755 83.9204 23.5175 83.1782L26.3285 79.3344C26.8695 78.5941 27.9065 78.4342 28.6435 78.9793C29.3805 79.5244 29.5385 80.5674 28.9965 81.3076L26.1855 85.1524C25.8615 85.5969 25.3595 85.8313 24.8505 85.8313" fill="#3A3E5B"/></g></g></g></g><g id="Clothes/Mol" transform="translate(107.117 168.84) scale(1 1)"><g id="Clothes/Mol/Water Waves"><g id="Clothes"><path id="Fill 29" fill-rule="evenodd" clip-rule="evenodd" d="M0.0249023 146H89.3609V11.833H0.0249023V146Z" fill="#41AFE4"/><path id="Fill 30" fill-rule="evenodd" clip-rule="evenodd" d="M59.4829 140.267C62.0949 138.084 64.4199 135.381 65.3959 132.12C66.3719 128.858 65.7559 124.974 63.2429 122.678C61.1009 120.722 58.0599 120.214 55.3219 119.257C52.5839 118.3 49.7189 116.365 49.4939 113.474C49.2749 110.655 51.8069 108.243 54.5349 107.502C57.2629 106.761 60.1489 107.246 62.9589 107.551C64.8849 107.76 67.3849 107.525 67.9579 105.674C68.6419 103.463 65.8919 101.909 64.4749 100.078C61.3699 96.065 65.7429 89.737 70.8059 89.404C75.8679 89.071 80.3549 92.619 83.6539 96.473C85.9269 99.128 87.8859 102.187 89.3609 105.438V74.455C86.4649 72.727 79.6789 70.423 65.6249 73.027C57.5609 74.521 52.5499 83.37 49.9579 85.007C39.2529 91.772 30.4229 70.031 52.7569 67.11C61.6839 65.943 70.5429 62.6 76.4919 55.844C80.6589 51.113 83.5279 45.16 88.5659 41.371C88.8249 41.176 89.0939 40.994 89.3609 40.809V15.059C88.1139 13.943 86.7919 12.904 85.4319 11.947C85.3779 11.909 85.3219 11.871 85.2669 11.833H59.7329C63.4399 13.407 65.8069 18.621 66.5639 23.866C67.6439 31.361 63.3049 40.199 55.7649 40.908C45.0409 41.917 44.0349 29.109 35.7489 33.881C28.3369 38.149 24.0539 40.881 21.6859 35.388C20.0169 31.517 20.5089 28.245 16.8569 26.139C14.8389 24.975 12.4209 24.723 10.0919 24.788C6.6289 24.887 3.2079 25.682 0.0249023 27.042V54.982C3.1169 55.33 6.2099 55.646 9.0619 56.84C13.2669 58.601 16.8289 63.3 15.1999 67.558C13.6869 71.513 8.4599 73.311 7.4929 77.434C6.6519 81.022 9.6939 84.554 13.1749 85.764C16.6549 86.973 20.4559 86.537 24.1389 86.437C25.5159 86.399 26.9719 86.432 28.1479 87.148C30.2679 88.439 30.6289 91.353 30.4439 93.828C30.1559 97.674 29.0049 101.623 26.3059 104.377C19.9059 110.909 9.1849 107.726 0.0249023 109.216V142.024C3.6789 142.51 7.4519 141.905 10.6069 139.957C12.9169 138.53 14.8529 136.554 17.1729 135.143C19.8549 133.513 23.1539 132.689 26.1849 133.503C29.2159 134.316 31.8189 137.003 31.9699 140.138C32.0839 142.505 31.0179 144.362 29.4039 146H53.4529C54.8969 143.725 57.3559 142.046 59.4829 140.267" fill="#CBD3D8"/><path id="Fill 32" fill-rule="evenodd" clip-rule="evenodd" d="M44.5546 18.2689C48.3126 17.4069 50.7406 13.7199 54.2406 12.1029C54.4576 12.0019 54.6726 11.9129 54.8856 11.8329H36.1006C36.7016 15.6719 40.6096 19.1739 44.5546 18.2689" fill="#CBD3D8"/><g id="Group 36"><path id="Fill 34" fill-rule="evenodd" clip-rule="evenodd" d="M89.3614 128.839C86.8304 133.06 82.8664 136.203 79.5774 139.872C77.9514 141.686 76.4614 143.771 75.4624 146H89.3614V128.839Z" fill="#CBD3D8"/></g><path id="Fill 37" fill-rule="evenodd" clip-rule="evenodd" d="M45.9025 10.8324C45.9025 10.8324 37.0775 1.32938 24.7905 0.291382C24.7905 0.291382 21.8495 10.5004 24.7905 21.4034C24.7905 21.4034 36.9035 19.2964 45.9025 10.8324" fill="#FFCC37"/><path id="Fill 39" fill-rule="evenodd" clip-rule="evenodd" d="M43.4834 10.8324C43.4834 10.8324 52.3084 1.32938 64.5954 0.291382C64.5954 0.291382 67.5364 10.5004 64.5954 21.4034C64.5954 21.4034 52.4824 19.2964 43.4834 10.8324" fill="#FFCC37"/></g></g></g></g></g></g></g></g></g></svg>