<svg viewBox="0 -1.3321167883211729 1065.9999999999998 732.6642335766425" fill="none" xmlns="http://www.w3.org/2000/svg" xmlns:xlink="http://www.w3.org/1999/xlink" overflow="visible" width="1065.9999999999998px" height="732.6642335766425px"><g id="Master/Stickers/Chat"><rect width="1066" height="730" fill="white"/><g id="Group 516"><path id="Fill 1" fill-rule="evenodd" clip-rule="evenodd" d="M547.801 266.005C543.812 248.965 539.55 231.339 528.807 217.53C518.063 203.718 498.893 194.828 482.682 201.397C464.344 208.83 457.749 231.795 458.692 251.571C459.869 276.307 469.271 300.582 485.062 319.65C461.288 317.261 437.861 311.409 413.975 310.757C390.091 310.106 364.676 315.474 347.593 332.193C330.51 348.908 325.459 379.048 341.457 396.809C351.415 407.867 366.774 412.049 381.367 414.951C415.457 421.732 450.363 424.402 485.087 422.887C435.545 436.864 394.442 477.625 380.028 527.069C374.825 544.921 373.61 566.151 385.785 580.203C396.47 592.535 414.386 595.642 430.685 595.049C477.365 593.348 519.61 568.432 559.569 544.23C534.671 575.445 541.753 626.246 572.753 651.403C603.751 676.559 652.791 674.168 682.957 648.017C713.124 621.869 722.893 575.743 708.43 538.519C742.912 561.145 786.503 573.121 826.058 561.465C865.613 549.812 897.875 510.32 892.87 469.365C891.571 458.722 887.763 448.116 880.469 440.259C866.788 425.521 844.585 423.466 824.511 422.363C804.835 421.282 785.161 420.202 765.485 419.121C814.64 403.842 856.657 366.947 878.179 320.159C888.516 297.693 894.277 272.22 888.971 248.065C883.662 223.908 865.583 201.668 841.44 196.361C819.109 191.453 796.299 201.12 776.222 212.062C743.774 229.745 713.488 251.392 686.252 276.371C706.504 242.147 723.481 205.983 736.877 168.535C742.376 153.161 747.3 136.366 742.506 120.759C736.041 99.7067 712.694 87.1434 690.69 87.6069C668.684 88.069 648.191 99.0643 630.683 112.41C584.584 147.559 553.222 201.469 545.449 258.936" fill="#D7EFF6"/><path id="Fill 55" fill-rule="evenodd" clip-rule="evenodd" d="M227.312 152.098C225.019 142.299 222.568 132.162 216.39 124.221C210.211 116.279 199.187 111.166 189.865 114.944C179.319 119.218 175.527 132.425 176.069 143.797C176.746 158.022 182.153 171.982 191.234 182.947C177.562 181.573 164.09 178.208 150.354 177.833C136.619 177.458 122.004 180.546 112.18 190.16C102.356 199.772 99.4515 217.105 108.651 227.318C114.378 233.678 123.21 236.082 131.602 237.751C151.206 241.651 171.279 243.186 191.248 242.315C162.758 250.353 139.121 273.793 130.832 302.226C127.84 312.493 127.142 324.701 134.143 332.782C140.287 339.874 150.59 341.66 159.963 341.319C186.807 340.341 211.101 326.013 234.08 312.095C219.762 330.046 223.834 359.26 241.662 373.727C259.488 388.193 287.689 386.818 305.036 371.779C322.384 356.743 328.002 330.217 319.685 308.811C339.514 321.822 364.582 328.709 387.329 322.007C410.075 315.305 428.628 292.594 425.75 269.043C425.002 262.923 422.813 256.823 418.618 252.305C410.751 243.83 397.983 242.648 386.439 242.014C375.124 241.392 363.81 240.771 352.495 240.149C380.762 231.363 404.925 210.146 417.301 183.24C423.246 170.32 426.559 155.672 423.507 141.781C420.455 127.889 410.058 115.1 396.174 112.048C383.332 109.226 370.215 114.784 358.67 121.077C340.01 131.246 322.593 143.694 306.931 158.059C318.577 138.378 328.34 117.581 336.044 96.046C339.206 87.2052 342.037 77.5466 339.281 68.5714C335.563 56.4652 322.137 49.2405 309.483 49.507C296.828 49.7728 285.043 56.0958 274.975 63.7705C248.465 83.9834 230.43 114.985 225.96 148.033" fill="#C4CDFF"/><path id="Fill 56" fill-rule="evenodd" clip-rule="evenodd" d="M884.718 595.544C883.028 600.344 881.313 605.331 881.783 610.398C882.254 615.466 885.559 620.649 890.56 621.58C896.217 622.633 901.428 618.04 904.293 613.046C907.876 606.801 909.373 599.379 908.488 592.232C913.94 596.544 918.764 601.65 924.514 605.553C930.265 609.456 937.332 612.124 944.136 610.705C950.938 609.287 956.894 602.693 955.754 595.834C955.045 591.563 951.936 588.132 948.815 585.133C941.524 578.129 933.389 572.004 924.643 566.933C938.971 571.273 955.423 567.727 966.694 557.871C970.764 554.312 974.385 549.301 973.602 543.95C972.914 539.253 969.011 535.684 964.924 533.275C953.22 526.375 938.968 525.859 925.389 525.527C936.376 521.78 942.593 508.223 938.935 497.2C935.278 486.178 922.888 479.077 911.402 480.757C899.917 482.436 890.303 492.207 888.02 503.595C883.113 492.646 874.306 482.88 862.79 479.536C851.274 476.192 837.186 480.812 832.001 491.632C830.654 494.443 829.926 497.639 830.484 500.707C831.529 506.463 836.647 510.446 841.393 513.862C846.045 517.211 850.697 520.559 855.349 523.908C840.913 519.948 824.842 522.403 812.244 530.494C806.194 534.379 800.795 539.717 798.314 546.467C795.833 553.218 796.781 561.501 801.866 566.586C806.569 571.288 813.672 572.495 820.304 572.96C831.023 573.713 841.832 573.156 852.416 571.304C842.097 576.516 832.276 582.716 823.131 589.792C819.377 592.697 815.541 596.041 814.272 600.617C812.561 606.788 816.315 613.526 821.779 616.861C827.244 620.197 833.986 620.714 840.365 620.188C857.163 618.801 873.287 610.507 884.188 597.644" fill="#FAD9FF"/><g id="Bubble 1"><path id="Fill 16" fill-rule="evenodd" clip-rule="evenodd" d="M699.092 466.828L644.041 525.299V466.828H628.664C592.316 466.828 562.854 437.447 562.854 401.195V279.4C562.854 243.16 592.316 213.779 628.664 213.779H870.643C906.99 213.779 936.453 243.16 936.453 279.4V401.195C936.453 437.447 906.99 466.828 870.643 466.828H699.092Z" fill="#FED21C"/><path id="Fill 18" fill-rule="evenodd" clip-rule="evenodd" d="M682.118 344.231C682.118 331.428 671.751 321.054 658.955 321.054C646.164 321.054 635.797 331.428 635.797 344.231C635.797 357.03 646.164 367.403 658.955 367.403C671.751 367.403 682.118 357.03 682.118 344.231" fill="white"/><path id="Fill 20" fill-rule="evenodd" clip-rule="evenodd" d="M774.759 344.231C774.759 331.428 764.388 321.054 751.598 321.054C738.808 321.054 728.438 331.428 728.438 344.231C728.438 357.03 738.808 367.403 751.598 367.403C764.388 367.403 774.759 357.03 774.759 344.231" fill="white"/><path id="Fill 22" fill-rule="evenodd" clip-rule="evenodd" d="M867.401 344.231C867.401 331.428 857.031 321.054 844.241 321.054C831.451 321.054 821.08 331.428 821.08 344.231C821.08 357.03 831.451 367.403 844.241 367.403C857.031 367.403 867.401 357.03 867.401 344.231" fill="white"/></g><g id="Group 515"><g id="Dialogue Box 1" transform="translate(216.994 393.78) scale(2.00206833250785 2.0032702729902194)"><g id="Dialogue Box 1/Periwinkle Bubble"><path id="Fill 1" fill-rule="evenodd" clip-rule="evenodd" d="M3 57.1119C3 62.4009 7.099 66.7219 12.291 67.0989C12.293 67.1539 12.294 67.2089 12.295 67.2629C7.481 67.9959 3.789 72.1419 3.789 77.1609C3.789 82.6989 8.277 87.1869 13.814 87.1869C14.829 87.1869 15.808 87.0329 16.732 86.7519C13.653 88.4629 11.568 91.7449 11.568 95.5169C11.568 101.054 16.057 105.542 21.593 105.542C24.101 105.542 26.387 104.616 28.145 103.094C28.177 103.125 28.21 103.156 28.242 103.187C26.748 104.938 25.841 107.205 25.841 109.688C25.841 115.224 30.329 119.712 35.866 119.712C39.54 119.712 42.744 117.73 44.489 114.782C44.28 115.587 44.158 116.428 44.158 117.299C44.158 122.835 48.647 127.324 54.183 127.324C59.359 127.324 63.617 123.401 64.15 118.366C64.173 118.367 64.196 118.367 64.219 118.368C64.333 123.806 68.768 128.181 74.233 128.181C79.688 128.181 84.115 123.823 84.246 118.4H84.289C84.277 118.604 84.258 118.806 84.258 119.014C84.258 124.55 88.747 129.038 94.283 129.038C99.82 129.038 104.309 124.55 104.309 119.014C104.309 118.806 104.29 118.604 104.277 118.4H104.428C104.357 118.881 104.309 119.37 104.309 119.871C104.309 125.408 108.797 129.896 114.334 129.896C119.87 129.896 124.358 125.408 124.358 119.871C124.358 119.37 124.31 118.881 124.239 118.4H124.39C124.378 118.604 124.358 118.806 124.358 119.014C124.358 124.55 128.847 129.038 134.384 129.038C139.92 129.038 144.409 124.55 144.409 119.014C144.409 118.12 144.28 117.256 144.061 116.431C145.607 119.972 149.136 122.45 153.248 122.45C158.784 122.45 163.273 117.96 163.273 112.424C163.273 110.547 162.747 108.796 161.849 107.294C163.662 109.101 166.163 110.218 168.924 110.218C174.461 110.218 178.949 105.73 178.949 100.193C178.949 96.8569 177.313 93.9099 174.806 92.0869C176.07 92.6619 177.47 92.9909 178.949 92.9909C184.486 92.9909 188.974 88.5019 188.974 82.9659C188.974 78.4769 186.022 74.6829 181.955 73.4059L205.347 63.4399L181.558 52.4289C184.844 50.7849 187.105 47.3949 187.105 43.4699C187.105 37.9329 182.616 33.4449 177.079 33.4449C175.307 33.4449 173.644 33.9099 172.199 34.7159C174.316 32.8779 175.661 30.1729 175.661 27.1499C175.661 21.6129 171.173 17.1239 165.636 17.1239C163.027 17.1239 160.658 18.1299 158.875 19.7639C159.176 18.8089 159.341 17.7929 159.341 16.7389C159.341 11.2019 154.853 6.7129 149.316 6.7129C145.651 6.7129 142.455 8.6869 140.706 11.6219C140.493 6.2739 136.102 1.9989 130.701 1.9989C125.208 1.9989 120.752 6.4189 120.683 11.8969H120.67C120.601 6.4189 116.145 1.9989 110.651 1.9989C105.158 1.9989 100.702 6.4189 100.632 11.8969H100.62C100.55 6.4189 96.094 1.9989 90.601 1.9989C85.107 1.9989 80.652 6.4189 80.583 11.8969H80.569C80.5 6.4189 76.044 1.9989 70.551 1.9989C65.014 1.9989 60.525 6.4879 60.525 12.0249C60.525 12.0619 60.531 12.0979 60.531 12.1349C60.446 12.1429 60.359 12.1459 60.274 12.1549C59.268 7.6809 55.278 4.3359 50.501 4.3359C44.964 4.3359 40.476 8.8249 40.476 14.3609C40.476 15.5779 40.703 16.7379 41.1 17.8169C41.071 17.8309 41.042 17.8459 41.014 17.8619C39.251 14.9889 36.09 13.0669 32.473 13.0669C26.936 13.0669 22.448 17.5549 22.448 23.0919C22.448 25.8499 23.563 28.3459 25.364 30.1589C23.707 28.9469 21.67 28.2219 19.458 28.2219C13.921 28.2219 9.433 32.7099 9.433 38.2459C9.433 42.2879 11.83 45.7629 15.276 47.3489C14.551 47.1829 13.8 47.0859 13.025 47.0859C7.488 47.0859 3 51.5749 3 57.1119" fill="#96A5D4"/></g></g><path id="Fill 18_2" fill-rule="evenodd" clip-rule="evenodd" d="M346.903 525.444C346.903 512.64 336.536 502.267 323.74 502.267C310.949 502.267 300.582 512.64 300.582 525.444C300.582 538.243 310.949 548.616 323.74 548.616C336.536 548.616 346.903 538.243 346.903 525.444" fill="white"/><path id="Fill 20_2" fill-rule="evenodd" clip-rule="evenodd" d="M439.544 525.444C439.544 512.64 429.173 502.267 416.383 502.267C403.593 502.267 393.223 512.64 393.223 525.444C393.223 538.243 403.593 548.616 416.383 548.616C429.173 548.616 439.544 538.243 439.544 525.444" fill="white"/><path id="Fill 22_2" fill-rule="evenodd" clip-rule="evenodd" d="M532.186 525.444C532.186 512.64 521.816 502.267 509.026 502.267C496.236 502.267 485.865 512.64 485.865 525.444C485.865 538.243 496.236 548.616 509.026 548.616C521.816 548.616 532.186 538.243 532.186 525.444" fill="white"/></g><g id="Group 3"><path id="Fill 1_2" fill-rule="evenodd" clip-rule="evenodd" d="M236.381 200.851V200.851C236.381 257.98 282.662 304.289 339.754 304.289H461.721C464.169 304.289 466.536 305.162 468.399 306.748L509.328 341.645C516.011 347.343 526.297 342.592 526.297 333.806V314.589C526.297 308.901 530.906 304.289 536.591 304.289H558.429C615.522 304.289 661.806 257.98 661.806 200.851C661.806 143.722 615.522 97.4126 558.429 97.4126H339.754C282.662 97.4126 236.381 143.722 236.381 200.851" fill="#FFB0E4"/></g><path id="Fill 52" fill-rule="evenodd" clip-rule="evenodd" d="M379.007 207.864C379.007 195.06 368.64 184.687 355.844 184.687C343.053 184.687 332.686 195.06 332.686 207.864C332.686 220.663 343.053 231.036 355.844 231.036C368.64 231.036 379.007 220.663 379.007 207.864" fill="white"/><path id="Fill 53" fill-rule="evenodd" clip-rule="evenodd" d="M471.649 207.864C471.649 195.06 461.279 184.687 448.489 184.687C435.699 184.687 425.328 195.06 425.328 207.864C425.328 220.663 435.699 231.036 448.489 231.036C461.279 231.036 471.649 220.663 471.649 207.864" fill="white"/><path id="Fill 54" fill-rule="evenodd" clip-rule="evenodd" d="M564.292 207.864C564.292 195.06 553.921 184.687 541.131 184.687C528.341 184.687 517.971 195.06 517.971 207.864C517.971 220.663 528.341 231.036 541.131 231.036C553.921 231.036 564.292 220.663 564.292 207.864" fill="white"/></g></g></svg>