<svg viewBox="306.76250000000005 105.23722627737232 453.4749999999998 466.2408759124088" fill="none" xmlns="http://www.w3.org/2000/svg" xmlns:xlink="http://www.w3.org/1999/xlink" overflow="visible" width="453.4749999999998px" height="466.2408759124088px"><g id="Master/Stickers/Pizza"><g id="Group 88"><g id="Group 3"><path id="Fill 1" fill-rule="evenodd" clip-rule="evenodd" d="M532.382 111.872C408.71 111.872 308.453 212.189 308.453 335.935C308.453 459.683 408.71 559.998 532.382 559.998C656.055 559.998 756.31 459.683 756.31 335.935C756.31 212.189 656.055 111.872 532.382 111.872" fill="#3A3E5B"/></g><path id="Fill 4" fill-rule="evenodd" clip-rule="evenodd" d="M666.567 201.191L533.318 342.311V146.423C533.318 140.425 528.258 135.691 522.261 136.016C415.522 141.799 330.949 230.812 332.459 339.214C333.964 447.28 422.264 535.476 530.458 536.98C642.711 538.541 734.198 448.12 734.198 336.358C734.198 284.364 714.39 236.994 681.906 201.351C677.807 196.854 670.747 196.766 666.567 201.191" fill="#F9A471"/><path id="Fill 6" fill-rule="evenodd" clip-rule="evenodd" d="M666.457 200.547L543.85 330.772C540.066 334.792 533.316 332.113 533.316 326.591V146C427.546 146 341.973 232.532 343.45 338.707C344.873 441.039 428.34 524.555 530.611 525.981C636.721 527.459 723.204 441.835 723.204 336C723.204 282.966 701.477 235.013 666.457 200.547" fill="#F06647"/><path id="Fill 8" fill-rule="evenodd" clip-rule="evenodd" d="M646.784 301C646.784 301 629.262 307.846 629.262 328.854C629.262 349.862 646.784 356 646.784 356C646.784 356 665.24 349.391 665.24 328.5C665.24 307.609 646.784 301 646.784 301" fill="#4FA480"/><path id="Fill 10" fill-rule="evenodd" clip-rule="evenodd" d="M560.303 375.548C560.303 375.548 548.073 360.968 528.223 367.842C508.372 374.719 508.334 393.546 508.334 393.546C508.334 393.546 520.648 409.1 540.388 402.263C560.128 395.428 560.303 375.548 560.303 375.548" fill="#4FA480"/><path id="Fill 12" fill-rule="evenodd" clip-rule="evenodd" d="M463.328 328.207C463.328 328.207 464.915 309.399 446.254 300.241C427.592 291.086 414.472 304.234 414.472 304.234C414.472 304.234 412.266 323.784 430.822 332.89C449.38 341.996 463.328 328.207 463.328 328.207" fill="#4FA480"/><path id="Fill 14" fill-rule="evenodd" clip-rule="evenodd" d="M505.787 243C505.787 243 520.359 230.763 513.487 210.9C506.618 191.038 487.8 191 487.8 191C487.8 191 472.254 203.322 479.087 223.073C485.918 242.823 505.787 243 505.787 243" fill="#4FA480"/><path id="Fill 16" fill-rule="evenodd" clip-rule="evenodd" d="M663.693 451C663.693 451 678.265 438.763 671.394 418.9C664.524 399.038 645.706 399 645.706 399C645.706 399 630.161 411.322 636.994 431.073C643.825 450.823 663.693 451 663.693 451" fill="#4FA480"/><path id="Fill 18" fill-rule="evenodd" clip-rule="evenodd" d="M470.303 466.521C470.303 466.521 472.172 447.811 453.528 438.422C434.885 429.033 421.498 441.941 421.498 441.941C421.498 441.941 418.996 461.378 437.535 470.715C456.071 480.05 470.303 466.521 470.303 466.521" fill="#4FA480"/><path id="Fill 20" fill-rule="evenodd" clip-rule="evenodd" d="M681.229 376.501C681.229 385.063 674.295 392 665.738 392C657.183 392 650.248 385.063 650.248 376.501C650.248 367.939 657.183 361 665.738 361C674.295 361 681.229 367.939 681.229 376.501" fill="#E9BE50"/><path id="Fill 22" fill-rule="evenodd" clip-rule="evenodd" d="M576.292 403.499C576.292 412.061 569.357 419 560.801 419C552.247 419 545.311 412.061 545.311 403.499C545.311 394.939 552.247 388 560.801 388C569.357 388 576.292 394.939 576.292 403.499" fill="#E9BE50"/><path id="Fill 24" fill-rule="evenodd" clip-rule="evenodd" d="M636.257 288.499C636.257 297.061 629.322 304 620.765 304C612.21 304 605.275 297.061 605.275 288.499C605.275 279.939 612.21 273 620.765 273C629.322 273 636.257 279.939 636.257 288.499" fill="#E9BE50"/><path id="Fill 26" fill-rule="evenodd" clip-rule="evenodd" d="M475.353 263.501C475.353 272.061 468.418 279 459.862 279C451.308 279 444.371 272.061 444.371 263.501C444.371 254.939 451.308 248 459.862 248C468.418 248 475.353 254.939 475.353 263.501" fill="#E9BE50"/><path id="Fill 28" fill-rule="evenodd" clip-rule="evenodd" d="M424.384 316.499C424.384 325.061 417.449 332 408.892 332C400.337 332 393.402 325.061 393.402 316.499C393.402 307.939 400.337 301 408.892 301C417.449 301 424.384 307.939 424.384 316.499" fill="#E9BE50"/><path id="Fill 30" fill-rule="evenodd" clip-rule="evenodd" d="M460.362 419.499C460.362 428.061 453.426 435 444.872 435C436.317 435 429.381 428.061 429.381 419.499C429.381 410.939 436.317 404 444.872 404C453.426 404 460.362 410.939 460.362 419.499" fill="#E9BE50"/><path id="Fill 32" fill-rule="evenodd" clip-rule="evenodd" d="M405.395 419.499C405.395 428.061 398.461 435 389.904 435C381.349 435 374.414 428.061 374.414 419.499C374.414 410.939 381.349 404 389.904 404C398.461 404 405.395 410.939 405.395 419.499" fill="#E9BE50"/><path id="Fill 34" fill-rule="evenodd" clip-rule="evenodd" d="M509.333 490.499C509.333 499.061 502.398 506 493.841 506C485.286 506 478.352 499.061 478.352 490.499C478.352 481.939 485.286 475 493.841 475C502.398 475 509.333 481.939 509.333 490.499" fill="#E9BE50"/><path id="Fill 36" fill-rule="evenodd" clip-rule="evenodd" d="M459.362 241.5C459.362 255.583 447.952 267 433.877 267C419.803 267 408.393 255.583 408.393 241.5C408.393 227.417 419.803 216 433.877 216C447.952 216 459.362 227.417 459.362 241.5" fill="white"/><path id="Fill 38" fill-rule="evenodd" clip-rule="evenodd" d="M530.321 319.501C530.321 333.583 518.911 345 504.836 345C490.762 345 479.352 333.583 479.352 319.501C479.352 305.419 490.762 294 504.836 294C518.911 294 530.321 305.419 530.321 319.501" fill="white"/><path id="Fill 40" fill-rule="evenodd" clip-rule="evenodd" d="M434.378 380.501C434.378 394.583 422.967 406 408.893 406C394.819 406 383.408 394.583 383.408 380.501C383.408 366.419 394.819 355 408.893 355C422.967 355 434.378 366.419 434.378 380.501" fill="white"/><path id="Fill 42" fill-rule="evenodd" clip-rule="evenodd" d="M589.284 461.5C589.284 475.583 577.874 487 563.799 487C549.725 487 538.314 475.583 538.314 461.5C538.314 447.417 549.725 436 563.799 436C577.874 436 589.284 447.417 589.284 461.5" fill="white"/><path id="Fill 44" fill-rule="evenodd" clip-rule="evenodd" d="M714.209 362.001C714.209 373.599 704.813 383 693.221 383C681.63 383 672.234 373.599 672.234 362.001C672.234 350.401 681.63 341 693.221 341C704.813 341 714.209 350.401 714.209 362.001" fill="white"/><path id="Fill 46" fill-rule="evenodd" clip-rule="evenodd" d="M673.234 248.501C673.234 259.271 664.51 268 653.747 268C642.984 268 634.258 259.271 634.258 248.501C634.258 237.729 642.984 229 653.747 229C664.51 229 673.234 237.729 673.234 248.501" fill="white"/><path id="Fill 48" fill-rule="evenodd" clip-rule="evenodd" d="M701.717 301.625C697.785 301.625 694.596 298.436 694.596 294.501C694.596 290.566 697.785 287.377 701.717 287.377C705.65 287.377 708.836 290.566 708.836 294.501C708.836 298.436 705.65 301.625 701.717 301.625M701.717 279C693.161 279 686.227 285.939 686.227 294.501C686.227 303.062 693.161 310 701.717 310C710.273 310 717.208 303.062 717.208 294.501C717.208 285.939 710.273 279 701.717 279" fill="#3A3E5B"/><path id="Fill 50" fill-rule="evenodd" clip-rule="evenodd" d="M652.747 283.625C648.814 283.625 645.626 280.436 645.626 276.501C645.626 272.566 648.814 269.377 652.747 269.377C656.679 269.377 659.866 272.566 659.866 276.501C659.866 280.436 656.679 283.625 652.747 283.625M652.747 261C644.191 261 637.256 267.939 637.256 276.501C637.256 285.062 644.191 292 652.747 292C661.302 292 668.237 285.062 668.237 276.501C668.237 267.939 661.302 261 652.747 261" fill="#3A3E5B"/><path id="Fill 52" fill-rule="evenodd" clip-rule="evenodd" d="M595.782 326.625C591.849 326.625 588.661 323.437 588.661 319.5C588.661 315.567 591.849 312.377 595.782 312.377C599.714 312.377 602.901 315.567 602.901 319.5C602.901 323.437 599.714 326.625 595.782 326.625M595.782 304C587.226 304 580.291 310.941 580.291 319.5C580.291 328.063 587.226 335 595.782 335C604.338 335 611.272 328.063 611.272 319.5C611.272 310.941 604.338 304 595.782 304" fill="#3A3E5B"/><path id="Fill 54" fill-rule="evenodd" clip-rule="evenodd" d="M604.776 416.625C600.843 416.625 597.655 413.436 597.655 409.501C597.655 405.566 600.843 402.377 604.776 402.377C608.708 402.377 611.895 405.566 611.895 409.501C611.895 413.436 608.708 416.625 604.776 416.625M604.776 394C596.22 394 589.285 400.939 589.285 409.501C589.285 418.062 596.22 425 604.776 425C613.332 425 620.267 418.062 620.267 409.501C620.267 400.939 613.332 394 604.776 394" fill="#3A3E5B"/><path id="Fill 56" fill-rule="evenodd" clip-rule="evenodd" d="M549.809 504.625C545.877 504.625 542.688 501.437 542.688 497.5C542.688 493.567 545.877 490.377 549.809 490.377C553.742 490.377 556.928 493.567 556.928 497.5C556.928 501.437 553.742 504.625 549.809 504.625M549.809 482C541.253 482 534.318 488.941 534.318 497.5C534.318 506.063 541.253 513 549.809 513C558.365 513 565.3 506.063 565.3 497.5C565.3 488.941 558.365 482 549.809 482" fill="#3A3E5B"/><path id="Fill 58" fill-rule="evenodd" clip-rule="evenodd" d="M496.84 439.625C492.908 439.625 489.719 436.437 489.719 432.5C489.719 428.567 492.908 425.377 496.84 425.377C500.773 425.377 503.959 428.567 503.959 432.5C503.959 436.437 500.773 439.625 496.84 439.625M496.84 417C488.285 417 481.35 423.941 481.35 432.5C481.35 441.063 488.285 448 496.84 448C505.396 448 512.331 441.063 512.331 432.5C512.331 423.941 505.396 417 496.84 417" fill="#3A3E5B"/><path id="Fill 60" fill-rule="evenodd" clip-rule="evenodd" d="M493.842 359.625C489.91 359.625 486.721 356.436 486.721 352.501C486.721 348.566 489.91 345.377 493.842 345.377C497.775 345.377 500.961 348.566 500.961 352.501C500.961 356.436 497.775 359.625 493.842 359.625M493.842 337C485.286 337 478.352 343.939 478.352 352.501C478.352 361.062 485.286 368 493.842 368C502.398 368 509.333 361.062 509.333 352.501C509.333 343.939 502.398 337 493.842 337" fill="#3A3E5B"/><path id="Fill 62" fill-rule="evenodd" clip-rule="evenodd" d="M364.92 342.625C360.988 342.625 357.799 339.437 357.799 335.5C357.799 331.567 360.988 328.377 364.92 328.377C368.853 328.377 372.039 331.567 372.039 335.5C372.039 339.437 368.853 342.625 364.92 342.625M364.92 320C356.365 320 349.43 326.941 349.43 335.5C349.43 344.063 356.365 351 364.92 351C373.476 351 380.411 344.063 380.411 335.5C380.411 326.941 373.476 320 364.92 320" fill="#3A3E5B"/><path id="Fill 64" fill-rule="evenodd" clip-rule="evenodd" d="M482.848 264.625C478.916 264.625 475.727 261.437 475.727 257.5C475.727 253.567 478.916 250.377 482.848 250.377C486.781 250.377 489.967 253.567 489.967 257.5C489.967 261.437 486.781 264.625 482.848 264.625M482.848 242C474.292 242 467.357 248.941 467.357 257.5C467.357 266.063 474.292 273 482.848 273C491.404 273 498.339 266.063 498.339 257.5C498.339 248.941 491.404 242 482.848 242" fill="#3A3E5B"/><path id="Fill 66" fill-rule="evenodd" clip-rule="evenodd" d="M470.856 185.625C466.923 185.625 463.735 182.436 463.735 178.501C463.735 174.566 466.923 171.377 470.856 171.377C474.788 171.377 477.975 174.566 477.975 178.501C477.975 182.436 474.788 185.625 470.856 185.625M470.856 163C462.3 163 455.365 169.939 455.365 178.501C455.365 187.062 462.3 194 470.856 194C479.412 194 486.347 187.062 486.347 178.501C486.347 169.939 479.412 163 470.856 163" fill="#3A3E5B"/><path id="Fill 68" fill-rule="evenodd" clip-rule="evenodd" d="M477.351 387.5C477.351 393.85 472.207 399 465.858 399C459.51 399 454.365 393.85 454.365 387.5C454.365 381.15 459.51 376 465.858 376C472.207 376 477.351 381.15 477.351 387.5" fill="white"/><path id="Fill 70" fill-rule="evenodd" clip-rule="evenodd" d="M612.599 341.784C614.098 335.614 620.314 331.828 626.479 333.328C632.647 334.827 636.429 341.047 634.93 347.217C633.429 353.388 627.215 357.174 621.05 355.671C614.882 354.171 611.101 347.953 612.599 341.784" fill="white"/><path id="Fill 72" fill-rule="evenodd" clip-rule="evenodd" d="M505.664 181.784C507.162 175.614 513.376 171.828 519.544 173.328C525.709 174.827 529.493 181.047 527.994 187.217C526.494 193.388 520.28 197.174 514.114 195.671C507.947 194.171 504.165 187.953 505.664 181.784" fill="white"/><path id="Fill 74" fill-rule="evenodd" clip-rule="evenodd" d="M366.746 280.783C368.244 274.613 374.46 270.827 380.626 272.329C386.793 273.828 390.575 280.046 389.076 286.215C387.576 292.387 381.362 296.173 375.196 294.671C369.029 293.172 365.247 286.952 366.746 280.783" fill="white"/><path id="Fill 76" fill-rule="evenodd" clip-rule="evenodd" d="M427.554 466.583C428.337 463.365 431.579 461.389 434.796 462.171C438.013 462.955 439.986 466.198 439.205 469.417C438.423 472.635 435.179 474.611 431.962 473.829C428.745 473.045 426.772 469.802 427.554 466.583" fill="white"/><path id="Fill 78" fill-rule="evenodd" clip-rule="evenodd" d="M448.541 354.583C449.322 351.365 452.566 349.389 455.783 350.171C459 350.955 460.972 354.198 460.191 357.417C459.408 360.635 456.166 362.611 452.949 361.829C449.732 361.045 447.757 357.8 448.541 354.583" fill="white"/><path id="Fill 80" fill-rule="evenodd" clip-rule="evenodd" d="M674.406 318.583C675.187 315.364 678.431 313.388 681.648 314.172C684.865 314.955 686.838 318.199 686.056 321.418C685.273 324.637 682.031 326.611 678.814 325.829C675.597 325.045 673.623 321.801 674.406 318.583" fill="white"/><path id="Fill 82" fill-rule="evenodd" clip-rule="evenodd" d="M589.456 373.583C590.239 370.365 593.482 368.389 596.699 369.171C599.916 369.955 601.889 373.2 601.107 376.417C600.326 379.635 597.082 381.611 593.865 380.829C590.648 380.045 588.675 376.802 589.456 373.583" fill="white"/><path id="Fill 84" fill-rule="evenodd" clip-rule="evenodd" d="M605.447 466.583C606.228 463.365 609.472 461.389 612.689 462.171C615.906 462.955 617.879 466.198 617.097 469.417C616.314 472.635 613.072 474.611 609.855 473.829C606.638 473.045 604.664 469.802 605.447 466.583" fill="white"/><path id="Fill 86" fill-rule="evenodd" clip-rule="evenodd" d="M433.55 199.582C434.333 196.363 437.575 194.389 440.792 195.171C444.009 195.955 445.982 199.199 445.201 202.417C444.419 205.636 441.177 207.612 437.958 206.828C434.741 206.045 432.768 202.801 433.55 199.582" fill="white"/></g></g></svg>