<svg viewBox="386.42499999999995 145.20072992700727 293.15000000000026 452.9197080291971" fill="none" xmlns="http://www.w3.org/2000/svg" xmlns:xlink="http://www.w3.org/1999/xlink" overflow="visible" width="293.15000000000026px" height="452.9197080291971px"><g id="Master/Stickers/Flowering Cactus"><g id="Group 55"><path id="Fill 1" fill-rule="evenodd" clip-rule="evenodd" d="M447.73 366H668.598L635.74 482H480.592L447.73 366Z" fill="#E0BFDB"/><g id="Group 54"><path id="Fill 2" fill-rule="evenodd" clip-rule="evenodd" d="M507.23 340.687C507.23 354.99 495.639 366.584 481.34 366.584C467.044 366.584 455.453 354.99 455.453 340.687C455.453 326.387 467.044 314.794 481.34 314.794C495.639 314.794 507.23 326.387 507.23 340.687" fill="#00AFA9"/><path id="Fill 4" fill-rule="evenodd" clip-rule="evenodd" d="M455.45 340.687C455.45 354.99 443.86 366.584 429.56 366.584C415.264 366.584 403.674 354.99 403.674 340.687C403.674 326.387 415.264 314.794 429.56 314.794C443.86 314.794 455.45 326.387 455.45 340.687" fill="#00AFA9"/><path id="Fill 6" fill-rule="evenodd" clip-rule="evenodd" d="M455.45 392.481C455.45 406.78 443.86 418.374 429.56 418.374C415.264 418.374 403.674 406.78 403.674 392.481C403.674 378.178 415.264 366.584 429.56 366.584C443.86 366.584 455.45 378.178 455.45 392.481" fill="#00AFA9"/><path id="Fill 8" fill-rule="evenodd" clip-rule="evenodd" d="M455.45 444.271C455.45 458.574 443.86 470.167 429.56 470.167C415.264 470.167 403.674 458.574 403.674 444.271C403.674 429.968 415.264 418.374 429.56 418.374C443.86 418.374 455.45 429.968 455.45 444.271" fill="#00AFA9"/><path id="Fill 10" fill-rule="evenodd" clip-rule="evenodd" d="M455.45 496.061C455.45 510.364 443.86 521.957 429.56 521.957C415.264 521.957 403.674 510.364 403.674 496.061C403.674 481.761 415.264 470.167 429.56 470.167C443.86 470.167 455.45 481.761 455.45 496.061" fill="#00AFA9"/><g id="Group 14"><path id="Fill 12" fill-rule="evenodd" clip-rule="evenodd" d="M434.821 509.763V509.763C439.274 505.666 446.497 508.012 447.692 513.946C448.488 517.905 452.186 520.594 456.199 520.131C462.211 519.43 466.674 525.574 464.154 531.079V531.082C462.469 534.753 463.883 539.104 467.402 541.086C472.676 544.053 472.676 551.649 467.402 554.623C463.883 556.604 462.469 560.952 464.154 564.626C466.674 570.128 462.211 576.275 456.199 575.574C452.186 575.107 448.488 577.8 447.692 581.759C446.497 587.693 439.274 590.042 434.821 585.942C431.847 583.205 427.278 583.205 424.305 585.942C419.852 590.042 412.628 587.693 411.433 581.759C410.637 577.8 406.939 575.107 402.926 575.574C396.914 576.275 392.451 570.128 394.971 564.626C396.653 560.952 395.242 556.604 391.723 554.623C386.446 551.649 386.446 544.053 391.723 541.086C395.242 539.104 396.653 534.753 394.971 531.082V531.079C392.451 525.574 396.914 519.43 402.926 520.131C406.939 520.594 410.637 517.905 411.433 513.946C412.628 508.012 419.852 505.666 424.305 509.763C427.278 512.5 431.847 512.5 434.821 509.763" fill="#5473B8"/></g><path id="Fill 15" fill-rule="evenodd" clip-rule="evenodd" d="M455.45 547.854C455.45 562.153 443.86 573.747 429.56 573.747C415.264 573.747 403.674 562.153 403.674 547.854C403.674 533.551 415.264 521.957 429.56 521.957C443.86 521.957 455.45 533.551 455.45 547.854" fill="#F9A471"/><path id="Fill 17" fill-rule="evenodd" clip-rule="evenodd" d="M447.33 547.854C447.33 557.668 439.376 565.625 429.563 565.625C419.748 565.625 411.793 557.668 411.793 547.854C411.793 538.039 419.748 530.079 429.563 530.079C439.376 530.079 447.33 538.039 447.33 547.854" fill="#F06647"/><path id="Fill 19" fill-rule="evenodd" clip-rule="evenodd" d="M559.007 340.687C559.007 354.99 547.416 366.584 533.117 366.584C518.821 366.584 507.23 354.99 507.23 340.687C507.23 326.387 518.821 314.794 533.117 314.794C547.416 314.794 559.007 326.387 559.007 340.687" fill="#00AFA9"/><path id="Fill 21" fill-rule="evenodd" clip-rule="evenodd" d="M559.007 288.897C559.007 303.197 547.416 314.794 533.117 314.794C518.821 314.794 507.23 303.197 507.23 288.897C507.23 274.594 518.821 263 533.117 263C547.416 263 559.007 274.594 559.007 288.897" fill="#00AFA9"/><path id="Fill 23" fill-rule="evenodd" clip-rule="evenodd" d="M559.007 237.107C559.007 251.407 547.416 263 533.117 263C518.821 263 507.23 251.407 507.23 237.107C507.23 222.804 518.821 211.21 533.117 211.21C547.416 211.21 559.007 222.804 559.007 237.107" fill="#00AFA9"/><path id="Fill 25" fill-rule="evenodd" clip-rule="evenodd" d="M507.23 237.107C507.23 251.407 495.639 263 481.34 263C467.044 263 455.453 251.407 455.453 237.107C455.453 222.804 467.044 211.21 481.34 211.21C495.639 211.21 507.23 222.804 507.23 237.107" fill="#00AFA9"/><path id="Fill 27" fill-rule="evenodd" clip-rule="evenodd" d="M455.45 237.107C455.45 251.407 443.86 263 429.56 263C415.264 263 403.674 251.407 403.674 237.107C403.674 222.804 415.264 211.21 429.56 211.21C443.86 211.21 455.45 222.804 455.45 237.107" fill="#00AFA9"/><g id="Group 31"><path id="Fill 29" fill-rule="evenodd" clip-rule="evenodd" d="M434.821 147.227V147.227C439.274 143.127 446.497 145.472 447.692 151.41C448.488 155.369 452.186 158.055 456.199 157.594C462.211 156.89 466.674 163.038 464.154 168.542C462.469 172.213 463.883 176.564 467.402 178.546C472.676 181.516 472.676 189.113 467.402 192.083C463.883 194.065 462.469 198.412 464.154 202.087C466.674 207.588 462.211 213.735 456.199 213.038C452.186 212.571 448.488 215.26 447.692 219.22C446.497 225.154 439.274 227.503 434.821 223.406C431.847 220.669 427.278 220.669 424.305 223.406C419.852 227.503 412.628 225.154 411.433 219.22C410.637 215.26 406.939 212.571 402.926 213.038C396.914 213.735 392.451 207.588 394.971 202.087C396.653 198.412 395.242 194.065 391.723 192.083C386.446 189.113 386.446 181.516 391.723 178.546C395.242 176.564 396.653 172.213 394.971 168.542C392.451 163.038 396.914 156.89 402.926 157.594C406.939 158.055 410.637 155.369 411.433 151.41C412.628 145.472 419.852 143.127 424.305 147.227C427.278 149.96 431.847 149.96 434.821 147.227" fill="#5473B8"/></g><path id="Fill 32" fill-rule="evenodd" clip-rule="evenodd" d="M455.45 185.314C455.45 199.617 443.86 211.211 429.56 211.211C415.264 211.211 403.674 199.617 403.674 185.314C403.674 171.014 415.264 159.417 429.56 159.417C443.86 159.417 455.45 171.014 455.45 185.314" fill="#F9A471"/><path id="Fill 34" fill-rule="evenodd" clip-rule="evenodd" d="M447.33 185.314C447.33 195.129 439.376 203.089 429.563 203.089C419.748 203.089 411.793 195.129 411.793 185.314C411.793 175.499 419.748 167.539 429.563 167.539C439.376 167.539 447.33 175.499 447.33 185.314" fill="#F06647"/><path id="Fill 36" fill-rule="evenodd" clip-rule="evenodd" d="M610.786 340.687C610.786 354.99 599.196 366.584 584.896 366.584C570.6 366.584 559.01 354.99 559.01 340.687C559.01 326.387 570.6 314.794 584.896 314.794C599.196 314.794 610.786 326.387 610.786 340.687" fill="#00AFA9"/><path id="Fill 38" fill-rule="evenodd" clip-rule="evenodd" d="M610.786 392.481C610.786 406.78 599.196 418.374 584.896 418.374C570.6 418.374 559.01 406.78 559.01 392.481C559.01 378.178 570.6 366.584 584.896 366.584C599.196 366.584 610.786 378.178 610.786 392.481" fill="#00AFA9"/><path id="Fill 40" fill-rule="evenodd" clip-rule="evenodd" d="M662.564 340.687C662.564 354.99 650.973 366.584 636.674 366.584C622.378 366.584 610.787 354.99 610.787 340.687C610.787 326.387 622.378 314.794 636.674 314.794C650.973 314.794 662.564 326.387 662.564 340.687" fill="#00AFA9"/><path id="Fill 42" fill-rule="evenodd" clip-rule="evenodd" d="M641.774 250.807V250.807C646.227 246.71 653.45 249.056 654.645 254.993C655.442 258.953 659.139 261.638 663.153 261.174C669.164 260.474 673.627 266.621 671.107 272.126C669.422 275.797 670.836 280.148 674.355 282.129C679.629 285.096 679.629 292.693 674.355 295.667C670.836 297.648 669.422 301.996 671.107 305.67C673.627 311.172 669.164 317.319 663.153 316.618C659.139 316.155 655.442 318.843 654.645 322.803C653.45 328.737 646.227 331.086 641.774 326.986C638.801 324.252 634.228 324.252 631.258 326.986C626.805 331.086 619.581 328.737 618.387 322.803C617.59 318.843 613.893 316.155 609.879 316.618C603.867 317.319 599.404 311.172 601.924 305.67C603.607 301.996 602.195 297.648 598.676 295.667C593.4 292.693 593.4 285.096 598.676 282.129C602.195 280.148 603.607 275.797 601.924 272.126C599.404 266.621 603.867 260.474 609.879 261.174C613.893 261.638 617.59 258.953 618.387 254.993C619.581 249.056 626.805 246.71 631.258 250.807C634.228 253.544 638.801 253.544 641.774 250.807" fill="#5473B8"/><path id="Fill 44" fill-rule="evenodd" clip-rule="evenodd" d="M662.406 288.897C662.406 303.197 650.815 314.794 636.515 314.794C622.22 314.794 610.629 303.197 610.629 288.897C610.629 274.594 622.22 263 636.515 263C650.815 263 662.406 274.594 662.406 288.897" fill="#F9A471"/><path id="Fill 46" fill-rule="evenodd" clip-rule="evenodd" d="M654.285 288.897C654.285 298.712 646.331 306.672 636.515 306.672C626.703 306.672 618.748 298.712 618.748 288.897C618.748 279.082 626.703 271.122 636.515 271.122C646.331 271.122 654.285 279.082 654.285 288.897" fill="#F06647"/><path id="Fill 48" fill-rule="evenodd" clip-rule="evenodd" d="M590.155 406.18V406.18C594.608 402.083 601.831 404.429 603.026 410.366C603.822 414.326 607.52 417.011 611.533 416.548C617.545 415.847 622.008 421.994 619.488 427.499C617.802 431.17 619.217 435.521 622.736 437.502C628.01 440.47 628.01 448.069 622.736 451.04C619.217 453.021 617.802 457.369 619.488 461.043C622.008 466.545 617.545 472.692 611.533 471.995C607.52 471.528 603.822 474.217 603.026 478.176C601.831 484.11 594.608 486.459 590.155 482.359C587.181 479.625 582.608 479.625 579.639 482.359C575.186 486.459 567.962 484.11 566.767 478.176C565.971 474.217 562.273 471.528 558.26 471.995C552.248 472.692 547.785 466.545 550.305 461.043C551.987 457.369 550.576 453.021 547.057 451.04C541.78 448.069 541.78 440.47 547.057 437.502C550.576 435.521 551.987 431.17 550.305 427.499C547.785 421.994 552.248 415.847 558.26 416.548C562.273 417.011 565.971 414.326 566.767 410.366C567.962 404.429 575.186 402.083 579.639 406.18C582.608 408.917 587.181 408.917 590.155 406.18" fill="#5473B8"/><path id="Fill 50" fill-rule="evenodd" clip-rule="evenodd" d="M610.786 444.271C610.786 458.574 599.196 470.167 584.896 470.167C570.6 470.167 559.01 458.574 559.01 444.271C559.01 429.968 570.6 418.374 584.896 418.374C599.196 418.374 610.786 429.968 610.786 444.271" fill="#F9A471"/><path id="Fill 52" fill-rule="evenodd" clip-rule="evenodd" d="M602.664 444.271C602.664 454.085 594.71 462.045 584.894 462.045C575.082 462.045 567.127 454.085 567.127 444.271C567.127 434.456 575.082 426.496 584.894 426.496C594.71 426.496 602.664 434.456 602.664 444.271" fill="#F06647"/></g></g></g></svg>