<svg viewBox="306.76250000000005 105.23722627737232 453.4749999999998 466.2408759124088" fill="none" xmlns="http://www.w3.org/2000/svg" xmlns:xlink="http://www.w3.org/1999/xlink" overflow="visible" width="453.4749999999998px" height="466.2408759124088px"><g id="Master/Stickers/Tacos"><g id="Group 78"><g id="Group 3"><path id="Fill 1" fill-rule="evenodd" clip-rule="evenodd" d="M532.521 111.874C408.574 111.874 308.094 212.415 308.094 336.436C308.094 460.459 408.574 560.998 532.521 560.998C656.47 560.998 756.951 460.459 756.951 336.436C756.951 212.415 656.47 111.874 532.521 111.874" fill="#101335"/></g><path id="Fill 4" fill-rule="evenodd" clip-rule="evenodd" d="M532.96 145C427.537 145 342.074 230.513 342.074 335.999C342.074 441.487 427.537 527 532.96 527C638.382 527 723.845 441.487 723.845 335.999C723.845 230.513 638.382 145 532.96 145" fill="#3A3E5B"/><path id="Fill 6" fill-rule="evenodd" clip-rule="evenodd" d="M601.602 377C647.33 331.248 647.33 257.067 601.602 211.314C561.898 171.589 500.772 166.356 455.423 195.616C444.454 202.694 442.762 218.074 451.993 227.311L601.602 377Z" fill="#F06647"/><path id="Fill 8" fill-rule="evenodd" clip-rule="evenodd" d="M610.195 377.897C618.208 385.798 630.189 389.735 641.16 387.269C652.132 384.804 661.53 375.646 663.485 364.555C664.183 360.594 664.002 356.426 665.5 352.691C668.052 346.33 675.066 342.269 676.574 335.583C678.585 326.65 669.786 318.332 670.53 309.204C670.881 304.922 673.336 300.892 672.967 296.613C672.216 287.907 660.316 282.165 662.038 273.602C662.411 271.747 663.429 270.074 663.86 268.231C665.813 259.876 655.797 253.777 653.157 245.613C651.409 240.2 652.94 233.751 649.713 229.069C644.899 222.084 633.731 224.302 626.682 219.588C620.965 215.765 618.972 208.051 613.521 203.851C606.739 198.626 596.467 200.172 589.679 194.958C584.593 191.049 582.248 183.879 576.382 181.293C569.636 178.322 561.831 182.897 554.544 181.795C545.804 180.472 539.1 171.218 530.299 172.053C521.556 172.88 516.631 183.148 508.255 185.793C500.709 188.178 491.628 183.951 484.982 188.248C478.581 192.384 477.663 202.644 470.62 205.553C468.293 206.517 465.681 206.457 463.235 207.057C454.033 209.314 449.753 222.445 455.856 229.703L610.195 377.897Z" fill="#4FA480"/><path id="Fill 10" fill-rule="evenodd" clip-rule="evenodd" d="M537.584 198.372C550.074 210.87 550.074 231.132 537.584 243.628C525.094 256.124 504.846 256.124 492.356 243.628C479.868 231.132 479.868 210.87 492.356 198.372C504.846 185.876 525.094 185.876 537.584 198.372" fill="#DD4328"/><path id="Fill 12" fill-rule="evenodd" clip-rule="evenodd" d="M605.543 208.372C618.033 220.868 618.033 241.13 605.543 253.628C593.053 266.124 572.805 266.124 560.315 253.628C547.827 241.13 547.827 220.868 560.315 208.372C572.805 195.876 593.053 195.876 605.543 208.372" fill="#DD4328"/><path id="Fill 14" fill-rule="evenodd" clip-rule="evenodd" d="M669.504 279.374C681.994 291.87 681.994 312.132 669.504 324.628C657.016 337.124 636.766 337.124 624.276 324.628C611.788 312.132 611.788 291.87 624.276 279.374C636.766 266.875 657.016 266.875 669.504 279.374" fill="#DD4328"/><path id="Fill 16" fill-rule="evenodd" clip-rule="evenodd" d="M617.24 281.681C631.345 281.065 645.449 280.448 659.553 279.832C659.884 279.818 660.238 279.794 660.497 279.591C660.884 279.292 660.898 278.735 660.875 278.254C660.589 271.889 659.749 265.549 658.362 259.324C658.277 258.944 658.182 258.548 657.933 258.244C657.348 257.535 620.221 258.522 617.02 259.259C616.139 259.463 615.232 259.775 614.643 260.448C613.738 261.482 613.855 263.012 614.037 264.362C614.837 270.286 615.911 276.172 617.256 282" fill="#FFCC37"/><path id="Fill 18" fill-rule="evenodd" clip-rule="evenodd" d="M530.961 182.711C531.692 198.275 531.872 212.304 533.719 228.382C533.768 228.812 533.891 229.262 534.195 229.568C534.602 229.981 535.248 230.005 535.827 229.999C541.159 229.951 546.488 229.61 551.783 228.978C552.608 228.879 550.178 201.937 548.157 183.581C548.096 183.029 547.831 182.458 547.353 182.18C546.99 181.969 546.541 181.99 546.122 182.016C541.088 182.342 536.054 182.671 531.02 182.999" fill="#FFCC37"/><path id="Fill 20" fill-rule="evenodd" clip-rule="evenodd" d="M670.877 339.488C655.597 338.098 641.884 336.385 625.947 336.001C625.522 335.991 625.066 336.05 624.725 336.303C624.266 336.642 624.156 337.262 624.082 337.822C623.403 342.985 623.012 348.183 622.906 353.388C622.888 354.198 649.504 355.479 667.689 355.999C668.234 356.013 668.827 355.835 669.165 355.41C669.42 355.088 669.462 354.651 669.492 354.242C669.857 349.331 670.225 344.419 670.59 339.508" fill="#FFCC37"/><path id="Fill 22" fill-rule="evenodd" clip-rule="evenodd" d="M496.14 226.611C489.862 215.871 483.077 205.366 475.821 195.163C475.497 194.706 475.12 194.209 474.621 194.051C474.114 193.892 473.662 194.137 473.271 194.378C469.054 196.953 464.836 199.528 460.619 202.103C460.367 202.26 460.101 202.433 460.025 202.741C459.928 203.139 460.186 203.606 460.432 204.014C466.826 214.551 473.221 225.09 479.614 235.628C479.94 236.165 480.332 236.758 480.893 236.943C481.525 237.152 482.05 236.744 482.481 236.368C486.095 233.206 490.463 230.92 495.272 229.665C495.874 229.506 496.524 229.337 496.844 228.818C497.166 228.295 496.906 227.297 496.24 227.082" fill="#FFCC37"/><path id="Fill 24" fill-rule="evenodd" clip-rule="evenodd" d="M616.908 369.847C627.575 377.379 638.241 384.916 648.907 392.448C649.269 392.703 649.654 392.967 650.096 392.997C650.973 393.054 651.605 392.196 652.06 391.439C655.488 385.727 658.918 380.016 662.347 374.304C662.626 373.84 662.915 373.335 662.877 372.792C662.825 372.031 662.163 371.478 661.557 371.022C652.442 364.167 643.326 357.315 634.213 350.461C632.861 349.446 630.988 348.408 629.62 349.403C629.02 349.841 628.711 350.566 628.424 351.255C625.534 358.173 621.98 364.811 617.827 371.046C618.391 371.159 619.011 370.836 619.244 370.309" fill="#FFCC37"/><path id="Fill 26" fill-rule="evenodd" clip-rule="evenodd" d="M609.291 384.896C618.683 394.303 634.362 392.605 641.518 381.399C670.493 336.014 665.185 275.015 625.59 235.352C579.865 189.549 505.729 189.549 460.004 235.352L609.291 384.896Z" fill="#F9A471"/><path id="Fill 28" fill-rule="evenodd" clip-rule="evenodd" d="M451.008 227.53C451.008 227.53 458.868 236.186 476.992 222L462.868 239L451.008 227.53Z" fill="#F9A471"/><path id="Fill 30" fill-rule="evenodd" clip-rule="evenodd" d="M532.348 247.611C534.495 249.761 534.495 253.241 532.348 255.389C530.202 257.537 526.721 257.537 524.575 255.389C522.428 253.241 522.428 249.761 524.575 247.611C526.721 245.463 530.202 245.463 532.348 247.611" fill="#F06647"/><path id="Fill 32" fill-rule="evenodd" clip-rule="evenodd" d="M572.325 247.611C574.471 249.761 574.471 253.241 572.325 255.389C570.178 257.537 566.698 257.537 564.551 255.389C562.405 253.241 562.405 249.761 564.551 247.611C566.698 245.463 570.178 245.463 572.325 247.611" fill="#F06647"/><path id="Fill 34" fill-rule="evenodd" clip-rule="evenodd" d="M556.335 275.611C558.481 277.76 558.481 281.242 556.335 283.388C554.188 285.537 550.708 285.537 548.561 283.388C546.415 281.242 546.415 277.76 548.561 275.611C550.708 273.463 554.188 273.463 556.335 275.611" fill="#F06647"/><path id="Fill 36" fill-rule="evenodd" clip-rule="evenodd" d="M592.313 275.611C594.46 277.76 594.46 281.242 592.313 283.388C590.167 285.537 586.686 285.537 584.54 283.388C582.393 281.242 582.393 277.76 584.54 275.611C586.686 273.463 590.167 273.463 592.313 275.611" fill="#F06647"/><path id="Fill 38" fill-rule="evenodd" clip-rule="evenodd" d="M579.321 306.612C581.468 308.76 581.468 312.242 579.321 314.389C577.174 316.537 573.694 316.537 571.547 314.389C569.401 312.242 569.401 308.76 571.547 306.612C573.694 304.463 577.174 304.463 579.321 306.612" fill="#F06647"/><path id="Fill 40" fill-rule="evenodd" clip-rule="evenodd" d="M611.301 314.612C613.448 316.76 613.448 320.242 611.301 322.388C609.155 324.537 605.675 324.537 603.528 322.388C601.381 320.242 601.381 316.76 603.528 314.612C605.675 312.463 609.155 312.463 611.301 314.612" fill="#F06647"/><path id="Fill 42" fill-rule="evenodd" clip-rule="evenodd" d="M477.309 290C431.582 335.752 431.582 409.931 477.309 455.685C517.013 495.412 578.139 500.645 623.487 471.384C634.457 464.304 636.15 448.924 626.918 439.687L477.309 290Z" fill="#F06647"/><path id="Fill 44" fill-rule="evenodd" clip-rule="evenodd" d="M468.714 289.103C460.701 281.2 448.721 277.265 437.749 279.731C426.779 282.196 417.379 291.354 415.424 302.445C414.726 306.406 414.907 310.575 413.409 314.309C410.857 320.67 403.843 324.732 402.337 331.418C400.324 340.35 409.123 348.667 408.379 357.794C408.029 362.077 405.573 366.106 405.942 370.385C406.693 379.091 418.594 384.833 416.872 393.398C416.499 395.253 415.482 396.924 415.051 398.767C413.099 407.122 423.112 413.221 425.753 421.387C427.503 426.8 425.969 433.249 429.197 437.931C434.01 444.916 445.178 442.698 452.227 447.412C457.947 451.235 459.939 458.947 465.388 463.147C472.17 468.374 482.443 466.828 489.231 472.042C494.317 475.951 496.662 483.119 502.528 485.705C509.274 488.678 517.078 484.103 524.366 485.205C533.106 486.528 539.81 495.782 548.611 494.947C557.354 494.118 562.281 483.852 570.657 481.207C578.201 478.822 587.282 483.049 593.928 478.752C600.329 474.616 601.247 464.356 608.29 461.445C610.618 460.483 613.23 460.541 615.676 459.943C624.877 457.686 629.157 444.555 623.055 437.297L468.714 289.103Z" fill="#4FA480"/><path id="Fill 46" fill-rule="evenodd" clip-rule="evenodd" d="M541.327 468.626C528.839 456.13 528.839 435.868 541.327 423.372C553.818 410.876 574.066 410.876 586.556 423.372C599.045 435.868 599.045 456.13 586.556 468.626C574.066 481.125 553.818 481.125 541.327 468.626" fill="#DD4328"/><path id="Fill 48" fill-rule="evenodd" clip-rule="evenodd" d="M472.368 458.628C459.88 446.13 459.88 425.868 472.368 413.372C484.859 400.876 505.107 400.876 517.597 413.372C530.086 425.868 530.086 446.13 517.597 458.628C505.107 471.124 484.859 471.124 472.368 458.628" fill="#DD4328"/><path id="Fill 50" fill-rule="evenodd" clip-rule="evenodd" d="M408.405 387.628C395.917 375.132 395.917 354.87 408.405 342.374C420.896 329.875 441.144 329.875 453.634 342.374C466.123 354.87 466.123 375.132 453.634 387.628C441.144 400.124 420.896 400.124 408.405 387.628" fill="#DD4328"/><path id="Fill 52" fill-rule="evenodd" clip-rule="evenodd" d="M461.671 385.319C447.568 385.934 433.462 386.552 419.358 387.166C419.028 387.182 418.673 387.206 418.415 387.407C418.028 387.706 418.014 388.265 418.036 388.746C418.322 395.111 419.165 401.449 420.549 407.676C420.634 408.056 420.729 408.452 420.981 408.756C421.563 409.465 458.69 408.478 461.891 407.739C462.772 407.537 463.681 407.223 464.267 406.552C465.175 405.518 465.056 403.988 464.874 402.637C464.074 396.714 463 390.828 461.655 385" fill="#FFCC37"/><path id="Fill 54" fill-rule="evenodd" clip-rule="evenodd" d="M547.95 484.288C547.219 468.727 547.039 454.696 545.194 438.62C545.144 438.188 545.022 437.74 544.716 437.432C544.309 437.021 543.663 436.996 543.084 437C537.753 437.051 532.423 437.392 527.128 438.024C526.304 438.121 528.736 465.064 530.754 483.42C530.815 483.971 531.08 484.541 531.558 484.821C531.923 485.031 532.37 485.009 532.792 484.985C537.826 484.657 542.858 484.33 547.892 484.002" fill="#FFCC37"/><path id="Fill 56" fill-rule="evenodd" clip-rule="evenodd" d="M408.035 327.51C423.318 328.9 437.029 330.616 452.966 330.999C453.393 331.009 453.846 330.95 454.188 330.697C454.647 330.359 454.759 329.738 454.83 329.176C455.509 324.013 455.903 318.817 456.006 313.612C456.024 312.803 429.408 311.523 411.223 311.001C410.678 310.987 410.085 311.167 409.748 311.592C409.493 311.914 409.453 312.351 409.421 312.76C409.055 317.67 408.69 322.582 408.323 327.492" fill="#FFCC37"/><path id="Fill 58" fill-rule="evenodd" clip-rule="evenodd" d="M582.772 440.39C589.05 451.131 595.834 461.635 603.088 471.838C603.414 472.295 603.792 472.79 604.291 472.949C604.798 473.11 605.247 472.862 605.641 472.621L618.29 464.896C618.545 464.741 618.811 464.568 618.887 464.26C618.984 463.862 618.724 463.393 618.477 462.985C612.084 452.448 605.691 441.911 599.297 431.374C598.971 430.837 598.58 430.244 598.019 430.057C597.387 429.847 596.86 430.258 596.429 430.634C592.817 433.796 588.449 436.081 583.64 437.335C583.038 437.494 582.388 437.665 582.066 438.184C581.746 438.707 582.006 439.704 582.672 439.92" fill="#FFCC37"/><path id="Fill 60" fill-rule="evenodd" clip-rule="evenodd" d="M461.002 297.154C450.335 289.619 439.669 282.085 429.002 274.552C428.641 274.295 428.256 274.031 427.814 274.003C426.937 273.946 426.305 274.804 425.85 275.561L415.565 292.696C415.284 293.161 414.995 293.665 415.033 294.208C415.085 294.97 415.747 295.521 416.355 295.979C425.468 302.833 434.583 309.686 443.699 316.54C445.049 317.554 446.922 318.591 448.29 317.598C448.892 317.16 449.199 316.435 449.488 315.747C452.378 308.828 455.93 302.189 460.083 295.953C459.519 295.842 458.901 296.165 458.666 296.692" fill="#FFCC37"/><path id="Fill 62" fill-rule="evenodd" clip-rule="evenodd" d="M468.623 282.105C459.231 272.697 443.551 274.393 436.396 285.602C407.421 330.987 412.729 391.987 452.324 431.648C498.048 477.451 572.185 477.451 617.909 431.648L468.623 282.105Z" fill="#F9A471"/><path id="Fill 64" fill-rule="evenodd" clip-rule="evenodd" d="M626.902 439.468C626.902 439.468 619.042 430.814 600.918 445L615.042 428L626.902 439.468Z" fill="#F9A471"/><path id="Fill 66" fill-rule="evenodd" clip-rule="evenodd" d="M545.563 419.389C543.416 417.24 543.416 413.758 545.563 411.612C547.71 409.463 551.19 409.463 553.337 411.612C555.483 413.758 555.483 417.24 553.337 419.389C551.19 421.537 547.71 421.537 545.563 419.389" fill="#F06647"/><path id="Fill 68" fill-rule="evenodd" clip-rule="evenodd" d="M506.587 419.389C504.44 417.24 504.44 413.758 506.587 411.612C508.733 409.463 512.213 409.463 514.36 411.612C516.507 413.758 516.507 417.24 514.36 419.389C512.213 421.537 508.733 421.537 506.587 419.389" fill="#F06647"/><path id="Fill 70" fill-rule="evenodd" clip-rule="evenodd" d="M522.577 391.388C520.43 389.24 520.43 385.758 522.577 383.611C524.723 381.463 528.204 381.463 530.35 383.611C532.497 385.758 532.497 389.24 530.35 391.388C528.204 393.537 524.723 393.537 522.577 391.388" fill="#F06647"/><path id="Fill 72" fill-rule="evenodd" clip-rule="evenodd" d="M486.598 391.388C484.452 389.24 484.452 385.758 486.598 383.612C488.745 381.463 492.225 381.463 494.372 383.612C496.518 385.758 496.518 389.24 494.372 391.388C492.225 393.537 488.745 393.537 486.598 391.388" fill="#F06647"/><path id="Fill 74" fill-rule="evenodd" clip-rule="evenodd" d="M499.59 360.389C497.444 358.241 497.444 354.759 499.59 352.611C501.737 350.463 505.217 350.463 507.364 352.611C509.511 354.759 509.511 358.241 507.364 360.389C505.217 362.537 501.737 362.537 499.59 360.389" fill="#F06647"/><path id="Fill 76" fill-rule="evenodd" clip-rule="evenodd" d="M467.61 352.388C465.463 350.24 465.463 346.758 467.61 344.611C469.757 342.463 473.237 342.463 475.383 344.611C477.53 346.758 477.53 350.24 475.383 352.388C473.237 354.537 469.757 354.537 467.61 352.388" fill="#F06647"/></g></g></svg>