<svg viewBox="0 -1.3321167883211729 1065.9999999999998 732.6642335766425" fill="none" xmlns="http://www.w3.org/2000/svg" xmlns:xlink="http://www.w3.org/1999/xlink" overflow="visible" width="1065.9999999999998px" height="732.6642335766425px"><g id="Master/Stickers/Wormies Notes"><rect width="1066" height="730" fill="white"/><g id="Group 519"><g id="Group 518"><rect id="Rectangle 7" width="383.259" height="473.625" rx="14" transform="matrix(0.957841 0.287298 -0.286981 0.957936 490.984 73.4414)" fill="#F0F0F0"/><rect id="Rectangle 8" width="383.24" height="473.648" rx="14" transform="matrix(0.999372 0.0354303 -0.0353878 0.999374 386.955 56)" fill="#FCE8FF"/><path id="Fill 19" fill-rule="evenodd" clip-rule="evenodd" d="M394.433 527.658C393.138 527.625 391.895 526.902 391.236 525.68C390.27 523.866 390.955 521.613 392.782 520.632L519.257 453.341C521.088 452.384 523.334 453.068 524.312 454.879C525.279 456.693 524.584 458.961 522.765 459.915L396.291 527.219C395.689 527.54 395.057 527.685 394.433 527.658" fill="#FF8EDE"/><path id="Fill 46" fill-rule="evenodd" clip-rule="evenodd" d="M717.701 644.912C717.737 655.942 708.743 665.008 697.693 665.114L343.575 667.261C332.528 667.307 323.479 658.342 323.394 647.309L323.197 611.08L323.193 610.631L323.045 580.452L320.971 182.318C320.871 171.275 329.87 162.233 340.921 162.138L627.17 160.388L677.893 160.072L695.026 159.981C706.087 159.946 715.129 168.875 715.221 179.943L717.701 644.912Z" fill="#ECA9F6"/><path id="Fill 48" fill-rule="evenodd" clip-rule="evenodd" d="M323.22 636.922L323.218 635.272L321.138 192.726L666.169 190.641L715.41 190.336L717.502 634.518L323.22 636.922Z" fill="#ECA9F6"/><path id="Fill 1" fill-rule="evenodd" clip-rule="evenodd" d="M636.465 516.584C634.997 513.374 633.452 510.059 630.779 507.755C628.105 505.451 623.964 504.451 621.015 506.389C615.696 509.883 617.912 519.46 612.603 522.968C609.484 525.029 605.351 523.894 601.778 522.797C598.205 521.701 593.916 520.842 591.062 523.257C588.183 525.693 588.352 530.141 589.071 533.846C589.789 537.551 590.747 541.656 588.799 544.887C586.813 548.179 582.615 549.221 579.443 551.391C575.657 553.982 573.241 558.583 573.578 563.159C573.916 567.736 577.153 572.048 581.549 573.356C585.016 574.388 589.192 573.76 591.856 576.207C593.867 578.055 594.275 581.107 593.905 583.814C593.535 586.522 592.527 589.114 592.195 591.826C591.709 595.797 592.822 600.058 595.632 602.905C598.442 605.751 603.031 606.891 606.651 605.192C609.834 603.698 612.091 600.28 615.567 599.749C619.925 599.083 623.371 603.199 625.869 606.832C628.367 610.467 631.923 614.533 636.255 613.717C639.774 613.055 641.818 609.457 643.389 606.237C644.242 604.49 645.095 602.741 645.948 600.993C646.355 600.159 646.795 599.285 647.568 598.771C648.523 598.135 649.765 598.188 650.906 598.309C654.953 598.735 658.984 599.708 663.044 599.407C667.103 599.107 671.376 597.191 673.046 593.477C675.387 588.267 671.99 581.3 675.561 576.843C677.644 574.242 681.277 573.649 684.314 572.282C689.384 569.999 693.198 564.904 693.509 559.35C693.819 553.796 690.353 548.113 685.115 546.249C680.359 544.557 674.636 545.853 670.457 543.02C666.1 540.065 665.399 534.081 664.539 528.886C663.68 523.691 661.29 517.646 656.1 516.778C652.562 516.187 649.224 518.326 645.812 519.433C642.4 520.54 637.59 519.86 636.768 516.366" fill="#FDFFA7"/><path id="Fill 50" fill-rule="evenodd" clip-rule="evenodd" d="M598.635 552.041L437.341 553.021C426.965 553.085 418.401 539.836 418.31 523.584L417.705 372.702C417.627 356.447 426.036 343.099 436.411 343.035L597.72 342.065C608.081 341.991 616.646 355.24 616.736 371.492L617.341 522.374C617.42 538.629 609.011 551.977 598.635 552.041Z" fill="#DFD9FF"/><g id="Group 109"><path id="Fill 107" fill-rule="evenodd" clip-rule="evenodd" d="M533.788 339.854C533.717 340.151 533.456 340.347 533.134 340.33L524.795 339.737C524.119 339.693 523.835 340.501 524.361 340.871L637.292 423.371C637.813 423.757 638.482 423.233 638.248 422.623L635.436 415.65L635.114 414.828C634.94 414.404 635.294 413.927 635.755 413.95L645.307 414.65C645.785 414.679 646.128 414.207 645.942 413.762L642.351 404.865C642.197 404.43 642.541 403.958 642.986 403.977L651.363 404.59C652.001 404.64 652.307 403.82 651.775 403.44L538.843 320.94C538.531 320.714 538.138 320.817 537.954 321.08C537.906 321.269 537.879 321.42 537.867 321.549C537.875 321.614 537.86 321.662 537.889 321.715L541.011 329.489C541.191 329.923 540.853 330.406 540.37 330.367C538.165 330.236 536.394 330.102 534.966 329.974L531.381 329.703C531.344 329.709 531.323 329.721 531.323 329.721L530.84 329.682C530.689 329.654 530.53 329.713 530.431 329.807L530.394 329.814C530.184 329.954 530.072 330.274 530.188 330.566C531.152 333.057 531.979 334.942 532.545 336.367L533.581 338.943C533.588 338.98 533.61 338.996 533.589 339.007L533.775 339.452C533.843 339.578 533.848 339.739 533.788 339.854" fill="white"/></g><path id="Exclude" d="M449.51 426.083L594.266 425.91L594.56 671.778L449.804 671.951L449.51 426.083Z" fill="#F1758E"/><g id="Group 110"><path id="Fill 107_2" fill-rule="evenodd" clip-rule="evenodd" d="M397.338 493.239C397.268 493.537 397.006 493.732 396.685 493.715L388.346 493.123C387.67 493.079 387.385 493.887 387.911 494.257L500.843 576.757C501.364 577.143 502.032 576.618 501.798 576.009L498.986 569.035L498.665 568.214C498.491 567.79 498.845 567.312 499.306 567.336L508.858 568.036C509.336 568.064 509.679 567.593 509.493 567.148L505.901 558.251C505.748 557.816 506.091 557.344 506.536 557.362L514.913 557.975C515.552 558.026 515.857 557.206 515.326 556.825L402.394 474.326C402.082 474.099 401.689 474.203 401.505 474.466C401.457 474.655 401.43 474.806 401.418 474.935C401.426 474.999 401.411 475.048 401.44 475.101L404.561 482.875C404.741 483.309 404.404 483.791 403.921 483.753C401.716 483.622 399.945 483.488 398.517 483.36L394.932 483.089C394.894 483.095 394.873 483.107 394.873 483.107L394.39 483.068C394.239 483.04 394.081 483.099 393.982 483.193L393.945 483.199C393.735 483.34 393.623 483.66 393.739 483.951C394.703 486.443 395.53 488.327 396.096 489.753L397.132 492.328C397.139 492.366 397.161 492.381 397.14 492.393L397.325 492.838C397.394 492.964 397.399 493.125 397.338 493.239" fill="white"/></g></g><g id="Eyes/Poh" transform="matrix(0.999999 -0.00119775 0.00119632 0.999999 497.568 474.247) scale(1.216437816619873 1.217167854309082)"><g id="Eyes/Poh/Angry"><g id="Group 7"><g id="Group 3"><path id="Fill 1" fill-rule="evenodd" clip-rule="evenodd" d="M12.959 5.24431L9.056 2.33631C8.693 2.06631 8.249 1.95231 7.795 2.01831C7.346 2.08331 6.948 2.32031 6.678 2.68431C6.406 3.04831 6.293 3.49631 6.358 3.94531C6.424 4.39431 6.661 4.79131 7.025 5.06231L9.616 6.99331L6.778 8.82131C5.991 9.32931 5.763 10.3833 6.27 11.1713C6.585 11.6593 7.12 11.9503 7.7 11.9503C8.026 11.9503 8.344 11.8563 8.619 11.6803L12.833 8.96531C13.456 8.56331 13.844 7.88031 13.87 7.13731C13.895 6.39531 13.554 5.68831 12.959 5.24431" fill="#101335"/></g><g id="Group 6"><path id="Fill 4" fill-rule="evenodd" clip-rule="evenodd" d="M32.793 8.87031L30.227 7.02631L33.087 5.11231C33.866 4.59231 34.076 3.53431 33.556 2.75531C33.033 1.97531 31.976 1.76531 31.198 2.28731L26.978 5.10931C26.359 5.52131 25.983 6.21131 25.971 6.95331C25.959 7.69631 26.312 8.39831 26.914 8.83131L30.81 11.6303C31.1 11.8403 31.442 11.9503 31.8 11.9503C32.347 11.9503 32.863 11.6853 33.182 11.2423C33.729 10.4823 33.554 9.41831 32.793 8.87031" fill="#101335"/></g></g></g></g><g id="Mouth/Poh" transform="matrix(0.999999 -0.00119775 0.00119632 0.999999 497.572 490.577) scale(1.186768601580364 1.2171677037289268)"><g id="Mouth/Poh/Laughing Teeth"><g id="Group 8"><g id="Group 3"><path id="Fill 1" fill-rule="evenodd" clip-rule="evenodd" d="M3.91797 3C3.91797 3 3.91797 19.013 20.94 19.013C38.778 19.013 38.778 3 38.778 3H3.91797Z" fill="#101335"/></g><path id="Fill 4" fill-rule="evenodd" clip-rule="evenodd" d="M16.2262 9.58491H15.4432C13.9282 9.58491 12.7012 8.35691 12.7012 6.84291V2.99991H18.9682V6.84291C18.9682 8.35691 17.7412 9.58491 16.2262 9.58491" fill="white"/><path id="Fill 6" fill-rule="evenodd" clip-rule="evenodd" d="M26.5729 9.58491H25.7889C24.2739 9.58491 23.0469 8.35691 23.0469 6.84291V2.99991H29.3139V6.84291C29.3139 8.35691 28.0869 9.58491 26.5729 9.58491" fill="white"/></g></g></g><g id="Hair/Poh" transform="matrix(0.999999 -0.00119775 0.00119632 0.999999 435.396 361.712) scale(1.2164378822920565 1.2171679824145871)"><g id="Hair/Poh/Double Bun"><g id="Hair"><path id="Fill 19" fill-rule="evenodd" clip-rule="evenodd" d="M53.4073 71.3672L56.8083 63.4872L58.4453 71.8102C61.8033 72.0502 65.0923 72.1732 68.2903 72.1992L70.9843 63.6562L73.5783 72.1562C77.2593 72.0672 80.7923 71.8602 84.1403 71.5712L85.7303 63.4872L89.0093 71.0832C96.4493 70.2322 102.746 69.0342 107.414 67.9782C104.773 58.9542 96.4403 52.3612 86.5623 52.3612C80.5973 52.3612 75.1963 54.7682 71.2693 58.6612C67.3433 54.7682 61.9413 52.3612 55.9753 52.3612C46.0323 52.3612 37.6543 59.0432 35.0723 68.1602C41.2803 69.6972 47.4323 70.7352 53.4073 71.3672" fill="#73BAB8"/><path id="Fill 21" fill-rule="evenodd" clip-rule="evenodd" d="M48.2357 26.7651V26.7651C46.5217 29.5551 47.5967 33.2151 50.5467 34.6351H50.5477C55.2307 36.8911 54.4907 43.7801 49.4327 44.9881C46.2487 45.7481 44.4207 49.0961 45.5027 52.1871C47.2187 57.0941 41.8247 61.4411 37.3947 58.7201C34.6047 57.0061 30.9447 58.0801 29.5247 61.0311C27.2687 65.7151 20.3807 64.9741 19.1727 59.9171V59.9171C18.4117 56.7321 15.0637 54.9051 11.9727 55.9861C7.06571 57.7031 2.71771 52.3081 5.43971 47.8781C7.15371 45.0881 6.07971 41.4291 3.12971 40.0081C-1.55529 37.7521 -0.814291 30.8641 4.24271 29.6561C7.42671 28.8951 9.25571 25.5471 8.17371 22.4561C6.45671 17.5491 11.8507 13.2021 16.2817 15.9241C19.0717 17.6381 22.7307 16.5631 24.1517 13.6131C26.4077 8.92913 33.2957 9.66913 34.5047 14.7261C35.2647 17.9111 38.6127 19.7391 41.7037 18.6581C46.6107 16.9401 50.9577 22.3351 48.2357 26.7651" fill="#3A3E5B"/><path id="Fill 23" fill-rule="evenodd" clip-rule="evenodd" d="M39.0244 31.3096V31.3096C38.0484 32.8986 38.6604 34.9826 40.3404 35.7916C43.0084 37.0766 42.5874 40.9996 39.7074 41.6876C37.8924 42.1216 36.8514 44.0276 37.4674 45.7886C38.4454 48.5826 35.3734 51.0596 32.8504 49.5086C31.2604 48.5326 29.1764 49.1446 28.3674 50.8246C27.0834 53.4926 23.1604 53.0706 22.4714 50.1906C22.0384 48.3766 20.1314 47.3356 18.3714 47.9516C15.5764 48.9296 13.1004 45.8576 14.6504 43.3346C15.6274 41.7456 15.0144 39.6616 13.3354 38.8516C10.6674 37.5666 11.0884 33.6436 13.9684 32.9556C15.7824 32.5226 16.8234 30.6156 16.2084 28.8556C15.2294 26.0606 18.3014 23.5846 20.8254 25.1346C22.4144 26.1106 24.4994 25.4986 25.3074 23.8186C26.5924 21.1506 30.5154 21.5726 31.2044 24.4526C31.6364 26.2666 33.5444 27.3076 35.3034 26.6916C38.0984 25.7136 40.5744 28.7866 39.0244 31.3096" fill="#F1758E"/><g id="Group 27"><path id="Fill 25" fill-rule="evenodd" clip-rule="evenodd" d="M108.016 14.7236V14.7236C107.253 17.9076 103.906 19.7346 100.815 18.6516C95.909 16.9326 91.559 22.3256 94.279 26.7566C95.992 29.5476 94.915 33.2066 91.965 34.6266C87.28 36.8806 88.018 43.7686 93.075 44.9786C96.259 45.7416 98.085 49.0896 97.003 52.1796C95.285 57.0866 100.677 61.4356 105.108 58.7156C107.899 57.0026 111.558 58.0786 112.978 61.0296V61.0296C115.232 65.7146 122.12 64.9766 123.33 59.9206V59.9196C124.092 56.7356 127.441 54.9096 130.531 55.9916C135.438 57.7106 139.786 52.3176 137.067 47.8866C135.354 45.0966 136.43 41.4366 139.381 40.0166C144.066 37.7636 143.328 30.8746 138.272 29.6646C135.087 28.9026 133.26 25.5536 134.343 22.4636C136.062 17.5566 130.669 13.2076 126.238 15.9276C123.448 17.6406 119.788 16.5646 118.369 13.6146C116.115 8.92862 109.226 9.66662 108.016 14.7236" fill="#3A3E5B"/></g><path id="Fill 28" fill-rule="evenodd" clip-rule="evenodd" d="M111.308 24.439V24.439C110.873 26.254 108.964 27.296 107.203 26.679C104.406 25.698 101.926 28.773 103.477 31.299C104.454 32.89 103.84 34.976 102.158 35.785C99.4871 37.07 99.9081 40.997 102.79 41.687C104.606 42.122 105.647 44.03 105.03 45.792C104.05 48.589 107.124 51.068 109.65 49.518C111.241 48.542 113.328 49.155 114.136 50.837C115.421 53.508 119.348 53.087 120.038 50.205C120.473 48.389 122.381 47.348 124.143 47.965C126.941 48.945 129.42 45.871 127.87 43.345C126.893 41.754 127.506 39.668 129.188 38.858H129.189C131.86 37.573 131.439 33.647 128.556 32.957C126.741 32.522 125.7 30.613 126.317 28.852C127.296 26.054 124.222 23.575 121.696 25.126C120.105 26.102 118.019 25.489 117.209 23.807C115.924 21.136 111.997 21.556 111.308 24.439" fill="#F1758E"/></g></g></g><rect id="Rectangle 9" x="411.254" y="251.513" width="212.256" height="13.4847" fill="white"/><rect id="Rectangle 10" x="411.254" y="281.012" width="212.256" height="13.4847" fill="white"/></g><path id="Fill 1_2" fill-rule="evenodd" clip-rule="evenodd" d="M532.933 216.404C533.246 217.857 532.973 219.259 532.635 220.674C532.226 222.384 531.65 224.118 530.912 225.795C530.401 224.298 530.146 222.706 530.228 221.036C530.288 219.799 530.573 218.518 531.073 217.386C531.313 216.846 531.568 216.27 531.938 215.808C531.995 215.735 532.189 215.484 532.303 215.351C532.352 215.275 532.41 215.223 532.47 215.179C532.498 215.239 532.522 215.289 532.523 215.291C532.711 215.613 532.852 216.023 532.933 216.404M532.214 214.924C532.277 214.867 532.361 214.978 532.425 215.093C532.418 215.096 532.414 215.096 532.407 215.095C532.402 215.11 532.211 214.928 532.214 214.924M503.87 217.515C504.553 215.583 506.217 213.468 508.525 213.88C510.622 214.255 510.187 216.834 509.752 218.501C508.976 221.483 507.175 224.439 505.341 226.883C504.902 227.467 504.436 228.022 503.964 228.571C503.807 228.022 503.668 227.469 503.564 226.918C503.005 223.959 502.853 220.393 503.87 217.515M531.994 208.502C529.245 208.788 527.25 210.692 525.878 212.958C522.133 219.145 523.215 226.408 526.781 232.253C525.361 233.792 523.703 235.086 521.789 235.986C517.278 238.111 511.33 238.082 507.488 234.603C508.511 233.553 509.472 232.446 510.342 231.284C513.015 227.716 515.522 223.538 516.443 219.117C517.301 215.003 516.253 210.312 512.266 208.203C508.349 206.132 503.317 207.449 500.378 210.575C497.186 213.968 496.453 218.949 496.556 223.43C496.632 226.779 497.277 230.208 498.641 233.303C498.361 233.49 498.098 233.697 497.807 233.873C492.585 237.043 485.667 237.911 480.106 235.063C474.81 232.352 471.824 226.368 473.119 220.579C474.053 216.401 467.521 215.115 466.585 219.298C464.744 227.531 468.783 235.788 475.801 240.236C482.933 244.756 492.275 244.128 499.579 240.481C500.542 240 501.474 239.45 502.376 238.854C507.417 243.888 515.213 245.219 522.053 243.008C525.533 241.882 528.5 239.906 530.969 237.404C531.715 238.107 532.49 238.772 533.308 239.364C540.315 244.44 552.507 248.134 558.789 239.889C559.877 238.46 559.901 236.441 558.482 235.193C557.202 234.066 554.881 234.053 553.788 235.488C550.53 239.763 544.02 238.001 539.94 235.763C538.178 234.797 536.498 233.569 535.039 232.134C536.795 229.231 538.103 226.026 538.961 222.788C540.035 218.728 540.25 213.768 537.148 210.477C535.834 209.082 533.916 208.301 531.994 208.502" fill="#EEF3CD"/><path id="Fill 9" fill-rule="evenodd" clip-rule="evenodd" d="M433.43 589.588C433.581 593.432 433.225 597.481 432.613 601.279C431.617 607.465 428.26 615.682 420.999 616.412C414.313 617.084 408.608 610.369 405.497 605.23C404.298 603.25 402.969 599.896 406.229 599.398C410.7 598.715 413.257 604.319 414.93 607.484C415.418 608.409 416.417 608.883 417.449 608.953C417.45 609.385 417.444 609.815 417.458 610.25C417.593 614.599 424.319 614.138 424.185 609.798C423.946 602.129 425.769 593.426 430.258 587.025C430.82 586.227 431.284 585.396 432.194 586.009C433.253 586.722 433.383 588.399 433.43 589.588M432.269 579.06C425.594 578.451 422.201 586.989 420.359 592.12C419.452 594.649 418.765 597.226 418.276 599.833C415.915 596.283 412.827 593.213 408.36 592.718C402.805 592.101 397.543 595.538 397.417 601.453C397.317 606.093 400.498 610.299 403.343 613.649C406.711 617.615 410.633 621.085 415.711 622.603C420.535 624.046 425.903 622.814 429.874 619.752C434.085 616.505 436.733 612.024 438.236 606.982C439.789 601.757 440.02 596.104 440.16 590.695C440.292 585.602 438.107 579.593 432.269 579.06" fill="white"/><path id="Fill 13" fill-rule="evenodd" clip-rule="evenodd" d="M354.596 525.361C355.201 525.481 355.796 525.629 356.386 525.815C355.738 525.609 356.574 525.896 356.709 525.952C356.991 526.07 357.269 526.195 357.543 526.328C358.093 526.597 358.618 526.903 359.14 527.225C358.491 526.824 359.319 527.358 359.393 527.413C359.639 527.597 359.88 527.785 360.116 527.982C360.59 528.376 361.043 528.794 361.473 529.232C361.526 529.285 362.213 530.034 361.71 529.459C361.914 529.693 362.11 529.934 362.299 530.177C363.065 531.155 363.741 532.204 364.305 533.305C364.037 532.783 364.383 533.492 364.448 533.641C364.573 533.923 364.69 534.209 364.802 534.496C365.025 535.072 365.219 535.656 365.385 536.247C365.468 536.542 365.545 536.839 365.611 537.137C365.486 536.577 365.64 537.346 365.664 537.498C365.759 538.095 365.824 538.697 365.855 539.3C365.871 539.6 365.867 539.9 365.878 540.2C365.901 540.889 365.943 539.806 365.866 540.549C365.812 541.095 365.753 541.635 365.651 542.172C365.595 542.465 365.52 542.752 365.458 543.042C365.421 543.187 365.382 543.33 365.34 543.472C365.436 543.183 365.447 543.151 365.37 543.371C365.152 543.987 364.892 544.577 364.596 545.157C363.796 546.731 364.623 548.822 366.223 549.62C367.897 550.456 369.842 549.75 370.645 548.173C376.339 536.991 368.353 521.372 355.744 518.876C351.515 518.039 350.347 524.52 354.596 525.361" fill="white"/></g></svg>