<svg viewBox="266.5 145.20072992700727 532.9999999999999 439.59854014598545" fill="none" xmlns="http://www.w3.org/2000/svg" xmlns:xlink="http://www.w3.org/1999/xlink" overflow="visible" width="532.9999999999999px" height="439.59854014598545px"><g id="Master/Stickers/Ufo"><g id="Group 53"><g id="Group 3"><path id="Fill 1" fill-rule="evenodd" clip-rule="evenodd" d="M531.983 155.416V155.416C450.726 155.416 384.854 221.426 384.854 302.852V425.779C384.854 436.908 393.856 445.928 404.961 445.928H659.005C670.108 445.928 679.11 436.908 679.11 425.779V302.852C679.11 221.426 613.24 155.416 531.983 155.416" fill="#E0BFDB"/></g><path id="Fill 4" fill-rule="evenodd" clip-rule="evenodd" d="M648.365 380.594C646.985 369.904 646.336 325.917 645.793 315.241C645.533 309.902 645.288 304.565 645.343 299.225C645.475 293.748 645.411 288.895 644.876 283.703C644.346 278.583 643.51 273.471 642.283 268.432C641.045 263.397 639.513 258.413 637.645 253.535C633.954 243.749 628.867 234.446 622.821 225.683L622.813 225.67C622.478 225.185 622.602 224.521 623.091 224.188C623.536 223.883 624.13 223.959 624.486 224.344C631.846 232.292 638.232 241.307 643.065 251.177C647.915 261.024 651.469 271.62 653.231 282.591C654.137 288.002 654.682 293.85 654.597 299.073C654.653 304.429 654.407 309.79 654.147 315.149C653.605 325.868 652.956 369.891 651.575 380.594C651.462 381.476 650.651 382.1 649.764 381.987C649.018 381.891 648.458 381.304 648.365 380.594" fill="white"/><path id="Fill 6" fill-rule="evenodd" clip-rule="evenodd" d="M385.405 426C315.704 437.555 277.832 485 277.832 485H787.526C787.526 485 749.656 437.555 679.953 426H385.405Z" fill="#F06647"/><path id="Fill 8" fill-rule="evenodd" clip-rule="evenodd" d="M384.709 570.255C331.41 553.481 277.832 517 277.832 517H787.526C787.526 517 733.949 553.481 680.651 570.255C668.329 574.133 655.463 576 642.544 576H422.814C409.895 576 397.029 574.133 384.709 570.255" fill="#F1758E"/><path id="Fill 10" fill-rule="evenodd" clip-rule="evenodd" d="M786.999 518C786.999 518 799.43 503.511 786.999 485H277.361C277.361 485 264.929 499.489 277.361 518H786.999Z" fill="#775CA6"/><path id="Fill 12" fill-rule="evenodd" clip-rule="evenodd" d="M657.282 426.008C657.282 426.008 708.932 442.982 744.552 485H668.38C668.38 485 657.029 447.738 635.617 426L657.282 426.008Z" fill="#F9A471"/><path id="Fill 14" fill-rule="evenodd" clip-rule="evenodd" d="M404.078 426.008C404.078 426.008 352.429 442.982 316.809 485H392.981C392.981 485 404.332 447.738 425.743 426L404.078 426.008Z" fill="#F9A471"/><path id="Fill 16" fill-rule="evenodd" clip-rule="evenodd" d="M753.546 501.5C753.546 508.956 747.506 515 740.054 515C732.604 515 726.562 508.956 726.562 501.5C726.562 494.044 732.604 488 740.054 488C747.506 488 753.546 494.044 753.546 501.5" fill="#4D439B"/><path id="Fill 18" fill-rule="evenodd" clip-rule="evenodd" d="M649.609 501.5C649.609 508.956 643.569 515 636.117 515C628.665 515 622.625 508.956 622.625 501.5C622.625 494.044 628.665 488 636.117 488C643.569 488 649.609 494.044 649.609 501.5" fill="#4D439B"/><path id="Fill 20" fill-rule="evenodd" clip-rule="evenodd" d="M545.671 501.5C545.671 508.956 539.631 515 532.179 515C524.728 515 518.688 508.956 518.688 501.5C518.688 494.044 524.728 488 532.179 488C539.631 488 545.671 494.044 545.671 501.5" fill="#4D439B"/><path id="Fill 22" fill-rule="evenodd" clip-rule="evenodd" d="M441.734 501.5C441.734 508.956 435.694 515 428.241 515C420.791 515 414.75 508.956 414.75 501.5C414.75 494.044 420.791 488 428.241 488C435.694 488 441.734 494.044 441.734 501.5" fill="#4D439B"/><path id="Fill 24" fill-rule="evenodd" clip-rule="evenodd" d="M337.796 501.5C337.796 508.956 331.756 515 324.304 515C316.853 515 310.812 508.956 310.812 501.5C310.812 494.044 316.853 488 324.304 488C331.756 488 337.796 494.044 337.796 501.5" fill="#4D439B"/><path id="Fill 26" fill-rule="evenodd" clip-rule="evenodd" d="M749.549 501.501C749.549 506.747 745.299 511 740.054 511C734.811 511 730.561 506.747 730.561 501.501C730.561 496.254 734.811 492 740.054 492C745.299 492 749.549 496.254 749.549 501.501" fill="#F9A471"/><path id="Fill 28" fill-rule="evenodd" clip-rule="evenodd" d="M645.612 501.501C645.612 506.747 641.361 511 636.118 511C630.873 511 626.623 506.747 626.623 501.501C626.623 496.254 630.873 492 636.118 492C641.361 492 645.612 496.254 645.612 501.501" fill="#F9A471"/><path id="Fill 30" fill-rule="evenodd" clip-rule="evenodd" d="M541.674 501.501C541.674 506.747 537.424 511 532.18 511C526.936 511 522.686 506.747 522.686 501.501C522.686 496.254 526.936 492 532.18 492C537.424 492 541.674 496.254 541.674 501.501" fill="#F9A471"/><path id="Fill 32" fill-rule="evenodd" clip-rule="evenodd" d="M437.737 501.501C437.737 506.747 433.486 511 428.242 511C422.998 511 418.748 506.747 418.748 501.501C418.748 496.254 422.998 492 428.242 492C433.486 492 437.737 496.254 437.737 501.501" fill="#F9A471"/><path id="Fill 34" fill-rule="evenodd" clip-rule="evenodd" d="M333.799 501.501C333.799 506.747 329.549 511 324.305 511C319.061 511 314.811 506.747 314.811 501.501C314.811 496.254 319.061 492 324.305 492C329.549 492 333.799 496.254 333.799 501.501" fill="#F9A471"/><path id="Fill 36" fill-rule="evenodd" clip-rule="evenodd" d="M745.552 501.5C745.552 504.538 743.091 507 740.055 507C737.02 507 734.559 504.538 734.559 501.5C734.559 498.462 737.02 496 740.055 496C743.091 496 745.552 498.462 745.552 501.5" fill="#FFCC37"/><path id="Fill 38" fill-rule="evenodd" clip-rule="evenodd" d="M641.614 501.5C641.614 504.538 639.153 507 636.117 507C633.081 507 630.621 504.538 630.621 501.5C630.621 498.462 633.081 496 636.117 496C639.153 496 641.614 498.462 641.614 501.5" fill="#FFCC37"/><path id="Fill 40" fill-rule="evenodd" clip-rule="evenodd" d="M537.677 501.5C537.677 504.538 535.216 507 532.18 507C529.144 507 526.684 504.538 526.684 501.5C526.684 498.462 529.144 496 532.18 496C535.216 496 537.677 498.462 537.677 501.5" fill="#FFCC37"/><path id="Fill 42" fill-rule="evenodd" clip-rule="evenodd" d="M433.739 501.5C433.739 504.538 431.278 507 428.242 507C425.207 507 422.746 504.538 422.746 501.5C422.746 498.462 425.207 496 428.242 496C431.278 496 433.739 498.462 433.739 501.5" fill="#FFCC37"/><path id="Fill 44" fill-rule="evenodd" clip-rule="evenodd" d="M329.802 501.5C329.802 504.538 327.341 507 324.305 507C321.269 507 318.809 504.538 318.809 501.5C318.809 498.462 321.269 496 324.305 496C327.341 496 329.802 498.462 329.802 501.5" fill="#FFCC37"/><path id="Fill 46" fill-rule="evenodd" clip-rule="evenodd" d="M634.914 426C634.914 426 653.958 442.953 667.599 485H646.634C646.634 485 640.043 453.725 624.625 426.008L634.914 426Z" fill="#F1758E"/><path id="Fill 48" fill-rule="evenodd" clip-rule="evenodd" d="M403.756 426C403.756 426 354.406 442.172 316.779 485H277.832C277.832 485 314.523 437.427 385.112 426H403.756Z" fill="#F1758E"/><g id="Group 52"><path id="Fill 50" fill-rule="evenodd" clip-rule="evenodd" d="M649.125 560.65H413.275C406.275 560.65 400.602 566.448 400.602 573.601V573.601C400.602 574.097 400.635 574.587 400.689 575.068C407.958 576.35 415.332 577.001 422.728 577.001H642.455C648.883 577.001 655.297 576.525 661.637 575.56C661.733 574.919 661.798 574.268 661.798 573.601V573.601C661.798 566.448 656.124 560.65 649.125 560.65" fill="#FFCC37"/></g></g></g></svg>