<svg viewBox="0 -1.3321167883211729 1065.9999999999998 732.6642335766425" fill="none" xmlns="http://www.w3.org/2000/svg" xmlns:xlink="http://www.w3.org/1999/xlink" overflow="visible" width="1065.9999999999998px" height="732.6642335766425px"><g id="Master/Stickers/Spring"><rect width="1066" height="730" fill="white"/><g id="Group 94"><g id="Group 93"><path id="Fill 1" fill-rule="evenodd" clip-rule="evenodd" d="M168.824 667.704L190.473 677.261C195.932 681.669 202.296 684 208.883 684H829.926C836.512 684 842.879 681.669 848.334 677.261L869.988 667.704C870.143 667.578 870.306 667.47 870.466 667.355C872.66 651.398 873.818 635.109 873.818 618.548C873.818 422.572 715.142 263.702 519.405 263.702C323.667 263.702 164.99 422.572 164.99 618.548C164.99 635.109 166.15 651.396 168.342 667.355C168.504 667.47 168.667 667.578 168.824 667.704" fill="#B8EBFF"/><path id="Fill 7" fill-rule="evenodd" clip-rule="evenodd" d="M249.562 677.655H255.802V440.418H249.562V677.655Z" fill="#00AFA9"/><path id="Fill 8" fill-rule="evenodd" clip-rule="evenodd" d="M255.682 599.923H339.356C373.551 599.923 401.266 572.116 401.266 537.823V515.642H317.595C283.4 515.642 255.682 543.452 255.682 577.749V599.923Z" fill="#00AFA9"/><path id="Fill 13" fill-rule="evenodd" clip-rule="evenodd" d="M436.266 678.354H442.505V600.316H436.266V678.354Z" fill="#00AFA9"/><path id="Fill 14" fill-rule="evenodd" clip-rule="evenodd" d="M456.022 591.991C456.022 601.183 448.573 608.64 439.383 608.64C430.193 608.64 422.746 601.183 422.746 591.991C422.746 582.797 430.193 575.343 439.383 575.343C448.573 575.343 456.022 582.797 456.022 591.991" fill="#F1758E"/><g id="Group 67"><g id="Group 13"><path id="Fill 1_2" fill-rule="evenodd" clip-rule="evenodd" d="M576.059 227.21C590.475 227.21 603.992 231.02 615.695 237.662C746.081 -20.554 406.037 -20.554 536.422 237.662C548.125 231.02 561.644 227.21 576.059 227.21" fill="#96D4AF"/><path id="Fill 3" fill-rule="evenodd" clip-rule="evenodd" d="M656.529 307.05C945.218 290.931 775.196 -3.73686 616.9 238.354C640.436 252.252 656.281 277.783 656.529 307.05" fill="#96D4AF"/><path id="Fill 5" fill-rule="evenodd" clip-rule="evenodd" d="M495.591 307.05C495.839 277.783 511.684 252.252 535.22 238.354C376.925 -3.73802 206.902 290.931 495.591 307.05" fill="#96D4AF"/><path id="Fill 7_2" fill-rule="evenodd" clip-rule="evenodd" d="M495.591 308.438C206.902 324.558 376.925 619.227 535.22 377.135C511.684 363.236 495.839 337.705 495.591 308.438" fill="#96D4AF"/><path id="Fill 9" fill-rule="evenodd" clip-rule="evenodd" d="M656.529 308.438C656.281 337.705 640.436 363.236 616.9 377.135C775.196 619.227 945.218 324.558 656.529 308.438" fill="#96D4AF"/><path id="Fill 11" fill-rule="evenodd" clip-rule="evenodd" d="M576.059 388.279C561.644 388.279 548.125 384.469 536.422 377.828C406.037 636.043 746.081 636.044 615.695 377.828C603.992 384.469 590.475 388.279 576.059 388.279" fill="#96D4AF"/></g><g id="Group 53"><g id="Group 16"><path id="Fill 14_2" fill-rule="evenodd" clip-rule="evenodd" d="M576.64 462.718V418.266H573.061V462.718" fill="#BFE0D6"/></g><g id="Group 19"><path id="Fill 17" fill-rule="evenodd" clip-rule="evenodd" d="M591.01 474.669C591.01 483.599 583.776 490.838 574.85 490.838C565.925 490.838 558.691 483.599 558.691 474.669C558.691 465.738 565.925 458.499 574.85 458.499C583.776 458.499 591.01 465.738 591.01 474.669" fill="#6462BF"/></g><g id="Group 22"><path id="Fill 20" fill-rule="evenodd" clip-rule="evenodd" d="M574.27 157.762V202.215H577.849V157.762" fill="#BFE0D6"/></g><g id="Group 25"><path id="Fill 23" fill-rule="evenodd" clip-rule="evenodd" d="M559.9 145.811C559.9 136.881 567.135 129.642 576.06 129.642C584.985 129.642 592.219 136.881 592.219 145.811C592.219 154.741 584.985 161.981 576.06 161.981C567.135 161.981 559.9 154.741 559.9 145.811" fill="#6462BF"/></g><g id="Group 28"><path id="Fill 26" fill-rule="evenodd" clip-rule="evenodd" d="M450.033 234.875L488.508 257.102L490.297 254L451.823 231.773" fill="#BFE0D6"/></g><g id="Group 31"><path id="Fill 29" fill-rule="evenodd" clip-rule="evenodd" d="M432.506 241.352C424.777 236.886 422.129 226.998 426.591 219.264C431.054 211.531 440.936 208.881 448.666 213.346C456.395 217.812 459.042 227.699 454.58 235.433C450.119 243.167 440.236 245.816 432.506 241.352" fill="#6462BF"/></g><g id="Group 34"><path id="Fill 32" fill-rule="evenodd" clip-rule="evenodd" d="M707.51 379.572L669.035 357.345L667.246 360.447L705.72 382.674" fill="#BFE0D6"/></g><g id="Group 37"><path id="Fill 35" fill-rule="evenodd" clip-rule="evenodd" d="M725.039 373.094C732.768 377.559 735.416 387.448 730.955 395.182C726.492 402.915 716.609 405.565 708.879 401.1C701.15 396.635 698.502 386.747 702.964 379.013C707.427 371.279 717.31 368.63 725.039 373.094" fill="#6462BF"/></g><g id="Group 40"><path id="Fill 38" fill-rule="evenodd" clip-rule="evenodd" d="M704.66 237.993L666.186 260.22L667.976 263.32L706.45 241.095" fill="#BFE0D6"/></g><g id="Group 43"><path id="Fill 41" fill-rule="evenodd" clip-rule="evenodd" d="M707.819 219.565C715.548 215.101 725.431 217.75 729.894 225.484C734.356 233.218 731.708 243.105 723.979 247.571C716.25 252.036 706.367 249.386 701.904 241.652C697.442 233.919 700.09 224.03 707.819 219.565" fill="#6462BF"/></g><g id="Group 46"><path id="Fill 44" fill-rule="evenodd" clip-rule="evenodd" d="M450.643 384.404L489.118 362.178L487.328 359.077L448.854 381.302" fill="#BFE0D6"/></g><g id="Group 49"><path id="Fill 47" fill-rule="evenodd" clip-rule="evenodd" d="M447.486 402.831C439.757 407.295 429.874 404.646 425.412 396.912C420.949 389.178 423.597 379.291 431.326 374.825C439.055 370.36 448.938 373.01 453.401 380.744C457.863 388.477 455.215 398.366 447.486 402.831" fill="#6462BF"/></g><g id="Group 52"><path id="Fill 50" fill-rule="evenodd" clip-rule="evenodd" d="M576.061 388.279C531.61 388.279 495.574 352.223 495.574 307.744C495.574 263.266 531.61 227.209 576.061 227.209C620.512 227.209 656.548 263.266 656.548 307.744C656.548 352.223 620.512 388.279 576.061 388.279M694.335 301.561V301.561C701.535 285.395 696.507 266.393 682.254 255.913C674.817 250.443 669.649 242.43 667.734 233.396C664.063 216.084 648.833 203.669 631.145 203.572C621.916 203.522 613.027 200.077 606.17 193.895C593.031 182.048 573.416 180.962 559.05 191.286C551.554 196.673 542.34 199.115 533.162 198.146C515.572 196.289 499.065 206.946 493.507 223.749V223.749C490.608 232.515 484.587 239.91 476.593 244.523C461.271 253.366 454.177 271.697 459.552 288.559C462.355 297.358 461.828 306.88 458.072 315.315C450.87 331.481 455.9 350.482 470.153 360.963C477.589 366.432 482.757 374.446 484.672 383.479C488.343 400.792 503.573 413.208 521.261 413.303C530.491 413.355 539.378 416.798 546.235 422.98C559.375 434.828 578.989 435.914 593.355 425.59C600.852 420.202 610.067 417.76 619.244 418.73C636.834 420.587 653.341 409.93 658.898 393.128C661.799 384.361 667.819 376.966 675.813 372.353C691.134 363.509 698.229 345.179 692.855 328.317C690.051 319.519 690.577 309.996 694.335 301.561" fill="#8C71F9"/></g></g><g id="Group 66"><g id="Group 56"><path id="Fill 54" fill-rule="evenodd" clip-rule="evenodd" d="M749.383 143.404C749.383 143.404 770.179 148.472 767.246 173.282C764.314 198.093 772.045 205.563 786.975 211.698C801.905 217.834 805.372 232.507 804.572 240.777C804.572 240.777 823.754 209.502 805.319 175.368C788.242 143.75 749.383 143.404 749.383 143.404" fill="#6462BF"/></g><path id="Fill 57" fill-rule="evenodd" clip-rule="evenodd" d="M804.57 240.777C805.37 232.507 801.905 217.835 786.974 211.698C772.043 205.563 764.312 198.093 767.245 173.283C770.177 148.472 749.381 143.404 749.381 143.404C749.381 143.404 763.575 150.685 762.617 166.662C761.895 178.701 752.578 192.326 758.963 205.007C765.347 217.689 788.238 213.635 795.079 220.624C799.519 225.161 803.934 231.849 804.57 240.777" fill="#96D4AF"/><g id="Group 61"><path id="Fill 59" fill-rule="evenodd" clip-rule="evenodd" d="M631.634 540.176C631.634 540.176 616.895 555.615 596.951 540.716C577.007 525.816 566.707 528.772 553.971 538.612C541.235 548.452 526.715 544.201 519.979 539.388C519.979 539.388 537.533 571.48 576.173 572.568C611.965 573.575 631.634 540.176 631.634 540.176" fill="#6462BF"/></g><path id="Fill 62" fill-rule="evenodd" clip-rule="evenodd" d="M519.979 539.389C526.715 544.202 541.235 548.453 553.971 538.613C566.707 528.773 577.007 525.816 596.951 540.715C616.895 555.616 631.634 540.177 631.634 540.177C631.634 540.177 618.278 548.809 604.97 540.018C594.942 533.394 587.832 518.554 573.707 517.748C559.582 516.944 551.671 538.741 542.23 541.166C536.103 542.741 527.998 543.289 519.979 539.389" fill="#96D4AF"/><path id="Fill 64" fill-rule="evenodd" clip-rule="evenodd" d="M656.53 307.744C656.53 352.18 620.529 388.204 576.118 388.204C531.708 388.204 495.707 352.18 495.707 307.744C495.707 263.307 531.708 227.285 576.118 227.285C620.529 227.285 656.53 263.307 656.53 307.744" fill="#FF9737"/></g></g><g id="Group 14"><path id="Fill 12" fill-rule="evenodd" clip-rule="evenodd" d="M267.079 235.057V235.057C282.612 220.765 307.81 228.947 311.978 249.647C314.756 263.459 327.655 272.839 341.655 271.222C362.625 268.778 378.194 290.209 369.403 309.411V309.423C363.523 322.229 368.457 337.407 380.733 344.319C399.128 354.669 399.128 381.167 380.733 391.541C368.457 398.453 363.523 413.618 369.403 426.436C378.194 445.627 362.625 467.069 341.655 464.626C327.655 462.996 314.756 472.388 311.978 486.2C307.81 506.9 282.612 515.094 267.079 500.791C256.708 491.243 240.768 491.243 230.396 500.791C214.863 515.094 189.666 506.9 185.498 486.2C182.719 472.388 169.821 462.996 155.821 464.626C134.851 467.069 119.282 445.627 128.072 426.436C133.941 413.618 129.019 398.453 116.743 391.541C98.3357 381.167 98.3357 354.669 116.743 344.319C129.019 337.407 133.941 322.229 128.072 309.423V309.411C119.282 290.209 134.851 268.778 155.821 271.222C169.821 272.839 182.719 263.459 185.498 249.647C189.666 228.947 214.863 220.765 230.396 235.057C240.768 244.604 256.708 244.604 267.079 235.057" fill="#F46397"/></g><path id="Fill 15" fill-rule="evenodd" clip-rule="evenodd" d="M339.044 367.927C339.044 417.808 298.612 458.25 248.732 458.25C198.863 458.25 158.432 417.808 158.432 367.927C158.432 318.034 198.863 277.592 248.732 277.592C298.612 277.592 339.044 318.034 339.044 367.927" fill="#F3C4FF"/><path id="Fill 17_2" fill-rule="evenodd" clip-rule="evenodd" d="M310.721 367.927C310.721 402.164 282.972 429.919 248.744 429.919C214.505 429.919 186.756 402.164 186.756 367.927C186.756 333.691 214.505 305.923 248.744 305.923C282.972 305.923 310.721 333.691 310.721 367.927" fill="#F0DF47"/><g id="Group 91"><path id="Fill 18" fill-rule="evenodd" clip-rule="evenodd" d="M864.051 520.043H868.104V365.94H864.051V520.043Z" fill="#00AFA9"/><path id="Fill 19" fill-rule="evenodd" clip-rule="evenodd" d="M868.027 469.55H922.38C944.593 469.55 962.595 451.488 962.595 429.211V414.803H908.245C886.032 414.803 868.027 432.868 868.027 455.147V469.55Z" fill="#00AFA9"/><g id="Group 68"><path id="Fill 12_2" fill-rule="evenodd" clip-rule="evenodd" d="M875.431 232.542V232.542C885.521 223.259 901.889 228.573 904.596 242.02C906.401 250.992 914.779 257.084 923.873 256.034C937.495 254.447 947.608 268.367 941.898 280.841V280.849C938.079 289.167 941.284 299.026 949.258 303.516C961.207 310.239 961.207 327.451 949.258 334.19C941.284 338.68 938.079 348.531 941.898 356.857C947.608 369.323 937.495 383.252 923.873 381.664C914.779 380.606 906.401 386.707 904.596 395.679C901.889 409.125 885.521 414.447 875.431 405.156C868.694 398.955 858.34 398.955 851.603 405.156C841.513 414.447 825.145 409.125 822.438 395.679C820.633 386.707 812.255 380.606 803.16 381.664C789.539 383.252 779.426 369.323 785.136 356.857C788.948 348.531 785.75 338.68 777.776 334.19C765.819 327.451 765.819 310.239 777.776 303.516C785.75 299.026 788.948 289.167 785.136 280.849V280.841C779.426 268.367 789.539 254.447 803.16 256.034C812.255 257.084 820.633 250.992 822.438 242.02C825.145 228.573 841.513 223.259 851.603 232.542C858.34 238.744 868.694 238.744 875.431 232.542" fill="#FFACCA"/></g><path id="Fill 20_2" fill-rule="evenodd" clip-rule="evenodd" d="M922.179 318.851C922.179 351.253 895.915 377.523 863.514 377.523C831.121 377.523 804.857 351.253 804.857 318.851C804.857 286.442 831.121 260.172 863.514 260.172C895.915 260.172 922.179 286.442 922.179 318.851" fill="#F3C4FF"/><path id="Fill 21" fill-rule="evenodd" clip-rule="evenodd" d="M903.78 318.852C903.78 341.091 885.756 359.12 863.522 359.12C841.281 359.12 823.256 341.091 823.256 318.852C823.256 296.612 841.281 278.575 863.522 278.575C885.756 278.575 903.78 296.612 903.78 318.852" fill="#F0DF47"/></g><g id="Ellipse 1"><path d="M929.904 577.732C929.904 636.422 882.354 684 823.699 684C765.044 684 717.494 636.422 717.494 577.732C717.494 519.041 765.044 471.463 823.699 471.463C882.354 471.463 929.904 519.041 929.904 577.732Z" fill="#32D3CE"/><path d="M929.904 577.732C929.904 636.422 882.354 684 823.699 684C765.044 684 717.494 636.422 717.494 577.732C717.494 519.041 765.044 471.463 823.699 471.463C882.354 471.463 929.904 519.041 929.904 577.732Z" fill="#32D3CE"/><path d="M929.904 577.732C929.904 636.422 882.354 684 823.699 684C765.044 684 717.494 636.422 717.494 577.732C717.494 519.041 765.044 471.463 823.699 471.463C882.354 471.463 929.904 519.041 929.904 577.732Z" fill="#32D3CE"/><path d="M929.904 577.732C929.904 636.422 882.354 684 823.699 684C765.044 684 717.494 636.422 717.494 577.732C717.494 519.041 765.044 471.463 823.699 471.463C882.354 471.463 929.904 519.041 929.904 577.732Z" fill="#32D3CE"/><path d="M929.904 577.732C929.904 636.422 882.354 684 823.699 684C765.044 684 717.494 636.422 717.494 577.732C717.494 519.041 765.044 471.463 823.699 471.463C882.354 471.463 929.904 519.041 929.904 577.732Z" fill="#32D3CE"/><path d="M929.904 577.732C929.904 636.422 882.354 684 823.699 684C765.044 684 717.494 636.422 717.494 577.732C717.494 519.041 765.044 471.463 823.699 471.463C882.354 471.463 929.904 519.041 929.904 577.732Z" fill="#32D3CE"/><path d="M929.904 577.732C929.904 636.422 882.354 684 823.699 684C765.044 684 717.494 636.422 717.494 577.732C717.494 519.041 765.044 471.463 823.699 471.463C882.354 471.463 929.904 519.041 929.904 577.732Z" fill="#32D3CE"/><path d="M929.904 577.732C929.904 636.422 882.354 684 823.699 684C765.044 684 717.494 636.422 717.494 577.732C717.494 519.041 765.044 471.463 823.699 471.463C882.354 471.463 929.904 519.041 929.904 577.732Z" fill="#32D3CE"/><path d="M929.904 577.732C929.904 636.422 882.354 684 823.699 684C765.044 684 717.494 636.422 717.494 577.732C717.494 519.041 765.044 471.463 823.699 471.463C882.354 471.463 929.904 519.041 929.904 577.732Z" fill="#32D3CE"/></g><g id="Ellipse 2"><path d="M768.808 621.91C768.808 656.201 741.026 684 706.755 684C672.485 684 644.703 656.201 644.703 621.91C644.703 587.619 672.485 559.821 706.755 559.821C741.026 559.821 768.808 587.619 768.808 621.91Z" fill="#32D3CE"/><path d="M768.808 621.91C768.808 656.201 741.026 684 706.755 684C672.485 684 644.703 656.201 644.703 621.91C644.703 587.619 672.485 559.821 706.755 559.821C741.026 559.821 768.808 587.619 768.808 621.91Z" fill="#32D3CE"/><path d="M768.808 621.91C768.808 656.201 741.026 684 706.755 684C672.485 684 644.703 656.201 644.703 621.91C644.703 587.619 672.485 559.821 706.755 559.821C741.026 559.821 768.808 587.619 768.808 621.91Z" fill="#32D3CE"/><path d="M768.808 621.91C768.808 656.201 741.026 684 706.755 684C672.485 684 644.703 656.201 644.703 621.91C644.703 587.619 672.485 559.821 706.755 559.821C741.026 559.821 768.808 587.619 768.808 621.91Z" fill="#32D3CE"/><path d="M768.808 621.91C768.808 656.201 741.026 684 706.755 684C672.485 684 644.703 656.201 644.703 621.91C644.703 587.619 672.485 559.821 706.755 559.821C741.026 559.821 768.808 587.619 768.808 621.91Z" fill="#32D3CE"/><path d="M768.808 621.91C768.808 656.201 741.026 684 706.755 684C672.485 684 644.703 656.201 644.703 621.91C644.703 587.619 672.485 559.821 706.755 559.821C741.026 559.821 768.808 587.619 768.808 621.91Z" fill="#32D3CE"/><path d="M768.808 621.91C768.808 656.201 741.026 684 706.755 684C672.485 684 644.703 656.201 644.703 621.91C644.703 587.619 672.485 559.821 706.755 559.821C741.026 559.821 768.808 587.619 768.808 621.91Z" fill="#32D3CE"/><path d="M768.808 621.91C768.808 656.201 741.026 684 706.755 684C672.485 684 644.703 656.201 644.703 621.91C644.703 587.619 672.485 559.821 706.755 559.821C741.026 559.821 768.808 587.619 768.808 621.91Z" fill="#32D3CE"/><path d="M768.808 621.91C768.808 656.201 741.026 684 706.755 684C672.485 684 644.703 656.201 644.703 621.91C644.703 587.619 672.485 559.821 706.755 559.821C741.026 559.821 768.808 587.619 768.808 621.91Z" fill="#32D3CE"/></g><g id="Ellipse 3"><path d="M679.308 630.866C679.308 660.211 655.534 684 626.206 684C596.878 684 573.104 660.211 573.104 630.866C573.104 601.52 596.878 577.731 626.206 577.731C655.534 577.731 679.308 601.52 679.308 630.866Z" fill="#32D3CE"/><path d="M679.308 630.866C679.308 660.211 655.534 684 626.206 684C596.878 684 573.104 660.211 573.104 630.866C573.104 601.52 596.878 577.731 626.206 577.731C655.534 577.731 679.308 601.52 679.308 630.866Z" fill="#32D3CE"/><path d="M679.308 630.866C679.308 660.211 655.534 684 626.206 684C596.878 684 573.104 660.211 573.104 630.866C573.104 601.52 596.878 577.731 626.206 577.731C655.534 577.731 679.308 601.52 679.308 630.866Z" fill="#32D3CE"/><path d="M679.308 630.866C679.308 660.211 655.534 684 626.206 684C596.878 684 573.104 660.211 573.104 630.866C573.104 601.52 596.878 577.731 626.206 577.731C655.534 577.731 679.308 601.52 679.308 630.866Z" fill="#32D3CE"/><path d="M679.308 630.866C679.308 660.211 655.534 684 626.206 684C596.878 684 573.104 660.211 573.104 630.866C573.104 601.52 596.878 577.731 626.206 577.731C655.534 577.731 679.308 601.52 679.308 630.866Z" fill="#32D3CE"/><path d="M679.308 630.866C679.308 660.211 655.534 684 626.206 684C596.878 684 573.104 660.211 573.104 630.866C573.104 601.52 596.878 577.731 626.206 577.731C655.534 577.731 679.308 601.52 679.308 630.866Z" fill="#32D3CE"/><path d="M679.308 630.866C679.308 660.211 655.534 684 626.206 684C596.878 684 573.104 660.211 573.104 630.866C573.104 601.52 596.878 577.731 626.206 577.731C655.534 577.731 679.308 601.52 679.308 630.866Z" fill="#32D3CE"/><path d="M679.308 630.866C679.308 660.211 655.534 684 626.206 684C596.878 684 573.104 660.211 573.104 630.866C573.104 601.52 596.878 577.731 626.206 577.731C655.534 577.731 679.308 601.52 679.308 630.866Z" fill="#32D3CE"/><path d="M679.308 630.866C679.308 660.211 655.534 684 626.206 684C596.878 684 573.104 660.211 573.104 630.866C573.104 601.52 596.878 577.731 626.206 577.731C655.534 577.731 679.308 601.52 679.308 630.866Z" fill="#32D3CE"/></g><path id="Rectangle 1" d="M617.256 639.821C617.256 613.443 638.639 592.06 665.017 592.06H929.904V624.298C929.904 657.271 903.175 684 870.202 684H624.42C620.463 684 617.256 680.792 617.256 676.836V639.821Z" fill="#32D3CE"/><g id="Group 92"><g id="Group 68_2"><path id="Fill 12_3" fill-rule="evenodd" clip-rule="evenodd" d="M722.564 489.195V489.195C729.932 482.416 741.885 486.297 743.862 496.116C745.18 502.668 751.299 507.117 757.94 506.35C767.887 505.191 775.273 515.357 771.103 524.466V524.472C768.313 530.546 770.654 537.746 776.477 541.025C785.203 545.934 785.203 558.504 776.477 563.425C770.654 566.704 768.313 573.898 771.103 579.978C775.273 589.082 767.887 599.253 757.94 598.094C751.299 597.321 745.18 601.776 743.862 608.328C741.885 618.147 729.932 622.034 722.564 615.249C717.644 610.72 710.083 610.72 705.163 615.249C697.795 622.034 685.842 618.147 683.865 608.328C682.547 601.776 676.428 597.321 669.787 598.094C659.84 599.253 652.454 589.082 656.624 579.978C659.408 573.898 657.073 566.704 651.25 563.425C642.518 558.504 642.518 545.934 651.25 541.025C657.073 537.746 659.408 530.546 656.624 524.472V524.466C652.454 515.357 659.84 505.191 669.787 506.35C676.428 507.117 682.547 502.668 683.865 496.116C685.842 486.297 697.795 482.416 705.163 489.195C710.083 493.724 717.644 493.724 722.564 489.195" fill="#B784F8"/></g><path id="Fill 20_3" fill-rule="evenodd" clip-rule="evenodd" d="M756.703 552.224C756.703 575.886 737.524 595.07 713.862 595.07C690.207 595.07 671.027 575.886 671.027 552.224C671.027 528.557 690.207 509.373 713.862 509.373C737.524 509.373 756.703 528.557 756.703 552.224" fill="#F3C4FF"/><path id="Fill 21_2" fill-rule="evenodd" clip-rule="evenodd" d="M743.267 552.224C743.267 568.464 730.104 581.63 713.868 581.63C697.626 581.63 684.463 568.464 684.463 552.224C684.463 535.983 697.626 522.811 713.868 522.811C730.104 522.811 743.267 535.983 743.267 552.224" fill="#F0DF47"/></g><path id="Fill 19_2" fill-rule="evenodd" clip-rule="evenodd" d="M600.846 650.389H546.493C524.28 650.389 506.278 632.326 506.278 610.05V595.642H560.628C582.841 595.642 600.846 613.706 600.846 635.985V650.389Z" fill="#00AFA9"/><path id="Fill 20_4" fill-rule="evenodd" clip-rule="evenodd" d="M797.564 638.449H835.321C850.751 638.449 863.257 625.901 863.257 610.427V600.418H825.502C810.072 600.418 797.564 612.967 797.564 628.443V638.449Z" fill="#00AFA9"/><path id="Fill 21_3" fill-rule="evenodd" clip-rule="evenodd" d="M925.973 684.011H932.212V605.973H925.973V684.011Z" fill="#00AFA9"/><path id="Fill 22" fill-rule="evenodd" clip-rule="evenodd" d="M945.728 597.648C945.728 606.84 938.278 614.296 929.088 614.296C919.898 614.296 912.451 606.84 912.451 597.648C912.451 588.454 919.898 581 929.088 581C938.278 581 945.728 588.454 945.728 597.648" fill="#F1758E"/></g><rect id="Rectangle 2" x="138.916" y="638" width="356.786" height="46" rx="23" fill="#32D3CE"/><ellipse id="Ellipse 4" cx="164.9" cy="645" rx="38.9766" ry="39" fill="#32D3CE"/><ellipse id="Ellipse 5" cx="231.861" cy="631" rx="16.9898" ry="17" fill="#32D3CE"/><path id="Fill 20_5" fill-rule="evenodd" clip-rule="evenodd" d="M189.885 685H236.412C255.426 685 270.836 669.493 270.836 650.369V638H224.311C205.297 638 189.885 653.508 189.885 672.634V685Z" fill="#00AFA9"/><ellipse id="Ellipse 6" cx="354.286" cy="633.5" rx="11.4931" ry="11.5" fill="#F0DF47"/></g></g></svg>