<svg viewBox="306.4749999999999 105.23722627737232 453.0499999999998 466.2408759124088" fill="none" xmlns="http://www.w3.org/2000/svg" xmlns:xlink="http://www.w3.org/1999/xlink" overflow="visible" width="453.0499999999998px" height="466.2408759124088px"><g id="Master/Stickers/Breakfast"><g id="Blush/Stickers/Breakfast"><g id="Group 46"><g id="Group 3"><path id="Fill 1" fill-rule="evenodd" clip-rule="evenodd" d="M532.242 111.874C408.295 111.874 307.814 212.415 307.814 336.436C307.814 460.459 408.295 560.998 532.242 560.998C656.191 560.998 756.669 460.459 756.669 336.436C756.669 212.415 656.191 111.874 532.242 111.874" fill="#3A3E5B"/></g><path id="Fill 4" fill-rule="evenodd" clip-rule="evenodd" d="M532.679 176C444.367 176 372.775 247.635 372.775 336C372.775 424.365 444.367 496 532.679 496C620.992 496 692.583 424.365 692.583 336C692.583 247.635 620.992 176 532.679 176" fill="#101335"/><path id="Fill 6" fill-rule="evenodd" clip-rule="evenodd" d="M695.983 268.421L479.242 186.367C468.382 182.255 456.251 187.734 452.143 198.604C448.037 209.474 453.509 221.617 464.368 225.729C468.159 227.163 470.069 231.403 468.635 235.198L410.731 388.44C404.783 404.184 412.71 421.772 428.437 427.726L574.5 483.021C590.227 488.975 607.798 481.041 613.746 465.299L671.65 312.054C673.085 308.258 677.319 306.346 681.11 307.781C691.969 311.893 704.101 306.416 708.209 295.544C712.315 284.676 706.843 272.533 695.983 268.421" fill="#F06647"/><path id="Fill 8" fill-rule="evenodd" clip-rule="evenodd" d="M712.421 336.803L548.866 173.148C540.671 164.951 527.386 164.951 519.191 173.148C510.998 181.348 510.998 194.643 519.191 202.839C522.053 205.702 522.053 210.344 519.191 213.203L403.663 328.806C391.795 340.679 391.795 359.932 403.663 371.806L513.882 482.093C525.75 493.969 544.992 493.969 556.86 482.093L672.388 366.495C675.25 363.632 679.888 363.632 682.747 366.495C690.942 374.695 704.226 374.695 712.421 366.495C720.616 358.295 720.616 345.003 712.421 336.803" fill="#F9A471"/><path id="Fill 10" fill-rule="evenodd" clip-rule="evenodd" d="M596.416 220.872C586.227 210.499 569.01 207.944 556.26 214.911C545.564 220.755 538.411 232.156 527.123 236.748C516.07 241.248 503.607 238.267 491.68 238.026C479.545 237.781 467.36 240.513 456.485 245.921C441.525 253.358 428.256 268.387 430.362 284.993C431.658 295.203 438.549 304.366 438.303 314.653C437.966 328.754 424.337 342.323 430.21 355.14C433.546 362.416 442.09 365.932 446.244 372.772C452.328 382.799 447.104 395.508 445.929 407.18C443.671 429.662 459.603 452.592 481.421 458.257C492.087 461.03 503.785 460.134 513.62 465.116C521.336 469.025 527.041 476.167 534.738 480.115C550.259 488.074 571.918 478.765 576.869 462.006C578.791 455.501 578.476 448.442 580.827 442.079C586.311 427.229 598.368 426.53 613.583 422.277C628.798 418.022 646.114 411.73 651.206 396.739C655.316 384.635 649.635 371.585 643.886 360.17C638.135 348.755 637.29 330.783 640.554 318.424C642.299 311.807 646.66 305.888 647.088 299.058C647.415 293.802 645.321 288.646 642.409 284.264C633.32 270.589 621.726 273.154 611.034 260.703C603.624 252.071 607.567 234.589 596.416 220.872" fill="white"/><path id="Fill 12" fill-rule="evenodd" clip-rule="evenodd" d="M574.62 345.966C557.252 363.345 529.094 363.345 511.724 345.966C494.358 328.586 494.358 300.411 511.724 283.035C529.094 265.655 557.252 265.655 574.62 283.035C591.988 300.411 591.988 328.586 574.62 345.966" fill="#FFCC37"/><path id="Fill 14" fill-rule="evenodd" clip-rule="evenodd" d="M601.713 335.299C601.787 335.225 601.861 335.15 601.935 335.074C604.109 332.902 600.738 329.528 598.564 331.702L598.342 331.925C596.17 334.099 599.539 337.471 601.713 335.299C601.787 335.225 601.861 335.15 601.935 335.074C604.109 332.902 600.738 329.528 598.564 331.702L598.342 331.925C596.17 334.099 599.539 337.471 601.713 335.299" fill="#3A3E5B"/><path id="Fill 16" fill-rule="evenodd" clip-rule="evenodd" d="M574.335 323.967C574.453 324.084 574.571 324.2 574.686 324.319C574.897 324.544 575.147 324.703 575.433 324.798C575.712 324.945 576.009 325.011 576.329 324.999C576.649 325.011 576.946 324.945 577.223 324.798C577.512 324.703 577.762 324.544 577.97 324.319C578.092 324.163 578.214 324.006 578.333 323.849C578.544 323.488 578.649 323.095 578.651 322.676L578.569 322.059C578.457 321.667 578.259 321.324 577.97 321.033C577.855 320.916 577.737 320.8 577.619 320.683C577.409 320.458 577.159 320.297 576.872 320.204C576.596 320.057 576.296 319.989 575.976 320.001C575.658 319.989 575.359 320.057 575.083 320.204C574.796 320.297 574.546 320.458 574.335 320.683C574.214 320.839 574.094 320.996 573.972 321.153C573.762 321.516 573.656 321.904 573.654 322.324C573.683 322.532 573.71 322.736 573.739 322.943C573.848 323.335 574.049 323.675 574.335 323.967" fill="#3A3E5B"/><path id="Fill 18" fill-rule="evenodd" clip-rule="evenodd" d="M578.017 357.294C577.797 357.076 577.577 356.854 577.359 356.636C577.162 356.426 576.929 356.275 576.661 356.188C576.403 356.052 576.123 355.99 575.824 356.001C575.525 355.99 575.247 356.052 574.989 356.188C574.721 356.275 574.487 356.426 574.291 356.636C574.177 356.782 574.065 356.929 573.951 357.076C573.755 357.413 573.656 357.78 573.654 358.171L573.733 358.748C573.836 359.114 574.021 359.433 574.291 359.704C574.511 359.924 574.729 360.144 574.948 360.362C575.145 360.574 575.378 360.723 575.647 360.812C575.905 360.948 576.185 361.01 576.482 360.999C576.781 361.01 577.06 360.948 577.319 360.812C577.587 360.723 577.82 360.574 578.017 360.362C578.131 360.218 578.242 360.069 578.356 359.922C578.553 359.585 578.651 359.22 578.651 358.829C578.626 358.636 578.601 358.445 578.574 358.252C578.472 357.884 578.285 357.566 578.017 357.294" fill="#3A3E5B"/><path id="Fill 20" fill-rule="evenodd" clip-rule="evenodd" d="M537.677 354C540.34 354 540.343 349 537.677 349C535.013 349 535.01 354 537.677 354" fill="#3A3E5B"/><path id="Fill 22" fill-rule="evenodd" clip-rule="evenodd" d="M525.684 376C528.348 376 528.351 371 525.684 371C523.021 371 523.017 376 525.684 376" fill="#3A3E5B"/><path id="Fill 24" fill-rule="evenodd" clip-rule="evenodd" d="M492.785 268.094C492.903 268.463 493.021 268.834 493.138 269.206C493.208 269.523 493.347 269.799 493.553 270.038C493.716 270.302 493.933 270.511 494.204 270.665C494.472 270.843 494.759 270.941 495.069 270.954C495.376 271.028 495.686 271.013 495.994 270.91C496.18 270.83 496.365 270.748 496.549 270.665C496.898 270.448 497.177 270.155 497.383 269.788C497.462 269.592 497.538 269.399 497.617 269.206C497.728 268.772 497.728 268.337 497.617 267.905C497.499 267.536 497.383 267.165 497.266 266.793C497.193 266.476 497.055 266.2 496.848 265.966C496.685 265.697 496.469 265.488 496.198 265.334C495.93 265.156 495.643 265.06 495.333 265.045C495.025 264.973 494.716 264.987 494.408 265.089C494.222 265.169 494.038 265.251 493.853 265.334C493.504 265.551 493.225 265.844 493.021 266.211C492.942 266.407 492.864 266.602 492.785 266.793C492.676 267.228 492.676 267.662 492.785 268.094" fill="#3A3E5B"/><path id="Fill 26" fill-rule="evenodd" clip-rule="evenodd" d="M479.394 310.967C479.512 311.084 479.629 311.2 479.745 311.319C479.955 311.544 480.205 311.703 480.492 311.798C480.771 311.945 481.068 312.011 481.388 311.999C481.708 312.011 482.005 311.945 482.282 311.798C482.571 311.703 482.818 311.544 483.029 311.319L483.392 310.847C483.603 310.488 483.708 310.095 483.71 309.676L483.627 309.059C483.516 308.667 483.318 308.325 483.029 308.033L482.678 307.683C482.467 307.456 482.218 307.297 481.931 307.204C481.654 307.055 481.355 306.989 481.035 307.001C480.717 306.989 480.418 307.055 480.141 307.204C479.852 307.297 479.605 307.456 479.394 307.683C479.272 307.837 479.153 307.996 479.031 308.153C478.82 308.516 478.715 308.905 478.713 309.324C478.742 309.53 478.769 309.736 478.798 309.943C478.907 310.335 479.107 310.675 479.394 310.967" fill="#3A3E5B"/><path id="Fill 28" fill-rule="evenodd" clip-rule="evenodd" d="M554.667 267C557.33 267 557.334 262 554.667 262C552.004 262 552 267 554.667 267" fill="#3A3E5B"/><path id="Fill 30" fill-rule="evenodd" clip-rule="evenodd" d="M543.673 282C546.336 282 546.339 277 543.673 277C541.009 277 541.006 282 543.673 282" fill="#3A3E5B"/><path id="Fill 32" fill-rule="evenodd" clip-rule="evenodd" d="M533.678 272C536.342 272 536.345 267 533.678 267C531.015 267 531.012 272 533.678 272" fill="#3A3E5B"/><path id="Fill 34" fill-rule="evenodd" clip-rule="evenodd" d="M502.698 395C505.361 395 505.365 390 502.698 390C500.035 390 500.031 395 502.698 395" fill="#3A3E5B"/><path id="Fill 36" fill-rule="evenodd" clip-rule="evenodd" d="M477.349 353.706C477.569 353.924 477.787 354.144 478.007 354.364C478.204 354.574 478.435 354.725 478.705 354.812C478.964 354.948 479.243 355.01 479.54 354.999C479.841 355.01 480.119 354.948 480.377 354.812C480.645 354.725 480.879 354.574 481.075 354.364C481.189 354.218 481.301 354.069 481.415 353.924C481.612 353.587 481.71 353.22 481.71 352.829L481.633 352.252C481.531 351.886 481.345 351.566 481.075 351.296C480.856 351.076 480.638 350.856 480.418 350.636C480.221 350.426 479.988 350.277 479.72 350.188C479.461 350.052 479.181 349.99 478.883 350.001C478.586 349.99 478.306 350.052 478.047 350.188C477.777 350.277 477.546 350.426 477.349 350.636C477.236 350.782 477.124 350.931 477.01 351.078C476.813 351.415 476.715 351.78 476.713 352.171L476.792 352.748C476.894 353.114 477.081 353.434 477.349 353.706" fill="#3A3E5B"/><path id="Fill 38" fill-rule="evenodd" clip-rule="evenodd" d="M558.665 389C561.328 389 561.332 384 558.665 384C556.002 384 555.998 389 558.665 389" fill="#3A3E5B"/><path id="Fill 40" fill-rule="evenodd" clip-rule="evenodd" d="M594.962 289.033L594.609 288.683C594.401 288.456 594.151 288.297 593.862 288.204C593.585 288.055 593.288 287.989 592.968 288.001C592.647 287.989 592.35 288.055 592.071 288.204C591.784 288.297 591.534 288.456 591.324 288.683C591.204 288.837 591.082 288.994 590.963 289.153C590.752 289.514 590.645 289.905 590.645 290.324C590.671 290.53 590.7 290.734 590.727 290.943C590.837 291.335 591.037 291.675 591.324 291.967C591.442 292.084 591.559 292.2 591.677 292.319C591.888 292.544 592.137 292.703 592.424 292.798C592.701 292.945 593.001 293.011 593.319 292.999C593.639 293.011 593.938 292.945 594.215 292.798C594.502 292.703 594.752 292.544 594.962 292.319L595.326 291.847C595.536 291.486 595.642 291.095 595.642 290.676C595.615 290.47 595.588 290.266 595.559 290.059C595.45 289.667 595.249 289.325 594.962 289.033" fill="#3A3E5B"/><path id="Fill 42" fill-rule="evenodd" clip-rule="evenodd" d="M572.655 298C575.318 298 575.322 293 572.655 293C569.992 293 569.988 298 572.655 298" fill="#3A3E5B"/><path id="Fill 44" fill-rule="evenodd" clip-rule="evenodd" d="M526.318 313.704C526.538 313.924 526.758 314.144 526.976 314.364C527.172 314.574 527.406 314.723 527.674 314.812C527.932 314.948 528.212 315.01 528.511 314.999C528.81 315.01 529.088 314.948 529.346 314.812C529.614 314.723 529.847 314.574 530.044 314.364C530.158 314.218 530.272 314.069 530.384 313.924C530.58 313.585 530.679 313.22 530.681 312.829L530.602 312.252C530.499 311.886 530.314 311.566 530.044 311.294C529.824 311.076 529.606 310.856 529.387 310.636C529.19 310.426 528.956 310.275 528.688 310.188C528.43 310.052 528.15 309.99 527.853 310.001C527.554 309.99 527.275 310.052 527.016 310.188C526.748 310.275 526.515 310.426 526.318 310.636C526.204 310.782 526.092 310.931 525.979 311.076C525.782 311.415 525.684 311.78 525.684 312.171C525.709 312.364 525.734 312.555 525.761 312.748C525.863 313.114 526.05 313.434 526.318 313.704" fill="#3A3E5B"/></g></g></g></svg>