<svg viewBox="93.27500000000009 11.989051094890556 919.425 706.0218978102191" fill="none" xmlns="http://www.w3.org/2000/svg" xmlns:xlink="http://www.w3.org/1999/xlink" overflow="visible" width="919.425px" height="706.0218978102191px"><g id="Master/Spot Illustration/Jae in Space"><g id="Background" transform="translate(49 -17) scale(1.3333333333333333 1.3027027027027027)"><g id="Background/Blobs"><g id="Group 7"><g id="Group 3"><path id="Fill 1" fill-rule="evenodd" clip-rule="evenodd" d="M293.2 148.153C298.708 140.606 304.359 132.745 306.214 123.588C308.068 114.429 305.01 103.571 296.716 99.2672C281.758 91.5072 262.524 109.027 247.546 101.307C238.749 96.7732 236.014 85.7562 233.916 76.0842C231.817 66.4122 228.244 55.3932 218.972 51.9292C209.616 48.4342 199.57 54.5852 191.949 61.0422C184.328 67.4992 176.094 75.0272 166.11 74.7102C155.939 74.3862 148.094 66.0402 138.974 61.5232C128.09 56.1332 114.339 56.5112 104.212 63.2172C94.0853 69.9232 88.3263 82.9832 91.0033 94.8312C93.1143 104.174 99.9723 113.005 97.7753 122.327C96.1163 129.366 89.5993 134.259 82.8713 136.91C76.1423 139.561 68.8543 140.59 62.1643 143.335C52.3673 147.355 43.9723 155.442 41.0433 165.619C38.1143 175.796 41.4273 187.869 50.0393 194.03C57.6123 199.447 68.4273 200.236 74.1563 207.576C81.3393 216.778 76.3053 230.068 71.1543 240.543C66.0013 251.017 61.2233 264.497 68.7193 273.446C74.8073 280.715 85.7613 280.778 95.2273 280.237C100.367 279.944 105.507 279.65 110.647 279.356C113.1 279.216 115.688 279.102 117.876 280.22C120.581 281.602 122.067 284.54 123.267 287.331C127.527 297.232 130.505 307.802 136.459 316.789C142.412 325.774 152.37 333.164 163.107 332.21C178.167 330.872 189.846 314.005 204.762 316.48C213.464 317.925 219.539 325.547 226.632 330.792C238.469 339.545 255.172 341.757 268.394 335.283C281.616 328.808 290.244 313.442 287.76 298.931C285.503 285.755 275.097 274.216 276.222 260.895C277.396 247.007 290.302 237.639 301.179 228.925C312.057 220.213 322.914 206.868 318.192 193.756C314.974 184.818 305.71 179.879 298.735 173.431C291.759 166.983 287.096 154.994 294.096 148.573" fill="#FFEBC0"/></g><g id="Group 6"><path id="Fill 4" fill-rule="evenodd" clip-rule="evenodd" d="M640.126 244.98C654.08 251.029 672.295 243.685 678.151 229.649C684.007 215.613 676.413 197.501 662.297 191.838C657.659 189.978 652.428 189.266 648.496 186.18C641.274 180.514 641.513 169.26 645.138 160.827C648.763 152.393 654.967 145.194 658.043 136.545C661.119 127.897 659.755 116.377 651.582 112.199C643.876 108.259 633.661 112.546 626.274 108.036C618.873 103.515 618.509 92.8703 620.55 84.4403C622.59 76.0103 626.151 67.2413 623.535 58.9713C618.614 43.4183 596.877 41.9523 581.319 46.8603C574.591 48.9823 567.435 51.7403 560.704 49.6283C554.621 47.7203 550.443 42.2903 545.347 38.4593C536.058 31.4793 522.923 30.0103 512.322 34.7673C501.721 39.5233 494.085 50.3113 493.124 61.8903C492.469 69.7723 494.609 78.1513 491.363 85.3623C486.043 97.1773 470.445 98.7873 458.096 102.711C438.117 109.061 420.944 130.619 428.147 150.306C433.345 164.514 449.675 174.524 449.208 189.645C448.607 209.157 419.873 221.671 424.581 240.616C429.456 260.232 461.896 256.158 473.353 272.811C479.032 281.066 477.92 292.338 482.447 301.277C487.829 311.906 500.382 317.263 512.287 317.692C524.193 318.12 535.82 314.535 547.357 311.563C551.65 310.458 556.193 309.434 560.462 310.627C566.604 312.345 570.552 318.096 575.284 322.372C584.935 331.092 599.515 333.934 611.734 329.476C623.953 325.018 633.278 313.456 635.046 300.569C636.41 290.632 633.588 280.544 634.325 270.542C635.062 260.538 641.538 249.425 651.567 249.296" fill="#E7ECF7"/></g></g></g></g><g id="Environment"><g id="Group 53"><path id="Fill 1" fill-rule="evenodd" clip-rule="evenodd" d="M544.733 221.295H514.853C417.127 221.295 337.906 298.713 337.906 394.214V524.79C337.906 537.841 348.733 548.421 362.088 548.421H697.499C710.853 548.421 721.68 537.841 721.68 524.79V394.214C721.68 298.713 642.458 221.295 544.733 221.295" fill="#F8E2F5"/><path id="Fill 3" fill-rule="evenodd" clip-rule="evenodd" d="M681.376 465.283C679.729 451.686 678.954 438.1 678.305 424.52C677.996 417.729 677.701 410.941 677.768 404.147C677.936 397.194 677.829 390.973 677.116 384.358C676.413 377.827 675.307 371.31 673.69 364.892C672.065 358.479 670.053 352.133 667.605 345.926C662.768 333.476 656.115 321.657 648.22 310.551L648.209 310.538C647.807 309.971 647.949 309.191 648.531 308.797C649.064 308.435 649.781 308.525 650.206 308.982C659.674 319.131 667.877 330.612 674.075 343.16C680.301 355.68 684.85 369.135 687.094 383.054C687.426 384.786 687.631 386.536 687.861 388.285L688.203 390.91L688.438 393.591C688.841 397.25 688.762 400.532 688.82 403.969C688.885 410.781 688.592 417.598 688.281 424.412C687.632 438.043 686.858 451.67 685.21 465.283C685.085 466.318 684.125 467.058 683.067 466.935C682.162 466.83 681.477 466.129 681.376 465.283" fill="white"/><path id="Fill 5" fill-rule="evenodd" clip-rule="evenodd" d="M337.906 522.795C247.09 537.545 197.746 598.107 197.746 598.107H861.839C861.839 598.107 812.496 537.545 721.68 522.795H337.906Z" fill="#F06647"/><path id="Fill 7" fill-rule="evenodd" clip-rule="evenodd" d="M336.998 707.666C267.553 686.255 197.746 639.688 197.746 639.688H861.839C861.839 639.688 792.032 686.255 722.587 707.666C706.535 712.615 689.77 715 672.937 715H386.648C369.814 715 353.05 712.615 336.998 707.666" fill="#F1758E"/><g id="Group 11"><path id="Fill 9" fill-rule="evenodd" clip-rule="evenodd" d="M861.839 639.688C861.839 639.688 878.038 621.43 861.839 598.106H197.747C197.747 598.106 181.547 616.364 197.747 639.688H861.839Z" fill="#775CA6"/></g><path id="Fill 12" fill-rule="evenodd" clip-rule="evenodd" d="M691.876 522.795C691.876 522.795 759.13 544.466 805.51 598.107H706.325C706.325 598.107 691.545 550.538 663.664 522.785L691.876 522.795Z" fill="#F9A471"/><path id="Fill 14" fill-rule="evenodd" clip-rule="evenodd" d="M362.265 522.795C362.265 522.795 295.011 544.466 248.631 598.107H347.814C347.814 598.107 362.594 550.538 390.477 522.785L362.265 522.795Z" fill="#F9A471"/><path id="Fill 16" fill-rule="evenodd" clip-rule="evenodd" d="M818.316 619.142C818.316 628.595 810.473 636.26 800.799 636.26C791.125 636.26 783.283 628.595 783.283 619.142C783.283 609.688 791.125 602.023 800.799 602.023C810.473 602.023 818.316 609.688 818.316 619.142" fill="#4D439B"/><path id="Fill 18" fill-rule="evenodd" clip-rule="evenodd" d="M682.813 619.142C682.813 628.595 674.97 636.26 665.296 636.26C655.622 636.26 647.779 628.595 647.779 619.142C647.779 609.688 655.622 602.023 665.296 602.023C674.97 602.023 682.813 609.688 682.813 619.142" fill="#4D439B"/><path id="Fill 20" fill-rule="evenodd" clip-rule="evenodd" d="M547.31 619.142C547.31 628.595 539.467 636.26 529.793 636.26C520.12 636.26 512.277 628.595 512.277 619.142C512.277 609.688 520.12 602.023 529.793 602.023C539.467 602.023 547.31 609.688 547.31 619.142" fill="#4D439B"/><path id="Fill 22" fill-rule="evenodd" clip-rule="evenodd" d="M411.808 619.142C411.808 628.595 403.964 636.26 394.29 636.26C384.617 636.26 376.773 628.595 376.773 619.142C376.773 609.688 384.617 602.023 394.29 602.023C403.964 602.023 411.808 609.688 411.808 619.142" fill="#4D439B"/><path id="Fill 24" fill-rule="evenodd" clip-rule="evenodd" d="M276.302 619.142C276.302 628.595 268.461 636.26 258.785 636.26C249.113 636.26 241.27 628.595 241.27 619.142C241.27 609.688 249.113 602.023 258.785 602.023C268.461 602.023 276.302 609.688 276.302 619.142" fill="#4D439B"/><path id="Fill 26" fill-rule="evenodd" clip-rule="evenodd" d="M812.972 619.142C812.972 625.711 807.522 631.037 800.799 631.037C794.077 631.037 788.627 625.711 788.627 619.142C788.627 612.572 794.077 607.246 800.799 607.246C807.522 607.246 812.972 612.572 812.972 619.142" fill="#F9A471"/><path id="Fill 28" fill-rule="evenodd" clip-rule="evenodd" d="M677.468 619.142C677.468 625.711 672.018 631.037 665.295 631.037C658.573 631.037 653.123 625.711 653.123 619.142C653.123 612.572 658.573 607.246 665.295 607.246C672.018 607.246 677.468 612.572 677.468 619.142" fill="#F9A471"/><path id="Fill 30" fill-rule="evenodd" clip-rule="evenodd" d="M541.966 619.142C541.966 625.711 536.516 631.037 529.793 631.037C523.071 631.037 517.621 625.711 517.621 619.142C517.621 612.572 523.071 607.246 529.793 607.246C536.516 607.246 541.966 612.572 541.966 619.142" fill="#F9A471"/><path id="Fill 32" fill-rule="evenodd" clip-rule="evenodd" d="M406.462 619.142C406.462 625.711 401.012 631.037 394.29 631.037C387.567 631.037 382.117 625.711 382.117 619.142C382.117 612.572 387.567 607.246 394.29 607.246C401.012 607.246 406.462 612.572 406.462 619.142" fill="#F9A471"/><path id="Fill 34" fill-rule="evenodd" clip-rule="evenodd" d="M270.958 619.142C270.958 625.711 265.508 631.037 258.786 631.037C252.063 631.037 246.613 625.711 246.613 619.142C246.613 612.572 252.063 607.246 258.786 607.246C265.508 607.246 270.958 612.572 270.958 619.142" fill="#F9A471"/><path id="Fill 36" fill-rule="evenodd" clip-rule="evenodd" d="M808.041 619.142C808.041 623.051 804.798 626.219 800.799 626.219C796.799 626.219 793.557 623.051 793.557 619.142C793.557 615.234 796.799 612.064 800.799 612.064C804.798 612.064 808.041 615.234 808.041 619.142" fill="#FFCC37"/><path id="Fill 38" fill-rule="evenodd" clip-rule="evenodd" d="M672.539 619.142C672.539 623.051 669.296 626.219 665.295 626.219C661.297 626.219 658.055 623.051 658.055 619.142C658.055 615.234 661.297 612.064 665.295 612.064C669.296 612.064 672.539 615.234 672.539 619.142" fill="#FFCC37"/><path id="Fill 40" fill-rule="evenodd" clip-rule="evenodd" d="M537.034 619.142C537.034 623.051 533.792 626.219 529.792 626.219C525.791 626.219 522.551 623.051 522.551 619.142C522.551 615.234 525.791 612.064 529.792 612.064C533.792 612.064 537.034 615.234 537.034 619.142" fill="#FFCC37"/><path id="Fill 42" fill-rule="evenodd" clip-rule="evenodd" d="M401.531 619.142C401.531 623.051 398.288 626.219 394.289 626.219C390.289 626.219 387.047 623.051 387.047 619.142C387.047 615.234 390.289 612.064 394.289 612.064C398.288 612.064 401.531 615.234 401.531 619.142" fill="#FFCC37"/><path id="Fill 44" fill-rule="evenodd" clip-rule="evenodd" d="M266.029 619.142C266.029 623.051 262.786 626.219 258.786 626.219C254.787 626.219 251.545 623.051 251.545 619.142C251.545 615.234 254.787 612.064 258.786 612.064C262.786 612.064 266.029 615.234 266.029 619.142" fill="#FFCC37"/><path id="Fill 46" fill-rule="evenodd" clip-rule="evenodd" d="M663.663 522.785C663.663 522.785 688.518 544.429 706.325 598.107H678.959C678.959 598.107 670.358 558.179 650.234 522.796L663.663 522.785Z" fill="#F1758E"/><path id="Fill 48" fill-rule="evenodd" clip-rule="evenodd" d="M362.265 522.795C362.265 522.795 297.789 543.438 248.63 598.107H197.746C197.746 598.107 245.684 537.381 337.906 522.795H362.265Z" fill="#F1758E"/><g id="Group 52"><path id="Fill 50" fill-rule="evenodd" clip-rule="evenodd" d="M681.628 694.628H374.331C365.212 694.628 357.818 701.852 357.818 710.763C357.818 711.383 357.862 711.992 357.933 712.594C367.404 714.19 377.013 715 386.648 715H672.939C681.313 715 689.669 714.408 697.93 713.204C698.055 712.406 698.14 711.596 698.14 710.763C698.14 701.852 690.747 694.628 681.628 694.628" fill="#FFCC37"/></g></g></g><g id="Dialogue Box 2" transform="translate(760 162) scale(1.3301435406698565 1.297709923664122)"><g id="Dialogue Box 2/Periwinkle Rectircle"><g id="Group 3"><path id="Fill 1" fill-rule="evenodd" clip-rule="evenodd" d="M187 58.1698V58.1698C187 80.3558 169.016 98.3398 146.831 98.3398H99.437C98.486 98.3398 97.566 98.6788 96.842 99.2948L80.938 112.847C78.341 115.06 74.344 113.215 74.344 109.803V102.34C74.344 100.131 72.553 98.3398 70.344 98.3398H61.858C39.673 98.3398 21.688 80.3558 21.688 58.1698C21.688 35.9838 39.673 17.9998 61.858 17.9998H146.831C169.016 17.9998 187 35.9838 187 58.1698" fill="#96A5D4"/></g></g></g><g id="Master/Worms/Jae" transform="translate(329 112) scale(1.3289036544850499 1.3015873015873016)"><g id="Master/Worms/Jae"><g id="Body/Jae" transform="translate(47.918 130.42) scale(1 1)"><g id="Body/Jae/Grey"><g id="Group 10"><g id="Group 3"><path id="Fill 1" fill-rule="evenodd" clip-rule="evenodd" d="M0.000244141 105.107V184.221H208.214V105.107C208.214 47.61 161.604 1 104.107 1C46.6102 1 0.000244141 47.61 0.000244141 105.107Z" fill="#CBD3D8"/></g><path id="Fill 4" fill-rule="evenodd" clip-rule="evenodd" d="M100.977 64.6694C100.977 84.3654 85.0104 100.332 65.3144 100.332C45.6184 100.332 29.6514 84.3654 29.6514 64.6694C29.6514 44.9734 45.6184 29.0064 65.3144 29.0064C85.0104 29.0064 100.977 44.9734 100.977 64.6694" fill="#74BAB9"/><path id="Fill 6" fill-rule="evenodd" clip-rule="evenodd" d="M178.563 64.6694C178.563 84.3654 162.596 100.332 142.9 100.332C123.204 100.332 107.237 84.3654 107.237 64.6694C107.237 44.9734 123.204 29.0064 142.9 29.0064C162.596 29.0064 178.563 44.9734 178.563 64.6694" fill="#74BAB9"/><path id="Fill 8" fill-rule="evenodd" clip-rule="evenodd" d="M0 184.22H208.215V113.696H0V184.22Z" fill="#AAB8BF"/></g></g></g><g id="Eyes/Jae" transform="translate(124.918 186.42) scale(1 1)"><g id="Eyes/Jae/Naughty"><g id="Group 7"><g id="Group 3"><path id="Fill 1" fill-rule="evenodd" clip-rule="evenodd" d="M38.6802 16.7879V16.7879C36.8742 16.7879 35.4102 15.3239 35.4102 13.5189V10.2439C35.4102 8.43791 36.8742 6.97391 38.6802 6.97391C40.4862 6.97391 41.9502 8.43791 41.9502 10.2439V13.5189C41.9502 15.3239 40.4862 16.7879 38.6802 16.7879" fill="#101335"/></g><g id="Group 6"><path id="Fill 4" fill-rule="evenodd" clip-rule="evenodd" d="M10.0023 19.891C9.34526 19.891 8.70126 19.567 8.31826 18.974C7.72126 18.045 7.98826 16.808 8.91726 16.209L13.8893 13.006L9.32126 9.604C8.43626 8.944 8.25226 7.691 8.91226 6.805C9.57226 5.92 10.8253 5.736 11.7113 6.396L17.6043 10.786C18.3543 11.345 18.7833 12.237 18.7513 13.172C18.7203 14.106 18.2313 14.967 17.4443 15.474L11.0833 19.572C10.7483 19.788 10.3733 19.891 10.0023 19.891" fill="#101335"/></g></g></g></g><g id="Mouth/Jae" transform="translate(132.77 206.476) scale(0.975 1)"><g id="Mouth/Jae/Teeth Out"><g id="Group 7"><path id="Fill 1" fill-rule="evenodd" clip-rule="evenodd" d="M15.6155 15.8476H14.3045C12.7675 15.8476 11.5215 14.6016 11.5215 13.0636V8.5726H18.3985V13.0636C18.3985 14.6016 17.1525 15.8476 15.6155 15.8476" fill="#FFEFCD"/><path id="Fill 3" fill-rule="evenodd" clip-rule="evenodd" d="M25.3323 15.8476H24.0213C22.4843 15.8476 21.2383 14.6016 21.2383 13.0636V8.5726H28.1153V13.0636C28.1153 14.6016 26.8693 15.8476 25.3323 15.8476" fill="#FFEFCD"/><path id="Fill 5" fill-rule="evenodd" clip-rule="evenodd" d="M19.612 10.6044C8.96596 10.6044 6.49696 7.04641 6.10996 6.33241C5.69296 5.56641 5.97796 4.60641 6.74496 4.19041C7.48796 3.78741 8.42096 4.04341 8.85396 4.76641C8.96296 4.91441 10.984 7.44441 19.612 7.44441C29.025 7.44441 32.914 4.39141 32.952 4.36041C33.629 3.81441 34.62 3.91241 35.171 4.57941C35.721 5.24841 35.637 6.23141 34.973 6.78941C34.789 6.94541 30.308 10.6044 19.612 10.6044" fill="#171617"/></g></g></g><g id="Hair/Jae" transform="translate(5.91797 0.420013) scale(1 1)"><g id="Hair/Jae/Blue Puff"><g id="Group 3"><path id="Fill 1" fill-rule="evenodd" clip-rule="evenodd" d="M106 103.289C106 95.8174 110.958 91.5004 110.958 91.5004C126.832 107.23 146.809 95.1904 162.959 95.1904C176.503 95.1904 188.949 107.008 188.949 121.966C188.949 129.581 186.004 135 183.762 138.022C183.762 138.022 171.717 134.385 158.854 133.601C157.112 144.771 147.448 153.358 135.79 153.358C122.899 153.358 112.448 142.907 112.448 130.016C112.448 125.779 113.578 121.806 115.552 118.38C109.329 115.227 106 109.574 106 103.289" fill="#41AFE4"/></g></g></g><g id="Clothes/Jae" transform="translate(47.918 251.42) scale(1 1)"><g id="Clothes/Jae/Purple Sprinkles"><g id="Group 28"><path id="Fill 1" fill-rule="evenodd" clip-rule="evenodd" d="M0 64.5816H208.215V1.00061H0V64.5816Z" fill="#BF62A2"/><g id="Group 27"><path id="Fill 2" fill-rule="evenodd" clip-rule="evenodd" d="M115.879 8.84682C117.355 10.8118 119.612 11.8478 121.899 11.8478C123.469 11.8478 125.052 11.3588 126.4 10.3458L138.852 0.999817H115.157C114.808 1.70782 114.564 2.47182 114.448 3.27482C114.165 5.26382 114.673 7.24182 115.879 8.84682" fill="#604299"/><path id="Fill 4" fill-rule="evenodd" clip-rule="evenodd" d="M32.8883 11.2799C33.7423 13.0959 35.2523 14.4719 37.1413 15.1529C37.9803 15.4549 38.8373 15.5979 39.6823 15.5979C42.7613 15.5979 45.6573 13.6909 46.7593 10.6319L50.2323 0.999939H34.2533L32.6183 5.53394C31.9373 7.42294 32.0343 9.46294 32.8883 11.2799" fill="#604299"/><path id="Fill 6" fill-rule="evenodd" clip-rule="evenodd" d="M70.3128 5.13049L88.2948 17.8165C89.2418 18.4835 90.3048 18.9155 91.4168 19.0955C92.2288 19.2275 93.0678 19.2245 93.9038 19.0805C95.8848 18.7385 97.6128 17.6455 98.7648 16.0095C99.9228 14.3695 100.375 12.3765 100.033 10.3965C99.6918 8.41749 98.5998 6.69149 96.9588 5.53249L90.5338 1.00049H67.4028C67.8638 2.67049 68.8778 4.11849 70.3128 5.13049" fill="#604299"/><g id="Group 10"><path id="Fill 8" fill-rule="evenodd" clip-rule="evenodd" d="M107.777 38.0081C106.348 36.5971 104.486 35.8471 102.451 35.8411C100.443 35.8541 98.5586 36.6481 97.1486 38.0771C95.7376 39.5061 94.9676 41.4001 94.9816 43.4051L95.1176 64.5821H110.149L110.012 43.3101C110.001 41.3021 109.207 39.4191 107.777 38.0081" fill="#604299"/></g><path id="Fill 11" fill-rule="evenodd" clip-rule="evenodd" d="M66.4175 27.7575C65.7485 25.8635 64.3825 24.3435 62.5695 23.4785C60.7555 22.6115 58.7155 22.5045 56.8255 23.1745C52.9205 24.5545 50.8645 28.8565 52.2445 32.7625L59.5815 53.5105C60.6705 56.5915 63.5775 58.5215 66.6755 58.5215C67.5045 58.5215 68.3495 58.3825 69.1755 58.0905C73.0815 56.7085 75.1355 52.4045 73.7535 48.4995L66.4175 27.7575Z" fill="#604299"/><path id="Fill 13" fill-rule="evenodd" clip-rule="evenodd" d="M162.174 29.9796C162.688 30.0856 163.204 30.1386 163.717 30.1386C165.166 30.1386 166.585 29.7176 167.825 28.9036C169.503 27.8016 170.653 26.1126 171.06 24.1466L175.528 2.60161C175.638 2.06761 175.685 1.53161 175.681 1.00061H160.508L156.342 21.0936C155.5 25.1516 158.116 29.1376 162.174 29.9796" fill="#604299"/><path id="Fill 15" fill-rule="evenodd" clip-rule="evenodd" d="M140.122 29.0163C139.368 24.9413 135.443 22.2353 131.368 22.9933C127.294 23.7443 124.59 27.6703 125.342 31.7503L129.342 53.3893C130.012 57.0023 133.178 59.5373 136.731 59.5373C137.183 59.5373 137.641 59.4963 138.099 59.4123C140.073 59.0473 141.787 57.9353 142.925 56.2803C144.062 54.6273 144.487 52.6293 144.122 50.6553L140.122 29.0163Z" fill="#604299"/><path id="Fill 17" fill-rule="evenodd" clip-rule="evenodd" d="M166.508 41.4592C162.493 42.4752 160.051 46.5682 161.065 50.5862C161.556 52.5322 162.775 54.1702 164.499 55.1992C165.68 55.9032 166.999 56.2642 168.337 56.2642C168.955 56.2642 169.577 56.1882 170.191 56.0322L191.523 50.6462C193.471 50.1542 195.111 48.9342 196.14 47.2092C197.168 45.4852 197.463 43.4652 196.973 41.5192C195.958 37.5022 191.867 35.0562 187.848 36.0712L166.508 41.4592Z" fill="#604299"/><g id="Group 21"><path id="Fill 19" fill-rule="evenodd" clip-rule="evenodd" d="M19.726 37.7625C20.964 37.5425 22.103 37.0295 23.063 36.2705C23.636 35.8185 24.145 35.2795 24.576 34.6635C25.723 33.0185 26.163 31.0245 25.812 29.0495C25.461 27.0715 24.362 25.3495 22.714 24.1995L4.671 11.6025C3.251 10.6125 1.609 10.2115 0 10.2935V26.6745L14.107 36.5235C15.753 37.6735 17.748 38.1135 19.726 37.7625" fill="#604299"/></g><path id="Fill 22" fill-rule="evenodd" clip-rule="evenodd" d="M47.7085 58.1295C46.6925 54.1135 42.5955 51.6735 38.5835 52.6855L17.2495 58.0725C14.1125 58.8645 11.9435 61.5345 11.6235 64.5815H46.3465C47.7175 62.8155 48.2985 60.4625 47.7085 58.1295" fill="#604299"/><g id="Group 26"><path id="Fill 24" fill-rule="evenodd" clip-rule="evenodd" d="M195.122 4.90437C193.129 5.13737 191.345 6.13237 190.1 7.70737C188.854 9.28237 188.296 11.2484 188.53 13.2434C188.765 15.2374 189.761 17.0214 191.335 18.2644L208.215 31.6084V12.4474L200.658 6.47437C199.083 5.22837 197.126 4.67037 195.122 4.90437" fill="#604299"/></g></g></g></g></g></g></g></g></svg>